<svg height='300px' width='300px'  fill="#000000" xmlns="http://www.w3.org/2000/svg" viewBox="0 0 370 691.00616" x="0px" y="0px"><defs><style>.cls-1{fill:none;}</style></defs><title>Fichier 47Sign-language</title><g data-name="Calque 2"><g data-name="Calque 1"><path class="cls-1" d="M279,196.00616c0-27.584,1.9541-38.31348,8.59277-45.62207-8.66894-5.5459-17.05175-13.24122-24.4414-20.02344-2.99317-2.74707-5.82032-5.34278-8.40528-7.5586-6.76367-5.79687-14.29687-8.66992-22.05761-8.66992-9.7461,0-19.84864,4.53028-29.23633,13.49121-9.02637,8.61621-17.41992,29.50489-21.90527,54.51563-4.51661,25.17969-3.1211,43.99316.48535,48.91015,20.707,28.23633,39.32715,37.55762,55.34765,27.69922C264.21875,242.23174,279,219.94952,279,196.00616Z"></path><path class="cls-1" d="M347.87988,125.07891a28.77219,28.77219,0,0,1-4.00879,13.1001C336.32227,151.05694,320.27051,158.00616,309,158.00616a32.1105,32.1105,0,0,1-12.49414-2.83008,4.97568,4.97568,0,0,1-.9707,1.36523C291.10742,160.97,289,168.0042,289,196.00616c0,25.90625-14.57178,49.82959-41.18359,67.8955a4.94116,4.94116,0,0,1,1.65527,1.86817c1.15723,2.31445,2.4541,5.24707,3.95508,8.64355,3.96777,8.97852,11.35351,25.69043,16.60351,28.02344a5.00008,5.00008,0,1,1-4.06054,9.13867c-8.12989-3.61328-14.37305-16.56445-21.68946-33.11914-1.45019-3.28027-2.70215-6.1123-3.75195-8.21387a4.94763,4.94763,0,0,1-.45752-1.54052,33.139,33.139,0,0,1-15.477,3.93506c-19.69434.001-37.75391-18.12208-50.626-35.67383-7.35351-10.02832-5.99121-35.80762-2.26465-56.58985,4.915-27.40136,14.20215-49.82519,24.84473-59.98437,24.67969-23.55664,49.60742-18.1211,64.70606-5.17871,2.71386,2.32617,5.60156,4.97656,8.65918,7.7832,12.1416,11.14356,27.251,25.0127,39.08691,25.0127,8.42578,0,20.85547-5.69043,26.24316-14.88379,3.72364-6.35157,3.51954-13.30664-.60546-20.67285C326.45215,97.83282,311.93359,77.555,288.916,62.868a4.98362,4.98362,0,0,1-2.7959-1.73486C269.3208,51.05205,248.20654,44.00616,222,44.00616c-65.12012,0-116.50195,89.00586-124.09668,126.98046a5.00039,5.00039,0,1,1-9.80664-1.96093c5.51855-27.58887,25.59082-61.41016,43.03711-82.68946C166.5918,43.08526,200.11816,34.00616,222,34.00616a134.92019,134.92019,0,0,1,54.48291,10.97412A87.8269,87.8269,0,0,0,207,10.00616l-2.51465-.00293c-19.70215-.04688-56.30273-.10938-75.95019,19.53808C104.5459,53.53057,10,174.28057,10,208.00616c0,16.0039,4.99512,51.71582,10.28418,89.52441C27.18164,346.84209,35,402.73272,35,436.00616v245H187v-85c0-19.66114,19.40137-54.69239,38.15918-77.20118,19.30664-23.168,50.06152-78.36914,53.94824-96.8291.48145-2.28906.97852-4.85742,1.5166-7.64062,4.10743-21.24024,10.31446-53.33887,29.84082-72.86426C330.38867,321.54619,360,216.58428,360,177.00616,360,141.47539,352.769,126.58721,347.87988,125.07891ZM157.60742,325.27276a5.00026,5.00026,0,0,1-5.21484-8.53321c1.74023-1.06347,3.51758-2.13574,5.30957-3.21777C171.332,305.29522,190,294.02862,190,286.00616c0-9.34278-8.12305-18.09278-21.22949-29.18262a5.0002,5.0002,0,0,1,6.459-7.63477C187.76367,259.79424,200,271.37334,200,286.00616c0,13.667-18.876,25.05957-37.13086,36.07714C161.09375,323.15557,159.332,324.21807,157.60742,325.27276ZM189.585,489.99932A4.99946,4.99946,0,1,1,180.415,486.013c9.61133-22.10742,23.65527-124.41113,24.59277-141.28418a4.99989,4.99989,0,0,1,9.98438.55469C213.98047,363.49639,200.0625,465.90166,189.585,489.99932Z"></path><path d="M348.62012,115.04522a5.02344,5.02344,0,0,0-1.9834.15185,37.67169,37.67169,0,0,0-3.27442-7.63427c-7.15722-12.78125-19.832-31.20606-39.5625-46.39356-3.28906-2.53174-6.66748-4.86865-10.11621-7.04883C278.044,21.67608,243.48145.00616,207,.00616L204.50488.00323c-21.11816-.03711-60.456-.11817-83.04,22.46777-10.74609,10.74512-40.62695,46.61133-68.78222,86.00293C17.72461,157.38213,0,190.86944,0,208.00616c0,16.69921,4.81055,51.08984,10.38086,90.90918C17.2334,347.90362,25,403.428,25,436.00616v250a4.99963,4.99963,0,0,0,5,5H192a4.99963,4.99963,0,0,0,5-5v-90c0-15.32325,16.07812-47.084,35.84082-70.79883,20.42578-24.51074,51.85645-81.24219,56.05176-101.1709.49219-2.33789,1-4.96094,1.5498-7.80176,3.876-20.04394,9.7334-50.333,27.09278-67.69336,14.59961-14.59863,29.084-59.84277,34.63476-78.61719C363.001,233.28448,370,196.81182,370,177.00616,370,139.32744,362.207,116.74346,348.62012,115.04522ZM310.46484,341.471c-19.52636,19.52539-25.73339,51.624-29.84082,72.86426-.53808,2.7832-1.03515,5.35156-1.5166,7.64062-3.88672,18.46-34.6416,73.66114-53.94824,96.8291C206.40137,541.31377,187,576.345,187,596.00616v85H35v-245c0-33.27344-7.81836-89.16407-14.71582-138.47559C14.99512,259.722,10,224.01006,10,208.00616c0-33.72559,94.5459-154.47559,118.53516-178.46485,19.64746-19.64746,56.248-19.585,75.95019-19.53808L207,10.00616a87.8269,87.8269,0,0,1,69.48291,34.97412A134.92019,134.92019,0,0,0,222,34.00616c-21.88184,0-55.4082,9.0791-90.86621,52.33007-17.44629,21.2793-37.51856,55.10059-43.03711,82.68946a5.00039,5.00039,0,1,0,9.80664,1.96093C105.49805,133.012,156.87988,44.00616,222,44.00616c26.20654,0,47.3208,7.04589,64.12012,17.127A4.98362,4.98362,0,0,0,288.916,62.868c23.01757,14.687,37.53613,34.96485,45.72168,49.58155,4.125,7.36621,4.3291,14.32128.60546,20.67285-5.38769,9.19336-17.81738,14.88379-26.24316,14.88379-11.83594,0-26.94531-13.86914-39.08691-25.0127-3.05762-2.80664-5.94532-5.457-8.65918-7.7832-15.09864-12.94239-40.02637-18.37793-64.70606,5.17871-10.64258,10.15918-19.92969,32.583-24.84473,59.98437-3.72656,20.78223-5.08886,46.56153,2.26465,56.58985,12.87207,17.55175,30.93164,35.6748,50.626,35.67383a33.139,33.139,0,0,0,15.477-3.93506,4.94763,4.94763,0,0,0,.45752,1.54052c1.0498,2.10157,2.30176,4.9336,3.75195,8.21387,7.31641,16.55469,13.55957,29.50586,21.68946,33.11914a5.00008,5.00008,0,1,0,4.06054-9.13867c-5.25-2.333-12.63574-19.04492-16.60351-28.02344-1.501-3.39648-2.79785-6.3291-3.95508-8.64355a4.94116,4.94116,0,0,0-1.65527-1.86817C274.42822,245.83575,289,221.91241,289,196.00616c0-28.002,2.10742-35.03614,6.53516-39.46485a4.97568,4.97568,0,0,0,.9707-1.36523A32.1105,32.1105,0,0,0,309,158.00616c11.27051,0,27.32227-6.94922,34.87109-19.82715a28.77219,28.77219,0,0,0,4.00879-13.1001C352.769,126.58721,360,141.47539,360,177.00616,360,216.58428,330.38867,321.54619,310.46484,341.471Zm-73.085-82.72266c-16.0205,9.8584-34.64062.53711-55.34765-27.69922-3.60645-4.917-5.002-23.73046-.48535-48.91015,4.48535-25.01074,12.8789-45.89942,21.90527-54.51563,9.38769-8.96093,19.49023-13.49121,29.23633-13.49121,7.76074,0,15.29394,2.873,22.05761,8.66992,2.585,2.21582,5.41211,4.81153,8.40528,7.5586,7.38965,6.78222,15.77246,14.47754,24.4414,20.02344C280.9541,157.69268,279,168.42217,279,196.00616,279,219.94952,264.21875,242.23174,237.37988,258.74834Z"></path><path d="M200,286.00616c0-14.63282-12.23633-26.21192-24.77051-36.81739a5.0002,5.0002,0,0,0-6.459,7.63477C181.877,267.91338,190,276.66338,190,286.00616c0,8.02246-18.668,19.28906-32.29785,27.51562-1.792,1.082-3.56934,2.1543-5.30957,3.21777a5.00026,5.00026,0,1,0,5.21484,8.53321c1.72461-1.05469,3.48633-2.11719,5.26172-3.18946C181.124,311.06573,200,299.67315,200,286.00616Z"></path><path d="M210.27734,340.014a4.9964,4.9964,0,0,0-5.26953,4.71484c-.9375,16.873-14.98144,119.17676-24.59277,141.28418a4.99946,4.99946,0,1,0,9.16992,3.98633c10.47754-24.09766,24.39551-126.50293,25.40723-144.71582A5.00022,5.00022,0,0,0,210.27734,340.014Z"></path></g></g></svg>