<?xml version="1.0" encoding="utf-8"?>
<!-- Generator: Adobe Illustrator 21.1.0, SVG Export Plug-In . SVG Version: 6.00 Build 0)  -->
<svg version="1.1" id="Layer_1" xmlns="http://www.w3.org/2000/svg" xmlns:xlink="http://www.w3.org/1999/xlink" x="0px" y="0px"
	 viewBox="0 0 511 511" style="enable-background:new 0 0 511 511;" xml:space="preserve">
<style type="text/css">
	.st0{fill:#FFFFFF;}
</style>
<g>
	<g>
		<g>
			<path class="st0" d="M215,241.8c9.5-4.8,16.7-10.1,21.6-15.8c8.7-10.4,13.1-24.1,13.1-41.1c0-16.6-4.3-30.7-13-42.6
				c-14.4-19.3-38.8-29.2-73.3-29.7H26.8v278.9h127.4c14.4,0,27.7-1.2,39.9-3.7c12.3-2.5,22.9-7.2,31.9-14c8-5.9,14.7-13.3,20-21.9
				c8.4-13.1,12.6-27.9,12.6-44.5c0-16-3.7-29.7-11-40.9C240.2,255.2,229.4,247,215,241.8z M83.1,161h61.5c13.5,0,24.7,1.5,33.4,4.3
				c10.1,4.2,15.2,12.8,15.2,25.8c0,11.7-3.9,19.9-11.5,24.5c-7.7,4.6-17.7,6.9-29.9,6.9H83.1V161z M180.4,338.1
				c-6.8,3.3-16.4,4.9-28.7,4.9H83.1v-74.4h69.6c12.1,0.1,21.6,1.7,28.3,4.7c12,5.4,18,15.4,18,29.9
				C199,320.4,192.8,332,180.4,338.1z"/>
			<rect x="319.1" y="125.5" class="st0" width="121.2" height="34.7"/>
			<path class="st0" d="M482.4,262.5c-2.5-16.2-8.1-30.4-16.7-42.6c-9.5-13.9-21.5-24.1-36.1-30.5c-14.6-6.5-30.9-9.7-49.2-9.7
				c-30.6,0-55.5,9.6-74.7,28.6c-19.2,19.1-28.8,46.5-28.8,82.2c0,38.1,10.6,65.7,31.9,82.6c21.2,16.9,45.8,25.4,73.6,25.4
				c33.7,0,59.9-10,78.7-30.1c12-12.6,18.8-25.1,20.2-37.3h-55.8c-3.2,6-7,10.8-11.3,14.2c-7.8,6.3-17.9,9.4-30.3,9.4
				c-11.8,0-21.8-2.6-30.2-7.8c-13.8-8.3-21-22.8-21.9-43.5h152.3C484.4,285.7,483.8,272,482.4,262.5z M333.2,267.9
				c2-13.4,6.9-24,14.6-31.9c7.7-7.8,18.6-11.8,32.6-11.8c12.9,0,23.7,3.7,32.5,11.1c8.7,7.5,13.6,18.3,14.6,32.6H333.2z"/>
		</g>
	</g>
</g>
</svg>
