<?xml version="1.0" encoding="utf-8"?>
<!-- Generator: Adobe Illustrator 21.1.0, SVG Export Plug-In . SVG Version: 6.00 Build 0)  -->
<svg version="1.1" id="Layer_1" xmlns="http://www.w3.org/2000/svg" xmlns:xlink="http://www.w3.org/1999/xlink" x="0px" y="0px"
	 viewBox="0 0 511 511" style="enable-background:new 0 0 511 511;" xml:space="preserve">
<style type="text/css">
	.st0{fill:#FFFFFF;}
</style>
<path class="st0" d="M255.5,36.1c-121,0-219.4,98.4-219.4,219.4s98.4,219.4,219.4,219.4s219.4-98.4,219.4-219.4
	S376.5,36.1,255.5,36.1z M398.5,139.5c24.6,30.3,39.8,68.6,41.1,110.3c-45.6-9.4-87-8.3-123.4-1.2c-6.6-15.4-13.4-30.2-20.3-44.1
	C335.5,187.5,370.1,165.6,398.5,139.5z M373.8,114.4c-28.2,25.7-60.9,44.8-94.3,58.9c-24.6-44.9-48.1-78.7-62.4-97.9
	c12.4-2.6,25.2-4.1,38.4-4.1C300.5,71.3,341.8,87.5,373.8,114.4z M181.5,86.9c10.8,14,36.6,49.1,64.2,99
	c-69.5,22.6-136.9,26.5-169.3,26.8C89.9,156.2,129.4,109.8,181.5,86.9z M71.5,247.9c0.3,0,0.7,0,1,0c22.4,0,63.4-1.5,111.7-10.3
	c27.6-5,53.7-11.8,78.2-20.2c6.4,12.7,12.7,26.1,18.9,40.2c-34.3,11.1-63.3,27-86.2,42.7c-38.5,26.5-65.4,55.9-80.1,74
	c-27.2-32.1-43.7-73.6-43.7-118.9C71.3,253,71.4,250.5,71.5,247.9z M140.4,399.2c12.7-15.9,38.4-45,75.7-70.4
	c25.3-17.3,51.6-30.2,78.5-38.6c15.7,40.6,29,85.4,37,133c-23.2,10.6-49,16.5-76.1,16.5C212,439.7,171.9,424.5,140.4,399.2z
	 M364.1,404.2c-8.2-43.7-20.5-84.8-34.6-122.4c34.8-5.9,70.8-4.7,107.8,3.6C429.3,334,402.2,376.3,364.1,404.2z"/>
</svg>
