<svg width="16" height="16" viewBox="0 0 16 16" fill="none" xmlns="http://www.w3.org/2000/svg">
<path d="M14.9717 5.11908C14.9398 4.37567 14.8186 3.86199 14.6463 3.41849C14.4676 2.94947 14.1964 2.52512 13.8358 2.17734C13.4849 1.82318 13.0605 1.54559 12.5979 1.37011C12.1512 1.19782 11.6439 1.07657 10.8973 1.04467C10.1475 1.00957 9.90819 1 8.00659 1C6.10499 1 5.86569 1.00957 5.11908 1.04148C4.37567 1.07338 3.86199 1.19463 3.41849 1.36692C2.94628 1.54559 2.52512 1.8168 2.17734 2.17734C1.82318 2.5283 1.54559 2.95266 1.37011 3.4153C1.19782 3.86199 1.07657 4.36928 1.04467 5.1159C1.00957 5.86569 1 6.10499 1 8.00659C1 9.90819 1.00957 10.1475 1.04148 10.8941C1.07338 11.6375 1.19463 12.1512 1.36692 12.5947C1.54559 13.0637 1.81999 13.4881 2.17734 13.8358C2.5283 14.19 2.95266 14.4676 3.4153 14.6431C3.86199 14.8154 4.36928 14.9366 5.1159 14.9685C5.86251 15.0004 6.10181 15.01 8.00341 15.01C9.90501 15.01 10.1443 15.0004 10.8909 14.9685C11.6343 14.9366 12.148 14.8154 12.5915 14.6431C13.5328 14.2793 14.2762 13.5359 14.6399 12.5947C14.8122 12.148 14.9334 11.6407 14.9653 10.8941C14.9972 10.1475 15.0068 9.90819 15.0068 8.00659C15.0068 6.10499 15.0036 5.86569 14.9717 5.11908ZM13.7114 10.8367C13.6827 11.5195 13.5678 11.8896 13.4721 12.1353C13.236 12.7447 12.751 13.2296 12.1416 13.4657C11.896 13.5615 11.5227 13.6763 10.8431 13.705C10.1028 13.737 9.88267 13.7465 8.01298 13.7465C6.14329 13.7465 5.91992 13.737 5.1829 13.705C4.50011 13.6763 4.12999 13.5615 3.88431 13.4657C3.58121 13.3541 3.30362 13.1754 3.08028 12.9425C2.84737 12.716 2.66869 12.4416 2.55702 12.1384C2.4613 11.8928 2.34644 11.5195 2.31772 10.8399C2.28582 10.0996 2.27625 9.87949 2.27625 8.0098C2.27625 6.14008 2.28582 5.91674 2.31772 5.1797C2.34644 4.49691 2.4613 4.12681 2.55702 3.88113C2.66869 3.57802 2.84737 3.30043 3.08347 3.07709C3.31001 2.84418 3.5844 2.6655 3.88751 2.55383C4.1332 2.45811 4.50648 2.34325 5.18608 2.31453C5.92631 2.28263 6.14647 2.27306 8.01616 2.27306C9.88906 2.27306 10.1092 2.28263 10.8462 2.31453C11.529 2.34325 11.8991 2.45811 12.1448 2.55383C12.4479 2.6655 12.7255 2.84418 12.9489 3.07709C13.1818 3.30363 13.3604 3.57802 13.4721 3.88113C13.5678 4.12681 13.6827 4.50011 13.7114 5.1797C13.7433 5.91992 13.7529 6.14008 13.7529 8.0098C13.7529 9.87949 13.7433 10.0964 13.7114 10.8367Z" fill="#121212"/>
<path d="M8.00889 4.40918C6.02074 4.40918 4.40918 6.02074 4.40918 8.00889C4.40918 9.99702 6.02074 11.6086 8.00889 11.6086C9.99702 11.6086 11.6086 9.99702 11.6086 8.00889C11.6086 6.02074 9.99702 4.40918 8.00889 4.40918ZM8.00889 10.3417C6.71962 10.3417 5.6729 9.29496 5.6729 8.00569C5.6729 6.71644 6.71962 5.66969 8.00889 5.66969C9.29814 5.66969 10.3449 6.71644 10.3449 8.00569C10.3449 9.29496 9.29814 10.3417 8.00889 10.3417Z" fill="#121212"/>
<path d="M12.5907 4.26409C12.5907 4.72683 12.2141 5.1034 11.7514 5.1034C11.2887 5.1034 10.9121 4.72683 10.9121 4.26409C10.9121 3.80138 11.2887 3.4248 11.7514 3.4248C12.2141 3.4248 12.5907 3.80138 12.5907 4.26409Z" fill="#121212"/>
</svg>
