<?xml version="1.0" encoding="utf-8"?>
<!-- Generator: Adobe Illustrator 21.1.0, SVG Export Plug-In . SVG Version: 6.00 Build 0)  -->
<svg version="1.1" id="Layer_1" xmlns="http://www.w3.org/2000/svg" xmlns:xlink="http://www.w3.org/1999/xlink" x="0px" y="0px"
	 viewBox="0 0 511 511" style="enable-background:new 0 0 511 511;" xml:space="preserve">
<style type="text/css">
	.st0{fill:#FFFFFF;}
</style>
<path class="st0" d="M474.7,165.1c-1-23.3-4.8-39.4-10.2-53.3c-5.6-14.7-14.1-28-25.4-38.9c-11-11.1-24.3-19.8-38.8-25.3
	c-14-5.4-29.9-9.2-53.3-10.2c-23.5-1.1-31-1.4-90.6-1.4s-67.1,0.3-90.5,1.3c-23.3,1-39.4,4.8-53.3,10.2c-14.8,5.6-28,14.1-38.9,25.4
	c-11.1,11-19.8,24.3-25.3,38.8c-5.4,14-9.2,29.9-10.2,53.3c-1.1,23.5-1.4,31-1.4,90.6s0.3,67.1,1.3,90.5c1,23.3,4.8,39.4,10.2,53.3
	c5.6,14.7,14.2,28,25.4,38.9c11,11.1,24.3,19.8,38.8,25.3c14,5.4,29.9,9.2,53.3,10.2s30.9,1.3,90.5,1.3s67.1-0.3,90.5-1.3
	c23.3-1,39.4-4.8,53.3-10.2c29.5-11.4,52.8-34.7,64.2-64.2c5.4-14,9.2-29.9,10.2-53.3s1.3-30.9,1.3-90.5S475.7,188.5,474.7,165.1z
	 M435.2,344.3c-0.9,21.4-4.5,33-7.5,40.7c-7.4,19.1-22.6,34.3-41.7,41.7c-7.7,3-19.4,6.6-40.7,7.5c-23.2,1-30.1,1.3-88.7,1.3
	s-65.6-0.3-88.7-1.3c-21.4-0.9-33-4.5-40.7-7.5c-9.5-3.5-18.2-9.1-25.2-16.4c-7.3-7.1-12.9-15.7-16.4-25.2c-3-7.7-6.6-19.4-7.5-40.7
	c-1-23.2-1.3-30.1-1.3-88.7s0.3-65.6,1.3-88.7c0.9-21.4,4.5-33,7.5-40.7c3.5-9.5,9.1-18.2,16.5-25.2c7.1-7.3,15.7-12.9,25.2-16.4
	c7.7-3,19.4-6.6,40.7-7.5c23.2-1,30.1-1.3,88.7-1.3c58.7,0,65.6,0.3,88.7,1.3c21.4,0.9,33,4.5,40.7,7.5c9.5,3.5,18.2,9.1,25.2,16.4
	c7.3,7.1,12.9,15.7,16.4,25.2c3,7.7,6.6,19.4,7.5,40.7c1,23.2,1.3,30.1,1.3,88.7S436.2,321.1,435.2,344.3z"/>
<path class="st0" d="M256.4,142.8c-62.3,0-112.8,50.5-112.8,112.8s50.5,112.8,112.8,112.8s112.8-50.5,112.8-112.8
	S318.7,142.8,256.4,142.8z M256.4,328.7c-40.4,0-73.2-32.8-73.2-73.2s32.8-73.2,73.2-73.2s73.2,32.8,73.2,73.2
	S296.8,328.7,256.4,328.7z"/>
<path class="st0" d="M400,138.3c0,14.5-11.8,26.3-26.3,26.3s-26.3-11.8-26.3-26.3s11.8-26.3,26.3-26.3S400,123.8,400,138.3z"/>
</svg>
