<?xml version="1.0" encoding="utf-8"?>
<!-- Generator: Adobe Illustrator 21.1.0, SVG Export Plug-In . SVG Version: 6.00 Build 0)  -->
<svg version="1.1" id="Layer_1" xmlns="http://www.w3.org/2000/svg" xmlns:xlink="http://www.w3.org/1999/xlink" x="0px" y="0px"
	 viewBox="0 0 511 511" style="enable-background:new 0 0 511 511;" xml:space="preserve">
<style type="text/css">
	.st0{fill:#FFFFFF;}
</style>
<g>
	<path class="st0" d="M112.2,71.6c-24.6,0-44.6,20.1-44.6,44.9c0,24.8,19.9,44.9,44.6,44.9s44.6-20.1,44.6-44.9
		C156.8,91.8,136.9,71.6,112.2,71.6z"/>
	<rect x="74.1" y="194.3" class="st0" width="76.3" height="245"/>
	<path class="st0" d="M345.8,187.4c-34.5,0-62.4,17.3-74.5,41.9v-35h-73.7v245H274V311.2c0-30.6,12.5-56.1,46-56.1
		c30.1,0,39.8,23.8,39.8,52.2v132H436V280.9C436,228.1,408.4,187.4,345.8,187.4z"/>
</g>
</svg>
