<?xml version="1.0" encoding="utf-8"?>
<!-- Generator: Adobe Illustrator 21.1.0, SVG Export Plug-In . SVG Version: 6.00 Build 0)  -->
<svg version="1.1" id="Layer_1" xmlns="http://www.w3.org/2000/svg" xmlns:xlink="http://www.w3.org/1999/xlink" x="0px" y="0px"
	 width="1920px" height="1920.2px" viewBox="0 0 1920 1920.2" style="enable-background:new 0 0 1920 1920.2;" xml:space="preserve"
	>
<style type="text/css">
	.st0{fill:#FFFCF8;}
	.st1{fill:none;stroke:#B8B7B8;stroke-width:10;stroke-miterlimit:10;}
	.st2{fill:url(#SVGID_1_);}
	.st3{fill:#FFFFFF;}
	.st4{fill:url(#SVGID_2_);}
	.st5{fill:none;}
	.st6{fill:#C12033;}
	.st7{fill:url(#SVGID_3_);}
	.st8{fill:url(#SVGID_4_);}
	.st9{fill:url(#SVGID_5_);}
	.st10{fill:url(#SVGID_6_);}
	.st11{fill:url(#SVGID_7_);}
	.st12{fill:url(#SVGID_8_);}
	.st13{fill:url(#SVGID_9_);}
	.st14{fill:url(#SVGID_10_);}
	.st15{fill:url(#SVGID_11_);}
	.st16{fill:url(#SVGID_12_);}
	.st17{fill:url(#SVGID_13_);}
	.st18{fill:url(#SVGID_14_);}
	.st19{fill:none;stroke:#B8B7B8;stroke-width:5;stroke-miterlimit:10;}
	.st20{fill:#EE4376;}
	.st21{fill:none;stroke:#B8B7B8;stroke-width:5.0736;stroke-miterlimit:10;}
	.st22{fill:url(#SVGID_15_);}
	.st23{fill:url(#SVGID_16_);}
	.st24{fill:none;stroke:#B8B7B8;stroke-width:2.5368;stroke-miterlimit:10;}
	.st25{fill:url(#SVGID_17_);}
	.st26{fill:url(#SVGID_18_);}
	.st27{fill:url(#SVGID_19_);}
	.st28{fill:url(#SVGID_20_);}
	.st29{fill:url(#SVGID_21_);}
	.st30{fill:url(#SVGID_22_);}
	.st31{fill:url(#SVGID_23_);}
	.st32{fill:url(#SVGID_24_);}
	.st33{fill:url(#SVGID_25_);}
	.st34{fill:url(#SVGID_26_);}
	.st35{fill:url(#SVGID_27_);}
	.st36{fill:url(#SVGID_28_);}
	.st37{fill:#E1DFE0;}
	.st38{fill:none;stroke:#000000;stroke-width:11;stroke-miterlimit:10;}
	.st39{fill:url(#SVGID_29_);}
	.st40{fill:url(#SVGID_30_);}
	.st41{stroke:#000000;stroke-width:5;stroke-miterlimit:10;}
	.st42{fill:url(#SVGID_31_);}
	.st43{fill:url(#SVGID_32_);}
	.st44{fill:url(#SVGID_33_);}
	.st45{fill:url(#SVGID_34_);}
	.st46{fill:url(#SVGID_35_);}
	.st47{fill:url(#SVGID_36_);}
	.st48{fill:url(#SVGID_37_);}
	.st49{fill:url(#SVGID_38_);}
	.st50{fill:url(#SVGID_39_);}
	.st51{fill:url(#SVGID_40_);}
	.st52{fill:url(#SVGID_41_);}
	.st53{fill:url(#SVGID_42_);}
	.st54{fill:url(#SVGID_43_);}
	.st55{fill:#BD5BA2;}
	.st56{fill:none;stroke:#B8B7B8;stroke-width:2;stroke-miterlimit:10;}
	.st57{fill:#B8B7B8;}
	.st58{fill:url(#SVGID_44_);}
	.st59{fill:url(#SVGID_45_);}
	.st60{fill:url(#SVGID_46_);}
	.st61{fill:url(#SVGID_47_);}
	.st62{fill:url(#SVGID_48_);}
</style>
<rect x="-10.9" y="-10.8" class="st0" width="1941.8" height="1941.8"/>
<g>
	<rect x="627.3" y="309.4" width="58.8" height="15.1"/>
	<line class="st21" x1="656.7" y1="406.6" x2="656.7" y2="455.4"/>
	<line class="st21" x1="1123.5" y1="406.6" x2="1123.5" y2="455.4"/>
	<g>
		<rect x="552.2" y="446.2" width="675.8" height="332.1"/>
		<rect x="552.2" y="1182.6" width="675.8" height="277.4"/>
		<linearGradient id="SVGID_1_" gradientUnits="userSpaceOnUse" x1="620.0861" y1="710.4416" x2="1160.1185" y2="1250.4741">
			<stop  offset="0" style="stop-color:#FAF092"/>
			<stop  offset="0.4" style="stop-color:#F3BD49"/>
			<stop  offset="1" style="stop-color:#985725"/>
		</linearGradient>
		<rect x="552.2" y="778.3" class="st2" width="675.8" height="404.3"/>
		<g>
			<g>
				<rect x="693.5" y="1413.6" class="st5" width="393.1" height="10"/>
				<path class="st3" d="M724.3,1415.2v3.1h3.4v1h-3.4v3.2h3.8v1h-5v-9.3h5v1H724.3z"/>
				<path class="st3" d="M729.9,1417.8c0.3-0.6,0.7-1,1.2-1.3c0.5-0.3,1.1-0.5,1.8-0.5c0.6,0,1.2,0.1,1.7,0.4c0.5,0.3,0.8,0.6,1.1,1
					v-1.3h1.2v7.3h-1.2v-1.4c-0.2,0.4-0.6,0.8-1.1,1.1c-0.5,0.3-1,0.4-1.7,0.4c-0.6,0-1.2-0.2-1.8-0.5c-0.5-0.3-0.9-0.8-1.2-1.3
					c-0.3-0.6-0.5-1.2-0.5-2C729.5,1419.1,729.6,1418.4,729.9,1417.8z M735.3,1418.4c-0.2-0.4-0.5-0.7-0.9-0.9
					c-0.4-0.2-0.8-0.3-1.2-0.3s-0.9,0.1-1.2,0.3c-0.4,0.2-0.7,0.5-0.9,0.9c-0.2,0.4-0.3,0.9-0.3,1.4c0,0.6,0.1,1,0.3,1.5
					c0.2,0.4,0.5,0.7,0.9,0.9c0.4,0.2,0.8,0.3,1.2,0.3s0.9-0.1,1.2-0.3c0.4-0.2,0.7-0.5,0.9-0.9c0.2-0.4,0.3-0.9,0.3-1.4
					C735.6,1419.3,735.5,1418.8,735.3,1418.4z"/>
				<path class="st3" d="M738.9,1417.8c0.3-0.6,0.7-1,1.3-1.3c0.5-0.3,1.2-0.5,1.8-0.5c0.9,0,1.6,0.2,2.2,0.7s1,1,1.2,1.8h-1.3
					c-0.1-0.4-0.4-0.8-0.7-1.1c-0.4-0.3-0.8-0.4-1.3-0.4c-0.7,0-1.3,0.2-1.7,0.7c-0.4,0.5-0.6,1.1-0.6,2c0,0.9,0.2,1.6,0.6,2
					c0.4,0.5,1,0.7,1.7,0.7c0.5,0,1-0.1,1.3-0.4c0.4-0.2,0.6-0.6,0.7-1.1h1.3c-0.2,0.7-0.6,1.3-1.2,1.8c-0.6,0.4-1.3,0.7-2.2,0.7
					c-0.7,0-1.3-0.2-1.8-0.5c-0.5-0.3-1-0.7-1.3-1.3c-0.3-0.6-0.5-1.2-0.5-2C738.4,1419.1,738.6,1418.4,738.9,1417.8z"/>
				<path class="st3" d="M752.1,1416.4c0.4,0.2,0.8,0.6,1,1.1c0.3,0.5,0.4,1,0.4,1.7v4.3h-1.2v-4.1c0-0.7-0.2-1.3-0.5-1.7
					c-0.4-0.4-0.9-0.6-1.5-0.6c-0.6,0-1.1,0.2-1.5,0.6c-0.4,0.4-0.6,1-0.6,1.7v4H747v-9.8h1.2v3.6c0.2-0.4,0.6-0.7,1-0.9
					c0.4-0.2,0.9-0.3,1.4-0.3C751.1,1416.1,751.6,1416.2,752.1,1416.4z"/>
				<path class="st3" d="M760.9,1423c-0.7-0.4-1.3-1-1.7-1.7c-0.4-0.7-0.6-1.5-0.6-2.4c0-0.9,0.2-1.7,0.6-2.4c0.4-0.7,1-1.3,1.7-1.7
					c0.7-0.4,1.5-0.6,2.4-0.6c0.9,0,1.7,0.2,2.4,0.6c0.7,0.4,1.3,1,1.7,1.7s0.6,1.5,0.6,2.4s-0.2,1.7-0.6,2.4s-1,1.3-1.7,1.7
					c-0.7,0.4-1.5,0.6-2.4,0.6C762.4,1423.6,761.6,1423.4,760.9,1423z M765,1422.1c0.5-0.3,0.9-0.7,1.2-1.3c0.3-0.6,0.4-1.2,0.4-1.9
					c0-0.7-0.1-1.4-0.4-1.9c-0.3-0.6-0.7-1-1.2-1.3c-0.5-0.3-1.1-0.5-1.8-0.5c-0.7,0-1.2,0.2-1.8,0.5c-0.5,0.3-0.9,0.7-1.2,1.3
					c-0.3,0.6-0.4,1.2-0.4,1.9c0,0.7,0.1,1.4,0.4,1.9c0.3,0.6,0.7,1,1.2,1.3c0.5,0.3,1.1,0.5,1.7,0.5S764.5,1422.4,765,1422.1z"/>
				<path class="st3" d="M772.4,1417.2h-1.5v6.3h-1.2v-6.3h-0.9v-1h0.9v-0.5c0-0.8,0.2-1.4,0.6-1.8s1.1-0.6,2-0.6v1
					c-0.5,0-0.9,0.1-1.1,0.3c-0.2,0.2-0.3,0.6-0.3,1v0.5h1.5V1417.2z"/>
				<path class="st3" d="M776.8,1417.2h-1.5v6.3h-1.2v-6.3h-0.9v-1h0.9v-0.5c0-0.8,0.2-1.4,0.6-1.8s1.1-0.6,2-0.6v1
					c-0.5,0-0.9,0.1-1.1,0.3c-0.2,0.2-0.3,0.6-0.3,1v0.5h1.5V1417.2z"/>
				<path class="st3" d="M778.3,1414.8c-0.2-0.2-0.2-0.4-0.2-0.6c0-0.2,0.1-0.4,0.2-0.6c0.2-0.2,0.4-0.2,0.6-0.2
					c0.2,0,0.4,0.1,0.6,0.2c0.2,0.2,0.2,0.4,0.2,0.6c0,0.2-0.1,0.4-0.2,0.6c-0.2,0.2-0.3,0.2-0.6,0.2
					C778.6,1415,778.4,1414.9,778.3,1414.8z M779.4,1416.2v7.3h-1.2v-7.3H779.4z"/>
				<path class="st3" d="M781.5,1417.8c0.3-0.6,0.7-1,1.3-1.3c0.5-0.3,1.2-0.5,1.8-0.5c0.9,0,1.6,0.2,2.2,0.7s1,1,1.2,1.8h-1.3
					c-0.1-0.4-0.4-0.8-0.7-1.1c-0.4-0.3-0.8-0.4-1.3-0.4c-0.7,0-1.3,0.2-1.7,0.7c-0.4,0.5-0.6,1.1-0.6,2c0,0.9,0.2,1.6,0.6,2
					c0.4,0.5,1,0.7,1.7,0.7c0.5,0,1-0.1,1.3-0.4c0.4-0.2,0.6-0.6,0.7-1.1h1.3c-0.2,0.7-0.6,1.3-1.2,1.8c-0.6,0.4-1.3,0.7-2.2,0.7
					c-0.7,0-1.3-0.2-1.8-0.5c-0.5-0.3-1-0.7-1.3-1.3c-0.3-0.6-0.5-1.2-0.5-2C781,1419.1,781.2,1418.4,781.5,1417.8z"/>
				<path class="st3" d="M796.2,1420.3h-5.8c0,0.7,0.3,1.3,0.7,1.7c0.4,0.4,1,0.6,1.6,0.6c0.5,0,1-0.1,1.3-0.4s0.6-0.6,0.7-1h1.3
					c-0.2,0.7-0.6,1.3-1.2,1.7c-0.6,0.4-1.3,0.7-2.2,0.7c-0.7,0-1.3-0.2-1.9-0.5c-0.5-0.3-1-0.8-1.3-1.3c-0.3-0.6-0.5-1.2-0.5-2
					c0-0.8,0.2-1.4,0.5-2c0.3-0.6,0.7-1,1.3-1.3c0.5-0.3,1.2-0.5,1.9-0.5c0.7,0,1.3,0.2,1.8,0.5c0.5,0.3,0.9,0.7,1.2,1.2
					c0.3,0.5,0.4,1.1,0.4,1.8C796.2,1419.8,796.2,1420,796.2,1420.3z M794.7,1418.1c-0.2-0.3-0.5-0.6-0.8-0.8s-0.7-0.3-1.2-0.3
					c-0.6,0-1.1,0.2-1.6,0.6c-0.4,0.4-0.7,0.9-0.7,1.6h4.6C795,1418.8,794.9,1418.4,794.7,1418.1z"/>
				<path class="st3" d="M802.6,1414.2v9.3h-1.2v-9.3H802.6z"/>
				<path class="st3" d="M805.7,1423.3c-0.4-0.2-0.8-0.5-1.1-0.8c-0.3-0.3-0.4-0.7-0.4-1.2h1.3c0,0.4,0.2,0.7,0.5,0.9
					c0.3,0.2,0.7,0.3,1.2,0.3c0.5,0,0.8-0.1,1.1-0.3c0.3-0.2,0.4-0.5,0.4-0.8c0-0.3-0.1-0.6-0.4-0.7c-0.3-0.2-0.7-0.3-1.3-0.5
					c-0.5-0.1-1-0.3-1.3-0.4c-0.3-0.1-0.6-0.4-0.9-0.7s-0.4-0.7-0.4-1.1c0-0.4,0.1-0.7,0.3-1c0.2-0.3,0.5-0.6,0.9-0.7
					s0.9-0.3,1.4-0.3c0.8,0,1.5,0.2,2,0.6c0.5,0.4,0.8,1,0.8,1.7h-1.2c0-0.4-0.2-0.7-0.5-0.9c-0.3-0.2-0.7-0.3-1.1-0.3
					c-0.4,0-0.8,0.1-1,0.3c-0.3,0.2-0.4,0.4-0.4,0.7c0,0.2,0.1,0.4,0.2,0.6c0.2,0.2,0.4,0.3,0.6,0.4s0.6,0.2,1,0.3
					c0.5,0.1,0.9,0.3,1.3,0.4c0.3,0.1,0.6,0.3,0.8,0.6c0.2,0.3,0.4,0.6,0.4,1.1c0,0.4-0.1,0.8-0.3,1.1c-0.2,0.3-0.5,0.6-0.9,0.8
					c-0.4,0.2-0.9,0.3-1.4,0.3C806.7,1423.6,806.2,1423.5,805.7,1423.3z"/>
				<path class="st3" d="M816.3,1414.2v9.3h-1.2v-9.3H816.3z"/>
				<path class="st3" d="M824.1,1416.9c0.5,0.5,0.8,1.3,0.8,2.3v4.3h-1.2v-4.1c0-0.7-0.2-1.3-0.5-1.7c-0.4-0.4-0.9-0.6-1.5-0.6
					c-0.6,0-1.1,0.2-1.5,0.6c-0.4,0.4-0.6,1-0.6,1.7v4h-1.2v-7.3h1.2v1c0.2-0.4,0.6-0.7,1-0.9c0.4-0.2,0.9-0.3,1.4-0.3
					C822.8,1416.1,823.6,1416.3,824.1,1416.9z"/>
				<path class="st3" d="M826.9,1417.8c0.3-0.6,0.7-1,1.2-1.3c0.5-0.3,1.1-0.5,1.8-0.5c0.6,0,1.1,0.1,1.6,0.4c0.5,0.3,0.9,0.6,1.1,1
					v-3.9h1.2v9.8h-1.2v-1.4c-0.2,0.4-0.6,0.8-1.1,1.1c-0.5,0.3-1,0.4-1.6,0.4c-0.6,0-1.2-0.2-1.8-0.5c-0.5-0.3-0.9-0.8-1.2-1.3
					c-0.3-0.6-0.5-1.2-0.5-2C826.5,1419.1,826.6,1418.4,826.9,1417.8z M832.3,1418.4c-0.2-0.4-0.5-0.7-0.9-0.9
					c-0.4-0.2-0.8-0.3-1.2-0.3s-0.9,0.1-1.2,0.3c-0.4,0.2-0.7,0.5-0.9,0.9c-0.2,0.4-0.3,0.9-0.3,1.4c0,0.6,0.1,1,0.3,1.5
					c0.2,0.4,0.5,0.7,0.9,0.9c0.4,0.2,0.8,0.3,1.2,0.3s0.9-0.1,1.2-0.3c0.4-0.2,0.7-0.5,0.9-0.9c0.2-0.4,0.3-0.9,0.3-1.4
					C832.6,1419.3,832.5,1418.8,832.3,1418.4z"/>
				<path class="st3" d="M842.5,1420.3h-5.8c0,0.7,0.3,1.3,0.7,1.7c0.4,0.4,1,0.6,1.6,0.6c0.5,0,1-0.1,1.3-0.4s0.6-0.6,0.7-1h1.3
					c-0.2,0.7-0.6,1.3-1.2,1.7c-0.6,0.4-1.3,0.7-2.2,0.7c-0.7,0-1.3-0.2-1.9-0.5c-0.5-0.3-1-0.8-1.3-1.3c-0.3-0.6-0.5-1.2-0.5-2
					c0-0.8,0.2-1.4,0.5-2c0.3-0.6,0.7-1,1.3-1.3c0.5-0.3,1.2-0.5,1.9-0.5c0.7,0,1.3,0.2,1.8,0.5c0.5,0.3,0.9,0.7,1.2,1.2
					c0.3,0.5,0.4,1.1,0.4,1.8C842.5,1419.8,842.5,1420,842.5,1420.3z M841,1418.1c-0.2-0.3-0.5-0.6-0.8-0.8s-0.7-0.3-1.2-0.3
					c-0.6,0-1.1,0.2-1.6,0.6c-0.4,0.4-0.7,0.9-0.7,1.6h4.6C841.3,1418.8,841.2,1418.4,841,1418.1z"/>
				<path class="st3" d="M846.4,1416.5c0.5-0.3,1-0.4,1.7-0.4c0.6,0,1.2,0.2,1.8,0.5c0.5,0.3,0.9,0.7,1.2,1.3c0.3,0.6,0.5,1.2,0.5,2
					c0,0.7-0.2,1.4-0.5,2c-0.3,0.6-0.7,1-1.2,1.3c-0.5,0.3-1.1,0.5-1.8,0.5c-0.6,0-1.2-0.1-1.6-0.4c-0.5-0.3-0.8-0.6-1.1-1v4.8h-1.2
					v-10.7h1.2v1.3C845.6,1417.1,845.9,1416.8,846.4,1416.5z M850,1418.4c-0.2-0.4-0.5-0.7-0.9-0.9c-0.4-0.2-0.8-0.3-1.2-0.3
					c-0.4,0-0.9,0.1-1.2,0.3c-0.4,0.2-0.7,0.5-0.9,0.9c-0.2,0.4-0.3,0.9-0.3,1.4c0,0.5,0.1,1,0.3,1.4c0.2,0.4,0.5,0.7,0.9,0.9
					s0.8,0.3,1.2,0.3c0.5,0,0.9-0.1,1.2-0.3c0.4-0.2,0.7-0.5,0.9-0.9c0.2-0.4,0.3-0.9,0.3-1.5C850.3,1419.3,850.2,1418.8,850,1418.4
					z"/>
				<path class="st3" d="M859.7,1420.3h-5.8c0,0.7,0.3,1.3,0.7,1.7c0.4,0.4,1,0.6,1.6,0.6c0.5,0,1-0.1,1.3-0.4s0.6-0.6,0.7-1h1.3
					c-0.2,0.7-0.6,1.3-1.2,1.7c-0.6,0.4-1.3,0.7-2.2,0.7c-0.7,0-1.3-0.2-1.9-0.5c-0.5-0.3-1-0.8-1.3-1.3c-0.3-0.6-0.5-1.2-0.5-2
					c0-0.8,0.2-1.4,0.5-2c0.3-0.6,0.7-1,1.3-1.3c0.5-0.3,1.2-0.5,1.9-0.5c0.7,0,1.3,0.2,1.8,0.5c0.5,0.3,0.9,0.7,1.2,1.2
					c0.3,0.5,0.4,1.1,0.4,1.8C859.8,1419.8,859.8,1420,859.7,1420.3z M858.2,1418.1c-0.2-0.3-0.5-0.6-0.8-0.8s-0.7-0.3-1.2-0.3
					c-0.6,0-1.1,0.2-1.6,0.6c-0.4,0.4-0.7,0.9-0.7,1.6h4.6C858.5,1418.8,858.4,1418.4,858.2,1418.1z"/>
				<path class="st3" d="M867.1,1416.9c0.5,0.5,0.8,1.3,0.8,2.3v4.3h-1.2v-4.1c0-0.7-0.2-1.3-0.5-1.7c-0.4-0.4-0.9-0.6-1.5-0.6
					c-0.6,0-1.1,0.2-1.5,0.6c-0.4,0.4-0.6,1-0.6,1.7v4h-1.2v-7.3h1.2v1c0.2-0.4,0.6-0.7,1-0.9c0.4-0.2,0.9-0.3,1.4-0.3
					C865.8,1416.1,866.5,1416.3,867.1,1416.9z"/>
				<path class="st3" d="M869.9,1417.8c0.3-0.6,0.7-1,1.2-1.3c0.5-0.3,1.1-0.5,1.8-0.5c0.6,0,1.1,0.1,1.6,0.4c0.5,0.3,0.9,0.6,1.1,1
					v-3.9h1.2v9.8h-1.2v-1.4c-0.2,0.4-0.6,0.8-1.1,1.1c-0.5,0.3-1,0.4-1.6,0.4c-0.6,0-1.2-0.2-1.8-0.5c-0.5-0.3-0.9-0.8-1.2-1.3
					c-0.3-0.6-0.5-1.2-0.5-2C869.4,1419.1,869.6,1418.4,869.9,1417.8z M875.3,1418.4c-0.2-0.4-0.5-0.7-0.9-0.9
					c-0.4-0.2-0.8-0.3-1.2-0.3s-0.9,0.1-1.2,0.3c-0.4,0.2-0.7,0.5-0.9,0.9c-0.2,0.4-0.3,0.9-0.3,1.4c0,0.6,0.1,1,0.3,1.5
					c0.2,0.4,0.5,0.7,0.9,0.9c0.4,0.2,0.8,0.3,1.2,0.3s0.9-0.1,1.2-0.3c0.4-0.2,0.7-0.5,0.9-0.9c0.2-0.4,0.3-0.9,0.3-1.4
					C875.6,1419.3,875.5,1418.8,875.3,1418.4z"/>
				<path class="st3" d="M885.5,1420.3h-5.8c0,0.7,0.3,1.3,0.7,1.7c0.4,0.4,1,0.6,1.6,0.6c0.5,0,1-0.1,1.3-0.4s0.6-0.6,0.7-1h1.3
					c-0.2,0.7-0.6,1.3-1.2,1.7c-0.6,0.4-1.3,0.7-2.2,0.7c-0.7,0-1.3-0.2-1.9-0.5c-0.5-0.3-1-0.8-1.3-1.3c-0.3-0.6-0.5-1.2-0.5-2
					c0-0.8,0.2-1.4,0.5-2c0.3-0.6,0.7-1,1.3-1.3c0.5-0.3,1.2-0.5,1.9-0.5c0.7,0,1.3,0.2,1.8,0.5c0.5,0.3,0.9,0.7,1.2,1.2
					c0.3,0.5,0.4,1.1,0.4,1.8C885.5,1419.8,885.5,1420,885.5,1420.3z M884,1418.1c-0.2-0.3-0.5-0.6-0.8-0.8s-0.7-0.3-1.2-0.3
					c-0.6,0-1.1,0.2-1.6,0.6c-0.4,0.4-0.7,0.9-0.7,1.6h4.6C884.3,1418.8,884.2,1418.4,884,1418.1z"/>
				<path class="st3" d="M892.8,1416.9c0.5,0.5,0.8,1.3,0.8,2.3v4.3h-1.2v-4.1c0-0.7-0.2-1.3-0.5-1.7c-0.4-0.4-0.9-0.6-1.5-0.6
					c-0.6,0-1.1,0.2-1.5,0.6c-0.4,0.4-0.6,1-0.6,1.7v4h-1.2v-7.3h1.2v1c0.2-0.4,0.6-0.7,1-0.9c0.4-0.2,0.9-0.3,1.4-0.3
					C891.6,1416.1,892.3,1416.3,892.8,1416.9z"/>
				<path class="st3" d="M897.1,1417.2v4.3c0,0.4,0.1,0.6,0.2,0.8c0.2,0.1,0.4,0.2,0.8,0.2h0.9v1h-1.1c-0.7,0-1.2-0.2-1.5-0.5
					s-0.5-0.8-0.5-1.5v-4.3h-0.9v-1h0.9v-1.8h1.2v1.8h1.9v1H897.1z"/>
				<path class="st3" d="M901.7,1413.6v9.8h-1.2v-9.8H901.7z"/>
				<path class="st3" d="M910,1416.2l-4.4,10.7h-1.3l1.4-3.5l-2.9-7.2h1.3l2.3,5.9l2.3-5.9H910z"/>
				<path class="st3" d="M916.6,1423c-0.7-0.4-1.3-1-1.7-1.7c-0.4-0.7-0.6-1.5-0.6-2.4c0-0.9,0.2-1.7,0.6-2.4c0.4-0.7,1-1.3,1.7-1.7
					c0.7-0.4,1.5-0.6,2.4-0.6c0.9,0,1.7,0.2,2.4,0.6c0.7,0.4,1.3,1,1.7,1.7s0.6,1.5,0.6,2.4s-0.2,1.7-0.6,2.4s-1,1.3-1.7,1.7
					c-0.7,0.4-1.5,0.6-2.4,0.6C918.1,1423.6,917.3,1423.4,916.6,1423z M920.7,1422.1c0.5-0.3,0.9-0.7,1.2-1.3
					c0.3-0.6,0.4-1.2,0.4-1.9c0-0.7-0.1-1.4-0.4-1.9c-0.3-0.6-0.7-1-1.2-1.3c-0.5-0.3-1.1-0.5-1.8-0.5c-0.7,0-1.2,0.2-1.8,0.5
					c-0.5,0.3-0.9,0.7-1.2,1.3c-0.3,0.6-0.4,1.2-0.4,1.9c0,0.7,0.1,1.4,0.4,1.9c0.3,0.6,0.7,1,1.2,1.3c0.5,0.3,1.1,0.5,1.7,0.5
					S920.2,1422.4,920.7,1422.1z"/>
				<path class="st3" d="M934.9,1416.2l-2.3,7.3h-1.3l-1.8-5.8l-1.8,5.8h-1.3l-2.3-7.3h1.2l1.7,6.1l1.8-6.1h1.2l1.8,6.1l1.6-6.1
					H934.9z"/>
				<path class="st3" d="M941.8,1416.9c0.5,0.5,0.8,1.3,0.8,2.3v4.3h-1.2v-4.1c0-0.7-0.2-1.3-0.5-1.7c-0.4-0.4-0.9-0.6-1.5-0.6
					c-0.6,0-1.1,0.2-1.5,0.6c-0.4,0.4-0.6,1-0.6,1.7v4h-1.2v-7.3h1.2v1c0.2-0.4,0.6-0.7,1-0.9c0.4-0.2,0.9-0.3,1.4-0.3
					C940.6,1416.1,941.3,1416.3,941.8,1416.9z"/>
				<path class="st3" d="M951.2,1420.3h-5.8c0,0.7,0.3,1.3,0.7,1.7c0.4,0.4,1,0.6,1.6,0.6c0.5,0,1-0.1,1.3-0.4s0.6-0.6,0.7-1h1.3
					c-0.2,0.7-0.6,1.3-1.2,1.7c-0.6,0.4-1.3,0.7-2.2,0.7c-0.7,0-1.3-0.2-1.9-0.5c-0.5-0.3-1-0.8-1.3-1.3c-0.3-0.6-0.5-1.2-0.5-2
					c0-0.8,0.2-1.4,0.5-2c0.3-0.6,0.7-1,1.3-1.3c0.5-0.3,1.2-0.5,1.9-0.5c0.7,0,1.3,0.2,1.8,0.5c0.5,0.3,0.9,0.7,1.2,1.2
					c0.3,0.5,0.4,1.1,0.4,1.8C951.3,1419.8,951.3,1420,951.2,1420.3z M949.7,1418.1c-0.2-0.3-0.5-0.6-0.8-0.8s-0.7-0.3-1.2-0.3
					c-0.6,0-1.1,0.2-1.6,0.6c-0.4,0.4-0.7,0.9-0.7,1.6h4.6C950,1418.8,949.9,1418.4,949.7,1418.1z"/>
				<path class="st3" d="M952.9,1417.8c0.3-0.6,0.7-1,1.2-1.3c0.5-0.3,1.1-0.5,1.8-0.5c0.6,0,1.1,0.1,1.6,0.4c0.5,0.3,0.9,0.6,1.1,1
					v-3.9h1.2v9.8h-1.2v-1.4c-0.2,0.4-0.6,0.8-1.1,1.1c-0.5,0.3-1,0.4-1.6,0.4c-0.6,0-1.2-0.2-1.8-0.5c-0.5-0.3-0.9-0.8-1.2-1.3
					c-0.3-0.6-0.5-1.2-0.5-2C952.4,1419.1,952.6,1418.4,952.9,1417.8z M958.3,1418.4c-0.2-0.4-0.5-0.7-0.9-0.9
					c-0.4-0.2-0.8-0.3-1.2-0.3s-0.9,0.1-1.2,0.3c-0.4,0.2-0.7,0.5-0.9,0.9c-0.2,0.4-0.3,0.9-0.3,1.4c0,0.6,0.1,1,0.3,1.5
					c0.2,0.4,0.5,0.7,0.9,0.9c0.4,0.2,0.8,0.3,1.2,0.3s0.9-0.1,1.2-0.3c0.4-0.2,0.7-0.5,0.9-0.9c0.2-0.4,0.3-0.9,0.3-1.4
					C958.6,1419.3,958.5,1418.8,958.3,1418.4z"/>
				<path class="st3" d="M965.4,1417.8c0.3-0.6,0.7-1,1.2-1.3c0.5-0.3,1.1-0.5,1.8-0.5c0.6,0,1.2,0.1,1.7,0.4c0.5,0.3,0.8,0.6,1.1,1
					v-1.3h1.2v7.3h-1.2v-1.4c-0.2,0.4-0.6,0.8-1.1,1.1c-0.5,0.3-1,0.4-1.7,0.4c-0.6,0-1.2-0.2-1.8-0.5c-0.5-0.3-0.9-0.8-1.2-1.3
					c-0.3-0.6-0.5-1.2-0.5-2C965,1419.1,965.1,1418.4,965.4,1417.8z M970.8,1418.4c-0.2-0.4-0.5-0.7-0.9-0.9
					c-0.4-0.2-0.8-0.3-1.2-0.3s-0.9,0.1-1.2,0.3c-0.4,0.2-0.7,0.5-0.9,0.9c-0.2,0.4-0.3,0.9-0.3,1.4c0,0.6,0.1,1,0.3,1.5
					c0.2,0.4,0.5,0.7,0.9,0.9c0.4,0.2,0.8,0.3,1.2,0.3s0.9-0.1,1.2-0.3c0.4-0.2,0.7-0.5,0.9-0.9c0.2-0.4,0.3-0.9,0.3-1.4
					C971.1,1419.3,971,1418.8,970.8,1418.4z"/>
				<path class="st3" d="M980.1,1416.9c0.5,0.5,0.8,1.3,0.8,2.3v4.3h-1.2v-4.1c0-0.7-0.2-1.3-0.5-1.7c-0.4-0.4-0.9-0.6-1.5-0.6
					c-0.6,0-1.1,0.2-1.5,0.6c-0.4,0.4-0.6,1-0.6,1.7v4h-1.2v-7.3h1.2v1c0.2-0.4,0.6-0.7,1-0.9c0.4-0.2,0.9-0.3,1.4-0.3
					C978.8,1416.1,979.6,1416.3,980.1,1416.9z"/>
				<path class="st3" d="M982.9,1417.8c0.3-0.6,0.7-1,1.2-1.3c0.5-0.3,1.1-0.5,1.8-0.5c0.6,0,1.1,0.1,1.6,0.4c0.5,0.3,0.9,0.6,1.1,1
					v-3.9h1.2v9.8h-1.2v-1.4c-0.2,0.4-0.6,0.8-1.1,1.1c-0.5,0.3-1,0.4-1.6,0.4c-0.6,0-1.2-0.2-1.8-0.5c-0.5-0.3-0.9-0.8-1.2-1.3
					c-0.3-0.6-0.5-1.2-0.5-2C982.5,1419.1,982.6,1418.4,982.9,1417.8z M988.3,1418.4c-0.2-0.4-0.5-0.7-0.9-0.9
					c-0.4-0.2-0.8-0.3-1.2-0.3s-0.9,0.1-1.2,0.3c-0.4,0.2-0.7,0.5-0.9,0.9c-0.2,0.4-0.3,0.9-0.3,1.4c0,0.6,0.1,1,0.3,1.5
					c0.2,0.4,0.5,0.7,0.9,0.9c0.4,0.2,0.8,0.3,1.2,0.3s0.9-0.1,1.2-0.3c0.4-0.2,0.7-0.5,0.9-0.9c0.2-0.4,0.3-0.9,0.3-1.4
					C988.6,1419.3,988.5,1418.8,988.3,1418.4z"/>
				<path class="st3" d="M997.3,1423c-0.7-0.4-1.3-1-1.7-1.7c-0.4-0.7-0.6-1.5-0.6-2.4c0-0.9,0.2-1.7,0.6-2.4c0.4-0.7,1-1.3,1.7-1.7
					c0.7-0.4,1.5-0.6,2.4-0.6c0.9,0,1.7,0.2,2.4,0.6c0.7,0.4,1.3,1,1.7,1.7s0.6,1.5,0.6,2.4s-0.2,1.7-0.6,2.4s-1,1.3-1.7,1.7
					c-0.7,0.4-1.5,0.6-2.4,0.6C998.8,1423.6,998,1423.4,997.3,1423z M1001.4,1422.1c0.5-0.3,0.9-0.7,1.2-1.3
					c0.3-0.6,0.4-1.2,0.4-1.9c0-0.7-0.1-1.4-0.4-1.9c-0.3-0.6-0.7-1-1.2-1.3c-0.5-0.3-1.1-0.5-1.8-0.5c-0.7,0-1.2,0.2-1.8,0.5
					c-0.5,0.3-0.9,0.7-1.2,1.3c-0.3,0.6-0.4,1.2-0.4,1.9c0,0.7,0.1,1.4,0.4,1.9c0.3,0.6,0.7,1,1.2,1.3c0.5,0.3,1.1,0.5,1.7,0.5
					S1000.9,1422.4,1001.4,1422.1z"/>
				<path class="st3" d="M1008.2,1416.5c0.5-0.3,1-0.4,1.7-0.4c0.6,0,1.2,0.2,1.8,0.5c0.5,0.3,0.9,0.7,1.2,1.3
					c0.3,0.6,0.5,1.2,0.5,2c0,0.7-0.2,1.4-0.5,2c-0.3,0.6-0.7,1-1.2,1.3c-0.5,0.3-1.1,0.5-1.8,0.5c-0.6,0-1.2-0.1-1.6-0.4
					c-0.5-0.3-0.8-0.6-1.1-1v4.8h-1.2v-10.7h1.2v1.3C1007.4,1417.1,1007.7,1416.8,1008.2,1416.5z M1011.7,1418.4
					c-0.2-0.4-0.5-0.7-0.9-0.9c-0.4-0.2-0.8-0.3-1.2-0.3c-0.4,0-0.9,0.1-1.2,0.3c-0.4,0.2-0.7,0.5-0.9,0.9c-0.2,0.4-0.3,0.9-0.3,1.4
					c0,0.5,0.1,1,0.3,1.4c0.2,0.4,0.5,0.7,0.9,0.9s0.8,0.3,1.2,0.3c0.5,0,0.9-0.1,1.2-0.3c0.4-0.2,0.7-0.5,0.9-0.9
					c0.2-0.4,0.3-0.9,0.3-1.5C1012.1,1419.3,1012,1418.8,1011.7,1418.4z"/>
				<path class="st3" d="M1021.5,1420.3h-5.8c0,0.7,0.3,1.3,0.7,1.7c0.4,0.4,1,0.6,1.6,0.6c0.5,0,1-0.1,1.3-0.4s0.6-0.6,0.7-1h1.3
					c-0.2,0.7-0.6,1.3-1.2,1.7c-0.6,0.4-1.3,0.7-2.2,0.7c-0.7,0-1.3-0.2-1.9-0.5c-0.5-0.3-1-0.8-1.3-1.3c-0.3-0.6-0.5-1.2-0.5-2
					c0-0.8,0.2-1.4,0.5-2c0.3-0.6,0.7-1,1.3-1.3c0.5-0.3,1.2-0.5,1.9-0.5c0.7,0,1.3,0.2,1.8,0.5c0.5,0.3,0.9,0.7,1.2,1.2
					c0.3,0.5,0.4,1.1,0.4,1.8C1021.6,1419.8,1021.5,1420,1021.5,1420.3z M1020,1418.1c-0.2-0.3-0.5-0.6-0.8-0.8s-0.7-0.3-1.2-0.3
					c-0.6,0-1.1,0.2-1.6,0.6c-0.4,0.4-0.7,0.9-0.7,1.6h4.6C1020.3,1418.8,1020.2,1418.4,1020,1418.1z"/>
				<path class="st3" d="M1025.3,1416.4c0.4-0.2,0.9-0.3,1.4-0.3v1.2h-0.3c-1.4,0-2,0.7-2,2.2v4h-1.2v-7.3h1.2v1.2
					C1024.6,1417,1024.9,1416.6,1025.3,1416.4z"/>
				<path class="st3" d="M1028.1,1417.8c0.3-0.6,0.7-1,1.2-1.3c0.5-0.3,1.1-0.5,1.8-0.5c0.6,0,1.2,0.1,1.7,0.4
					c0.5,0.3,0.8,0.6,1.1,1v-1.3h1.2v7.3h-1.2v-1.4c-0.2,0.4-0.6,0.8-1.1,1.1c-0.5,0.3-1,0.4-1.7,0.4c-0.6,0-1.2-0.2-1.8-0.5
					c-0.5-0.3-0.9-0.8-1.2-1.3c-0.3-0.6-0.5-1.2-0.5-2C1027.7,1419.1,1027.8,1418.4,1028.1,1417.8z M1033.5,1418.4
					c-0.2-0.4-0.5-0.7-0.9-0.9c-0.4-0.2-0.8-0.3-1.2-0.3s-0.9,0.1-1.2,0.3c-0.4,0.2-0.7,0.5-0.9,0.9c-0.2,0.4-0.3,0.9-0.3,1.4
					c0,0.6,0.1,1,0.3,1.5c0.2,0.4,0.5,0.7,0.9,0.9c0.4,0.2,0.8,0.3,1.2,0.3s0.9-0.1,1.2-0.3c0.4-0.2,0.7-0.5,0.9-0.9
					c0.2-0.4,0.3-0.9,0.3-1.4C1033.8,1419.3,1033.7,1418.8,1033.5,1418.4z"/>
				<path class="st3" d="M1038.6,1417.2v4.3c0,0.4,0.1,0.6,0.2,0.8c0.2,0.1,0.4,0.2,0.8,0.2h0.9v1h-1.1c-0.7,0-1.2-0.2-1.5-0.5
					s-0.5-0.8-0.5-1.5v-4.3h-0.9v-1h0.9v-1.8h1.2v1.8h1.9v1H1038.6z"/>
				<path class="st3" d="M1048.5,1420.3h-5.8c0,0.7,0.3,1.3,0.7,1.7c0.4,0.4,1,0.6,1.6,0.6c0.5,0,1-0.1,1.3-0.4s0.6-0.6,0.7-1h1.3
					c-0.2,0.7-0.6,1.3-1.2,1.7c-0.6,0.4-1.3,0.7-2.2,0.7c-0.7,0-1.3-0.2-1.9-0.5c-0.5-0.3-1-0.8-1.3-1.3c-0.3-0.6-0.5-1.2-0.5-2
					c0-0.8,0.2-1.4,0.5-2c0.3-0.6,0.7-1,1.3-1.3c0.5-0.3,1.2-0.5,1.9-0.5c0.7,0,1.3,0.2,1.8,0.5c0.5,0.3,0.9,0.7,1.2,1.2
					c0.3,0.5,0.4,1.1,0.4,1.8C1048.6,1419.8,1048.6,1420,1048.5,1420.3z M1047,1418.1c-0.2-0.3-0.5-0.6-0.8-0.8s-0.7-0.3-1.2-0.3
					c-0.6,0-1.1,0.2-1.6,0.6c-0.4,0.4-0.7,0.9-0.7,1.6h4.6C1047.3,1418.8,1047.2,1418.4,1047,1418.1z"/>
				<path class="st3" d="M1050.2,1417.8c0.3-0.6,0.7-1,1.2-1.3c0.5-0.3,1.1-0.5,1.8-0.5c0.6,0,1.1,0.1,1.6,0.4
					c0.5,0.3,0.9,0.6,1.1,1v-3.9h1.2v9.8h-1.2v-1.4c-0.2,0.4-0.6,0.8-1.1,1.1c-0.5,0.3-1,0.4-1.6,0.4c-0.6,0-1.2-0.2-1.8-0.5
					c-0.5-0.3-0.9-0.8-1.2-1.3c-0.3-0.6-0.5-1.2-0.5-2C1049.7,1419.1,1049.9,1418.4,1050.2,1417.8z M1055.6,1418.4
					c-0.2-0.4-0.5-0.7-0.9-0.9c-0.4-0.2-0.8-0.3-1.2-0.3s-0.9,0.1-1.2,0.3c-0.4,0.2-0.7,0.5-0.9,0.9c-0.2,0.4-0.3,0.9-0.3,1.4
					c0,0.6,0.1,1,0.3,1.5c0.2,0.4,0.5,0.7,0.9,0.9c0.4,0.2,0.8,0.3,1.2,0.3s0.9-0.1,1.2-0.3c0.4-0.2,0.7-0.5,0.9-0.9
					c0.2-0.4,0.3-0.9,0.3-1.4C1055.9,1419.3,1055.8,1418.8,1055.6,1418.4z"/>
			</g>
			<g>
				<g>
					<g>
						<path class="st3" d="M1071.1,1383.9v-1.3h0.4c0.6,0,0.8,0.2,0.8,0.6c0,0.3-0.2,0.7-0.8,0.7H1071.1z M1073.1,1386.2l-0.7-1.9
							c0.4-0.4,0.5-0.6,0.5-1c0-0.7-0.5-1.1-1.3-1.1h-1v4h0.6v-1.8h0.7l0.7,1.8H1073.1z"/>
						<path class="st3" d="M1071.7,1380.9c-1.8,0-3.2,1.4-3.2,3.2c0,1.8,1.4,3.2,3.2,3.2c1.8,0,3.2-1.4,3.2-3.2
							C1074.9,1382.4,1073.5,1380.9,1071.7,1380.9 M1071.7,1387.8c-2,0-3.7-1.7-3.7-3.7c0-2,1.7-3.7,3.7-3.7c2,0,3.7,1.6,3.7,3.7
							C1075.4,1386.2,1073.7,1387.8,1071.7,1387.8"/>
					</g>
					<polygon class="st3" points="877.9,1349.9 868,1380.6 856.1,1350.1 853.1,1350.1 867.4,1387.5 868.7,1387.5 879,1354.5 
						889.4,1387.5 890.7,1387.5 905,1350.1 901.8,1350.1 890.1,1380.5 880.1,1349.9 					"/>
					<polygon class="st3" points="917.3,1350 917.3,1387.2 935.5,1387.2 935.5,1384.8 920.2,1384.8 920.2,1350 					"/>
					<polygon class="st3" points="940.8,1350 940.8,1387.2 959,1387.2 959,1384.8 943.6,1384.8 943.6,1350 					"/>
					<rect x="964" y="1350" class="st3" width="2.9" height="37.1"/>
					<rect x="909.1" y="1350" class="st3" width="2.9" height="37.1"/>
					<path class="st3" d="M987,1354.5l7.2,17.5h-14.3L987,1354.5z M986.3,1349.8l-15.4,37.3h2.7l5.3-12.8h16.2l5.2,12.8h2.7
						l-15.4-37.3H986.3z"/>
					<polygon class="st3" points="1038.2,1350.1 1024.1,1367.4 1010,1350.1 1007.1,1350.1 1007.1,1387.2 1010,1387.2 1010,1354.3 
						1010.1,1354.3 1024.1,1371.6 1038.1,1354.3 1038.2,1354.3 1038.2,1387.2 1041.1,1387.2 1041.1,1350.1 					"/>
					<g>
						<path class="st3" d="M1064.9,1356.1c-2.3-3-5.7-3.8-8.2-3.8c-4.5,0-7.8,3-7.8,7.1c0,9.9,17.7,5.2,17.7,18.2
							c0,5.7-4.7,10.2-10.8,10.2c-3,0-6.3-0.8-9.5-3.3v-3.4c3.6,3.4,6.5,4,9.4,4c4.4,0,7.8-3.2,7.8-7.4c0-10.5-17.6-5.9-17.6-18.2
							c0-5.5,4.8-9.8,10.7-9.8c3,0,6.8,1.2,8.5,3.3V1356.1z"/>
					</g>
					<polygon class="st3" points="760.2,1350.2 760.2,1387.3 779.3,1387.3 779.3,1382.5 765.5,1382.5 765.5,1350.2 					"/>
					<polygon class="st3" points="782.7,1350.2 782.7,1387.3 801.8,1387.3 801.8,1382.5 788,1382.5 788,1350.2 					"/>
					<polygon class="st3" points="805.2,1350.2 805.2,1387.3 826.8,1387.3 826.8,1382.5 810.6,1382.5 810.6,1371 825.8,1371 
						825.8,1366.2 810.6,1366.2 810.6,1354.9 826.3,1354.9 826.3,1350.2 					"/>
					<g>
						<path class="st3" d="M835.6,1366.4v-11.7h3.4c5.2,0,7.2,2.1,7.3,5.6c0.1,3.1-1.6,6.1-7.3,6.1H835.6z M854.2,1387.3l-6.9-17.3
							c4.1-3.4,4.6-5.7,4.5-9.4c-0.1-6.4-4.7-10.4-12.2-10.4h-9.4v37.1h5.3v-16.6c0,0,4.4,0,6.4,0l6.7,16.6H854.2z"/>
					</g>
					<polygon class="st3" points="735.2,1350.2 735.2,1387.2 756.7,1387.2 756.7,1382.4 740.5,1382.4 740.5,1370.9 755.7,1370.9 
						755.7,1366.1 740.5,1366.1 740.5,1354.9 756.2,1354.9 756.2,1350.2 					"/>
					<polygon class="st3" points="725.7,1350.2 723.8,1352.2 710.1,1367.1 710.1,1350.2 704.8,1350.2 704.8,1387.2 710.1,1387.2 
						710.1,1374.5 716.1,1368 723.8,1387.2 729.3,1387.2 729.3,1387.2 727.4,1382.4 719.9,1363.8 727.9,1354.9 732.3,1350.2 					
						"/>
				</g>
				<polygon class="st3" points="704.9,1218.9 704.9,1331.2 720.6,1331.2 720.6,1304.8 732.1,1293.4 748.1,1331.2 764,1331.2 
					742.8,1281.1 757.7,1264.7 786.4,1331.2 792.4,1331.2 814,1279.7 835.9,1331.2 841.9,1331.2 874.7,1255.4 858.6,1255.4 
					838.9,1301.4 819.7,1255.4 808.6,1255.4 789.2,1301.4 769.4,1255.4 748.5,1255.4 720.6,1283.3 720.6,1218.9 				"/>
				<g>
					<g>
						<path class="st3" d="M889.6,1255.4h5.3v28.7h12.8v4.5h-18.1V1255.4z"/>
						<path class="st3" d="M918,1255.4h6.8l8.7,33.1h-5.5l-2-8.1h-9.7l-2.1,8.1h-5.5L918,1255.4z M925,1276.2l-3.8-16.3h-0.1
							l-3.9,16.3H925z"/>
						<path class="st3" d="M935.5,1255.4h6.4l9.6,24.7h0.1v-24.7h5v33.1h-6.4l-9.6-25.3h-0.1v25.3h-5V1255.4z"/>
						<path class="st3" d="M960.9,1255.4h5.3v33.1h-5.3V1255.4z"/>
						<path class="st3" d="M970.5,1255.4h17.9v4.5h-12.6v9.2h11.9v4.5h-11.9v10.6h13v4.5h-18.3V1255.4z"/>
						<path class="st3" d="M991.6,1255.4h11.7c4.6,0,8.4,2.3,8.4,8.5c0,4.3-1.9,7.6-5.5,8.1v0.1c3.3,0.3,5,2.1,5.2,6.8
							c0,2.1,0.1,4.7,0.2,6.7c0.1,1.6,0.9,2.4,1.6,2.9h-6c-0.5-0.6-0.7-1.6-0.9-2.9c-0.2-2-0.1-3.8-0.2-6.3
							c-0.1-3.6-1.2-5.2-4.8-5.2h-4.3v14.4h-5.3V1255.4z M1001.1,1270.2c3.4,0,5.3-2,5.3-5.4c0-3.5-1.5-5.4-5-5.4h-4.5v10.8H1001.1z
							"/>
					</g>
					<g>
						<path class="st3" d="M890.2,1298.2h10.5c6.4,0,9.1,4,9.1,9.6c0,5.9-3.5,9.8-9.7,9.8h-4.6v13.7h-5.3V1298.2z M895.4,1313.6h3.8
							c2.8,0,5.3-1.5,5.3-5.7c0-3.6-1.4-5.7-5.7-5.7h-3.4V1313.6z"/>
						<path class="st3" d="M917.3,1298.2h6.8l8.7,33.1h-5.5l-2-8.1h-9.7l-2.1,8.1h-5.5L917.3,1298.2z M924.3,1319l-3.8-16.3h-0.1
							l-3.9,16.3H924.3z"/>
						<path class="st3" d="M934.8,1298.2h11.7c4.6,0,8.4,2.3,8.4,8.5c0,4.3-1.9,7.6-5.5,8.1v0.1c3.3,0.3,5,2.1,5.2,6.8
							c0,2.1,0.1,4.7,0.2,6.7c0.1,1.6,0.9,2.4,1.6,2.9h-6c-0.5-0.6-0.7-1.6-0.9-2.9c-0.2-2-0.1-3.9-0.2-6.3
							c-0.1-3.6-1.2-5.2-4.8-5.2h-4.3v14.4h-5.3V1298.2z M944.3,1312.9c3.4,0,5.3-2,5.3-5.4c0-3.5-1.5-5.4-5-5.4h-4.5v10.8H944.3z"
							/>
						<path class="st3" d="M964.6,1302.6h-7.9v-4.5h20.9v4.5h-7.7v28.7h-5.3V1302.6z"/>
						<path class="st3" d="M980,1298.2h6.4l9.6,24.7h0.1v-24.7h5v33.1h-6.4l-9.6-25.3H985v25.3h-5V1298.2z"/>
						<path class="st3" d="M1005.6,1298.2h17.9v4.5h-12.6v9.2h11.9v4.5h-11.9v10.6h13v4.5h-18.3V1298.2z"/>
						<path class="st3" d="M1026.7,1298.2h11.7c4.6,0,8.4,2.3,8.4,8.5c0,4.3-1.9,7.6-5.5,8.1v0.1c3.3,0.3,5,2.1,5.2,6.8
							c0,2.1,0.1,4.7,0.2,6.7c0.1,1.6,0.9,2.4,1.6,2.9h-6c-0.5-0.6-0.7-1.6-0.9-2.9c-0.2-2-0.1-3.9-0.2-6.3
							c-0.1-3.6-1.2-5.2-4.8-5.2h-4.3v14.4h-5.3V1298.2z M1036.2,1312.9c3.4,0,5.3-2,5.3-5.4c0-3.5-1.5-5.4-5-5.4h-4.5v10.8H1036.2z
							"/>
						<path class="st3" d="M1054.6,1321v0.8c0,4,1.8,6.1,5.4,6.1c3.3,0,5-2.4,5-4.8c0-3.5-1.8-5-4.7-5.9l-3.6-1.3
							c-4.8-1.9-6.9-4.4-6.9-9.1c0-6,4.1-9.4,10.3-9.4c8.5,0,9.4,5.3,9.4,8.7v0.7h-5.3v-0.7c0-3-1.3-4.8-4.6-4.8
							c-2.3,0-4.5,1.3-4.5,4.8c0,2.8,1.4,4.3,5,5.6l3.6,1.3c4.7,1.7,6.7,4.2,6.7,8.8c0,7-4.3,10-10.9,10c-8.2,0-10.1-5.5-10.1-10.1
							v-0.8H1054.6z"/>
					</g>
				</g>
			</g>
		</g>
		<g>
			<g>
				<rect x="611.4" y="820.3" class="st5" width="557.5" height="124.1"/>
				<path d="M712.1,828.1c0.5,0.4,0.9,0.6,1.3,0.6c0.9,0,1.3-1.2,1.6-3.8h1.4c-0.2,3.2-0.2,7.5-0.2,15.2h-1.4
					c-0.6-5-1.5-8.7-4.7-11.3c-2-2-5.2-3.1-8.2-3.1c-9.1,0-13,10.5-13,21.5c0,15,4.3,21.7,12,21.7c2,0,3.5-0.6,4.4-1.2
					c1.2-0.8,1.5-1.7,1.5-3.3v-6.1c0-5.7-1.1-6.6-6.3-6.8v-1.3c2.6,0.2,7.3,0.2,10.7,0.2c3.5,0,6.5-0.1,8.4-0.2v1.3
					c-2.4,0.2-2.8,0.8-2.8,5.4v12.4h-1.3c-0.1-1.4-0.6-3.6-1.8-3.6c-0.6,0-1.3,0.2-3.4,1.3c-3.1,1.8-6.5,3.2-10.3,3.2
					c-14.6,0-22.3-8.4-22.3-22.5c0-14.2,9.4-23.6,22.6-23.6C706,824.1,709.2,825.9,712.1,828.1z"/>
				<path d="M749.1,860l1.1,0.4c-1.5,4.7-5.6,9.7-12.5,9.7c-8.4,0-14.4-5.3-14.4-16.7c0-11.6,6.4-17.4,15.3-17.4
					c7.3,0,11.8,4.1,11.8,13.9h-17.5c-0.1,0.9-0.1,2-0.1,3c0,8.7,4.2,12.1,8.2,12.1C743.4,865,746.6,864.1,749.1,860z M732.7,848.7
					h9.8c0.1-6.1-1.2-11.4-4.2-11.4C735.4,837.4,733.2,840.6,732.7,848.7z"/>
				<path d="M785.5,853.1c0,12.4-6.3,17-15.3,17c-9,0-15.3-4.6-15.3-17c0-12.4,6.3-17.1,15.3-17.1
					C779.2,836,785.5,840.7,785.5,853.1z M764.3,853.1c0,11.2,2.5,15.8,5.9,15.8c3.4,0,5.9-4.6,5.9-15.8c0-11.2-2.5-15.8-5.9-15.8
					C766.8,837.3,764.3,841.9,764.3,853.1z"/>
				<path d="M816.6,841.8c0,3.1-1.9,5.3-4.9,5.3s-4.7-1.6-4.7-4c0-2.3,1.2-3.8,2.7-4.8c-0.2-0.1-0.5-0.2-0.8-0.2
					c-0.3,0-0.6,0.1-0.9,0.2c-3.3,0.5-5.7,4.7-5.7,8.1v16.6c0,4,1.9,5.1,5.9,5.1v1.3c-1.9-0.1-6-0.2-9.9-0.2c-3.4,0-7.2,0.2-9,0.2
					v-1.3c2.9,0,4-1,4-4.5v-19.7c0-3.8-1-5.5-4-5.5v-1.3c1.3,0.1,2.6,0.2,3.9,0.2c3.5,0,6.5-0.3,9.1-0.9v5.8c1.5-3.4,4.5-6,8.5-6
					C814.9,836,816.6,839,816.6,841.8z"/>
				<path d="M841.8,861.3c4.6,0,8.5,1.6,8.5,6.7c0,6-5.7,13-18.1,13c-9.4,0-13.9-2.4-13.9-5.4c0-4,6.1-3.7,9.5-6h-1.5
					c-2.4,0-7-0.8-7-5.8c0-3.5,2-6,8-8.8c-4.2-1.4-6.9-4.3-6.9-9c0-6.9,5.7-10,13.4-10c1.6,0,3.2,0.2,4.7,0.4c-0.1-1,0-2.1,0.2-3.1
					c0.4-3.3,2.2-5.8,5.9-5.8c2.7,0,4.6,1.5,4.6,3.8c0,2.1-1.8,3.6-4.3,3.6c-2.7,0-3.9-1.3-4.7-3.5c-0.4,0.7-0.7,1.8-0.9,3.2
					c0,0.3,0,0.6,0,0.9c0,0.3,0,0.7,0,1c4.8,1.2,8,4.2,8,9.3c0,6.9-5.8,10-13.5,10c-2,0-3.8-0.2-5.4-0.6c-2.1,1.3-3.6,2.3-3.6,3.8
					c0,1.4,0.9,2.1,2.6,2.1H841.8z M843.3,872.2c0-1.7-0.8-2.6-3.6-2.6H829c-1.5,1.4-2.1,3.6-2.1,4.9c0,3.6,3.1,5.4,7,5.4
					C838.9,879.9,843.3,877.1,843.3,872.2z M829.7,846c0,6.7,1.6,8.8,4.2,8.8s4.2-2.1,4.2-8.8c0-6.7-1.6-8.8-4.2-8.8
					S829.7,839.3,829.7,846z"/>
				<path d="M879.2,860l1.1,0.4c-1.5,4.7-5.6,9.7-12.5,9.7c-8.4,0-14.4-5.3-14.4-16.7c0-11.6,6.4-17.4,15.3-17.4
					c7.3,0,11.8,4.1,11.8,13.9h-17.5c-0.1,0.9-0.1,2-0.1,3c0,8.7,4.2,12.1,8.2,12.1C873.5,865,876.7,864.1,879.2,860z M862.8,848.7
					h9.8c0.1-6.1-1.2-11.4-4.2-11.4C865.5,837.4,863.3,840.6,862.8,848.7z"/>
				<path d="M939.7,844.1l-1.2,0.4c3.8,1.7,5.9,5.7,5.9,10.4c0,8.7-8.6,15.3-21.6,15.3c-13.8,0-23-6-23-15.6
					c0-9.3,9.2-12.9,12.7-13.7c-4-1.6-7.1-4.1-7.1-7.9c0-5.4,6.2-8.1,12.5-8.1c3.2,0,5,0.5,6.5,1.3c1.9,0.9,3.8,2.6,3.8,5.1
					c0,2.6-2.2,4.2-4.8,4.2c-2.5,0-4.6-1.3-4.6-3.9c0-2.1,1.6-4,4-4.5c-0.7-0.6-2.3-1.1-4.1-1.1c-4.4,0-7.8,2.7-7.8,8.2
					c0,1.9,0.5,4.2,2.4,6.4c1.4-0.3,2.7-0.5,3.5-0.5c1.5,0,2.3,0.6,2.3,1.6c0,0.8-0.8,1.3-1.8,1.3c-1.4,0-3.1-1-4-1.6
					c-3.9,2-6.6,4.9-6.6,10.1c0,8.2,7.1,12.2,18.2,12.2c8.4,0,17.2-3.8,17.2-10.9c0-1.9-0.3-5.9-4.7-7.9c-2.5,0.7-5.7,1.6-7.6,2.2
					c-6.4,1.4-10.1,2.9-10.1,6c0,3.1,3.6,5,6.8,5c0.8,0,2.1-0.2,2.5-0.6c-2.1-0.7-3.2-2.1-3.2-4.1c0-2.6,2.2-4.1,5-4.1
					c3,0,4.8,1.7,4.8,4.2c0,3.9-4,5.7-8.9,5.7c-5,0-9.3-2.6-9.3-8c0-6.5,5.3-9.8,14-11.5c2.6-0.6,6.4-1.5,9.3-2.5
					c6-1.5,9.4-3.1,9.4-6.2c0-3.4-3.5-5.7-7.1-5.7c-0.8,0-1.4,0.1-1.8,0.3c2,0.8,3,2.4,3,4c0,2.5-2.2,4-5,4c-2.9,0-4.9-1.5-4.9-4.2
					c0-3.3,3.1-5.3,7.8-5.3c5.8,0,10,3.2,10,8.8C952.4,839.3,947.5,842.4,939.7,844.1z"/>
				<path d="M984.7,862.3c0,4.9,1.1,5.6,6.7,5.6v1.4c-2.6-0.1-6.9-0.2-11.4-0.2c-3.6,0-7.2,0.1-9.9,0.2V868c4-0.2,4.7-0.8,4.7-5.4
					v-31c0-4.6-0.7-5.2-4.7-5.4V825c2.1,0.1,6,0.2,9.5,0.2c4.1,0,8.2-0.1,9.8-0.1c11.6,0,17.3,5.1,17.3,12.3c0,6-3.9,14-18.7,14
					h-3.3V862.3z M984.7,831.6v18.5h2.7c7.4,0,9-5.7,9-12.1c0-7.9-2.1-11.8-7.8-11.8C985.4,826.2,984.7,827.3,984.7,831.6z"/>
				<path d="M1032.9,838.8c1.8,1.9,2.2,4.4,2.2,8.8v17c0,2,0.3,2.8,1.3,2.8c0.9,0,1.6-0.5,2.3-1.1l0.6,1.1c-1.9,1.5-4,2.3-7.1,2.3
					c-4.6,0-6-2.4-6-5.1c-2.1,3.5-5.7,5.1-9.2,5.1c-4.7,0-7.9-2.6-7.9-7.1c0-4.5,3-7.1,8.8-9.2c4.6-1.7,8.2-2.9,8.2-5.6v-4.9
					c0-3.3-1.4-5.6-5.1-5.6c-1.5,0-3.3,0.4-4.5,1.5c2.2,0.8,3.7,2.4,3.7,4.9c0,2.6-2,4.5-5.1,4.5c-2.7,0-4.4-2.1-4.4-4.8
					c0-2.3,1.5-4,3.5-5.2c2.2-1.3,5.3-2.1,9.5-2.1C1027.8,836,1030.9,836.8,1032.9,838.8z M1026.1,850.3c-0.6,0.9-1.8,1.8-3.9,3.1
					c-2.2,1.6-4.2,3.7-4.2,7.4c0,3.5,1.7,4.9,3.9,4.9c1.5,0,2.9-0.7,4.2-2.5V850.3z"/>
				<path d="M1064.4,861.3c4.6,0,8.5,1.6,8.5,6.7c0,6-5.7,13-18.1,13c-9.4,0-13.9-2.4-13.9-5.4c0-4,6.1-3.7,9.5-6h-1.5
					c-2.4,0-7-0.8-7-5.8c0-3.5,2-6,8-8.8c-4.2-1.4-6.9-4.3-6.9-9c0-6.9,5.7-10,13.4-10c1.6,0,3.2,0.2,4.7,0.4c-0.1-1,0-2.1,0.2-3.1
					c0.4-3.3,2.2-5.8,5.9-5.8c2.7,0,4.6,1.5,4.6,3.8c0,2.1-1.8,3.6-4.3,3.6c-2.7,0-3.9-1.3-4.7-3.5c-0.4,0.7-0.7,1.8-0.9,3.2
					c0,0.3,0,0.6,0,0.9c0,0.3,0,0.7,0,1c4.8,1.2,8,4.2,8,9.3c0,6.9-5.8,10-13.5,10c-2,0-3.8-0.2-5.4-0.6c-2.1,1.3-3.6,2.3-3.6,3.8
					c0,1.4,0.9,2.1,2.6,2.1H1064.4z M1065.9,872.2c0-1.7-0.8-2.6-3.6-2.6h-10.8c-1.5,1.4-2.1,3.6-2.1,4.9c0,3.6,3.1,5.4,7,5.4
					C1061.5,879.9,1065.9,877.1,1065.9,872.2z M1052.3,846c0,6.7,1.6,8.8,4.2,8.8s4.2-2.1,4.2-8.8c0-6.7-1.6-8.8-4.2-8.8
					S1052.3,839.3,1052.3,846z"/>
				<path d="M1101.8,860l1.1,0.4c-1.5,4.7-5.6,9.7-12.5,9.7c-8.4,0-14.4-5.3-14.4-16.7c0-11.6,6.4-17.4,15.3-17.4
					c7.3,0,11.8,4.1,11.8,13.9h-17.5c-0.1,0.9-0.1,2-0.1,3c0,8.7,4.2,12.1,8.2,12.1C1096.1,865,1099.3,864.1,1101.8,860z
					 M1085.4,848.7h9.8c0.1-6.1-1.2-11.4-4.2-11.4C1088.1,837.4,1085.9,840.6,1085.4,848.7z"/>
				<path d="M745.9,941.6c-2.2,2.6-4.6,3.6-8.3,3.6c-4.5,0-7.5-1.6-8.5-6.8l-1.1-6.2c-0.9-5.2-1.9-8.9-5.8-8.9h-4.1v14.4
					c0,4.6,0.7,5.2,4.7,5.4v1.3c-2.3-0.1-6-0.2-9.5-0.2c-4,0-7.8,0.1-9.9,0.2v-1.3c4-0.2,4.7-0.8,4.7-5.4v-31c0-4.6-0.7-5.2-4.7-5.4
					v-1.3c2.1,0.1,6,0.2,9.5,0.2c4.1,0,8.2-0.1,9.8-0.1c11.6,0,17.3,4,17.3,10.9c0,5.1-3.1,10.8-14.1,12.1h0
					c7.6,0.6,10.9,3.1,12,8.2l1.4,6.4c0.7,3.3,1.4,4.5,3,4.5c1.1,0,1.7-0.5,2.5-1.4L745.9,941.6z M718.1,906.7v15.4h2.7
					c7.4,0,9-4.6,9-10.4c0-6.6-2.1-10.4-7.8-10.4C718.8,901.3,718.1,902.4,718.1,906.7z"/>
				<path d="M772.8,935.1l1.1,0.4c-1.5,4.7-5.6,9.7-12.5,9.7c-8.4,0-14.4-5.3-14.4-16.7c0-11.6,6.4-17.4,15.3-17.4
					c7.3,0,11.8,4.1,11.8,13.9h-17.5c-0.1,0.9-0.1,2-0.1,3c0,8.7,4.2,12.1,8.2,12.1C767.1,940.1,770.3,939.2,772.8,935.1z
					 M756.4,923.8h9.8c0.1-6.1-1.2-11.4-4.2-11.4C759.1,912.5,756.9,915.7,756.4,923.8z"/>
				<path d="M790.8,938.5c0,3.5,1.1,4.5,4,4.5v1.3c-1.6-0.1-5.1-0.2-8.4-0.2c-3.2,0-7,0.2-8.6,0.2V943c2.9,0,4-1,4-4.5v-19.7
					c0-3.8-1-5.5-4-5.5V912c1.3,0.1,2.6,0.2,3.9,0.2c3.5,0,6.5-0.3,9.1-0.9V938.5z M791.5,900.7c0,3-2.2,4.9-5.7,4.9
					c-3.5,0-5.7-1.8-5.7-4.9c0-3,2.2-4.8,5.7-4.8C789.3,895.8,791.5,897.7,791.5,900.7z"/>
				<path d="M827.6,913.6c1.4,1.6,2,3.9,2,8.1v16.9c0,3.5,1.1,4.5,4,4.5v1.3c-1.6-0.1-5.2-0.2-8.2-0.2c-3.2,0-6.6,0.2-8.1,0.2V943
					c2.5,0,3.4-1,3.4-4.5v-19.5c0-3.1-0.7-5.2-3.8-5.2c-3.5,0-6.2,3.1-6.2,7.2v17.4c0,3.5,0.9,4.5,3.4,4.5v1.3
					c-1.5-0.1-4.7-0.2-7.8-0.2c-3.2,0-7,0.2-8.6,0.2V943c2.9,0,4-1,4-4.5v-19.7c0-3.8-1-5.5-4-5.5V912c1.3,0.1,2.6,0.2,3.9,0.2
					c3.5,0,6.5-0.3,9.1-0.9v5.7c2.1-4.2,5.8-5.8,10.2-5.8C824.3,911.1,826.3,912.1,827.6,913.6z"/>
				<path d="M867.7,939.8c1,1.5,1.8,2.8,3.3,3.3v1.3c-1.3-0.1-4.1-0.2-6.6-0.2c-3.1,0-6.5,0.2-8.1,0.2V943c1.2,0,1.9-0.5,1.9-1.2
					c0-0.3-0.1-0.6-0.3-1l-6.2-11.2c-0.9-1.5-1.7-1.9-3.1-1.9v10.8c0,3.5,1,4.5,3.8,4.5v1.3c-1.5-0.1-4.9-0.2-8.1-0.2
					c-3.3,0-7,0.2-8.6,0.2V943c2.9,0,4-1,4-4.5v-35.6c0-3.8-1-5.5-4-5.5V896c1.3,0.1,2.6,0.2,3.8,0.2c3.5,0,6.5-0.2,9.1-0.9v31.2
					c1.6-0.1,2.7-0.5,3.8-1.6l4.7-4.6c1.5-1.4,2.1-2.7,2.1-3.8c0-2-2.1-3.2-4.9-3.3V912c2.3,0.1,5.4,0.2,7.3,0.2
					c2.4,0,5.9-0.1,7.3-0.2v1.3c-2.6,0.6-5.2,2.3-7.8,4.9l-4,4.2L867.7,939.8z"/>
				<path d="M897.7,935.1l1.1,0.4c-1.5,4.7-5.6,9.7-12.5,9.7c-8.4,0-14.4-5.3-14.4-16.7c0-11.6,6.4-17.4,15.3-17.4
					c7.3,0,11.8,4.1,11.8,13.9h-17.5c-0.1,0.9-0.1,2-0.1,3c0,8.7,4.2,12.1,8.2,12.1C892,940.1,895.2,939.2,897.7,935.1z
					 M881.3,923.8h9.8c0.1-6.1-1.2-11.4-4.2-11.4C884,912.5,881.8,915.7,881.3,923.8z"/>
				<path d="M952.6,938.5c0,3.5,1.1,4.5,4,4.5v1.3c-1.6-0.1-5.2-0.2-8.2-0.2s-6.3,0.2-7.8,0.2V943c2.2,0,3-1,3-4.5v-19.5
					c0-3.1-0.6-5.2-3.7-5.2c-3.1,0-5.6,2.9-6.1,6.5l0,1.3v16.9c0,3.5,0.9,4.5,3.6,4.5v1.3c-1.5-0.1-5-0.2-7.9-0.2
					c-3.1,0-6.3,0.2-7.8,0.2V943c2.2,0,3-1,3-4.5v-19.5c0-3.1-0.5-5.2-3.4-5.2c-3.4,0-6.1,3.1-6.1,7.2v17.4c0,3.5,0.8,4.5,3,4.5v1.3
					c-1.4-0.1-4.5-0.2-7.4-0.2c-3.2,0-7,0.2-8.6,0.2V943c2.9,0,4-1,4-4.5v-19.7c0-3.8-1-5.5-4-5.5V912c1.3,0.1,2.6,0.2,3.9,0.2
					c3.5,0,6.5-0.3,9.1-0.9v5.7c2-4.2,5.6-5.8,9.7-5.8c3.5,0,5.6,1,6.8,2.4c0.8,0.9,1.3,2.1,1.6,3.7c2.3-4.8,6.2-6.2,10.4-6.2
					c3.5,0,5.6,1,6.8,2.4c1.4,1.6,1.9,4,1.9,8.1V938.5z"/>
				<path d="M985.5,935.1l1.1,0.4c-1.5,4.7-5.6,9.7-12.5,9.7c-8.4,0-14.4-5.3-14.4-16.7c0-11.6,6.4-17.4,15.3-17.4
					c7.3,0,11.8,4.1,11.8,13.9h-17.5c-0.1,0.9-0.1,2-0.1,3c0,8.7,4.2,12.1,8.2,12.1C979.8,940.1,983,939.2,985.5,935.1z
					 M969.1,923.8h9.8c0.1-6.1-1.2-11.4-4.2-11.4C971.8,912.5,969.6,915.7,969.1,923.8z"/>
				<path d="M1020.3,912v1.3c-1.6,0.4-3,1.6-4.3,5.4l-8.8,24.7l-2.4,6.7c-0.8,2.1-1.6,3.5-2.7,4.5c-1.3,1-3,1.6-5.5,1.6
					c-3,0-6.8-1.4-6.8-5c0-2.6,2-4.2,5-4.2c2.8,0,4.7,1.3,4.7,4c0,1.6-1.1,3.3-3.1,4c0.4,0.1,1.1,0.1,1.4,0.1c2.5,0,4.5-1.5,5.7-5
					l1-3l-13.3-30.2c-1.5-3.2-3-3.5-3.9-3.5V912c2.7,0.3,5.7,0.4,8.6,0.4c3.3,0,6.2-0.2,8.7-0.4v1.3c-2,0-4,0-4,1.8
					c0,0.5,0.2,1,0.5,1.8l7.7,18.5l4.3-12.1c0.7-2,1-3.6,1-5c0-3.2-1.8-4.8-4.6-5V912c1.9,0.2,4.4,0.2,6,0.2
					S1019.2,912.1,1020.3,912z"/>
				<path d="M1047.9,935.1l1.1,0.4c-1.5,4.7-5.6,9.7-12.5,9.7c-8.4,0-14.4-5.3-14.4-16.7c0-11.6,6.4-17.4,15.3-17.4
					c7.3,0,11.8,4.1,11.8,13.9h-17.5c-0.1,0.9-0.1,2-0.1,3c0,8.7,4.2,12.1,8.2,12.1C1042.2,940.1,1045.3,939.2,1047.9,935.1z
					 M1031.4,923.8h9.8c0.1-6.1-1.2-11.4-4.2-11.4C1034.2,912.5,1031.9,915.7,1031.4,923.8z"/>
				<path d="M1079.6,916.9c0,3.1-1.9,5.3-4.9,5.3s-4.7-1.6-4.7-4c0-2.3,1.2-3.8,2.7-4.8c-0.2-0.1-0.5-0.2-0.8-0.2
					c-0.3,0-0.6,0.1-0.9,0.2c-3.3,0.5-5.7,4.7-5.7,8.1v16.6c0,4,1.9,5.1,5.9,5.1v1.3c-1.9-0.1-6-0.2-9.9-0.2c-3.4,0-7.2,0.2-9,0.2
					V943c2.9,0,4-1,4-4.5v-19.7c0-3.8-1-5.5-4-5.5V912c1.3,0.1,2.6,0.2,3.9,0.2c3.5,0,6.5-0.3,9.1-0.9v5.8c1.5-3.4,4.5-6,8.5-6
					C1078,911.1,1079.6,914.1,1079.6,916.9z"/>
			</g>
			<g>
				<rect x="611.4" y="983.6" class="st5" width="557.5" height="97.9"/>
				<path d="M733.7,1008.5v-3l15.1-20.9h4.7v20.5h4.3v3.4h-4.3v6.9h-3.9v-6.9H733.7z M749.8,988.7l-11.6,16.4h11.6V988.7z"/>
				<path d="M764.2,988c1.6-2.8,4.4-4.2,8.4-4.2c4,0,6.8,1.4,8.4,4.2c1.6,2.8,2.4,6.6,2.4,11.6c0,5-0.8,8.9-2.4,11.7
					c-1.6,2.8-4.4,4.2-8.4,4.2c-4,0-6.8-1.4-8.4-4.2c-1.6-2.8-2.4-6.7-2.4-11.7C761.8,994.6,762.6,990.7,764.2,988z M779,993.2
					c-0.3-1.7-1-3.1-2-4.2c-1-1.1-2.5-1.6-4.4-1.6c-2,0-3.4,0.5-4.5,1.6c-1,1.1-1.7,2.5-2,4.2c-0.3,1.7-0.5,3.9-0.5,6.3
					c0,2.6,0.2,4.7,0.5,6.5c0.3,1.7,1,3.2,2,4.2c1,1.1,2.5,1.6,4.5,1.6c1.9,0,3.4-0.5,4.4-1.6c1-1.1,1.7-2.5,2-4.2
					c0.3-1.7,0.5-3.9,0.5-6.5C779.5,997,779.4,994.9,779,993.2z"/>
				<path d="M787.8,1008.5v-3l15.1-20.9h4.7v20.5h4.3v3.4h-4.3v6.9h-3.9v-6.9H787.8z M803.9,988.7l-11.6,16.4h11.6V988.7z"/>
				<path d="M832.8,998v3.3h-17.2V998H832.8z"/>
				<path d="M838.6,1008.5v-3l15.1-20.9h4.7v20.5h4.3v3.4h-4.3v6.9h-3.9v-6.9H838.6z M854.7,988.7l-11.6,16.4h11.6V988.7z"/>
				<path d="M869,988c1.6-2.8,4.4-4.2,8.4-4.2c4,0,6.8,1.4,8.4,4.2c1.6,2.8,2.4,6.6,2.4,11.6c0,5-0.8,8.9-2.4,11.7
					c-1.6,2.8-4.4,4.2-8.4,4.2c-4,0-6.8-1.4-8.4-4.2c-1.6-2.8-2.4-6.7-2.4-11.7C866.6,994.6,867.4,990.7,869,988z M883.9,993.2
					c-0.3-1.7-1-3.1-2-4.2c-1-1.1-2.5-1.6-4.4-1.6c-2,0-3.4,0.5-4.5,1.6c-1,1.1-1.7,2.5-2,4.2c-0.3,1.7-0.5,3.9-0.5,6.3
					c0,2.6,0.2,4.7,0.5,6.5c0.3,1.7,1,3.2,2,4.2c1,1.1,2.5,1.6,4.5,1.6c1.9,0,3.4-0.5,4.4-1.6c1-1.1,1.7-2.5,2-4.2
					c0.3-1.7,0.5-3.9,0.5-6.5C884.4,997,884.2,994.9,883.9,993.2z"/>
				<path d="M896.6,985.9c1.8-1.5,4.2-2.2,7.1-2.2c2,0,3.6,0.4,5.1,1.1c1.4,0.7,2.5,1.7,3.2,2.9c0.7,1.2,1.1,2.6,1.1,4.1
					c0,1.8-0.5,3.3-1.5,4.6c-1,1.3-2.3,2.1-4,2.5v0.2c1.9,0.5,3.3,1.4,4.4,2.7c1.1,1.3,1.6,3.1,1.6,5.3c0,1.6-0.4,3.1-1.1,4.4
					c-0.7,1.3-1.9,2.3-3.4,3.1c-1.5,0.7-3.3,1.1-5.4,1.1c-3,0-5.5-0.8-7.5-2.4c-2-1.6-3-3.9-3.3-6.8h3.8c0.2,1.7,0.9,3.1,2.1,4.2
					c1.2,1.1,2.8,1.6,4.8,1.6c2,0,3.5-0.5,4.6-1.6c1-1,1.6-2.4,1.6-4.1c0-2.2-0.7-3.7-2.2-4.6c-1.4-0.9-3.6-1.4-6.5-1.4h-1v-3.3h1
					c2.6,0,4.6-0.5,6-1.3c1.3-0.8,2-2.2,2-3.9c0-1.5-0.5-2.7-1.5-3.7c-1-0.9-2.4-1.4-4.2-1.4c-1.8,0-3.2,0.5-4.3,1.4
					c-1.1,0.9-1.7,2.2-1.9,3.7h-3.8C893.7,989.5,894.7,987.4,896.6,985.9z"/>
				<path d="M935.9,998v3.3h-17.2V998H935.9z"/>
				<path d="M962.5,987.7h-15.1v9.8c0.7-0.9,1.6-1.7,2.9-2.3c1.3-0.6,2.7-0.9,4.2-0.9c2.4,0,4.3,0.5,5.8,1.5c1.5,1,2.6,2.3,3.2,3.8
					c0.6,1.6,1,3.2,1,5c0,2.1-0.4,3.9-1.2,5.5s-2,2.9-3.5,3.9c-1.6,0.9-3.6,1.4-5.9,1.4c-3,0-5.4-0.8-7.3-2.3
					c-1.9-1.5-3-3.6-3.4-6.2h3.8c0.4,1.6,1.2,2.9,2.4,3.8c1.2,0.9,2.7,1.4,4.6,1.4c2.3,0,4-0.7,5.1-2c1.1-1.4,1.7-3.2,1.7-5.4
					s-0.6-4-1.7-5.2c-1.1-1.2-2.8-1.8-5.1-1.8c-1.5,0-2.8,0.4-4,1.1c-1.1,0.7-2,1.7-2.5,3h-3.7v-17.6h18.7V987.7z"/>
				<path d="M972.1,988c1.6-2.8,4.4-4.2,8.4-4.2c4,0,6.8,1.4,8.4,4.2c1.6,2.8,2.4,6.6,2.4,11.6c0,5-0.8,8.9-2.4,11.7
					c-1.6,2.8-4.4,4.2-8.4,4.2c-4,0-6.8-1.4-8.4-4.2c-1.6-2.8-2.4-6.7-2.4-11.7C969.7,994.6,970.5,990.7,972.1,988z M986.9,993.2
					c-0.3-1.7-1-3.1-2-4.2c-1-1.1-2.5-1.6-4.4-1.6c-2,0-3.4,0.5-4.5,1.6c-1,1.1-1.7,2.5-2,4.2c-0.3,1.7-0.5,3.9-0.5,6.3
					c0,2.6,0.2,4.7,0.5,6.5c0.3,1.7,1,3.2,2,4.2c1,1.1,2.5,1.6,4.5,1.6c1.9,0,3.4-0.5,4.4-1.6c1-1.1,1.7-2.5,2-4.2
					c0.3-1.7,0.5-3.9,0.5-6.5C987.4,997,987.3,994.9,986.9,993.2z"/>
				<path d="M998.7,996.5c-0.9-1.2-1.3-2.7-1.3-4.4c0-1.5,0.4-2.9,1.2-4.2c0.8-1.2,1.9-2.2,3.5-3c1.5-0.7,3.4-1.1,5.6-1.1
					c2.2,0,4,0.4,5.6,1.1c1.5,0.7,2.7,1.7,3.5,3c0.8,1.2,1.2,2.6,1.2,4.2c0,1.7-0.4,3.1-1.3,4.4c-0.9,1.2-2.1,2.2-3.7,2.8
					c1.8,0.5,3.2,1.5,4.2,2.9c1,1.4,1.6,3,1.6,4.9c0,1.9-0.5,3.5-1.4,4.9c-0.9,1.4-2.2,2.5-3.9,3.2c-1.7,0.8-3.6,1.1-5.8,1.1
					c-2.2,0-4.1-0.4-5.7-1.1c-1.6-0.8-2.9-1.8-3.9-3.2c-0.9-1.4-1.4-3-1.4-4.9c0-1.9,0.5-3.6,1.5-4.9c1-1.4,2.4-2.3,4.2-2.8
					C1000.8,998.6,999.5,997.7,998.7,996.5z M1002.4,1002.4c-1.3,1-2,2.5-2,4.5c0,1.8,0.7,3.3,2,4.4c1.3,1.1,3.1,1.7,5.3,1.7
					c2.2,0,4-0.6,5.2-1.7s1.9-2.6,1.9-4.4c0-1.9-0.7-3.4-2-4.4c-1.3-1-3.1-1.5-5.2-1.5C1005.4,1001,1003.7,1001.4,1002.4,1002.4z
					 M1012.3,988.5c-1.1-0.9-2.7-1.4-4.7-1.4c-2,0-3.5,0.5-4.7,1.4c-1.1,0.9-1.7,2.3-1.7,4.1c0,1.6,0.6,2.9,1.8,3.9
					c1.2,1,2.7,1.5,4.6,1.5c1.9,0,3.5-0.5,4.7-1.5c1.2-1,1.8-2.3,1.8-3.9C1014,990.8,1013.4,989.5,1012.3,988.5z"/>
				<path d="M1026.2,988c1.6-2.8,4.4-4.2,8.4-4.2c4,0,6.8,1.4,8.4,4.2c1.6,2.8,2.4,6.6,2.4,11.6c0,5-0.8,8.9-2.4,11.7
					c-1.6,2.8-4.4,4.2-8.4,4.2c-4,0-6.8-1.4-8.4-4.2c-1.6-2.8-2.4-6.7-2.4-11.7C1023.8,994.6,1024.6,990.7,1026.2,988z
					 M1041.1,993.2c-0.3-1.7-1-3.1-2-4.2c-1-1.1-2.5-1.6-4.4-1.6c-2,0-3.4,0.5-4.5,1.6c-1,1.1-1.7,2.5-2,4.2
					c-0.3,1.7-0.5,3.9-0.5,6.3c0,2.6,0.2,4.7,0.5,6.5c0.3,1.7,1,3.2,2,4.2c1,1.1,2.5,1.6,4.5,1.6c1.9,0,3.4-0.5,4.4-1.6
					c1-1.1,1.7-2.5,2-4.2c0.3-1.7,0.5-3.9,0.5-6.5C1041.6,997,1041.4,994.9,1041.1,993.2z"/>
				<path d="M761,1053.1l-12,28h-4l12.1-27.7h-16.6v-3.4H761V1053.1z"/>
				<path d="M784.5,1053.1l-12,28h-4l12.1-27.7h-16.6v-3.4h20.4V1053.1z"/>
				<path d="M791.3,1053.7c1.6-2.8,4.4-4.2,8.4-4.2c4,0,6.8,1.4,8.4,4.2c1.6,2.8,2.4,6.6,2.4,11.6c0,5-0.8,8.9-2.4,11.7
					c-1.6,2.8-4.4,4.2-8.4,4.2c-4,0-6.8-1.4-8.4-4.2c-1.6-2.8-2.4-6.7-2.4-11.7C788.9,1060.3,789.7,1056.5,791.3,1053.7z
					 M806.1,1058.9c-0.3-1.7-1-3.1-2-4.2c-1-1.1-2.5-1.6-4.4-1.6c-2,0-3.4,0.5-4.5,1.6c-1,1.1-1.7,2.5-2,4.2
					c-0.3,1.7-0.5,3.9-0.5,6.3c0,2.6,0.2,4.7,0.5,6.5c0.3,1.7,1,3.2,2,4.2c1,1.1,2.5,1.6,4.5,1.6c1.9,0,3.4-0.5,4.4-1.6
					c1-1.1,1.7-2.5,2-4.2c0.3-1.7,0.5-3.9,0.5-6.5C806.6,1062.7,806.5,1060.6,806.1,1058.9z"/>
				<path d="M832.9,1063.7v3.3h-17.2v-3.3H832.9z"/>
				<path d="M859.4,1053.4h-15.1v9.8c0.7-0.9,1.6-1.7,2.9-2.3c1.3-0.6,2.7-0.9,4.2-0.9c2.4,0,4.3,0.5,5.8,1.5c1.5,1,2.6,2.3,3.2,3.8
					c0.6,1.6,1,3.2,1,5c0,2.1-0.4,3.9-1.2,5.5s-2,2.9-3.5,3.9c-1.6,0.9-3.6,1.4-5.9,1.4c-3,0-5.4-0.8-7.3-2.3
					c-1.9-1.5-3-3.6-3.4-6.2h3.8c0.4,1.6,1.2,2.9,2.4,3.8c1.2,0.9,2.7,1.4,4.6,1.4c2.3,0,4-0.7,5.1-2c1.1-1.4,1.7-3.2,1.7-5.4
					s-0.6-4-1.7-5.2c-1.1-1.2-2.8-1.8-5.1-1.8c-1.5,0-2.8,0.4-4,1.1c-1.1,0.7-2,1.7-2.5,3h-3.7V1050h18.7V1053.4z"/>
				<path d="M869,1053.7c1.6-2.8,4.4-4.2,8.4-4.2c4,0,6.8,1.4,8.4,4.2c1.6,2.8,2.4,6.6,2.4,11.6c0,5-0.8,8.9-2.4,11.7
					c-1.6,2.8-4.4,4.2-8.4,4.2c-4,0-6.8-1.4-8.4-4.2c-1.6-2.8-2.4-6.7-2.4-11.7C866.6,1060.3,867.4,1056.5,869,1053.7z
					 M883.9,1058.9c-0.3-1.7-1-3.1-2-4.2c-1-1.1-2.5-1.6-4.4-1.6c-2,0-3.4,0.5-4.5,1.6c-1,1.1-1.7,2.5-2,4.2
					c-0.3,1.7-0.5,3.9-0.5,6.3c0,2.6,0.2,4.7,0.5,6.5c0.3,1.7,1,3.2,2,4.2c1,1.1,2.5,1.6,4.5,1.6c1.9,0,3.4-0.5,4.4-1.6
					c1-1.1,1.7-2.5,2-4.2c0.3-1.7,0.5-3.9,0.5-6.5C884.4,1062.7,884.2,1060.6,883.9,1058.9z"/>
				<path d="M896.6,1051.6c1.8-1.5,4.2-2.2,7.1-2.2c2,0,3.6,0.4,5.1,1.1c1.4,0.7,2.5,1.7,3.2,2.9c0.7,1.2,1.1,2.6,1.1,4.1
					c0,1.8-0.5,3.3-1.5,4.6c-1,1.3-2.3,2.1-4,2.5v0.2c1.9,0.5,3.3,1.4,4.4,2.7c1.1,1.3,1.6,3.1,1.6,5.3c0,1.6-0.4,3.1-1.1,4.4
					c-0.7,1.3-1.9,2.3-3.4,3.1c-1.5,0.7-3.3,1.1-5.4,1.1c-3,0-5.5-0.8-7.5-2.4c-2-1.6-3-3.9-3.3-6.8h3.8c0.2,1.7,0.9,3.1,2.1,4.2
					c1.2,1.1,2.8,1.6,4.8,1.6c2,0,3.5-0.5,4.6-1.6c1-1,1.6-2.4,1.6-4.1c0-2.2-0.7-3.7-2.2-4.6c-1.4-0.9-3.6-1.4-6.5-1.4h-1v-3.3h1
					c2.6,0,4.6-0.5,6-1.3c1.3-0.8,2-2.2,2-3.9c0-1.5-0.5-2.7-1.5-3.7c-1-0.9-2.4-1.4-4.2-1.4c-1.8,0-3.2,0.5-4.3,1.4
					c-1.1,0.9-1.7,2.2-1.9,3.7h-3.8C893.7,1055.2,894.7,1053.1,896.6,1051.6z"/>
				<path d="M935.9,1063.7v3.3h-17.2v-3.3H935.9z"/>
				<path d="M961.8,1053.1l-12,28h-4l12.1-27.7h-16.6v-3.4h20.4V1053.1z"/>
				<path d="M968.5,1053.7c1.6-2.8,4.4-4.2,8.4-4.2c4,0,6.8,1.4,8.4,4.2c1.6,2.8,2.4,6.6,2.4,11.6c0,5-0.8,8.9-2.4,11.7
					c-1.6,2.8-4.4,4.2-8.4,4.2c-4,0-6.8-1.4-8.4-4.2c-1.6-2.8-2.4-6.7-2.4-11.7C966.1,1060.3,966.9,1056.5,968.5,1053.7z
					 M983.4,1058.9c-0.3-1.7-1-3.1-2-4.2c-1-1.1-2.5-1.6-4.4-1.6c-2,0-3.4,0.5-4.5,1.6c-1,1.1-1.7,2.5-2,4.2
					c-0.3,1.7-0.5,3.9-0.5,6.3c0,2.6,0.2,4.7,0.5,6.5c0.3,1.7,1,3.2,2,4.2c1,1.1,2.5,1.6,4.5,1.6c1.9,0,3.4-0.5,4.4-1.6
					c1-1.1,1.7-2.5,2-4.2c0.3-1.7,0.5-3.9,0.5-6.5C983.9,1062.7,983.7,1060.6,983.4,1058.9z"/>
				<path d="M1012.3,1053.1l-12,28h-4l12.1-27.7h-16.6v-3.4h20.4V1053.1z"/>
				<path d="M1019.1,1053.7c1.6-2.8,4.4-4.2,8.4-4.2c4,0,6.8,1.4,8.4,4.2c1.6,2.8,2.4,6.6,2.4,11.6c0,5-0.8,8.9-2.4,11.7
					c-1.6,2.8-4.4,4.2-8.4,4.2c-4,0-6.8-1.4-8.4-4.2c-1.6-2.8-2.4-6.7-2.4-11.7C1016.6,1060.3,1017.4,1056.5,1019.1,1053.7z
					 M1033.9,1058.9c-0.3-1.7-1-3.1-2-4.2c-1-1.1-2.5-1.6-4.4-1.6c-2,0-3.4,0.5-4.5,1.6c-1,1.1-1.7,2.5-2,4.2
					c-0.3,1.7-0.5,3.9-0.5,6.3c0,2.6,0.2,4.7,0.5,6.5c0.3,1.7,1,3.2,2,4.2c1,1.1,2.5,1.6,4.5,1.6c1.9,0,3.4-0.5,4.4-1.6
					c1-1.1,1.7-2.5,2-4.2c0.3-1.7,0.5-3.9,0.5-6.5C1034.4,1062.7,1034.2,1060.6,1033.9,1058.9z"/>
			</g>
			<g>
				<rect x="611.4" y="1120.7" class="st5" width="557.5" height="20"/>
				<path d="M751.8,1125.8l-4.5,14.6h-2.5l-3.5-11.6l-3.5,11.6h-2.5l-4.6-14.6h2.5l3.4,12.2l3.6-12.2h2.5l3.5,12.3l3.3-12.3H751.8z"
					/>
				<path d="M773.6,1125.8l-4.5,14.6h-2.5l-3.5-11.6l-3.5,11.6H757l-4.6-14.6h2.5l3.4,12.2l3.6-12.2h2.5l3.5,12.3l3.3-12.3H773.6z"
					/>
				<path d="M795.4,1125.8l-4.5,14.6h-2.5l-3.5-11.6l-3.5,11.6h-2.5l-4.6-14.6h2.5l3.4,12.2l3.6-12.2h2.5l3.5,12.3l3.3-12.3H795.4z"
					/>
				<path d="M797.4,1140c-0.3-0.3-0.5-0.7-0.5-1.2c0-0.5,0.2-0.9,0.5-1.2c0.3-0.3,0.7-0.5,1.2-0.5c0.4,0,0.8,0.2,1.1,0.5
					c0.3,0.3,0.5,0.7,0.5,1.2c0,0.5-0.2,0.9-0.5,1.2c-0.3,0.3-0.7,0.5-1.1,0.5C798.1,1140.5,797.7,1140.4,797.4,1140z"/>
				<path d="M812.7,1126.4c0.9,0.5,1.7,1.2,2.1,2.1v-2.7h2.4v14.9c0,1.3-0.3,2.5-0.9,3.6c-0.6,1-1.4,1.8-2.4,2.4
					c-1.1,0.6-2.3,0.9-3.7,0.9c-1.9,0-3.5-0.5-4.8-1.4c-1.3-0.9-2-2.1-2.3-3.7h2.4c0.3,0.9,0.8,1.6,1.6,2.1c0.8,0.5,1.8,0.8,3,0.8
					c1.3,0,2.4-0.4,3.3-1.3c0.8-0.8,1.3-2,1.3-3.5v-3.1c-0.5,0.9-1.2,1.6-2.1,2.1c-0.9,0.6-2,0.9-3.3,0.9c-1.3,0-2.5-0.3-3.5-1
					s-1.9-1.5-2.5-2.7c-0.6-1.2-0.9-2.5-0.9-3.9c0-1.5,0.3-2.8,0.9-3.9c0.6-1.1,1.4-2,2.5-2.6s2.2-0.9,3.5-0.9
					C810.6,1125.5,811.8,1125.8,812.7,1126.4z M814.1,1130.2c-0.4-0.8-1-1.4-1.8-1.9c-0.8-0.4-1.6-0.7-2.5-0.7s-1.7,0.2-2.5,0.6
					s-1.3,1-1.8,1.9c-0.4,0.8-0.7,1.8-0.7,2.9c0,1.1,0.2,2.1,0.7,2.9c0.4,0.8,1,1.5,1.8,1.9c0.7,0.4,1.6,0.7,2.5,0.7
					s1.7-0.2,2.5-0.7c0.8-0.4,1.4-1.1,1.8-1.9c0.4-0.8,0.7-1.8,0.7-2.9C814.8,1131.9,814.6,1131,814.1,1130.2z"/>
				<path d="M825.6,1126.2c0.8-0.5,1.8-0.7,2.9-0.7v2.5h-0.6c-2.7,0-4.1,1.5-4.1,4.4v7.9h-2.4v-14.6h2.4v2.4
					C824.2,1127.3,824.8,1126.7,825.6,1126.2z"/>
				<path d="M831.3,1129.1c0.6-1.1,1.4-2,2.5-2.6s2.2-0.9,3.5-0.9c1.3,0,2.4,0.3,3.3,0.8c0.9,0.5,1.6,1.2,2.1,2.1v-2.7h2.4v14.6
					h-2.4v-2.7c-0.5,0.9-1.2,1.6-2.1,2.1c-0.9,0.6-2.1,0.8-3.3,0.8c-1.3,0-2.5-0.3-3.5-1c-1-0.6-1.9-1.5-2.5-2.7
					c-0.6-1.2-0.9-2.5-0.9-3.9C830.4,1131.5,830.7,1130.2,831.3,1129.1z M842,1130.2c-0.4-0.8-1-1.4-1.8-1.9
					c-0.8-0.4-1.6-0.7-2.5-0.7s-1.7,0.2-2.5,0.6s-1.3,1-1.8,1.9c-0.4,0.8-0.7,1.8-0.7,2.9c0,1.1,0.2,2.1,0.7,2.9
					c0.4,0.8,1,1.5,1.8,1.9c0.7,0.4,1.6,0.7,2.5,0.7s1.7-0.2,2.5-0.7c0.8-0.4,1.4-1.1,1.8-1.9c0.4-0.8,0.7-1.8,0.7-2.9
					C842.7,1131.9,842.5,1131,842,1130.2z"/>
				<path d="M860.7,1127.1c1.1,1.1,1.6,2.6,1.6,4.6v8.6h-2.4v-8.2c0-1.5-0.4-2.6-1.1-3.3s-1.7-1.2-3-1.2c-1.3,0-2.3,0.4-3,1.2
					c-0.8,0.8-1.1,2-1.1,3.5v8.1h-2.4v-14.6h2.4v2.1c0.5-0.7,1.1-1.3,2-1.7c0.8-0.4,1.7-0.6,2.7-0.6
					C858.1,1125.5,859.6,1126.1,860.7,1127.1z"/>
				<path d="M866.3,1129.1c0.6-1.1,1.4-2,2.5-2.6s2.2-0.9,3.6-0.9c1.1,0,2.2,0.3,3.2,0.8c1,0.5,1.7,1.2,2.2,2.1v-7.7h2.4v19.7h-2.4
					v-2.7c-0.5,0.9-1.2,1.6-2.1,2.1c-0.9,0.6-2,0.8-3.3,0.8c-1.3,0-2.5-0.3-3.5-1s-1.9-1.5-2.5-2.7c-0.6-1.2-0.9-2.5-0.9-3.9
					C865.4,1131.5,865.7,1130.2,866.3,1129.1z M877,1130.2c-0.4-0.8-1-1.4-1.8-1.9c-0.8-0.4-1.6-0.7-2.5-0.7s-1.7,0.2-2.5,0.6
					s-1.3,1-1.8,1.9c-0.4,0.8-0.7,1.8-0.7,2.9c0,1.1,0.2,2.1,0.7,2.9c0.4,0.8,1,1.5,1.8,1.9c0.7,0.4,1.6,0.7,2.5,0.7
					s1.7-0.2,2.5-0.7c0.8-0.4,1.4-1.1,1.8-1.9c0.4-0.8,0.7-1.8,0.7-2.9C877.7,1131.9,877.5,1131,877,1130.2z"/>
				<path d="M888.8,1126.4c0.9-0.6,2.1-0.8,3.3-0.8c1.3,0,2.5,0.3,3.5,0.9c1.1,0.6,1.9,1.5,2.5,2.6c0.6,1.1,0.9,2.4,0.9,3.9
					c0,1.5-0.3,2.8-0.9,3.9c-0.6,1.2-1.4,2-2.5,2.7c-1.1,0.6-2.2,1-3.5,1c-1.2,0-2.3-0.3-3.3-0.8c-0.9-0.6-1.7-1.3-2.2-2.1v9.6h-2.4
					v-21.5h2.4v2.7C887.2,1127.6,887.9,1126.9,888.8,1126.4z M895.9,1130.1c-0.4-0.8-1-1.4-1.8-1.9c-0.8-0.4-1.6-0.6-2.5-0.6
					c-0.9,0-1.7,0.2-2.5,0.7c-0.8,0.4-1.4,1.1-1.8,1.9s-0.7,1.8-0.7,2.9c0,1.1,0.2,2.1,0.7,2.9s1.1,1.5,1.8,1.9
					c0.8,0.4,1.6,0.7,2.5,0.7c0.9,0,1.7-0.2,2.5-0.7c0.8-0.4,1.4-1.1,1.8-1.9s0.7-1.8,0.7-2.9C896.6,1131.9,896.3,1131,895.9,1130.1
					z"/>
				<path d="M904.6,1120.7v19.7h-2.4v-19.7H904.6z"/>
				<path d="M908.8,1129.1c0.6-1.1,1.4-2,2.5-2.6s2.2-0.9,3.5-0.9c1.3,0,2.4,0.3,3.3,0.8c0.9,0.5,1.6,1.2,2.1,2.1v-2.7h2.4v14.6
					h-2.4v-2.7c-0.5,0.9-1.2,1.6-2.1,2.1c-0.9,0.6-2.1,0.8-3.3,0.8c-1.3,0-2.5-0.3-3.5-1c-1-0.6-1.9-1.5-2.5-2.7
					c-0.6-1.2-0.9-2.5-0.9-3.9C907.9,1131.5,908.2,1130.2,908.8,1129.1z M919.5,1130.2c-0.4-0.8-1-1.4-1.8-1.9
					c-0.8-0.4-1.6-0.7-2.5-0.7s-1.7,0.2-2.5,0.6s-1.3,1-1.8,1.9c-0.4,0.8-0.7,1.8-0.7,2.9c0,1.1,0.2,2.1,0.7,2.9
					c0.4,0.8,1,1.5,1.8,1.9c0.7,0.4,1.6,0.7,2.5,0.7s1.7-0.2,2.5-0.7c0.8-0.4,1.4-1.1,1.8-1.9c0.4-0.8,0.7-1.8,0.7-2.9
					C920.2,1131.9,920,1131,919.5,1130.2z"/>
				<path d="M926.7,1129.1c0.6-1.1,1.4-2,2.5-2.6c1.1-0.6,2.3-0.9,3.7-0.9c1.8,0,3.3,0.4,4.4,1.3c1.2,0.9,1.9,2.1,2.3,3.6h-2.6
					c-0.2-0.9-0.7-1.6-1.4-2.1c-0.7-0.5-1.6-0.8-2.7-0.8c-1.4,0-2.5,0.5-3.4,1.4c-0.9,0.9-1.3,2.3-1.3,4c0,1.8,0.4,3.1,1.3,4.1
					c0.9,1,2,1.4,3.4,1.4c1.1,0,2-0.2,2.7-0.7c0.7-0.5,1.2-1.2,1.5-2.1h2.6c-0.4,1.5-1.2,2.7-2.3,3.6c-1.2,0.9-2.6,1.3-4.4,1.3
					c-1.4,0-2.6-0.3-3.7-0.9c-1.1-0.6-1.9-1.5-2.5-2.6c-0.6-1.1-0.9-2.5-0.9-4C925.8,1131.5,926.1,1130.2,926.7,1129.1z"/>
				<path d="M956.1,1134h-11.6c0.1,1.4,0.6,2.6,1.5,3.4c0.9,0.8,2,1.2,3.3,1.2c1,0,1.9-0.2,2.6-0.7c0.7-0.5,1.2-1.1,1.5-2h2.6
					c-0.4,1.4-1.2,2.5-2.3,3.4c-1.2,0.9-2.6,1.3-4.4,1.3c-1.4,0-2.6-0.3-3.7-0.9c-1.1-0.6-1.9-1.5-2.6-2.6s-0.9-2.5-0.9-4
					c0-1.5,0.3-2.8,0.9-4c0.6-1.1,1.4-2,2.5-2.6s2.3-0.9,3.8-0.9c1.4,0,2.6,0.3,3.7,0.9c1.1,0.6,1.9,1.4,2.5,2.5
					c0.6,1.1,0.9,2.2,0.9,3.6C956.2,1133,956.2,1133.5,956.1,1134z M953.1,1129.6c-0.4-0.7-1-1.2-1.7-1.5c-0.7-0.3-1.5-0.5-2.3-0.5
					c-1.2,0-2.3,0.4-3.1,1.2c-0.9,0.8-1.4,1.9-1.5,3.2h9.2C953.7,1131.1,953.5,1130.3,953.1,1129.6z"/>
				<path d="M963.6,1126.2c0.8-0.5,1.8-0.7,2.9-0.7v2.5h-0.6c-2.7,0-4.1,1.5-4.1,4.4v7.9h-2.4v-14.6h2.4v2.4
					C962.2,1127.3,962.8,1126.7,963.6,1126.2z"/>
				<path d="M982.5,1134h-11.6c0.1,1.4,0.6,2.6,1.5,3.4c0.9,0.8,2,1.2,3.3,1.2c1,0,1.9-0.2,2.6-0.7c0.7-0.5,1.2-1.1,1.5-2h2.6
					c-0.4,1.4-1.2,2.5-2.3,3.4c-1.2,0.9-2.6,1.3-4.4,1.3c-1.4,0-2.6-0.3-3.7-0.9c-1.1-0.6-1.9-1.5-2.6-2.6s-0.9-2.5-0.9-4
					c0-1.5,0.3-2.8,0.9-4c0.6-1.1,1.4-2,2.5-2.6s2.3-0.9,3.8-0.9c1.4,0,2.6,0.3,3.7,0.9c1.1,0.6,1.9,1.4,2.5,2.5
					c0.6,1.1,0.9,2.2,0.9,3.6C982.6,1133,982.6,1133.5,982.5,1134z M979.5,1129.6c-0.4-0.7-1-1.2-1.7-1.5c-0.7-0.3-1.5-0.5-2.3-0.5
					c-1.2,0-2.3,0.4-3.1,1.2c-0.9,0.8-1.4,1.9-1.5,3.2h9.2C980.1,1131.1,979.9,1130.3,979.5,1129.6z"/>
				<path d="M985.4,1140c-0.3-0.3-0.5-0.7-0.5-1.2c0-0.5,0.2-0.9,0.5-1.2c0.3-0.3,0.7-0.5,1.2-0.5c0.4,0,0.8,0.2,1.1,0.5
					c0.3,0.3,0.5,0.7,0.5,1.2c0,0.5-0.2,0.9-0.5,1.2c-0.3,0.3-0.7,0.5-1.1,0.5C986.1,1140.5,985.7,1140.4,985.4,1140z"/>
				<path d="M991.4,1129.1c0.6-1.1,1.4-2,2.5-2.6c1.1-0.6,2.3-0.9,3.7-0.9c1.8,0,3.3,0.4,4.4,1.3c1.2,0.9,1.9,2.1,2.3,3.6h-2.6
					c-0.2-0.9-0.7-1.6-1.4-2.1c-0.7-0.5-1.6-0.8-2.7-0.8c-1.4,0-2.5,0.5-3.4,1.4c-0.9,0.9-1.3,2.3-1.3,4c0,1.8,0.4,3.1,1.3,4.1
					c0.9,1,2,1.4,3.4,1.4c1.1,0,2-0.2,2.7-0.7c0.7-0.5,1.2-1.2,1.5-2.1h2.6c-0.4,1.5-1.2,2.7-2.3,3.6c-1.2,0.9-2.6,1.3-4.4,1.3
					c-1.4,0-2.6-0.3-3.7-0.9c-1.1-0.6-1.9-1.5-2.5-2.6c-0.6-1.1-0.9-2.5-0.9-4C990.5,1131.5,990.8,1130.2,991.4,1129.1z"/>
				<path d="M1010.2,1139.7c-1.1-0.6-2-1.5-2.6-2.6c-0.6-1.1-0.9-2.5-0.9-4c0-1.5,0.3-2.8,1-3.9c0.6-1.1,1.5-2,2.6-2.6
					c1.1-0.6,2.4-0.9,3.8-0.9s2.6,0.3,3.7,0.9c1.1,0.6,2,1.5,2.6,2.6c0.6,1.1,1,2.5,1,4c0,1.5-0.3,2.8-1,4c-0.7,1.1-1.6,2-2.7,2.6
					c-1.1,0.6-2.4,0.9-3.8,0.9C1012.5,1140.6,1011.3,1140.3,1010.2,1139.7z M1016.3,1137.9c0.8-0.4,1.4-1,1.8-1.8
					c0.5-0.8,0.7-1.8,0.7-3s-0.2-2.2-0.7-3c-0.5-0.8-1.1-1.4-1.8-1.8s-1.6-0.6-2.4-0.6c-0.9,0-1.7,0.2-2.4,0.6
					c-0.7,0.4-1.3,1-1.8,1.8c-0.4,0.8-0.7,1.8-0.7,3c0,1.2,0.2,2.2,0.7,3c0.4,0.8,1,1.4,1.7,1.8s1.5,0.6,2.4,0.6
					C1014.7,1138.5,1015.6,1138.3,1016.3,1137.9z"/>
				<path d="M1045.1,1126.2c0.9,0.5,1.6,1.2,2.1,2.1c0.5,0.9,0.8,2.1,0.8,3.4v8.6h-2.4v-8.2c0-1.5-0.4-2.6-1.1-3.3
					c-0.7-0.8-1.7-1.2-2.9-1.2c-1.3,0-2.3,0.4-3,1.2c-0.7,0.8-1.1,2-1.1,3.5v8h-2.4v-8.2c0-1.5-0.4-2.6-1.1-3.3
					c-0.7-0.8-1.7-1.2-2.9-1.2c-1.3,0-2.3,0.4-3,1.2c-0.7,0.8-1.1,2-1.1,3.5v8h-2.4v-14.6h2.4v2.1c0.5-0.8,1.1-1.3,1.9-1.8
					c0.8-0.4,1.7-0.6,2.7-0.6c1.2,0,2.3,0.3,3.2,0.8c0.9,0.5,1.6,1.4,2.1,2.4c0.4-1,1.1-1.8,2-2.4c0.9-0.6,2-0.9,3.1-0.9
					C1043.2,1125.5,1044.2,1125.8,1045.1,1126.2z"/>
			</g>
		</g>
		<linearGradient id="SVGID_2_" gradientUnits="userSpaceOnUse" x1="756.8719" y1="539.6128" x2="1029.8755" y2="812.6163">
			<stop  offset="0" style="stop-color:#FAF092"/>
			<stop  offset="0.4" style="stop-color:#F3BD49"/>
			<stop  offset="1" style="stop-color:#985725"/>
		</linearGradient>
		<path class="st4" d="M804.5,532.5l28.9,4.2v5.9l-29-9.8C804.2,532.7,804.3,532.4,804.5,532.5z M833.4,529.4V523l-28.8-11
			c-0.2-0.1-0.3,0.2-0.2,0.3L833.4,529.4z M833.4,563.6l-29,9.8c-0.2,0.1-0.1,0.4,0.1,0.3l28.9-4.2V563.6z M804.6,594.2l28.8-11
			v-6.4l-29,17C804.2,594,804.4,594.3,804.6,594.2z M761.7,553.3l71.7,3.1v-6.5l-71.7,3.1C761.5,552.9,761.5,553.3,761.7,553.3z
			 M975.7,512l-28.8,11v6.4l29-17C976,512.2,975.9,511.9,975.7,512z M975.7,532.5l-28.9,4.2v5.9l29-9.8
			C976,532.7,975.9,532.4,975.7,532.5z M1018.5,552.9l-71.7-3.1v6.5l71.7-3.1C1018.7,553.3,1018.7,552.9,1018.5,552.9z M975.8,573.4
			l-29-9.8v5.9l28.9,4.2C975.9,573.8,976,573.5,975.8,573.4z M975.8,593.9l-29-17v6.4l28.8,11C975.9,594.3,976,594,975.8,593.9z
			 M869.5,570.1H869h-0.5c0,1.6-1,3.4-2.4,4.9c-1.4,1.4-3.3,2.4-4.9,2.4v1c1.6,0,3.4,1,4.9,2.4c1.4,1.4,2.4,3.3,2.4,4.9h1
			c0-1.6,1-3.4,2.4-4.9c1.4-1.4,3.3-2.4,4.9-2.4v-1c-1.6,0-3.4-1-4.9-2.4C870.5,573.6,869.5,571.7,869.5,570.1z M911.7,520.5h-0.5
			h-0.5c0,1.6-1,3.4-2.4,4.9c-1.4,1.4-3.3,2.4-4.9,2.4v1c1.6,0,3.4,1,4.9,2.4c1.4,1.4,2.4,3.3,2.4,4.9h1c0-1.6,1-3.4,2.4-4.9
			c1.4-1.4,3.3-2.4,4.9-2.4v-1c-1.6,0-3.4-1-4.9-2.4C912.7,524,911.7,522.1,911.7,520.5z M887.9,565h1c0-1.3,0.4-2.5,1.1-3.5
			c1-1.5,2.6-2.7,3.9-3.4c0.7-0.4,1.3-0.7,1.7-0.9c0.2-0.1,0.4-0.2,0.5-0.2l0.1-0.1l0,0l0.3-0.1v-0.4c0-1.9,0-5.5,0-8.5
			c0-1.5,0-2.9,0-4s0-1.7,0-1.7v-0.5h-3.2h-5.5h-8.8v0.5v0.5l0,0c0.2,0,2.5,0.1,4.6,1c1.1,0.5,2.1,1.2,2.9,2.2
			c0.8,1,1.3,2.3,1.3,4.1v1.1V565z M899.6,583.6c-0.8-0.4-1.5-0.9-2-1.7c-0.5-0.8-0.9-1.8-0.9-3.2v-0.9V562h-1
			c0,1.3-0.4,2.5-1.1,3.5c-1,1.5-2.6,2.7-3.9,3.4c-0.7,0.4-1.3,0.7-1.7,0.9c-0.2,0.1-0.4,0.2-0.5,0.2l-0.1,0.1l0,0l-0.3,0.1v0.4
			c0,2,0,5.8,0,9c0,1.3-0.3,2.2-0.6,2.9c-0.6,1-1.4,1.5-2.1,1.8c-0.3,0.1-0.7,0.2-0.9,0.2c-0.1,0-0.2,0-0.3,0l-0.1,0h0l0,0v0.5v0.5
			h3.9h4.6h1h3.2h6.2v-0.5v-0.5l0,0C902.7,584.4,901.1,584.3,899.6,583.6z M873.1,554.2c-1-3.6-1.4-7.6-1.4-11.4
			c0-4.2,0.5-9.2,2-13.3c0.7-2.1,1.7-3.9,3-5.2c1.3-1.3,2.8-2.2,4.7-2.5l0.4-0.1v-0.5v-0.5l-0.5,0c-6.4,0.2-11.4,2.5-14.7,6.4
			c-3.3,3.9-5,9.3-5,15.8c0,7.1,2,12.8,5.9,16.7c3.8,3.9,9.5,6,16.6,6v-1c-2.4,0-4.3-0.7-5.9-2C875.7,560.9,874.1,557.8,873.1,554.2
			z M911,543.7c-2.9-1.3-6.4-1.9-10.3-1.9l-0.5,0v0.5v0v0.5l0.5,0c1.6,0.1,2.8,0.5,3.9,1.3c1.6,1.1,2.6,2.9,3.3,5.1
			c0.7,2.2,1,4.8,1,7.5c0,3.4-0.5,6.9-1.8,9.6c-0.6,1.4-1.5,2.5-2.5,3.3c-1,0.8-2.3,1.3-3.9,1.4l-0.5,0v0.5v0.5l0.5,0
			c5.3-0.1,9.8-1.5,13-4.2c3.2-2.6,5-6.5,5-11.2c0-2.6-0.5-4.8-1.3-6.7C916,547,913.8,545,911,543.7z M888.7,523.3
			c1.2,1.1,1.9,2.6,2.3,4.3c0.4,1.6,0.5,3.4,0.5,4.8c0,0.8,0,1.5-0.1,2c0,0.2,0,0.4-0.1,0.6c0,0.1,0,0.1,0,0.1l0,0l1,0.2l0-0.1
			c0.1-0.4,0.5-2.1,1.3-4.2c0.8-2.1,2.1-4.5,3.8-6.3l0.4-0.4l-0.5-0.3c-0.1,0-3.8-2.8-11.7-3.1l-0.5,0v0.6v0.4l0.4,0.1
			C886.9,522.1,887.9,522.6,888.7,523.3z M849.7,605.5h-6.6v-6.6v-91.5v-6.6h6.6h80.8h6.6v6.6v91.5v6.6h-6.6H849.7z M849.7,598.8
			h80.8v-91.5h-80.8V598.8z M805.7,715.8l4.7,7.8h-3.7l-4.3-7.6h-2.4v7.6h-3.1v-18.9h6.5c1.4,0,2.7,0.3,3.7,0.8c1,0.5,1.8,1.2,2.3,2
			c0.5,0.9,0.7,1.8,0.7,2.9c0,1.2-0.4,2.3-1.1,3.4C808.2,714.8,807.1,715.5,805.7,715.8z M803.3,713.6c1.2,0,2-0.3,2.6-0.9
			c0.6-0.6,0.9-1.4,0.9-2.3c0-1-0.3-1.7-0.9-2.3c-0.6-0.6-1.5-0.8-2.6-0.8h-3.4v6.3H803.3z M816.7,723.7h10.4v-2.5h-7.3v-5.8h6.5
			v-2.5h-6.5v-5.5h7.3v-2.5h-10.4V723.7z M842.9,704.8l6.8,18.9h-3.3l-1.4-3.9h-7.9l-1.4,3.9h-3.2l6.8-18.9H842.9z M844.2,717.3
			l-3.1-8.8l-3.1,8.8H844.2z M858.4,704.8h-3.1v18.9h9.5v-2.5h-6.4V704.8z M879.9,723.7h10.4v-2.5H883v-5.8h6.5v-2.5H883v-5.5h7.3
			v-2.5h-10.4V723.7z M906.7,713.9c-0.8-0.3-1.8-0.7-3.1-1c-0.9-0.3-1.7-0.5-2.2-0.7c-0.5-0.2-1-0.5-1.3-0.9
			c-0.4-0.4-0.5-0.8-0.5-1.4c0-0.9,0.3-1.5,0.8-2c0.6-0.5,1.3-0.7,2.2-0.7c1,0,1.8,0.2,2.4,0.7c0.6,0.5,0.9,1.1,1,1.8h3.4
			c-0.1-1.6-0.8-2.8-1.9-3.8c-1.2-0.9-2.7-1.4-4.5-1.4c-1.3,0-2.4,0.2-3.4,0.7c-1,0.4-1.7,1.1-2.3,1.9c-0.5,0.8-0.8,1.8-0.8,2.9
			c0,1.2,0.3,2.1,0.8,2.8c0.5,0.7,1.2,1.2,2,1.6c0.8,0.3,1.8,0.7,3,1c1,0.3,1.7,0.5,2.3,0.7c0.6,0.2,1,0.5,1.4,0.9
			c0.4,0.4,0.6,0.9,0.6,1.5c0,0.8-0.3,1.5-0.9,2c-0.6,0.5-1.4,0.8-2.5,0.8c-1,0-1.8-0.3-2.4-0.8c-0.6-0.5-0.9-1.2-1-2h-3.3
			c0,1.1,0.3,2,0.9,2.9c0.6,0.8,1.4,1.4,2.4,1.9c1,0.4,2.2,0.7,3.4,0.7c1.3,0,2.5-0.3,3.5-0.8c1-0.5,1.7-1.2,2.3-2.1
			c0.5-0.9,0.8-1.8,0.8-2.7c0-1.2-0.3-2.2-0.8-2.9C908.2,714.7,907.5,714.2,906.7,713.9z M915,707.3h5.1v16.4h3.1v-16.4h5v-2.5H915
			V707.3z M943.2,704.8l6.8,18.9h-3.3l-1.4-3.9h-7.9l-1.4,3.9h-3.2l6.8-18.9H943.2z M944.5,717.3l-3.1-8.8l-3.1,8.8H944.5z
			 M954.7,707.3h5.1v16.4h3.1v-16.4h5v-2.5h-13.2V707.3z M973.7,723.7h10.4v-2.5h-7.3v-5.8h6.5v-2.5h-6.5v-5.5h7.3v-2.5h-10.4V723.7
			z M754.5,674.3l-0.2,0v-1.6l0.1,0c2.1-0.4,3.7-2.3,5.3-6.5l14.3-36.8l0.1,0c0.6,0.1,1.9,0.1,2.7,0.1c0.7,0,2,0,2.7-0.1l0.1,0
			l15.8,39.3c1.1,2.8,2.8,3.8,4,3.9l0.2,0v1.6l-0.2,0c-2.6-0.1-8.2-0.2-11.3-0.2c-4.1,0-7.6,0.1-9.5,0.2l-0.2,0v-1.6l0.2,0
			c3.2-0.1,4.2-0.7,4.2-2.1c0-0.7-0.2-1.7-0.7-2.9l-3.7-10.2H765l-1.6,4.2c-1.1,2.9-1.7,5.2-1.7,6.9c0,2.5,2.7,4,5.4,4.1l0.2,0v1.6
			l-0.2,0c-3-0.1-5.3-0.2-7.8-0.2C757.4,674.1,755.7,674.2,754.5,674.3z M765.6,655.9h12.2l-6-16.2L765.6,655.9z M878.5,680.1
			c-2.2,0-7.2-0.2-10.4-0.2c-4.2,0-8.5,0.1-10.9,0.2v-1.4c4.5-0.2,5.3-0.9,5.3-6.1v-35.2c0-5.2-0.8-5.9-5.3-6.1v-1.4
			c1.9,0.1,5.2,0.2,8.6,0.2c0.7,0,1.5,0,2.2,0c3.4-0.1,8.3-0.2,11.2-0.2c18.7,0,27.6,8.7,27.6,24.6
			C906.8,669.9,896.4,680.1,878.5,680.1z M895,654.7c0-15.9-4.4-23.6-15.9-23.6c-4.3,0-5.3,1.2-5.3,6.1v35.5c0,5,0.9,6.1,5.3,6.1
			C891.1,678.8,895,670.1,895,654.7z M1015.9,629.3l15.3,39.5c1,2.5,2.3,3.8,3.9,3.9l0.2,0v1.6l-0.2,0c-1.8-0.1-5.7-0.2-7.9-0.2
			c-3.4,0-6.3,0.1-8,0.2l-0.2,0v-1.6l0.2,0c3.2-0.1,4.3-0.7,4.3-2.1c0-0.7-0.2-1.6-0.7-2.9l-3.8-10.2h-14.9l-2.5,6.5
			c-0.8,2.1-1.2,3.8-1.2,5.1c0,1.9,2.4,3.5,5.3,3.6l0.2,0v1.6l-0.2,0c-2.3-0.1-4.9-0.2-7.2-0.2c-2,0-3.3,0.1-4.7,0.2l-0.2,0v-1.6
			l0.1,0c2-0.5,3.6-2.2,4.8-5.3l14.8-38.1H1015.9z M1018.4,655.9l-6.7-18l-6.9,18H1018.4z M1127,680.1c0-3.7-1.1-9.6-1.1-16.8h-1.1
			c-1,9.4-3.8,15.2-12.7,15.2h-5.2c-4.8,0-5.8-0.7-5.8-5.9v-17.4h4.7c6.2,0,6.2,8.3,6.8,12.8h1.6c-0.3-5.4-0.4-11.2-0.4-13.5
			c0-1,0-2.1,0-3.4c0-1.6,0-7.6,0.2-10.6h-1.6c-0.6,3.4-0.4,13.3-6.6,13.3h-4.7v-16.4c0-5.2,0.9-5.9,5.8-5.9h5.9
			c8.2,0,10.3,5.1,10.3,13.8h1.6c0-7.4,1.8-12,1.8-15.4c-4.4,0.2-12.8,0.2-17.2,0.2c-4.3,0-13.6,0-20.6-0.2v1.4
			c4.8,0.2,5.8,0.9,5.8,6.1v35.2c0,5.2-0.9,5.9-5.8,6.1v1.4c7-0.2,14.3-0.2,18.5-0.2C1112.1,679.9,1122.2,679.9,1127,680.1z
			 M1042.1,680.5l-1.4-0.5c-0.1,0.3-3.2,8.3-17.6,8.3c-10.2,0-17-3.5-23.6-6.8c-4.9-2.5-9.6-4.9-15.3-5.4v-38.9
			c0-5.2,1.5-5.9,6.3-6.1v-1.4c-2.2,0.1-6.3,0.2-9.5,0.2c-3.7,0-7.1-0.1-9.1-0.2v1.4c4.8,0.2,5.8,0.9,5.8,6.1v39.8
			c-3.9,1.7-6.7,5.1-6.9,5.2l1.1,1c0,0,4.4-4,9.7-4c5.7,0,10.9,3.3,16.5,6.9c6.4,4.1,13.7,8.7,22.8,8.7
			C1037.5,694.9,1042.1,680.7,1042.1,680.5z M834.4,629.8v1.4c6.3,0.6,8.7,5,8.7,12.8v19.6l-27.5-33.9c-1.7,0.1-3.9,0.2-6.1,0.2
			c-2.2,0-4.7-0.1-6.2-0.2v1.4c4.5,0.2,5.3,0.9,5.3,6.1v29.4c0,6.9-1.1,11.3-5.6,12v1.4c1.5-0.1,4.2-0.2,6.4-0.2
			c2.6,0,7.7,0.1,9.5,0.2v-1.4c-6.3-0.6-8.7-5-8.7-12.8v-24.7l30.8,39.1c0.7,0,1.3,0,1.9,0c0.6,0,1.2,0,1.7,0v-37
			c0-6.9,1.1-11.3,5.6-12v-1.4c-1.5,0.1-4.2,0.2-6.4,0.2C841.4,630,836.3,630,834.4,629.8z M950,678.7v1.4c-2.5-0.1-7.1-0.2-11-0.2
			c-3.7,0-7.1,0.1-9.1,0.2v-1.4c4.8-0.2,5.8-0.9,5.8-6.1v-35.2c0-5.2-0.9-5.9-5.8-6.1v-1.4c2,0.1,5.5,0.2,8.7,0.2
			c4.5,0,9-0.1,10.7-0.1c11.4,0,17.1,6.2,17.1,14.5c0,7.5-4.6,16.9-18.7,16.9h-5.5v11.3C942.3,677.8,944,678.5,950,678.7z
			 M942.3,659.9h4.8c9.4,0,12.3-6.8,12.3-14.7c0-8.9-3.2-13.9-11.8-13.9c-4.3,0-5.3,1.2-5.3,6.1V659.9z M794.9,682.3l1.3,0.5
			c0,0.1-0.2,0.6-0.8,1.4c-2.1,3.4-8.9,11.8-23.1,11.8c-16.6,0-25.3-13.3-32.3-24c-4.9-7.5-9.2-14.1-15-14.8v15.3
			c0,5.2,0.8,5.9,5.3,6.1v1.4c-2.6-0.1-6.8-0.2-10.8-0.2c-4.5,0-8.8,0.1-11.2,0.2v-1.4c4.5-0.2,5.3-0.9,5.3-6.1v-35.2
			c0-5.2-0.8-5.9-5.3-6.1v-1.4c2.4,0.1,6.8,0.2,10.8,0.2c4.6,0,9.4-0.1,11.2-0.1c13.2,0,19.7,4.5,19.7,12.3
			c0,8.7-7.5,13.7-17.2,14.6c5,2.1,9.2,7.1,13.9,12.6c7.7,9.2,16.4,19.6,31.9,19.6c10.7,0,14.6-4.1,15.9-5.9
			C794.8,682.7,794.9,682.3,794.9,682.3z M738.2,643.1c0-7.5-2.4-11.8-8.8-11.8c-3.6,0-4.4,1.2-4.4,6.1v18.2h3.1
			C736.5,655.6,738.2,649.6,738.2,643.1z M677.8,681.2c8.3,0,10.4-3.7,15.3-3.7c1.8,0,2.9,0.9,2.9,2.7h1.4v-20
			c0-5.2,0.5-5.9,3.2-6.1v-1.4c-2.1,0.2-5.5,0.2-9.5,0.2c-3.8,0-12.9-0.1-15.8-0.2v1.4c10.1,0.4,11.4,4.2,11.4,13.6v6.7
			c0,3.2-4.3,5.1-8,5.1c-8.8,0-12.9-7.3-12.9-24.4c0-12.5,3.9-24.4,14.9-24.4c8.9,0,11.9,7.2,11.9,16.4h1.6c0-6.5,3.9-13.2,3.9-17.2
			h-1.6c0,1.4-1.2,2-2.6,2c-3.5,0-7.8-3-14.9-3c-15.7,0-25.9,10.6-25.9,26.7C653.2,671,661.9,681.2,677.8,681.2z M1061.8,681.1
			c8.6,0,10.9-3.8,14.4-3.8c2,0,2.7,1.5,2.7,2.8h1.6c0-3.5-2.9-7.7-2.9-19.7h-1.6c0,10.8-5,19.2-13.5,19.2
			c-9.2,0-15.3-8.7-15.3-24.6c0-15.4,6.3-25,15.6-25c9.2,0,13.3,8.4,13.3,18.7h1.6c0-10,2.9-16,2.9-18.9h-1.6c0,1.2-1.2,2.4-2.4,2.4
			c-3.3,0-5.8-3.4-13.6-3.4c-14.5,0-22.8,10.7-22.8,26.6C1040.1,671.6,1047.7,681.1,1061.8,681.1z M1011.3,714.4l115.7,1.1v-2.7
			l-115.7,1.1V714.4z M653.2,715.5l115.7-1.1V714l-115.7-1.1V715.5z"/>
	</g>
	<circle class="st21" cx="656.7" cy="397" r="9.6"/>
	<circle class="st24" cx="656.7" cy="462.2" r="6.8"/>
	<circle class="st21" cx="1123.5" cy="397" r="9.6"/>
	<circle class="st24" cx="1123.5" cy="462.2" r="6.8"/>
	<polygon points="1326.5,186.4 1290.2,217 1290.2,247.5 1290.2,1718.7 1290.2,1749.2 1326.5,1779.8 1362.8,1749.2 1362.8,1718.7 
		1362.8,247.5 1362.8,217 	"/>
	<polygon points="1479,360.7 1448.5,324.5 471.5,324.5 471.5,324.5 441,360.7 471.5,397 471.5,397 1448.5,397 	"/>
	<rect x="1094" y="309.4" width="58.8" height="15.1"/>
	<polyline class="st56" points="512.3,446.2 469.1,446.2 469.1,1460 512.3,1460 	"/>
	<polyline class="st56" points="552.2,1499.9 552.2,1543.1 1228,1543.1 1228,1499.9 	"/>
	<g>
		<rect x="178.8" y="938.3" class="st5" width="290.3" height="29.6"/>
		<path class="st57" d="M233.8,940.5c1.7-1.4,3.9-2.1,6.6-2.1c1.8,0,3.4,0.3,4.7,1c1.3,0.7,2.3,1.5,3,2.7c0.7,1.1,1,2.4,1,3.8
			c0,1.7-0.5,3.1-1.4,4.3c-0.9,1.2-2.2,2-3.7,2.3v0.2c1.7,0.4,3.1,1.3,4.1,2.5c1,1.3,1.5,2.9,1.5,4.9c0,1.5-0.3,2.9-1,4.1
			c-0.7,1.2-1.7,2.2-3.1,2.9c-1.4,0.7-3.1,1-5,1c-2.8,0-5.1-0.7-7-2.2c-1.8-1.5-2.8-3.6-3-6.3h3.5c0.2,1.6,0.8,2.9,2,3.9
			c1.1,1,2.6,1.5,4.5,1.5c1.9,0,3.3-0.5,4.3-1.5c1-1,1.5-2.2,1.5-3.8c0-2-0.7-3.4-2-4.3c-1.3-0.9-3.3-1.3-6-1.3h-0.9v-3h1
			c2.5,0,4.3-0.4,5.6-1.2c1.3-0.8,1.9-2,1.9-3.7c0-1.4-0.5-2.5-1.4-3.4c-0.9-0.9-2.2-1.3-3.9-1.3c-1.7,0-3,0.4-4,1.3
			c-1,0.9-1.6,2-1.8,3.4H231C231.2,943.8,232.1,941.9,233.8,940.5z"/>
		<path class="st57" d="M265.3,941.4c-2.4,0-4.1,0.9-5.3,2.7c-1.2,1.8-1.7,4.8-1.7,9c0.6-1.4,1.6-2.5,3.1-3.3c1.4-0.8,3-1.2,4.8-1.2
			c2.7,0,4.9,0.9,6.6,2.6c1.6,1.7,2.5,4.1,2.5,7.1c0,1.8-0.4,3.4-1.1,4.9c-0.7,1.4-1.8,2.6-3.2,3.4c-1.4,0.9-3.2,1.3-5.2,1.3
			c-2.7,0-4.9-0.6-6.4-1.8c-1.5-1.2-2.6-2.9-3.2-5.1c-0.6-2.2-0.9-4.8-0.9-8c0-9.8,3.4-14.7,10.2-14.7c2.6,0,4.7,0.7,6.2,2.1
			c1.5,1.4,2.4,3.2,2.6,5.4h-3.4C270.2,942.9,268.3,941.4,265.3,941.4z M262.1,952.5c-1,0.5-1.8,1.2-2.5,2.1
			c-0.6,0.9-0.9,2.1-0.9,3.5c0,2,0.6,3.7,1.8,4.9c1.2,1.3,2.9,1.9,5,1.9c1.9,0,3.4-0.6,4.5-1.7c1.1-1.2,1.7-2.7,1.7-4.7
			c0-2.1-0.5-3.7-1.6-4.9c-1.1-1.2-2.6-1.8-4.7-1.8C264.2,951.8,263.1,952,262.1,952.5z"/>
		<path class="st57" d="M291.4,941.7c-0.5-0.5-0.7-1.1-0.7-1.8c0-0.7,0.2-1.3,0.7-1.8s1.1-0.7,1.8-0.7c0.7,0,1.2,0.2,1.7,0.7
			c0.5,0.5,0.7,1.1,0.7,1.8c0,0.7-0.2,1.3-0.7,1.8c-0.5,0.5-1,0.7-1.7,0.7C292.5,942.4,291.9,942.2,291.4,941.7z M295,946v21.9h-3.6
			V946H295z"/>
		<path class="st57" d="M318.3,948c1.7,1.6,2.5,3.9,2.5,7v12.9h-3.6v-12.4c0-2.2-0.5-3.9-1.6-5c-1.1-1.2-2.6-1.7-4.5-1.7
			c-1.9,0-3.4,0.6-4.6,1.8c-1.1,1.2-1.7,2.9-1.7,5.2v12.1h-3.6V946h3.6v3.1c0.7-1.1,1.7-2,2.9-2.6c1.2-0.6,2.6-0.9,4.1-0.9
			C314.5,945.6,316.7,946.4,318.3,948z"/>
		<path class="st57" d="M326.8,950.9c0.9-1.7,2.2-3,3.8-3.9c1.6-0.9,3.5-1.4,5.5-1.4c2.7,0,4.9,0.7,6.7,2c1.7,1.3,2.9,3.1,3.5,5.4
			h-3.9c-0.4-1.3-1.1-2.4-2.2-3.2c-1.1-0.8-2.4-1.2-4-1.2c-2.1,0-3.8,0.7-5,2.1c-1.3,1.4-1.9,3.4-1.9,6.1c0,2.6,0.6,4.7,1.9,6.1
			c1.3,1.4,3,2.2,5,2.2c1.6,0,2.9-0.4,4-1.1c1.1-0.7,1.8-1.8,2.2-3.2h3.9c-0.6,2.2-1.8,4-3.5,5.4c-1.8,1.3-4,2-6.6,2
			c-2.1,0-3.9-0.5-5.5-1.4c-1.6-0.9-2.9-2.3-3.8-4c-0.9-1.7-1.4-3.7-1.4-6C325.4,954.6,325.9,952.6,326.8,950.9z"/>
		<path class="st57" d="M366.4,946.6c1.3,0.7,2.4,1.8,3.1,3.2c0.8,1.4,1.1,3.1,1.1,5.2v12.9h-3.6v-12.4c0-2.2-0.5-3.9-1.6-5
			c-1.1-1.2-2.6-1.7-4.5-1.7c-1.9,0-3.4,0.6-4.6,1.8c-1.1,1.2-1.7,2.9-1.7,5.2v12.1H351v-29.6h3.6v10.8c0.7-1.1,1.7-2,3-2.6
			c1.3-0.6,2.7-0.9,4.3-0.9C363.6,945.6,365.1,945.9,366.4,946.6z"/>
		<path class="st57" d="M396.5,958.3H379c0.1,2.2,0.9,3.8,2.2,5.1c1.3,1.2,3,1.8,4.9,1.8c1.6,0,2.9-0.4,3.9-1.1
			c1.1-0.7,1.8-1.7,2.2-2.9h3.9c-0.6,2.1-1.8,3.8-3.5,5.1c-1.8,1.3-3.9,2-6.6,2c-2.1,0-3.9-0.5-5.6-1.4c-1.6-0.9-2.9-2.3-3.9-4
			c-0.9-1.7-1.4-3.7-1.4-6c0-2.3,0.5-4.3,1.4-6c0.9-1.7,2.2-3,3.8-3.9c1.6-0.9,3.5-1.4,5.7-1.4c2.1,0,3.9,0.5,5.5,1.4
			c1.6,0.9,2.8,2.2,3.7,3.7c0.9,1.6,1.3,3.4,1.3,5.4C396.6,956.8,396.6,957.5,396.5,958.3z M392,951.7c-0.6-1-1.4-1.8-2.5-2.3
			c-1.1-0.5-2.2-0.8-3.5-0.8c-1.8,0-3.4,0.6-4.7,1.8c-1.3,1.2-2,2.8-2.2,4.9h13.8C392.9,953.9,392.6,952.7,392,951.7z"/>
		<path class="st57" d="M404.7,967.4c-1.3-0.6-2.4-1.4-3.2-2.4c-0.8-1-1.2-2.2-1.3-3.5h3.8c0.1,1.1,0.6,2,1.5,2.7
			c0.9,0.7,2.1,1,3.6,1c1.4,0,2.5-0.3,3.3-0.9c0.8-0.6,1.2-1.4,1.2-2.3c0-1-0.4-1.7-1.3-2.1c-0.9-0.5-2.2-0.9-4-1.4
			c-1.6-0.4-3-0.9-4-1.3c-1-0.4-1.9-1.1-2.6-2c-0.7-0.9-1.1-2-1.1-3.4c0-1.1,0.3-2.1,1-3.1c0.7-0.9,1.6-1.7,2.8-2.2
			c1.2-0.5,2.6-0.8,4.2-0.8c2.4,0,4.4,0.6,5.9,1.8c1.5,1.2,2.3,2.9,2.4,5h-3.6c-0.1-1.1-0.5-2.1-1.4-2.8c-0.8-0.7-2-1-3.4-1
			c-1.3,0-2.3,0.3-3.1,0.8c-0.8,0.6-1.2,1.3-1.2,2.2c0,0.7,0.2,1.3,0.7,1.8c0.5,0.5,1.1,0.8,1.8,1.1c0.7,0.3,1.7,0.6,2.9,0.9
			c1.6,0.4,2.9,0.8,3.8,1.3c1,0.4,1.8,1,2.5,1.9c0.7,0.8,1.1,1.9,1.1,3.2c0,1.2-0.3,2.3-1,3.2s-1.6,1.7-2.8,2.3
			c-1.2,0.5-2.6,0.8-4.2,0.8C407.5,968.2,406,967.9,404.7,967.4z"/>
	</g>
	<g>
		<rect x="744.9" y="1594.9" class="st5" width="290.3" height="29.6"/>
		<path class="st57" d="M805.2,1614.9c1.9-1.7,3.5-3.6,4.9-5.5c1.3-1.9,2-3.8,2-5.6c0-1.7-0.4-3.1-1.3-4.1s-2.2-1.5-4.1-1.5
			c-1.8,0-3.2,0.6-4.2,1.7c-1,1.1-1.5,2.6-1.6,4.5h-3.5c0.1-3,1-5.3,2.7-6.9c1.7-1.6,3.9-2.4,6.6-2.4c2.7,0,4.9,0.8,6.5,2.3
			c1.6,1.5,2.4,3.6,2.4,6.3c0,2.2-0.7,4.4-2,6.5c-1.3,2.1-2.8,3.9-4.5,5.5c-1.7,1.6-3.8,3.4-6.4,5.5h13.8v3h-19.2v-2.6
			C800.6,1618.9,803.3,1616.6,805.2,1614.9z"/>
		<path class="st57" d="M819.8,1618.1v-2.8l14-19.4h4.4v19h4v3.2h-4v6.4h-3.6v-6.4H819.8z M834.7,1599.7l-10.8,15.2h10.8V1599.7z"/>
		<path class="st57" d="M857.2,1598.3c-0.5-0.5-0.7-1.1-0.7-1.8c0-0.7,0.2-1.3,0.7-1.8s1.1-0.7,1.8-0.7c0.7,0,1.2,0.2,1.7,0.7
			c0.5,0.5,0.7,1.1,0.7,1.8c0,0.7-0.2,1.3-0.7,1.8c-0.5,0.5-1,0.7-1.7,0.7C858.3,1599,857.7,1598.8,857.2,1598.3z M860.7,1602.6
			v21.9h-3.6v-21.9H860.7z"/>
		<path class="st57" d="M884.1,1604.6c1.7,1.6,2.5,3.9,2.5,7v12.9H883v-12.4c0-2.2-0.5-3.9-1.6-5c-1.1-1.2-2.6-1.7-4.5-1.7
			c-1.9,0-3.4,0.6-4.6,1.8c-1.1,1.2-1.7,2.9-1.7,5.2v12.1h-3.6v-21.9h3.6v3.1c0.7-1.1,1.7-2,2.9-2.6c1.2-0.6,2.6-0.9,4.1-0.9
			C880.3,1602.2,882.4,1603,884.1,1604.6z"/>
		<path class="st57" d="M892.5,1607.6c0.9-1.7,2.2-3,3.8-3.9c1.6-0.9,3.5-1.4,5.5-1.4c2.7,0,4.9,0.7,6.7,2c1.7,1.3,2.9,3.1,3.5,5.4
			h-3.9c-0.4-1.3-1.1-2.4-2.2-3.2c-1.1-0.8-2.4-1.2-4-1.2c-2.1,0-3.8,0.7-5,2.1c-1.3,1.4-1.9,3.4-1.9,6.1c0,2.6,0.6,4.7,1.9,6.1
			c1.3,1.4,3,2.2,5,2.2c1.6,0,2.9-0.4,4-1.1c1.1-0.7,1.8-1.8,2.2-3.2h3.9c-0.6,2.2-1.8,4-3.5,5.4c-1.8,1.3-4,2-6.6,2
			c-2.1,0-3.9-0.5-5.5-1.4c-1.6-0.9-2.9-2.3-3.8-4c-0.9-1.7-1.4-3.7-1.4-6C891.2,1611.2,891.6,1609.3,892.5,1607.6z"/>
		<path class="st57" d="M932.2,1603.2c1.3,0.7,2.4,1.8,3.1,3.2c0.8,1.4,1.1,3.1,1.1,5.2v12.9h-3.6v-12.4c0-2.2-0.5-3.9-1.6-5
			c-1.1-1.2-2.6-1.7-4.5-1.7c-1.9,0-3.4,0.6-4.6,1.8c-1.1,1.2-1.7,2.9-1.7,5.2v12.1h-3.6v-29.6h3.6v10.8c0.7-1.1,1.7-2,3-2.6
			c1.3-0.6,2.7-0.9,4.3-0.9C929.4,1602.2,930.8,1602.5,932.2,1603.2z"/>
		<path class="st57" d="M962.3,1614.9h-17.5c0.1,2.2,0.9,3.8,2.2,5.1c1.3,1.2,3,1.8,4.9,1.8c1.6,0,2.9-0.4,3.9-1.1
			c1.1-0.7,1.8-1.7,2.2-2.9h3.9c-0.6,2.1-1.8,3.8-3.5,5.1c-1.8,1.3-3.9,2-6.6,2c-2.1,0-3.9-0.5-5.6-1.4c-1.6-0.9-2.9-2.3-3.9-4
			c-0.9-1.7-1.4-3.7-1.4-6c0-2.3,0.5-4.3,1.4-6c0.9-1.7,2.2-3,3.8-3.9c1.6-0.9,3.5-1.4,5.7-1.4c2.1,0,3.9,0.5,5.5,1.4
			c1.6,0.9,2.8,2.2,3.7,3.7c0.9,1.6,1.3,3.4,1.3,5.4C962.4,1613.4,962.4,1614.1,962.3,1614.9z M957.7,1608.4c-0.6-1-1.4-1.8-2.5-2.3
			c-1.1-0.5-2.2-0.8-3.5-0.8c-1.8,0-3.4,0.6-4.7,1.8c-1.3,1.2-2,2.8-2.2,4.9h13.8C958.7,1610.6,958.4,1609.4,957.7,1608.4z"/>
		<path class="st57" d="M970.5,1624c-1.3-0.6-2.4-1.4-3.2-2.4c-0.8-1-1.2-2.2-1.3-3.5h3.8c0.1,1.1,0.6,2,1.5,2.7
			c0.9,0.7,2.1,1,3.6,1c1.4,0,2.5-0.3,3.3-0.9c0.8-0.6,1.2-1.4,1.2-2.3c0-1-0.4-1.7-1.3-2.1c-0.9-0.5-2.2-0.9-4-1.4
			c-1.6-0.4-3-0.9-4-1.3c-1-0.4-1.9-1.1-2.6-2c-0.7-0.9-1.1-2-1.1-3.4c0-1.1,0.3-2.1,1-3.1c0.7-0.9,1.6-1.7,2.8-2.2
			c1.2-0.5,2.6-0.8,4.2-0.8c2.4,0,4.4,0.6,5.9,1.8c1.5,1.2,2.3,2.9,2.4,5h-3.6c-0.1-1.1-0.5-2.1-1.4-2.8c-0.8-0.7-2-1-3.4-1
			c-1.3,0-2.3,0.3-3.1,0.8c-0.8,0.6-1.2,1.3-1.2,2.2c0,0.7,0.2,1.3,0.7,1.8c0.5,0.5,1.1,0.8,1.8,1.1c0.7,0.3,1.7,0.6,2.9,0.9
			c1.6,0.4,2.9,0.8,3.8,1.3c1,0.4,1.8,1,2.5,1.9c0.7,0.8,1.1,1.9,1.1,3.2c0,1.2-0.3,2.3-1,3.2s-1.6,1.7-2.8,2.3
			c-1.2,0.5-2.6,0.8-4.2,0.8C973.3,1624.9,971.8,1624.6,970.5,1624z"/>
	</g>
	<g>
		<rect x="552.2" y="140.4" width="675.8" height="169"/>
		<g>
			<rect x="594.6" y="197" class="st5" width="591.1" height="55.7"/>
			<path class="st3" d="M743.9,226.8c0,15.7-10.3,26.3-24.9,26.3c-14.9,0-24.9-9.4-24.9-25.5c0-15.7,10.3-26.3,24.9-26.3
				C733.9,201.3,743.9,210.7,743.9,226.8z M705.8,227.3c0,15,6,24.5,13.4,24.5c7.9,0,13-10.2,13-24.8c0-15-6-24.5-13.5-24.5
				C710.8,202.6,705.8,212.8,705.8,227.3z"/>
			<path class="st3" d="M786.4,232.3c0,13.7-6.4,20.8-16.3,20.8c-2.9,0-5.5-0.8-7.2-2.3v7c0,4.4,2.4,5.5,6.3,5.5v1.5
				c-2.4-0.1-7-0.3-11.8-0.3c-3.4,0-7.1,0.2-8.9,0.3v-1.5c3.1,0,4.2-1.1,4.2-4.8v-35.2c0-4.2-1.1-6.2-4.5-6.2v-1.5
				c1.5,0.1,3,0.2,4.4,0.2c3.9,0,7.4-0.3,10.3-1v6.6c2-4.5,5.9-6.8,10.9-6.8C780.9,214.7,786.4,220.6,786.4,232.3z M775.7,233.7
				c0-12-2.4-15.9-6.1-15.9c-3.1,0-5.9,2.2-6.8,6.2v25.3c1,1.2,2.6,1.9,4.5,1.9C773.6,251.2,775.7,244.5,775.7,233.7z"/>
			<path class="st3" d="M820.7,241.7l1.3,0.5c-1.7,5.3-6.3,11-14.1,11c-9.5,0-16.2-6-16.2-18.8c0-13.1,7.2-19.6,17.2-19.6
				c8.2,0,13.2,4.6,13.2,15.6h-19.7c-0.1,1-0.1,2.2-0.1,3.3c0,9.8,4.7,13.6,9.2,13.6C814.3,247.3,817.9,246.4,820.7,241.7z
				 M802.2,229h11c0.1-6.9-1.3-12.8-4.8-12.8C805.3,216.2,802.8,219.9,802.2,229z"/>
			<path class="st3" d="M859.8,217.5c1.5,1.8,2.2,4.4,2.2,9.1v19c0,3.9,1.2,5.1,4.5,5.1v1.5c-1.8-0.1-5.8-0.3-9.3-0.3
				c-3.6,0-7.4,0.2-9.1,0.3v-1.5c2.8,0,3.8-1.1,3.8-5.1v-21.9c0-3.5-0.8-5.9-4.3-5.9c-4,0-7,3.5-7,8.1v19.6c0,3.9,1,5.1,3.8,5.1v1.5
				c-1.6-0.1-5.3-0.3-8.7-0.3c-3.6,0-7.8,0.2-9.7,0.3v-1.5c3.3,0,4.5-1.1,4.5-5.1v-22.2c0-4.2-1.1-6.2-4.5-6.2v-1.5
				c1.5,0.1,3,0.2,4.4,0.2c3.9,0,7.3-0.3,10.3-1v6.4c2.3-4.8,6.5-6.6,11.5-6.6C856,214.7,858.3,215.8,859.8,217.5z"/>
			<path class="st3" d="M937.8,203.7c-4.5,0.2-5.3,0.9-5.3,6.1v34.9c0,5.1,0.9,5.8,5.3,6.1v1.4c-2.3-0.1-6.4-0.2-10.7-0.2
				c-4.1,0-8.5,0.1-11.1,0.2v-1.4c4.5-0.2,5.3-0.9,5.3-6.1v-16.9h-18.7v16.9c0,5.1,0.8,5.8,5.3,6.1v1.4c-2.5-0.1-6.7-0.2-10.7-0.2
				c-4.5,0-8.7,0.1-11.1,0.2v-1.4c4.5-0.2,5.3-0.9,5.3-6.1v-34.9c0-5.1-0.8-5.8-5.3-6.1v-1.4c2.4,0.1,6.6,0.2,11.1,0.2
				c3.9,0,8.1-0.1,10.7-0.2v1.4c-4.5,0.2-5.3,0.9-5.3,6.1v16.6h18.7v-16.6c0-5.1-0.8-5.8-5.3-6.1v-1.4c2.6,0.1,7,0.2,11.1,0.2
				c4.3,0,8.4-0.1,10.7-0.2V203.7z"/>
			<path class="st3" d="M975.9,233.9c0,14-7.1,19.2-17.3,19.2c-10.1,0-17.2-5.2-17.2-19.2c0-13.9,7.1-19.2,17.2-19.2
				C968.8,214.7,975.9,220,975.9,233.9z M952,233.9c0,12.6,2.8,17.8,6.6,17.8c3.9,0,6.6-5.2,6.6-17.8c0-12.6-2.8-17.8-6.6-17.8
				C954.8,216.1,952,221.4,952,233.9z"/>
			<path class="st3" d="M1015.3,244.5c0,4.2,1.1,6.2,4.5,6.2v1.5c-1.5-0.1-3-0.2-4.4-0.2c-3.9,0-7.4,0.3-10.3,1v-6.4
				c-2.3,4.7-6.5,6.6-11.3,6.6c-3.9,0-6.2-1.1-7.7-2.8c-1.5-1.8-2.1-4.5-2.1-9.1v-17.8c0-4.2-1.1-6.2-4.5-6.2v-1.5
				c1.5,0.1,3,0.2,4.4,0.2c3.9,0,7.3-0.3,10.3-1v29.2c0,3.5,0.7,5.9,4.2,5.9c3.7,0,6.8-3.5,6.8-8.1v-18.5c0-4.2-1.1-6.2-4.5-6.2
				v-1.5c1.5,0.1,3,0.2,4.4,0.2c3.9,0,7.4-0.3,10.3-1V244.5z"/>
			<path class="st3" d="M1045.2,216.9c0.5,0.3,0.9,0.5,1.3,0.5c0.8,0,1.4-0.8,1.6-2.6h1.5c-0.2,2.7-0.3,6.1-0.3,12.4h-1.5
				c-0.7-5.2-3-10.9-9-10.9c-2.7,0-4.8,1.7-4.8,4.5c0,4.2,4.3,6.6,8.7,9.8c4.7,3.5,8.4,6.5,8.4,12.1c0,6.4-6.1,10.5-13.3,10.5
				c-2.8,0-5-0.6-6.6-1.5c-1.3-0.7-2.3-1.2-3.3-1.5c-0.1,0-0.2-0.1-0.3-0.1c-0.8,0-1.4,1-1.7,2.5h-1.5c0.2-3,0.3-6.9,0.3-14.1h1.5
				c0.9,7.6,3.6,13,9.5,13c2.4,0,5-1.4,5-5c0-4.1-3.1-6.4-7.1-9.6c-4.6-3.6-8.8-6.8-8.8-12.5c0-6.3,5.7-9.7,12.1-9.7
				C1040.7,214.7,1043.8,216,1045.2,216.9z"/>
			<path class="st3" d="M1085.3,241.7l1.3,0.5c-1.7,5.3-6.3,11-14.1,11c-9.5,0-16.2-6-16.2-18.8c0-13.1,7.2-19.6,17.2-19.6
				c8.2,0,13.2,4.6,13.2,15.6H1067c-0.1,1-0.1,2.2-0.1,3.3c0,9.8,4.7,13.6,9.2,13.6C1078.9,247.3,1082.5,246.4,1085.3,241.7z
				 M1066.8,229h11c0.1-6.9-1.3-12.8-4.8-12.8C1069.9,216.2,1067.4,219.9,1066.8,229z"/>
		</g>
	</g>
</g>
</svg>
