<?xml version="1.0" encoding="utf-8"?>
<!-- Generator: Adobe Illustrator 21.1.0, SVG Export Plug-In . SVG Version: 6.00 Build 0)  -->
<svg version="1.1" xmlns="http://www.w3.org/2000/svg" xmlns:xlink="http://www.w3.org/1999/xlink" x="0px" y="0px" width="792px"
	 height="612px" viewBox="0 0 792 612" style="enable-background:new 0 0 792 612;" xml:space="preserve">
<style type="text/css">
	.st0{fill:url(#SVGID_1_);}
	.st1{fill:#FFFFFF;}
	.st2{fill:none;stroke:#000000;stroke-width:1.5;stroke-linejoin:round;stroke-miterlimit:10;}
	.st3{fill:none;stroke:#000000;stroke-width:1.5;stroke-miterlimit:10;}
	.st4{fill:none;}
	.st5{stroke:#231F20;stroke-width:0.5;stroke-miterlimit:10;}
	.st6{stroke:#000000;stroke-width:2;stroke-miterlimit:10;}
	.st7{stroke:#000000;stroke-width:0.8621;stroke-miterlimit:10;}
	.st8{fill:none;stroke:#000000;stroke-width:0.8621;stroke-miterlimit:10;}
	.st9{stroke:#000000;stroke-linecap:round;stroke-linejoin:round;stroke-miterlimit:10;}
	.st10{fill:none;stroke:#000000;stroke-linecap:round;stroke-linejoin:round;stroke-miterlimit:10;}
	.st11{stroke:#000000;stroke-miterlimit:10;}
	.st12{stroke:#000000;stroke-width:0.25;stroke-miterlimit:10;}
	.st13{fill:none;stroke:#060000;stroke-width:6.889;stroke-miterlimit:10;}
	.st14{fill:none;stroke:#FFFFFF;stroke-width:6.889;stroke-miterlimit:10;}
	.st15{fill:none;stroke:#060000;stroke-width:3.6741;stroke-miterlimit:10;}
	.st16{fill:#E6E7E8;}
	.st17{fill:none;stroke:#060000;stroke-width:3;stroke-linecap:round;stroke-linejoin:round;stroke-miterlimit:10;}
	.st18{fill:#060000;}
	.st19{fill:#231F20;}
	.st20{fill:none;stroke:#FFFFFF;stroke-width:0.2579;stroke-miterlimit:10;}
	.st21{fill:#FFFFFF;stroke:#FFFFFF;stroke-width:0.25;stroke-miterlimit:10;}
	.st22{fill:none;stroke:#000000;stroke-width:0.2579;stroke-miterlimit:10;}
	.st23{fill:none;stroke:#EF4136;stroke-miterlimit:10;}
	.st24{fill:none;stroke:#000000;stroke-miterlimit:10;}
	.st25{fill:none;stroke:#000000;stroke-linecap:round;stroke-miterlimit:10;}
	.st26{stroke:#000000;stroke-linecap:round;stroke-miterlimit:10;}
	.st27{fill:none;stroke:#FFFFFF;stroke-width:1.2331;stroke-miterlimit:10;}
	.st28{fill:#FFFFFF;stroke:#FFFFFF;stroke-width:1.2331;stroke-miterlimit:10;}
	.st29{fill:#FFFFFF;stroke:#FFFFFF;stroke-width:0.5446;stroke-miterlimit:10;}
	.st30{fill:#FFFFFF;stroke:#FFFFFF;stroke-width:2.1784;stroke-miterlimit:10;}
	.st31{stroke:#000000;stroke-width:1.5;stroke-miterlimit:10;}
	.st32{stroke:#000000;stroke-width:0.5446;stroke-miterlimit:10;}
	.st33{stroke:#000000;stroke-width:2.1784;stroke-miterlimit:10;}
	.st34{fill:none;stroke:#FFFFFF;stroke-width:6;stroke-miterlimit:10;}
	.st35{fill:none;stroke:#FFFFFF;stroke-width:5.2722;stroke-miterlimit:10;}
	.st36{fill:none;stroke:#FFFFFF;stroke-width:5;stroke-miterlimit:10;}
	.st37{fill:#39B54A;}
	.st38{fill:#EC008C;}
	.st39{fill:url(#SVGID_2_);}
	.st40{fill:url(#SVGID_3_);}
	.st41{fill:url(#SVGID_4_);}
	.st42{fill:url(#SVGID_5_);}
	.st43{fill:url(#SVGID_6_);}
	.st44{opacity:0.4;fill:#FF0000;}
	.st45{fill:#B9B9B9;}
	.st46{fill:url(#SVGID_7_);}
	.st47{fill:url(#SVGID_8_);}
	.st48{fill:url(#SVGID_9_);}
	.st49{fill:url(#SVGID_10_);}
	.st50{fill:#F4C04D;}
	.st51{fill:#F5BF4D;}
	.st52{fill:url(#SVGID_11_);}
	.st53{opacity:0.4;}
	.st54{fill:#FF0000;}
	.st55{fill:none;stroke:#000000;stroke-width:5.0122;stroke-miterlimit:10;}
	.st56{fill:none;stroke:#000000;stroke-width:4.7534;stroke-miterlimit:10;}
	.st57{fill:none;stroke:#060000;stroke-miterlimit:10;}
	.st58{fill:none;stroke:#000000;stroke-width:10;stroke-miterlimit:10;}
	.st59{fill:none;stroke:#FFFFFF;stroke-width:2;stroke-miterlimit:10;}
	.st60{fill:none;stroke:#000000;stroke-width:7.6029;stroke-miterlimit:10;}
	.st61{fill:#FFFFFF;stroke:#FFFFFF;stroke-width:10;stroke-miterlimit:10;}
	.st62{fill:#8DC63F;}
	.st63{fill:none;stroke:#FFFFFF;stroke-width:3;stroke-miterlimit:10;}
	.st64{fill:url(#SVGID_12_);}
	.st65{fill:none;stroke:#A7A9AC;stroke-width:1.0211;stroke-miterlimit:10;}
	.st66{fill:none;stroke:#A7A9AC;stroke-miterlimit:10;}
	.st67{fill:none;stroke:#A7A9AC;stroke-width:1.1281;stroke-miterlimit:10;}
	.st68{fill:url(#SVGID_13_);}
	.st69{fill:#FAF094;}
	.st70{fill:#99540A;}
	.st71{fill:#00AEEF;}
	.st72{fill:none;stroke:#00AEEF;stroke-width:1.2262;stroke-miterlimit:10;}
	.st73{fill:none;stroke:#00AEEF;stroke-width:1.494;stroke-miterlimit:10;}
	.st74{fill:none;stroke:#00AEEF;stroke-width:1.8325;stroke-miterlimit:10;}
	.st75{fill:url(#SVGID_14_);}
	.st76{fill:url(#SVGID_15_);}
	.st77{fill:none;stroke:#A7A9AC;stroke-linecap:round;stroke-linejoin:round;stroke-miterlimit:10;}
	.st78{fill:none;stroke:#000000;stroke-width:1.5;stroke-miterlimit:10;stroke-dasharray:19.8329,19.8329;}
	.st79{fill:none;stroke:#000000;stroke-width:1.5;stroke-miterlimit:10;stroke-dasharray:20.6332,20.6332;}
	.st80{fill:url(#SVGID_16_);}
	.st81{fill:url(#SVGID_17_);}
	.st82{fill:url(#SVGID_18_);}
	.st83{fill:url(#SVGID_19_);}
	.st84{fill:#FF0092;}
	.st85{fill:none;stroke:#000000;stroke-width:0.8645;stroke-miterlimit:10;}
	.st86{clip-path:url(#SVGID_21_);}
	.st87{clip-path:url(#SVGID_23_);}
	.st88{clip-path:url(#SVGID_25_);}
	.st89{clip-path:url(#SVGID_27_);}
	.st90{opacity:0.5;}
	.st91{fill:none;stroke:#000000;stroke-width:2.6058;stroke-linejoin:round;stroke-miterlimit:10;}
	.st92{opacity:0.5;fill:none;stroke:#000000;stroke-width:2.6058;stroke-miterlimit:10;}
	.st93{clip-path:url(#SVGID_29_);}
	.st94{fill:none;stroke:#000000;stroke-width:2.6058;stroke-miterlimit:10;}
	.st95{clip-path:url(#SVGID_31_);}
	.st96{clip-path:url(#SVGID_33_);}
	.st97{clip-path:url(#SVGID_35_);}
	.st98{fill:url(#SVGID_36_);}
	.st99{fill:url(#SVGID_37_);}
	.st100{fill:url(#SVGID_38_);}
	.st101{fill:url(#SVGID_39_);}
	.st102{fill:url(#SVGID_40_);}
	.st103{fill:url(#SVGID_41_);}
	.st104{fill:url(#SVGID_42_);}
	.st105{fill:url(#SVGID_43_);}
</style>
<g id="bg">
</g>
<g id="refine">
	<rect x="-1.8" y="-1.9" width="795.7" height="615.8"/>
	<linearGradient id="SVGID_1_" gradientUnits="userSpaceOnUse" x1="192.1129" y1="-195.8323" x2="599.887" y2="211.9418">
		<stop  offset="0" style="stop-color:#FAF094"/>
		<stop  offset="0.4" style="stop-color:#F5BF4D"/>
		<stop  offset="1" style="stop-color:#99540A"/>
	</linearGradient>
	<rect x="-1.8" y="-1.9" class="st0" width="795.7" height="19.9"/>
	<linearGradient id="SVGID_2_" gradientUnits="userSpaceOnUse" x1="288.5262" y1="247.3763" x2="508.7516" y2="467.6017">
		<stop  offset="0" style="stop-color:#FAF094"/>
		<stop  offset="0.4" style="stop-color:#F5BF4D"/>
		<stop  offset="1" style="stop-color:#99540A"/>
	</linearGradient>
	<path class="st39" d="M327,241.6l23.3,3.4v4.8l-23.4-7.9C326.7,241.8,326.8,241.6,327,241.6z M350.3,239.1V234l-23.3-8.9
		c-0.2-0.1-0.3,0.2-0.1,0.3L350.3,239.1z M350.3,266.7l-23.4,7.9c-0.2,0.1-0.1,0.3,0.1,0.3l23.3-3.4V266.7z M327,291.4l23.3-8.9
		v-5.1l-23.4,13.7C326.7,291.2,326.8,291.5,327,291.4z M292.4,258.4l57.8,2.5v-5.2l-57.8,2.5C292.2,258.1,292.2,258.4,292.4,258.4z
		 M465,225.1l-23.3,8.9v5.1l23.4-13.7C465.3,225.3,465.2,225.1,465,225.1z M465,241.6l-23.3,3.4v4.8l23.4-7.9
		C465.3,241.8,465.2,241.6,465,241.6z M499.6,258.1l-57.8-2.5v5.2l57.8-2.5C499.8,258.4,499.8,258.1,499.6,258.1z M465.1,274.6
		l-23.4-7.9v4.8l23.3,3.4C465.2,274.9,465.3,274.7,465.1,274.6z M465.1,291.1l-23.4-13.7v5.1l23.3,8.9
		C465.2,291.5,465.3,291.2,465.1,291.1z M379.4,272H379h-0.4c0,1.3-0.8,2.8-1.9,3.9c-1.1,1.1-2.6,1.9-3.9,1.9v0.8
		c1.3,0,2.8,0.8,3.9,1.9c1.1,1.1,1.9,2.6,1.9,3.9h0.8c0-1.3,0.8-2.8,1.9-3.9c1.1-1.1,2.6-1.9,3.9-1.9v-0.8c-1.3,0-2.8-0.8-3.9-1.9
		C380.2,274.8,379.4,273.3,379.4,272z M413.4,232H413h-0.4c0,1.3-0.8,2.8-1.9,3.9c-1.1,1.1-2.6,1.9-3.9,1.9v0.8
		c1.3,0,2.8,0.8,3.9,1.9c1.1,1.1,1.9,2.6,1.9,3.9h0.8c0-1.3,0.8-2.8,1.9-3.9c1.1-1.1,2.6-1.9,3.9-1.9v-0.8c-1.3,0-2.8-0.8-3.9-1.9
		C414.2,234.8,413.4,233.3,413.4,232z M394.2,267.8h0.8c0-1.1,0.4-2,0.9-2.8c0.8-1.2,2.1-2.1,3.2-2.8c0.5-0.3,1-0.5,1.4-0.7
		c0.2-0.1,0.3-0.1,0.4-0.2l0.1,0l0,0l0.3-0.1V261c0-1.6,0-4.4,0-6.9c0-1.2,0-2.4,0-3.2s0-1.4,0-1.4v-0.4h-2.6h-4.5h-7.1v0.4v0.4l0,0
		c0.2,0,2,0.1,3.7,0.8c0.9,0.4,1.7,1,2.3,1.8c0.6,0.8,1,1.9,1,3.3v0.9V267.8z M403.7,282.9c-0.6-0.3-1.2-0.7-1.6-1.3
		c-0.4-0.6-0.7-1.4-0.7-2.5v-0.8v-12.8h-0.8c0,1.1-0.4,2-0.9,2.8c-0.8,1.2-2.1,2.1-3.2,2.8c-0.5,0.3-1,0.5-1.4,0.7
		c-0.2,0.1-0.3,0.1-0.4,0.2l-0.1,0l0,0l-0.3,0.1v0.3c0,1.6,0,4.7,0,7.2c0,1-0.2,1.8-0.5,2.3c-0.4,0.8-1.1,1.2-1.7,1.4
		c-0.3,0.1-0.5,0.2-0.7,0.2c-0.1,0-0.2,0-0.2,0l-0.1,0h0l0,0v0.4v0.4h3.2h3.7h0.8h2.6h5v-0.4v-0.4l0,0
		C406.2,283.5,404.9,283.5,403.7,282.9z M382.3,259.2c-0.8-2.9-1.1-6.2-1.1-9.2c0-3.4,0.4-7.4,1.6-10.7c0.6-1.7,1.4-3.1,2.4-4.2
		c1-1.1,2.2-1.8,3.8-2l0.3,0v-0.4v-0.4l-0.4,0c-5.2,0.2-9.2,2-11.9,5.2c-2.7,3.1-4.1,7.5-4.1,12.7c0,5.7,1.6,10.3,4.7,13.5
		c3.1,3.2,7.6,4.9,13.4,4.9v-0.8c-1.9,0-3.5-0.6-4.7-1.6C384.4,264.6,383.1,262.1,382.3,259.2z M412.8,250.7c-2.3-1-5.1-1.5-8.3-1.6
		l-0.4,0v0.4v0v0.4l0.4,0c1.3,0.1,2.3,0.4,3.1,1c1.3,0.9,2.1,2.3,2.7,4.1c0.6,1.8,0.8,3.9,0.8,6.1c0,2.7-0.4,5.6-1.4,7.8
		c-0.5,1.1-1.2,2-2,2.7c-0.8,0.7-1.9,1.1-3.1,1.1l-0.4,0v0.4v0.4l0.4,0c4.3-0.1,7.9-1.2,10.5-3.4c2.6-2.1,4-5.3,4-9.1
		c0-2.1-0.4-3.9-1.1-5.4C416.9,253.4,415.1,251.7,412.8,250.7z M394.8,234.2c0.9,0.9,1.5,2.1,1.9,3.4c0.3,1.3,0.4,2.7,0.4,3.8
		c0,0.6,0,1.2-0.1,1.6c0,0.2,0,0.3,0,0.5c0,0.1,0,0.1,0,0.1l0,0l0.8,0.1l0-0.1c0.1-0.3,0.4-1.7,1.1-3.4c0.7-1.7,1.7-3.7,3.1-5.1
		l0.3-0.3l-0.4-0.3c-0.1,0-3.1-2.3-9.5-2.5l-0.4,0v0.5v0.3l0.3,0.1C393.4,233.2,394.2,233.7,394.8,234.2z M363.4,300.5H358v-5.3
		v-73.8V216h5.3h65.2h5.3v5.3v73.8v5.3h-5.3H363.4z M363.4,295.2h65.2v-73.8h-65.2V295.2z M327.9,389.5l3.8,6.3h-3l-3.5-6.1h-1.9
		v6.1h-2.5v-15.2h5.3c1.2,0,2.2,0.2,3,0.6c0.8,0.4,1.4,1,1.8,1.6c0.4,0.7,0.6,1.5,0.6,2.3c0,1-0.3,1.9-0.9,2.7
		C330,388.7,329.1,389.2,327.9,389.5z M326,387.8c0.9,0,1.6-0.2,2.1-0.7c0.5-0.5,0.7-1.1,0.7-1.9c0-0.8-0.2-1.4-0.7-1.9
		c-0.5-0.4-1.2-0.7-2.1-0.7h-2.8v5.1H326z M336.8,395.8h8.4v-2h-5.9v-4.7h5.3v-2h-5.3v-4.5h5.9v-2h-8.4V395.8z M357.9,380.6
		l5.5,15.3h-2.6l-1.1-3.1h-6.4l-1.1,3.1h-2.6l5.5-15.3H357.9z M359,390.7l-2.5-7.1l-2.5,7.1H359z M370.4,380.6h-2.5v15.2h7.6v-2
		h-5.2V380.6z M387.8,395.8h8.4v-2h-5.9v-4.7h5.3v-2h-5.3v-4.5h5.9v-2h-8.4V395.8z M409.4,387.9c-0.6-0.3-1.5-0.6-2.5-0.8
		c-0.8-0.2-1.4-0.4-1.8-0.6c-0.4-0.2-0.8-0.4-1.1-0.7c-0.3-0.3-0.4-0.7-0.4-1.2c0-0.7,0.2-1.2,0.7-1.6c0.5-0.4,1-0.5,1.8-0.5
		c0.8,0,1.4,0.2,1.9,0.6c0.5,0.4,0.7,0.9,0.8,1.4h2.8c-0.1-1.3-0.6-2.3-1.6-3c-0.9-0.7-2.2-1.1-3.6-1.1c-1,0-2,0.2-2.7,0.5
		c-0.8,0.4-1.4,0.9-1.8,1.5c-0.4,0.7-0.7,1.4-0.7,2.3c0,1,0.2,1.7,0.7,2.3c0.4,0.6,1,1,1.6,1.3c0.6,0.3,1.4,0.5,2.4,0.8
		c0.8,0.2,1.4,0.4,1.9,0.6c0.4,0.2,0.8,0.4,1.1,0.7c0.3,0.3,0.4,0.7,0.4,1.2c0,0.7-0.2,1.2-0.7,1.6c-0.5,0.4-1.2,0.6-2,0.6
		c-0.8,0-1.5-0.2-1.9-0.6c-0.5-0.4-0.7-1-0.8-1.6h-2.7c0,0.9,0.2,1.6,0.7,2.3c0.5,0.7,1.1,1.2,1.9,1.5c0.8,0.4,1.7,0.5,2.8,0.5
		c1.1,0,2-0.2,2.8-0.6c0.8-0.4,1.4-1,1.8-1.7c0.4-0.7,0.6-1.4,0.6-2.2c0-1-0.2-1.7-0.7-2.3C410.6,388.6,410.1,388.2,409.4,387.9z
		 M416.1,382.7h4.1v13.2h2.5v-13.2h4.1v-2h-10.6V382.7z M438.9,380.6l5.5,15.3h-2.6l-1.1-3.1h-6.4l-1.1,3.1h-2.6l5.5-15.3H438.9z
		 M439.9,390.7l-2.5-7.1l-2.5,7.1H439.9z M448.1,382.7h4.1v13.2h2.5v-13.2h4.1v-2h-10.6V382.7z M463.4,395.8h8.4v-2h-5.9v-4.7h5.3
		v-2h-5.3v-4.5h5.9v-2h-8.4V395.8z M286.6,356l-0.2,0v-1.3l0.1,0c1.7-0.3,3-1.9,4.3-5.2l11.5-29.7l0.1,0c0.5,0,1.5,0.1,2.2,0.1
		c0.6,0,1.6,0,2.2-0.1l0.1,0l12.7,31.7c0.9,2.2,2.3,3.1,3.3,3.1l0.1,0v1.3l-0.2,0c-2.1-0.1-6.6-0.1-9.1-0.1c-3.3,0-6.1,0.1-7.7,0.1
		l-0.2,0v-1.3l0.1,0c2.6-0.1,3.4-0.5,3.4-1.7c0-0.6-0.2-1.3-0.6-2.3l-3-8.2h-10.8l-1.3,3.4c-0.9,2.4-1.4,4.2-1.4,5.5
		c0,2,2.2,3.2,4.3,3.3l0.1,0v1.3l-0.2,0c-2.4-0.1-4.3-0.1-6.3-0.1C289,355.9,287.6,355.9,286.6,356z M295.6,341.2h9.8l-4.8-13
		L295.6,341.2z M386.6,360.7c-1.8,0-5.8-0.2-8.4-0.2c-3.4,0-6.9,0.1-8.8,0.2v-1.1c3.6-0.2,4.3-0.8,4.3-4.9v-28.4
		c0-4.2-0.7-4.8-4.3-4.9v-1.1c1.6,0.1,4.2,0.2,6.9,0.2c0.6,0,1.2,0,1.8,0c2.7-0.1,6.7-0.2,9-0.2c15.1,0,22.3,7.1,22.3,19.8
		C409.4,352.5,401.1,360.7,386.6,360.7z M399.9,340.2c0-12.8-3.6-19-12.8-19c-3.5,0-4.3,1-4.3,4.9v28.6c0,4,0.8,4.9,4.3,4.9
		C396.8,359.7,399.9,352.7,399.9,340.2z M497.5,319.7l12.4,31.9c0.8,2.1,1.8,3.1,3.2,3.1l0.1,0v1.3l-0.2,0c-1.4-0.1-4.6-0.1-6.4-0.1
		c-2.7,0-5.1,0.1-6.5,0.1l-0.2,0v-1.3l0.1,0c2.6-0.1,3.4-0.5,3.4-1.7c0-0.6-0.2-1.3-0.6-2.3l-3.1-8.2h-12l-2,5.3c-0.7,1.7-1,3-1,4.1
		c0,1.5,1.9,2.8,4.3,2.9l0.1,0v1.3l-0.2,0c-1.8-0.1-4-0.1-5.8-0.1c-1.6,0-2.7,0-3.8,0.1l-0.2,0v-1.3l0.1,0c1.6-0.4,2.9-1.8,3.9-4.3
		l11.9-30.7H497.5z M499.5,341.2l-5.4-14.5l-5.6,14.5H499.5z M587.1,360.7c0-3-0.9-7.7-0.9-13.6h-0.9c-0.8,7.6-3.1,12.3-10.2,12.3
		h-4.2c-3.9,0-4.6-0.6-4.6-4.8v-14h3.8c5,0,5,6.7,5.5,10.3h1.3c-0.3-4.4-0.3-9-0.3-10.9c0-0.8,0-1.7,0-2.7c0-1.3,0-6.1,0.2-8.5h-1.3
		c-0.4,2.7-0.3,10.7-5.3,10.7h-3.8v-13.3c0-4.2,0.8-4.8,4.6-4.8h4.8c6.6,0,8.3,4.1,8.3,11.1h1.3c0-6,1.5-9.7,1.5-12.4
		c-3.6,0.2-10.4,0.2-13.9,0.2c-3.4,0-11,0-16.6-0.2v1.1c3.9,0.2,4.6,0.8,4.6,4.9v28.4c0,4.2-0.8,4.8-4.6,4.9v1.1
		c5.6-0.2,11.5-0.2,14.9-0.2C575.1,360.5,583.2,360.5,587.1,360.7z M518.6,361.1l-1.1-0.4c-0.1,0.3-2.6,6.7-14.2,6.7
		c-8.2,0-13.7-2.8-19-5.5c-4-2-7.8-3.9-12.3-4.3v-31.3c0-4.2,1.2-4.8,5.1-4.9v-1.1c-1.8,0.1-5.1,0.2-7.7,0.2c-3,0-5.7-0.1-7.3-0.2
		v1.1c3.9,0.2,4.6,0.8,4.6,4.9v32.1c-3.2,1.4-5.4,4.1-5.5,4.2l0.8,0.8c0,0,3.5-3.2,7.8-3.2c4.6,0,8.8,2.7,13.3,5.5
		c5.2,3.3,11,7,18.4,7C514.9,372.7,518.6,361.2,518.6,361.1z M351.1,320.1v1.1c5.1,0.5,7,4.1,7,10.3v15.8L336,320.1
		c-1.3,0.1-3.1,0.2-5,0.2c-1.8,0-3.8-0.1-5-0.2v1.1c3.6,0.2,4.3,0.8,4.3,4.9v23.7c0,5.5-0.9,9.1-4.5,9.6v1.1
		c1.2-0.1,3.4-0.2,5.2-0.2c2.1,0,6.2,0.1,7.7,0.2v-1.1c-5.1-0.5-7-4.1-7-10.3v-19.9l24.8,31.5c0.6,0,1.1,0,1.6,0c0.5,0,1,0,1.4,0
		v-29.9c0-5.5,0.9-9.1,4.5-9.6v-1.1c-1.2,0.1-3.4,0.2-5.2,0.2C356.7,320.3,352.6,320.3,351.1,320.1z M444.3,359.6v1.1
		c-2-0.1-5.7-0.2-8.8-0.2c-3,0-5.7,0.1-7.3,0.2v-1.1c3.9-0.2,4.6-0.8,4.6-4.9v-28.4c0-4.2-0.8-4.8-4.6-4.9v-1.1
		c1.6,0.1,4.5,0.2,7,0.2c3.6,0,7.3-0.1,8.6-0.1c9.2,0,13.8,5,13.8,11.7c0,6.1-3.7,13.6-15.1,13.6h-4.4v9.1
		C438.1,358.9,439.5,359.4,444.3,359.6z M438.1,344.4h3.9c7.6,0,9.9-5.5,9.9-11.9c0-7.2-2.6-11.2-9.5-11.2c-3.5,0-4.3,1-4.3,4.9
		V344.4z M319.2,362.5l1.1,0.4c0,0.1-0.2,0.5-0.7,1.2c-1.7,2.7-7.2,9.5-18.6,9.5c-13.4,0-20.4-10.7-26.1-19.4
		c-4-6.1-7.4-11.4-12.1-12v12.4c0,4.2,0.7,4.8,4.3,4.9v1.1c-2.1-0.1-5.5-0.2-8.7-0.2c-3.7,0-7.1,0.1-9,0.2v-1.1
		c3.6-0.2,4.3-0.8,4.3-4.9v-28.4c0-4.2-0.7-4.8-4.3-4.9v-1.1c1.9,0.1,5.5,0.2,8.7,0.2c3.7,0,7.6-0.1,9-0.1c10.7,0,15.9,3.7,15.9,10
		c0,7.1-6.1,11.1-13.9,11.8c4.1,1.7,7.4,5.7,11.2,10.2c6.2,7.4,13.2,15.8,25.8,15.8c8.6,0,11.8-3.3,12.8-4.8
		C319.1,362.8,319.2,362.5,319.2,362.5z M273.5,330.9c0-6-1.9-9.5-7.1-9.5c-2.9,0-3.6,1-3.6,4.9v14.7h2.5
		C272.1,340.9,273.5,336.1,273.5,330.9z M224.8,361.6c6.7,0,8.4-3,12.4-3c1.5,0,2.4,0.8,2.4,2.1h1.1v-16.1c0-4.2,0.4-4.7,2.6-4.9
		v-1.1c-1.7,0.1-4.5,0.2-7.7,0.2c-3.1,0-10.4-0.1-12.8-0.2v1.1c8.2,0.3,9.2,3.4,9.2,11v5.4c0,2.6-3.5,4.1-6.5,4.1
		c-7.1,0-10.4-5.9-10.4-19.7c0-10.1,3.2-19.7,12.1-19.7c7.2,0,9.6,5.8,9.6,13.2h1.3c0-5.2,3.2-10.6,3.2-13.9H240
		c0,1.1-0.9,1.6-2.1,1.6c-2.8,0-6.3-2.4-12-2.4c-12.6,0-20.9,8.5-20.9,21.6C204.9,353.4,211.9,361.6,224.8,361.6z M534.5,361.5
		c6.9,0,8.8-3.1,11.6-3.1c1.6,0,2.2,1.2,2.2,2.3h1.3c0-2.8-2.3-6.2-2.3-15.9H546c0,8.7-4.1,15.5-10.9,15.5
		c-7.4,0-12.4-7.1-12.4-19.8c0-12.4,5.1-20.2,12.6-20.2c7.4,0,10.7,6.8,10.7,15h1.3c0-8.1,2.3-12.9,2.3-15.3h-1.3c0,1-0.9,1.9-2,1.9
		c-2.7,0-4.6-2.7-11-2.7c-11.7,0-18.4,8.6-18.4,21.4C517,353.9,523.1,361.5,534.5,361.5z M493.7,388.3l93.4,0.9v-2.1l-93.4,0.9
		V388.3z M204.9,389.3l93.4-0.9V388l-93.4-0.9V389.3z"/>
</g>
</svg>
