<?xml version="1.0" encoding="utf-8"?>
<!-- Generator: Adobe Illustrator 21.1.0, SVG Export Plug-In . SVG Version: 6.00 Build 0)  -->
<svg version="1.1" id="Layer_1" xmlns="http://www.w3.org/2000/svg" xmlns:xlink="http://www.w3.org/1999/xlink" x="0px" y="0px"
	 width="1920px" height="1920.2px" viewBox="0 0 1920 1920.2" style="enable-background:new 0 0 1920 1920.2;" xml:space="preserve"
	>
<style type="text/css">
	.st0{fill:#333333;}
	.st1{fill:none;stroke:#B8B7B8;stroke-width:10;stroke-miterlimit:10;}
	.st2{fill:url(#SVGID_1_);}
	.st3{fill:#FFFFFF;}
	.st4{fill:url(#SVGID_2_);}
	.st5{fill:none;}
	.st6{fill:#C12033;}
	.st7{fill:url(#SVGID_3_);}
	.st8{fill:url(#SVGID_4_);}
	.st9{fill:url(#SVGID_5_);}
	.st10{fill:url(#SVGID_6_);}
	.st11{fill:url(#SVGID_7_);}
	.st12{fill:url(#SVGID_8_);}
	.st13{fill:url(#SVGID_9_);}
	.st14{fill:url(#SVGID_10_);}
	.st15{fill:url(#SVGID_11_);}
	.st16{fill:url(#SVGID_12_);}
	.st17{fill:url(#SVGID_13_);}
	.st18{fill:url(#SVGID_14_);}
	.st19{fill:none;stroke:#B8B7B8;stroke-width:5;stroke-miterlimit:10;}
	.st20{fill:#EE4376;}
	.st21{fill:none;stroke:#B8B7B8;stroke-width:5.0736;stroke-miterlimit:10;}
	.st22{fill:url(#SVGID_15_);}
	.st23{fill:url(#SVGID_16_);}
	.st24{fill:none;stroke:#B8B7B8;stroke-width:2.5368;stroke-miterlimit:10;}
	.st25{fill:url(#SVGID_17_);}
	.st26{fill:url(#SVGID_18_);}
	.st27{fill:url(#SVGID_19_);}
	.st28{fill:url(#SVGID_20_);}
	.st29{fill:url(#SVGID_21_);}
	.st30{fill:url(#SVGID_22_);}
	.st31{fill:url(#SVGID_23_);}
	.st32{fill:url(#SVGID_24_);}
	.st33{fill:url(#SVGID_25_);}
	.st34{fill:url(#SVGID_26_);}
	.st35{fill:url(#SVGID_27_);}
	.st36{fill:url(#SVGID_28_);}
	.st37{fill:#E1DFE0;}
	.st38{fill:none;stroke:#000000;stroke-width:11;stroke-miterlimit:10;}
	.st39{fill:url(#SVGID_29_);}
	.st40{fill:url(#SVGID_30_);}
	.st41{stroke:#000000;stroke-width:5;stroke-miterlimit:10;}
	.st42{fill:url(#SVGID_31_);}
	.st43{fill:url(#SVGID_32_);}
	.st44{fill:url(#SVGID_33_);}
	.st45{fill:url(#SVGID_34_);}
	.st46{fill:url(#SVGID_35_);}
	.st47{fill:url(#SVGID_36_);}
	.st48{fill:url(#SVGID_37_);}
	.st49{fill:url(#SVGID_38_);}
	.st50{fill:url(#SVGID_39_);}
	.st51{fill:url(#SVGID_40_);}
	.st52{fill:url(#SVGID_41_);}
	.st53{fill:url(#SVGID_42_);}
	.st54{fill:url(#SVGID_43_);}
	.st55{fill:#BD5BA2;}
	.st56{fill:none;stroke:#B8B7B8;stroke-width:2;stroke-miterlimit:10;}
	.st57{fill:#B8B7B8;}
	.st58{fill:url(#SVGID_44_);}
	.st59{fill:url(#SVGID_45_);}
	.st60{fill:url(#SVGID_46_);}
	.st61{fill:url(#SVGID_47_);}
	.st62{fill:url(#SVGID_48_);}
	.st63{fill:#231F20;}
</style>
<rect x="-13" y="-12.9" class="st0" width="1946" height="1946"/>
<g>
	<g>
		<line class="st38" x1="640" y1="1086.2" x2="640" y2="1490"/>
		<line class="st38" x1="1280" y1="1086.2" x2="1280" y2="1490"/>
		<line class="st38" x1="640" y1="1342.9" x2="1280" y2="1342.9"/>
	</g>
	<g>
		<rect x="514.1" y="1029.7" class="st5" width="386.9" height="10.2"/>
		<path class="st3" d="M516.3,1031.3v3.1h3.4v1h-3.4v3.2h3.8v1h-5.1v-9.4h5.1v1H516.3z"/>
		<path class="st3" d="M522,1034c0.3-0.6,0.7-1,1.3-1.3s1.1-0.5,1.8-0.5c0.6,0,1.2,0.1,1.7,0.4c0.5,0.3,0.8,0.6,1.1,1.1v-1.3h1.2
			v7.4h-1.2v-1.4c-0.2,0.4-0.6,0.8-1.1,1.1c-0.5,0.3-1,0.4-1.7,0.4c-0.7,0-1.2-0.2-1.8-0.5s-0.9-0.8-1.3-1.4c-0.3-0.6-0.5-1.2-0.5-2
			C521.6,1035.2,521.7,1034.6,522,1034z M527.5,1034.5c-0.2-0.4-0.5-0.7-0.9-1c-0.4-0.2-0.8-0.3-1.3-0.3s-0.9,0.1-1.3,0.3
			c-0.4,0.2-0.7,0.5-0.9,0.9s-0.3,0.9-0.3,1.5c0,0.6,0.1,1.1,0.3,1.5c0.2,0.4,0.5,0.7,0.9,1c0.4,0.2,0.8,0.3,1.3,0.3
			s0.9-0.1,1.3-0.3c0.4-0.2,0.7-0.5,0.9-1c0.2-0.4,0.3-0.9,0.3-1.5C527.8,1035.4,527.7,1035,527.5,1034.5z"/>
		<path class="st3" d="M531.1,1034c0.3-0.6,0.7-1,1.3-1.3c0.5-0.3,1.2-0.5,1.9-0.5c0.9,0,1.7,0.2,2.2,0.7c0.6,0.4,1,1.1,1.2,1.8
			h-1.3c-0.1-0.4-0.4-0.8-0.7-1.1c-0.4-0.3-0.8-0.4-1.4-0.4c-0.7,0-1.3,0.2-1.7,0.7c-0.4,0.5-0.6,1.2-0.6,2c0,0.9,0.2,1.6,0.6,2.1
			c0.4,0.5,1,0.7,1.7,0.7c0.5,0,1-0.1,1.3-0.4s0.6-0.6,0.7-1.1h1.3c-0.2,0.8-0.6,1.4-1.2,1.8c-0.6,0.5-1.3,0.7-2.2,0.7
			c-0.7,0-1.3-0.2-1.9-0.5c-0.5-0.3-1-0.8-1.3-1.3s-0.5-1.2-0.5-2C530.7,1035.2,530.8,1034.6,531.1,1034z"/>
		<path class="st3" d="M544.5,1032.5c0.4,0.2,0.8,0.6,1.1,1.1c0.3,0.5,0.4,1.1,0.4,1.7v4.4h-1.2v-4.2c0-0.7-0.2-1.3-0.6-1.7
			s-0.9-0.6-1.5-0.6c-0.6,0-1.2,0.2-1.5,0.6s-0.6,1-0.6,1.8v4.1h-1.2v-10h1.2v3.6c0.2-0.4,0.6-0.7,1-0.9s0.9-0.3,1.4-0.3
			C543.5,1032.2,544,1032.3,544.5,1032.5z"/>
		<path class="st3" d="M553.4,1039.2c-0.7-0.4-1.3-1-1.7-1.7c-0.4-0.7-0.6-1.6-0.6-2.5s0.2-1.7,0.6-2.5c0.4-0.7,1-1.3,1.7-1.7
			c0.7-0.4,1.5-0.6,2.4-0.6c0.9,0,1.7,0.2,2.4,0.6c0.7,0.4,1.3,1,1.7,1.7c0.4,0.7,0.6,1.6,0.6,2.5c0,0.9-0.2,1.8-0.6,2.5
			s-1,1.3-1.7,1.7c-0.7,0.4-1.5,0.6-2.4,0.6C554.9,1039.8,554.1,1039.6,553.4,1039.2z M557.6,1038.3c0.5-0.3,0.9-0.7,1.2-1.3
			c0.3-0.6,0.5-1.2,0.5-2c0-0.8-0.2-1.4-0.5-2c-0.3-0.6-0.7-1-1.2-1.3c-0.5-0.3-1.1-0.5-1.8-0.5c-0.7,0-1.3,0.2-1.8,0.5
			c-0.5,0.3-0.9,0.7-1.2,1.3c-0.3,0.6-0.5,1.2-0.5,2c0,0.7,0.2,1.4,0.5,2c0.3,0.6,0.7,1,1.2,1.3c0.5,0.3,1.1,0.5,1.8,0.5
			C556.4,1038.7,557,1038.6,557.6,1038.3z"/>
		<path class="st3" d="M565.1,1033.3h-1.5v6.4h-1.2v-6.4h-1v-1h1v-0.5c0-0.8,0.2-1.4,0.6-1.8s1.1-0.6,2.1-0.6v1
			c-0.5,0-0.9,0.1-1.1,0.3c-0.2,0.2-0.3,0.6-0.3,1v0.5h1.5V1033.3z"/>
		<path class="st3" d="M569.6,1033.3H568v6.4h-1.2v-6.4h-1v-1h1v-0.5c0-0.8,0.2-1.4,0.6-1.8s1.1-0.6,2.1-0.6v1
			c-0.5,0-0.9,0.1-1.1,0.3c-0.2,0.2-0.3,0.6-0.3,1v0.5h1.5V1033.3z"/>
		<path class="st3" d="M571,1030.9c-0.2-0.2-0.2-0.4-0.2-0.6c0-0.2,0.1-0.4,0.2-0.6c0.2-0.2,0.4-0.2,0.6-0.2c0.2,0,0.4,0.1,0.6,0.2
			s0.2,0.4,0.2,0.6c0,0.2-0.1,0.4-0.2,0.6s-0.3,0.2-0.6,0.2C571.4,1031.1,571.2,1031,571,1030.9z M572.2,1032.3v7.4H571v-7.4H572.2z
			"/>
		<path class="st3" d="M574.3,1034c0.3-0.6,0.7-1,1.3-1.3c0.5-0.3,1.2-0.5,1.9-0.5c0.9,0,1.7,0.2,2.2,0.7c0.6,0.4,1,1.1,1.2,1.8
			h-1.3c-0.1-0.4-0.4-0.8-0.7-1.1c-0.4-0.3-0.8-0.4-1.4-0.4c-0.7,0-1.3,0.2-1.7,0.7c-0.4,0.5-0.6,1.2-0.6,2c0,0.9,0.2,1.6,0.6,2.1
			c0.4,0.5,1,0.7,1.7,0.7c0.5,0,1-0.1,1.3-0.4s0.6-0.6,0.7-1.1h1.3c-0.2,0.8-0.6,1.4-1.2,1.8c-0.6,0.5-1.3,0.7-2.2,0.7
			c-0.7,0-1.3-0.2-1.9-0.5c-0.5-0.3-1-0.8-1.3-1.3s-0.5-1.2-0.5-2C573.8,1035.2,574,1034.6,574.3,1034z"/>
		<path class="st3" d="M589.2,1036.5h-5.9c0,0.7,0.3,1.3,0.7,1.7c0.5,0.4,1,0.6,1.7,0.6c0.5,0,1-0.1,1.3-0.4c0.4-0.2,0.6-0.6,0.7-1
			h1.3c-0.2,0.7-0.6,1.3-1.2,1.7s-1.3,0.7-2.2,0.7c-0.7,0-1.3-0.2-1.9-0.5c-0.6-0.3-1-0.8-1.3-1.3s-0.5-1.3-0.5-2
			c0-0.8,0.2-1.4,0.5-2c0.3-0.6,0.7-1,1.3-1.3c0.6-0.3,1.2-0.5,1.9-0.5c0.7,0,1.3,0.2,1.9,0.5c0.5,0.3,1,0.7,1.2,1.3
			c0.3,0.5,0.4,1.1,0.4,1.8C589.2,1036,589.2,1036.2,589.2,1036.5z M587.6,1034.3c-0.2-0.3-0.5-0.6-0.8-0.8
			c-0.4-0.2-0.7-0.3-1.2-0.3c-0.6,0-1.1,0.2-1.6,0.6c-0.4,0.4-0.7,0.9-0.7,1.6h4.7C588,1035,587.8,1034.6,587.6,1034.3z"/>
		<path class="st3" d="M595.7,1030.3v9.4h-1.2v-9.4H595.7z"/>
		<path class="st3" d="M598.8,1039.5c-0.4-0.2-0.8-0.5-1.1-0.8c-0.3-0.3-0.4-0.7-0.4-1.2h1.3c0,0.4,0.2,0.7,0.5,0.9
			c0.3,0.2,0.7,0.4,1.2,0.4c0.5,0,0.8-0.1,1.1-0.3s0.4-0.5,0.4-0.8c0-0.3-0.1-0.6-0.4-0.7c-0.3-0.2-0.7-0.3-1.3-0.5
			c-0.5-0.1-1-0.3-1.3-0.4s-0.6-0.4-0.9-0.7c-0.2-0.3-0.4-0.7-0.4-1.2c0-0.4,0.1-0.7,0.3-1s0.5-0.6,1-0.7c0.4-0.2,0.9-0.3,1.4-0.3
			c0.8,0,1.5,0.2,2,0.6s0.8,1,0.8,1.7h-1.2c0-0.4-0.2-0.7-0.5-0.9c-0.3-0.2-0.7-0.4-1.1-0.4c-0.4,0-0.8,0.1-1.1,0.3
			c-0.3,0.2-0.4,0.4-0.4,0.7c0,0.2,0.1,0.4,0.2,0.6s0.4,0.3,0.6,0.4c0.2,0.1,0.6,0.2,1,0.3c0.5,0.1,1,0.3,1.3,0.4s0.6,0.3,0.9,0.6
			c0.2,0.3,0.4,0.6,0.4,1.1c0,0.4-0.1,0.8-0.3,1.1c-0.2,0.3-0.5,0.6-1,0.8c-0.4,0.2-0.9,0.3-1.4,0.3
			C599.8,1039.8,599.3,1039.7,598.8,1039.5z"/>
		<path class="st3" d="M609.6,1030.3v9.4h-1.2v-9.4H609.6z"/>
		<path class="st3" d="M617.5,1033c0.6,0.5,0.8,1.3,0.8,2.4v4.4h-1.2v-4.2c0-0.7-0.2-1.3-0.6-1.7s-0.9-0.6-1.5-0.6
			c-0.6,0-1.2,0.2-1.5,0.6s-0.6,1-0.6,1.8v4.1h-1.2v-7.4h1.2v1.1c0.2-0.4,0.6-0.7,1-0.9c0.4-0.2,0.9-0.3,1.4-0.3
			C616.2,1032.2,616.9,1032.5,617.5,1033z"/>
		<path class="st3" d="M620.3,1034c0.3-0.6,0.7-1,1.3-1.3s1.1-0.5,1.8-0.5c0.6,0,1.1,0.1,1.6,0.4c0.5,0.3,0.9,0.6,1.1,1v-3.9h1.2v10
			h-1.2v-1.4c-0.2,0.4-0.6,0.8-1.1,1.1c-0.5,0.3-1,0.4-1.7,0.4c-0.7,0-1.3-0.2-1.8-0.5s-1-0.8-1.3-1.4c-0.3-0.6-0.5-1.2-0.5-2
			C619.9,1035.2,620,1034.6,620.3,1034z M625.8,1034.5c-0.2-0.4-0.5-0.7-0.9-1c-0.4-0.2-0.8-0.3-1.3-0.3s-0.9,0.1-1.3,0.3
			c-0.4,0.2-0.7,0.5-0.9,0.9s-0.3,0.9-0.3,1.5c0,0.6,0.1,1.1,0.3,1.5c0.2,0.4,0.5,0.7,0.9,1c0.4,0.2,0.8,0.3,1.3,0.3
			s0.9-0.1,1.3-0.3c0.4-0.2,0.7-0.5,0.9-1c0.2-0.4,0.3-0.9,0.3-1.5C626.1,1035.4,626,1035,625.8,1034.5z"/>
		<path class="st3" d="M636.1,1036.5h-5.9c0,0.7,0.3,1.3,0.7,1.7c0.5,0.4,1,0.6,1.7,0.6c0.5,0,1-0.1,1.3-0.4c0.4-0.2,0.6-0.6,0.7-1
			h1.3c-0.2,0.7-0.6,1.3-1.2,1.7s-1.3,0.7-2.2,0.7c-0.7,0-1.3-0.2-1.9-0.5c-0.6-0.3-1-0.8-1.3-1.3s-0.5-1.3-0.5-2
			c0-0.8,0.2-1.4,0.5-2c0.3-0.6,0.7-1,1.3-1.3c0.6-0.3,1.2-0.5,1.9-0.5c0.7,0,1.3,0.2,1.9,0.5c0.5,0.3,1,0.7,1.2,1.3
			c0.3,0.5,0.4,1.1,0.4,1.8C636.2,1036,636.1,1036.2,636.1,1036.5z M634.6,1034.3c-0.2-0.3-0.5-0.6-0.8-0.8
			c-0.4-0.2-0.7-0.3-1.2-0.3c-0.6,0-1.1,0.2-1.6,0.6c-0.4,0.4-0.7,0.9-0.7,1.6h4.7C634.9,1035,634.8,1034.6,634.6,1034.3z"/>
		<path class="st3" d="M640.1,1032.6c0.5-0.3,1-0.4,1.7-0.4c0.7,0,1.3,0.2,1.8,0.5c0.5,0.3,1,0.8,1.3,1.3c0.3,0.6,0.5,1.2,0.5,2
			c0,0.7-0.2,1.4-0.5,2c-0.3,0.6-0.7,1-1.3,1.4c-0.5,0.3-1.1,0.5-1.8,0.5c-0.6,0-1.2-0.1-1.7-0.4c-0.5-0.3-0.8-0.6-1.1-1.1v4.9h-1.2
			v-10.9h1.2v1.4C639.2,1033.3,639.6,1032.9,640.1,1032.6z M643.7,1034.5c-0.2-0.4-0.5-0.7-0.9-0.9c-0.4-0.2-0.8-0.3-1.3-0.3
			c-0.4,0-0.9,0.1-1.2,0.3c-0.4,0.2-0.7,0.5-0.9,1c-0.2,0.4-0.3,0.9-0.3,1.4c0,0.6,0.1,1,0.3,1.5c0.2,0.4,0.5,0.7,0.9,1
			c0.4,0.2,0.8,0.3,1.2,0.3c0.5,0,0.9-0.1,1.3-0.3c0.4-0.2,0.7-0.5,0.9-1c0.2-0.4,0.3-0.9,0.3-1.5
			C644,1035.4,643.9,1034.9,643.7,1034.5z"/>
		<path class="st3" d="M653.6,1036.5h-5.9c0,0.7,0.3,1.3,0.7,1.7c0.5,0.4,1,0.6,1.7,0.6c0.5,0,1-0.1,1.3-0.4c0.4-0.2,0.6-0.6,0.7-1
			h1.3c-0.2,0.7-0.6,1.3-1.2,1.7s-1.3,0.7-2.2,0.7c-0.7,0-1.3-0.2-1.9-0.5c-0.6-0.3-1-0.8-1.3-1.3s-0.5-1.3-0.5-2
			c0-0.8,0.2-1.4,0.5-2c0.3-0.6,0.7-1,1.3-1.3c0.6-0.3,1.2-0.5,1.9-0.5c0.7,0,1.3,0.2,1.9,0.5c0.5,0.3,1,0.7,1.2,1.3
			c0.3,0.5,0.4,1.1,0.4,1.8C653.6,1036,653.6,1036.2,653.6,1036.5z M652,1034.3c-0.2-0.3-0.5-0.6-0.8-0.8c-0.4-0.2-0.7-0.3-1.2-0.3
			c-0.6,0-1.1,0.2-1.6,0.6c-0.4,0.4-0.7,0.9-0.7,1.6h4.7C652.3,1035,652.2,1034.6,652,1034.3z"/>
		<path class="st3" d="M661,1033c0.6,0.5,0.8,1.3,0.8,2.4v4.4h-1.2v-4.2c0-0.7-0.2-1.3-0.6-1.7s-0.9-0.6-1.5-0.6
			c-0.6,0-1.2,0.2-1.5,0.6s-0.6,1-0.6,1.8v4.1h-1.2v-7.4h1.2v1.1c0.2-0.4,0.6-0.7,1-0.9c0.4-0.2,0.9-0.3,1.4-0.3
			C659.7,1032.2,660.4,1032.5,661,1033z"/>
		<path class="st3" d="M663.8,1034c0.3-0.6,0.7-1,1.3-1.3s1.1-0.5,1.8-0.5c0.6,0,1.1,0.1,1.6,0.4c0.5,0.3,0.9,0.6,1.1,1v-3.9h1.2v10
			h-1.2v-1.4c-0.2,0.4-0.6,0.8-1.1,1.1c-0.5,0.3-1,0.4-1.7,0.4c-0.7,0-1.3-0.2-1.8-0.5s-1-0.8-1.3-1.4c-0.3-0.6-0.5-1.2-0.5-2
			C663.4,1035.2,663.5,1034.6,663.8,1034z M669.3,1034.5c-0.2-0.4-0.5-0.7-0.9-1c-0.4-0.2-0.8-0.3-1.3-0.3s-0.9,0.1-1.3,0.3
			c-0.4,0.2-0.7,0.5-0.9,0.9s-0.3,0.9-0.3,1.5c0,0.6,0.1,1.1,0.3,1.5c0.2,0.4,0.5,0.7,0.9,1c0.4,0.2,0.8,0.3,1.3,0.3
			s0.9-0.1,1.3-0.3c0.4-0.2,0.7-0.5,0.9-1c0.2-0.4,0.3-0.9,0.3-1.5C669.6,1035.4,669.5,1035,669.3,1034.5z"/>
		<path class="st3" d="M679.6,1036.5h-5.9c0,0.7,0.3,1.3,0.7,1.7c0.5,0.4,1,0.6,1.7,0.6c0.5,0,1-0.1,1.3-0.4c0.4-0.2,0.6-0.6,0.7-1
			h1.3c-0.2,0.7-0.6,1.3-1.2,1.7s-1.3,0.7-2.2,0.7c-0.7,0-1.3-0.2-1.9-0.5c-0.6-0.3-1-0.8-1.3-1.3s-0.5-1.3-0.5-2
			c0-0.8,0.2-1.4,0.5-2c0.3-0.6,0.7-1,1.3-1.3c0.6-0.3,1.2-0.5,1.9-0.5c0.7,0,1.3,0.2,1.9,0.5c0.5,0.3,1,0.7,1.2,1.3
			c0.3,0.5,0.4,1.1,0.4,1.8C679.7,1036,679.7,1036.2,679.6,1036.5z M678.1,1034.3c-0.2-0.3-0.5-0.6-0.8-0.8
			c-0.4-0.2-0.7-0.3-1.2-0.3c-0.6,0-1.1,0.2-1.6,0.6c-0.4,0.4-0.7,0.9-0.7,1.6h4.7C678.4,1035,678.3,1034.6,678.1,1034.3z"/>
		<path class="st3" d="M687.1,1033c0.6,0.5,0.8,1.3,0.8,2.4v4.4h-1.2v-4.2c0-0.7-0.2-1.3-0.6-1.7s-0.9-0.6-1.5-0.6
			c-0.6,0-1.2,0.2-1.5,0.6s-0.6,1-0.6,1.8v4.1h-1.2v-7.4h1.2v1.1c0.2-0.4,0.6-0.7,1-0.9c0.4-0.2,0.9-0.3,1.4-0.3
			C685.8,1032.2,686.5,1032.5,687.1,1033z"/>
		<path class="st3" d="M691.4,1033.3v4.4c0,0.4,0.1,0.6,0.2,0.8s0.4,0.2,0.8,0.2h0.9v1h-1.1c-0.7,0-1.2-0.2-1.5-0.5
			c-0.3-0.3-0.5-0.8-0.5-1.5v-4.4h-1v-1h1v-1.9h1.2v1.9h1.9v1H691.4z"/>
		<path class="st3" d="M696.1,1029.7v10h-1.2v-10H696.1z"/>
		<path class="st3" d="M704.5,1032.3l-4.4,10.9h-1.3l1.5-3.6l-3-7.3h1.4l2.3,6l2.3-6H704.5z"/>
		<path class="st3" d="M711.2,1039.2c-0.7-0.4-1.3-1-1.7-1.7c-0.4-0.7-0.6-1.6-0.6-2.5s0.2-1.7,0.6-2.5c0.4-0.7,1-1.3,1.7-1.7
			c0.7-0.4,1.5-0.6,2.4-0.6c0.9,0,1.7,0.2,2.4,0.6c0.7,0.4,1.3,1,1.7,1.7c0.4,0.7,0.6,1.6,0.6,2.5c0,0.9-0.2,1.8-0.6,2.5
			s-1,1.3-1.7,1.7c-0.7,0.4-1.5,0.6-2.4,0.6C712.7,1039.8,711.9,1039.6,711.2,1039.2z M715.4,1038.3c0.5-0.3,0.9-0.7,1.2-1.3
			c0.3-0.6,0.5-1.2,0.5-2c0-0.8-0.2-1.4-0.5-2c-0.3-0.6-0.7-1-1.2-1.3c-0.5-0.3-1.1-0.5-1.8-0.5c-0.7,0-1.3,0.2-1.8,0.5
			c-0.5,0.3-0.9,0.7-1.2,1.3c-0.3,0.6-0.5,1.2-0.5,2c0,0.7,0.2,1.4,0.5,2c0.3,0.6,0.7,1,1.2,1.3c0.5,0.3,1.1,0.5,1.8,0.5
			C714.2,1038.7,714.8,1038.6,715.4,1038.3z"/>
		<path class="st3" d="M729.8,1032.3l-2.3,7.4h-1.3l-1.8-5.9l-1.8,5.9h-1.3l-2.3-7.4h1.3l1.7,6.2l1.8-6.2h1.3l1.8,6.2l1.7-6.2H729.8
			z"/>
		<path class="st3" d="M736.7,1033c0.6,0.5,0.8,1.3,0.8,2.4v4.4h-1.2v-4.2c0-0.7-0.2-1.3-0.6-1.7s-0.9-0.6-1.5-0.6
			c-0.6,0-1.2,0.2-1.5,0.6s-0.6,1-0.6,1.8v4.1H731v-7.4h1.2v1.1c0.2-0.4,0.6-0.7,1-0.9c0.4-0.2,0.9-0.3,1.4-0.3
			C735.5,1032.2,736.2,1032.5,736.7,1033z"/>
		<path class="st3" d="M746.3,1036.5h-5.9c0,0.7,0.3,1.3,0.7,1.7c0.5,0.4,1,0.6,1.7,0.6c0.5,0,1-0.1,1.3-0.4c0.4-0.2,0.6-0.6,0.7-1
			h1.3c-0.2,0.7-0.6,1.3-1.2,1.7s-1.3,0.7-2.2,0.7c-0.7,0-1.3-0.2-1.9-0.5c-0.6-0.3-1-0.8-1.3-1.3s-0.5-1.3-0.5-2
			c0-0.8,0.2-1.4,0.5-2c0.3-0.6,0.7-1,1.3-1.3c0.6-0.3,1.2-0.5,1.9-0.5c0.7,0,1.3,0.2,1.9,0.5c0.5,0.3,1,0.7,1.2,1.3
			c0.3,0.5,0.4,1.1,0.4,1.8C746.3,1036,746.3,1036.2,746.3,1036.5z M744.7,1034.3c-0.2-0.3-0.5-0.6-0.8-0.8
			c-0.4-0.2-0.7-0.3-1.2-0.3c-0.6,0-1.1,0.2-1.6,0.6c-0.4,0.4-0.7,0.9-0.7,1.6h4.7C745.1,1035,745,1034.6,744.7,1034.3z"/>
		<path class="st3" d="M747.9,1034c0.3-0.6,0.7-1,1.3-1.3s1.1-0.5,1.8-0.5c0.6,0,1.1,0.1,1.6,0.4c0.5,0.3,0.9,0.6,1.1,1v-3.9h1.2v10
			h-1.2v-1.4c-0.2,0.4-0.6,0.8-1.1,1.1c-0.5,0.3-1,0.4-1.7,0.4c-0.7,0-1.3-0.2-1.8-0.5s-1-0.8-1.3-1.4c-0.3-0.6-0.5-1.2-0.5-2
			C747.5,1035.2,747.6,1034.6,747.9,1034z M753.4,1034.5c-0.2-0.4-0.5-0.7-0.9-1c-0.4-0.2-0.8-0.3-1.3-0.3s-0.9,0.1-1.3,0.3
			c-0.4,0.2-0.7,0.5-0.9,0.9s-0.3,0.9-0.3,1.5c0,0.6,0.1,1.1,0.3,1.5c0.2,0.4,0.5,0.7,0.9,1c0.4,0.2,0.8,0.3,1.3,0.3
			s0.9-0.1,1.3-0.3c0.4-0.2,0.7-0.5,0.9-1c0.2-0.4,0.3-0.9,0.3-1.5C753.7,1035.4,753.6,1035,753.4,1034.5z"/>
		<path class="st3" d="M760.6,1034c0.3-0.6,0.7-1,1.3-1.3s1.1-0.5,1.8-0.5c0.6,0,1.2,0.1,1.7,0.4c0.5,0.3,0.8,0.6,1.1,1.1v-1.3h1.2
			v7.4h-1.2v-1.4c-0.2,0.4-0.6,0.8-1.1,1.1c-0.5,0.3-1,0.4-1.7,0.4c-0.7,0-1.2-0.2-1.8-0.5s-0.9-0.8-1.3-1.4c-0.3-0.6-0.5-1.2-0.5-2
			C760.2,1035.2,760.3,1034.6,760.6,1034z M766.1,1034.5c-0.2-0.4-0.5-0.7-0.9-1c-0.4-0.2-0.8-0.3-1.3-0.3s-0.9,0.1-1.3,0.3
			c-0.4,0.2-0.7,0.5-0.9,0.9s-0.3,0.9-0.3,1.5c0,0.6,0.1,1.1,0.3,1.5c0.2,0.4,0.5,0.7,0.9,1c0.4,0.2,0.8,0.3,1.3,0.3
			s0.9-0.1,1.3-0.3c0.4-0.2,0.7-0.5,0.9-1c0.2-0.4,0.3-0.9,0.3-1.5C766.4,1035.4,766.3,1035,766.1,1034.5z"/>
		<path class="st3" d="M775.5,1033c0.6,0.5,0.8,1.3,0.8,2.4v4.4h-1.2v-4.2c0-0.7-0.2-1.3-0.6-1.7s-0.9-0.6-1.5-0.6
			c-0.6,0-1.2,0.2-1.5,0.6s-0.6,1-0.6,1.8v4.1h-1.2v-7.4h1.2v1.1c0.2-0.4,0.6-0.7,1-0.9c0.4-0.2,0.9-0.3,1.4-0.3
			C774.2,1032.2,775,1032.5,775.5,1033z"/>
		<path class="st3" d="M778.4,1034c0.3-0.6,0.7-1,1.3-1.3s1.1-0.5,1.8-0.5c0.6,0,1.1,0.1,1.6,0.4c0.5,0.3,0.9,0.6,1.1,1v-3.9h1.2v10
			h-1.2v-1.4c-0.2,0.4-0.6,0.8-1.1,1.1c-0.5,0.3-1,0.4-1.7,0.4c-0.7,0-1.3-0.2-1.8-0.5s-1-0.8-1.3-1.4c-0.3-0.6-0.5-1.2-0.5-2
			C777.9,1035.2,778.1,1034.6,778.4,1034z M783.8,1034.5c-0.2-0.4-0.5-0.7-0.9-1c-0.4-0.2-0.8-0.3-1.3-0.3s-0.9,0.1-1.3,0.3
			c-0.4,0.2-0.7,0.5-0.9,0.9s-0.3,0.9-0.3,1.5c0,0.6,0.1,1.1,0.3,1.5c0.2,0.4,0.5,0.7,0.9,1c0.4,0.2,0.8,0.3,1.3,0.3
			s0.9-0.1,1.3-0.3c0.4-0.2,0.7-0.5,0.9-1c0.2-0.4,0.3-0.9,0.3-1.5C784.2,1035.4,784.1,1035,783.8,1034.5z"/>
		<path class="st3" d="M792.9,1039.2c-0.7-0.4-1.3-1-1.7-1.7c-0.4-0.7-0.6-1.6-0.6-2.5s0.2-1.7,0.6-2.5c0.4-0.7,1-1.3,1.7-1.7
			c0.7-0.4,1.5-0.6,2.4-0.6c0.9,0,1.7,0.2,2.4,0.6c0.7,0.4,1.3,1,1.7,1.7c0.4,0.7,0.6,1.6,0.6,2.5c0,0.9-0.2,1.8-0.6,2.5
			c-0.4,0.7-1,1.3-1.7,1.7c-0.7,0.4-1.5,0.6-2.4,0.6C794.5,1039.8,793.7,1039.6,792.9,1039.2z M797.1,1038.3
			c0.5-0.3,0.9-0.7,1.2-1.3c0.3-0.6,0.5-1.2,0.5-2c0-0.8-0.2-1.4-0.5-2c-0.3-0.6-0.7-1-1.2-1.3c-0.5-0.3-1.1-0.5-1.8-0.5
			c-0.7,0-1.3,0.2-1.8,0.5c-0.5,0.3-0.9,0.7-1.2,1.3c-0.3,0.6-0.5,1.2-0.5,2c0,0.7,0.2,1.4,0.5,2c0.3,0.6,0.7,1,1.2,1.3
			c0.5,0.3,1.1,0.5,1.8,0.5C796,1038.7,796.6,1038.6,797.1,1038.3z"/>
		<path class="st3" d="M804,1032.6c0.5-0.3,1-0.4,1.7-0.4c0.7,0,1.3,0.2,1.8,0.5c0.5,0.3,1,0.8,1.3,1.3c0.3,0.6,0.5,1.2,0.5,2
			c0,0.7-0.2,1.4-0.5,2c-0.3,0.6-0.7,1-1.3,1.4c-0.5,0.3-1.1,0.5-1.8,0.5c-0.6,0-1.2-0.1-1.7-0.4c-0.5-0.3-0.8-0.6-1.1-1.1v4.9h-1.2
			v-10.9h1.2v1.4C803.1,1033.3,803.5,1032.9,804,1032.6z M807.6,1034.5c-0.2-0.4-0.5-0.7-0.9-0.9c-0.4-0.2-0.8-0.3-1.3-0.3
			c-0.4,0-0.9,0.1-1.2,0.3c-0.4,0.2-0.7,0.5-0.9,1c-0.2,0.4-0.3,0.9-0.3,1.4c0,0.6,0.1,1,0.3,1.5c0.2,0.4,0.5,0.7,0.9,1
			c0.4,0.2,0.8,0.3,1.2,0.3c0.5,0,0.9-0.1,1.3-0.3c0.4-0.2,0.7-0.5,0.9-1c0.2-0.4,0.3-0.9,0.3-1.5
			C807.9,1035.4,807.8,1034.9,807.6,1034.5z"/>
		<path class="st3" d="M817.5,1036.5h-5.9c0,0.7,0.3,1.3,0.7,1.7s1,0.6,1.7,0.6c0.5,0,1-0.1,1.3-0.4c0.4-0.2,0.6-0.6,0.7-1h1.3
			c-0.2,0.7-0.6,1.3-1.2,1.7c-0.6,0.4-1.3,0.7-2.2,0.7c-0.7,0-1.3-0.2-1.9-0.5c-0.6-0.3-1-0.8-1.3-1.3s-0.5-1.3-0.5-2
			c0-0.8,0.2-1.4,0.5-2c0.3-0.6,0.7-1,1.3-1.3c0.6-0.3,1.2-0.5,1.9-0.5c0.7,0,1.3,0.2,1.9,0.5s1,0.7,1.2,1.3
			c0.3,0.5,0.4,1.1,0.4,1.8C817.5,1036,817.5,1036.2,817.5,1036.5z M815.9,1034.3c-0.2-0.3-0.5-0.6-0.8-0.8s-0.7-0.3-1.2-0.3
			c-0.6,0-1.1,0.2-1.6,0.6s-0.7,0.9-0.7,1.6h4.7C816.2,1035,816.1,1034.6,815.9,1034.3z"/>
		<path class="st3" d="M821.3,1032.5c0.4-0.2,0.9-0.4,1.5-0.4v1.3h-0.3c-1.4,0-2.1,0.7-2.1,2.2v4h-1.2v-7.4h1.2v1.2
			C820.6,1033.1,820.9,1032.8,821.3,1032.5z"/>
		<path class="st3" d="M824.1,1034c0.3-0.6,0.7-1,1.3-1.3c0.5-0.3,1.1-0.5,1.8-0.5c0.6,0,1.2,0.1,1.7,0.4c0.5,0.3,0.8,0.6,1.1,1.1
			v-1.3h1.2v7.4h-1.2v-1.4c-0.2,0.4-0.6,0.8-1.1,1.1c-0.5,0.3-1,0.4-1.7,0.4c-0.7,0-1.2-0.2-1.8-0.5c-0.5-0.3-0.9-0.8-1.3-1.4
			c-0.3-0.6-0.5-1.2-0.5-2C823.7,1035.2,823.8,1034.6,824.1,1034z M829.6,1034.5c-0.2-0.4-0.5-0.7-0.9-1c-0.4-0.2-0.8-0.3-1.3-0.3
			c-0.5,0-0.9,0.1-1.3,0.3c-0.4,0.2-0.7,0.5-0.9,0.9s-0.3,0.9-0.3,1.5c0,0.6,0.1,1.1,0.3,1.5c0.2,0.4,0.5,0.7,0.9,1
			c0.4,0.2,0.8,0.3,1.3,0.3c0.5,0,0.9-0.1,1.3-0.3c0.4-0.2,0.7-0.5,0.9-1c0.2-0.4,0.3-0.9,0.3-1.5
			C829.9,1035.4,829.8,1035,829.6,1034.5z"/>
		<path class="st3" d="M834.7,1033.3v4.4c0,0.4,0.1,0.6,0.2,0.8s0.4,0.2,0.8,0.2h0.9v1h-1.1c-0.7,0-1.2-0.2-1.5-0.5
			s-0.5-0.8-0.5-1.5v-4.4h-1v-1h1v-1.9h1.2v1.9h1.9v1H834.7z"/>
		<path class="st3" d="M844.8,1036.5h-5.9c0,0.7,0.3,1.3,0.7,1.7s1,0.6,1.7,0.6c0.5,0,1-0.1,1.3-0.4c0.4-0.2,0.6-0.6,0.7-1h1.3
			c-0.2,0.7-0.6,1.3-1.2,1.7c-0.6,0.4-1.3,0.7-2.2,0.7c-0.7,0-1.3-0.2-1.9-0.5c-0.6-0.3-1-0.8-1.3-1.3s-0.5-1.3-0.5-2
			c0-0.8,0.2-1.4,0.5-2c0.3-0.6,0.7-1,1.3-1.3c0.6-0.3,1.2-0.5,1.9-0.5c0.7,0,1.3,0.2,1.9,0.5s1,0.7,1.2,1.3
			c0.3,0.5,0.4,1.1,0.4,1.8C844.9,1036,844.9,1036.2,844.8,1036.5z M843.3,1034.3c-0.2-0.3-0.5-0.6-0.8-0.8s-0.7-0.3-1.2-0.3
			c-0.6,0-1.1,0.2-1.6,0.6s-0.7,0.9-0.7,1.6h4.7C843.6,1035,843.5,1034.6,843.3,1034.3z"/>
		<path class="st3" d="M846.5,1034c0.3-0.6,0.7-1,1.3-1.3c0.5-0.3,1.1-0.5,1.8-0.5c0.6,0,1.1,0.1,1.6,0.4c0.5,0.3,0.9,0.6,1.1,1
			v-3.9h1.2v10h-1.2v-1.4c-0.2,0.4-0.6,0.8-1.1,1.1c-0.5,0.3-1,0.4-1.7,0.4c-0.7,0-1.3-0.2-1.8-0.5c-0.5-0.3-1-0.8-1.3-1.4
			c-0.3-0.6-0.5-1.2-0.5-2C846,1035.2,846.2,1034.6,846.5,1034z M852,1034.5c-0.2-0.4-0.5-0.7-0.9-1c-0.4-0.2-0.8-0.3-1.3-0.3
			c-0.5,0-0.9,0.1-1.3,0.3c-0.4,0.2-0.7,0.5-0.9,0.9s-0.3,0.9-0.3,1.5c0,0.6,0.1,1.1,0.3,1.5c0.2,0.4,0.5,0.7,0.9,1
			c0.4,0.2,0.8,0.3,1.3,0.3c0.5,0,0.9-0.1,1.3-0.3c0.4-0.2,0.7-0.5,0.9-1c0.2-0.4,0.3-0.9,0.3-1.5
			C852.3,1035.4,852.2,1035,852,1034.5z"/>
	</g>
	<g>
		<rect x="467.8" y="430.2" width="492" height="656"/>
		<linearGradient id="SVGID_1_" gradientUnits="userSpaceOnUse" x1="918.9039" y1="471.1002" x2="1493.0785" y2="1045.2748">
			<stop  offset="0" style="stop-color:#FAF092"/>
			<stop  offset="0.4" style="stop-color:#F3BD49"/>
			<stop  offset="1" style="stop-color:#985725"/>
		</linearGradient>
		<rect x="959.8" y="430.2" class="st2" width="492.4" height="656"/>
		<g>
			<rect x="1006.1" y="468.3" class="st5" width="399.8" height="225.8"/>
			<path d="M1108.6,526.1c0,30.6-20,51.1-48.4,51.1c-29,0-48.2-18.2-48.2-49.5c0-30.6,20-51.1,48.4-51.1
				C1089.2,476.5,1108.6,494.8,1108.6,526.1z M1034.6,527.1c0,29.1,11.7,47.6,26.1,47.6c15.3,0,25.2-19.8,25.2-48.1
				c0-29.1-11.7-47.6-26.2-47.6C1044.4,479,1034.6,498.8,1034.6,527.1z"/>
			<path d="M1191.1,536.7c0,26.6-12.5,40.4-31.6,40.4c-5.6,0-10.6-1.5-14-4.4v13.7c0,8.5,4.6,10.7,12.3,10.7v2.9
				c-4.6-0.1-13.7-0.6-23-0.6c-6.7,0-13.8,0.5-17.2,0.6v-2.9c6,0,8.2-2.1,8.2-9.3v-68.3c0-8.2-2.1-12-8.7-12v-2.9
				c2.9,0.3,5.7,0.4,8.5,0.4c7.6,0,14.3-0.5,20-1.9v12.8c3.8-8.7,11.5-13.3,21.2-13.3C1180.6,502.6,1191.1,514,1191.1,536.7z
				 M1170.5,539.4c0-23.2-4.7-30.9-11.8-30.9c-6,0-11.5,4.3-13.2,12.1v49.2c2,2.3,5,3.7,8.7,3.7
				C1166.3,573.4,1170.5,560.4,1170.5,539.4z"/>
			<path d="M1257.8,554.9l2.5,0.9c-3.3,10.3-12.2,21.3-27.4,21.3c-18.4,0-31.5-11.6-31.5-36.6c0-25.4,14-38,33.4-38
				c15.9,0,25.7,8.9,25.7,30.4h-38.2c-0.2,2-0.3,4.3-0.3,6.5c0,19,9.1,26.4,17.8,26.4C1245.3,565.9,1252.2,564,1257.8,554.9z
				 M1221.9,530.4h21.4c0.3-13.3-2.6-24.8-9.3-24.8C1227.9,505.6,1223,512.7,1221.9,530.4z"/>
			<path d="M1333.6,508c3,3.5,4.3,8.5,4.3,17.7v36.8c0,7.6,2.4,9.8,8.7,9.8v2.9c-3.5-0.1-11.3-0.5-18-0.5c-7,0-14.4,0.4-17.7,0.5
				v-2.9c5.4,0,7.3-2.2,7.3-9.8V520c0-6.8-1.6-11.4-8.4-11.4c-7.7,0-13.5,6.8-13.5,15.8v38.1c0,7.6,1.9,9.8,7.3,9.8v2.9
				c-3.2-0.1-10.3-0.5-16.9-0.5c-7,0-15.2,0.4-18.8,0.5v-2.9c6.3,0,8.7-2.2,8.7-9.8v-43.1c0-8.2-2.1-12.1-8.7-12.1v-2.9
				c2.9,0.3,5.7,0.5,8.5,0.5c7.6,0,14.2-0.6,20-1.9v12.3c4.5-9.3,12.7-12.7,22.3-12.7C1326.3,502.6,1330.8,504.8,1333.6,508z"/>
			<path d="M1110.8,599.7c-8.7,0.4-10.3,1.8-10.3,11.7v67.8c0,9.9,1.7,11.3,10.3,11.7v2.7c-4.5-0.3-12.3-0.4-20.8-0.4
				c-7.9,0-16.4,0.1-21.5,0.4v-2.7c8.7-0.4,10.3-1.8,10.3-11.7v-32.8h-36.2v32.8c0,9.9,1.6,11.3,10.3,11.7v2.7
				c-4.9-0.3-13.1-0.4-20.7-0.4c-8.7,0-16.9,0.1-21.6,0.4v-2.7c8.7-0.4,10.2-1.8,10.2-11.7v-67.8c0-9.9-1.6-11.3-10.2-11.7v-2.7
				c4.6,0.3,12.8,0.4,21.6,0.4c7.6,0,15.7-0.1,20.7-0.4v2.7c-8.7,0.4-10.3,1.8-10.3,11.7v32.2h36.2v-32.2c0-9.9-1.6-11.3-10.3-11.7
				v-2.7c5.1,0.3,13.5,0.4,21.5,0.4c8.4,0,16.3-0.1,20.8-0.4V599.7z"/>
			<path d="M1184.9,658.4c0,27.1-13.8,37.2-33.5,37.2c-19.6,0-33.4-10.1-33.4-37.2c0-27,13.8-37.3,33.4-37.3
				C1171.1,621.1,1184.9,631.3,1184.9,658.4z M1138.6,658.4c0,24.5,5.4,34.5,12.8,34.5c7.5,0,12.9-10,12.9-34.5
				c0-24.4-5.4-34.6-12.9-34.6C1144,623.8,1138.6,633.9,1138.6,658.4z"/>
			<path d="M1261.4,678.9c0,8.1,2.1,12,8.7,12v2.9c-2.9-0.3-5.7-0.4-8.5-0.4c-7.6,0-14.3,0.5-20,1.9v-12.3
				c-4.5,9.1-12.6,12.7-22,12.7c-7.5,0-12.1-2.2-14.9-5.4c-3-3.4-4.1-8.7-4.1-17.7v-34.6c0-8.2-2.1-12.1-8.7-12.1v-2.9
				c2.9,0.3,5.7,0.5,8.5,0.5c7.6,0,14.2-0.6,20-1.9v56.7c0,6.8,1.3,11.5,8.1,11.5c7.3,0,13.3-6.8,13.3-15.8v-35.9
				c0-8.2-2.1-12.1-8.7-12.1v-2.9c2.9,0.3,5.7,0.5,8.5,0.5c7.6,0,14.3-0.6,20-1.9V678.9z"/>
			<path d="M1319.4,625.3c0.9,0.6,1.7,0.9,2.5,0.9c1.6,0,2.7-1.6,3.2-5h2.9c-0.5,5.2-0.6,11.9-0.6,24h-2.9
				c-1.4-10.1-5.9-21.2-17.5-21.2c-5.3,0-9.3,3.2-9.3,8.8c0,8.2,8.4,12.7,16.8,19c9.1,6.7,16.3,12.6,16.3,23.4
				c0,12.5-11.8,20.3-25.9,20.3c-5.5,0-9.7-1.2-12.8-2.9c-2.5-1.3-4.4-2.3-6.3-2.9c-0.2-0.1-0.4-0.1-0.6-0.1c-1.5,0-2.7,1.9-3.3,4.9
				h-2.9c0.4-5.9,0.5-13.5,0.5-27.3h2.9c1.7,14.8,6.9,25.2,18.4,25.2c4.7,0,9.6-2.7,9.6-9.7c0-8-5.9-12.5-13.8-18.6
				c-8.9-7-17.1-13.2-17.1-24.2c0-12.1,11.1-18.8,23.5-18.8C1310.7,621.1,1316.7,623.5,1319.4,625.3z"/>
			<path d="M1397.3,673.4l2.5,0.9c-3.3,10.3-12.2,21.3-27.4,21.3c-18.4,0-31.5-11.6-31.5-36.6c0-25.4,14-38,33.4-38
				c15.9,0,25.7,8.9,25.7,30.4h-38.2c-0.2,2-0.3,4.3-0.3,6.5c0,19,9.1,26.4,17.8,26.4C1384.8,684.3,1391.8,682.5,1397.3,673.4z
				 M1361.4,648.8h21.4c0.3-13.3-2.6-24.8-9.3-24.8C1367.4,624,1362.5,631.1,1361.4,648.8z"/>
		</g>
		<g>
			<rect x="514.1" y="1029.7" class="st5" width="386.9" height="10.2"/>
			<path class="st3" d="M516.3,1031.3v3.1h3.4v1h-3.4v3.2h3.8v1h-5.1v-9.4h5.1v1H516.3z"/>
			<path class="st3" d="M522,1034c0.3-0.6,0.7-1,1.3-1.3s1.1-0.5,1.8-0.5c0.6,0,1.2,0.1,1.7,0.4c0.5,0.3,0.8,0.6,1.1,1.1v-1.3h1.2
				v7.4h-1.2v-1.4c-0.2,0.4-0.6,0.8-1.1,1.1c-0.5,0.3-1,0.4-1.7,0.4c-0.7,0-1.2-0.2-1.8-0.5s-0.9-0.8-1.3-1.4
				c-0.3-0.6-0.5-1.2-0.5-2C521.6,1035.2,521.7,1034.6,522,1034z M527.5,1034.5c-0.2-0.4-0.5-0.7-0.9-0.9s-0.8-0.3-1.3-0.3
				c-0.5,0-0.9,0.1-1.3,0.3c-0.4,0.2-0.7,0.5-0.9,0.9c-0.2,0.4-0.3,0.9-0.3,1.5c0,0.6,0.1,1.1,0.3,1.5c0.2,0.4,0.5,0.7,0.9,1
				c0.4,0.2,0.8,0.3,1.3,0.3c0.5,0,0.9-0.1,1.3-0.3c0.4-0.2,0.7-0.5,0.9-1c0.2-0.4,0.3-0.9,0.3-1.5
				C527.8,1035.4,527.7,1035,527.5,1034.5z"/>
			<path class="st3" d="M531.1,1034c0.3-0.6,0.7-1,1.3-1.3c0.5-0.3,1.2-0.5,1.9-0.5c0.9,0,1.7,0.2,2.2,0.7c0.6,0.4,1,1.1,1.2,1.8
				h-1.3c-0.1-0.4-0.4-0.8-0.7-1.1s-0.8-0.4-1.4-0.4c-0.7,0-1.3,0.2-1.7,0.7s-0.6,1.2-0.6,2c0,0.9,0.2,1.6,0.6,2.1s1,0.7,1.7,0.7
				c0.5,0,1-0.1,1.3-0.4c0.4-0.3,0.6-0.6,0.7-1.1h1.3c-0.2,0.8-0.6,1.4-1.2,1.8s-1.3,0.7-2.2,0.7c-0.7,0-1.3-0.2-1.9-0.5
				c-0.5-0.3-1-0.8-1.3-1.3c-0.3-0.6-0.5-1.2-0.5-2C530.7,1035.2,530.8,1034.6,531.1,1034z"/>
			<path class="st3" d="M544.5,1032.5c0.4,0.2,0.8,0.6,1.1,1.1s0.4,1.1,0.4,1.7v4.4h-1.2v-4.2c0-0.7-0.2-1.3-0.6-1.7
				c-0.4-0.4-0.9-0.6-1.5-0.6c-0.6,0-1.2,0.2-1.5,0.6c-0.4,0.4-0.6,1-0.6,1.8v4.1h-1.2v-10h1.2v3.6c0.2-0.4,0.6-0.7,1-0.9
				c0.4-0.2,0.9-0.3,1.4-0.3C543.5,1032.2,544,1032.3,544.5,1032.5z"/>
			<path class="st3" d="M553.4,1039.2c-0.7-0.4-1.3-1-1.7-1.7c-0.4-0.7-0.6-1.6-0.6-2.5s0.2-1.7,0.6-2.5c0.4-0.7,1-1.3,1.7-1.7
				c0.7-0.4,1.5-0.6,2.4-0.6c0.9,0,1.7,0.2,2.4,0.6c0.7,0.4,1.3,1,1.7,1.7s0.6,1.6,0.6,2.5c0,0.9-0.2,1.8-0.6,2.5
				c-0.4,0.7-1,1.3-1.7,1.7c-0.7,0.4-1.5,0.6-2.4,0.6C554.9,1039.8,554.1,1039.6,553.4,1039.2z M557.6,1038.3
				c0.5-0.3,0.9-0.7,1.2-1.3s0.5-1.2,0.5-2c0-0.8-0.2-1.4-0.5-2c-0.3-0.6-0.7-1-1.2-1.3c-0.5-0.3-1.1-0.5-1.8-0.5s-1.3,0.2-1.8,0.5
				c-0.5,0.3-0.9,0.7-1.2,1.3c-0.3,0.6-0.5,1.2-0.5,2c0,0.7,0.2,1.4,0.5,2c0.3,0.6,0.7,1,1.2,1.3c0.5,0.3,1.1,0.5,1.8,0.5
				C556.4,1038.7,557,1038.6,557.6,1038.3z"/>
			<path class="st3" d="M565.1,1033.3h-1.5v6.4h-1.2v-6.4h-1v-1h1v-0.5c0-0.8,0.2-1.4,0.6-1.8c0.4-0.4,1.1-0.6,2.1-0.6v1
				c-0.5,0-0.9,0.1-1.1,0.3c-0.2,0.2-0.3,0.6-0.3,1v0.5h1.5V1033.3z"/>
			<path class="st3" d="M569.6,1033.3H568v6.4h-1.2v-6.4h-1v-1h1v-0.5c0-0.8,0.2-1.4,0.6-1.8c0.4-0.4,1.1-0.6,2.1-0.6v1
				c-0.5,0-0.9,0.1-1.1,0.3c-0.2,0.2-0.3,0.6-0.3,1v0.5h1.5V1033.3z"/>
			<path class="st3" d="M571,1030.9c-0.2-0.2-0.2-0.4-0.2-0.6c0-0.2,0.1-0.4,0.2-0.6s0.4-0.2,0.6-0.2c0.2,0,0.4,0.1,0.6,0.2
				c0.2,0.2,0.2,0.4,0.2,0.6c0,0.2-0.1,0.4-0.2,0.6c-0.2,0.2-0.3,0.2-0.6,0.2C571.4,1031.1,571.2,1031,571,1030.9z M572.2,1032.3
				v7.4H571v-7.4H572.2z"/>
			<path class="st3" d="M574.3,1034c0.3-0.6,0.7-1,1.3-1.3c0.5-0.3,1.2-0.5,1.9-0.5c0.9,0,1.7,0.2,2.2,0.7c0.6,0.4,1,1.1,1.2,1.8
				h-1.3c-0.1-0.4-0.4-0.8-0.7-1.1s-0.8-0.4-1.4-0.4c-0.7,0-1.3,0.2-1.7,0.7s-0.6,1.2-0.6,2c0,0.9,0.2,1.6,0.6,2.1s1,0.7,1.7,0.7
				c0.5,0,1-0.1,1.3-0.4c0.4-0.3,0.6-0.6,0.7-1.1h1.3c-0.2,0.8-0.6,1.4-1.2,1.8s-1.3,0.7-2.2,0.7c-0.7,0-1.3-0.2-1.9-0.5
				c-0.5-0.3-1-0.8-1.3-1.3c-0.3-0.6-0.5-1.2-0.5-2C573.8,1035.2,574,1034.6,574.3,1034z"/>
			<path class="st3" d="M589.2,1036.5h-5.9c0,0.7,0.3,1.3,0.7,1.7c0.5,0.4,1,0.6,1.6,0.6c0.5,0,1-0.1,1.3-0.4c0.4-0.2,0.6-0.6,0.7-1
				h1.3c-0.2,0.7-0.6,1.3-1.2,1.7c-0.6,0.4-1.3,0.7-2.2,0.7c-0.7,0-1.3-0.2-1.9-0.5c-0.6-0.3-1-0.8-1.3-1.3c-0.3-0.6-0.5-1.3-0.5-2
				s0.2-1.4,0.5-2c0.3-0.6,0.7-1,1.3-1.3c0.6-0.3,1.2-0.5,1.9-0.5c0.7,0,1.3,0.2,1.9,0.5c0.5,0.3,1,0.7,1.2,1.3
				c0.3,0.5,0.4,1.1,0.4,1.8C589.2,1036,589.2,1036.2,589.2,1036.5z M587.6,1034.3c-0.2-0.3-0.5-0.6-0.8-0.8
				c-0.4-0.2-0.7-0.3-1.2-0.3c-0.6,0-1.1,0.2-1.6,0.6c-0.4,0.4-0.7,0.9-0.7,1.6h4.7C587.9,1035,587.8,1034.6,587.6,1034.3z"/>
			<path class="st3" d="M595.7,1030.3v9.4h-1.2v-9.4H595.7z"/>
			<path class="st3" d="M598.8,1039.5c-0.4-0.2-0.8-0.5-1.1-0.8c-0.3-0.3-0.4-0.7-0.4-1.2h1.3c0,0.4,0.2,0.7,0.5,0.9
				c0.3,0.2,0.7,0.4,1.2,0.4c0.5,0,0.8-0.1,1.1-0.3c0.3-0.2,0.4-0.5,0.4-0.8c0-0.3-0.1-0.6-0.4-0.7c-0.3-0.2-0.7-0.3-1.3-0.5
				c-0.5-0.1-1-0.3-1.3-0.4c-0.3-0.1-0.6-0.4-0.9-0.7c-0.2-0.3-0.4-0.7-0.4-1.2c0-0.4,0.1-0.7,0.3-1s0.5-0.6,1-0.7s0.9-0.3,1.4-0.3
				c0.8,0,1.5,0.2,2,0.6c0.5,0.4,0.8,1,0.8,1.7h-1.2c0-0.4-0.2-0.7-0.5-0.9c-0.3-0.2-0.7-0.4-1.1-0.4c-0.4,0-0.8,0.1-1.1,0.3
				c-0.3,0.2-0.4,0.4-0.4,0.7c0,0.2,0.1,0.4,0.2,0.6c0.2,0.2,0.4,0.3,0.6,0.4c0.2,0.1,0.6,0.2,1,0.3c0.5,0.1,1,0.3,1.3,0.4
				c0.3,0.1,0.6,0.3,0.9,0.6c0.2,0.3,0.4,0.6,0.4,1.1c0,0.4-0.1,0.8-0.3,1.1s-0.5,0.6-0.9,0.8c-0.4,0.2-0.9,0.3-1.4,0.3
				C599.8,1039.8,599.3,1039.7,598.8,1039.5z"/>
			<path class="st3" d="M609.6,1030.3v9.4h-1.2v-9.4H609.6z"/>
			<path class="st3" d="M617.5,1033c0.6,0.5,0.8,1.3,0.8,2.4v4.4h-1.2v-4.2c0-0.7-0.2-1.3-0.6-1.7c-0.4-0.4-0.9-0.6-1.5-0.6
				c-0.6,0-1.2,0.2-1.5,0.6c-0.4,0.4-0.6,1-0.6,1.8v4.1h-1.2v-7.4h1.2v1.1c0.2-0.4,0.6-0.7,1-0.9c0.4-0.2,0.9-0.3,1.4-0.3
				C616.2,1032.2,616.9,1032.5,617.5,1033z"/>
			<path class="st3" d="M620.3,1034c0.3-0.6,0.7-1,1.3-1.3s1.1-0.5,1.8-0.5c0.6,0,1.1,0.1,1.6,0.4c0.5,0.3,0.9,0.6,1.1,1v-3.9h1.2
				v10h-1.2v-1.4c-0.2,0.4-0.6,0.8-1.1,1.1c-0.5,0.3-1,0.4-1.7,0.4c-0.7,0-1.3-0.2-1.8-0.5s-1-0.8-1.3-1.4c-0.3-0.6-0.5-1.2-0.5-2
				C619.9,1035.2,620,1034.6,620.3,1034z M625.8,1034.5c-0.2-0.4-0.5-0.7-0.9-0.9s-0.8-0.3-1.3-0.3c-0.5,0-0.9,0.1-1.3,0.3
				c-0.4,0.2-0.7,0.5-0.9,0.9c-0.2,0.4-0.3,0.9-0.3,1.5c0,0.6,0.1,1.1,0.3,1.5c0.2,0.4,0.5,0.7,0.9,1c0.4,0.2,0.8,0.3,1.3,0.3
				c0.5,0,0.9-0.1,1.3-0.3c0.4-0.2,0.7-0.5,0.9-1c0.2-0.4,0.3-0.9,0.3-1.5C626.1,1035.4,626,1035,625.8,1034.5z"/>
			<path class="st3" d="M636.1,1036.5h-5.9c0,0.7,0.3,1.3,0.7,1.7c0.5,0.4,1,0.6,1.6,0.6c0.5,0,1-0.1,1.3-0.4c0.4-0.2,0.6-0.6,0.7-1
				h1.3c-0.2,0.7-0.6,1.3-1.2,1.7c-0.6,0.4-1.3,0.7-2.2,0.7c-0.7,0-1.3-0.2-1.9-0.5c-0.6-0.3-1-0.8-1.3-1.3c-0.3-0.6-0.5-1.3-0.5-2
				s0.2-1.4,0.5-2c0.3-0.6,0.7-1,1.3-1.3c0.6-0.3,1.2-0.5,1.9-0.5c0.7,0,1.3,0.2,1.9,0.5c0.5,0.3,1,0.7,1.2,1.3
				c0.3,0.5,0.4,1.1,0.4,1.8C636.2,1036,636.1,1036.2,636.1,1036.5z M634.6,1034.3c-0.2-0.3-0.5-0.6-0.8-0.8
				c-0.4-0.2-0.7-0.3-1.2-0.3c-0.6,0-1.1,0.2-1.6,0.6c-0.4,0.4-0.7,0.9-0.7,1.6h4.7C634.9,1035,634.8,1034.6,634.6,1034.3z"/>
			<path class="st3" d="M640.1,1032.6c0.5-0.3,1-0.4,1.7-0.4c0.7,0,1.3,0.2,1.8,0.5c0.5,0.3,1,0.8,1.3,1.3c0.3,0.6,0.5,1.2,0.5,2
				c0,0.7-0.2,1.4-0.5,2c-0.3,0.6-0.7,1-1.3,1.4c-0.5,0.3-1.1,0.5-1.8,0.5c-0.6,0-1.2-0.1-1.7-0.4c-0.5-0.3-0.8-0.6-1.1-1.1v4.9
				h-1.2v-10.9h1.2v1.4C639.2,1033.3,639.6,1032.9,640.1,1032.6z M643.7,1034.5c-0.2-0.4-0.5-0.7-0.9-0.9c-0.4-0.2-0.8-0.3-1.3-0.3
				c-0.4,0-0.9,0.1-1.2,0.3c-0.4,0.2-0.7,0.5-0.9,1c-0.2,0.4-0.3,0.9-0.3,1.4c0,0.6,0.1,1,0.3,1.5c0.2,0.4,0.5,0.7,0.9,1
				c0.4,0.2,0.8,0.3,1.2,0.3c0.5,0,0.9-0.1,1.3-0.3c0.4-0.2,0.7-0.5,0.9-1c0.2-0.4,0.3-0.9,0.3-1.5
				C644,1035.4,643.9,1034.9,643.7,1034.5z"/>
			<path class="st3" d="M653.6,1036.5h-5.9c0,0.7,0.3,1.3,0.7,1.7c0.5,0.4,1,0.6,1.6,0.6c0.5,0,1-0.1,1.3-0.4c0.4-0.2,0.6-0.6,0.7-1
				h1.3c-0.2,0.7-0.6,1.3-1.2,1.7c-0.6,0.4-1.3,0.7-2.2,0.7c-0.7,0-1.3-0.2-1.9-0.5c-0.6-0.3-1-0.8-1.3-1.3c-0.3-0.6-0.5-1.3-0.5-2
				s0.2-1.4,0.5-2c0.3-0.6,0.7-1,1.3-1.3c0.6-0.3,1.2-0.5,1.9-0.5c0.7,0,1.3,0.2,1.9,0.5c0.5,0.3,1,0.7,1.2,1.3
				c0.3,0.5,0.4,1.1,0.4,1.8C653.6,1036,653.6,1036.2,653.6,1036.5z M652,1034.3c-0.2-0.3-0.5-0.6-0.8-0.8c-0.4-0.2-0.7-0.3-1.2-0.3
				c-0.6,0-1.1,0.2-1.6,0.6c-0.4,0.4-0.7,0.9-0.7,1.6h4.7C652.3,1035,652.2,1034.6,652,1034.3z"/>
			<path class="st3" d="M661,1033c0.6,0.5,0.8,1.3,0.8,2.4v4.4h-1.2v-4.2c0-0.7-0.2-1.3-0.6-1.7c-0.4-0.4-0.9-0.6-1.5-0.6
				c-0.6,0-1.2,0.2-1.5,0.6c-0.4,0.4-0.6,1-0.6,1.8v4.1h-1.2v-7.4h1.2v1.1c0.2-0.4,0.6-0.7,1-0.9c0.4-0.2,0.9-0.3,1.4-0.3
				C659.7,1032.2,660.5,1032.5,661,1033z"/>
			<path class="st3" d="M663.9,1034c0.3-0.6,0.7-1,1.3-1.3s1.1-0.5,1.8-0.5c0.6,0,1.1,0.1,1.6,0.4c0.5,0.3,0.9,0.6,1.1,1v-3.9h1.2
				v10h-1.2v-1.4c-0.2,0.4-0.6,0.8-1.1,1.1c-0.5,0.3-1,0.4-1.7,0.4c-0.7,0-1.3-0.2-1.8-0.5s-1-0.8-1.3-1.4c-0.3-0.6-0.5-1.2-0.5-2
				C663.4,1035.2,663.5,1034.6,663.9,1034z M669.3,1034.5c-0.2-0.4-0.5-0.7-0.9-0.9s-0.8-0.3-1.3-0.3c-0.5,0-0.9,0.1-1.3,0.3
				c-0.4,0.2-0.7,0.5-0.9,0.9c-0.2,0.4-0.3,0.9-0.3,1.5c0,0.6,0.1,1.1,0.3,1.5c0.2,0.4,0.5,0.7,0.9,1c0.4,0.2,0.8,0.3,1.3,0.3
				c0.5,0,0.9-0.1,1.3-0.3c0.4-0.2,0.7-0.5,0.9-1c0.2-0.4,0.3-0.9,0.3-1.5C669.6,1035.4,669.5,1035,669.3,1034.5z"/>
			<path class="st3" d="M679.7,1036.5h-5.9c0,0.7,0.3,1.3,0.7,1.7c0.5,0.4,1,0.6,1.6,0.6c0.5,0,1-0.1,1.3-0.4c0.4-0.2,0.6-0.6,0.7-1
				h1.3c-0.2,0.7-0.6,1.3-1.2,1.7c-0.6,0.4-1.3,0.7-2.2,0.7c-0.7,0-1.3-0.2-1.9-0.5c-0.6-0.3-1-0.8-1.3-1.3c-0.3-0.6-0.5-1.3-0.5-2
				s0.2-1.4,0.5-2c0.3-0.6,0.7-1,1.3-1.3c0.6-0.3,1.2-0.5,1.9-0.5c0.7,0,1.3,0.2,1.9,0.5c0.5,0.3,1,0.7,1.2,1.3
				c0.3,0.5,0.4,1.1,0.4,1.8C679.7,1036,679.7,1036.2,679.7,1036.5z M678.1,1034.3c-0.2-0.3-0.5-0.6-0.8-0.8
				c-0.4-0.2-0.7-0.3-1.2-0.3c-0.6,0-1.1,0.2-1.6,0.6c-0.4,0.4-0.7,0.9-0.7,1.6h4.7C678.4,1035,678.3,1034.6,678.1,1034.3z"/>
			<path class="st3" d="M687.1,1033c0.6,0.5,0.8,1.3,0.8,2.4v4.4h-1.2v-4.2c0-0.7-0.2-1.3-0.6-1.7c-0.4-0.4-0.9-0.6-1.5-0.6
				c-0.6,0-1.2,0.2-1.5,0.6c-0.4,0.4-0.6,1-0.6,1.8v4.1h-1.2v-7.4h1.2v1.1c0.2-0.4,0.6-0.7,1-0.9c0.4-0.2,0.9-0.3,1.4-0.3
				C685.8,1032.2,686.5,1032.5,687.1,1033z"/>
			<path class="st3" d="M691.4,1033.3v4.4c0,0.4,0.1,0.6,0.2,0.8c0.2,0.1,0.4,0.2,0.8,0.2h0.9v1h-1.1c-0.7,0-1.2-0.2-1.5-0.5
				c-0.3-0.3-0.5-0.8-0.5-1.5v-4.4h-1v-1h1v-1.9h1.2v1.9h1.9v1H691.4z"/>
			<path class="st3" d="M696.1,1029.7v10h-1.2v-10H696.1z"/>
			<path class="st3" d="M704.5,1032.3l-4.4,10.9h-1.3l1.5-3.6l-3-7.3h1.4l2.3,6l2.3-6H704.5z"/>
			<path class="st3" d="M711.2,1039.2c-0.7-0.4-1.3-1-1.7-1.7c-0.4-0.7-0.6-1.6-0.6-2.5s0.2-1.7,0.6-2.5c0.4-0.7,1-1.3,1.7-1.7
				c0.7-0.4,1.5-0.6,2.4-0.6c0.9,0,1.7,0.2,2.4,0.6c0.7,0.4,1.3,1,1.7,1.7s0.6,1.6,0.6,2.5c0,0.9-0.2,1.8-0.6,2.5
				c-0.4,0.7-1,1.3-1.7,1.7c-0.7,0.4-1.5,0.6-2.4,0.6C712.7,1039.8,711.9,1039.6,711.2,1039.2z M715.4,1038.3
				c0.5-0.3,0.9-0.7,1.2-1.3s0.5-1.2,0.5-2c0-0.8-0.2-1.4-0.5-2c-0.3-0.6-0.7-1-1.2-1.3c-0.5-0.3-1.1-0.5-1.8-0.5s-1.3,0.2-1.8,0.5
				c-0.5,0.3-0.9,0.7-1.2,1.3c-0.3,0.6-0.5,1.2-0.5,2c0,0.7,0.2,1.4,0.5,2c0.3,0.6,0.7,1,1.2,1.3c0.5,0.3,1.1,0.5,1.8,0.5
				C714.2,1038.7,714.8,1038.6,715.4,1038.3z"/>
			<path class="st3" d="M729.8,1032.3l-2.3,7.4h-1.3l-1.8-5.9l-1.8,5.9h-1.3l-2.3-7.4h1.3l1.7,6.2l1.8-6.2h1.3l1.8,6.2l1.7-6.2
				H729.8z"/>
			<path class="st3" d="M736.7,1033c0.6,0.5,0.8,1.3,0.8,2.4v4.4h-1.2v-4.2c0-0.7-0.2-1.3-0.6-1.7c-0.4-0.4-0.9-0.6-1.5-0.6
				c-0.6,0-1.2,0.2-1.5,0.6c-0.4,0.4-0.6,1-0.6,1.8v4.1H731v-7.4h1.2v1.1c0.2-0.4,0.6-0.7,1-0.9c0.4-0.2,0.9-0.3,1.4-0.3
				C735.5,1032.2,736.2,1032.5,736.7,1033z"/>
			<path class="st3" d="M746.3,1036.5h-5.9c0,0.7,0.3,1.3,0.7,1.7c0.5,0.4,1,0.6,1.6,0.6c0.5,0,1-0.1,1.3-0.4c0.4-0.2,0.6-0.6,0.7-1
				h1.3c-0.2,0.7-0.6,1.3-1.2,1.7c-0.6,0.4-1.3,0.7-2.2,0.7c-0.7,0-1.3-0.2-1.9-0.5c-0.6-0.3-1-0.8-1.3-1.3c-0.3-0.6-0.5-1.3-0.5-2
				s0.2-1.4,0.5-2c0.3-0.6,0.7-1,1.3-1.3c0.6-0.3,1.2-0.5,1.9-0.5c0.7,0,1.3,0.2,1.9,0.5c0.5,0.3,1,0.7,1.2,1.3
				c0.3,0.5,0.4,1.1,0.4,1.8C746.3,1036,746.3,1036.2,746.3,1036.5z M744.7,1034.3c-0.2-0.3-0.5-0.6-0.8-0.8
				c-0.4-0.2-0.7-0.3-1.2-0.3c-0.6,0-1.1,0.2-1.6,0.6c-0.4,0.4-0.7,0.9-0.7,1.6h4.7C745.1,1035,745,1034.6,744.7,1034.3z"/>
			<path class="st3" d="M747.9,1034c0.3-0.6,0.7-1,1.3-1.3s1.1-0.5,1.8-0.5c0.6,0,1.1,0.1,1.6,0.4c0.5,0.3,0.9,0.6,1.1,1v-3.9h1.2
				v10h-1.2v-1.4c-0.2,0.4-0.6,0.8-1.1,1.1c-0.5,0.3-1,0.4-1.7,0.4c-0.7,0-1.3-0.2-1.8-0.5s-1-0.8-1.3-1.4c-0.3-0.6-0.5-1.2-0.5-2
				C747.5,1035.2,747.6,1034.6,747.9,1034z M753.4,1034.5c-0.2-0.4-0.5-0.7-0.9-0.9s-0.8-0.3-1.3-0.3c-0.5,0-0.9,0.1-1.3,0.3
				c-0.4,0.2-0.7,0.5-0.9,0.9c-0.2,0.4-0.3,0.9-0.3,1.5c0,0.6,0.1,1.1,0.3,1.5c0.2,0.4,0.5,0.7,0.9,1c0.4,0.2,0.8,0.3,1.3,0.3
				c0.5,0,0.9-0.1,1.3-0.3c0.4-0.2,0.7-0.5,0.9-1c0.2-0.4,0.3-0.9,0.3-1.5C753.7,1035.4,753.6,1035,753.4,1034.5z"/>
			<path class="st3" d="M760.6,1034c0.3-0.6,0.7-1,1.3-1.3s1.1-0.5,1.8-0.5c0.6,0,1.2,0.1,1.7,0.4c0.5,0.3,0.8,0.6,1.1,1.1v-1.3h1.2
				v7.4h-1.2v-1.4c-0.2,0.4-0.6,0.8-1.1,1.1c-0.5,0.3-1,0.4-1.7,0.4c-0.7,0-1.2-0.2-1.8-0.5s-0.9-0.8-1.3-1.4
				c-0.3-0.6-0.5-1.2-0.5-2C760.2,1035.2,760.3,1034.6,760.6,1034z M766.1,1034.5c-0.2-0.4-0.5-0.7-0.9-0.9s-0.8-0.3-1.3-0.3
				c-0.5,0-0.9,0.1-1.3,0.3c-0.4,0.2-0.7,0.5-0.9,0.9c-0.2,0.4-0.3,0.9-0.3,1.5c0,0.6,0.1,1.1,0.3,1.5c0.2,0.4,0.5,0.7,0.9,1
				c0.4,0.2,0.8,0.3,1.3,0.3c0.5,0,0.9-0.1,1.3-0.3c0.4-0.2,0.7-0.5,0.9-1c0.2-0.4,0.3-0.9,0.3-1.5
				C766.4,1035.4,766.3,1035,766.1,1034.5z"/>
			<path class="st3" d="M775.5,1033c0.6,0.5,0.8,1.3,0.8,2.4v4.4h-1.2v-4.2c0-0.7-0.2-1.3-0.6-1.7c-0.4-0.4-0.9-0.6-1.5-0.6
				c-0.6,0-1.2,0.2-1.5,0.6c-0.4,0.4-0.6,1-0.6,1.8v4.1h-1.2v-7.4h1.2v1.1c0.2-0.4,0.6-0.7,1-0.9c0.4-0.2,0.9-0.3,1.4-0.3
				C774.2,1032.2,775,1032.5,775.5,1033z"/>
			<path class="st3" d="M778.4,1034c0.3-0.6,0.7-1,1.3-1.3s1.1-0.5,1.8-0.5c0.6,0,1.1,0.1,1.6,0.4c0.5,0.3,0.9,0.6,1.1,1v-3.9h1.2
				v10h-1.2v-1.4c-0.2,0.4-0.6,0.8-1.1,1.1c-0.5,0.3-1,0.4-1.7,0.4c-0.7,0-1.3-0.2-1.8-0.5s-1-0.8-1.3-1.4c-0.3-0.6-0.5-1.2-0.5-2
				C777.9,1035.2,778.1,1034.6,778.4,1034z M783.8,1034.5c-0.2-0.4-0.5-0.7-0.9-0.9s-0.8-0.3-1.3-0.3c-0.5,0-0.9,0.1-1.3,0.3
				c-0.4,0.2-0.7,0.5-0.9,0.9c-0.2,0.4-0.3,0.9-0.3,1.5c0,0.6,0.1,1.1,0.3,1.5c0.2,0.4,0.5,0.7,0.9,1c0.4,0.2,0.8,0.3,1.3,0.3
				c0.5,0,0.9-0.1,1.3-0.3c0.4-0.2,0.7-0.5,0.9-1c0.2-0.4,0.3-0.9,0.3-1.5C784.2,1035.4,784.1,1035,783.8,1034.5z"/>
			<path class="st3" d="M793,1039.2c-0.7-0.4-1.3-1-1.7-1.7c-0.4-0.7-0.6-1.6-0.6-2.5s0.2-1.7,0.6-2.5c0.4-0.7,1-1.3,1.7-1.7
				c0.7-0.4,1.5-0.6,2.4-0.6c0.9,0,1.7,0.2,2.4,0.6c0.7,0.4,1.3,1,1.7,1.7c0.4,0.7,0.6,1.6,0.6,2.5c0,0.9-0.2,1.8-0.6,2.5
				c-0.4,0.7-1,1.3-1.7,1.7c-0.7,0.4-1.5,0.6-2.4,0.6C794.5,1039.8,793.7,1039.6,793,1039.2z M797.1,1038.3c0.5-0.3,0.9-0.7,1.2-1.3
				s0.5-1.2,0.5-2c0-0.8-0.2-1.4-0.5-2c-0.3-0.6-0.7-1-1.2-1.3c-0.5-0.3-1.1-0.5-1.8-0.5s-1.3,0.2-1.8,0.5c-0.5,0.3-0.9,0.7-1.2,1.3
				c-0.3,0.6-0.5,1.2-0.5,2c0,0.7,0.2,1.4,0.5,2c0.3,0.6,0.7,1,1.2,1.3c0.5,0.3,1.1,0.5,1.8,0.5
				C796,1038.7,796.6,1038.6,797.1,1038.3z"/>
			<path class="st3" d="M804,1032.6c0.5-0.3,1-0.4,1.7-0.4c0.7,0,1.3,0.2,1.8,0.5c0.5,0.3,1,0.8,1.3,1.3c0.3,0.6,0.5,1.2,0.5,2
				c0,0.7-0.2,1.4-0.5,2c-0.3,0.6-0.7,1-1.3,1.4c-0.5,0.3-1.1,0.5-1.8,0.5c-0.6,0-1.2-0.1-1.7-0.4c-0.5-0.3-0.8-0.6-1.1-1.1v4.9
				h-1.2v-10.9h1.2v1.4C803.1,1033.3,803.5,1032.9,804,1032.6z M807.6,1034.5c-0.2-0.4-0.5-0.7-0.9-0.9s-0.8-0.3-1.3-0.3
				c-0.4,0-0.9,0.1-1.2,0.3s-0.7,0.5-0.9,1c-0.2,0.4-0.3,0.9-0.3,1.4c0,0.6,0.1,1,0.3,1.5c0.2,0.4,0.5,0.7,0.9,1
				c0.4,0.2,0.8,0.3,1.2,0.3c0.5,0,0.9-0.1,1.3-0.3c0.4-0.2,0.7-0.5,0.9-1c0.2-0.4,0.3-0.9,0.3-1.5
				C807.9,1035.4,807.8,1034.9,807.6,1034.5z"/>
			<path class="st3" d="M817.5,1036.5h-5.9c0,0.7,0.3,1.3,0.7,1.7c0.5,0.4,1,0.6,1.7,0.6c0.5,0,1-0.1,1.3-0.4c0.4-0.2,0.6-0.6,0.7-1
				h1.3c-0.2,0.7-0.6,1.3-1.2,1.7c-0.6,0.4-1.3,0.7-2.2,0.7c-0.7,0-1.3-0.2-1.9-0.5c-0.6-0.3-1-0.8-1.3-1.3c-0.3-0.6-0.5-1.3-0.5-2
				s0.2-1.4,0.5-2s0.7-1,1.3-1.3c0.6-0.3,1.2-0.5,1.9-0.5c0.7,0,1.3,0.2,1.9,0.5c0.5,0.3,1,0.7,1.2,1.3c0.3,0.5,0.4,1.1,0.4,1.8
				C817.5,1036,817.5,1036.2,817.5,1036.5z M815.9,1034.3c-0.2-0.3-0.5-0.6-0.8-0.8c-0.4-0.2-0.7-0.3-1.2-0.3
				c-0.6,0-1.1,0.2-1.6,0.6c-0.4,0.4-0.7,0.9-0.7,1.6h4.7C816.2,1035,816.1,1034.6,815.9,1034.3z"/>
			<path class="st3" d="M821.3,1032.5c0.4-0.2,0.9-0.4,1.5-0.4v1.3h-0.3c-1.4,0-2.1,0.7-2.1,2.2v4h-1.2v-7.4h1.2v1.2
				C820.6,1033.1,820.9,1032.8,821.3,1032.5z"/>
			<path class="st3" d="M824.2,1034c0.3-0.6,0.7-1,1.3-1.3s1.1-0.5,1.8-0.5c0.6,0,1.2,0.1,1.7,0.4c0.5,0.3,0.8,0.6,1.1,1.1v-1.3h1.2
				v7.4h-1.2v-1.4c-0.2,0.4-0.6,0.8-1.1,1.1c-0.5,0.3-1,0.4-1.7,0.4c-0.7,0-1.2-0.2-1.8-0.5s-0.9-0.8-1.3-1.4
				c-0.3-0.6-0.5-1.2-0.5-2C823.7,1035.2,823.8,1034.6,824.2,1034z M829.6,1034.5c-0.2-0.4-0.5-0.7-0.9-0.9s-0.8-0.3-1.3-0.3
				s-0.9,0.1-1.3,0.3c-0.4,0.2-0.7,0.5-0.9,0.9c-0.2,0.4-0.3,0.9-0.3,1.5c0,0.6,0.1,1.1,0.3,1.5c0.2,0.4,0.5,0.7,0.9,1
				c0.4,0.2,0.8,0.3,1.3,0.3s0.9-0.1,1.3-0.3c0.4-0.2,0.7-0.5,0.9-1c0.2-0.4,0.3-0.9,0.3-1.5C829.9,1035.4,829.8,1035,829.6,1034.5z
				"/>
			<path class="st3" d="M834.8,1033.3v4.4c0,0.4,0.1,0.6,0.2,0.8c0.2,0.1,0.4,0.2,0.8,0.2h0.9v1h-1.1c-0.7,0-1.2-0.2-1.5-0.5
				c-0.3-0.3-0.5-0.8-0.5-1.5v-4.4h-1v-1h1v-1.9h1.2v1.9h1.9v1H834.8z"/>
			<path class="st3" d="M844.9,1036.5H839c0,0.7,0.3,1.3,0.7,1.7c0.5,0.4,1,0.6,1.7,0.6c0.5,0,1-0.1,1.3-0.4c0.4-0.2,0.6-0.6,0.7-1
				h1.3c-0.2,0.7-0.6,1.3-1.2,1.7c-0.6,0.4-1.3,0.7-2.2,0.7c-0.7,0-1.3-0.2-1.9-0.5c-0.6-0.3-1-0.8-1.3-1.3c-0.3-0.6-0.5-1.3-0.5-2
				s0.2-1.4,0.5-2s0.7-1,1.3-1.3c0.6-0.3,1.2-0.5,1.9-0.5c0.7,0,1.3,0.2,1.9,0.5c0.5,0.3,1,0.7,1.2,1.3c0.3,0.5,0.4,1.1,0.4,1.8
				C844.9,1036,844.9,1036.2,844.9,1036.5z M843.3,1034.3c-0.2-0.3-0.5-0.6-0.8-0.8c-0.4-0.2-0.7-0.3-1.2-0.3
				c-0.6,0-1.1,0.2-1.6,0.6c-0.4,0.4-0.7,0.9-0.7,1.6h4.7C843.6,1035,843.5,1034.6,843.3,1034.3z"/>
			<path class="st3" d="M846.5,1034c0.3-0.6,0.7-1,1.3-1.3s1.1-0.5,1.8-0.5c0.6,0,1.1,0.1,1.6,0.4c0.5,0.3,0.9,0.6,1.1,1v-3.9h1.2
				v10h-1.2v-1.4c-0.2,0.4-0.6,0.8-1.1,1.1c-0.5,0.3-1,0.4-1.7,0.4c-0.7,0-1.3-0.2-1.8-0.5s-1-0.8-1.3-1.4c-0.3-0.6-0.5-1.2-0.5-2
				C846.1,1035.2,846.2,1034.6,846.5,1034z M852,1034.5c-0.2-0.4-0.5-0.7-0.9-0.9s-0.8-0.3-1.3-0.3s-0.9,0.1-1.3,0.3
				c-0.4,0.2-0.7,0.5-0.9,0.9c-0.2,0.4-0.3,0.9-0.3,1.5c0,0.6,0.1,1.1,0.3,1.5c0.2,0.4,0.5,0.7,0.9,1c0.4,0.2,0.8,0.3,1.3,0.3
				s0.9-0.1,1.3-0.3c0.4-0.2,0.7-0.5,0.9-1c0.2-0.4,0.3-0.9,0.3-1.5C852.3,1035.4,852.2,1035,852,1034.5z"/>
		</g>
		<g>
			<g>
				<g>
					<path class="st3" d="M908.9,1002.4v-1.4h0.4c0.6,0,0.9,0.3,0.9,0.7c0,0.4-0.2,0.7-0.9,0.7H908.9z M911.1,1004.9l-0.8-2
						c0.5-0.4,0.5-0.7,0.5-1.1c0-0.8-0.6-1.2-1.4-1.2h-1.1v4.4h0.6v-2h0.8l0.8,2H911.1z"/>
					<path class="st3" d="M909.6,999.2c-1.9,0-3.5,1.6-3.5,3.5c0,1.9,1.6,3.5,3.5,3.5c1.9,0,3.4-1.5,3.4-3.5
						C913,1000.8,911.5,999.2,909.6,999.2 M909.6,1006.6c-2.2,0-4-1.8-4-4c0-2.2,1.8-4,4-4c2.2,0,4,1.8,4,4
						C913.5,1004.8,911.8,1006.6,909.6,1006.6"/>
				</g>
				<polygon class="st3" points="700.7,965.7 690,998.8 677.2,965.9 673.9,965.9 689.3,1006.3 690.8,1006.3 701.8,970.7 713,1006.3 
					714.5,1006.3 729.8,965.9 726.5,965.9 713.8,998.8 703,965.7 				"/>
				<polygon class="st3" points="743.1,965.9 743.1,1005.9 762.7,1005.9 762.7,1003.4 746.2,1003.4 746.2,965.9 				"/>
				<polygon class="st3" points="768.4,965.9 768.4,1005.9 788,1005.9 788,1003.4 771.5,1003.4 771.5,965.9 				"/>
				<rect x="793.5" y="965.9" class="st3" width="3.1" height="40"/>
				<rect x="734.3" y="965.9" class="st3" width="3.1" height="40"/>
				<path class="st3" d="M818.3,970.7l7.7,18.8h-15.4L818.3,970.7z M817.5,965.7l-16.6,40.3h2.9l5.7-13.8H827l5.7,13.8h2.9
					l-16.5-40.3H817.5z"/>
				<polygon class="st3" points="873.5,966 858.2,984.6 843,966 839.9,966 839.9,1005.9 843,1005.9 843,970.5 843.1,970.5 
					858.2,989.2 873.3,970.5 873.5,970.5 873.5,1005.9 876.6,1005.9 876.6,966 				"/>
				<g>
					<path class="st3" d="M902.3,972.5c-2.5-3.3-6.1-4-8.9-4c-4.8,0-8.4,3.3-8.4,7.6c0,10.7,19,5.6,19,19.6
						c0,6.1-5.1,10.9-11.6,10.9c-3.3,0-6.8-0.9-10.3-3.5v-3.6c3.9,3.7,7,4.3,10.1,4.3c4.8,0,8.4-3.5,8.4-8c0-11.4-19-6.4-19-19.6
						c0-5.9,5.1-10.6,11.5-10.6c3.2,0,7.3,1.3,9.2,3.5V972.5z"/>
				</g>
				<polygon class="st3" points="573.8,966 573.8,1006.1 594.4,1006.1 594.4,1000.9 579.5,1000.9 579.5,966 				"/>
				<polygon class="st3" points="598.1,966 598.1,1006.1 618.6,1006.1 618.6,1000.9 603.8,1000.9 603.8,966 				"/>
				<polygon class="st3" points="622.3,966 622.3,1006.1 645.6,1006.1 645.6,1000.9 628.1,1000.9 628.1,988.5 644.5,988.5 
					644.5,983.3 628.1,983.3 628.1,971.2 645.1,971.2 645.1,966 				"/>
				<g>
					<path class="st3" d="M655.1,983.5V971h3.7c5.6,0,7.8,2.3,7.9,6c0.1,3.4-1.7,6.5-7.9,6.5H655.1z M675.1,1006l-7.4-18.7
						c4.4-3.6,4.9-6.1,4.9-10.1c-0.1-6.9-5-11.2-13.1-11.2h-10.1v40h5.8v-17.9c0,0,4.8,0,6.9,0l7.2,17.9H675.1z"/>
				</g>
				<polygon class="st3" points="546.8,966 546.8,1006 570,1006 570,1000.8 552.6,1000.8 552.6,988.4 568.9,988.4 568.9,983.3 
					552.6,983.3 552.6,971.2 569.5,971.2 569.5,966 				"/>
				<polygon class="st3" points="536.6,966 534.6,968.2 519.8,984.3 519.8,966 514.1,966 514.1,1005.9 519.8,1005.9 519.8,992.2 
					526.2,985.2 534.6,1005.9 540.5,1005.9 540.5,1005.9 538.4,1000.8 530.3,980.7 539,971.2 543.7,966 				"/>
			</g>
			<polygon class="st3" points="514.2,824.5 514.2,945.6 531.1,945.6 531.1,917.2 543.5,904.9 560.7,945.6 577.8,945.6 555.1,891.6 
				571.1,873.9 602,945.6 608.5,945.6 631.8,890.1 655.4,945.6 661.8,945.6 697.2,863.9 679.9,863.9 658.6,913.5 637.9,863.9 
				625.9,863.9 605.1,913.5 583.7,863.9 561.2,863.9 531.1,894 531.1,824.5 			"/>
			<g>
				<g>
					<path class="st3" d="M713.2,863.9h5.7v30.9h13.8v4.8h-19.5V863.9z"/>
					<path class="st3" d="M743.8,863.9h7.3l9.4,35.7h-5.9l-2.2-8.7h-10.4l-2.3,8.7h-5.9L743.8,863.9z M751.4,886.3l-4.1-17.6h-0.1
						l-4.2,17.6H751.4z"/>
					<path class="st3" d="M762.7,863.9h6.9l10.3,26.6h0.1v-26.6h5.4v35.7h-6.9l-10.3-27.3h-0.1v27.3h-5.4V863.9z"/>
					<path class="st3" d="M790.2,863.9h5.7v35.7h-5.7V863.9z"/>
					<path class="st3" d="M800.5,863.9h19.3v4.8h-13.6v9.9h12.8v4.8h-12.8v11.4h14v4.8h-19.7V863.9z"/>
					<path class="st3" d="M823.3,863.9h12.6c5,0,9,2.5,9,9.2c0,4.6-2,8.1-5.9,8.7v0.1c3.5,0.3,5.4,2.3,5.6,7.3
						c0,2.3,0.1,5.1,0.2,7.2c0.1,1.7,0.9,2.6,1.7,3.1H840c-0.6-0.6-0.8-1.7-0.9-3.1c-0.2-2.1-0.1-4.1-0.2-6.7
						c-0.1-3.9-1.3-5.6-5.2-5.6H829v15.5h-5.7V863.9z M833.5,879.8c3.6,0,5.7-2.2,5.7-5.8c0-3.8-1.7-5.8-5.4-5.8H829v11.6H833.5z"/>
				</g>
				<g>
					<path class="st3" d="M713.9,910h11.3c6.8,0,9.8,4.3,9.8,10.4c0,6.4-3.7,10.5-10.4,10.5h-5v14.7h-5.7V910z M719.6,926.6h4
						c3,0,5.7-1.7,5.7-6.1c0-3.8-1.5-6.2-6.1-6.2h-3.6V926.6z"/>
					<path class="st3" d="M743.1,910h7.3l9.4,35.7h-5.9l-2.2-8.7h-10.4l-2.3,8.7H733L743.1,910z M750.7,932.4l-4.1-17.6h-0.1
						l-4.2,17.6H750.7z"/>
					<path class="st3" d="M762,910h12.6c5,0,9,2.5,9,9.2c0,4.6-2,8.1-5.9,8.7v0.1c3.5,0.4,5.4,2.3,5.6,7.3c0,2.3,0.1,5.1,0.2,7.2
						c0.1,1.8,0.9,2.6,1.7,3.1h-6.4c-0.5-0.6-0.8-1.8-0.9-3.1c-0.2-2.1-0.1-4.2-0.2-6.7c-0.1-3.9-1.3-5.6-5.2-5.6h-4.6v15.5H762V910
						z M772.3,925.9c3.6,0,5.7-2.2,5.7-5.8c0-3.8-1.7-5.8-5.4-5.8h-4.8v11.6H772.3z"/>
					<path class="st3" d="M794.1,914.8h-8.5V910h22.5v4.8h-8.3v30.9h-5.7V914.8z"/>
					<path class="st3" d="M810.7,910h6.9l10.3,26.6h0.1V910h5.4v35.7h-6.9l-10.3-27.3h-0.1v27.3h-5.4V910z"/>
					<path class="st3" d="M838.3,910h19.3v4.8H844v9.9h12.8v4.8H844v11.4h14v4.8h-19.7V910z"/>
					<path class="st3" d="M861.1,910h12.6c5,0,9,2.5,9,9.2c0,4.6-2,8.1-5.9,8.7v0.1c3.5,0.4,5.4,2.3,5.6,7.3c0,2.3,0.1,5.1,0.2,7.2
						c0.1,1.8,0.9,2.6,1.7,3.1h-6.4c-0.6-0.6-0.8-1.8-0.9-3.1c-0.2-2.1-0.1-4.2-0.2-6.7c-0.1-3.9-1.3-5.6-5.2-5.6h-4.6v15.5h-5.7
						V910z M871.3,925.9c3.6,0,5.7-2.2,5.7-5.8c0-3.8-1.7-5.8-5.4-5.8h-4.8v11.6H871.3z"/>
					<path class="st3" d="M891.1,934.6v0.9c0,4.3,1.9,6.5,5.8,6.5c3.6,0,5.4-2.5,5.4-5.2c0-3.7-1.9-5.4-5.1-6.3l-3.9-1.3
						c-5.2-2-7.4-4.7-7.4-9.8c0-6.5,4.4-10.1,11.1-10.1c9.1,0,10.1,5.7,10.1,9.4v0.8h-5.7v-0.7c0-3.2-1.5-5.1-5-5.1
						c-2.4,0-4.8,1.3-4.8,5.1c0,3,1.6,4.6,5.3,6l3.8,1.4c5,1.8,7.2,4.5,7.2,9.4c0,7.6-4.6,10.7-11.8,10.7c-8.8,0-10.8-5.9-10.8-10.9
						v-0.8H891.1z"/>
				</g>
			</g>
		</g>
		<linearGradient id="SVGID_2_" gradientUnits="userSpaceOnUse" x1="524.6357" y1="465.911" x2="784.023" y2="725.2982">
			<stop  offset="0" style="stop-color:#FAF092"/>
			<stop  offset="0.4" style="stop-color:#F3BD49"/>
			<stop  offset="1" style="stop-color:#985725"/>
		</linearGradient>
		<path class="st4" d="M815.7,502.2l-65.6,25v14.5l65.9-38.8C816.5,502.6,816.2,502,815.7,502.2z M815.8,548.7l-65.7,9.6v13.4
			l65.9-22.3C816.4,549.3,816.3,548.6,815.8,548.7z M913.2,595.2l-163-7V603l163-7C913.7,596,913.7,595.2,913.2,595.2z M816,641.8
			l-65.9-22.3v13.4l65.7,9.6C816.3,642.6,816.4,641.9,816,641.8z M750.1,649.6v14.5l65.6,25c0.5,0.2,0.8-0.5,0.3-0.7L750.1,649.6z
			 M572,669.6h2.3c0-3.6,2.2-7.8,5.4-11.1c3.2-3.2,7.4-5.4,11.1-5.4v-2.3c-3.6,0-7.8-2.2-11.1-5.4c-3.2-3.2-5.4-7.4-5.4-11.1h-1.1
			H572c0,3.6-2.2,7.8-5.4,11.1c-3.2,3.2-7.4,5.4-11.1,5.4v2.3c3.6,0,7.8,2.2,11.1,5.4C569.8,661.8,572,666,572,669.6z M668,556.8
			h2.3c0-3.6,2.2-7.8,5.4-11.1c3.2-3.2,7.4-5.4,11.1-5.4v-2.3c-3.6,0-7.8-2.2-11.1-5.4c-3.2-3.2-5.4-7.4-5.4-11.1h-1.1H668
			c0,3.6-2.2,7.8-5.4,11.1c-3.2,3.2-7.4,5.4-11.1,5.4v2.3c3.6,0,7.8,2.2,11.1,5.4C665.8,549,668,553.2,668,556.8z M616.1,622.6h2.3
			c0-3,1-5.6,2.6-7.9c2.3-3.4,5.9-6.1,9-7.8c1.5-0.9,2.9-1.5,3.9-1.9c0.5-0.2,0.9-0.4,1.2-0.5l0.3-0.1l0.1,0l0.8-0.3v-0.8
			c0-4.4,0-12.5,0-19.4c0-3.5,0-6.7,0-9.1s0-3.8,0-3.8v-1.1h-7.4h-12.6h-19.9v1.1v1.1l0,0c0.5,0,5.7,0.2,10.5,2.3
			c2.4,1.1,4.8,2.7,6.5,5c1.7,2.3,2.9,5.3,2.9,9.4v2.5V622.6z M636.1,654.1V652v-36.1h-2.3c0,3-1,5.6-2.6,7.9
			c-2.3,3.4-5.9,6.1-9,7.8c-1.5,0.9-2.9,1.5-3.9,1.9c-0.5,0.2-0.9,0.4-1.2,0.5l-0.3,0.1l-0.1,0l-0.8,0.3v0.8c0,4.5,0,13.1,0,20.4
			c0,2.9-0.6,5.1-1.4,6.6c-1.3,2.3-3.1,3.5-4.7,4.1c-0.8,0.3-1.5,0.4-2,0.5c-0.3,0-0.5,0.1-0.6,0.1l-0.1,0h0l0,0v1.1v1.1h9h10.4h2.3
			h7.4h14v-1.1v-1.1l0,0c-0.4,0-4-0.1-7.4-1.8c-1.7-0.8-3.3-2-4.6-3.8C636.9,659.5,636.1,657.2,636.1,654.1z M607,624.4v-2.3
			c-5.4,0-9.7-1.7-13.3-4.5c-5.4-4.2-9-11.3-11.3-19.4c-2.3-8.1-3.1-17.4-3.1-25.9c0-9.5,1.1-21,4.5-30.3c1.7-4.7,3.9-8.8,6.8-11.8
			c2.9-3,6.3-5,10.6-5.6l1-0.1v-1.1v-1.2l-1.2,0c-14.6,0.5-25.9,5.7-33.5,14.6c-7.6,8.8-11.4,21.2-11.4,35.9c0,16.1,4.6,29,13.3,38
			C578.1,619.6,590.9,624.4,607,624.4z M674.8,629c7.2-6,11.4-14.8,11.3-25.6c0-5.9-1-11-3-15.2c-3-6.4-8.1-11-14.6-13.9
			c-6.5-3-14.4-4.3-23.3-4.4l-1.1,0v1.1v0v1.1l1.1,0.1c3.5,0.2,6.4,1.2,8.8,2.9c3.5,2.5,6,6.5,7.6,11.5c1.6,5,2.2,10.9,2.2,17.1
			c0,7.6-1.1,15.8-4.1,21.9c-1.5,3.1-3.3,5.7-5.7,7.5c-2.4,1.8-5.2,3-8.8,3.1l-1.1,0v1.1v1.1l1.1,0C657.3,638.3,667.6,635,674.8,629
			z M617.8,527.9c2.7,2.4,4.3,6,5.3,9.7c1,3.7,1.2,7.7,1.2,10.8c0,1.8-0.1,3.4-0.2,4.5c0,0.5-0.1,1-0.1,1.3c0,0.1,0,0.3,0,0.3l0,0.1
			l2.2,0.4l0-0.2c0.2-0.8,1.1-4.8,3-9.6c1.9-4.8,4.7-10.3,8.7-14.3l0.9-0.9l-1-0.8c-0.1-0.1-8.6-6.4-26.7-7.1l-1.2,0v1.4v1l0.9,0.2
			C613.8,525.1,616,526.3,617.8,527.9z M713.1,476.5h15.1v15.1v208.1v15.1h-15.1H529.2h-15.1v-15.1V491.5v-15.1h15.1H713.1z
			 M713.1,491.5H529.2v208.1h183.9V491.5z"/>
		<polygon points="1006.1,1003.2 1321.4,1003.2 1321.4,1039.9 1405.9,970.7 1321.4,901.6 1321.4,938.3 1006.1,938.3 		"/>
		<g>
			<rect x="1006.1" y="759.1" class="st5" width="399.8" height="114.2"/>
			<path d="M1018,807.3c-2.6-1.1-4.7-2.7-6.2-4.8c-1.5-2.1-2.3-4.6-2.3-7.4h10c0.1,1.9,0.8,3.4,2,4.5c1.2,1.1,2.9,1.7,5,1.7
				c2.2,0,3.9-0.5,5.1-1.6c1.2-1,1.9-2.4,1.9-4.1c0-1.4-0.4-2.5-1.3-3.4c-0.8-0.9-1.9-1.6-3.2-2.1c-1.3-0.5-3-1.1-5.2-1.7
				c-3-0.9-5.5-1.8-7.4-2.6c-1.9-0.9-3.5-2.2-4.9-3.9c-1.4-1.8-2-4.1-2-7c0-2.8,0.7-5.2,2.1-7.2c1.4-2,3.3-3.6,5.8-4.7
				c2.5-1.1,5.3-1.6,8.6-1.6c4.8,0,8.7,1.2,11.7,3.5c3,2.3,4.7,5.6,5,9.8h-10.3c-0.1-1.6-0.8-2.9-2-4c-1.3-1-3-1.6-5-1.6
				c-1.8,0-3.3,0.5-4.4,1.4c-1.1,0.9-1.6,2.3-1.6,4.1c0,1.2,0.4,2.3,1.2,3.1c0.8,0.8,1.8,1.5,3.1,2c1.2,0.5,3,1.1,5.2,1.8
				c3,0.9,5.5,1.8,7.4,2.7c1.9,0.9,3.6,2.2,4.9,4c1.4,1.8,2.1,4.1,2.1,7c0,2.5-0.6,4.8-1.9,6.9c-1.3,2.1-3.2,3.8-5.7,5.1
				c-2.5,1.3-5.5,1.9-8.9,1.9C1023.5,809,1020.6,808.4,1018,807.3z"/>
			<path d="M1086.3,771.5v37h-9.4v-4.7c-1.2,1.6-2.8,2.9-4.7,3.8c-1.9,0.9-4,1.4-6.3,1.4c-2.9,0-5.5-0.6-7.7-1.8
				c-2.2-1.2-4-3-5.2-5.4c-1.3-2.4-1.9-5.2-1.9-8.5v-21.7h9.4v20.4c0,2.9,0.7,5.2,2.2,6.8c1.5,1.6,3.5,2.4,6,2.4
				c2.6,0,4.6-0.8,6.1-2.4c1.5-1.6,2.2-3.8,2.2-6.8v-20.4H1086.3z"/>
			<path d="M1126.7,775.1c2.7,2.8,4.1,6.7,4.1,11.7v21.7h-9.4v-20.4c0-2.9-0.7-5.2-2.2-6.8c-1.5-1.6-3.5-2.4-6-2.4
				c-2.6,0-4.6,0.8-6.1,2.4c-1.5,1.6-2.2,3.8-2.2,6.8v20.4h-9.4v-37h9.4v4.6c1.2-1.6,2.8-2.9,4.8-3.8c1.9-0.9,4.1-1.4,6.4-1.4
				C1120.4,771,1124,772.4,1126.7,775.1z"/>
			<path d="M1139.5,779.9c1.5-2.9,3.5-5.1,6.1-6.7c2.6-1.6,5.5-2.3,8.6-2.3c2.4,0,4.7,0.5,6.9,1.6c2.2,1,3.9,2.4,5.2,4.2v-17.6h9.5
				v49.4h-9.5V803c-1.2,1.8-2.8,3.3-4.9,4.4s-4.5,1.7-7.3,1.7c-3.1,0-6-0.8-8.6-2.4c-2.6-1.6-4.6-3.9-6.1-6.8
				c-1.5-2.9-2.2-6.3-2.2-10.1C1137.3,786.1,1138,782.8,1139.5,779.9z M1165.1,784.2c-0.9-1.6-2.1-2.9-3.6-3.7
				c-1.5-0.9-3.1-1.3-4.9-1.3s-3.3,0.4-4.8,1.3c-1.5,0.8-2.7,2.1-3.6,3.7c-0.9,1.6-1.4,3.6-1.4,5.8c0,2.2,0.5,4.2,1.4,5.8
				c0.9,1.7,2.1,3,3.6,3.8c1.5,0.9,3.1,1.3,4.8,1.3c1.7,0,3.4-0.4,4.9-1.3c1.5-0.9,2.7-2.1,3.6-3.7c0.9-1.6,1.3-3.6,1.3-5.8
				C1166.4,787.7,1166,785.8,1165.1,784.2z"/>
			<path d="M1184.8,779.9c1.5-2.9,3.5-5.1,6.1-6.7c2.6-1.6,5.4-2.3,8.6-2.3c2.8,0,5.2,0.6,7.2,1.7c2.1,1.1,3.7,2.5,5,4.2v-5.3h9.4
				v37h-9.4v-5.4c-1.2,1.7-2.9,3.2-5,4.3c-2.1,1.1-4.6,1.7-7.3,1.7c-3.1,0-6-0.8-8.5-2.4c-2.6-1.6-4.6-3.9-6.1-6.8
				c-1.5-2.9-2.2-6.3-2.2-10.1C1182.6,786.1,1183.3,782.8,1184.8,779.9z M1210.4,784.2c-0.9-1.6-2.1-2.9-3.6-3.7
				c-1.5-0.9-3.1-1.3-4.9-1.3s-3.3,0.4-4.8,1.3c-1.5,0.8-2.7,2.1-3.6,3.7c-0.9,1.6-1.4,3.6-1.4,5.8c0,2.2,0.5,4.2,1.4,5.8
				c0.9,1.7,2.1,3,3.6,3.8c1.5,0.9,3.1,1.3,4.8,1.3c1.7,0,3.4-0.4,4.9-1.3c1.5-0.9,2.7-2.1,3.6-3.7c0.9-1.6,1.3-3.6,1.3-5.8
				C1211.7,787.7,1211.3,785.8,1210.4,784.2z"/>
			<path d="M1265.7,771.5l-22.9,54.5h-10l8-18.4l-14.8-36.1h10.5l9.6,25.9l9.7-25.9H1265.7z"/>
			<path d="M1288.5,798c4.3-3.6,7.7-6.5,10.2-8.9c2.5-2.4,4.7-4.9,6.3-7.4c1.7-2.6,2.5-5.1,2.5-7.6c0-2.3-0.5-4.1-1.6-5.3
				c-1.1-1.3-2.7-1.9-4.9-1.9c-2.2,0-3.9,0.7-5.1,2.2c-1.2,1.5-1.8,3.5-1.9,6.1h-9.1c0.2-5.3,1.8-9.4,4.8-12.2
				c3-2.8,6.8-4.1,11.5-4.1c5.1,0,9,1.3,11.7,4c2.7,2.7,4.1,6.2,4.1,10.7c0,3.5-0.9,6.8-2.8,10c-1.9,3.2-4,5.9-6.4,8.3
				s-5.5,5.2-9.4,8.5h19.7v7.8h-33v-6.9L1288.5,798z"/>
			<path d="M1353.4,780.7v7.9h-28.3v-7.9H1353.4z"/>
			<path d="M1362.4,799v-7.3l21.8-31.3h10.9v30.5h5.9v8.2h-5.9v9.5h-9.4V799H1362.4z M1386.4,770.4l-13.7,20.4h13.7V770.4z"/>
			<path d="M1008.2,864.5v-3.7l18.9-26.2h5.9v25.7h5.4v4.3h-5.4v8.7h-4.9v-8.7H1008.2z M1028.4,839.7l-14.5,20.5h14.5V839.7z"/>
			<path d="M1046.3,838.8c2-3.5,5.5-5.2,10.6-5.2c5,0,8.5,1.7,10.5,5.2c2,3.5,3,8.3,3,14.5c0,6.3-1,11.2-3,14.7
				c-2,3.5-5.5,5.2-10.5,5.2c-5,0-8.6-1.7-10.6-5.2c-2-3.5-3-8.4-3-14.7C1043.3,847.1,1044.3,842.3,1046.3,838.8z M1065,845.4
				c-0.4-2.2-1.3-3.9-2.5-5.3c-1.3-1.3-3.1-2-5.5-2c-2.4,0-4.3,0.7-5.6,2c-1.3,1.3-2.1,3.1-2.5,5.3c-0.4,2.2-0.6,4.8-0.6,8
				c0,3.2,0.2,5.9,0.6,8.1c0.4,2.2,1.3,4,2.5,5.3c1.3,1.3,3.1,2,5.6,2c2.4,0,4.2-0.7,5.5-2c1.3-1.3,2.1-3.1,2.5-5.3
				c0.4-2.2,0.6-4.9,0.6-8.1C1065.6,850.2,1065.4,847.5,1065,845.4z"/>
			<path d="M1076,864.5v-3.7l18.9-26.2h5.9v25.7h5.4v4.3h-5.4v8.7h-4.9v-8.7H1076z M1096.1,839.7l-14.5,20.5h14.5V839.7z"/>
			<path d="M1132.4,851.4v4.2h-21.5v-4.2H1132.4z"/>
			<path d="M1139.6,864.5v-3.7l18.9-26.2h5.9v25.7h5.4v4.3h-5.4v8.7h-4.9v-8.7H1139.6z M1159.7,839.7l-14.5,20.5h14.5V839.7z"/>
			<path d="M1177.7,838.8c2-3.5,5.5-5.2,10.6-5.2c5,0,8.5,1.7,10.5,5.2c2,3.5,3,8.3,3,14.5c0,6.3-1,11.2-3,14.7
				c-2,3.5-5.5,5.2-10.5,5.2c-5,0-8.6-1.7-10.6-5.2c-2-3.5-3-8.4-3-14.7C1174.7,847.1,1175.7,842.3,1177.7,838.8z M1196.3,845.4
				c-0.4-2.2-1.3-3.9-2.5-5.3c-1.3-1.3-3.1-2-5.5-2c-2.4,0-4.3,0.7-5.6,2c-1.3,1.3-2.1,3.1-2.5,5.3c-0.4,2.2-0.6,4.8-0.6,8
				c0,3.2,0.2,5.9,0.6,8.1c0.4,2.2,1.3,4,2.5,5.3c1.3,1.3,3.1,2,5.6,2c2.4,0,4.2-0.7,5.5-2c1.3-1.3,2.1-3.1,2.5-5.3
				c0.4-2.2,0.6-4.9,0.6-8.1C1196.9,850.2,1196.7,847.5,1196.3,845.4z"/>
			<path d="M1212.3,836.3c2.3-1.9,5.3-2.8,8.9-2.8c2.4,0,4.6,0.4,6.3,1.3c1.8,0.9,3.1,2.1,4,3.6c0.9,1.5,1.4,3.2,1.4,5.1
				c0,2.2-0.6,4.2-1.9,5.8c-1.3,1.6-2.9,2.7-5,3.1v0.3c2.3,0.6,4.2,1.7,5.6,3.4c1.4,1.7,2,3.9,2,6.6c0,2-0.5,3.9-1.4,5.5
				c-0.9,1.6-2.3,2.9-4.2,3.9c-1.9,0.9-4.1,1.4-6.7,1.4c-3.8,0-6.9-1-9.4-3c-2.4-2-3.8-4.8-4.1-8.5h4.7c0.3,2.2,1.1,3.9,2.6,5.3
				c1.5,1.4,3.5,2,6,2s4.4-0.7,5.7-2c1.3-1.3,2-3,2-5.1c0-2.7-0.9-4.6-2.7-5.8c-1.8-1.2-4.5-1.8-8.1-1.8h-1.2v-4.1h1.3
				c3.3,0,5.8-0.6,7.5-1.6c1.7-1.1,2.5-2.7,2.5-4.9c0-1.9-0.6-3.4-1.9-4.6c-1.2-1.1-3-1.7-5.3-1.7c-2.2,0-4,0.6-5.4,1.7
				c-1.4,1.2-2.2,2.7-2.4,4.6h-4.8C1208.7,840.7,1210,838.1,1212.3,836.3z"/>
			<path d="M1261.6,851.4v4.2h-21.5v-4.2H1261.6z"/>
			<path d="M1294.8,838.5h-18.9v12.3c0.8-1.1,2-2.1,3.7-2.8c1.6-0.7,3.4-1.1,5.2-1.1c3,0,5.4,0.6,7.3,1.9c1.9,1.2,3.2,2.8,4,4.8
				c0.8,2,1.2,4,1.2,6.2c0,2.6-0.5,4.9-1.5,7s-2.5,3.7-4.4,4.9c-2,1.2-4.5,1.8-7.4,1.8c-3.8,0-6.8-1-9.2-2.9
				c-2.3-1.9-3.8-4.5-4.3-7.8h4.8c0.5,2,1.5,3.6,3,4.8c1.5,1.2,3.4,1.7,5.7,1.7c2.8,0,5-0.9,6.4-2.6c1.4-1.7,2.2-4,2.2-6.8
				s-0.7-5-2.2-6.5c-1.4-1.5-3.6-2.3-6.4-2.3c-1.9,0-3.6,0.5-5,1.4c-1.4,0.9-2.5,2.2-3.1,3.7h-4.6v-22h23.4V838.5z"/>
			<path d="M1306.9,838.8c2-3.5,5.5-5.2,10.6-5.2c5,0,8.5,1.7,10.5,5.2c2,3.5,3,8.3,3,14.5c0,6.3-1,11.2-3,14.7
				c-2,3.5-5.5,5.2-10.5,5.2c-5,0-8.6-1.7-10.6-5.2c-2-3.5-3-8.4-3-14.7C1303.8,847.1,1304.8,842.3,1306.9,838.8z M1325.5,845.4
				c-0.4-2.2-1.3-3.9-2.5-5.3c-1.3-1.3-3.1-2-5.5-2c-2.4,0-4.3,0.7-5.6,2c-1.3,1.3-2.1,3.1-2.5,5.3c-0.4,2.2-0.6,4.8-0.6,8
				c0,3.2,0.2,5.9,0.6,8.1c0.4,2.2,1.3,4,2.5,5.3c1.3,1.3,3.1,2,5.6,2c2.4,0,4.2-0.7,5.5-2c1.3-1.3,2.1-3.1,2.5-5.3
				c0.4-2.2,0.6-4.9,0.6-8.1C1326.1,850.2,1325.9,847.5,1325.5,845.4z"/>
			<path d="M1340.2,849.5c-1.1-1.5-1.6-3.3-1.6-5.5c0-1.9,0.5-3.7,1.5-5.3c1-1.6,2.4-2.8,4.3-3.7s4.3-1.4,7-1.4c2.7,0,5.1,0.5,7,1.4
				c1.9,0.9,3.4,2.2,4.4,3.7c1,1.6,1.5,3.3,1.5,5.3c0,2.1-0.6,3.9-1.7,5.5c-1.1,1.6-2.6,2.7-4.6,3.5c2.2,0.7,4,1.9,5.3,3.6
				c1.3,1.7,2,3.8,2,6.2c0,2.3-0.6,4.4-1.7,6.1c-1.2,1.7-2.8,3.1-4.9,4c-2.1,1-4.5,1.4-7.3,1.4c-2.7,0-5.1-0.5-7.2-1.4
				c-2.1-1-3.7-2.3-4.8-4c-1.2-1.7-1.7-3.8-1.7-6.1c0-2.4,0.6-4.5,1.9-6.2c1.3-1.7,3.1-2.9,5.3-3.6
				C1342.8,852.1,1341.2,851,1340.2,849.5z M1344.8,856.9c-1.7,1.2-2.5,3.1-2.5,5.6c0,2.3,0.8,4.2,2.5,5.6c1.6,1.4,3.8,2.1,6.6,2.1
				c2.8,0,5-0.7,6.6-2.1c1.6-1.4,2.4-3.3,2.4-5.6c0-2.4-0.8-4.2-2.5-5.5c-1.7-1.3-3.8-1.9-6.5-1.9
				C1348.7,855.1,1346.5,855.7,1344.8,856.9z M1357.3,839.5c-1.4-1.2-3.4-1.8-5.9-1.8c-2.5,0-4.4,0.6-5.9,1.8
				c-1.4,1.2-2.2,2.9-2.2,5.1c0,2,0.7,3.6,2.2,4.9c1.5,1.2,3.4,1.8,5.8,1.8c2.4,0,4.4-0.6,5.8-1.9c1.5-1.2,2.2-2.9,2.2-4.9
				C1359.4,842.4,1358.7,840.7,1357.3,839.5z"/>
			<path d="M1374.7,838.8c2-3.5,5.5-5.2,10.6-5.2c5,0,8.5,1.7,10.5,5.2c2,3.5,3,8.3,3,14.5c0,6.3-1,11.2-3,14.7
				c-2,3.5-5.5,5.2-10.5,5.2c-5,0-8.6-1.7-10.6-5.2c-2-3.5-3-8.4-3-14.7C1371.7,847.1,1372.7,842.3,1374.7,838.8z M1393.3,845.4
				c-0.4-2.2-1.3-3.9-2.5-5.3c-1.3-1.3-3.1-2-5.5-2c-2.4,0-4.3,0.7-5.6,2c-1.3,1.3-2.1,3.1-2.5,5.3c-0.4,2.2-0.6,4.8-0.6,8
				c0,3.2,0.2,5.9,0.6,8.1c0.4,2.2,1.3,4,2.5,5.3c1.3,1.3,3.1,2,5.6,2c2.4,0,4.2-0.7,5.5-2c1.3-1.3,2.1-3.1,2.5-5.3
				c0.4-2.2,0.6-4.9,0.6-8.1C1394,850.2,1393.8,847.5,1393.3,845.4z"/>
		</g>
	</g>
</g>
<polyline class="st56" points="427.9,430.2 384.7,430.2 384.7,1086.2 427.9,1086.2 "/>
<polyline class="st56" points="1452.2,390.3 1452.2,347.1 467.8,347.1 467.8,390.3 "/>
<g>
	<rect x="94.4" y="743.4" class="st5" width="290.3" height="29.6"/>
	<path class="st57" d="M152.3,747.4V744h7.5V773h-3.7v-25.6H152.3z"/>
	<path class="st57" d="M173.6,763.3c1.9-1.7,3.5-3.6,4.9-5.5c1.3-1.9,2-3.8,2-5.6c0-1.7-0.4-3.1-1.3-4.1s-2.2-1.5-4.1-1.5
		c-1.8,0-3.2,0.6-4.2,1.7c-1,1.1-1.5,2.6-1.6,4.5h-3.5c0.1-3,1-5.3,2.7-6.9c1.7-1.6,3.9-2.4,6.6-2.4c2.7,0,4.9,0.8,6.5,2.3
		c1.6,1.5,2.4,3.6,2.4,6.3c0,2.2-0.7,4.4-2,6.5c-1.3,2.1-2.8,3.9-4.5,5.5s-3.8,3.4-6.4,5.5h13.8v3h-19.2V770
		C169,767.3,171.7,765.1,173.6,763.3z"/>
	<path class="st57" d="M200.5,746.8c-0.5-0.5-0.7-1.1-0.7-1.8s0.2-1.3,0.7-1.8s1.1-0.7,1.8-0.7c0.7,0,1.2,0.2,1.7,0.7
		c0.5,0.5,0.7,1.1,0.7,1.8s-0.2,1.3-0.7,1.8c-0.5,0.5-1,0.7-1.7,0.7C201.5,747.5,201,747.2,200.5,746.8z M204,751V773h-3.6V751H204z
		"/>
	<path class="st57" d="M227.4,753.1c1.7,1.6,2.5,3.9,2.5,7V773h-3.6v-12.4c0-2.2-0.5-3.9-1.6-5c-1.1-1.2-2.6-1.7-4.5-1.7
		c-1.9,0-3.4,0.6-4.6,1.8c-1.1,1.2-1.7,2.9-1.7,5.2V773h-3.6V751h3.6v3.1c0.7-1.1,1.7-2,2.9-2.6c1.2-0.6,2.6-0.9,4.1-0.9
		C223.5,750.6,225.7,751.5,227.4,753.1z"/>
	<path class="st57" d="M235.8,756c0.9-1.7,2.2-3,3.8-3.9c1.6-0.9,3.5-1.4,5.5-1.4c2.7,0,4.9,0.7,6.7,2c1.7,1.3,2.9,3.1,3.5,5.4h-3.9
		c-0.4-1.3-1.1-2.4-2.2-3.2s-2.4-1.2-4-1.2c-2.1,0-3.8,0.7-5,2.1c-1.3,1.4-1.9,3.4-1.9,6.1c0,2.6,0.6,4.7,1.9,6.1
		c1.3,1.4,3,2.2,5,2.2c1.6,0,2.9-0.4,4-1.1c1.1-0.7,1.8-1.8,2.2-3.2h3.9c-0.6,2.2-1.8,4-3.5,5.4c-1.8,1.3-4,2-6.6,2
		c-2.1,0-3.9-0.5-5.5-1.4c-1.6-0.9-2.9-2.3-3.8-4c-0.9-1.7-1.4-3.7-1.4-6C234.4,759.7,234.9,757.7,235.8,756z"/>
	<path class="st57" d="M275.4,751.7c1.3,0.7,2.4,1.8,3.1,3.2c0.8,1.4,1.1,3.1,1.1,5.2V773h-3.6v-12.4c0-2.2-0.5-3.9-1.6-5
		c-1.1-1.2-2.6-1.7-4.5-1.7c-1.9,0-3.4,0.6-4.6,1.8c-1.1,1.2-1.7,2.9-1.7,5.2V773h-3.6v-29.6h3.6v10.8c0.7-1.1,1.7-2,3-2.6
		c1.3-0.6,2.7-0.9,4.3-0.9C272.6,750.6,274.1,751,275.4,751.7z"/>
	<path class="st57" d="M305.6,763.4H288c0.1,2.2,0.9,3.8,2.2,5.1c1.3,1.2,3,1.8,4.9,1.8c1.6,0,2.9-0.4,3.9-1.1
		c1.1-0.7,1.8-1.7,2.2-2.9h3.9c-0.6,2.1-1.8,3.8-3.5,5.1c-1.8,1.3-3.9,2-6.6,2c-2.1,0-3.9-0.5-5.6-1.4c-1.6-0.9-2.9-2.3-3.9-4
		c-0.9-1.7-1.4-3.7-1.4-6s0.5-4.3,1.4-6c0.9-1.7,2.2-3,3.8-3.9c1.6-0.9,3.5-1.4,5.7-1.4c2.1,0,3.9,0.5,5.5,1.4
		c1.6,0.9,2.8,2.2,3.7,3.7c0.9,1.6,1.3,3.4,1.3,5.4C305.7,761.9,305.6,762.6,305.6,763.4z M301,756.8c-0.6-1-1.4-1.8-2.5-2.3
		c-1.1-0.5-2.2-0.8-3.5-0.8c-1.8,0-3.4,0.6-4.7,1.8c-1.3,1.2-2,2.8-2.2,4.9h13.8C301.9,759,301.6,757.8,301,756.8z"/>
	<path class="st57" d="M313.7,772.5c-1.3-0.6-2.4-1.4-3.2-2.4c-0.8-1-1.2-2.2-1.3-3.5h3.8c0.1,1.1,0.6,2,1.5,2.7
		c0.9,0.7,2.1,1,3.6,1c1.4,0,2.5-0.3,3.3-0.9c0.8-0.6,1.2-1.4,1.2-2.3c0-1-0.4-1.7-1.3-2.1c-0.9-0.5-2.2-0.9-4-1.4
		c-1.6-0.4-3-0.9-4-1.3c-1-0.4-1.9-1.1-2.6-2c-0.7-0.9-1.1-2-1.1-3.4c0-1.1,0.3-2.1,1-3.1c0.7-0.9,1.6-1.7,2.8-2.2
		c1.2-0.5,2.6-0.8,4.2-0.8c2.4,0,4.4,0.6,5.9,1.8c1.5,1.2,2.3,2.9,2.4,5h-3.6c-0.1-1.1-0.5-2.1-1.4-2.8c-0.8-0.7-2-1-3.4-1
		c-1.3,0-2.3,0.3-3.1,0.8c-0.8,0.6-1.2,1.3-1.2,2.2c0,0.7,0.2,1.3,0.7,1.8c0.5,0.5,1.1,0.8,1.8,1.1c0.7,0.3,1.7,0.6,2.9,0.9
		c1.6,0.4,2.9,0.8,3.8,1.3c1,0.4,1.8,1,2.5,1.9c0.7,0.8,1.1,1.9,1.1,3.2c0,1.2-0.3,2.3-1,3.2s-1.6,1.7-2.8,2.3
		c-1.2,0.5-2.6,0.8-4.2,0.8C316.6,773.3,315.1,773,313.7,772.5z"/>
</g>
<g>
	<rect x="814.8" y="265.6" class="st5" width="290.3" height="29.6"/>
	<path class="st57" d="M871.7,269.6v-3.3h7.5v28.9h-3.7v-25.6H871.7z"/>
	<path class="st57" d="M887.3,277.6c-0.8-1.1-1.2-2.5-1.2-4.1c0-1.4,0.4-2.7,1.1-3.9c0.7-1.2,1.8-2.1,3.2-2.8c1.4-0.7,3.2-1,5.2-1
		s3.8,0.3,5.2,1c1.4,0.7,2.5,1.6,3.2,2.8c0.7,1.2,1.1,2.5,1.1,3.9c0,1.5-0.4,2.9-1.2,4.1c-0.8,1.2-2,2-3.4,2.6
		c1.7,0.5,3,1.4,3.9,2.7c1,1.3,1.5,2.8,1.5,4.6c0,1.7-0.4,3.2-1.3,4.5c-0.9,1.3-2.1,2.3-3.6,3c-1.6,0.7-3.4,1.1-5.4,1.1
		s-3.8-0.4-5.3-1.1c-1.5-0.7-2.7-1.7-3.6-3c-0.9-1.3-1.3-2.8-1.3-4.5c0-1.8,0.5-3.3,1.4-4.6c1-1.3,2.3-2.2,3.9-2.6
		C889.2,279.6,888.1,278.7,887.3,277.6z M890.7,283.1c-1.3,0.9-1.9,2.3-1.9,4.1c0,1.7,0.6,3.1,1.8,4.1c1.2,1,2.8,1.6,4.9,1.6
		s3.7-0.5,4.9-1.6s1.8-2.4,1.8-4.1c0-1.8-0.6-3.2-1.8-4.1c-1.2-0.9-2.8-1.4-4.8-1.4C893.6,281.8,892,282.2,890.7,283.1z
		 M899.9,270.2c-1.1-0.9-2.5-1.3-4.4-1.3c-1.8,0-3.3,0.4-4.4,1.3c-1.1,0.9-1.6,2.1-1.6,3.8c0,1.5,0.6,2.7,1.7,3.6
		c1.1,0.9,2.5,1.4,4.3,1.4c1.8,0,3.2-0.5,4.3-1.4c1.1-0.9,1.7-2.1,1.7-3.6C901.5,272.3,901,271.1,899.9,270.2z"/>
	<path class="st57" d="M922.1,269c-0.5-0.5-0.7-1.1-0.7-1.8c0-0.7,0.2-1.3,0.7-1.8c0.5-0.5,1.1-0.7,1.8-0.7c0.7,0,1.2,0.2,1.7,0.7
		c0.5,0.5,0.7,1.1,0.7,1.8c0,0.7-0.2,1.3-0.7,1.8c-0.5,0.5-1,0.7-1.7,0.7C923.1,269.7,922.5,269.5,922.1,269z M925.6,273.3v21.9
		h-3.6v-21.9H925.6z"/>
	<path class="st57" d="M948.9,275.3c1.7,1.6,2.5,3.9,2.5,7v12.9h-3.6v-12.4c0-2.2-0.5-3.9-1.6-5c-1.1-1.2-2.6-1.7-4.5-1.7
		c-1.9,0-3.4,0.6-4.6,1.8c-1.1,1.2-1.7,2.9-1.7,5.2v12.1h-3.6v-21.9h3.6v3.1c0.7-1.1,1.7-2,2.9-2.6c1.2-0.6,2.6-0.9,4.1-0.9
		C945.1,272.9,947.3,273.7,948.9,275.3z"/>
	<path class="st57" d="M957.4,278.3c0.9-1.7,2.2-3,3.8-3.9c1.6-0.9,3.5-1.4,5.5-1.4c2.7,0,4.9,0.7,6.7,2c1.7,1.3,2.9,3.1,3.5,5.4
		h-3.9c-0.4-1.3-1.1-2.4-2.2-3.2c-1.1-0.8-2.4-1.2-4-1.2c-2.1,0-3.8,0.7-5,2.1c-1.3,1.4-1.9,3.4-1.9,6.1c0,2.6,0.6,4.7,1.9,6.1
		c1.3,1.4,3,2.2,5,2.2c1.6,0,2.9-0.4,4-1.1c1.1-0.7,1.8-1.8,2.2-3.2h3.9c-0.6,2.2-1.8,4-3.5,5.4c-1.8,1.3-4,2-6.6,2
		c-2.1,0-3.9-0.5-5.5-1.4c-1.6-0.9-2.9-2.3-3.8-4c-0.9-1.7-1.4-3.7-1.4-6C956,281.9,956.5,280,957.4,278.3z"/>
	<path class="st57" d="M997,273.9c1.3,0.7,2.4,1.8,3.1,3.2c0.8,1.4,1.1,3.1,1.1,5.2v12.9h-3.6v-12.4c0-2.2-0.5-3.9-1.6-5
		c-1.1-1.2-2.6-1.7-4.5-1.7c-1.9,0-3.4,0.6-4.6,1.8c-1.1,1.2-1.7,2.9-1.7,5.2v12.1h-3.6v-29.6h3.6v10.8c0.7-1.1,1.7-2,3-2.6
		c1.3-0.6,2.7-0.9,4.3-0.9C994.2,272.9,995.7,273.2,997,273.9z"/>
	<path class="st57" d="M1027.1,285.6h-17.5c0.1,2.2,0.9,3.8,2.2,5.1c1.3,1.2,3,1.8,4.9,1.8c1.6,0,2.9-0.4,3.9-1.1
		c1.1-0.7,1.8-1.7,2.2-2.9h3.9c-0.6,2.1-1.8,3.8-3.5,5.1c-1.8,1.3-3.9,2-6.6,2c-2.1,0-3.9-0.5-5.6-1.4c-1.6-0.9-2.9-2.3-3.9-4
		c-0.9-1.7-1.4-3.7-1.4-6c0-2.3,0.5-4.3,1.4-6c0.9-1.7,2.2-3,3.8-3.9c1.6-0.9,3.5-1.4,5.7-1.4c2.1,0,3.9,0.5,5.5,1.4
		c1.6,0.9,2.8,2.2,3.7,3.7c0.9,1.6,1.3,3.4,1.3,5.4C1027.3,284.1,1027.2,284.8,1027.1,285.6z M1022.6,279.1c-0.6-1-1.4-1.8-2.5-2.3
		s-2.2-0.8-3.5-0.8c-1.8,0-3.4,0.6-4.7,1.8c-1.3,1.2-2,2.8-2.2,4.9h13.8C1023.5,281.3,1023.2,280.1,1022.6,279.1z"/>
	<path class="st57" d="M1035.3,294.7c-1.3-0.6-2.4-1.4-3.2-2.4c-0.8-1-1.2-2.2-1.3-3.5h3.8c0.1,1.1,0.6,2,1.5,2.7
		c0.9,0.7,2.1,1,3.6,1c1.4,0,2.5-0.3,3.3-0.9c0.8-0.6,1.2-1.4,1.2-2.3c0-1-0.4-1.7-1.3-2.1c-0.9-0.5-2.2-0.9-4-1.4
		c-1.6-0.4-3-0.9-4-1.3s-1.9-1.1-2.6-2c-0.7-0.9-1.1-2-1.1-3.4c0-1.1,0.3-2.1,1-3.1c0.7-0.9,1.6-1.7,2.8-2.2
		c1.2-0.5,2.6-0.8,4.2-0.8c2.4,0,4.4,0.6,5.9,1.8c1.5,1.2,2.3,2.9,2.4,5h-3.6c-0.1-1.1-0.5-2.1-1.4-2.8c-0.8-0.7-2-1-3.4-1
		c-1.3,0-2.3,0.3-3.1,0.8c-0.8,0.6-1.2,1.3-1.2,2.2c0,0.7,0.2,1.3,0.7,1.8c0.5,0.5,1.1,0.8,1.8,1.1c0.7,0.3,1.7,0.6,2.9,0.9
		c1.6,0.4,2.9,0.8,3.8,1.3c1,0.4,1.8,1,2.5,1.9c0.7,0.8,1.1,1.9,1.1,3.2c0,1.2-0.3,2.3-1,3.2c-0.7,1-1.6,1.7-2.8,2.3
		c-1.2,0.5-2.6,0.8-4.2,0.8C1038.1,295.6,1036.6,295.3,1035.3,294.7z"/>
</g>
</svg>
