<svg width="1024" height="768" viewBox="0 0 1024 768" fill="none" xmlns="http://www.w3.org/2000/svg">
<g clip-path="url(#clip0_22_2)">
<rect width="1024" height="768" fill="#121212"/>
<path d="M421.481 459.229H417.145C417.179 466.204 412.942 474.313 406.72 480.528C400.526 486.773 392.441 491.02 385.489 490.986V495.344C392.441 495.31 400.525 499.561 406.72 505.802C412.945 512.016 417.179 520.127 417.145 527.103H421.484C421.451 520.129 425.688 512.019 431.909 505.802C438.103 499.558 446.189 495.31 453.143 495.344V490.991C446.191 491.025 438.107 486.774 431.909 480.533C425.682 474.316 421.447 466.204 421.481 459.229ZM605.845 241.894H601.506C601.54 248.868 597.302 256.977 591.081 263.193C584.887 269.437 576.802 273.685 569.849 273.651V278.009C576.802 277.975 584.885 282.226 591.081 288.467C597.305 294.68 601.54 302.791 601.506 309.767H605.845C605.811 302.793 610.049 294.684 616.27 288.467C622.464 282.222 630.549 277.975 637.503 278.009V273.656C630.551 273.69 622.467 269.439 616.27 263.198C610.046 256.984 605.811 248.866 605.845 241.894ZM501.953 436.506H506.292C506.337 431.026 508.061 425.692 511.23 421.228C515.713 414.627 522.635 409.571 528.45 406.237C530.851 404.855 533.325 403.605 535.862 402.493C536.806 402.08 537.562 401.773 538.08 401.572L538.665 401.348L538.851 401.28L540.306 400.769V334.818H463.694V339.171H463.778C470.728 339.402 477.573 340.936 483.96 343.694C488.851 345.786 493.137 349.082 496.422 353.277C500.226 358.531 502.172 364.908 501.951 371.398L501.953 436.506ZM552.954 518.213C549.466 516.588 546.454 514.09 544.206 510.96C541.491 506.873 540.124 502.034 540.3 497.125V423.484H535.962C535.917 428.963 534.193 434.296 531.024 438.759C526.541 445.364 519.619 450.416 513.804 453.754C511.403 455.134 508.928 456.382 506.393 457.494C505.452 457.908 504.692 458.214 504.176 458.415L503.588 458.639L503.402 458.707L501.947 459.218V460.764C501.947 469.494 501.947 486.04 501.947 499.998C502.101 504.404 501.151 508.78 499.185 512.723C497.24 516.365 494.012 519.149 490.131 520.533C488.872 520.997 487.569 521.329 486.241 521.522C485.756 521.59 485.357 521.624 485.1 521.64L484.817 521.655H484.757V526.008H567.238V521.655H567.185C562.26 521.472 557.421 520.301 552.954 518.213ZM437.274 389.478C433.086 373.156 431.057 356.353 431.239 339.5C431.239 321.288 433.434 299.09 439.888 281.123C442.645 272.739 447.061 265.001 452.871 258.371C458.159 252.454 465.381 248.629 473.234 247.587L475.126 247.34V242.894L472.875 242.982C444.844 244.012 423.101 254.055 408.528 271.103C393.954 288.151 386.57 311.975 386.574 340.342C386.565 371.273 395.375 396.249 412.165 413.449C428.956 430.65 453.555 439.887 484.502 439.887V435.533C475.231 435.721 466.184 432.666 458.913 426.893C448.603 418.727 441.609 405.191 437.274 389.478ZM602.563 343.381C590.064 337.697 574.823 335.067 557.779 334.84L555.58 334.81V339.129L557.635 339.239C563.67 339.427 569.522 341.363 574.485 344.814C581.275 349.64 585.994 357.406 589 367.048C592.03 377.742 593.465 388.828 593.257 399.944C593.265 414.653 591.061 430.333 585.458 442.22C582.986 447.844 579.229 452.805 574.491 456.703C569.662 460.453 563.764 462.556 557.659 462.704L555.581 462.791V467.123L557.777 467.097C581.076 466.813 600.691 460.477 614.555 448.856C628.419 437.235 636.37 420.33 636.347 399.605C636.571 389.51 634.584 379.489 630.527 370.248C624.812 357.886 615.056 349.055 602.563 343.381ZM505.165 254.056C510.296 258.747 513.461 265.543 515.299 272.76C516.928 279.578 517.718 286.569 517.653 293.579C517.653 297.103 517.48 300.112 517.311 302.23C517.227 303.288 517.149 304.125 517.079 304.692C517.049 304.976 517.02 305.192 517.003 305.341L516.978 305.545L521.254 306.274L521.322 305.959C522.764 299.65 524.679 293.459 527.052 287.44C530.656 278.244 536.133 267.569 543.705 259.989L545.473 258.205L543.468 256.7C543.194 256.488 526.874 244.34 492.286 243.013L490.034 242.925V247.423L491.848 247.726C496.815 248.468 501.448 250.669 505.165 254.056ZM334.94 614H306V155H717V614H334.94ZM334.94 584.968H688.044V184.035H334.94V584.968Z" fill="url(#paint0_linear_22_2)"/>
</g>
<defs>
<linearGradient id="paint0_linear_22_2" x1="306.212" y1="155" x2="716.57" y2="614.219" gradientUnits="userSpaceOnUse">
<stop stop-color="#FAF093"/>
<stop offset="0.4" stop-color="#F3BE4A"/>
<stop offset="1" stop-color="#985724"/>
</linearGradient>
<clipPath id="clip0_22_2">
<rect width="1024" height="768" fill="white"/>
</clipPath>
</defs>
</svg>
