<svg width="682" height="682" viewBox="0 0 682 682" fill="none" xmlns="http://www.w3.org/2000/svg">
<rect width="682" height="682" fill="#121212"/>
<path d="M258.214 409.381H254.224C254.255 415.761 250.361 423.184 244.637 428.871C238.94 434.584 231.503 438.471 225.109 438.44V442.422C231.501 442.391 238.939 446.278 244.637 451.991C250.361 457.676 254.255 465.099 254.224 471.481H258.214C258.183 465.099 262.077 457.675 267.801 451.991C273.498 446.278 280.935 442.391 287.329 442.422V438.44C280.934 438.471 273.497 434.584 267.801 428.871C262.077 423.184 258.185 415.761 258.214 409.381ZM427.775 210.515H423.785C423.817 216.896 419.922 224.319 414.198 230.006C408.502 235.719 401.064 239.606 394.67 239.574V243.557C401.062 243.526 408.5 247.412 414.198 253.126C419.922 258.811 423.817 266.234 423.785 272.616H427.775C427.744 266.233 431.638 258.81 437.363 253.126C443.059 247.412 450.496 243.526 456.891 243.557V239.574C450.496 239.606 443.058 235.719 437.363 230.006C431.638 224.319 427.744 216.896 427.775 210.515ZM332.224 388.595H336.216C336.257 383.58 337.843 378.699 340.758 374.615C344.881 368.574 351.248 363.948 356.595 360.897C358.803 359.632 361.078 358.489 363.411 357.471C364.279 357.093 364.975 356.812 365.451 356.628L365.99 356.423L366.162 356.361L367.495 355.894V295.54H297.038V299.519H297.118C303.509 299.731 309.804 301.135 315.678 303.658C320.175 305.572 324.116 308.588 327.136 312.425C330.178 316.471 332.211 321.758 332.22 329.008L332.224 388.595ZM379.132 463.357C375.925 461.869 373.154 459.584 371.086 456.719C368.95 453.659 367.501 449.632 367.494 444.06V376.675H363.504C363.462 381.689 361.876 386.568 358.962 390.652C354.839 396.693 348.472 401.319 343.125 404.373C340.917 405.635 338.641 406.778 336.309 407.795C335.443 408.173 334.744 408.454 334.271 408.638L333.73 408.843L333.558 408.905L332.224 409.373V410.787C332.224 418.775 332.224 433.916 332.224 446.687C332.216 451.861 331.169 455.597 329.684 458.332C327.895 461.663 324.928 464.211 321.36 465.477C320.202 465.902 319.003 466.205 317.782 466.382C317.33 466.444 316.969 466.476 316.733 466.491L316.474 466.504L316.419 470.487H392.277V466.504C387.745 466.337 383.243 465.268 379.132 463.357ZM272.741 345.557C268.751 331.193 267.191 314.904 267.191 299.826C267.187 283.16 269.209 262.849 275.146 246.41C278.11 238.188 282.043 230.95 287.089 225.591C292.135 220.231 298.231 216.715 305.817 215.723L307.556 215.498V211.429L305.487 211.509C279.706 212.451 259.709 221.642 246.3 237.24C232.892 252.839 226.106 274.64 226.108 300.597C226.1 328.899 234.204 351.753 249.646 367.492C265.088 383.231 287.705 391.69 316.174 391.679V387.697C306.626 387.686 298.965 384.78 292.639 379.791C283.158 372.318 276.726 359.934 272.741 345.557ZM424.76 303.379C413.264 298.177 399.247 295.771 383.566 295.566L381.543 295.538V299.49L383.433 299.592C388.983 299.764 394.363 301.536 398.927 304.693C405.179 309.109 409.513 316.216 412.276 325.038C415.039 333.86 416.191 344.308 416.191 355.138C416.199 368.597 414.174 382.945 409.018 393.822C406.445 399.266 403.115 403.828 398.931 407.073C394.49 410.506 389.066 412.432 383.45 412.568L381.539 412.649V416.603L383.557 416.58C404.986 416.321 423.025 410.521 435.776 399.888C448.533 389.269 455.841 373.786 455.82 354.822C455.82 344.425 453.964 335.499 450.462 327.964C445.219 316.647 436.25 308.57 424.76 303.379ZM335.182 221.644C339.901 225.936 342.813 232.155 344.503 238.759C345.999 244.997 346.726 251.394 346.665 257.808C346.665 261.03 346.504 263.787 346.35 265.724C346.27 266.691 346.195 267.458 346.137 267.98C346.109 268.239 346.083 268.436 346.067 268.568L346.044 268.755L349.977 269.422L350.039 269.134C351.365 263.36 353.126 257.696 355.308 252.188C358.623 243.773 363.661 234.004 370.626 227.068L372.253 225.442L370.41 224.064C370.158 223.869 355.148 212.754 323.338 211.539L321.266 211.459V215.574L322.935 215.852C327.501 216.531 331.764 218.547 335.182 221.644ZM178.621 551H152V131H530V551H178.621ZM178.621 524.43H503.382V157.569H178.621V524.43Z" fill="url(#paint0_linear_17_2)"/>
<defs>
<linearGradient id="paint0_linear_17_2" x1="82.627" y1="83.124" x2="598.378" y2="599.871" gradientUnits="userSpaceOnUse">
<stop stop-color="#FAF093"/>
<stop offset="0.4" stop-color="#F3BE4A"/>
<stop offset="1" stop-color="#985724"/>
</linearGradient>
</defs>
</svg>
