<svg width="682" height="682" viewBox="0 0 682 682" fill="none" xmlns="http://www.w3.org/2000/svg">
<rect width="682" height="682" fill="#F9B110"/>
<path d="M306.895 173.119C306.823 173.451 299.474 206.299 283.265 206.299C274.07 206.299 273.076 195.761 273.076 191.231C273.076 183.938 274.871 176.861 276.769 169.369C278.806 161.334 280.913 153.025 280.913 143.856C280.913 126.066 272.453 111.449 256.451 101.596C242.509 93.0117 223.12 88 201.852 88C180.702 88 155.141 96.8229 135.142 111.042C124.756 118.419 116.142 127.368 110.232 136.367C103.659 146.374 100.186 156.732 100.186 167.152C100.186 181.442 109.13 196.7 128.349 199.94L128.387 199.94C130.942 200.36 133.527 200.568 136.116 200.56C153.648 200.56 179.435 193.105 199.861 180.525C206.135 176.66 211.817 172.481 216.728 168.141C230.592 156.019 238.01 141.867 238.01 129.808C238.01 119.774 234.747 111.407 228.571 105.61C222.313 99.7344 213.172 96.6291 202.136 96.6291C183.117 96.6291 159.757 104.83 141.174 118.035C131.654 124.799 123.734 132.657 118.276 140.765C112.217 149.762 109.143 158.935 109.143 168.031C109.143 176.894 112.108 184.52 117.72 190.069C120.682 193.001 124.282 195.252 128.323 196.75L128.34 198.775C109.909 195.551 101.322 180.889 101.322 167.15C101.322 147.488 113.658 127.709 135.8 111.972C155.615 97.8889 180.926 89.1397 201.852 89.1397C228.358 89.1397 243.819 102.848 245.93 127.396C246.08 130.617 245.952 133.844 245.546 137.042C243.987 148.312 238.613 158.054 231.027 166.501C227.124 170.721 222.849 174.417 218.71 177.821C204.583 188.779 187.163 197.016 171.996 203.314C169.573 204.32 167.145 205.321 164.711 206.318C147.096 213.55 128.88 221.039 115.467 230.859C108.218 236.166 102.895 241.72 99.1902 247.841C95.024 254.723 93 262.132 93 270.492C93 282.006 97.0191 292.634 104.317 300.418C111.842 308.444 122.423 312.857 134.111 312.857C176.255 312.857 206.666 253.819 218.744 225.741L221.814 225.728C215.587 238.822 205.308 263.113 205.308 280.78C205.308 300.83 213.258 313 230.181 313C241.309 313 252.331 305.874 262.941 291.257C271.367 279.648 279.572 263.472 287.321 243.179C300.468 208.77 307.883 173.912 308 173.358L306.895 173.119ZM243.385 155.923L243.366 155.923L243.356 155.965C240.007 170.671 234.969 184.057 229.17 193.664C222.628 204.5 215.338 210.228 208.089 210.228C203.019 210.228 199.992 206.923 199.992 201.386C199.992 194.469 207.061 188.745 216.005 181.497C217.111 180.6 218.237 179.684 219.382 178.749C224.287 174.946 228.811 170.814 232.716 166.324C234.353 164.495 235.889 162.578 237.318 160.581C241.331 154.956 244.098 149.036 245.638 142.714C245.128 147.155 244.375 151.564 243.385 155.923Z" fill="#1A1A1A"/>
<path d="M514.528 169.878L577.7 117.875C561.991 117.875 526.001 85.9054 526.001 85.9054C521.769 85.9054 502.913 101.312 494.43 108.428C489.957 93.0904 479.213 82 462.161 82C427.752 82 384 118.068 384 152.031C384 173.572 410.518 196.662 410.518 214.722C410.518 227.285 396.59 227.602 396.59 227.602C399.011 232.184 404.446 233.058 409.278 231.119C421.814 226.086 438.86 206.561 438.86 189.902C438.86 170.192 412.46 148.583 412.46 128.961C412.46 116.867 424.91 103.195 437.588 103.195C456.244 103.195 458.672 126.004 458.672 145.508C458.672 172.861 453.876 216.188 440.909 244.244C438.222 243.299 435.676 242.768 433.307 242.768C420.24 242.768 407.366 258.039 401.049 269.97C396.705 278.176 396.595 283.054 403.168 290.12C403.168 290.12 401.89 275.155 413.104 275.155C438.925 275.155 466.969 319 494.353 319C535.193 319 579 266.136 579 228.822C578.997 202.721 542.873 174.193 514.528 169.878ZM532.042 139.818L488.863 175.826C493.928 158.082 496.813 140.627 496.813 126.14C496.817 123.034 496.611 119.931 496.195 116.852C504.535 123.53 520.043 135.195 532.042 139.818ZM518.554 290.097C500.032 290.097 473.884 263.393 452.517 250.103C464.094 236.041 474.239 216.937 481.89 196.818C511.247 200.347 551.093 228.206 551.093 253.873C551.093 270.975 536.961 290.097 518.554 290.097Z" fill="#1A1A1A"/>
<path d="M273.67 361C269.606 361 264.238 364.714 258.29 370.79L258.318 370.771C260.456 369.382 262.633 368.059 264.893 366.891C266.49 366.071 268.131 365.338 269.808 364.697C269.846 364.682 269.888 364.682 269.926 364.697C269.963 364.712 269.994 364.741 270.011 364.778C270.029 364.814 270.032 364.856 270.019 364.895C270.007 364.934 269.981 364.966 269.946 364.986C268.401 365.851 266.905 366.799 265.464 367.827C263.44 369.276 261.514 370.87 259.648 372.513C257.781 374.157 256.002 375.901 254.268 377.678C252.835 379.156 251.41 380.689 250.084 382.227C249.981 382.345 249.855 382.442 249.714 382.51C249.573 382.578 249.419 382.617 249.262 382.624C249.105 382.631 248.949 382.606 248.802 382.55C248.655 382.495 248.521 382.41 248.409 382.301V382.301C246.945 384.19 245.472 386.161 243.989 388.213C235.557 375.548 222.925 365.93 210.058 365.694C210.058 365.694 220.211 369.137 218.019 369.137C211.256 369.137 203.547 371.067 198.114 373.3C193.922 375.023 188.998 377.769 185.194 380.282C181.386 382.81 177.741 385.575 174.28 388.562C170.823 391.565 167.537 394.764 164.368 398.084C158.101 404.791 152.384 412.025 147.164 419.608C141.943 427.191 137.237 435.13 132.877 443.245C137.058 435.027 141.616 426.993 146.664 419.262C151.711 411.531 157.301 404.155 163.475 397.257C166.594 393.841 169.836 390.536 173.275 387.419C176.723 384.308 180.364 381.418 184.175 378.766C187.257 376.617 190.481 374.681 193.825 372.97C191.674 373.838 189.573 374.827 187.533 375.932C180.495 379.766 174.075 384.815 168.16 390.377C162.246 395.938 156.82 402.094 151.784 408.537C146.764 415.014 142.094 421.758 137.797 428.739C129.17 442.732 121.886 457.512 116.041 472.882C113.136 480.574 110.629 488.425 108.696 496.427C106.763 504.429 105.424 512.595 105.285 520.846C105.242 512.595 106.414 504.369 108.164 496.306C109.913 488.243 112.267 480.299 115.016 472.51C120.556 456.914 127.557 441.879 135.926 427.607C140.115 420.459 144.684 413.541 149.614 406.885C154.576 400.239 159.951 393.876 165.889 388.019C171.827 382.161 178.337 376.807 185.677 372.591C189.368 370.466 193.269 368.73 197.318 367.411C197.728 367.28 198.142 367.16 198.555 367.041C148.925 379.001 101 467.846 101 524.932C101 550.726 119.461 585.07 144.517 585.07C146.452 585.054 148.381 584.828 150.268 584.395C155.798 592.229 164.769 602 175.114 602C178.369 602 185.075 599.06 184.592 599.16C181.811 599.767 178.964 600.025 176.119 599.928C174.709 599.86 173.307 599.678 171.926 599.384C170.556 599.066 170.647 598.71 172.01 598.844C173.372 598.95 174.739 598.947 176.1 598.834C178.801 598.57 181.459 597.97 184.013 597.048C186.559 596.139 189.026 595.019 191.386 593.698C193.427 592.569 195.395 591.311 197.276 589.93C197.384 589.849 197.507 589.791 197.638 589.759C197.768 589.727 197.904 589.723 198.037 589.745C198.17 589.768 198.297 589.817 198.41 589.89C198.523 589.963 198.62 590.059 198.696 590.171V590.171C223.773 569.421 253.742 526.15 263.103 499.569C261.85 501.547 260.594 503.52 259.334 505.489C254.456 513.078 249.438 520.574 244.28 527.978C239.104 535.368 233.765 542.644 228.112 549.674C225.278 553.182 222.368 556.63 219.326 559.962C216.284 563.295 216.02 563.033 218.917 559.6C221.814 556.167 224.57 552.614 227.249 549.009C232.598 541.783 237.612 534.325 242.465 526.762C247.318 519.199 251.994 511.52 256.544 503.77C259.756 498.292 262.908 492.777 266 487.224C266.031 486.747 266.047 486.284 266.047 485.836C266.047 482.185 266.107 479.115 266.45 476.434L253.839 493.678C253.831 493.688 253.819 493.695 253.806 493.697C253.794 493.699 253.781 493.696 253.77 493.689C253.759 493.682 253.752 493.671 253.748 493.659C253.745 493.647 253.746 493.633 253.752 493.622L272.35 461.096C271.757 460.33 270.865 459.815 270.356 459.565C268.202 463.332 265.996 467.068 263.755 470.787C260.671 475.897 257.514 480.962 254.285 485.982C247.833 496.023 241.056 505.842 233.954 515.441C230.374 520.215 226.725 524.931 222.925 529.534C219.124 534.136 215.194 538.624 211.109 542.969C206.993 547.284 202.713 551.449 198.181 555.321C193.648 559.193 193.524 559.019 197.983 555.091C202.441 551.162 206.636 546.926 210.666 542.553C214.668 538.15 218.502 533.6 222.219 528.957C225.936 524.314 229.49 519.538 232.977 514.72C237.796 508.011 242.44 501.183 246.908 494.235C228.576 519.468 201.458 551.663 173.457 566.55C171.928 567.405 170.354 568.179 168.744 568.869C167.11 569.57 165.432 570.167 163.722 570.654C165.354 569.979 166.941 569.201 168.474 568.324C169.831 567.54 171.154 566.702 172.429 565.798C171.018 561.877 168.471 557.061 166.409 554.576C165.65 555.217 164.894 555.825 164.121 556.437C163.07 557.263 161.999 558.061 160.908 558.831C159.818 559.599 158.705 560.336 157.548 561.004C156.392 561.672 155.978 561.065 156.876 560.135C157.774 559.205 158.611 558.225 159.421 557.221C159.586 557.016 159.745 556.808 159.906 556.602C154.268 561.329 146.57 566.126 140.607 566.126C132.196 566.126 129.657 554.889 129.657 546.307C129.657 507.333 168.639 427.958 208.112 405.888C207.656 406.131 207.203 406.381 206.753 406.636C203.525 408.484 200.433 410.561 197.5 412.849C194.558 415.132 191.733 417.562 189.038 420.133C183.659 425.304 178.653 430.851 174.056 436.732C169.434 442.601 165.122 448.709 161.138 455.03C157.105 461.322 153.399 467.828 149.945 474.46C146.458 481.081 143.325 487.878 140.43 494.783C137.568 501.696 134.985 508.736 132.871 515.922C130.758 523.109 129.073 530.434 128.216 537.91C128.535 530.386 129.902 522.923 131.722 515.606C133.599 508.294 135.92 501.103 138.672 494.074C144.131 479.999 151.022 466.489 159.091 453.723C163.168 447.369 167.514 441.177 172.265 435.296C177.015 429.416 182.127 423.816 187.75 418.755C193.351 413.683 199.46 409.102 206.19 405.601C209.565 403.887 213.086 402.443 216.737 401.455C220.376 400.457 224.142 399.996 227.914 400.086V400.086C230.506 400.086 232.926 400.557 235.022 401.468C218.911 426.725 204.807 456.639 204.807 468.612C204.807 473.249 207.474 477.037 210.614 479.902C210.028 478.684 209.561 477.413 209.219 476.105C208.687 474.088 208.503 471.995 208.677 469.916C208.864 471.932 209.396 473.902 210.248 475.738C211.087 477.529 212.177 479.191 213.485 480.673C214.775 482.144 216.217 483.473 217.786 484.639C218.141 484.905 218.509 485.162 218.868 485.411C219.922 485.93 220.591 486.199 220.591 486.199C220.604 485.81 220.636 485.423 220.676 485.04C221.78 476.115 234.765 456.965 250.169 438.852C253.275 435.547 256.47 432.331 259.784 429.248C263.194 426.068 266.723 423.016 270.385 420.179C274.047 417.342 277.854 414.696 281.847 412.515C283.842 411.432 294.098 404.185 294.098 404.185C292.768 404.229 291.446 404.409 290.153 404.723C288.921 405.029 287.71 405.416 286.528 405.882C284.253 406.805 282.054 407.909 279.953 409.182C279.013 409.744 294.35 397.647 299.167 397.647C304.408 397.637 283.602 361 273.67 361ZM129.743 575.735C130.568 576.491 132.712 575.994 133.782 576.314L133.463 577.556C133.734 577.619 134.001 577.687 134.262 577.761L135.049 577.968C135.307 578.04 135.563 578.121 135.828 578.174C136.867 578.442 137.927 578.56 138.966 578.778C141.061 579.189 143.197 579.473 145.543 579.937L145.576 580.178C143.425 581.266 141.611 581.047 139.215 580.796C138.018 580.629 136.85 580.295 135.745 579.804C134.629 579.353 132.946 579.276 132.036 578.492C131.146 577.731 130.218 577.017 129.254 576.353C128.303 575.703 127.177 575.194 126.248 574.429C125.791 574.046 125.383 573.608 125.034 573.125C124.677 572.648 124.359 572.143 124.081 571.616C123.532 570.561 123.108 569.422 123.045 568.175L123.269 568.079C124.151 568.899 124.899 569.721 125.638 570.543C126.003 570.954 126.368 571.358 126.718 571.771C127.083 572.174 127.422 572.6 127.73 573.048C128.355 573.944 128.904 574.987 129.743 575.735ZM235.28 411.509C234.83 412.4 234.363 413.277 233.872 414.138C233.38 414.998 232.887 415.855 232.38 416.704C231.872 417.553 231.323 418.378 230.756 419.189C229.588 420.791 228.252 422.305 227.197 423.987C226.158 425.684 225.279 427.474 224.57 429.333L224.015 430.72C223.842 431.189 223.661 431.652 223.471 432.111C223.101 433.033 222.68 433.928 222.288 434.837C221.516 436.66 220.727 438.47 219.899 440.262C219.478 441.155 219.031 442.035 218.582 442.919C218.132 443.803 217.7 444.689 217.23 445.565C216.276 447.304 215.392 449.089 214.272 450.792L214.045 450.706C214.207 449.705 214.422 448.719 214.659 447.74C214.896 446.76 215.149 445.785 215.463 444.831C216.052 442.911 216.745 441.024 217.539 439.18C218.31 437.329 219.29 435.576 220.233 433.818C221.188 432.055 222.245 430.348 223.397 428.707C223.964 427.878 224.518 427.045 225.038 426.194C225.559 425.344 226.065 424.486 226.516 423.596C227.448 421.835 228.116 419.914 229.028 418.127C229.483 417.235 229.992 416.372 230.555 415.545C231.1 414.707 231.694 413.899 232.29 413.096C232.886 412.293 233.528 411.518 234.213 410.777C234.88 410.014 235.601 409.299 236.368 408.637L236.564 408.782C236.173 409.721 235.731 410.619 235.28 411.509Z" fill="#1A1A1A"/>
<path d="M508.784 363C458.288 363 382 404.198 382 437.84C382 453.493 396.769 486.919 413.004 486.919C430.922 486.919 449.6 465.777 454.107 459.363C454.541 458.765 453.89 457.95 453.184 458.222C446.125 461.157 420.171 468.711 399.375 460.831C409.04 437.297 446.234 412.187 481.093 399.632C483.427 403.165 485.219 408.872 485.219 417.948C485.219 464.798 450.904 560.998 411.484 560.998C406.76 560.998 403.339 559.259 401.547 558.009C401.004 557.628 400.244 558.118 400.353 558.77C401.818 567.248 408.769 601 426.578 601C502.486 601 581 517.409 581 439.308C581.054 400.556 549.833 363 508.784 363ZM471.265 557.248C489.183 519.583 500.097 466.646 500.097 435.884C500.097 413.437 493.201 402.839 485.979 397.947C498.522 393.817 510.576 391.425 520.675 391.425C549.181 391.425 567.643 408.382 567.643 434.471C567.643 477.788 518.558 539.747 471.265 557.248Z" fill="#1A1A1A"/>
</svg>
