<svg width="682" height="682" viewBox="0 0 682 682" fill="none" xmlns="http://www.w3.org/2000/svg">
<rect width="682" height="682" fill="#F9B110"/>
<path d="M481.011 578C446.786 578 414.176 568.726 381.321 549.691C353.021 533.292 327.657 511.67 303.176 490.731C279.086 470.085 257.738 448.561 232.374 434.016C220.819 444.949 207.452 455.296 196.092 462.276C175.577 474.868 154.718 481.213 134.056 481.213C102.229 481.262 80 461.885 80 434.114C80 416.64 89.352 401.754 106.342 392.285C118.828 385.305 135.084 381.45 152.074 381.45C178.564 381.45 201.576 388.039 223.218 397.459C223.757 396.873 224.247 396.287 224.785 395.701C236.194 382.914 248.581 367.149 259.5 351.921C246.819 350.456 233.745 348.504 221.7 344.746C201.87 338.547 184.047 329.518 168.673 317.95C134.986 292.521 116.38 256.598 116.38 216.771C116.38 202.616 118.926 188.755 123.969 175.528C129.061 162.154 136.455 150.099 145.905 139.8C166.47 117.348 195.407 105 227.331 105C246.966 105 265.131 110.125 279.869 119.74C293.53 128.672 304.008 141.264 310.177 156.151C319.04 177.48 317.914 200.713 307.876 219.602C302.882 229.022 290.151 230.925 282.611 223.36L282.562 223.311C277.666 218.43 276.491 210.914 279.722 204.764C285.402 194.075 285.941 180.653 280.75 168.255C272.525 148.537 252.596 136.725 227.331 136.725C175.92 136.725 148.157 177.968 148.157 216.771C148.157 284.126 213.866 323.514 278.302 324.734C289.711 307.554 302.343 287.299 313.36 269.825C338.234 230.388 361.736 193.148 385.728 164.79C415.204 129.892 441.302 113.688 467.889 113.688C481.844 113.688 494.427 118.666 503.388 127.745C512.054 136.579 516.852 148.683 516.852 161.91C516.852 186.802 509.263 211.841 494.329 236.245C481.011 258.014 461.769 278.952 438.707 296.816C396.647 329.42 345.333 349.334 297.741 352.799C283.443 373.689 267.53 395.067 252.205 412.687C277.617 428.257 301.217 447.194 323.936 466.62C371.823 507.57 417.065 546.275 481.011 546.275C534.381 546.275 570.223 516.746 570.223 472.77C570.223 429.184 528.604 393.7 477.486 393.7C438.315 393.7 417.114 411.125 410.357 427.427C407.027 435.48 406.88 443.533 409.769 450.367C412.266 456.224 410.749 463.057 406.244 467.547C398.214 475.552 384.651 472.818 380.293 462.373C374.271 447.975 374.32 431.234 380.93 415.274C387.344 399.801 399.242 386.623 415.302 377.252C432.635 367.1 453.543 361.975 477.486 361.975C511.222 361.975 542.656 373.543 565.963 394.481C577.273 404.633 586.136 416.543 592.354 429.77C598.768 443.436 602 457.883 602 472.721C602 503.079 589.514 530.363 566.844 549.496C555.925 558.721 542.95 565.847 528.359 570.679C513.768 575.56 497.855 578 481.011 578ZM153.249 412.687C136.259 412.687 111.826 418.885 111.826 434.114C111.826 448.024 127.397 449.537 134.056 449.537C154.767 449.537 178.221 438.653 200.891 419.569C186.3 414.59 169.946 412.687 153.249 412.687ZM467.889 145.413C451.633 145.413 432.733 158.445 410.063 185.241C387.491 211.939 364.576 248.252 340.29 286.762C333.68 297.255 325.601 310.287 318.844 320.781C352.825 313.655 389.351 294.864 419.121 271.826C460.985 239.418 484.977 199.395 484.977 161.959C485.026 151.563 478.612 145.413 467.889 145.413Z" fill="black"/>
</svg>
