<svg width="1024" height="768" viewBox="0 0 1024 768" fill="none" xmlns="http://www.w3.org/2000/svg">
<rect width="1024" height="768" fill="#F9B110"/>
<path d="M668.641 649C630.35 649 593.867 638.629 557.111 617.34C525.448 598.999 497.073 574.817 469.683 551.399C442.732 528.309 418.848 504.236 390.473 487.969C377.545 500.197 362.59 511.769 349.881 519.575C326.929 533.658 303.593 540.755 280.476 540.755C244.87 540.809 220 519.138 220 488.078C220 468.536 230.463 451.887 249.471 441.297C263.44 433.492 281.626 429.179 300.635 429.179C330.27 429.179 356.017 436.548 380.229 447.084C380.831 446.429 381.379 445.774 381.982 445.119C394.745 430.817 408.604 413.185 420.82 396.154C406.632 394.517 392.006 392.333 378.531 388.13C356.345 381.198 336.406 371.099 319.205 358.162C281.517 329.722 260.701 289.546 260.701 245.004C260.701 229.173 263.549 213.671 269.192 198.878C274.889 183.921 283.16 170.438 293.733 158.92C316.74 133.81 349.114 120 384.83 120C406.797 120 427.12 125.732 443.608 136.485C458.892 146.475 470.614 160.558 477.517 177.207C487.432 201.061 486.172 227.045 474.942 248.17C469.354 258.705 455.112 260.834 446.676 252.373L446.621 252.318C441.143 246.86 439.829 238.453 443.444 231.575C449.798 219.621 450.401 204.609 444.594 190.744C435.391 168.691 413.096 155.481 384.83 155.481C327.312 155.481 296.253 201.607 296.253 245.004C296.253 320.333 369.766 364.385 441.855 365.749C454.619 346.535 468.752 323.881 481.077 304.339C508.905 260.233 535.199 218.584 562.041 186.869C595.018 147.839 624.215 129.716 653.96 129.716C669.572 129.716 683.65 135.284 693.675 145.437C703.371 155.318 708.739 168.855 708.739 183.648C708.739 211.487 700.248 239.49 683.541 266.784C668.641 291.129 647.113 314.547 621.312 334.526C574.256 370.99 516.848 393.261 463.603 397.137C447.607 420.5 429.804 444.409 412.658 464.115C441.088 481.528 467.492 502.708 492.909 524.433C546.483 570.231 597.099 613.519 668.641 613.519C728.35 613.519 768.448 580.494 768.448 531.311C768.448 482.565 721.886 442.881 664.697 442.881C620.873 442.881 597.154 462.368 589.595 480.6C585.87 489.607 585.705 498.614 588.937 506.256C591.731 512.806 590.033 520.448 584.993 525.47C576.009 534.422 560.836 531.366 555.96 519.684C549.222 503.581 549.277 484.858 556.672 467.008C563.848 449.704 577.16 434.965 595.127 424.485C614.519 413.131 637.91 407.399 664.697 407.399C702.44 407.399 737.608 420.336 763.683 443.754C776.337 455.108 786.252 468.427 793.209 483.22C800.385 498.504 804 514.662 804 531.256C804 565.209 790.031 595.723 764.669 617.121C752.453 627.438 737.936 635.408 721.612 640.812C705.288 646.271 687.485 649 668.641 649ZM301.95 464.115C282.941 464.115 255.606 471.047 255.606 488.078C255.606 503.636 273.026 505.328 280.476 505.328C303.648 505.328 329.887 493.155 355.25 471.811C338.925 466.244 320.629 464.115 301.95 464.115ZM653.96 165.198C635.773 165.198 614.629 179.772 589.266 209.741C564.013 239.6 538.376 280.212 511.206 323.281C503.811 335.017 494.772 349.592 487.212 361.328C525.229 353.358 566.094 332.342 599.4 306.577C646.236 270.332 673.078 225.571 673.078 183.703C673.133 172.076 665.957 165.198 653.96 165.198Z" fill="#121212"/>
</svg>
