<svg width="1024" height="768" viewBox="0 0 1024 768" fill="none" xmlns="http://www.w3.org/2000/svg">
<rect width="1024" height="768" fill="#5757E0"/>
<path fill-rule="evenodd" clip-rule="evenodd" d="M548.934 455.619C539.988 459.219 530.217 461.2 519.983 461.2C506.094 461.2 493.057 457.551 481.779 451.16C481.083 451.627 480.274 452.134 479.367 452.64C476.149 454.436 471.573 456.302 466.382 456.302C459.911 456.302 454.868 454.062 451.481 450.027C448.139 446.044 446.612 440.556 446.612 434.4C446.612 429.405 447.939 423.449 449.952 417.069C445.1 406.936 442.383 395.585 442.383 383.6C442.383 376.798 443.258 370.2 444.902 363.914C440.226 363.205 436.093 361.466 432.873 358.732C428.516 355.033 426 349.652 426 343.044C426 336.255 428.848 330.903 431.621 327.3C433.01 325.495 434.399 324.105 435.445 323.162C435.969 322.689 436.41 322.326 436.726 322.077C436.884 321.953 437.011 321.857 437.102 321.789C437.147 321.755 437.183 321.729 437.21 321.71L437.243 321.686L437.254 321.678L437.258 321.676L437.259 321.674C437.259 321.674 437.261 321.673 438.411 323.31C438.411 323.31 437.69 323.816 436.628 324.789C433.653 327.514 428 333.894 428 343.044C428 353.708 435.083 360.491 445.437 361.971C447.954 353.281 451.95 345.218 457.134 338.074C448.351 336.449 440.944 332.965 438.853 325.501C438.659 324.805 438.51 324.076 438.411 323.31L437.261 321.673C437.834 321.271 438.576 321.197 439.216 321.479C439.857 321.761 440.304 322.358 440.394 323.053C441.258 329.719 446.478 333.391 454.229 335.39C455.595 335.742 457.016 336.036 458.475 336.28C472.664 317.865 494.938 306 519.983 306C537.941 306 554.475 312.1 567.624 322.342C569.182 322.021 570.764 321.853 572.371 321.853C579.525 321.853 584.256 326.01 587.095 329.909C588.519 331.864 589.511 333.807 590.148 335.255C590.467 335.982 590.7 336.592 590.855 337.026C590.932 337.244 590.991 337.418 591.031 337.541C591.051 337.603 591.066 337.652 591.077 337.688L591.09 337.732L591.095 337.745L591.096 337.75L591.097 337.752C591.097 337.752 591.097 337.754 589.179 338.32C589.179 338.32 584.914 323.853 572.371 323.853C571.478 323.853 570.59 323.91 569.707 324.022C575.954 329.241 581.367 335.424 585.718 342.343C586.838 340.854 587.993 339.506 589.179 338.32L591.097 337.754C591.304 338.457 591.111 339.216 590.593 339.734C589.31 341.017 588.057 342.51 586.843 344.187C593.667 355.738 597.583 369.212 597.583 383.6C597.583 403.91 589.78 422.398 577.009 436.229C577.262 436.486 577.521 436.731 577.785 436.963C580.01 438.908 582.729 440.005 586.088 440.009C586.774 440.01 587.412 440.363 587.778 440.944C588.143 441.525 588.185 442.253 587.889 442.872L586.085 442.009C585.332 442.008 584.604 441.959 583.902 441.862C580.622 441.413 577.881 439.95 575.633 437.682C568.659 444.857 560.31 450.687 551.01 454.748C553.963 457.075 557.579 458.441 561.919 458.441C574.704 458.441 582.298 448.338 584.98 443.976C585.719 442.775 586.085 442.009 586.085 442.009C587.889 442.872 587.888 442.874 587.888 442.874L587.887 442.876L587.885 442.881L587.878 442.896L587.855 442.943C587.835 442.982 587.808 443.036 587.773 443.105C587.703 443.241 587.602 443.435 587.468 443.678C587.202 444.163 586.807 444.846 586.284 445.659C585.238 447.283 583.665 449.449 581.549 451.621C577.325 455.955 570.799 460.441 561.919 460.441C556.638 460.441 552.334 458.607 548.934 455.619ZM451.251 419.658C449.616 425.183 448.612 430.204 448.612 434.4C448.612 446.107 454.424 454.302 466.382 454.302C471.914 454.302 476.772 451.966 479.849 450.029C467.769 442.715 457.844 432.199 451.251 419.658Z" fill="#4949BB"/>
<path d="M589.179 338.32C589.179 338.32 584.914 323.853 572.371 323.853C541.766 323.853 517.14 390.917 514.882 423.404C509.238 397.147 532.359 336.313 546.909 321.805C546.909 321.805 541.891 309.763 528.554 309.763C513.586 309.763 499.328 331.128 489.378 353.037C489.419 352.033 489.461 351.072 489.461 350.152C489.461 344.424 485.824 339.49 479.552 339.49C463.497 339.49 440.459 339.114 438.411 323.31C438.411 323.31 428 330.627 428 343.044C428 355.169 437.156 362.277 449.867 362.277C460.194 362.277 469.936 357.385 476.709 352.87C471.483 375.531 448.612 414.373 448.612 434.4C448.612 446.107 454.424 454.302 466.382 454.302C475.831 454.302 483.315 447.486 483.315 447.486C474.953 439.124 476.5 421.522 480.096 402.666C485.489 379.127 503.886 341.664 522.45 325.944C510.994 345.302 491.05 389.537 491.05 416.338C491.05 432.017 499.328 441.675 511.83 441.675C520.777 441.675 525.753 436.783 525.753 436.783C519.732 426.038 542.477 354.375 570.573 337.149C558.783 350.57 540.344 389.37 540.344 425.369C540.344 441.549 546.658 458.441 561.919 458.441C578.225 458.441 586.085 442.009 586.085 442.009C555.354 441.967 566.601 360.897 589.179 338.32Z" fill="white"/>
</svg>
