<svg width="1024" height="768" viewBox="0 0 1024 768" fill="none" xmlns="http://www.w3.org/2000/svg">
<rect width="1024" height="768" fill="#0A1121"/>
<path d="M566.591 328.211C571.047 324.355 575.329 321.988 579.218 321.594C579.742 321.55 580.048 320.98 579.829 320.498C577.47 315.721 566.897 296 552.653 296C546.143 296 538.366 302.968 530.37 313.661C527.137 313.311 523.86 313.092 520.452 313.092C483.925 313.092 445.345 336.45 445.345 371.247C445.345 385.534 453.909 395.044 468.021 395.044C477.896 395.044 483.008 392.195 484.755 390.968C485.105 390.705 485.149 390.179 484.799 389.873C483.314 388.645 479.993 385.227 479.993 379.267C479.993 362.307 495.154 345.04 513.286 341.446C497.601 371.072 484.755 406.614 484.755 419.849C484.755 426.861 488.557 434.53 494.237 440.052C492.751 440.227 491.266 440.315 489.736 440.315C478.376 440.315 470.556 433.434 470.556 422.259C470.556 413.187 475.58 409.462 477.546 408.323C477.939 408.104 477.939 407.578 477.59 407.315C475.93 406.088 471.56 403.458 465.007 403.458C448.273 403.458 437 415.247 437 431.024C437 457.582 460.069 472 488.382 472C539.676 472 588 423.135 588 373.92C588.044 355.032 580.004 339.036 566.591 328.211ZM511.845 434.267C511.932 419.805 528.316 380.538 546.755 352.446C550.556 357.311 552.74 363.622 552.74 371.028C552.74 393.554 534.564 422.04 511.845 434.267Z" fill="#C47E5A"/>
</svg>
