<svg width="1024" height="768" viewBox="0 0 1024 768" fill="none" xmlns="http://www.w3.org/2000/svg">
<g clip-path="url(#clip0_20_39)">
<rect width="1024" height="768" fill="#160E19"/>
<path fill-rule="evenodd" clip-rule="evenodd" d="M512.325 287.117C512.321 287.051 512.266 287 512.2 287C512.134 287 512.08 287.051 512.075 287.117L508.988 334.758C508.985 334.802 509.005 334.845 509.042 334.87C509.079 334.895 509.126 334.898 509.166 334.879L511.808 333.621C512.054 333.504 512.34 333.508 512.583 333.632L529.935 342.524C529.966 342.54 530.002 342.542 530.035 342.53C530.068 342.518 530.094 342.493 530.107 342.461L537.754 324.228C537.779 324.167 537.753 324.098 537.695 324.068L516.08 313.04L513.938 312.04L512.325 287.117ZM476.291 306.193C476.266 306.132 476.198 306.101 476.136 306.122C476.074 306.142 476.038 306.208 476.054 306.271L486.347 346.414C486.357 346.45 486.382 346.481 486.417 346.496C486.451 346.512 486.491 346.511 486.525 346.494L506.228 336.495C506.268 336.475 506.294 336.436 506.296 336.392L507.767 313.453C507.77 313.408 507.748 313.365 507.711 313.341C507.673 313.316 507.625 313.314 507.585 313.334L484.179 325.329L476.291 306.193ZM440.241 325.27C440.196 325.222 440.122 325.217 440.071 325.259C440.02 325.3 440.01 325.374 440.048 325.428L463.281 358.218C463.317 358.269 463.384 358.285 463.44 358.257L483.878 347.817C483.93 347.79 483.957 347.731 483.942 347.675L478.943 328.265C478.934 328.228 478.908 328.198 478.873 328.182C478.839 328.167 478.799 328.168 478.765 328.185L454.587 340.494L440.241 325.27ZM422.889 361.564C422.931 361.543 422.981 361.546 423.019 361.574L442.723 375.69C442.755 375.713 442.775 375.751 442.775 375.791V393.142C442.775 393.18 442.758 393.216 442.728 393.24C442.698 393.263 442.66 393.272 442.623 393.264L406.304 385.177C406.24 385.163 406.198 385.102 406.207 385.037C406.216 384.973 406.273 384.926 406.338 384.93L422.821 385.951L422.821 361.675C422.821 361.628 422.848 361.586 422.889 361.564ZM449.369 343.223C449.333 343.172 449.265 343.155 449.21 343.184L425.006 355.505L404.184 344.361C404.126 344.33 404.054 344.349 404.019 344.405C403.984 344.461 403.999 344.534 404.052 344.573L442.577 372.363C442.615 372.391 442.665 372.395 442.707 372.373C442.748 372.352 442.775 372.309 442.775 372.262V368.81L460.792 359.728C460.825 359.712 460.848 359.682 460.857 359.647C460.866 359.612 460.859 359.574 460.838 359.545L449.369 343.223ZM584.33 325.259C584.38 325.3 584.39 325.374 584.352 325.428L572.672 341.926L596.365 354.064C596.406 354.085 596.432 354.128 596.433 354.174C596.433 354.221 596.408 354.264 596.367 354.286L575.34 365.608C575.304 365.627 575.26 365.628 575.224 365.609L555.667 355.61C555.632 355.592 555.608 355.559 555.601 355.52C555.594 355.481 555.607 355.442 555.634 355.413L584.16 325.27C584.205 325.222 584.279 325.217 584.33 325.259ZM620.381 344.405C620.416 344.461 620.402 344.534 620.348 344.572L601.432 358.063L601.432 383.29C601.432 383.356 601.381 383.41 601.315 383.414L581.611 384.591C581.577 384.593 581.543 384.58 581.518 384.557C581.503 384.543 581.491 384.525 581.485 384.505C581.481 384.493 581.479 384.479 581.479 384.466L581.479 369.351C581.479 369.019 581.291 368.716 580.995 368.568L578.313 367.227C578.271 367.206 578.244 367.164 578.244 367.117C578.243 367.07 578.268 367.027 578.309 367.005L620.216 344.361C620.274 344.329 620.347 344.349 620.381 344.405ZM548.346 306.271C548.363 306.208 548.327 306.143 548.265 306.122C548.203 306.101 548.135 306.132 548.11 306.192L532.524 343.688C532.498 343.748 532.524 343.818 532.582 343.847L552.874 354.14C552.923 354.165 552.983 354.155 553.021 354.115L567.137 339.264C567.164 339.235 567.176 339.195 567.17 339.156C567.163 339.118 567.139 339.084 567.104 339.066L543.078 326.76L548.346 306.271ZM422.868 391.721C422.898 391.697 422.937 391.688 422.974 391.696L442.677 396.108C442.734 396.12 442.775 396.171 442.775 396.23V415.198C442.775 415.253 442.739 415.301 442.687 415.317L408.426 425.904C408.364 425.924 408.297 425.892 408.273 425.831C408.249 425.771 408.275 425.702 408.334 425.673L422.821 418.502L422.821 391.818C422.821 391.78 422.838 391.745 422.868 391.721ZM442.775 418.138C442.775 418.098 442.756 418.061 442.724 418.037C442.692 418.014 442.65 418.007 442.612 418.019L422.909 424.195C422.857 424.211 422.821 424.259 422.821 424.314L422.821 452.351L410.501 466.285C410.458 466.334 410.46 466.409 410.506 466.456C410.553 466.503 410.628 466.505 410.677 466.462L447.143 434.554C447.183 434.52 447.196 434.465 447.178 434.416C447.16 434.367 447.113 434.335 447.061 434.335H443.65C443.167 434.335 442.775 433.943 442.775 433.46L442.775 418.138ZM581.538 408.768C581.574 408.746 581.62 408.743 581.659 408.762L615.92 425.672C615.978 425.701 616.005 425.77 615.981 425.83C615.957 425.891 615.89 425.923 615.828 425.904L601.432 421.541V448.134C601.432 448.186 601.4 448.233 601.351 448.251C601.303 448.27 601.248 448.256 601.214 448.217L581.51 425.867C581.49 425.844 581.479 425.815 581.479 425.784V408.875C581.479 408.831 581.501 408.791 581.538 408.768ZM540.873 434.335C540.836 434.335 540.8 434.352 540.777 434.381C540.753 434.41 540.743 434.448 540.75 434.484L544.573 454.188C544.585 454.247 544.636 454.289 544.696 454.289L567.863 454.289L579.736 471.586C579.773 471.64 579.846 471.656 579.902 471.622C579.959 471.589 579.98 471.518 579.951 471.459L561.424 434.405C561.402 434.362 561.359 434.335 561.312 434.335L540.873 434.335ZM618.194 385.185C618.203 385.25 618.16 385.31 618.097 385.324L601.432 388.979V415.493C601.432 415.536 601.41 415.576 601.373 415.599C601.336 415.622 601.29 415.624 601.251 415.604L581.548 405.753C581.506 405.731 581.479 405.688 581.479 405.641V387.408C581.479 387.342 581.53 387.287 581.596 387.283L618.062 385.077C618.128 385.073 618.185 385.12 618.194 385.185ZM581.698 429.967C581.663 429.928 581.608 429.914 581.56 429.932C581.511 429.951 581.479 429.997 581.479 430.049V433.461C581.479 433.944 581.087 434.336 580.604 434.336L564.547 434.336C564.504 434.336 564.463 434.358 564.441 434.395C564.418 434.432 564.416 434.478 564.435 434.516L574.287 454.22C574.308 454.262 574.351 454.289 574.399 454.289H599.496L613.576 466.61C613.626 466.653 613.701 466.65 613.747 466.604C613.794 466.557 613.796 466.482 613.752 466.433L581.698 429.967ZM517.957 434.453C517.961 434.387 518.016 434.335 518.082 434.335H537.932C537.992 434.335 538.044 434.378 538.055 434.437L546.142 476.343C546.155 476.408 546.115 476.471 546.052 476.488C545.988 476.505 545.922 476.469 545.901 476.407L538.431 454.289H516.906C516.871 454.289 516.838 454.275 516.815 454.25C516.791 454.225 516.779 454.191 516.781 454.157L517.957 434.453ZM473.381 434.335C473.34 434.335 473.302 434.356 473.278 434.39L459.75 454.093C459.724 454.131 459.721 454.181 459.743 454.222C459.765 454.263 459.807 454.289 459.854 454.289H482.493L478.111 476.343C478.098 476.407 478.138 476.471 478.201 476.488C478.265 476.505 478.331 476.47 478.352 476.407L492.615 434.501C492.628 434.463 492.622 434.42 492.598 434.388C492.575 434.355 492.537 434.335 492.497 434.335L473.381 434.335ZM451.242 434.367C451.265 434.347 451.295 434.335 451.325 434.335H469.852C469.899 434.335 469.941 434.361 469.963 434.402C469.985 434.443 469.982 434.493 469.955 434.531L444.517 471.439C444.48 471.493 444.407 471.509 444.35 471.475C444.294 471.442 444.273 471.37 444.303 471.311L452.887 454.289L428.975 454.289C428.923 454.289 428.876 454.257 428.858 454.208C428.84 454.16 428.853 454.105 428.892 454.07L451.242 434.367ZM495.466 434.421C495.483 434.37 495.531 434.335 495.584 434.335L515.141 434.335C515.175 434.335 515.208 434.35 515.232 434.375C515.256 434.4 515.268 434.434 515.266 434.468L512.325 480.933C512.321 480.999 512.266 481.051 512.2 481.05C512.134 481.05 512.079 480.999 512.075 480.933L510.465 454.289L488.968 454.289C488.927 454.289 488.89 454.27 488.866 454.237C488.843 454.204 488.836 454.162 488.849 454.124L495.466 434.421ZM531.653 363.746C531.704 363.591 531.678 363.42 531.582 363.288C531.486 363.155 531.332 363.077 531.169 363.077H514.7C514.504 363.077 514.326 363.188 514.241 363.364C514.156 363.54 514.179 363.749 514.3 363.903L525.916 378.607C526.032 378.754 526.22 378.826 526.405 378.793C526.59 378.76 526.742 378.629 526.801 378.451L531.653 363.746ZM526.316 378.291L514.7 363.587H514.7L526.316 378.291L526.316 378.291ZM509.242 419.89C509.043 420.019 508.781 419.993 508.611 419.828L471.85 384.244C471.701 384.1 471.654 383.879 471.732 383.686C471.81 383.494 471.997 383.368 472.205 383.368L496.173 383.368C496.388 383.368 496.58 383.503 496.653 383.705L509.445 419.289C509.526 419.512 509.441 419.761 509.242 419.89ZM496.173 383.878L496.173 383.878L472.205 383.878L472.205 383.878L496.173 383.878ZM497.6 378.451C497.659 378.629 497.811 378.76 497.996 378.793C498.181 378.826 498.368 378.754 498.485 378.607L510.101 363.903C510.222 363.749 510.245 363.54 510.16 363.364C510.075 363.188 509.896 363.077 509.701 363.077L493.232 363.077C493.069 363.077 492.915 363.155 492.819 363.288C492.723 363.42 492.697 363.591 492.748 363.746L497.6 378.451ZM498.085 378.291V378.291L509.701 363.587H509.701L498.085 378.291ZM524.675 383.584C524.77 383.72 524.794 383.894 524.737 384.05L512.68 417.576C512.607 417.778 512.415 417.913 512.2 417.913C511.985 417.913 511.793 417.778 511.72 417.576L499.663 384.05C499.607 383.894 499.63 383.72 499.726 383.584C499.821 383.449 499.977 383.368 500.143 383.368L524.258 383.368C524.424 383.368 524.579 383.449 524.675 383.584ZM500.143 383.878L500.143 383.878L524.258 383.878L524.258 383.878L500.143 383.878ZM512.6 366.211C512.503 366.088 512.356 366.017 512.2 366.017C512.044 366.017 511.897 366.088 511.8 366.211L501.213 379.591C501.092 379.745 501.069 379.954 501.154 380.13C501.239 380.306 501.418 380.418 501.613 380.418L522.787 380.418C522.983 380.418 523.161 380.306 523.246 380.13C523.331 379.954 523.308 379.745 523.187 379.591L512.6 366.211ZM522.787 379.908L501.613 379.908L501.613 379.908L522.787 379.908L522.787 379.908ZM471.874 380.085C471.8 379.885 471.858 379.659 472.02 379.521L489.371 364.669C489.5 364.559 489.675 364.52 489.838 364.565C490.002 364.61 490.132 364.734 490.186 364.894L495.186 379.745C495.238 379.901 495.212 380.072 495.116 380.206C495.021 380.339 494.867 380.418 494.702 380.418L472.352 380.418C472.139 380.418 471.948 380.285 471.874 380.085ZM494.702 379.908L494.702 379.908L472.352 379.908L472.352 379.908L494.702 379.908ZM535.029 364.669C534.901 364.559 534.725 364.52 534.562 364.565C534.399 364.61 534.268 364.734 534.214 364.894L529.215 379.745C529.162 379.901 529.188 380.072 529.284 380.206C529.38 380.339 529.534 380.418 529.698 380.418L552.048 380.418C552.262 380.418 552.453 380.285 552.527 380.085C552.601 379.885 552.542 379.659 552.38 379.521L535.029 364.669ZM552.048 379.908L529.698 379.908L529.698 379.908L552.048 379.908L552.048 379.908ZM528.228 383.878L552.195 383.878L552.195 383.878L528.228 383.878L528.228 383.878ZM528.228 383.368C528.013 383.368 527.821 383.503 527.748 383.705L514.955 419.289C514.875 419.512 514.959 419.761 515.158 419.89C515.358 420.019 515.619 419.993 515.79 419.828L552.55 384.244C552.699 384.1 552.746 383.879 552.668 383.686C552.59 383.494 552.403 383.368 552.195 383.368L528.228 383.368Z" fill="#B392C8"/>
</g>
<defs>
<clipPath id="clip0_20_39">
<rect width="1024" height="768" fill="white"/>
</clipPath>
</defs>
</svg>
