<svg width="1024" height="768" viewBox="0 0 1024 768" fill="none" xmlns="http://www.w3.org/2000/svg">
<rect width="1024" height="768" fill="black"/>
<path d="M440.508 318.319L464.456 321.818V326.718L440.44 318.601C440.406 318.59 440.377 318.566 440.36 318.534C440.342 318.502 440.337 318.465 440.346 318.429C440.354 318.394 440.375 318.363 440.405 318.343C440.435 318.322 440.472 318.314 440.508 318.319V318.319ZM464.456 315.759V310.468L440.539 301.366C440.505 301.354 440.467 301.354 440.433 301.368C440.4 301.382 440.372 301.407 440.356 301.44C440.341 301.473 440.338 301.51 440.348 301.545C440.359 301.58 440.382 301.61 440.413 301.629L464.456 315.759ZM464.456 344.129L440.44 352.246C440.405 352.258 440.377 352.282 440.36 352.314C440.342 352.346 440.337 352.383 440.346 352.418C440.354 352.453 440.375 352.484 440.405 352.504C440.435 352.525 440.471 352.533 440.507 352.529L464.456 349.03L464.456 344.129ZM440.539 369.482L464.456 360.38V355.088L440.412 369.22C440.38 369.238 440.356 369.268 440.345 369.303C440.335 369.338 440.337 369.376 440.353 369.409C440.369 369.442 440.397 369.468 440.432 369.482C440.466 369.495 440.504 369.495 440.538 369.482H440.539ZM405.004 335.57L464.458 338.121V332.727L405.004 335.278C404.966 335.28 404.931 335.296 404.905 335.323C404.879 335.35 404.865 335.387 404.865 335.424C404.865 335.462 404.879 335.498 404.905 335.525C404.931 335.552 404.966 335.568 405.004 335.57ZM582.462 301.366L558.542 310.467V315.759L582.587 301.628C582.619 301.61 582.642 301.58 582.652 301.545C582.663 301.51 582.66 301.472 582.644 301.439C582.628 301.407 582.601 301.381 582.567 301.367C582.533 301.353 582.495 301.353 582.461 301.366H582.462ZM582.492 318.319L558.544 321.818V326.718L582.56 318.601C582.595 318.59 582.624 318.566 582.642 318.534C582.66 318.502 582.665 318.464 582.656 318.428C582.647 318.393 582.625 318.362 582.595 318.341C582.564 318.321 582.527 318.313 582.491 318.319H582.492ZM617.997 335.278L558.541 332.727V338.121L617.996 335.57C618.034 335.57 618.072 335.555 618.099 335.527C618.126 335.5 618.142 335.463 618.142 335.424C618.142 335.386 618.126 335.348 618.099 335.321C618.072 335.294 618.034 335.278 617.996 335.278L617.997 335.278ZM582.56 352.246L558.542 344.129V349.029L582.491 352.528C582.526 352.531 582.562 352.522 582.591 352.502C582.62 352.482 582.641 352.452 582.649 352.417C582.658 352.383 582.653 352.346 582.637 352.315C582.62 352.283 582.593 352.259 582.56 352.246V352.246ZM582.588 369.22L558.542 355.088V360.38L582.462 369.482C582.496 369.494 582.533 369.493 582.567 369.479C582.6 369.465 582.627 369.439 582.642 369.407C582.658 369.374 582.661 369.337 582.65 369.303C582.64 369.268 582.618 369.239 582.587 369.22H582.588ZM494.406 349.564H493.582C493.589 350.884 492.784 352.418 491.603 353.594C490.426 354.775 488.891 355.579 487.571 355.573V356.397C488.891 356.391 490.426 357.195 491.603 358.376C492.785 359.552 493.589 361.087 493.582 362.406H494.406C494.4 361.087 495.205 359.552 496.386 358.376C497.562 357.195 499.098 356.391 500.418 356.397V355.574C499.098 355.58 497.563 354.776 496.386 353.595C495.203 352.419 494.399 350.884 494.406 349.564ZM529.417 308.441H528.593C528.599 309.761 527.795 311.295 526.613 312.471C525.437 313.653 523.902 314.457 522.581 314.45V315.275C523.902 315.268 525.437 316.073 526.613 317.254C527.795 318.429 528.599 319.964 528.593 321.284H529.417C529.411 319.964 530.215 318.43 531.397 317.254C532.573 316.072 534.109 315.268 535.429 315.275V314.451C534.109 314.458 532.574 313.653 531.397 312.472C530.215 311.297 529.411 309.762 529.417 308.442V308.441ZM509.688 345.264H510.512C510.52 344.228 510.848 343.218 511.449 342.374C512.301 341.125 513.615 340.168 514.72 339.537C515.175 339.276 515.645 339.039 516.127 338.829C516.306 338.751 516.45 338.693 516.548 338.654L516.659 338.612L516.695 338.599L516.971 338.503V326.024H502.422V326.847H502.438C503.758 326.891 505.058 327.181 506.271 327.703C507.2 328.099 508.014 328.723 508.637 329.516C509.36 330.51 509.729 331.717 509.687 332.945V345.265L509.688 345.264ZM519.373 360.724C518.711 360.417 518.138 359.944 517.712 359.352C517.196 358.579 516.936 357.663 516.97 356.734V342.8H516.146C516.137 343.837 515.81 344.846 515.208 345.691C514.357 346.94 513.043 347.896 511.938 348.528C511.482 348.789 511.012 349.025 510.531 349.236C510.352 349.314 510.208 349.372 510.11 349.41L509.998 349.452L509.963 349.465L509.686 349.562V349.854C509.686 351.506 509.686 354.637 509.686 357.278C509.716 358.112 509.535 358.939 509.162 359.686C508.793 360.375 508.18 360.901 507.443 361.163C507.204 361.251 506.956 361.314 506.704 361.35C506.612 361.363 506.536 361.37 506.487 361.373L506.433 361.376H506.422V362.199H522.085V361.376H522.075C521.14 361.341 520.221 361.119 519.373 360.724ZM497.405 336.366C496.61 333.278 496.224 330.098 496.259 326.91C496.259 323.464 496.676 319.264 497.901 315.864C498.425 314.278 499.263 312.813 500.367 311.559C501.371 310.439 502.743 309.716 504.234 309.519L504.593 309.472V308.631L504.166 308.647C498.842 308.842 494.713 310.742 491.946 313.968C489.178 317.194 487.776 321.702 487.777 327.069C487.775 332.922 489.448 337.647 492.637 340.902C495.825 344.156 500.497 345.904 506.374 345.904V345.08C504.613 345.116 502.895 344.538 501.514 343.446C499.556 341.9 498.228 339.339 497.405 336.366L497.405 336.366ZM528.794 327.644C526.42 326.568 523.526 326.071 520.289 326.028L519.871 326.022V326.839L520.262 326.86C521.408 326.896 522.519 327.262 523.462 327.915C524.751 328.828 525.647 330.298 526.218 332.122C526.794 334.146 527.066 336.243 527.027 338.346C527.028 341.129 526.61 344.096 525.545 346.346C525.076 347.41 524.363 348.348 523.463 349.086C522.546 349.796 521.426 350.193 520.266 350.221L519.872 350.238V351.058L520.289 351.053C524.713 350.999 528.438 349.8 531.071 347.601C533.704 345.402 535.214 342.204 535.21 338.282C535.252 336.372 534.875 334.476 534.104 332.728C533.019 330.389 531.167 328.718 528.794 327.645L528.794 327.644ZM510.298 310.743C511.272 311.63 511.873 312.916 512.222 314.282C512.531 315.572 512.682 316.894 512.669 318.221C512.669 318.888 512.636 319.457 512.604 319.858C512.588 320.058 512.573 320.216 512.56 320.324C512.554 320.377 512.549 320.418 512.546 320.446L512.541 320.485L513.353 320.623L513.366 320.563C513.64 319.37 514.003 318.198 514.454 317.059C515.138 315.319 516.179 313.299 517.616 311.865L517.952 311.528L517.572 311.243C517.519 311.203 514.42 308.904 507.852 308.653L507.424 308.637V309.488L507.769 309.545C508.712 309.685 509.592 310.102 510.298 310.743L510.298 310.743ZM477.971 378.848H472.475V292H550.526V378.848H477.971ZM477.971 373.355H545.027V297.494H477.971V373.355ZM441.453 470.352L445.33 476.839H442.265L438.659 470.577H436.698V476.839H434.129V461.183H439.538C440.591 461.152 441.637 461.368 442.591 461.814C443.367 462.182 444.017 462.769 444.461 463.502C444.878 464.22 445.092 465.038 445.081 465.868C445.088 466.866 444.776 467.841 444.191 468.65C443.598 469.484 442.685 470.051 441.453 470.352ZM439.538 468.527C440.5 468.527 441.224 468.287 441.712 467.806C441.961 467.55 442.154 467.247 442.28 466.914C442.406 466.58 442.462 466.225 442.444 465.869C442.464 465.519 442.41 465.169 442.286 464.841C442.162 464.513 441.97 464.215 441.723 463.966C441.242 463.509 440.513 463.28 439.537 463.279H436.697V468.527L439.538 468.527ZM450.625 476.839H459.279V474.744H453.194V469.945H458.603V467.85H453.194V463.255H459.279V461.16H450.625L450.625 476.839ZM472.35 461.161L477.961 476.839H475.257L474.13 473.64H467.572L466.445 476.839H463.763L469.375 461.161H472.35ZM473.409 471.546L470.861 464.27L468.292 471.546H473.409ZM485.217 461.184H482.648V476.839H490.512V474.766H485.218L485.217 461.184ZM503.021 476.839H511.675V474.744H505.59V469.945H510.999V467.85H505.59V463.255H511.675V461.16H503.021L503.021 476.839ZM525.297 468.707C524.473 468.363 523.626 468.077 522.762 467.851C522.136 467.69 521.519 467.495 520.914 467.265C520.494 467.105 520.113 466.855 519.799 466.533C519.651 466.375 519.536 466.189 519.461 465.986C519.386 465.783 519.351 465.567 519.359 465.351C519.341 465.045 519.394 464.738 519.516 464.457C519.637 464.175 519.823 463.926 520.058 463.729C520.575 463.337 521.212 463.138 521.86 463.166C522.565 463.132 523.26 463.347 523.821 463.774C524.052 463.947 524.243 464.167 524.383 464.42C524.523 464.672 524.608 464.951 524.633 465.238H527.472C527.445 464.633 527.287 464.04 527.009 463.502C526.731 462.963 526.339 462.491 525.861 462.118C524.892 461.36 523.649 460.981 522.131 460.981C521.165 460.961 520.205 461.146 519.314 461.522C518.546 461.846 517.889 462.386 517.421 463.076C516.963 463.778 516.728 464.603 516.746 465.441C516.703 466.275 516.941 467.1 517.421 467.784C517.845 468.349 518.408 468.795 519.055 469.079C519.864 469.414 520.696 469.689 521.545 469.901C522.191 470.06 522.826 470.255 523.449 470.487C523.885 470.652 524.278 470.914 524.598 471.253C524.914 471.604 525.08 472.065 525.06 472.537C525.069 472.851 525.007 473.163 524.878 473.45C524.75 473.737 524.558 473.991 524.317 474.194C523.727 474.653 522.99 474.881 522.243 474.836C521.519 474.881 520.806 474.647 520.249 474.182C519.777 473.751 519.491 473.153 519.449 472.515H516.699C516.682 473.361 516.935 474.189 517.421 474.881C517.925 475.575 518.611 476.117 519.404 476.446C520.301 476.825 521.269 477.013 522.243 476.998C523.247 477.023 524.241 476.802 525.139 476.356C525.908 475.973 526.556 475.385 527.01 474.656C527.43 473.979 527.652 473.199 527.652 472.403C527.695 471.556 527.453 470.72 526.965 470.027C526.531 469.452 525.958 468.998 525.299 468.707L525.297 468.707ZM532.137 463.278H536.329V476.839H538.9V463.279H543.069V461.183H532.139L532.137 463.278ZM555.575 461.161L561.186 476.839H558.482L557.356 473.64H550.798L549.671 476.839H546.989L552.6 461.161H555.575ZM556.634 471.545L554.086 464.269L551.519 471.545H556.634ZM565.062 463.279H569.254V476.839H571.824V463.279H575.993V461.183H565.063L565.062 463.279ZM580.838 476.839H589.492V474.744H583.407V469.945H588.816V467.85H583.407V463.255H589.492V461.16H580.838V476.839ZM399.036 435.926L398.871 435.941V434.613L398.994 434.59C400.762 434.266 402.078 432.664 403.396 429.233L415.257 398.756L415.369 398.766C415.889 398.813 416.904 398.841 417.587 398.841C418.164 398.841 419.233 398.818 419.806 398.766L419.917 398.757L432.997 431.362C433.887 433.659 435.314 434.535 436.352 434.589L436.494 434.596V435.934L436.337 435.926C434.219 435.822 429.57 435.775 426.947 435.775C423.562 435.775 420.681 435.83 419.043 435.926L418.884 435.936V434.594L419.028 434.588C421.651 434.481 422.537 434.039 422.537 432.836C422.48 432.006 422.277 431.192 421.938 430.431L418.851 422.009H407.773L406.415 425.514C405.466 427.945 405.005 429.81 405.005 431.215C405.005 433.252 407.277 434.529 409.474 434.59L409.62 434.595V435.935L409.464 435.929C406.991 435.822 405.059 435.777 403.003 435.777C401.445 435.774 400.036 435.828 399.036 435.926ZM408.269 420.669H418.362L413.425 407.275L408.269 420.669ZM501.879 440.722C500.037 440.722 495.925 440.55 493.279 440.55C489.798 440.55 486.202 440.607 484.217 440.722V439.543C487.957 439.371 488.618 438.767 488.618 434.483V405.27C488.618 400.985 487.927 400.382 484.217 400.209V399.03C485.828 399.116 488.56 399.231 491.322 399.231C491.926 399.231 492.559 399.203 493.164 399.203C495.983 399.145 500.068 399.03 502.427 399.03C517.932 399.03 525.325 406.276 525.325 419.416C525.324 432.24 516.694 440.722 501.879 440.722V440.722ZM515.544 419.646C515.544 406.449 511.862 400.094 502.369 400.094C498.773 400.094 497.996 401.101 497.996 405.155V434.598C497.996 438.71 498.773 439.658 502.426 439.658C512.35 439.658 515.544 432.47 515.544 419.646ZM615.87 398.594L628.571 431.36C629.403 433.469 630.466 434.525 631.823 434.588L631.965 434.595V435.938L631.805 435.927C630.341 435.822 627.103 435.776 625.272 435.776C622.451 435.776 620.031 435.831 618.634 435.927L618.474 435.938V434.592L618.618 434.586C621.294 434.478 622.154 434.046 622.154 432.808C622.154 432.229 621.964 431.472 621.555 430.427L618.392 421.999H606.061L603.967 427.408C603.273 429.166 602.937 430.542 602.937 431.615C602.937 433.165 604.938 434.525 607.308 434.586L607.454 434.589V435.932L607.297 435.924C605.415 435.828 603.235 435.773 601.315 435.773C600.024 435.758 598.732 435.809 597.446 435.924L597.282 435.94V434.616L597.398 434.589C599.084 434.207 600.386 432.761 601.378 430.167L613.647 398.592L615.87 398.594ZM617.9 420.662L612.302 405.735L606.558 420.662H617.9ZM707.999 440.723C707.999 437.677 707.123 432.791 707.123 426.781H706.202C705.368 434.573 703.04 439.372 695.675 439.372H691.359C687.361 439.372 686.584 438.768 686.584 434.484V420.068H690.496C695.617 420.068 695.675 426.929 696.134 430.696H697.485C697.198 426.21 697.14 421.419 697.14 419.494C697.14 418.632 697.111 417.769 697.111 416.677C697.111 415.326 697.14 410.397 697.313 407.896H695.962C695.502 410.714 695.617 418.891 690.497 418.891H686.585V405.27C686.585 400.985 687.362 400.382 691.36 400.382H696.251C703.067 400.382 704.808 404.611 704.808 411.794H706.159C706.159 405.656 707.683 401.837 707.683 399.03C704.029 399.203 697.027 399.203 693.431 399.203C689.893 399.203 682.125 399.203 676.343 399.03V400.209C680.342 400.382 681.119 400.985 681.119 405.27V434.483C681.119 438.767 680.342 439.371 676.343 439.543V440.722C682.125 440.55 688.168 440.55 691.707 440.55C695.647 440.55 704.001 440.55 707.999 440.722L707.999 440.723ZM637.584 441.085L636.448 440.704C636.345 440.985 633.772 447.586 621.849 447.586C613.389 447.586 607.756 444.722 602.31 441.952C598.216 439.87 594.322 437.896 589.661 437.489V405.27C589.661 400.985 590.869 400.382 594.867 400.209V399.03C593.056 399.145 589.661 399.203 586.957 399.203C583.907 399.203 581.059 399.145 579.419 399.03V400.209C583.419 400.382 584.195 400.985 584.195 405.27V438.24C580.925 439.661 578.629 442.427 578.501 442.583L579.373 443.4C579.408 443.367 582.981 440.099 587.414 440.099C592.129 440.099 596.478 442.864 601.083 445.791C606.402 449.172 612.43 453.003 620.008 453.003C633.763 453.005 637.549 441.203 637.584 441.083L637.584 441.085ZM465.325 399.03V400.209C470.532 400.726 472.559 404.376 472.559 410.846V427.122L449.775 399.03C448.394 399.145 446.553 399.203 444.683 399.203C442.841 399.203 440.799 399.145 439.563 399.03V400.209C443.303 400.382 443.993 400.985 443.993 405.27V429.626C443.993 435.319 443.116 439.026 439.347 439.544V440.723C440.584 440.607 442.842 440.55 444.683 440.55C446.812 440.55 451.054 440.607 452.578 440.723V439.544C447.371 439.026 445.345 435.377 445.345 428.907V408.461L470.89 440.838C471.465 440.809 471.983 440.809 472.501 440.809C472.99 440.809 473.479 440.809 473.911 440.838V410.127C473.911 404.434 474.787 400.726 478.556 400.209V399.03C477.319 399.145 475.061 399.203 473.22 399.203C471.091 399.203 466.85 399.146 465.325 399.03ZM561.19 439.6V440.779C559.147 440.664 555.292 440.607 552.1 440.607C549.05 440.607 546.202 440.664 544.563 440.779V439.6C548.562 439.427 549.338 438.824 549.338 434.54V405.327C549.338 401.043 548.562 400.439 544.563 400.267V399.087C546.202 399.202 549.166 399.26 551.754 399.26C555.465 399.26 559.234 399.145 560.644 399.145C570.137 399.145 574.854 404.314 574.854 411.157C574.854 417.377 571.018 425.17 559.349 425.17H554.804V434.54C554.804 438.824 556.241 439.428 561.19 439.601L561.19 439.6ZM554.804 423.992H558.774C566.589 423.992 568.958 418.327 568.958 411.789C568.958 404.371 566.311 400.267 559.177 400.267C555.58 400.267 554.804 401.273 554.804 405.327V423.992ZM432.548 442.558L433.656 443.009C433.485 443.434 433.26 443.835 432.987 444.203C431.21 447.013 425.606 454.003 413.837 454.003C400.065 454.003 392.838 442.966 387.033 434.098C382.94 427.847 379.373 422.404 374.585 421.815V434.541C374.585 438.825 375.274 439.428 379.014 439.601V440.78C376.885 440.665 373.376 440.608 370.096 440.608C366.328 440.608 362.789 440.665 360.805 440.78V439.601C364.545 439.428 365.206 438.825 365.206 434.541V405.327C365.206 401.043 364.515 400.439 360.805 400.267V399.087C362.79 399.202 366.443 399.26 369.751 399.26C373.606 399.26 377.519 399.145 379.014 399.145C389.975 399.145 395.325 402.911 395.325 409.381C395.325 416.632 389.09 420.753 381.025 421.475C385.208 423.231 388.667 427.358 392.522 431.962C398.898 439.578 406.126 448.21 419 448.21C427.885 448.21 431.147 444.785 432.149 443.288C432.412 442.845 432.54 442.575 432.548 442.558ZM385.543 410.043C385.543 403.86 383.587 400.267 378.235 400.267C375.215 400.267 374.582 401.273 374.582 405.327V420.412H377.113C384.076 420.412 385.543 415.448 385.543 410.043ZM335.435 441.613C342.325 441.613 344.036 438.573 348.145 438.573C349.66 438.573 350.585 439.358 350.585 440.78H351.765V424.228C351.765 419.886 352.196 419.369 354.44 419.167V417.989C352.657 418.133 349.838 418.191 346.53 418.191C343.365 418.191 335.821 418.133 333.405 417.989V419.168C341.801 419.51 342.847 422.644 342.847 430.431V435.996C342.847 438.661 339.265 440.222 336.213 440.222C328.936 440.222 325.501 434.169 325.501 420.023C325.501 409.671 328.767 399.78 337.896 399.78C345.315 399.78 347.786 405.776 347.786 413.352H349.137C349.137 407.985 352.408 402.408 352.408 399.09H351.057C351.057 400.211 350.093 400.772 348.891 400.772C345.967 400.772 342.416 398.255 336.515 398.255C323.531 398.255 315.001 407.025 315.001 420.424C315 433.208 322.212 441.613 335.435 441.613H335.435ZM653.955 441.556C661.084 441.556 662.99 438.378 665.862 438.378C667.489 438.378 668.098 439.613 668.098 440.722H669.449C669.449 437.831 667.063 434.339 667.063 424.421H665.712C665.712 433.389 661.536 440.377 654.473 440.377C646.878 440.377 641.747 433.131 641.747 419.991C641.747 407.225 647.008 399.26 654.689 399.26C662.324 399.26 665.712 406.242 665.712 414.727H667.063C667.063 406.399 669.448 401.442 669.448 399.03H668.097C668.065 399.548 667.841 400.034 667.469 400.395C667.096 400.755 666.603 400.964 666.084 400.979C663.342 400.979 661.307 398.197 654.803 398.197C642.741 398.197 635.878 407.053 635.878 420.221C635.878 433.706 642.189 441.556 653.955 441.556H653.955ZM612.011 469.118L708 470.062V467.864L612.011 468.807V469.118ZM315 470.061L410.989 469.118V468.807L315 467.863V470.061Z" fill="url(#paint0_linear_4_2163)"/>
<defs>
<linearGradient id="paint0_linear_4_2163" x1="400.99" y1="324.247" x2="627.329" y2="550.694" gradientUnits="userSpaceOnUse">
<stop stop-color="#FAF093"/>
<stop offset="0.4" stop-color="#F3BE4A"/>
<stop offset="1" stop-color="#985724"/>
</linearGradient>
</defs>
</svg>
