<svg width="1024" height="768" viewBox="0 0 1024 768" fill="none" xmlns="http://www.w3.org/2000/svg">
<rect width="1024" height="768" fill="url(#paint0_linear_5_2)"/>
<path d="M438.34 316.173L463.02 319.785V324.844L438.271 316.464C438.235 316.452 438.206 316.427 438.187 316.394C438.169 316.362 438.164 316.323 438.173 316.287C438.182 316.25 438.204 316.218 438.235 316.197C438.266 316.176 438.303 316.167 438.34 316.173V316.173ZM463.02 313.53V308.067L438.372 298.67C438.337 298.657 438.298 298.658 438.263 298.672C438.229 298.686 438.2 298.713 438.184 298.746C438.168 298.78 438.165 298.819 438.176 298.855C438.187 298.891 438.21 298.921 438.243 298.941L463.02 313.53ZM463.02 342.82L438.27 351.2C438.235 351.212 438.205 351.237 438.187 351.27C438.17 351.303 438.165 351.341 438.173 351.377C438.182 351.414 438.204 351.445 438.234 351.467C438.265 351.488 438.302 351.497 438.339 351.492L463.019 347.88L463.02 342.82ZM438.372 368.995L463.02 359.598V354.134L438.241 368.724C438.208 368.743 438.184 368.774 438.173 368.81C438.162 368.847 438.165 368.886 438.181 368.92C438.198 368.954 438.226 368.981 438.262 368.995C438.297 369.008 438.336 369.008 438.371 368.995H438.372ZM401.752 333.983L463.021 336.617V331.048L401.752 333.682C401.714 333.684 401.677 333.7 401.65 333.728C401.624 333.756 401.609 333.794 401.609 333.832C401.609 333.871 401.624 333.908 401.65 333.936C401.677 333.964 401.714 333.981 401.752 333.983ZM584.628 298.67L559.978 308.066V313.53L584.758 298.94C584.79 298.921 584.814 298.891 584.825 298.854C584.836 298.818 584.833 298.78 584.817 298.746C584.8 298.712 584.772 298.685 584.737 298.671C584.702 298.657 584.663 298.656 584.628 298.67H584.628ZM584.66 316.173L559.98 319.785V324.844L584.73 316.464C584.766 316.452 584.796 316.427 584.814 316.394C584.832 316.361 584.838 316.322 584.829 316.285C584.82 316.249 584.797 316.217 584.766 316.196C584.734 316.175 584.696 316.167 584.658 316.173H584.66ZM621.249 333.682L559.978 331.048V336.617L621.248 333.983C621.287 333.983 621.326 333.967 621.354 333.939C621.382 333.911 621.398 333.872 621.398 333.833C621.398 333.793 621.382 333.754 621.354 333.726C621.326 333.698 621.287 333.682 621.248 333.682L621.249 333.682ZM584.73 351.2L559.979 342.82V347.879L584.658 351.491C584.695 351.495 584.731 351.485 584.761 351.464C584.791 351.443 584.813 351.412 584.822 351.377C584.83 351.341 584.826 351.303 584.809 351.271C584.792 351.238 584.764 351.213 584.73 351.2V351.2ZM584.758 368.724L559.979 354.134V359.598L584.629 368.995C584.664 369.007 584.702 369.006 584.737 368.992C584.771 368.977 584.799 368.951 584.815 368.917C584.831 368.884 584.834 368.845 584.823 368.81C584.812 368.774 584.789 368.744 584.757 368.724H584.758ZM493.884 348.431H493.035C493.042 349.793 492.213 351.377 490.995 352.592C489.783 353.811 488.201 354.641 486.84 354.635V355.486C488.201 355.479 489.783 356.31 490.995 357.529C492.213 358.743 493.042 360.327 493.035 361.69H493.884C493.878 360.327 494.707 358.743 495.925 357.529C497.137 356.309 498.719 355.479 500.08 355.486V354.635C498.719 354.642 497.137 353.812 495.925 352.593C494.706 351.378 493.877 349.793 493.884 348.431ZM529.964 305.975H529.115C529.122 307.337 528.292 308.921 527.075 310.135C525.863 311.355 524.28 312.185 522.92 312.178V313.03C524.28 313.023 525.862 313.853 527.075 315.073C528.293 316.286 529.122 317.871 529.115 319.234H529.964C529.958 317.871 530.787 316.287 532.004 315.073C533.217 313.853 534.799 313.023 536.16 313.03V312.179C534.799 312.186 533.217 311.355 532.004 310.136C530.786 308.922 529.958 307.338 529.964 305.976V305.975ZM509.632 343.992H510.481C510.49 342.921 510.828 341.879 511.448 341.007C512.325 339.718 513.68 338.73 514.818 338.079C515.288 337.809 515.772 337.565 516.268 337.348C516.453 337.267 516.601 337.207 516.702 337.168L516.817 337.124L516.853 337.111L517.138 337.011V324.127H502.145V324.978H502.161C503.521 325.023 504.861 325.322 506.111 325.861C507.068 326.27 507.907 326.914 508.55 327.733C509.294 328.759 509.675 330.005 509.632 331.273V343.993L509.632 343.992ZM519.613 359.953C518.931 359.636 518.341 359.148 517.901 358.536C517.37 357.738 517.103 356.793 517.137 355.834V341.448H516.288C516.279 342.518 515.942 343.56 515.322 344.432C514.444 345.722 513.09 346.709 511.952 347.361C511.482 347.631 510.997 347.875 510.501 348.092C510.317 348.173 510.168 348.233 510.067 348.272L509.952 348.316L509.916 348.329L509.631 348.429V348.731C509.631 350.436 509.631 353.668 509.631 356.395C509.661 357.256 509.475 358.11 509.091 358.881C508.71 359.592 508.078 360.136 507.319 360.406C507.072 360.497 506.817 360.562 506.557 360.6C506.463 360.613 506.384 360.62 506.334 360.623L506.279 360.626H506.267V361.476H522.409V360.626H522.398C521.434 360.59 520.488 360.361 519.613 359.953ZM496.974 334.805C496.155 331.617 495.758 328.334 495.793 325.042C495.793 321.484 496.223 317.148 497.486 313.638C498.026 312 498.89 310.489 500.027 309.193C501.062 308.037 502.475 307.29 504.012 307.087L504.382 307.039V306.17L503.942 306.187C498.456 306.388 494.201 308.35 491.349 311.681C488.497 315.011 487.052 319.665 487.052 325.206C487.051 331.249 488.775 336.128 492.061 339.488C495.347 342.848 500.161 344.652 506.217 344.652V343.802C504.403 343.839 502.632 343.242 501.209 342.114C499.192 340.519 497.823 337.875 496.975 334.805L496.974 334.805ZM529.322 325.8C526.876 324.69 523.893 324.176 520.557 324.132L520.127 324.126V324.969L520.529 324.991C521.71 325.028 522.856 325.406 523.827 326.08C525.156 327.023 526.079 328.54 526.668 330.423C527.261 332.512 527.541 334.678 527.501 336.849C527.502 339.723 527.071 342.786 525.974 345.108C525.491 346.207 524.755 347.176 523.828 347.937C522.883 348.67 521.729 349.081 520.534 349.11L520.127 349.127V349.973L520.557 349.968C525.117 349.912 528.955 348.675 531.669 346.404C534.382 344.134 535.938 340.832 535.934 336.783C535.977 334.811 535.588 332.854 534.794 331.049C533.676 328.634 531.767 326.909 529.323 325.801L529.322 325.8ZM510.261 308.351C511.265 309.267 511.884 310.594 512.244 312.004C512.563 313.336 512.718 314.702 512.705 316.071C512.705 316.76 512.671 317.347 512.638 317.761C512.621 317.968 512.606 318.131 512.593 318.242C512.587 318.298 512.581 318.34 512.578 318.369L512.573 318.409L513.41 318.551L513.423 318.49C513.705 317.257 514.08 316.048 514.544 314.872C515.249 313.076 516.321 310.99 517.803 309.51L518.149 309.161L517.757 308.867C517.703 308.825 514.509 306.452 507.74 306.193L507.3 306.176V307.055L507.655 307.114C508.627 307.259 509.534 307.69 510.262 308.351L510.261 308.351ZM476.948 378.665H471.284V289H551.717V378.665H476.948ZM476.948 372.994H546.051V294.672H476.948V372.994ZM439.315 473.136L443.309 479.834H440.151L436.435 473.368H434.414V479.834H431.766V463.67H437.34C438.426 463.638 439.504 463.861 440.487 464.322C441.286 464.701 441.956 465.307 442.414 466.065C442.844 466.806 443.064 467.65 443.053 468.507C443.061 469.537 442.739 470.544 442.136 471.379C441.524 472.24 440.584 472.826 439.315 473.136ZM437.34 471.252C438.332 471.252 439.079 471.004 439.581 470.508C439.837 470.244 440.036 469.93 440.166 469.586C440.296 469.242 440.354 468.875 440.336 468.508C440.356 468.147 440.3 467.785 440.172 467.447C440.044 467.108 439.847 466.801 439.592 466.544C439.097 466.071 438.346 465.835 437.34 465.835H434.413V471.252L437.34 471.252ZM448.766 479.834H457.684V477.671H451.414V472.716H456.987V470.553H451.414V465.809H457.684V463.646H448.766L448.766 479.834ZM471.154 463.647L476.937 479.834H474.15L472.989 476.531H466.231L465.07 479.834H462.306L468.089 463.647H471.154ZM472.246 474.369L469.62 466.857L466.973 474.369H472.246ZM484.415 463.671H481.767V479.834H489.871V477.694H484.415L484.415 463.671ZM502.762 479.834H511.68V477.671H505.41V472.716H510.984V470.553H505.41V465.809H511.681V463.646H502.762L502.762 479.834ZM525.719 471.438C524.869 471.083 523.996 470.788 523.106 470.554C522.46 470.388 521.825 470.187 521.202 469.95C520.768 469.784 520.376 469.526 520.052 469.194C519.9 469.03 519.782 468.838 519.704 468.628C519.626 468.419 519.591 468.196 519.599 467.973C519.58 467.657 519.636 467.341 519.761 467.05C519.886 466.759 520.077 466.502 520.319 466.298C520.852 465.894 521.509 465.688 522.177 465.717C522.903 465.682 523.619 465.904 524.198 466.345C524.435 466.524 524.632 466.751 524.776 467.012C524.92 467.272 525.008 467.56 525.034 467.857H527.96C527.932 467.232 527.769 466.62 527.482 466.064C527.196 465.508 526.792 465.021 526.3 464.636C525.301 463.853 524.02 463.461 522.456 463.461C521.46 463.441 520.471 463.631 519.553 464.02C518.761 464.355 518.084 464.912 517.602 465.624C517.13 466.35 516.887 467.201 516.906 468.066C516.862 468.928 517.107 469.779 517.602 470.485C518.039 471.068 518.619 471.529 519.285 471.822C520.119 472.168 520.977 472.451 521.852 472.671C522.517 472.835 523.172 473.037 523.814 473.276C524.263 473.446 524.668 473.717 524.998 474.066C525.324 474.429 525.495 474.905 525.474 475.392C525.484 475.716 525.42 476.039 525.287 476.335C525.154 476.631 524.957 476.894 524.708 477.103C524.1 477.577 523.34 477.812 522.571 477.765C521.825 477.812 521.09 477.571 520.516 477.091C520.03 476.645 519.735 476.029 519.691 475.37H516.858C516.84 476.242 517.1 477.098 517.602 477.812C518.121 478.529 518.828 479.088 519.645 479.428C520.57 479.82 521.567 480.014 522.571 479.998C523.605 480.023 524.63 479.796 525.556 479.335C526.348 478.94 527.016 478.332 527.484 477.58C527.916 476.881 528.145 476.076 528.145 475.254C528.19 474.38 527.94 473.516 527.437 472.8C526.99 472.207 526.399 471.738 525.72 471.438L525.719 471.438ZM532.767 465.833H537.087V479.833H539.737V465.834H544.033V463.67H532.769L532.767 465.833ZM556.921 463.647L562.704 479.833H559.917L558.756 476.531H551.998L550.837 479.833H548.072L553.855 463.647H556.921ZM558.013 474.369L555.386 466.857L552.741 474.369H558.013ZM566.698 465.834H571.018V479.834H573.666V465.834H577.962V463.67H566.698L566.698 465.834ZM582.955 479.834H591.873V477.671H585.603V472.716H591.176V470.553H585.603V465.809H591.873V463.646H582.955V479.834ZM395.602 437.593L395.432 437.61V436.238L395.559 436.215C397.38 435.88 398.737 434.226 400.095 430.684L412.318 399.218L412.433 399.229C412.969 399.278 414.015 399.306 414.72 399.306C415.314 399.306 416.416 399.283 417.006 399.229L417.121 399.219L430.599 432.882C431.517 435.254 432.987 436.158 434.057 436.213L434.204 436.22V437.602L434.042 437.594C431.859 437.487 427.069 437.438 424.366 437.438C420.877 437.438 417.908 437.495 416.219 437.594L416.056 437.604V436.218L416.205 436.212C418.908 436.102 419.82 435.646 419.82 434.404C419.762 433.546 419.553 432.706 419.203 431.921L416.022 423.226H404.605L403.206 426.844C402.228 429.354 401.753 431.28 401.753 432.73C401.753 434.833 404.094 436.152 406.359 436.215L406.51 436.219V437.604L406.349 437.597C403.8 437.487 401.809 437.44 399.69 437.44C398.084 437.437 396.632 437.493 395.602 437.593ZM405.117 421.843H415.518L410.43 408.013L405.117 421.843ZM501.586 442.546C499.687 442.546 495.449 442.368 492.722 442.368C489.135 442.368 485.429 442.427 483.384 442.546V441.329C487.238 441.15 487.92 440.527 487.92 436.104V405.944C487.92 401.52 487.208 400.897 483.384 400.719V399.501C485.044 399.59 487.86 399.709 490.706 399.709C491.329 399.709 491.981 399.68 492.604 399.68C495.509 399.62 499.719 399.501 502.15 399.501C518.128 399.501 525.747 406.982 525.747 420.549C525.746 433.789 516.853 442.546 501.586 442.546V442.546ZM515.667 420.786C515.667 407.161 511.873 400.6 502.09 400.6C498.385 400.6 497.584 401.639 497.584 405.824V436.223C497.584 440.468 498.385 441.447 502.149 441.447C512.376 441.447 515.667 434.026 515.667 420.786ZM619.057 399.051L632.146 432.88C633.003 435.057 634.099 436.147 635.497 436.213L635.644 436.22V437.606L635.478 437.595C633.969 437.487 630.633 437.439 628.746 437.439C625.839 437.439 623.345 437.496 621.905 437.595L621.74 437.606V436.216L621.889 436.21C624.647 436.099 625.532 435.653 625.532 434.374C625.532 433.777 625.336 432.996 624.915 431.916L621.656 423.215H608.949L606.79 428.8C606.075 430.614 605.728 432.035 605.728 433.143C605.728 434.743 607.791 436.147 610.233 436.21L610.384 436.214V437.6L610.222 437.592C608.283 437.493 606.036 437.436 604.057 437.436C602.727 437.421 601.396 437.473 600.071 437.592L599.901 437.608V436.241L600.021 436.214C601.759 435.819 603.1 434.326 604.122 431.648L616.766 399.049L619.057 399.051ZM621.149 421.835L615.38 406.423L609.46 421.835H621.149ZM713.999 442.547C713.999 439.402 713.096 434.358 713.096 428.152H712.147C711.287 436.197 708.888 441.152 701.298 441.152H696.851C692.731 441.152 691.93 440.528 691.93 436.105V421.222H695.962C701.239 421.222 701.298 428.305 701.772 432.194H703.164C702.869 427.563 702.809 422.617 702.809 420.629C702.809 419.739 702.779 418.848 702.779 417.72C702.779 416.326 702.809 411.237 702.987 408.655H701.595C701.12 411.564 701.239 420.006 695.963 420.006H691.931V405.944C691.931 401.52 692.732 400.897 696.852 400.897H701.892C708.916 400.897 710.711 405.263 710.711 412.679H712.103C712.103 406.342 713.673 402.399 713.673 399.501C709.908 399.68 702.692 399.68 698.986 399.68C695.34 399.68 687.335 399.68 681.376 399.501V400.719C685.498 400.897 686.298 401.52 686.298 405.944V436.104C686.298 440.527 685.498 441.15 681.376 441.329V442.546C687.335 442.368 693.563 442.368 697.209 442.368C701.27 442.368 709.879 442.368 713.999 442.546L713.999 442.547ZM641.434 442.92L640.263 442.527C640.157 442.817 637.506 449.632 625.218 449.632C616.5 449.632 610.695 446.675 605.083 443.816C600.864 441.666 596.851 439.627 592.047 439.208V405.944C592.047 401.52 593.292 400.897 597.413 400.719V399.501C595.546 399.62 592.047 399.68 589.261 399.68C586.118 399.68 583.183 399.62 581.493 399.501V400.719C585.615 400.897 586.414 401.52 586.414 405.944V439.983C583.045 441.45 580.679 444.306 580.547 444.467L581.445 445.31C581.482 445.276 585.164 441.902 589.732 441.902C594.591 441.902 599.073 444.757 603.818 447.779C609.299 451.269 615.512 455.225 623.321 455.225C637.497 455.226 641.398 443.042 641.434 442.919L641.434 442.92ZM463.915 399.501V400.719C469.281 401.252 471.37 405.021 471.37 411.7V428.504L447.89 399.501C446.467 399.62 444.57 399.68 442.643 399.68C440.744 399.68 438.641 399.62 437.366 399.501V400.719C441.22 400.897 441.932 401.52 441.932 405.944V431.089C441.932 436.967 441.028 440.794 437.144 441.329V442.546C438.419 442.427 440.746 442.368 442.643 442.368C444.837 442.368 449.208 442.427 450.779 442.546V441.329C445.413 440.794 443.325 437.027 443.325 430.348V409.238L469.65 442.665C470.243 442.635 470.776 442.635 471.31 442.635C471.814 442.635 472.318 442.635 472.763 442.665V410.958C472.763 405.08 473.666 401.252 477.55 400.719V399.501C476.275 399.62 473.948 399.68 472.051 399.68C469.858 399.68 465.486 399.621 463.915 399.501ZM562.707 441.387V442.604C560.602 442.486 556.63 442.427 553.339 442.427C550.197 442.427 547.262 442.486 545.572 442.604V441.387C549.693 441.209 550.493 440.586 550.493 436.163V406.003C550.493 401.579 549.693 400.956 545.572 400.778V399.561C547.262 399.679 550.316 399.739 552.984 399.739C556.808 399.739 560.692 399.62 562.144 399.62C571.927 399.62 576.788 404.957 576.788 412.022C576.788 418.443 572.836 426.489 560.81 426.489H556.127V436.163C556.127 440.586 557.608 441.21 562.708 441.388L562.707 441.387ZM556.127 425.273H560.217C568.271 425.273 570.712 419.424 570.712 412.674C570.712 405.016 567.984 400.778 560.633 400.778C556.926 400.778 556.127 401.817 556.127 406.003V425.273ZM430.137 444.441L431.279 444.906C431.103 445.345 430.871 445.76 430.589 446.139C428.758 449.041 422.984 456.257 410.855 456.257C396.662 456.257 389.215 444.862 383.233 435.707C379.015 429.253 375.339 423.633 370.404 423.025V436.164C370.404 440.587 371.115 441.21 374.969 441.388V442.605C372.775 442.487 369.159 442.427 365.779 442.427C361.895 442.427 358.248 442.487 356.203 442.605V441.388C360.057 441.21 360.739 440.587 360.739 436.164V406.003C360.739 401.579 360.027 400.956 356.203 400.778V399.561C358.249 399.679 362.014 399.739 365.423 399.739C369.396 399.739 373.428 399.62 374.969 399.62C386.264 399.62 391.778 403.508 391.778 410.188C391.778 417.675 385.352 421.929 377.041 422.675C381.352 424.487 384.916 428.748 388.889 433.501C395.46 441.364 402.909 450.276 416.175 450.276C425.332 450.276 428.694 446.74 429.726 445.195C429.997 444.737 430.129 444.458 430.137 444.441ZM381.697 410.871C381.697 404.488 379.681 400.778 374.166 400.778C371.054 400.778 370.401 401.817 370.401 406.003V421.577H373.009C380.185 421.577 381.697 416.452 381.697 410.871ZM330.059 443.466C337.16 443.466 338.922 440.327 343.157 440.327C344.718 440.327 345.672 441.138 345.672 442.605H346.887V425.517C346.887 421.034 347.332 420.499 349.645 420.292V419.075C347.807 419.224 344.902 419.283 341.492 419.283C338.231 419.283 330.456 419.224 327.967 419.075V420.293C336.619 420.645 337.697 423.881 337.697 431.921V437.666C337.697 440.417 334.006 442.03 330.86 442.03C323.362 442.03 319.822 435.78 319.822 421.175C319.822 410.488 323.187 400.276 332.595 400.276C340.24 400.276 342.787 406.466 342.787 414.288H344.18C344.18 408.746 347.55 402.989 347.55 399.563H346.158C346.158 400.72 345.164 401.3 343.926 401.3C340.912 401.3 337.253 398.702 331.172 398.702C317.792 398.702 309.001 407.756 309.001 421.589C309 434.787 316.432 443.466 330.059 443.466H330.059ZM658.305 443.406C665.651 443.406 667.616 440.126 670.575 440.126C672.252 440.126 672.879 441.4 672.879 442.546H674.271C674.271 439.56 671.813 435.955 671.813 425.716H670.421C670.421 434.974 666.118 442.19 658.838 442.19C651.012 442.19 645.724 434.709 645.724 421.142C645.724 407.962 651.145 399.739 659.062 399.739C666.929 399.739 670.421 406.947 670.421 415.708H671.813C671.813 407.11 674.271 401.991 674.271 399.502H672.879C672.846 400.036 672.615 400.538 672.231 400.91C671.847 401.282 671.339 401.498 670.805 401.514C667.978 401.514 665.881 398.641 659.179 398.641C646.749 398.641 639.676 407.784 639.676 421.38C639.676 435.302 646.18 443.406 658.304 443.406H658.305ZM615.08 471.863L714 472.837V470.568L615.08 471.542V471.863ZM309 472.836L407.92 471.862V471.541L309 470.567V472.836Z" fill="black"/>
<defs>
<linearGradient id="paint0_linear_5_2" x1="4.1868" y1="-85.9999" x2="1221.19" y2="339.078" gradientUnits="userSpaceOnUse">
<stop stop-color="#FAF093"/>
<stop offset="0.489475" stop-color="#F3C14F"/>
<stop offset="1" stop-color="#985724"/>
</linearGradient>
</defs>
</svg>
