<svg width="1024" height="768" viewBox="0 0 1024 768" fill="none" xmlns="http://www.w3.org/2000/svg">
<rect width="1024" height="768" fill="#DEF2C8"/>
<path d="M545.316 348.604C549.192 348.604 553.348 344.693 553.348 340.817C553.348 336.94 550.449 333.588 546.573 333.588C542.103 333.588 538.296 337.115 538.296 341.585C538.296 345.461 541.439 348.604 545.316 348.604Z" fill="#57595B"/>
<path d="M609.224 348.604C613.694 348.604 617.256 345.322 617.256 340.817C617.256 336.94 614.357 333.588 610.481 333.588C606.011 333.588 602.204 337.709 602.204 341.585C602.204 345.461 605.347 348.604 609.224 348.604Z" fill="#57595B"/>
<path d="M692.618 421.907C692.897 421.313 693.142 420.719 693.386 420.126C697.333 410.801 711.581 370.815 711.581 361.561C711.581 353.843 701.279 356.183 697.717 357.231C697.158 357.405 696.774 357.929 696.844 358.488C697.088 360.513 696.145 365.507 694.539 371.933C691.431 383.248 684.935 400.814 675.122 400.814C672.119 400.814 670.687 399.137 670.687 395.924C670.687 388.591 680.744 367.812 680.744 360.548C680.744 356.637 677.881 354.716 673.236 354.716C668.626 354.716 658.778 355.764 649.105 355.694C652.492 345.986 655.321 337.639 655.321 334.496C655.321 328.42 645.263 328.909 641.946 329.258C641.352 329.328 640.898 329.782 640.863 330.41C640.549 335.788 638 344.693 634.892 354.367C630.98 353.459 627.767 352.027 625.951 349.757C625.602 349.303 624.939 349.268 624.554 349.687C623.193 351.154 620.643 354.402 620.643 357.859C620.643 362.923 625.777 364.425 631.469 364.879C628.047 375.25 624.764 385.378 623.507 392.188C619.561 396.763 611.494 401.058 605.801 401.058C602.798 401.058 601.506 399.487 601.506 396.064C601.506 387.822 611.808 368.58 611.808 361.875C611.808 354.262 601.82 355.834 598.188 356.637C597.594 356.777 597.245 357.335 597.35 357.929C598.433 363.412 589.178 384.749 587.258 394.772C583.416 398.299 578.667 401.023 574.825 401.023C571.019 401.023 569.866 398.683 569.866 395.086C569.866 383.108 587.746 343.646 587.746 334.706C587.746 328.001 577.095 329.572 573.847 330.201C573.324 330.305 572.939 330.725 572.904 331.248C572.276 344.659 558.028 378.184 555.723 393.235C552.405 396.937 545.84 401.023 541.16 401.023C538.157 401.023 536.865 399.452 536.865 396.029C536.865 387.997 547.551 368.196 547.551 361.247C547.551 354.262 537.528 356.148 533.966 357.056C533.407 357.196 533.058 357.754 533.163 358.313C534.106 363.586 524.747 384.435 522.721 394.528C518.635 398.579 513.781 401.512 509.765 401.512C506.657 401.512 505.504 399.312 505.504 396.413C505.504 389.045 515.492 375.32 515.492 367.009C515.492 359.64 510.568 355.659 503.165 355.659C496.11 355.659 490.732 360.094 486.996 364.913C485.634 359.151 480.954 355.659 475.297 355.659C468.452 355.659 463.283 359.501 459.512 364.18C459.756 362.958 459.896 361.91 459.896 361.072C459.896 354.088 450.188 355.973 446.8 356.846C446.276 356.986 445.927 357.51 446.067 358.069C447.079 362.958 438.873 381.816 435.136 394.737C431.958 398.194 426.964 401.617 423.158 401.617C420.154 401.617 418.862 400.045 418.862 396.623C418.862 389.01 429.793 368.58 429.793 361.247C429.793 354.716 419.421 356.043 415.894 356.707C415.37 356.811 415.056 357.3 415.16 357.789C415.754 360.793 412.856 369.244 409.887 377.8C406.849 386.391 400.842 400.429 392.775 400.429C389.981 400.429 388.794 398.613 388.794 395.575C388.794 387.369 399.41 370.78 399.41 362.678C399.41 354.786 388.445 355.973 384.883 356.567C384.394 356.637 384.115 357.161 384.324 357.615C386.769 364.04 373.743 390.651 373.743 399.347C373.743 407.204 378.527 411.605 386 411.605C394.102 411.605 400.249 406.785 404.649 401.128C405.836 407.414 410.411 411.605 417.57 411.605C423.262 411.605 428.99 408.706 433.425 404.76C433.984 412.163 442.644 411.919 446.102 411.5C446.695 411.43 447.079 410.836 446.87 410.278C445.508 406.646 448.267 397.636 451.619 388.172C454.448 380.279 460.559 366.625 467.684 366.625C470.477 366.625 471.735 368.301 471.735 371.304C471.735 377.8 460.874 396.902 460.874 405.004C460.874 412.722 471.176 411.744 474.912 411.151C475.506 411.046 475.786 410.452 475.576 409.893C474.109 406.157 477.357 397.077 480.814 388.242C484.167 380.105 489.056 366.764 496.39 366.764C498.729 366.764 500.196 368.336 500.196 370.676C500.196 377.171 491.221 390.127 491.221 398.893C491.221 406.192 495.971 411.57 504.317 411.57C511.232 411.57 518.042 408.182 523.175 402.979C524.851 408.217 529.182 411.57 535.607 411.57C542.906 411.57 551.008 406.715 555.932 401.233C557.399 407.798 562.288 411.57 569.517 411.57C575.698 411.57 582.578 407.798 587.711 402.734C589.423 408.077 593.893 411.57 600.388 411.57C608.281 411.57 617.151 407.169 623.472 401.442C625.008 407.868 629.863 411.57 637.022 411.57C643.447 411.57 651.061 407.379 656.578 402.036C657.905 407.903 662.445 411.57 669.36 411.57C675.541 411.57 680.814 408.357 685.075 403.782C683.119 409.754 681.198 415.236 679.697 419.322C659.616 417.157 637.022 422.361 637.022 438.32C637.022 447.19 645.473 451.835 655.531 451.835C670.373 451.835 680.395 443.419 687.624 431.51C694.853 434.549 700.441 439.403 701.104 446.003C701.174 446.736 701.907 447.155 702.571 446.946C704.981 446.108 710.289 443.384 710.289 437.098C710.324 430.253 702.815 425.015 692.618 421.907ZM637.406 395.505C637.406 389.743 641.562 377.171 645.892 364.809C653.261 364.355 660.315 363.272 665.658 362.224C664.296 369.733 658.604 384.226 656.753 393.445C652.283 397.671 646.416 401.233 642.19 401.233C638.384 401.233 637.406 399.137 637.406 395.505ZM657.835 441.812C654.204 441.812 651.235 439.752 651.235 436.33C651.235 429.031 663.458 426.481 675.786 428.297C671.804 435.561 665.623 441.812 657.835 441.812Z" fill="#57595B"/>
<path d="M354.85 355.554C347.586 355.554 341.754 358.942 337.284 363.202C338.192 360.827 339.03 358.732 339.763 357.056C340.951 354.192 342.243 351.084 343.709 347.941C363.72 351.364 386.454 347.382 386.454 331.772C386.454 321.994 376.536 317 366.479 317C353.802 317 343.989 323.74 336.271 334.461C329.636 330.934 324.607 325.765 324.293 319.13C324.258 318.781 323.943 318.502 323.594 318.572C321.394 319.025 313.921 320.981 313.921 328.105C313.921 334.985 320.8 340.607 330.299 344.274C328.274 348.151 326.423 352.341 324.712 356.777C320.765 367.009 312 390.092 312 401.652C312 412.373 321.254 413.001 327.261 409.509C327.855 409.16 328.029 408.427 327.715 407.798C327.052 406.541 326.702 404.76 326.702 403.118C326.702 390.407 336.795 365.752 348.494 365.752C351.602 365.752 353.173 367.777 353.173 371.095C353.173 378.638 341.754 400.325 341.754 409.369C341.754 416.284 345.421 420.999 352.58 420.999C357.189 420.999 360.647 418.798 362.428 417.402C362.952 416.983 362.707 416.179 362.079 416.075C358.447 415.376 356.91 412.303 356.91 408.217C356.91 399.207 368.679 377.765 368.679 368.441C368.609 360.164 363.301 355.554 354.85 355.554ZM365.326 326.045C369.342 326.045 372.276 327.966 372.276 331.667C372.276 339.141 360.402 341.201 348.459 338.757C352.824 331.632 358.237 326.045 365.326 326.045Z" fill="#57595B"/>
<path d="M383.765 430.392C383.346 429.938 382.857 429.589 382.229 429.31C381.635 429.065 380.937 428.926 380.168 428.926C379.121 428.926 378.143 429.1 377.305 429.449C376.432 429.799 375.628 430.357 374.895 431.056L374.755 431.195L375.279 432.103C375.349 432.243 375.489 432.383 375.628 432.488C375.978 432.732 376.501 432.697 376.921 432.383C377.13 432.243 377.375 432.069 377.619 431.929C377.898 431.754 378.213 431.615 378.562 431.475C378.911 431.335 379.365 431.265 379.889 431.265C380.657 431.265 381.251 431.475 381.635 431.964C382.019 432.453 382.229 433.151 382.229 434.129V434.897C380.832 434.897 379.644 435.037 378.667 435.246C377.619 435.491 376.746 435.805 376.117 436.189C375.454 436.573 374.965 437.027 374.651 437.551C374.336 438.075 374.197 438.599 374.197 439.193C374.197 439.821 374.301 440.38 374.511 440.834C374.72 441.288 375 441.707 375.349 441.986C375.698 442.301 376.117 442.51 376.606 442.685C377.06 442.825 377.584 442.894 378.108 442.894C378.632 442.894 379.086 442.86 379.505 442.755C379.924 442.65 380.343 442.545 380.727 442.371C381.111 442.196 381.46 441.986 381.81 441.707C382.019 441.532 382.264 441.358 382.508 441.148L382.683 441.917C382.753 442.231 382.892 442.44 383.102 442.545C383.276 442.65 383.486 442.685 383.765 442.685H385.057V434.059C385.057 433.291 384.953 432.592 384.743 431.964C384.499 431.405 384.184 430.846 383.765 430.392ZM382.229 436.888V439.228C382.019 439.472 381.775 439.682 381.53 439.856C381.286 440.066 381.006 440.24 380.727 440.38C380.448 440.52 380.133 440.624 379.819 440.694C379.295 440.834 378.562 440.869 378.003 440.694C377.794 440.624 377.584 440.52 377.444 440.38C377.27 440.24 377.165 440.066 377.06 439.856C376.955 439.647 376.921 439.367 376.921 439.053C376.921 438.739 377.025 438.459 377.2 438.215C377.375 437.97 377.689 437.726 378.108 437.516C378.562 437.307 379.156 437.132 379.854 437.027C380.518 436.993 381.321 436.923 382.229 436.888Z" fill="#57595B"/>
<path d="M403.846 430.741C403.392 430.148 402.833 429.694 402.204 429.38C401.576 429.065 400.842 428.926 400.039 428.926C399.061 428.926 398.188 429.135 397.42 429.589C396.826 429.938 396.302 430.357 395.813 430.846L395.674 429.834C395.569 429.414 395.255 429.17 394.801 429.17H393.159V447.19H395.988V441.777C396.337 442.091 396.721 442.336 397.141 442.545C397.734 442.825 398.468 442.964 399.306 442.964C400.214 442.964 401.052 442.79 401.785 442.406C402.519 442.056 403.147 441.532 403.636 440.904C404.125 440.275 404.509 439.507 404.789 438.669C405.068 437.831 405.173 436.888 405.173 435.91C405.173 434.827 405.068 433.815 404.823 432.977C404.649 432.069 404.3 431.335 403.846 430.741ZM402.344 435.875C402.344 437.412 402.03 438.634 401.401 439.437C400.807 440.24 399.934 440.625 398.817 440.625C398.223 440.625 397.699 440.52 397.245 440.31C396.791 440.101 396.372 439.751 396.023 439.263V433.116C396.477 432.557 396.931 432.103 397.455 431.789C397.979 431.475 398.607 431.3 399.306 431.3C399.795 431.3 400.214 431.37 400.598 431.545C400.982 431.719 401.296 431.964 401.541 432.313C401.82 432.662 401.995 433.151 402.134 433.71C402.274 434.338 402.344 435.072 402.344 435.875Z" fill="#57595B"/>
<path d="M415.126 429.065C414.811 428.96 414.462 428.926 414.078 428.926C413.135 428.926 412.297 429.205 411.598 429.764C411.109 430.148 410.655 430.637 410.306 431.23L410.201 430.008C410.167 429.729 410.062 429.519 409.922 429.38C409.782 429.24 409.538 429.17 409.224 429.17H407.652V442.755H410.481V434.234C410.83 433.396 411.249 432.767 411.738 432.348C412.227 431.929 412.821 431.719 413.589 431.719C414.008 431.719 414.322 431.754 414.567 431.824C414.846 431.929 415.056 431.964 415.195 431.964C415.51 431.964 415.754 431.789 415.859 431.44L416.173 429.554L416.033 429.449C415.754 429.275 415.44 429.17 415.126 429.065Z" fill="#57595B"/>
<path d="M428.082 430.881C427.523 430.287 426.824 429.799 426.021 429.449C425.218 429.135 424.31 428.96 423.332 428.96C422.354 428.96 421.446 429.135 420.643 429.449C419.84 429.764 419.142 430.253 418.583 430.881C418.024 431.475 417.57 432.243 417.291 433.081C416.976 433.954 416.837 434.897 416.837 435.945C416.837 436.993 416.976 437.97 417.291 438.809C417.605 439.647 418.024 440.415 418.583 441.009C419.142 441.637 419.84 442.091 420.643 442.406C421.446 442.72 422.354 442.894 423.332 442.894C424.31 442.894 425.218 442.72 426.021 442.406C426.824 442.091 427.523 441.602 428.082 441.009C428.64 440.415 429.06 439.647 429.374 438.809C429.653 437.97 429.828 436.993 429.828 435.945C429.828 434.897 429.688 433.919 429.374 433.081C429.06 432.243 428.64 431.51 428.082 430.881ZM426.929 435.98C426.929 437.481 426.615 438.634 426.021 439.437C425.428 440.24 424.555 440.625 423.332 440.625C422.704 440.625 422.18 440.52 421.726 440.31C421.272 440.101 420.923 439.821 420.608 439.437C420.294 439.053 420.084 438.564 419.945 438.005C419.805 437.412 419.7 436.748 419.7 435.98C419.7 435.246 419.77 434.548 419.945 433.954C420.084 433.361 420.329 432.872 420.608 432.488C420.923 432.103 421.272 431.789 421.726 431.58C422.18 431.37 422.704 431.265 423.332 431.265C424.555 431.265 425.428 431.649 426.021 432.453C426.615 433.291 426.929 434.478 426.929 435.98Z" fill="#57595B"/>
<path d="M441.003 429.38C440.863 429.484 440.724 429.659 440.654 429.834L437.301 438.25C437.196 438.529 437.127 438.774 437.057 439.053C436.987 438.774 436.917 438.529 436.812 438.25L433.495 429.834C433.425 429.659 433.32 429.519 433.145 429.38C432.971 429.24 432.761 429.17 432.517 429.17H430.247L435.8 442.755H438.209L443.762 429.17H441.597C441.352 429.17 441.143 429.24 441.003 429.38Z" fill="#57595B"/>
<path d="M448.546 429.17H445.717V442.755H448.546V429.17Z" fill="#57595B"/>
<path d="M448.267 423.967C448.092 423.792 447.883 423.653 447.673 423.548C447.219 423.338 446.66 423.338 446.206 423.548C445.997 423.653 445.787 423.792 445.613 423.967C445.438 424.141 445.298 424.351 445.194 424.595C445.089 424.84 445.054 425.084 445.054 425.329C445.054 425.573 445.089 425.818 445.194 426.062C445.298 426.272 445.438 426.481 445.613 426.656C445.787 426.83 445.997 426.97 446.206 427.075C446.416 427.18 446.695 427.215 446.94 427.215C447.184 427.215 447.429 427.18 447.673 427.075C447.918 426.97 448.092 426.83 448.267 426.656C448.441 426.481 448.581 426.272 448.686 426.062C448.791 425.818 448.86 425.573 448.86 425.329C448.86 425.084 448.791 424.805 448.686 424.595C448.581 424.351 448.441 424.141 448.267 423.967Z" fill="#57595B"/>
<path d="M459.896 436.015C459.547 435.735 459.163 435.526 458.743 435.316C458.324 435.142 457.905 434.967 457.486 434.827C457.067 434.688 456.648 434.548 456.229 434.408C455.845 434.304 455.496 434.164 455.181 433.989C454.902 433.85 454.658 433.675 454.483 433.465C454.343 433.291 454.238 433.081 454.238 432.802C454.238 432.592 454.273 432.383 454.378 432.173C454.483 431.964 454.623 431.824 454.797 431.649C454.972 431.51 455.216 431.37 455.496 431.3C456.124 431.091 456.997 431.126 457.556 431.3C457.87 431.405 458.15 431.51 458.359 431.615C458.604 431.719 458.778 431.824 458.953 431.929C459.512 432.243 460.001 432.103 460.21 431.684L460.839 430.672L460.699 430.532C460.175 430.043 459.547 429.659 458.848 429.379C458.15 429.1 457.312 428.96 456.439 428.96C455.67 428.96 454.972 429.065 454.378 429.275C453.784 429.484 453.261 429.799 452.842 430.148C452.423 430.532 452.108 430.951 451.864 431.44C451.654 431.929 451.515 432.453 451.515 432.977C451.515 433.57 451.619 434.094 451.829 434.513C452.038 434.932 452.318 435.281 452.667 435.596C453.016 435.875 453.4 436.12 453.819 436.294C454.238 436.469 454.658 436.643 455.112 436.783C455.531 436.923 455.95 437.062 456.369 437.167C456.753 437.272 457.102 437.412 457.416 437.586C457.696 437.726 457.94 437.935 458.115 438.145C458.255 438.32 458.359 438.564 458.359 438.878C458.359 439.123 458.324 439.367 458.22 439.612C458.115 439.821 457.975 440.031 457.801 440.205C457.591 440.38 457.347 440.52 457.032 440.625C456.718 440.729 456.369 440.799 455.95 440.799C455.461 440.799 455.042 440.729 454.727 440.625C454.378 440.52 454.099 440.38 453.889 440.24C453.645 440.101 453.435 439.961 453.296 439.856C452.877 439.542 452.423 439.577 452.143 439.751C452.003 439.821 451.899 439.961 451.829 440.101L451.165 441.148L451.34 441.288C451.864 441.777 452.527 442.161 453.296 442.475C454.064 442.79 454.937 442.929 455.88 442.929C456.718 442.929 457.451 442.825 458.08 442.58C458.709 442.371 459.267 442.056 459.721 441.637C460.175 441.253 460.524 440.764 460.734 440.205C460.944 439.682 461.083 439.053 461.083 438.424C461.083 437.866 460.978 437.377 460.769 436.958C460.524 436.643 460.245 436.294 459.896 436.015Z" fill="#57595B"/>
<path d="M466.845 429.17H464.017V442.755H466.845V429.17Z" fill="#57595B"/>
<path d="M466.531 423.967C466.357 423.792 466.147 423.653 465.937 423.548C465.483 423.338 464.925 423.338 464.471 423.548C464.261 423.653 464.052 423.792 463.877 423.967C463.702 424.141 463.563 424.351 463.458 424.595C463.353 424.84 463.318 425.084 463.318 425.329C463.318 425.573 463.353 425.818 463.458 426.062C463.563 426.272 463.702 426.481 463.877 426.656C464.052 426.83 464.261 426.97 464.471 427.075C464.68 427.18 464.96 427.215 465.204 427.215C465.449 427.215 465.693 427.18 465.937 427.075C466.182 426.97 466.357 426.83 466.531 426.656C466.706 426.481 466.845 426.272 466.95 426.062C467.055 425.818 467.125 425.573 467.125 425.329C467.125 425.084 467.055 424.805 466.95 424.595C466.845 424.351 466.706 424.141 466.531 423.967Z" fill="#57595B"/>
<path d="M480.884 430.881C480.325 430.287 479.627 429.799 478.824 429.449C478.021 429.135 477.113 428.96 476.135 428.96C475.157 428.96 474.249 429.135 473.446 429.449C472.643 429.764 471.944 430.253 471.385 430.881C470.827 431.475 470.373 432.243 470.093 433.081C469.779 433.954 469.639 434.897 469.639 435.945C469.639 436.993 469.779 437.97 470.093 438.809C470.407 439.647 470.827 440.415 471.385 441.009C471.944 441.637 472.643 442.091 473.446 442.406C474.249 442.72 475.157 442.894 476.135 442.894C477.113 442.894 478.021 442.72 478.824 442.406C479.627 442.091 480.325 441.602 480.884 441.009C481.443 440.415 481.862 439.647 482.176 438.809C482.456 437.97 482.63 436.993 482.63 435.945C482.63 434.897 482.491 433.919 482.176 433.081C481.862 432.243 481.443 431.51 480.884 430.881ZM479.732 435.98C479.732 437.481 479.417 438.634 478.824 439.437C478.23 440.24 477.357 440.625 476.135 440.625C475.506 440.625 474.982 440.52 474.528 440.31C474.074 440.101 473.725 439.821 473.411 439.437C473.097 439.053 472.887 438.564 472.747 438.005C472.608 437.412 472.503 436.748 472.503 435.98C472.503 435.246 472.573 434.548 472.747 433.954C472.887 433.361 473.131 432.872 473.411 432.488C473.69 432.103 474.074 431.789 474.528 431.615C474.982 431.405 475.506 431.3 476.135 431.3C477.357 431.3 478.23 431.684 478.824 432.488C479.417 433.291 479.732 434.478 479.732 435.98Z" fill="#57595B"/>
<path d="M495.377 430.427C494.993 429.973 494.504 429.589 493.91 429.345C493.317 429.1 492.653 428.96 491.92 428.96C490.977 428.96 490.104 429.17 489.37 429.589C488.812 429.903 488.253 430.287 487.764 430.776L487.659 429.868C487.554 429.449 487.24 429.205 486.786 429.205H485.145V442.79H487.973V433.011C488.427 432.523 488.951 432.103 489.475 431.824C490.034 431.51 490.628 431.37 491.256 431.37C492.129 431.37 492.723 431.615 493.142 432.103C493.561 432.592 493.771 433.326 493.771 434.234V442.825H496.599V434.234C496.599 433.465 496.494 432.767 496.32 432.138C496.075 431.44 495.761 430.881 495.377 430.427Z" fill="#57595B"/>
<path d="M507.32 436.015C506.971 435.735 506.587 435.526 506.168 435.316C505.749 435.142 505.33 434.967 504.911 434.827C504.492 434.688 504.073 434.548 503.654 434.408C503.269 434.304 502.92 434.164 502.606 433.989C502.326 433.85 502.082 433.675 501.907 433.465C501.768 433.291 501.663 433.081 501.663 432.802C501.663 432.592 501.698 432.383 501.803 432.173C501.907 431.964 502.047 431.824 502.222 431.649C502.396 431.51 502.641 431.37 502.92 431.3C503.549 431.091 504.422 431.126 504.981 431.3C505.295 431.405 505.574 431.51 505.784 431.615C506.028 431.719 506.203 431.824 506.377 431.929C506.936 432.243 507.425 432.103 507.635 431.684L508.263 430.672L508.124 430.532C507.6 430.043 506.971 429.659 506.273 429.379C505.574 429.1 504.736 428.96 503.863 428.96C503.095 428.96 502.396 429.065 501.803 429.275C501.209 429.484 500.685 429.799 500.266 430.148C499.847 430.532 499.533 430.951 499.288 431.44C499.079 431.929 498.939 432.453 498.939 432.977C498.939 433.57 499.044 434.094 499.253 434.513C499.463 434.932 499.742 435.281 500.091 435.596C500.441 435.875 500.825 436.12 501.244 436.294C501.663 436.469 502.082 436.643 502.536 436.783C502.955 436.923 503.374 437.062 503.793 437.167C504.177 437.272 504.527 437.412 504.841 437.586C505.12 437.726 505.365 437.935 505.539 438.145C505.679 438.32 505.784 438.564 505.784 438.878C505.784 439.123 505.749 439.367 505.644 439.612C505.539 439.821 505.4 440.031 505.225 440.205C505.015 440.38 504.771 440.52 504.457 440.625C504.142 440.729 503.793 440.799 503.374 440.799C502.885 440.799 502.466 440.729 502.152 440.625C501.803 440.52 501.523 440.38 501.314 440.24C501.069 440.101 500.86 439.961 500.72 439.856C500.301 439.542 499.847 439.577 499.568 439.751C499.428 439.821 499.323 439.961 499.253 440.101L498.59 441.148L498.764 441.288C499.288 441.777 499.952 442.161 500.72 442.475C501.488 442.79 502.361 442.929 503.304 442.929C504.142 442.929 504.876 442.825 505.504 442.58C506.133 442.371 506.692 442.056 507.146 441.637C507.6 441.253 507.949 440.764 508.158 440.205C508.368 439.682 508.508 439.053 508.508 438.424C508.508 437.866 508.403 437.377 508.193 436.958C507.949 436.643 507.67 436.294 507.32 436.015Z" fill="#57595B"/>
<path d="M524.991 439.368C524.781 439.368 524.572 439.472 524.362 439.647C524.223 439.787 524.048 439.926 523.804 440.066C523.594 440.206 523.28 440.345 522.966 440.485C522.651 440.625 522.197 440.66 521.673 440.66C521.115 440.66 520.626 440.555 520.207 440.345C519.788 440.136 519.403 439.856 519.089 439.472C518.775 439.088 518.53 438.599 518.391 438.006C518.216 437.412 518.146 436.748 518.146 435.98C518.146 435.247 518.216 434.583 518.391 433.99C518.53 433.431 518.775 432.907 519.089 432.523C519.403 432.139 519.788 431.824 520.242 431.615C520.696 431.405 521.219 431.3 521.813 431.3C522.267 431.3 522.651 431.335 522.966 431.44C523.28 431.545 523.559 431.65 523.769 431.789C523.978 431.929 524.188 432.034 524.327 432.139C524.712 432.418 525.131 432.383 525.34 432.208C525.445 432.139 525.515 432.069 525.585 431.929L526.318 430.916L526.178 430.777C525.62 430.218 524.956 429.764 524.223 429.45C523.489 429.135 522.651 428.996 521.708 428.996C520.696 428.996 519.753 429.17 518.984 429.519C518.181 429.869 517.518 430.358 516.959 430.986C516.435 431.615 516.016 432.348 515.737 433.221C515.457 434.059 515.318 435.002 515.318 436.015C515.318 437.098 515.457 438.11 515.772 438.948C516.086 439.822 516.505 440.555 517.029 441.149C517.553 441.742 518.216 442.196 518.949 442.511C519.683 442.825 520.486 442.999 521.324 442.999C522.302 442.999 523.245 442.825 524.118 442.511C524.991 442.161 525.759 441.637 526.353 440.904L526.493 440.729L525.724 439.752C525.55 439.542 525.34 439.368 524.991 439.368Z" fill="#57595B"/>
<path d="M538.716 430.881C538.157 430.287 537.458 429.799 536.655 429.449C535.852 429.135 534.944 428.96 533.966 428.96C532.988 428.96 532.08 429.135 531.277 429.449C530.474 429.764 529.775 430.253 529.217 430.881C528.658 431.475 528.204 432.243 527.925 433.081C527.61 433.954 527.471 434.897 527.471 435.945C527.471 436.993 527.61 437.97 527.925 438.809C528.239 439.647 528.658 440.415 529.217 441.009C529.775 441.637 530.474 442.091 531.277 442.406C532.08 442.72 532.988 442.894 533.966 442.894C534.944 442.894 535.852 442.72 536.655 442.406C537.458 442.091 538.157 441.602 538.716 441.009C539.274 440.415 539.693 439.647 540.008 438.809C540.287 437.97 540.462 436.993 540.462 435.945C540.462 434.897 540.322 433.919 540.008 433.081C539.728 432.243 539.274 431.51 538.716 430.881ZM537.563 435.98C537.563 437.481 537.249 438.634 536.655 439.437C536.061 440.24 535.188 440.625 533.966 440.625C533.337 440.625 532.814 440.52 532.36 440.31C531.906 440.101 531.556 439.821 531.242 439.437C530.928 439.053 530.718 438.564 530.579 438.005C530.439 437.412 530.334 436.748 530.334 435.98C530.334 435.246 530.404 434.548 530.579 433.954C530.718 433.361 530.963 432.872 531.242 432.488C531.522 432.103 531.906 431.789 532.36 431.615C532.814 431.405 533.337 431.3 533.966 431.3C535.188 431.3 536.061 431.684 536.655 432.488C537.284 433.291 537.563 434.478 537.563 435.98Z" fill="#57595B"/>
<path d="M560.018 430.358C559.634 429.904 559.145 429.554 558.551 429.345C557.643 428.961 556.421 428.891 555.269 429.17C554.815 429.275 554.396 429.45 554.011 429.694C553.627 429.939 553.278 430.253 552.964 430.602C552.789 430.812 552.615 431.056 552.475 431.3C552.23 430.707 551.881 430.183 551.427 429.799C550.834 429.275 550.065 428.996 549.122 428.996C548.284 428.996 547.551 429.205 546.887 429.589C546.433 429.869 545.979 430.253 545.595 430.672L545.49 429.869C545.386 429.45 545.071 429.205 544.617 429.205H542.976V442.79H545.805V432.872C546.189 432.418 546.573 432.034 547.027 431.754C547.481 431.475 547.97 431.335 548.459 431.335C549.192 431.335 549.716 431.545 550.1 431.999C550.484 432.453 550.659 433.186 550.659 434.199V442.79H553.488V434.199C553.488 433.71 553.557 433.291 553.697 432.942C553.837 432.593 554.011 432.278 554.256 432.069C554.5 431.824 554.745 431.65 555.059 431.545C555.373 431.44 555.688 431.37 556.037 431.37C556.805 431.37 557.399 431.615 557.783 432.069C558.202 432.558 558.377 433.291 558.377 434.234V442.825H561.205V434.234C561.205 433.431 561.101 432.697 560.891 432.034C560.717 431.335 560.437 430.777 560.018 430.358Z" fill="#57595B"/>
<path d="M575.07 430.741C574.616 430.148 574.057 429.694 573.428 429.38C572.8 429.065 572.066 428.926 571.263 428.926C570.285 428.926 569.412 429.135 568.644 429.589C568.05 429.938 567.526 430.357 567.037 430.846L566.898 429.834C566.793 429.414 566.479 429.17 566.025 429.17H564.383V447.19H567.212V441.777C567.561 442.091 567.945 442.336 568.365 442.545C568.958 442.825 569.692 442.964 570.53 442.964C571.438 442.964 572.276 442.79 573.009 442.406C573.743 442.056 574.371 441.532 574.86 440.904C575.349 440.275 575.733 439.507 576.012 438.669C576.292 437.831 576.397 436.888 576.397 435.91C576.397 434.827 576.292 433.815 576.047 432.977C575.873 432.069 575.524 431.335 575.07 430.741ZM573.568 435.875C573.568 437.412 573.254 438.634 572.625 439.437C572.031 440.24 571.158 440.625 570.041 440.625C569.447 440.625 568.923 440.52 568.469 440.31C568.015 440.101 567.596 439.751 567.247 439.263V433.116C567.701 432.557 568.155 432.103 568.679 431.789C569.203 431.475 569.831 431.3 570.53 431.3C571.019 431.3 571.438 431.37 571.822 431.545C572.206 431.719 572.52 431.964 572.765 432.313C573.044 432.662 573.219 433.151 573.358 433.71C573.498 434.338 573.568 435.072 573.568 435.875Z" fill="#57595B"/>
<path d="M587.781 430.392C587.362 429.938 586.873 429.589 586.245 429.31C585.651 429.065 584.953 428.926 584.184 428.926C583.137 428.926 582.159 429.1 581.321 429.449C580.448 429.799 579.644 430.357 578.911 431.056L578.771 431.195L579.295 432.103C579.365 432.243 579.505 432.383 579.644 432.488C579.994 432.732 580.517 432.697 580.937 432.383C581.146 432.243 581.391 432.069 581.635 431.929C581.914 431.754 582.229 431.615 582.578 431.475C582.927 431.335 583.381 431.265 583.905 431.265C584.673 431.265 585.267 431.475 585.651 431.964C586.035 432.453 586.245 433.151 586.245 434.129V434.897C584.848 434.897 583.661 435.037 582.683 435.246C581.635 435.491 580.762 435.805 580.133 436.189C579.47 436.573 578.981 437.027 578.667 437.551C578.352 438.075 578.213 438.599 578.213 439.193C578.213 439.821 578.317 440.38 578.527 440.834C578.736 441.288 579.016 441.707 579.365 441.986C579.714 442.301 580.133 442.51 580.622 442.685C581.076 442.825 581.6 442.894 582.124 442.894C582.648 442.894 583.102 442.86 583.521 442.755C583.94 442.65 584.359 442.545 584.743 442.371C585.127 442.196 585.476 441.986 585.826 441.707C586.035 441.532 586.28 441.358 586.524 441.148L586.699 441.917C586.769 442.231 586.908 442.44 587.118 442.545C587.292 442.65 587.502 442.685 587.781 442.685H589.073V434.059C589.073 433.291 588.969 432.592 588.759 431.964C588.515 431.405 588.2 430.846 587.781 430.392ZM586.245 436.888V439.228C586.035 439.472 585.791 439.682 585.546 439.856C585.302 440.066 585.022 440.24 584.743 440.38C584.464 440.52 584.149 440.624 583.835 440.694C583.311 440.834 582.578 440.869 582.019 440.694C581.81 440.624 581.6 440.52 581.46 440.38C581.286 440.24 581.181 440.066 581.076 439.856C580.971 439.647 580.937 439.367 580.937 439.053C580.937 438.739 581.041 438.459 581.216 438.215C581.391 437.97 581.705 437.726 582.124 437.516C582.578 437.307 583.137 437.132 583.87 437.027C584.534 436.993 585.337 436.923 586.245 436.888Z" fill="#57595B"/>
<path d="M602.449 430.427C602.065 429.973 601.576 429.589 600.982 429.345C600.388 429.1 599.725 428.96 598.991 428.96C598.048 428.96 597.175 429.17 596.442 429.589C595.883 429.903 595.325 430.287 594.836 430.776L594.731 429.868C594.626 429.449 594.312 429.205 593.858 429.205H592.216V442.79H595.045V433.011C595.499 432.523 596.023 432.103 596.547 431.824C597.106 431.51 597.699 431.37 598.328 431.37C599.201 431.37 599.795 431.615 600.214 432.103C600.633 432.592 600.842 433.326 600.842 434.234V442.825H603.671V434.234C603.671 433.465 603.566 432.767 603.392 432.138C603.112 431.44 602.833 430.881 602.449 430.427Z" fill="#57595B"/>
<path d="M615.929 429.17C615.719 429.17 615.545 429.24 615.37 429.345C615.195 429.45 615.091 429.624 615.021 429.799L611.633 438.04C611.598 438.145 611.528 438.285 611.494 438.39C611.459 438.285 611.424 438.145 611.354 438.04L607.862 429.799C607.792 429.659 607.687 429.484 607.547 429.38C607.373 429.24 607.163 429.17 606.919 429.17H604.544L610.062 441.742L607.547 447.19H609.643C609.957 447.19 610.201 447.12 610.341 446.981C610.481 446.841 610.586 446.701 610.69 446.492L618.129 429.205H615.929V429.17Z" fill="#57595B"/>
<path d="M620.957 440.345C620.853 440.101 620.713 439.926 620.573 439.752C620.399 439.577 620.189 439.437 619.98 439.332C619.526 439.123 618.967 439.123 618.513 439.332C618.268 439.437 618.094 439.577 617.919 439.752C617.745 439.926 617.64 440.136 617.535 440.345C617.43 440.59 617.395 440.834 617.395 441.079C617.395 441.358 617.43 441.602 617.535 441.812C617.64 442.021 617.745 442.231 617.919 442.406C618.094 442.58 618.303 442.72 618.513 442.79C618.757 442.895 619.002 442.929 619.246 442.929C619.491 442.929 619.735 442.895 619.98 442.79C620.189 442.685 620.399 442.545 620.573 442.406C620.748 442.231 620.888 442.056 620.957 441.812C621.062 441.602 621.097 441.323 621.097 441.079C621.132 440.834 621.062 440.59 620.957 440.345Z" fill="#57595B"/>
</svg>
