<svg width="1024" height="768" viewBox="0 0 1024 768" fill="none" xmlns="http://www.w3.org/2000/svg">
<rect width="1024" height="768" fill="black"/>
<path d="M508.402 376.147L515.894 371.629L515.953 363.007L508.402 367.645V376.147Z" fill="white"/>
<path d="M515.834 382.568V381.439L515.894 373.353L508.402 377.871L508.462 381.439L508.402 387.087L515.834 382.568Z" fill="white"/>
<path d="M515.834 384.293L508.402 388.812L508.343 397.374L515.894 392.855L515.834 384.293Z" fill="white"/>
<path d="M516.251 460.458L515.953 394.52L508.343 399.158L508.045 460.696C507.986 470.15 503.586 470.982 503.586 470.982L512.148 481.744L520.65 470.982H520.71C520.71 470.982 516.251 470.15 516.251 460.458Z" fill="white"/>
<path d="M589.859 329.414C582.486 329.414 577.194 334.408 577.194 341.186C577.194 342.375 577.373 343.565 577.729 344.635C579.097 348.143 582.486 350.759 586.291 350.759C590.513 350.759 593.664 347.727 593.664 343.684C593.664 341.424 592.118 339.819 590.037 339.819C590.632 340.354 591.048 341.067 591.048 341.9C591.048 343.03 590.275 343.981 589.086 343.981C587.599 343.981 586.648 342.613 586.648 341.246C586.648 339.64 588.134 338.332 590.037 338.332C593.01 338.332 595.15 340.592 595.15 343.684C595.15 348.559 591.345 352.245 586.291 352.245C583.259 352.245 580.464 350.818 578.443 348.678C574.638 345.229 573.389 338.927 573.389 332.208V318.949C573.389 312.706 576.184 310.744 576.184 310.744C576.184 310.744 572.497 310.447 568.989 308.188C561.379 303.015 551.984 293.977 546.455 286.426C542.947 281.491 544.909 275.308 544.909 275.308C544.909 275.308 542.233 278.994 535.574 278.459L519.461 277.032C519.461 277.032 517.856 280.421 515.299 282.205C515.537 275.427 518.51 270.908 518.51 270.908L512.148 263L505.846 270.848C505.846 270.848 508.759 275.367 509.056 282.145C506.5 280.362 504.894 276.972 504.894 276.972L488.781 278.399C482.122 278.994 479.447 275.248 479.447 275.248C479.447 275.248 481.409 281.432 477.901 286.367C472.431 293.918 462.977 303.015 455.366 308.128C451.858 310.387 448.172 310.685 448.172 310.685C448.172 310.685 450.966 312.647 450.966 318.89V332.149C450.966 338.868 449.777 345.17 445.913 348.618C443.951 350.818 441.156 352.186 438.064 352.186C433.01 352.186 429.205 348.5 429.205 343.624C429.205 340.532 431.346 338.273 434.318 338.273C436.221 338.273 437.707 339.522 437.707 341.186C437.707 342.613 436.756 343.921 435.27 343.921C434.081 343.921 433.308 342.97 433.308 341.84C433.308 341.008 433.664 340.235 434.318 339.759C432.178 339.759 430.692 341.365 430.692 343.624C430.692 347.667 433.843 350.7 438.064 350.7C441.81 350.7 445.259 348.083 446.626 344.575C446.983 343.446 447.161 342.316 447.161 341.127C447.161 334.408 441.87 329.354 434.497 329.354C426.767 329.354 421 335.181 421 343.089C421 353.078 428.373 359.559 437.945 359.559C451.68 359.559 459.231 348.024 459.231 334.051V315.56C469.696 308.663 482.895 295.464 488.068 285.891L494.786 285.237C503.051 284.642 508.045 288.507 508.164 296.415L508.343 365.861L515.894 361.283L516.191 296.356C516.31 288.448 521.304 284.583 529.569 285.178L536.288 285.832C541.46 295.404 554.66 308.663 565.124 315.501V334.051C565.124 348.024 572.616 359.559 586.41 359.559C595.983 359.559 603.355 353.078 603.355 343.089C603.355 335.241 597.588 329.414 589.859 329.414Z" fill="white"/>
<path d="M547.287 413.367C542.769 413.367 539.379 416.756 539.379 421.037C539.379 423.832 540.866 426.329 543.898 426.329C545.622 426.329 546.931 425.14 546.931 423.713C546.931 422.643 546.158 421.751 544.968 421.751C543.541 421.751 542.531 423.059 542.531 424.248C542.531 424.486 542.59 424.724 542.65 424.902C542.055 424.486 541.401 423.534 541.401 421.453C541.401 418.005 543.601 415.686 546.99 415.686C551.925 415.686 554.065 420.918 554.065 426.626C554.065 435.783 549.368 445.236 541.044 445.236C536.407 445.236 535.812 441.55 535.812 436.675V380.785C535.812 377.336 536.704 373.888 540.331 373.888C541.639 373.888 542.65 374.601 542.947 375.731C541.639 375.79 540.747 376.801 540.747 377.812C540.747 378.644 541.282 379.239 542.115 379.239C543.66 379.239 544.731 377.99 544.731 376.504C544.731 373.65 542.65 371.926 539.558 371.926C535.336 371.926 531.412 374.839 527.607 377.158L496.511 396.065V383.401L530.58 362.71C534.682 360.212 538.428 360.748 538.428 360.748C538.428 360.748 535.812 358.845 535.812 353.315V327.273C535.812 323.052 536.763 318.771 540.806 318.771C549.666 318.771 554.006 327.689 554.006 337.381C554.006 343.029 551.865 348.321 546.931 348.321C543.541 348.321 541.342 346.002 541.342 342.554C541.342 340.473 541.996 339.521 542.59 339.105C542.531 339.283 542.471 339.521 542.471 339.759C542.471 340.948 543.482 342.256 544.909 342.256C546.039 342.256 546.871 341.364 546.871 340.294C546.871 338.867 545.563 337.678 543.839 337.678C540.806 337.678 539.32 340.235 539.32 342.97C539.32 347.251 542.65 350.64 547.228 350.64C554.779 350.64 558.584 343.089 558.584 335.716C558.584 317.7 545.266 313.182 535.039 309.852C534.98 311.16 533.909 312.23 532.542 312.23C531.174 312.23 530.045 311.101 530.045 309.733C530.045 309.198 530.223 308.722 530.461 308.306C526.418 306.82 523.623 305.155 523.623 302.182C523.623 300.458 524.277 299.566 525.645 299.269C525.348 299.447 525.11 299.744 525.11 300.28C525.11 301.052 525.823 301.706 526.775 301.706C527.726 301.706 528.439 301.112 528.439 300.101C528.439 298.853 527.369 298.08 525.942 298.08C523.385 298.08 521.602 299.923 521.602 302.717C521.602 310.09 527.607 311.576 527.607 320.852V355.932L496.63 374.779V320.852C496.63 311.636 502.635 310.149 502.635 302.717C502.635 299.863 500.792 298.08 498.294 298.08C496.868 298.08 495.797 298.853 495.797 300.101C495.797 301.112 496.511 301.706 497.462 301.706C498.413 301.706 499.127 301.112 499.127 300.28C499.127 299.685 498.889 299.388 498.592 299.269C499.959 299.566 500.613 300.458 500.613 302.182C500.613 305.155 497.819 306.82 493.776 308.306C494.073 308.722 494.192 309.198 494.192 309.733C494.192 311.101 493.062 312.23 491.695 312.23C490.327 312.23 489.257 311.16 489.198 309.852C479.03 313.182 465.652 317.641 465.652 335.716C465.652 343.089 469.458 350.64 477.009 350.64C481.528 350.64 484.917 347.251 484.917 342.97C484.917 340.175 483.43 337.678 480.398 337.678C478.674 337.678 477.366 338.867 477.366 340.294C477.366 341.364 478.138 342.256 479.328 342.256C480.755 342.256 481.765 340.948 481.765 339.759C481.765 339.521 481.706 339.283 481.646 339.105C482.241 339.521 482.895 340.473 482.895 342.554C482.895 346.002 480.695 348.321 477.306 348.321C472.371 348.321 470.231 343.089 470.231 337.381C470.231 327.689 474.571 318.771 483.43 318.771C488.068 318.771 488.425 322.933 488.425 327.749V371.747C488.425 380.487 483.609 382.093 483.609 382.093C483.609 382.093 488.425 383.698 488.425 392.438V436.853C488.425 441.669 487.83 445.415 483.192 445.415C474.868 445.415 470.171 435.902 470.171 426.805C470.171 421.156 472.312 415.864 477.247 415.864C480.636 415.864 482.836 418.183 482.836 421.632C482.836 423.713 482.182 424.664 481.587 425.08C481.646 424.902 481.706 424.664 481.706 424.426C481.706 423.237 480.695 421.929 479.268 421.929C478.138 421.929 477.306 422.821 477.306 423.891C477.306 425.318 478.614 426.507 480.338 426.507C483.371 426.507 484.857 423.951 484.857 421.216C484.857 416.935 481.528 413.546 476.949 413.546C469.398 413.546 465.593 421.097 465.593 428.469C465.593 440.837 472.252 452.728 484.679 452.728C485.69 452.728 486.641 452.609 487.473 452.49C487.533 451.182 488.603 450.112 489.97 450.112C491.338 450.112 492.468 451.242 492.468 452.609C492.468 453.798 491.635 454.75 490.565 455.047C491.754 459.03 494.43 462.182 498.77 462.182C503.408 462.182 504.597 457.782 504.597 457.782C504.597 457.782 503.527 458.852 501.446 458.852C497.7 458.852 496.57 454.155 496.57 449.815V404.508L527.666 385.66V449.577C527.666 453.977 526.596 458.614 522.791 458.614C520.71 458.614 519.64 457.544 519.64 457.544C519.64 457.544 520.769 461.944 525.466 461.944C529.807 461.944 532.482 458.793 533.672 454.809C532.601 454.512 531.769 453.56 531.769 452.371C531.769 451.004 532.899 449.874 534.266 449.874C535.634 449.874 536.704 450.944 536.763 452.252C537.596 452.431 538.547 452.49 539.558 452.49C551.39 452.49 558.644 441.193 558.644 428.232C558.703 420.918 554.838 413.367 547.287 413.367Z" fill="white"/>
<path d="M575.054 425.14C574.935 418.124 574.935 411.168 574.757 404.152C574.519 390.179 574.103 376.207 573.389 362.175C570.119 360.332 567.324 357.775 565.124 354.624V426.508C565.124 441.015 558.406 455.047 546.633 465.036L512.148 494.289L477.663 465.036C465.95 455.107 459.172 441.075 459.172 426.508V354.624C456.972 357.775 454.177 360.332 450.907 362.175C450.194 376.148 449.777 390.12 449.539 404.152C449.361 411.168 449.302 418.124 449.242 425.14C449.183 426.865 449.183 428.708 449.361 430.492C449.48 432.275 449.658 434.059 449.956 435.843C450.55 439.41 451.442 442.918 452.631 446.307C455.069 453.085 458.815 459.388 463.453 464.858C465.771 467.593 468.387 470.09 471.122 472.409C473.798 474.668 476.533 476.868 479.209 479.068C490.03 487.927 500.97 496.667 512.148 505.11C523.326 496.608 534.207 487.868 545.028 479.009L549.071 475.679L553.114 472.349C555.849 470.031 558.465 467.533 560.784 464.798C565.422 459.328 569.168 453.026 571.605 446.248C572.854 442.859 573.746 439.351 574.281 435.783C574.578 433.999 574.757 432.216 574.875 430.432C574.935 429.54 574.994 428.648 574.994 427.756C575.054 426.865 575.054 426.032 575.054 425.14ZM477.901 474.133L477.128 473.42L473.203 469.971C470.647 467.712 468.269 465.274 466.128 462.658C463.928 460.042 462.026 457.247 460.301 454.334C458.636 451.361 457.209 448.329 456.02 445.118C454.831 441.967 453.999 438.637 453.404 435.308C453.107 433.643 452.929 431.978 452.81 430.254C452.691 428.529 452.631 426.924 452.631 425.14C452.572 420.265 452.512 415.389 452.453 410.514V363.067C454.415 361.878 456.139 360.451 457.745 358.786V426.567C457.745 441.491 464.642 455.939 476.771 466.225L511.256 495.478L512.207 496.311L513.159 495.478L547.644 466.225C559.714 455.999 566.67 441.551 566.67 426.567V358.786C568.276 360.451 570 361.878 571.962 363.067V410.157C571.903 415.152 571.843 420.146 571.784 425.2C571.784 426.984 571.724 428.589 571.605 430.313C571.486 431.978 571.308 433.702 571.011 435.367C570.416 438.697 569.584 442.026 568.395 445.177C567.265 448.388 565.838 451.48 564.114 454.393C562.389 457.307 560.487 460.101 558.287 462.777C556.146 465.393 553.768 467.831 551.211 470.09L547.287 473.539L546.693 474.074L512.148 503.208L477.901 474.133Z" fill="white"/>
</svg>
