<svg width="1024" height="768" viewBox="0 0 1024 768" fill="none" xmlns="http://www.w3.org/2000/svg">
<rect width="1024" height="768" fill="#F9B110"/>
<path d="M654.506 385.939C654.217 397.144 635.374 423.287 623.028 426.627C622.956 426.663 622.883 426.627 622.847 426.519C621.259 423 620.104 418.296 620.104 412.083C620.104 409.354 620.356 405.188 620.898 400.268C620.898 400.16 621.042 400.089 621.151 400.124C623.605 401.417 626.782 402.351 629.959 402.351C645.445 402.351 657.069 368.989 657.069 350.782C657.069 339.721 639.164 330.923 629.056 330.923C617.035 330.923 610.213 350.602 606.603 371C605.087 380.014 599.852 391.757 592.849 400.914C592.741 401.058 592.524 400.95 592.56 400.771C597.036 383.892 598.841 363.53 598.841 354.014C598.841 345.503 583.969 336.094 575.341 336.094C562.454 336.094 551.841 375.632 548.808 396.425C548.772 396.605 548.483 396.605 548.483 396.389C548.303 387.16 548.411 377.859 548.808 369.169C548.808 369.133 548.808 369.133 548.808 369.097C554.512 355.378 562.959 334.119 562.959 328.409C562.959 323.956 552.093 316.917 547.545 316.917C538.159 316.917 533.394 346.113 532.311 377.823C532.311 377.859 532.311 377.859 532.275 377.895C530.037 382.133 526.86 387.376 523.214 393.086C523.142 393.229 522.889 393.157 522.925 392.978C523.864 373.334 523.719 355.45 523.719 348.879C523.719 340.152 511.265 335.915 504.118 336.202C504.082 345.754 490.653 404.146 481.051 412.55C480.942 412.622 480.798 412.586 480.798 412.442C480.509 410.898 480.329 409.138 480.329 407.163C480.329 397.431 487.043 344.318 487.043 337.53C487.043 331.784 475.166 331.066 469.102 331.066C469.03 331.066 468.957 331.138 468.957 331.21C468.957 333.293 468.596 338.428 468.127 345.144C468.127 345.215 468.055 345.287 467.983 345.287C465.095 345.395 459.824 345.682 453.543 346.293C453.435 346.293 453.363 346.221 453.363 346.113C455.384 333.76 456.936 323.345 456.936 318.821C456.936 311.064 446.179 308.047 439.717 307.939C439.609 307.939 439.573 308.011 439.537 308.083C439.501 312.392 437.443 329.594 435.241 348.735C435.241 348.807 435.169 348.879 435.097 348.879C424.844 350.854 415.206 353.87 410.549 358.503C407.445 361.591 410.152 369.707 412.102 373.693C412.138 373.801 412.282 373.801 412.354 373.729C417.047 369.133 424.917 365.506 433.364 362.705C433.472 362.669 433.58 362.776 433.58 362.884C433.4 364.572 433.183 366.26 433.003 367.947C431.992 377.5 422.642 409.461 412.607 416.608C412.535 416.679 412.426 416.644 412.354 416.572C407.336 407.666 403.221 385.257 402.355 378.829C402.247 378.039 401.741 377.284 400.622 377.284C399.25 377.284 397.12 377.68 394.774 378.254C394.63 378.29 394.521 378.147 394.594 378.039C403.474 356.851 414.52 338.069 423.509 337.602C423.653 337.602 423.725 337.423 423.617 337.351C422.065 335.699 413.365 326.577 407.77 326.577C396.362 326.577 380.01 373.909 374.775 400.519C374.739 400.735 374.45 400.663 374.45 400.484C376.905 374.053 385.785 329.271 385.785 316.414C385.785 307.544 374.053 306.251 367.375 306C367.267 306 367.194 306.072 367.194 306.144C367.122 317.779 359 390.751 359 411.329C359 421.743 367.628 432.373 378.349 433.953C378.457 433.953 378.53 433.881 378.53 433.809C378.602 426.95 381.959 413.017 387.085 397.826C387.121 397.682 387.338 397.682 387.41 397.826C390.334 406.517 394.088 414.884 396.976 417.757C401.741 422.497 411.488 425.37 418.744 425.37C422.931 425.37 426.722 419.983 429.862 412.945C429.934 412.801 430.115 412.837 430.151 412.945C433.003 422.174 443.147 429.68 451.486 429.68V429.643C451.666 429.643 451.81 429.68 451.991 429.68C457.803 429.68 462.279 418.978 465.492 407.235C465.528 407.091 465.745 407.055 465.781 407.199C469.571 415.135 481.375 423.898 488.559 423.898C495.779 423.898 502.926 398.652 507.728 376.674C507.764 376.494 508.053 376.53 508.053 376.71C508.414 389.89 508.305 404.326 507.439 417.182C507.439 417.218 507.439 417.254 507.403 417.254C498.017 431.655 489.895 444.834 489.895 449.79C489.895 454.89 499.353 462 504.551 462C514.045 462 518.846 440.561 521.265 416.105C521.265 416.069 521.265 416.069 521.301 416.033C525.127 409.569 528.809 403.069 531.77 397.287C531.842 397.144 532.058 397.18 532.058 397.359C532.383 425.155 535.452 450.652 540.542 455.715C547.184 462.323 557.58 458.876 559.241 458.265C559.349 458.229 559.385 458.085 559.313 458.014C559.096 457.762 558.844 457.511 558.627 457.224C544.91 439.627 563.753 356.743 580.864 345.18C580.972 345.108 581.081 345.18 581.117 345.287C581.406 346.472 581.55 347.801 581.55 349.238C581.55 364.428 575.377 414.381 561.01 414.812C560.901 414.812 560.829 414.92 560.865 414.992C561.19 416.536 563.789 427.238 574.402 427.238C574.547 427.238 574.691 427.238 574.836 427.238C587.398 426.914 597.758 412.191 602.884 403.213C602.957 403.069 603.209 403.141 603.173 403.285C603.101 405.367 603.065 407.271 603.065 408.887C603.065 421.528 618.407 436.179 631.475 436.179C645.914 436.179 664 410.718 664 397.431C664 390.823 656.239 386.514 654.759 385.76C654.65 385.724 654.542 385.796 654.506 385.939ZM445.168 419.445C445.096 419.517 444.952 419.481 444.915 419.373C444.194 416.931 444.085 413.771 444.085 410.395C444.085 401.381 447.912 378.829 451.377 358.108C451.377 358.036 451.449 358 451.522 357.964C457.983 356.564 463.651 355.666 467.225 355.127C467.333 355.127 467.405 355.199 467.405 355.307C467.189 358.179 466.972 361.196 466.755 364.213C466.106 373.083 456.431 410.18 445.168 419.445ZM638.586 341.014C638.659 340.942 638.803 340.978 638.839 341.086C639.561 342.953 640.03 345.144 640.03 347.657C640.03 360.873 632.738 389.279 621.656 395.599C621.548 395.671 621.403 395.563 621.403 395.42C623.858 376.063 629.634 348.735 638.586 341.014Z" fill="black"/>
</svg>
