<svg width="1024" height="768" viewBox="0 0 1024 768" fill="none" xmlns="http://www.w3.org/2000/svg">
<rect width="1024" height="768" fill="#DEF2C8"/>
<path d="M604.726 452.339C604.726 452.339 604.071 461.138 594.336 461.138C588.253 461.138 584.415 456.458 584.415 451.216C584.415 441.014 593.026 434.275 604.539 434.275C621.199 434.275 631.963 443.167 631.963 457.581C631.963 480.232 615.77 495.675 591.528 495.675C549.409 495.675 515.62 463.103 476.122 463.103C446.077 463.103 417.53 474.616 417.53 500.355C417.53 520.011 436.905 530.4 457.403 530.4C490.068 530.4 513.374 512.336 513.374 481.542C513.374 459.266 495.029 432.777 495.029 409.004C495.029 393.934 503.734 375.215 520.956 375.215C525.542 375.215 529.005 377.555 529.005 381.486C529.005 385.885 524.793 388.412 519.271 388.412C507.758 388.412 487.635 382.141 474.437 382.141C458.526 382.141 452.067 394.683 452.067 394.683C452.067 394.683 462.55 373.53 477.807 373.53C490.255 373.53 506.167 388.412 519.271 388.412C524.793 388.412 529.005 385.791 529.005 381.486C529.005 377.555 525.448 375.215 520.956 375.215C507.477 375.215 502.049 385.417 502.049 398.614C502.049 419.767 521.236 449.625 521.236 469.842C521.236 505.784 495.216 530.4 457.403 530.4C436.905 530.4 417.53 519.917 417.53 500.355C417.53 474.616 446.077 463.103 476.122 463.103C512.438 463.103 545.197 488.749 585.257 488.749C609.593 488.749 631.963 479.576 631.963 457.487C631.963 443.073 621.105 434.181 604.539 434.181C588.533 434.181 575.055 441.95 575.055 455.802C575.055 464.601 580.577 471.808 590.499 471.808C608.282 471.808 604.726 452.339 604.726 452.339Z" fill="black" stroke="black" stroke-width="1.25" stroke-miterlimit="10" stroke-linecap="round" stroke-linejoin="round"/>
<path d="M480.053 401.796C478.369 406.664 465.452 432.684 465.452 444.009C465.452 448.034 466.95 451.497 471.161 451.497C489.226 451.497 496.246 400.673 496.246 400.673C496.246 400.673 489.226 451.497 471.161 451.497C463.112 451.497 458.994 447.004 458.994 439.142C458.994 431.841 463.861 414.9 466.95 408.161C468.26 405.166 469.009 405.166 473.408 405.166C478.275 405.072 480.053 401.796 480.053 401.796Z" fill="black" stroke="black" stroke-width="1.25" stroke-miterlimit="10" stroke-linecap="round" stroke-linejoin="round"/>
<path d="M435.781 403.762C443.082 403.762 448.511 408.255 448.511 415.181C448.511 427.161 432.88 440.733 432.88 451.684C432.88 455.428 434.471 457.862 438.496 457.862C454.22 457.862 464.89 413.59 464.89 413.59C464.89 413.59 454.22 457.862 438.496 457.862C431.195 457.862 426.89 452.807 426.89 446.536C426.89 433.807 440.461 420.797 440.461 409.939C440.461 406.663 439.338 403.762 435.781 403.762C430.446 403.762 429.323 409.003 429.323 409.003C429.323 409.003 430.353 403.762 435.781 403.762Z" fill="black"/>
<path d="M435.781 403.762C443.082 403.762 448.511 408.255 448.511 415.181C448.511 427.161 432.88 440.733 432.88 451.684C432.88 455.428 434.471 457.862 438.496 457.862C454.22 457.862 464.89 413.59 464.89 413.59C464.89 413.59 454.22 457.862 438.496 457.862C431.195 457.862 426.89 452.807 426.89 446.536C426.89 433.807 440.461 420.797 440.461 409.939C440.461 406.663 439.338 403.762 435.781 403.762ZM435.781 403.762C430.446 403.762 429.323 409.003 429.323 409.003C429.323 409.003 430.353 403.762 435.781 403.762Z" stroke="black" stroke-width="1.25" stroke-miterlimit="10" stroke-linecap="round" stroke-linejoin="round"/>
<path d="M628.874 391.688C628.874 391.688 618.297 425.289 604.258 425.289C601.263 425.289 599.391 423.418 599.391 420.797C599.391 410.875 617.081 397.584 617.081 387.008C617.081 381.111 612.494 377.461 606.036 377.461C589.937 377.461 580.858 414.807 580.858 414.807C580.858 414.807 589.937 377.461 606.036 377.461C608.938 377.461 610.248 379.52 610.248 382.047C610.248 391.688 593.962 402.452 593.962 414.526C593.962 420.422 598.08 425.383 604.258 425.383C618.391 425.383 628.874 391.688 628.874 391.688Z" fill="black" stroke="black" stroke-width="1.25" stroke-miterlimit="10" stroke-linecap="round" stroke-linejoin="round"/>
<path d="M555.212 412.186C551.843 421.265 546.601 438.955 536.399 438.955C528.911 438.955 524.98 434.556 524.98 427.255C524.98 418.27 529.286 403.856 532.843 395.151C533.966 392.53 535.931 392.437 539.207 392.437C544.542 392.437 546.04 389.254 546.04 389.254C542.857 397.584 531.532 419.018 531.532 431.935C531.532 435.96 532.749 438.955 536.399 438.955C546.508 438.955 551.843 421.265 555.212 412.186C559.144 401.609 563.823 384.294 573.932 384.294C580.577 384.294 584.789 390.752 584.789 396.649C584.789 403.294 578.799 423.137 576.834 428.097C576.085 429.876 574.026 430.25 571.218 430.25C566.07 430.25 564.011 435.492 564.011 435.492C566.725 426.693 578.518 399.924 578.518 389.816C578.518 386.54 577.395 384.294 574.026 384.294C563.823 384.294 559.05 401.609 555.212 412.186Z" fill="black"/>
<path d="M555.212 412.186C551.843 421.265 546.601 438.955 536.399 438.955C528.911 438.955 524.98 434.556 524.98 427.255C524.98 418.27 529.286 403.856 532.843 395.151C533.966 392.53 535.931 392.437 539.207 392.437C544.542 392.437 546.04 389.254 546.04 389.254C542.857 397.584 531.532 419.018 531.532 431.935C531.532 435.96 532.749 438.955 536.399 438.955C546.508 438.955 551.843 421.265 555.212 412.186ZM555.212 412.186C559.144 401.609 563.823 384.294 573.932 384.294C580.577 384.294 584.789 390.752 584.789 396.649C584.789 403.294 578.799 423.137 576.834 428.097C576.085 429.876 574.026 430.25 571.218 430.25C566.07 430.25 564.011 435.492 564.011 435.492C566.725 426.693 578.518 399.924 578.518 389.816C578.518 386.54 577.395 384.294 574.026 384.294C563.823 384.294 559.05 401.609 555.212 412.186Z" stroke="black" stroke-width="1.25" stroke-miterlimit="10" stroke-linecap="round" stroke-linejoin="round"/>
<path d="M581.607 262.429C581.607 278.154 568.691 322.425 552.872 322.425C544.823 322.425 540.518 317.465 540.518 309.509C540.518 302.208 545.385 285.735 548.473 278.996C549.784 276.001 550.533 276.001 554.932 276.001C559.799 276.001 561.577 272.725 561.577 272.725C559.892 277.592 546.976 303.144 546.976 314.47C546.976 318.494 548.754 322.425 552.966 322.425C568.691 322.425 581.607 278.154 581.607 262.429C581.607 255.503 578.05 251.291 571.779 251.291C567.567 251.291 564.479 253.818 564.479 257.936C564.479 273.286 596.957 258.498 596.957 275.158C596.957 292.193 581.326 305.203 581.326 322.519C581.326 344.702 597.331 355.933 620.731 355.933C645.254 355.933 670.806 338.805 670.806 315.218C670.806 304.361 663.318 297.716 652.274 297.716C619.14 297.716 609.125 376.151 553.715 376.151C542.483 376.151 535.089 369.692 535.089 359.49C535.089 352.564 539.02 346.574 546.789 346.574C553.06 346.574 556.242 351.254 556.242 356.682C556.242 361.549 553.247 363.702 553.247 363.702C553.247 363.702 564.666 363.141 564.666 351.066C564.666 341.987 556.523 335.904 547.444 335.904C535.838 335.904 528.069 344.327 528.069 355.185C528.069 368.569 539.207 376.151 553.621 376.151C600.701 376.151 604.632 297.716 652.18 297.716C663.224 297.716 670.712 304.455 670.712 315.218C670.712 338.805 645.16 355.933 620.637 355.933C603.135 355.933 584.696 349.288 584.696 329.632C584.696 312.317 606.036 295.75 606.036 278.809C606.036 255.877 564.385 274.971 564.385 257.936C564.385 253.725 567.474 251.291 571.686 251.291C578.05 251.291 581.607 255.503 581.607 262.429Z" fill="black"/>
<path d="M581.607 262.429C581.607 278.154 568.691 322.425 552.872 322.425C544.823 322.425 540.518 317.465 540.518 309.509C540.518 302.208 545.385 285.735 548.473 278.996C549.784 276.001 550.533 276.001 554.932 276.001C559.799 276.001 561.577 272.725 561.577 272.725C559.892 277.592 546.976 303.144 546.976 314.47C546.976 318.494 548.754 322.425 552.966 322.425C568.691 322.425 581.607 278.154 581.607 262.429ZM581.607 262.429C581.607 255.503 578.05 251.291 571.779 251.291C567.567 251.291 564.479 253.818 564.479 257.936C564.479 273.286 596.957 258.498 596.957 275.158C596.957 292.193 581.326 305.203 581.326 322.519C581.326 344.702 597.331 355.933 620.731 355.933C645.254 355.933 670.806 338.805 670.806 315.218C670.806 304.361 663.318 297.716 652.274 297.716C619.14 297.716 609.125 376.151 553.715 376.151C542.483 376.151 535.089 369.692 535.089 359.49C535.089 352.564 539.02 346.574 546.789 346.574C553.06 346.574 556.242 351.254 556.242 356.682C556.242 361.549 553.247 363.702 553.247 363.702C553.247 363.702 564.666 363.141 564.666 351.066C564.666 341.987 556.523 335.904 547.444 335.904C535.838 335.904 528.069 344.327 528.069 355.185C528.069 368.569 539.207 376.151 553.621 376.151C600.701 376.151 604.632 297.716 652.18 297.716C663.224 297.716 670.712 304.455 670.712 315.218C670.712 338.805 645.16 355.933 620.637 355.933C603.135 355.933 584.696 349.288 584.696 329.632C584.696 312.317 606.036 295.75 606.036 278.809C606.036 255.877 564.385 274.971 564.385 257.936C564.385 253.725 567.474 251.291 571.686 251.291C578.05 251.291 581.607 255.503 581.607 262.429Z" stroke="black" stroke-width="1.25" stroke-miterlimit="10" stroke-linecap="round" stroke-linejoin="round"/>
<path d="M517.68 274.69C524.98 274.69 529.941 279.183 529.941 286.109C529.941 298.09 514.31 311.662 514.31 322.613C514.31 326.356 515.901 328.79 519.926 328.79C536.306 328.79 546.321 284.518 546.321 284.518C546.321 284.518 536.306 328.79 519.926 328.79C512.625 328.79 508.32 323.736 508.32 317.465C508.32 304.923 521.892 291.725 521.892 280.587C521.985 277.311 520.956 274.69 517.68 274.69C512.906 274.69 510.66 279.37 510.66 279.37C510.66 279.37 513 274.69 517.68 274.69Z" fill="black"/>
<path d="M517.68 274.69C524.98 274.69 529.941 279.183 529.941 286.109C529.941 298.09 514.31 311.662 514.31 322.613C514.31 326.356 515.901 328.79 519.926 328.79C536.306 328.79 546.321 284.518 546.321 284.518C546.321 284.518 536.306 328.79 519.926 328.79C512.625 328.79 508.32 323.736 508.32 317.465C508.32 304.923 521.892 291.725 521.892 280.587C521.985 277.311 520.956 274.69 517.68 274.69ZM517.68 274.69C512.906 274.69 510.66 279.37 510.66 279.37C510.66 279.37 513 274.69 517.68 274.69Z" stroke="black" stroke-width="1.25" stroke-miterlimit="10" stroke-linecap="round" stroke-linejoin="round"/>
<path d="M319.439 477.798C323.464 466.285 343.962 409.471 343.962 391.126C343.962 376.431 338.814 364.825 324.306 364.825C298.192 364.825 282 396.742 282 420.329C282 432.029 287.803 445.507 300.158 445.507C308.769 445.507 313.917 436.147 313.917 427.91C313.917 415.93 305.212 412.186 305.212 412.186C305.212 412.186 313.917 415.836 313.917 427.91C313.917 436.24 308.769 445.507 300.158 445.507C290.424 445.507 289.862 433.432 289.862 424.26C289.862 404.043 302.124 364.825 324.306 364.825C332.917 364.825 336.474 369.973 336.474 378.865C336.474 408.161 302.498 490.714 302.498 490.714C302.498 490.714 305.025 481.823 313.168 481.823C316.725 481.823 318.503 480.606 319.439 477.798Z" fill="black" stroke="black" stroke-width="1.25" stroke-miterlimit="10" stroke-linecap="round" stroke-linejoin="round"/>
<path d="M336.006 425.57C336.006 425.57 348.548 369.224 370.918 369.224C376.908 369.224 378.125 373.904 378.125 380.269C378.125 400.954 348.548 471.714 344.243 488.468C344.243 488.468 346.395 479.857 354.913 479.857C357.534 479.857 359.031 480.325 359.78 478.172C366.145 458.517 385.707 406.383 385.707 389.722C385.707 379.427 381.495 369.318 370.918 369.318C348.642 369.224 336.006 425.57 336.006 425.57Z" fill="black" stroke="black" stroke-width="1.25" stroke-miterlimit="10" stroke-linecap="round" stroke-linejoin="round"/>
<path d="M440.274 490.714C440.274 490.714 426.141 490.995 426.141 477.891C426.141 469.093 434.097 463.197 443.456 463.197C454.688 463.197 461.802 470.497 461.802 481.542C461.802 497.921 444.673 507.843 426.796 507.843C403.958 507.843 386.923 491.744 386.923 467.97C386.923 443.728 416.5 412.747 416.5 389.254C416.5 383.826 414.16 378.022 407.983 378.022C383.273 378.022 369.233 448.876 369.233 448.876C369.233 448.876 383.273 378.022 407.983 378.022C418.091 378.022 423.427 386.54 423.427 397.116C423.427 422.575 394.692 453.556 394.692 478.64C394.692 497.173 408.451 507.749 426.796 507.749C444.018 507.749 456.467 499.513 456.467 483.788C456.467 477.704 452.816 471.808 446.077 471.808C440.181 471.808 436.437 476.113 436.437 482.291C436.437 488.562 440.274 490.714 440.274 490.714Z" fill="black" stroke="black" stroke-width="1.25" stroke-miterlimit="10" stroke-linecap="round" stroke-linejoin="round"/>
<path d="M436.156 256.158C440.461 246.143 450.664 238 463.58 238C486.044 238 490.255 256.72 490.255 278.06C490.255 307.918 474.344 363.515 442.988 363.515C423.52 363.515 417.904 344.982 417.904 326.356C417.904 302.676 428.762 257.843 453.846 257.843C468.166 257.843 475.935 268.7 475.935 282.646C475.935 305.859 460.211 333.938 440.461 333.938C428.481 333.938 427.545 321.396 427.545 321.396C427.545 321.396 428.574 334.031 440.555 334.031C457.871 334.031 468.822 296.405 468.822 275.814C468.822 265.705 465.546 257.936 453.939 257.936C424.924 257.936 407.328 293.223 407.328 320.273C407.328 344.14 420.525 363.515 443.082 363.515C478.649 363.515 500.27 319.337 500.27 284.799C500.27 261.306 488.945 238 463.674 238C450.664 238 440.461 246.143 436.156 256.158Z" fill="black" stroke="black" stroke-width="1.25" stroke-miterlimit="10" stroke-linecap="round" stroke-linejoin="round"/>
<path d="M676.422 392.998C694.299 392.998 691.21 354.436 711.895 354.436C691.21 354.436 694.299 392.998 676.422 392.998Z" fill="black" stroke="black" stroke-width="1.25" stroke-miterlimit="10" stroke-linecap="round" stroke-linejoin="round"/>
<path d="M665.19 376.057C665.19 376.057 663.88 368.195 655.362 368.195C642.82 368.195 635.145 397.678 635.145 408.535C635.145 413.028 636.362 418.082 641.51 418.082C657.889 418.082 664.16 379.894 664.16 379.894C664.16 379.894 657.889 418.082 641.51 418.082C632.524 418.082 627.096 412.279 627.096 403.294C627.096 387.944 637.953 368.101 655.456 368.101C663.88 368.195 665.19 376.057 665.19 376.057Z" fill="black" stroke="black" stroke-width="1.25" stroke-miterlimit="10" stroke-linecap="round" stroke-linejoin="round"/>
<path d="M666.032 380.924C666.032 380.924 681.102 375.776 681.102 366.416C681.102 363.889 679.604 361.83 676.796 361.83C656.953 361.83 662.288 419.674 655.269 453.65C647.874 489.872 632.899 514.863 593.213 514.863C567.755 514.863 545.197 501.01 545.197 477.798C545.197 454.96 563.917 443.448 589.095 443.448C620.731 443.448 663.505 465.256 694.112 465.256C722.753 465.256 741.472 448.408 741.472 423.698C741.472 403.2 727.807 389.161 707.215 389.161C692.24 389.161 678.107 398.895 678.107 412.935C678.107 421.452 684.19 426.881 692.989 426.881C705.063 426.881 709.743 417.615 709.743 406.289C709.743 390.939 698.417 384.387 698.417 370.067C698.417 362.205 703.565 354.436 711.802 354.436C720.413 354.436 718.634 367.914 725.654 367.914C732.3 367.914 733.704 357.057 733.704 357.057C733.704 357.057 732.955 361.456 726.777 361.456C720.132 361.456 719.477 354.53 711.708 354.53C705.812 354.53 703.752 358.835 703.752 364.076C703.752 377.835 718.634 386.914 718.634 401.328C718.634 415.275 708.9 426.974 692.895 426.974C684.097 426.974 678.013 421.546 678.013 413.028C678.013 399.082 692.053 389.254 707.122 389.254C727.713 389.254 741.379 403.294 741.379 423.792C741.379 448.408 722.659 465.349 694.018 465.349C663.412 465.349 621.199 443.541 589.001 443.541C563.917 443.541 545.104 455.054 545.104 477.892C545.104 501.104 567.661 514.956 593.12 514.956C632.618 514.956 657.609 494.271 665.003 458.049C672.21 422.388 656.86 361.924 676.703 361.924C679.417 361.924 681.008 363.889 681.008 366.51C681.102 375.776 666.032 380.924 666.032 380.924Z" fill="black" stroke="black" stroke-width="1.25" stroke-miterlimit="10" stroke-linecap="round" stroke-linejoin="round"/>
</svg>
