<svg width="1024" height="768" viewBox="0 0 1024 768" fill="none" xmlns="http://www.w3.org/2000/svg">
<rect width="1024" height="768" fill="black"/>
<path d="M466.765 392.068C466.285 393.19 465.804 394.366 465.376 395.541C475.635 394.152 485.573 388.435 494.122 379.031C494.336 377.161 494.443 375.504 494.443 374.062C494.443 368.932 493.214 367.757 491.077 367.436C486.161 376.733 477.933 388.542 466.765 392.068Z" fill="#DEF2C8"/>
<path d="M519.128 467.406C520.731 467.406 522.28 467.086 523.029 464.842C524.311 460.888 526.128 455.491 528.265 449.293C534.089 432.355 541.355 411.303 544.775 396.503C551.294 382.344 558.507 374.863 565.506 374.863C571.544 374.863 571.865 382.237 571.865 383.679C571.865 393.938 565.186 408.044 558.721 421.669C551.935 435.935 544.989 450.682 544.989 462.117C544.989 480.551 555.568 492.947 571.384 493C583.78 493 587.52 484.718 587.627 484.344C587.68 484.184 587.734 483.97 587.734 483.81C587.734 483.276 587.413 482.741 586.879 482.527C586.719 482.474 586.505 482.421 586.345 482.421C585.81 482.421 585.276 482.741 585.062 483.276C584.955 483.543 581.856 490.222 571.384 490.222C561.232 490.222 554.927 483.222 554.927 471.948C554.927 460.888 561.446 446.354 567.804 432.302C574.323 417.822 581.055 402.808 581.055 390.893C581.055 385.656 579.719 381.061 577.155 377.749C574.376 374.062 570.369 372.138 565.56 372.138C558.988 372.138 552.683 377.054 546.859 386.725L546.805 386.778H546.699C546.645 386.778 546.592 386.778 546.592 386.725L546.538 386.672V386.618C546.645 385.656 546.699 384.801 546.699 384C546.699 378.71 545.523 373.901 543.386 370.482C540.768 366.261 536.814 364.07 531.898 364.07C523.67 364.07 515.976 371.551 509.029 386.244L508.655 386.672V386.03C508.655 385.763 508.655 385.443 508.655 385.176C508.655 368.879 501.816 359.902 489.367 359.902C478.093 359.902 466.979 366.849 458.003 379.458C450.202 390.465 445.339 404.197 445.339 415.311C445.339 429.15 452.125 438.126 462.704 438.126C471.895 438.126 478.253 427.119 478.253 417.234C478.253 406.655 471.734 403.235 471.467 403.075C471.254 402.968 471.04 402.915 470.826 402.915C470.292 402.915 469.811 403.182 469.597 403.663C469.49 403.876 469.437 404.09 469.437 404.304C469.437 404.838 469.704 405.319 470.185 405.533C470.399 405.64 475.475 408.418 475.475 417.181C475.475 424.715 470.612 435.294 462.704 435.294C457.682 435.294 455.278 430.165 455.278 419.692C455.278 410.235 459.392 395.648 465.323 384.214C469.49 376.146 478.146 362.681 489.42 362.627C496.153 362.627 499.145 366.154 499.145 373.955C499.145 397.518 474.192 460.567 469.223 472.963C468.849 473.765 468.529 474.513 468.315 475.261C468.101 475.955 468.422 476.757 469.063 477.024C469.223 477.077 469.437 477.131 469.597 477.131C470.185 477.131 470.666 476.81 470.879 476.276C470.986 476.009 471.254 475.314 471.734 474.192C472.696 472.269 475.047 469.063 479.268 469.063C483.008 469.063 485.146 467.62 486.268 464.468C486.428 463.933 486.642 463.346 486.909 462.651L487.123 462.117C491.237 450.415 502.244 419.265 506.732 398.854C507.64 396.236 508.602 393.725 509.617 391.427C514.373 380.153 522.12 366.688 531.845 366.688C535.051 366.688 537.028 368.131 537.028 375.344C537.028 387.794 524.738 421.402 515.762 445.927C511.434 457.789 507.694 468.048 506.304 473.177C506.304 473.23 506.251 473.284 506.251 473.337C506.091 473.978 506.358 474.62 506.839 474.94C507.053 475.101 507.32 475.154 507.587 475.154C508.228 475.154 508.762 474.726 508.923 474.085V474.032C509.136 473.337 510.953 467.246 517.258 467.246C517.632 467.246 517.953 467.246 518.273 467.246V467.3V467.246C518.594 467.406 518.861 467.406 519.128 467.406Z" fill="#DEF2C8"/>
<path d="M530.562 332.706C529.868 332.706 529.28 333.187 529.173 333.775C529.12 334.149 529.227 334.576 529.44 334.843C529.707 335.164 530.082 335.324 530.456 335.324C548.515 335.324 553.217 339.973 553.217 358.032C553.217 358.727 553.698 359.315 554.286 359.422C554.393 359.422 554.446 359.422 554.553 359.422C555.301 359.422 555.889 358.834 555.889 358.086C555.889 340.026 560.537 335.324 578.597 335.324C579.292 335.324 579.88 334.843 579.986 334.255C580.04 333.881 579.933 333.454 579.719 333.187C579.452 332.866 579.078 332.706 578.704 332.706C560.644 332.706 555.942 328.057 555.942 309.998C555.942 309.303 555.461 308.715 554.874 308.608C554.767 308.608 554.713 308.608 554.606 308.608C553.858 308.608 553.271 309.196 553.271 309.944C553.271 328.004 548.622 332.706 530.562 332.706Z" fill="#DEF2C8"/>
<path d="M611.19 446.354C611.083 445.713 610.442 445.232 609.748 445.232C602.962 445.232 599.061 444.217 596.764 441.973C594.466 439.675 593.505 435.775 593.505 428.989C593.505 428.295 593.024 427.653 592.382 427.547C592.276 427.547 592.222 427.547 592.115 427.547C591.367 427.547 590.726 428.188 590.726 428.936C590.726 435.775 589.764 439.675 587.467 441.973C585.169 444.271 581.269 445.232 574.483 445.232C573.788 445.232 573.147 445.713 573.04 446.354C572.987 446.782 573.094 447.209 573.361 447.53C573.628 447.85 574.002 448.011 574.43 448.011C581.269 448.011 585.169 448.972 587.467 451.27C589.764 453.568 590.726 457.468 590.726 464.254C590.726 464.948 591.207 465.59 591.848 465.697C591.955 465.697 592.008 465.697 592.115 465.697C592.863 465.697 593.505 465.055 593.505 464.307C593.505 457.468 594.466 453.568 596.764 451.27C599.061 448.972 602.962 448.011 609.801 448.011C610.229 448.011 610.603 447.85 610.87 447.53C611.137 447.156 611.244 446.728 611.19 446.354Z" fill="#DEF2C8"/>
<path d="M480.925 275.053C468.796 275.053 458.323 282.48 455.224 289.694C455.171 289.854 455.117 290.068 455.117 290.228C455.117 290.869 455.545 291.403 456.132 291.564C456.239 291.617 456.4 291.617 456.506 291.617C457.041 291.617 457.575 291.243 457.842 290.709C460.567 284.511 470.131 277.832 480.925 277.832H480.978C490.061 277.832 496.42 281.251 500.427 288.198C503.793 294.075 505.45 302.25 505.45 313.257C505.45 325.386 501.923 341.843 496.259 356.109C500.053 357.124 503.366 359.101 505.984 361.933C513.144 348.361 517.258 332.866 517.258 319.401C517.258 307.86 514.052 297.067 508.228 288.999C501.602 279.916 492.145 275.053 480.925 275.053V275V275.053Z" fill="#DEF2C8"/>
<path d="M425.196 354.185C425.196 362.895 427.119 371.07 430.806 377.802C434.386 384.374 439.515 389.45 445.66 392.496C446.194 391.16 446.728 389.931 447.316 388.755C439.301 382.076 437.592 369.146 437.592 359.528C437.592 350.071 439.729 333.881 445.874 319.348C450.308 308.769 458.216 296.105 470.505 296.105H470.559C479.108 296.105 482.741 300.7 482.741 311.387C482.741 317.478 480.871 328.485 476.81 338.263C474.352 344.087 469.17 353.918 461.85 354.452C461.636 354.452 461.422 354.452 461.208 354.452C451.644 354.452 450.682 343.659 450.629 343.178C450.576 342.43 449.988 341.896 449.24 341.896C449.186 341.896 449.133 341.896 449.026 341.896C448.331 342.003 447.797 342.698 447.851 343.499C448.225 348.254 451.537 357.231 461.208 357.231C461.476 357.231 461.743 357.231 462.01 357.177C469.811 356.857 477.398 352.155 483.329 343.926C488.832 336.339 492.145 326.668 492.145 318.119C492.145 311.013 490.275 304.975 486.802 300.594C483.008 295.838 477.398 293.274 470.612 293.274V293.22V293.274C457.735 293.274 445.874 300.594 437.218 313.898C429.684 325.386 425.196 340.453 425.196 354.185Z" fill="#DEF2C8"/>
<path d="M455.171 461.208C455.919 461.208 456.56 460.727 456.667 460.033C456.72 459.605 456.613 459.178 456.346 458.857C456.079 458.537 455.652 458.323 455.224 458.323C440.156 458.323 436.256 454.423 436.256 439.462C436.256 438.714 435.775 438.073 435.081 437.966C434.974 437.966 434.92 437.966 434.813 437.966C434.012 437.966 433.371 438.607 433.371 439.408C433.371 454.476 429.47 458.376 414.509 458.376C413.761 458.376 413.12 458.857 413.013 459.552C412.96 459.979 413.067 460.407 413.334 460.727C413.601 461.048 414.029 461.262 414.456 461.262C429.524 461.262 433.424 465.162 433.424 480.123C433.424 480.871 433.905 481.512 434.6 481.619C434.706 481.619 434.76 481.619 434.867 481.619C435.668 481.619 436.309 480.978 436.309 480.176C436.309 465.109 440.157 461.208 455.171 461.208Z" fill="#DEF2C8"/>
</svg>
