<svg width="1024" height="768" viewBox="0 0 1024 768" fill="none" xmlns="http://www.w3.org/2000/svg">
<rect width="1024" height="768" fill="#283044"/>
<path d="M686.067 312.853C676.141 312.853 669.933 321.155 666.359 328.662C666.359 328.446 666.359 328.229 666.359 328.013C666.359 322.274 663.436 319.242 657.949 319.242C654.412 319.242 651.416 320.685 650.369 321.263C650.225 321.335 650.225 321.552 650.369 321.624C650.983 321.949 652.174 322.959 652.174 326.244C652.174 339.491 641.093 362.556 641.093 373.853C641.093 380.82 644.233 386.306 651.236 386.306C656.866 386.306 659.285 382.769 659.898 381.722C659.971 381.578 659.898 381.433 659.754 381.433C658.743 381.325 655.603 380.639 655.603 375.369C655.603 372.012 656.83 366.598 658.455 360.534C662.858 346.457 669.788 323.429 679.57 323.429C682.963 323.429 684.804 325.703 684.804 329.132C684.804 333.752 682.025 339.852 676.827 339.852C675.13 339.852 674.084 339.31 673.578 338.913C673.434 338.805 673.217 338.913 673.254 339.094C673.578 341.404 675.311 350.031 683.757 350.031C693.033 350.031 700 338.589 700 328.987C700.036 320.036 695.271 312.853 686.067 312.853Z" fill="#78A1BB"/>
<path d="M506.387 351.258C506.242 351.294 506.17 351.474 506.315 351.619C506.748 352.052 507.47 353.099 507.47 355.337C507.47 367.934 494.764 389.988 494.764 402.693C494.764 410.309 498.554 416.012 505.918 416.012C512.523 416.012 515.086 411.175 515.663 409.876C515.735 409.732 515.627 409.587 515.483 409.587C514.255 409.623 509.888 409.262 509.888 401.574C509.888 389.518 522.124 370.28 522.124 359.668C522.052 347.721 508.841 350.644 506.387 351.258Z" fill="#78A1BB"/>
<path d="M477.114 356.672C477.006 356.672 476.897 356.744 476.897 356.889C476.897 357.683 476.789 358.621 476.645 359.632C476.645 359.668 476.609 359.668 476.609 359.704C476.356 361.473 475.923 363.602 475.309 366.021C474.443 369.414 473.324 373.204 472.133 377.138C466.43 394.788 456.756 416.373 449.718 416.373C447.769 416.373 447.083 414.713 447.083 412.727C447.083 404.029 458.597 381.433 458.597 372.807C458.597 366.598 454.699 363.422 448.346 363.422C445.134 363.422 442.824 364.216 441.993 364.577C441.849 364.649 441.813 364.83 441.957 364.938C442.463 365.335 443.401 366.454 443.401 369.125C443.401 381.902 431.634 402.332 431.634 414.424C431.634 422.004 435.533 428.97 443.618 428.97C451.992 428.97 458.669 421.21 463.795 411.211C464.481 417.889 468.09 422.726 475.165 422.726C481.77 422.726 483.972 417.925 484.441 416.662C484.477 416.517 484.405 416.373 484.261 416.373C483.07 416.409 478.594 416.012 478.594 409.262C478.594 397.892 490.577 374.828 490.577 365.66C490.577 359.199 483.864 356.708 477.114 356.672Z" fill="#78A1BB"/>
<path d="M519.597 337.325C528.621 337.325 535.082 328.482 535.082 320.577C535.082 312.817 528.838 311.553 527.177 311.373C526.997 311.337 526.889 311.517 526.961 311.662C527.214 312.167 527.647 313.214 527.647 315.091C527.647 319.169 525.517 325.017 520.897 325.017C518.262 325.017 516.927 323.068 516.927 320.288C516.927 313.972 521.583 306.536 528.441 306.536C529.812 306.536 530.607 306.753 531.04 306.933C531.22 307.006 531.364 306.825 531.292 306.681C530.823 305.598 529.307 303.179 524.94 303.179C514.761 303.179 506.928 313.539 506.928 323.645C506.964 331.333 511.693 337.325 519.597 337.325Z" fill="#78A1BB"/>
<path d="M555.007 401.43C555.007 387.678 585.507 358.982 585.507 341.079C585.507 332.091 579.262 323.465 569.048 323.465C560.565 323.465 554.934 330.142 554.934 338.48C554.934 346.168 559.988 352.052 566.99 354.037C560.132 368.619 548.04 386.45 548.04 395.041C548.04 396.088 548.112 396.99 548.293 397.82C545.73 395.907 542.59 392.478 542.59 387.064C542.59 375.911 551.939 359.668 551.939 351.835C551.939 343.173 539.414 343.389 537.717 343.425C537.609 343.425 537.537 343.533 537.537 343.642C537.465 355.806 529.127 373.709 529.127 386.27C529.127 398.47 539.017 407.566 550.856 407.566C554.249 407.566 555.873 406.591 556.378 406.194C556.487 406.122 556.486 405.978 556.414 405.905C556.017 405.508 555.007 404.065 555.007 401.43ZM563.525 339.238C563.525 336.495 564.608 333.283 567.64 333.283C570.419 333.283 571.646 336.495 571.646 338.949C571.646 341.765 570.708 345.194 569.192 349.02C565.763 347.035 563.525 343.57 563.525 339.238Z" fill="#78A1BB"/>
<path d="M617.703 326.1C605.936 326.1 595.289 332.019 595.289 342.415C595.289 347.432 597.887 351.005 601.93 353.279C591.462 356.961 583.702 365.587 583.702 375.694C583.702 388.111 592.437 396.232 606.189 396.232C620.808 396.232 632.466 386.992 632.466 373.709C632.466 366.742 628.351 360.967 620.771 360.967C613.841 360.967 610.845 366.165 609.979 368.006C609.907 368.186 610.087 368.367 610.232 368.258C610.593 368.078 611.206 367.897 612.073 367.897C616.187 367.897 618.209 371.074 618.209 375.08C618.209 381.253 613.877 386.956 607.525 386.956C601.244 386.956 598.465 381.686 598.465 375.694C598.465 365.804 604.673 356.275 615.646 356.275C620.447 356.275 620.699 352.521 620.699 351.583C620.699 351.474 620.591 351.366 620.483 351.366C613.697 351.294 609.474 348.081 609.474 342.27C609.474 336.928 613.336 333.21 618.895 333.21C622.901 333.21 626.186 335.268 626.186 338.913C626.186 341.151 624.742 342.884 622.324 342.884C621.566 342.884 621.024 342.667 620.699 342.523C620.555 342.451 620.374 342.559 620.411 342.739C620.735 344.255 622.179 348.731 628.532 348.731C634.199 348.731 637.808 344.869 637.808 339.743C637.917 330.864 628.46 326.1 617.703 326.1Z" fill="#78A1BB"/>
<path d="M454.374 439.474C452.641 441.964 447.119 448.317 435.569 448.317C425.209 448.317 415.283 443.769 405.177 438.932C417.16 422.04 424.235 399.661 424.235 380.423C424.235 374.467 423.044 368.62 420.77 363.458C424.993 362.772 430.371 360.029 430.371 350.644C430.371 333.932 412.901 322.599 393.699 322.599C348.219 322.599 323.097 367.428 323.097 410.309C323.097 436.081 336.56 464.921 362.368 464.921C375.29 464.921 386.841 458.857 396.37 449.4C406.801 455.897 417.052 462.358 429.216 462.358C447.949 462.358 453.544 444.455 454.699 439.69C454.807 439.438 454.518 439.293 454.374 439.474ZM394.601 332.813C408.931 332.813 420.264 341.801 420.264 354.254C420.264 356.925 419.831 358.802 419.182 360.137C414.237 351.438 405.826 345.375 394.42 345.375C371.284 345.375 355.979 370.93 355.979 392.262C355.979 405.473 361.394 418.431 375.507 418.431C390.883 418.431 400.593 400.528 400.593 386.162C400.593 369.342 387.707 371.904 384.928 372.698C384.747 372.734 384.711 372.987 384.891 373.059C386.046 373.673 388.681 375.839 388.681 383.202C388.681 392.984 384.169 410.634 375.687 410.634C369.804 410.634 368.685 401.322 368.685 395.005C368.685 379.159 377.456 353.351 394.168 353.351C406.945 353.351 410.447 368.62 410.447 380.387C410.447 395.727 404.31 417.528 394.096 433.663C386.046 430.125 377.745 427.31 368.974 427.31C355.366 427.31 348.183 434.998 344.898 440.088C341.397 432.147 339.737 422.329 339.737 413.847C339.773 378.618 357.387 332.813 394.601 332.813ZM363.632 455.5C355.402 455.5 349.446 449.58 345.548 441.459C348.436 439.041 353.597 436.045 361.61 436.045C370.923 436.045 379.008 439.33 386.696 443.553C380.019 450.808 372.222 455.5 363.632 455.5Z" fill="#78A1BB"/>
</svg>
