<svg width="1024" height="768" viewBox="0 0 1024 768" fill="none" xmlns="http://www.w3.org/2000/svg">
<rect width="1024" height="768" fill="#FF5A5F"/>
<path d="M670.918 324.484C670.844 324.188 670.623 323.967 670.328 324.004C653.507 324.299 644.691 331.086 640.781 346.726C640.523 347.722 640.302 348.681 640.044 349.603C633.81 348.866 628.019 348.866 621.785 349.603C621.526 348.681 621.305 347.685 621.047 346.726C617.1 331.086 608.247 324.299 591.464 324.004C591.169 324.004 590.91 324.225 590.873 324.484C590.8 324.779 590.947 325.037 591.242 325.148C593.788 326.18 600.095 329.98 603.341 342.964C605.112 350.046 607.251 351.854 611.087 351.854C612.674 351.854 614.518 351.558 616.731 351.19C618.022 350.968 619.498 350.747 621.121 350.526C623.039 357.719 625.289 364.1 630.896 364.1C636.503 364.1 638.753 357.719 640.671 350.526C642.294 350.747 643.769 350.968 645.06 351.19C647.31 351.558 649.155 351.854 650.704 351.854C654.54 351.854 656.68 350.046 658.45 342.964C661.696 329.98 668.004 326.18 670.549 325.148C670.807 325.037 670.955 324.779 670.918 324.484Z" fill="white"/>
<path d="M542.441 373.543C549.745 373.543 567.672 354.214 567.672 347.28C567.672 340.124 556.716 336.693 554.208 336.029C554.06 335.992 553.95 336.14 554.024 336.287C557.934 342.079 542.33 365.944 536.355 366.461C536.244 366.461 536.17 366.571 536.207 366.645C536.465 367.789 538.051 373.543 542.441 373.543Z" fill="white"/>
<path d="M706.108 373.801C705.96 373.801 705.887 373.654 705.997 373.543C710.461 367.457 713.448 362.403 713.448 359.526C713.448 353.071 705.813 349.714 704.411 349.161C704.3 349.124 704.19 349.198 704.19 349.308C704.005 354.768 697.845 364.063 690.247 374.207C690.21 374.244 690.173 374.281 690.136 374.281C682.685 375.203 676.377 377.047 673.832 379.556C671.693 381.695 672.541 383.687 672.873 384.314C672.91 384.425 673.057 384.425 673.131 384.351C675.16 382.507 679.439 381.4 684.64 381.105C684.787 381.105 684.861 381.252 684.787 381.4C683.902 382.543 683.054 383.65 682.168 384.794C677.262 391.101 643.954 420.352 628.277 425.48C628.129 425.517 628.019 425.406 628.055 425.258C630.601 416.922 654.503 388.003 662.176 387.449C662.286 387.449 662.36 387.339 662.323 387.228C661.807 385.716 658.34 376.568 651.589 376.568C646.056 376.568 634.769 384.941 623.777 395.233C623.629 395.38 623.408 395.159 623.518 395.011C626.691 390.769 628.83 387.191 628.83 384.904C628.83 379.297 620.088 377.49 620.088 377.49C620.088 377.674 620.051 377.896 620.051 378.08C618.797 388.298 585.968 419.172 569.184 425.148C569.036 425.185 568.926 425.074 568.963 424.926C572.135 414.635 594.046 387.929 602.05 387.449C602.161 387.449 602.235 387.339 602.198 387.228C601.718 385.826 598.804 377.896 594.857 377.896C592.201 377.896 588.033 381.142 583.533 385.863C583.459 385.937 583.312 385.937 583.275 385.826C580.656 381.584 576.156 375.83 570.77 375.83C565.016 375.83 557.38 381.142 550.519 388.15C548.454 390.179 520.161 420.648 502.935 425.701C502.825 425.738 502.677 425.627 502.714 425.48C504.743 417.143 528.719 387.929 536.318 387.339C536.428 387.339 536.502 387.228 536.465 387.117C535.949 385.716 532.814 377.896 528.94 377.896C525.953 377.896 521.12 381.916 516.104 387.486C506.255 397.372 481.356 421.385 466.86 425.959C466.749 425.996 466.602 425.885 466.639 425.775C468.778 417.07 493.787 387.929 500.906 387.339C501.017 387.339 501.091 387.228 501.054 387.154C500.648 385.716 497.992 376.789 492.238 376.789C486.373 376.789 466.048 378.929 460.368 373.654C460.294 373.58 460.146 373.58 460.11 373.691C459.778 374.355 458.708 376.752 458.708 379.777C458.708 383.798 460.589 386.527 463.835 387.634C463.946 387.671 463.983 387.818 463.909 387.892C453.212 399.216 429.715 422.824 416.325 425.812C416.214 425.849 416.104 425.738 416.104 425.59C418.427 415.852 441.445 387.929 449.376 387.413C449.486 387.413 449.56 387.302 449.523 387.191C449.08 385.789 446.351 377.859 442.183 377.859C439.416 377.859 434.916 381.474 430.157 386.601C430.084 386.675 429.936 386.675 429.899 386.564C427.391 382.211 422.854 375.83 417.8 375.83C404.189 375.83 380.323 405.303 380.323 417.217C380.323 419.984 381.614 422.824 383.016 425.037C383.09 425.148 383.016 425.258 382.905 425.295C381.356 425.738 379.918 425.996 378.516 426.033C378.368 426.033 378.295 426.181 378.368 426.291C379.106 427.582 382.795 433.447 388.106 433.447C392.791 433.447 401.902 424.484 410.571 414.524C410.681 414.377 410.939 414.524 410.866 414.709C410.054 416.627 409.612 418.213 409.612 419.357C409.612 425.701 416.657 431.308 417.542 431.972C417.505 431.935 417.468 431.898 417.432 431.861C418.501 432.71 419.792 433.3 421.378 433.3C432.703 433.3 460.368 400.839 470.77 388.076C470.807 388.04 470.844 388.04 470.881 388.003C475.75 387.449 480.84 385.789 484.971 384.13C485.156 384.056 485.303 384.277 485.156 384.425C474.311 393.941 459.409 414.192 459.409 420.279C459.409 424.521 463.577 428.984 465.975 431.234C466.454 431.714 466.971 432.193 467.524 432.599C467.598 432.673 467.671 432.71 467.671 432.71C468.667 433.447 469.774 433.927 470.807 433.927C476.414 433.927 487.517 423.783 498.251 412.385C498.398 412.237 498.619 412.385 498.509 412.569C497.07 415.447 496.222 417.844 496.222 419.283C496.222 424.484 499.431 428.615 501.534 430.755C502.05 431.345 502.677 431.861 503.304 432.341C503.378 432.378 503.378 432.414 503.378 432.414C504.521 433.263 505.849 433.853 507.214 433.853C513.264 433.853 524.33 422.824 533.957 411.758C534.068 411.61 534.289 411.758 534.252 411.942C533.551 413.934 533.146 415.742 533.146 417.254C533.146 420.205 534.363 422.971 535.728 425.111C535.801 425.222 535.728 425.332 535.617 425.369C534.141 425.775 532.74 426.033 531.375 426.07C531.227 426.07 531.154 426.217 531.227 426.328C532.076 427.619 536.244 433.484 540.966 433.484C545.613 433.484 554.466 424.742 562.95 414.93C563.061 414.783 563.319 414.93 563.245 415.115C562.544 416.848 562.175 418.287 562.175 419.357C562.175 421.902 563.024 424.226 564.167 426.181C564.167 426.217 567.561 433.41 572.725 433.41C577.52 433.41 587.295 424.004 596.96 413.233C597.107 413.086 597.366 413.27 597.218 413.455C593.972 417.992 591.685 421.828 591.685 424.262C591.685 429.353 596.96 432.857 598.177 433.632C598.288 433.706 598.435 433.632 598.435 433.484C598.952 423.267 626.654 397.335 643.179 386.896C643.363 386.785 643.548 387.007 643.4 387.154C632.888 398.405 620.42 415.52 620.42 420.648C620.42 425.332 626.986 433.964 631.412 433.964C638.015 433.964 652.77 420.205 665.127 407.405C665.274 407.258 665.496 407.442 665.385 407.626C662.84 411.758 661.29 415.225 661.29 417.66C661.29 423.156 664.537 429.021 666.492 432.046C666.934 432.746 667.414 433.41 667.893 434.074L667.93 434.111C670.66 437.689 674.312 440.677 678.996 440.677C689.583 440.677 705.628 423.156 705.628 412.717C705.628 406.852 701.755 402.942 700.686 401.983C700.575 401.872 700.427 401.946 700.427 402.093C700.059 413.565 682.353 428.099 671.656 428.099C670.106 428.099 668.778 427.84 667.672 427.472C667.451 427.398 667.451 427.287 667.451 426.955C667.451 419.615 685.71 399.29 699.21 382.433C699.247 382.396 699.321 382.359 699.395 382.359C709.206 384.425 717.949 389.072 718.133 396.597C718.133 396.708 718.244 396.819 718.354 396.745C719.867 396.044 728.388 391.802 728.388 384.609C728.351 377.822 717.949 374.539 706.108 373.801ZM386.299 424.041C386.188 424.115 386.041 423.967 386.078 423.857C388.512 413.233 413.263 385.974 423.85 385.974C425.768 385.974 427.059 387.486 427.907 388.962C427.944 389.036 427.944 389.109 427.87 389.146C427.428 389.663 426.985 390.179 426.543 390.695C419.313 398.515 400.759 417.807 386.299 424.041ZM539.232 424.041C539.121 424.115 538.974 423.967 538.974 423.857C541.371 413.086 566.159 385.974 576.746 385.974C578.479 385.974 579.918 387.154 580.914 388.445C580.951 388.519 580.951 388.593 580.914 388.667C580.25 389.404 579.586 390.179 578.922 390.991C571.619 398.958 553.47 417.881 539.232 424.041Z" fill="white"/>
<path d="M417.542 431.898C417.58 431.936 417.617 431.973 417.617 431.973C417.617 431.973 417.58 431.936 417.542 431.898Z" fill="white"/>
<path d="M396.332 333.558C396.148 333.447 396 333.668 396.111 333.816C396.996 334.849 398.398 336.951 398.398 339.939C398.398 355.432 348.416 418.766 320.124 429.095C320.013 429.132 319.866 429.021 319.903 428.91C322.632 406.262 350.593 371.883 364.942 371.551C365.052 371.551 365.126 371.441 365.089 371.33C364.499 369.67 360.441 358.788 352.953 358.788C333.44 358.788 296 373.691 296 389.552C296 394.163 301.053 406.631 305 406.631C306.107 406.631 306.992 405.782 307.361 405.34C307.435 405.229 307.398 405.081 307.25 405.081C306.513 404.934 304.595 404.233 304.595 400.729C304.595 384.462 325.805 370.777 345.502 366.129C345.687 366.092 345.797 366.35 345.613 366.461C330.821 374.982 313.079 401.725 313.079 420.279C313.079 423.857 315.329 427.398 317.21 429.685C317.284 429.795 317.247 429.943 317.099 429.943C312.784 430.976 309.132 430.533 306.402 428.172C306.255 428.062 306.07 428.209 306.144 428.357C307.398 431.382 312.784 443.112 320.567 443.112C345.908 443.112 404.742 369.338 404.742 348.202C404.706 339.165 398.693 334.886 396.332 333.558Z" fill="white"/>
</svg>
