<svg width="1024" height="768" viewBox="0 0 1024 768" fill="none" xmlns="http://www.w3.org/2000/svg">
<rect width="1024" height="768" fill="white"/>
<path d="M544.763 343.893C545.086 344.001 545.373 343.678 545.265 343.355C545.014 342.745 544.763 341.812 544.763 340.664C544.763 334.815 554.343 323.584 554.343 318.273C554.343 312.927 545.445 309.734 543.184 309.016C542.933 308.944 542.682 309.124 542.646 309.375C542.215 315.941 534.465 329.361 534.465 334.169C534.501 340.305 542.179 343.14 544.763 343.893Z" fill="#FF5A5F"/>
<path d="M707.2 342.099C704.222 342.099 697.871 343.283 690.982 344.539C690.623 344.611 690.372 344.216 690.551 343.929C695.575 335.64 701.244 329.505 706.77 329.002C707.057 328.967 707.236 328.608 707.057 328.392C705.729 326.526 701.352 320.893 696.185 320.893C690.156 320.893 682.478 333.093 676.342 346.692C676.27 346.836 676.163 346.907 676.019 346.943C672.072 347.41 668.807 347.517 667.084 346.979C666.726 346.871 666.439 347.23 666.618 347.553C667.371 348.881 668.986 350.998 672 352.11C672.251 352.218 672.359 352.505 672.215 352.72C663.891 363.844 648.605 382.502 640.891 387.669C640.675 387.813 640.388 387.705 640.281 387.454C640.137 387.059 640.065 386.629 640.065 386.198C640.065 378.663 654.346 357.313 654.346 353.366C654.346 348.988 647.672 342.781 643.331 342.781C638.02 342.781 629.803 353.366 622.878 363.951C622.627 364.346 621.981 364.023 622.16 363.592C624.062 358.748 625.856 353.653 625.856 351.536C625.856 347.84 620.868 343.247 617.137 342.96C616.957 342.96 616.778 343.068 616.742 343.247C615.307 348.486 595.5 381.713 583.444 390.683C583.192 390.863 582.834 390.719 582.798 390.396C582.726 389.858 582.69 389.32 582.69 388.674C582.69 382.718 590.62 370.877 590.62 368.042C590.62 366.391 589.149 365.207 587.319 364.382C587.139 364.31 587.032 364.059 587.104 363.879C587.893 361.798 588.359 359.825 588.359 358.426C588.359 350.998 581.183 343.355 573.217 343.355C568.553 343.355 563.744 347.481 559.439 353.258C555.994 357.313 535.792 388.925 525.1 396.999C524.848 397.178 524.49 397.034 524.454 396.711C524.418 396.245 524.382 395.743 524.382 395.24C524.382 388.064 540.601 359.286 540.601 354.55C540.601 348.342 531.881 346.369 529.836 346.01C529.621 345.974 529.405 346.118 529.37 346.333C528.221 353.187 501.202 394.2 487.711 404.031C487.46 404.211 487.137 404.067 487.065 403.78C486.921 403.027 486.814 402.201 486.814 401.34C486.814 392.657 503.499 369.908 503.499 362.911C503.499 357.026 495.533 348.917 489.433 348.917C477.664 348.917 465.141 356.272 460.943 360.471C459.328 362.085 461.84 370.482 462.557 369.764C463.957 368.365 467.868 365.709 473.179 363.341C473.501 363.198 473.86 363.521 473.717 363.844C469.124 376.402 453.121 406.615 442.356 414.94C442.105 415.119 441.746 414.975 441.71 414.652C441.674 414.186 441.638 413.648 441.638 413.074C441.638 406.041 449.927 392.047 449.927 389.535C449.927 387.705 448.241 386.377 446.267 385.48C446.052 385.373 445.98 385.157 446.052 384.942C447.379 381.785 448.169 378.699 448.169 376.617C448.169 367.468 440.131 358.103 430.156 358.103C414.296 358.103 396.75 396.066 396.75 410.634C396.75 419.497 404.465 428.539 413.04 430.081C413.435 430.153 413.507 430.692 413.112 430.835C403.424 434.89 396.284 439.088 392.552 443.358C388.82 447.628 390.184 453.225 390.758 455.091C390.865 455.378 391.224 455.45 391.44 455.235C422.549 421.327 610.857 389.93 673.543 400.73C673.615 400.73 673.723 400.802 673.758 400.874C676.127 403.493 678.315 405.108 679.141 405.682C680.648 406.938 682.442 407.799 684.487 407.799C694.642 407.799 707.739 389.858 707.739 379.38C707.739 374.716 703.289 365.207 698.696 365.207C696.256 365.207 694.391 366.678 693.493 367.539C693.242 367.791 693.386 368.185 693.745 368.221C695.611 368.437 700.06 369.226 700.06 372.455C700.06 381.82 687.322 394.523 676.593 396.819C676.414 396.855 676.198 396.747 676.127 396.568C675.337 394.379 674.799 391.616 674.799 388.171C674.799 381.354 679.32 365.889 685.815 352.469C685.886 352.325 685.994 352.254 686.138 352.254C692.596 351.787 700.06 351.177 705.334 351.177C710.358 351.177 714.377 352.361 714.377 357.098C714.377 358.82 716.996 357.636 717.786 357.241C717.929 357.169 718.001 357.026 718.001 356.882C718.001 351.105 712.941 342.099 707.2 342.099ZM609.099 366.427C609.35 365.961 609.996 366.283 609.817 366.75C606.193 376.079 602.497 384.799 602.497 387.49C602.497 390.719 605.08 393.303 607.413 395.025C607.736 395.24 607.592 395.743 607.197 395.743C601.815 396.03 596.289 396.389 590.656 396.819C590.297 396.855 590.082 396.424 590.333 396.137C596.218 390.002 603.932 376.259 609.099 366.427ZM574.617 388.746C575.693 391.724 577.882 394.917 580.286 397.034C580.537 397.25 580.43 397.716 580.071 397.716C575.873 398.075 571.638 398.505 567.369 398.936C567.01 398.972 566.759 398.542 567.046 398.255C569.306 395.815 571.674 392.334 573.899 388.638C574.078 388.387 574.509 388.423 574.617 388.746ZM578.348 352.146C580.501 352.146 581.614 353.761 581.614 355.698C581.614 362.121 575.047 370.948 571.387 369.298C571.064 369.154 570.741 369.405 570.813 369.764C571.172 371.415 572.248 374.608 574.76 375.577C574.976 375.649 575.083 375.936 574.94 376.151C570.598 383.327 564.642 391.903 560.91 391.903C558.829 391.903 558.147 390.181 558.147 387.669C558.147 378.914 569.557 352.146 578.348 352.146ZM554.128 400.443C547.275 401.268 540.421 402.13 533.568 403.099C533.209 403.134 532.958 402.739 533.209 402.452C537.048 398.039 541.39 390.827 545.516 383.256C545.732 382.861 546.342 383.076 546.27 383.507C546.162 384.404 546.091 385.229 546.091 385.947C546.091 391.329 549.607 396.819 554.308 399.726C554.63 399.905 554.523 400.407 554.128 400.443ZM520.65 405C512.864 406.184 505.149 407.476 497.578 408.84C497.219 408.911 496.968 408.481 497.219 408.194C503.427 401.268 511.142 388.746 517.708 377.192C517.959 376.761 518.605 377.084 518.426 377.551C515.77 384.296 513.689 389.894 513.689 391.545C513.689 395.85 516.954 401.197 520.83 404.283C521.117 404.498 521.009 404.928 520.65 405ZM491.729 358.497C492.017 358.461 492.232 358.748 492.16 359.035C488.572 370.41 474.076 390.468 474.076 396.963C474.076 401.376 478.381 407.476 483.082 410.921C483.369 411.136 483.261 411.567 482.903 411.638C472.461 413.72 462.45 415.944 453.121 418.312C452.762 418.42 452.475 417.954 452.726 417.666C464.065 403.924 478.884 370.087 478.884 364.956C478.884 363.7 478.597 362.695 478.202 361.906C478.094 361.691 478.202 361.44 478.417 361.332C482.508 359.932 487.029 358.82 491.729 358.497ZM411.139 413.181C411.139 401.52 426.066 368.975 436.938 368.975C439.234 368.975 440.311 370.733 440.311 373.029C440.311 380.242 431.986 392.37 427.465 390.002C427.178 389.858 426.819 390.073 426.891 390.432C427.214 392.37 428.362 396.64 431.771 397.86C432.022 397.931 432.13 398.219 432.022 398.434C426.819 407.727 419.463 419.102 414.583 419.102C411.964 419.066 411.139 416.267 411.139 413.181ZM432.596 412.069C433.529 415.693 436.077 419.245 439.162 421.362C439.45 421.542 439.342 421.972 439.019 422.08C432.955 423.838 427.286 425.632 422.154 427.462C421.76 427.606 421.437 427.103 421.724 426.816C425.133 423.336 428.685 417.738 431.878 411.961C432.058 411.674 432.524 411.71 432.596 412.069ZM611.575 394.989C614.661 385.516 632.422 357.493 641.536 350.46C641.859 350.209 642.326 350.531 642.146 350.926C638.558 360.148 628.511 376.438 628.511 382C628.511 386.413 633.104 391.616 637.948 394.164C638.307 394.343 638.199 394.917 637.769 394.917C629.767 394.881 621.084 395.097 611.97 395.492C611.719 395.527 611.503 395.276 611.575 394.989ZM646.883 394.379C652.803 390.396 660.984 378.376 667.658 367.468C667.91 367.073 668.52 367.36 668.376 367.791C666.726 373.245 665.757 377.802 665.757 380.457C665.757 387.023 667.838 392.334 670.386 396.352C670.565 396.64 670.35 397.034 669.991 396.963C663.532 395.958 655.817 395.348 647.098 395.097C646.703 395.097 646.56 394.594 646.883 394.379Z" fill="#FF5A5F"/>
<path d="M434.928 336.753C438.481 336.717 441.279 339.803 440.992 343.319C440.67 346.871 438.804 348.737 437.44 349.635C437.081 349.85 437.261 350.388 437.691 350.352C441.136 350.209 448.456 349.06 448.456 342.243C448.456 334.528 438.696 326.526 430.587 326.526C396.355 326.526 362.878 402.345 362.878 435.177C362.878 437.15 363.129 438.98 363.523 440.703C363.595 441.026 363.272 441.313 362.949 441.169C350.319 434.89 345.726 416.123 345.116 400.192C345.116 400.048 345.152 399.941 345.26 399.869C365.21 384.476 386.237 353.797 386.237 339.121C386.237 331.478 376.8 322.005 369.049 322.005C346.767 322.005 330.835 366.391 330.835 390.145C330.835 391.329 330.871 392.549 330.907 393.769C330.907 393.913 330.835 394.092 330.691 394.164C326.206 396.281 321.864 397.501 317.953 397.501C311.459 397.501 312.894 391.437 312.894 385.301C312.894 380.959 309.091 378.914 307.906 378.34C307.691 378.232 307.476 378.34 307.368 378.519C306.794 379.704 305 383.866 305 387.956C305 397.357 315.047 409.019 324.914 409.019C327.175 409.019 329.615 408.481 332.163 407.548C332.378 407.476 332.629 407.584 332.701 407.835C336.72 426.601 347.377 443.107 365.461 446.408C365.569 446.444 365.676 446.516 365.748 446.623C369.229 453.261 374.97 457.388 377.41 458.931C377.733 459.146 378.127 458.823 377.984 458.464C377.446 456.957 376.692 453.8 376.692 447.52C376.692 415.657 402.455 336.932 434.928 336.753ZM377.804 332.16C378.02 332.124 378.235 332.232 378.307 332.411C378.45 332.806 378.522 333.308 378.522 333.918C378.522 347.122 363.99 368.508 347.448 382.789C347.161 383.04 346.695 382.789 346.802 382.395C350.965 362.516 362.411 336.107 377.804 332.16Z" fill="#FF5A5F"/>
</svg>
