<svg width="1024" height="768" viewBox="0 0 1024 768" fill="none" xmlns="http://www.w3.org/2000/svg">
<rect width="1024" height="768" fill="#4B4237"/>
<path d="M665.997 314.147C665.997 317.329 665.382 318.739 663.864 321.415C662.851 323.259 661.622 324.886 660.501 326.621C660.067 327.309 660.067 328.104 659.633 328.755C659.199 329.442 658.44 329.839 657.934 330.49C656.596 332.262 654.932 334.793 654.101 336.782C653.305 338.771 652.004 340.217 650.883 342.097C650.268 343.11 650.015 344.158 649.219 345.098C648.315 346.219 647.375 347.268 646.833 348.642C646.471 349.546 646.508 350.414 646.182 351.318C645.748 352.475 644.591 353.306 643.832 354.21C641.952 356.524 641.409 359.236 639.963 361.803C639.384 362.816 638.589 363.467 637.974 364.407C637.323 365.419 637.504 366.432 637.034 367.48C636.673 368.276 635.949 368.637 635.479 369.324C634.72 370.517 634.358 372.253 633.924 373.591C633.237 375.761 632.514 377.821 631.574 379.81C631.249 380.533 630.598 380.859 630.345 381.618C629.947 382.811 630.164 384.149 629.694 385.342C629.224 386.572 628.248 387.584 628.031 388.922C627.814 390.151 628.428 391.056 628.465 392.249C628.465 393.08 627.886 393.731 627.886 394.527C627.886 395.756 628.898 397.925 629.405 398.974C631.357 402.915 635.732 403.566 639.529 401.867C640.65 401.36 641.337 400.999 642.06 400.059C642.783 399.082 643.109 398.143 644.23 397.492C645.495 396.732 645.893 396.841 646.688 395.539C647.339 394.527 648.099 393.695 648.749 392.683C649.726 391.164 650.485 389.573 651.244 387.946C651.678 387.006 652.474 386.355 652.799 385.379C653.125 384.33 652.98 383.245 653.341 382.197C653.884 380.678 654.896 379.268 655.402 377.749C656.162 375.58 655.475 372.832 657.644 371.132C662.236 367.552 664.912 376.375 665.563 379.123C666.214 381.98 665.346 383.86 664.514 386.463C663.647 389.067 662.2 391.019 661.079 393.442C660.175 395.358 659.38 397.528 658.295 399.3C657.644 400.348 656.451 400.71 655.764 401.686C655.005 402.771 654.752 403.168 653.667 404.072C651.967 405.483 650.521 407.471 649.075 409.135C648.099 410.219 647.303 411.087 646.001 411.883C644.555 412.787 643.289 412.425 641.807 412.967C640.831 413.329 640.108 414.124 639.059 414.377C637.938 414.631 637.215 414.016 636.166 413.98C634.973 413.944 634.178 414.414 632.912 414.233C631.647 414.052 630.417 413.654 629.26 413.184C626.91 412.208 625.066 411.557 623.366 409.605C621.595 407.58 619.967 405.844 618.81 403.385C618.123 401.939 617.364 398.866 615.194 399.01C614.218 399.083 613.025 400.204 612.374 400.891C611.217 402.12 611 402.337 609.481 402.951C605.576 404.506 601.852 407.29 597.26 406.748C596.103 406.603 595.705 406.17 594.729 405.736C593.717 405.302 592.776 405.41 591.728 405.302C589.992 405.085 587.787 403.892 586.521 402.554C585.472 401.469 584.352 400.131 583.918 398.721C583.158 396.226 581.567 393.948 578.855 396.262C577.554 397.383 576.65 399.3 575.095 400.131C574.155 400.637 573.179 400.457 572.275 401.035C570.973 401.831 570.792 402.662 569.274 403.024C567.538 403.458 564.754 404.145 562.982 403.892C561.68 403.711 559.836 402.698 558.535 402.301C557.377 401.939 556.51 401.722 555.714 400.71C555.027 399.806 554.883 398.649 554.268 397.708C553.762 396.913 552.966 396.443 552.496 395.611C551.194 393.37 552.207 389.139 548.772 390.296C546.747 390.983 544.035 392.14 542.444 393.623C541.576 394.418 541.179 395.431 540.166 396.154C538.937 396.985 537.418 397.058 536.189 397.817C535.249 398.432 534.706 399.336 533.694 399.878C532.501 400.529 531.416 400.927 530.295 401.758C528.27 403.241 525.16 404.362 522.629 404.796C520.315 405.193 517.82 404.94 515.506 405.519C513.192 406.097 510.878 405.483 508.455 405.338C507.117 405.229 506.539 404.759 505.454 404.036C504.369 403.277 503.032 403.06 501.983 402.409C499.814 401.144 498.91 398.07 497.138 396.298C495.041 394.165 493.377 396.081 492.112 397.745C490.665 399.661 489.075 401.541 487.592 403.385C486.435 404.832 484.41 405.953 482.819 406.857C481.843 407.399 481.084 408.231 479.999 408.556C479.384 408.737 478.661 408.484 478.01 408.665C477.359 408.881 476.889 409.605 476.202 409.749C474.25 410.147 471.249 409.352 469.26 409.062C466.331 408.628 464.812 407.399 462.787 405.302C459.642 402.047 458.232 395.214 459.316 390.802C459.859 388.524 459.895 386.68 460.835 384.511C461.341 383.281 461.124 382.558 461.269 381.365C461.413 380.1 462.064 378.834 462.534 377.641C462.932 376.592 463.619 375.978 464.161 375.074C464.776 374.025 464.415 373.374 464.812 372.398C465.68 370.084 466.946 368.167 468.247 366.034C469.441 364.081 469.73 361.984 471.068 360.068C472.406 358.115 473.056 355.656 474.286 353.632C475.371 351.824 476.962 350.052 478.552 348.533C480.071 347.087 482.277 344.556 484.591 344.484C486.869 344.411 489.075 346.292 489.906 348.136C490.991 350.486 489.87 353.017 488.532 355.223C487.809 356.38 486.652 357.103 485.856 358.188C485.097 359.2 484.916 360.321 484.229 361.369C483.108 363.141 481.843 364.805 480.613 366.504C479.384 368.203 478.95 369.903 478.299 371.819C477.576 373.989 475.587 375.254 475.154 377.641C474.937 378.906 474.937 380.244 474.213 381.365C473.563 382.414 472.839 382.848 472.369 384.077C471.646 385.921 471.61 387.873 471.285 389.754C470.887 392.032 470.128 394.961 471.465 397.13C472.876 399.372 475.117 398.396 476.925 397.022C477.793 396.371 478.48 395.647 479.42 395.033C480.469 394.346 480.397 393.876 481.3 393.008C481.843 392.502 482.675 392.357 483.253 391.815C484.229 390.947 484.229 389.79 484.952 388.777C486.326 386.933 488.279 385.704 489.4 383.679C490.015 382.558 490.304 382.341 491.244 381.546C492.582 380.461 492.329 379.702 492.907 378.147C493.739 375.941 495.185 374.965 496.451 373.193C497.608 371.602 498.584 368.637 499.199 366.757C499.958 364.443 500.609 363.105 502.019 361.189C502.742 360.212 502.381 359.345 502.887 358.368C503.466 357.175 504.731 357.031 505.49 356.018C506.828 354.319 507.443 352.004 508.889 350.377C510.082 349.04 511.927 346.942 513.337 345.966C515.072 344.809 517.025 344.086 518.688 342.603C519.267 342.061 519.773 341.193 520.424 340.795C521.255 340.289 522.195 340.47 523.027 340.036C524.654 339.168 524.257 339.204 526.173 338.988C527.402 338.843 528.487 338.373 529.753 338.301C532.175 338.192 533.549 337.65 536.008 338.301C537.237 338.626 538.539 338.951 539.66 339.494C540.347 339.819 541.829 340.47 542.48 340.976C543.276 341.627 543.457 342.314 543.782 343.254C544.18 344.484 544.831 344.917 545.301 346.002C546.096 347.882 545.59 350.956 545.445 352.908C545.373 354.029 545.011 355.259 544.614 356.271C544.216 357.284 543.963 358.694 543.42 359.598C542.914 360.466 541.829 361.08 541.215 361.948C540.528 362.924 540.021 364.081 539.262 365.058C537.96 366.829 536.116 368.42 534.525 369.939C533.911 370.518 533.151 371.422 532.428 371.928C531.488 372.579 530.295 372.615 529.282 373.193C528.162 373.844 527.475 374.459 526.209 374.929C524.835 375.471 523.931 376.411 522.629 376.99C521.545 377.46 520.279 377.388 519.158 377.713C518.001 378.038 517.025 378.725 515.832 378.979C513.554 379.412 511.456 378.147 509.359 379.593C508.708 380.027 507.045 381.184 506.647 381.799C506.033 382.775 506.539 383.607 506.358 384.619C506.033 386.789 505.78 389.32 507.551 391.2C508.058 391.742 510.733 393.514 511.42 393.695C512.143 393.912 513.734 393.948 514.494 393.948C515.542 393.984 516.482 393.55 517.531 393.514C519.737 393.442 520.279 393.261 522.412 392.393C524.401 391.598 526.679 391.272 528.668 390.332C529.716 389.826 530.44 388.886 531.452 388.344C532.718 387.657 533.477 387.801 534.381 386.644C535.176 385.632 535.176 385.089 536.406 384.33C537.454 383.715 538.105 383.028 539.045 382.305C540.13 381.474 541.359 381.184 542.408 380.244C543.42 379.34 544.288 378.255 545.264 377.315C546.168 376.484 547.217 375.652 547.976 374.712C548.699 373.808 549.097 372.795 549.784 371.892C551.086 370.192 552.858 368.927 554.159 367.372C555.172 366.142 555.606 364.407 556.401 363.069C557.486 361.225 559.041 359.634 560.125 357.898C562.187 354.644 563.271 351.101 565.622 348.136C567.032 346.364 567.936 344.194 568.876 342.133C570.033 339.675 571.696 337.867 573.142 335.661C574.3 333.889 574.914 332.298 575.89 330.418C577.011 328.212 579.145 326.658 580.266 324.416C582.218 320.438 584.677 317.112 587.389 313.713C588.437 312.375 590.318 309.844 591.981 309.302C593.536 308.795 596.465 309.446 597.766 310.386C602.069 313.46 597.947 320.402 595.416 323.15C594.801 323.837 594.259 324.416 593.572 325.03C592.523 325.934 592.306 326.658 591.619 327.851C591.077 328.755 590.281 329.261 589.703 330.093C589.088 330.997 588.654 332.154 588.148 333.094C587.172 334.938 585.942 336.384 584.966 338.192C584.496 339.06 583.845 340.398 583.231 341.157C582.254 342.35 581.35 342.676 580.627 344.158C579.47 346.545 578.892 349.293 577.554 351.534C576.18 353.812 574.987 355.982 573.829 358.368C573.323 359.381 572.419 359.996 571.913 360.972C571.335 361.984 571.298 363.177 570.937 364.262C570.105 366.793 568.659 368.746 567.321 370.951C566.309 372.651 566.345 374.603 565.513 376.339C564.501 378.509 563.38 381.148 562.874 383.462C562.512 385.125 562.403 387.584 562.729 389.247C562.946 390.332 563.38 391.055 564.32 391.779C565.549 392.683 566.128 392.212 567.538 391.562C569.527 390.658 570.973 389.139 572.455 387.584C573.287 386.716 574.3 385.957 575.059 385.053C575.854 384.113 576.18 382.92 577.084 382.052C577.843 381.293 578.494 381.076 579.036 380.063C579.832 378.689 580.085 377.568 581.206 376.339C583.05 374.314 584.098 372.072 585.798 369.939C587.28 368.095 588.51 366.106 589.956 364.262C591.258 362.635 592.342 360.538 593.283 358.622C595.38 354.427 599.791 351.028 603.335 348.063C604.13 347.412 604.745 347.087 605.613 346.653C606.733 346.075 607.457 345.243 608.505 344.628C610.494 343.507 613.097 343.146 615.267 342.531C619.317 341.41 623.8 342.169 627.633 343.543C628.826 343.977 629.369 344.375 630.381 345.171C631.14 345.821 632.297 346.436 633.346 346.436C635.515 346.436 636.6 344.23 637.323 342.567C639.204 338.337 642.856 334.938 644.519 330.744C645.278 328.863 646.544 327.272 647.448 325.537C647.954 324.56 648.641 323.837 649.219 322.897C649.906 321.704 650.304 320.077 651.172 318.992C651.787 318.197 652.654 317.835 653.233 317.003C653.739 316.28 654.028 315.412 654.571 314.653C655.656 313.062 656.379 310.82 657.753 309.591C658.367 309.049 660.175 308.036 661.115 308C662.273 308 662.743 308.832 663.719 309.338C664.659 309.844 665.454 309.772 665.925 310.893C665.961 311.399 666.033 314.147 665.997 314.147ZM600.912 393.659C602.25 393.767 604.239 392.212 605.396 391.562C607.167 390.549 608.252 389.356 609.771 388.127C611.145 387.006 612.193 385.776 613.314 384.439C614.58 382.884 616.388 381.98 617.364 380.1C618.304 378.328 618.63 376.99 620.112 375.471C621.558 373.989 622.354 372.615 622.896 370.662C623.475 368.673 624.343 366.866 625.174 365.021C625.97 363.322 625.572 361.55 625.897 359.706C626.476 356.416 623.981 353.451 620.51 353.487C618.919 353.487 617.509 353.921 616.207 354.753C614.616 355.765 613.133 356.235 611.434 356.994C609.482 357.862 609.084 359.67 607.42 360.827C605.793 361.948 604.781 363.358 603.479 364.949C602.431 366.215 601.274 367.516 600.37 368.818C599.285 370.373 598.779 372.325 597.766 374.061C596.79 375.724 596.031 377.46 596.103 379.485C596.139 380.714 596.392 381.69 595.922 382.884C595.488 383.932 594.982 384.33 594.982 385.451C594.982 387.114 594.765 389.826 595.488 391.381C596.754 394.201 598.489 393.261 600.912 393.659ZM531.09 349.112C530.367 349.04 528.415 350.45 527.619 350.667C526.064 351.101 524.582 351.462 523.28 352.511C521.111 354.174 519.194 356.597 517.061 358.405C515.94 359.345 515.94 360.502 515.108 361.586C514.132 362.852 513.337 362.96 512.722 364.515C511.276 368.203 513.988 368.059 516.808 367.046C519.05 366.215 521.111 365.166 523.28 364.19C524.907 363.467 527.655 361.478 528.812 360.104C529.391 359.417 529.644 358.477 530.259 357.754C530.982 356.922 531.85 356.163 532.464 355.223C533.911 353.017 534.923 349.256 531.09 349.112Z" fill="#EDE7D9"/>
<path d="M423.158 334.829C423.158 338.12 423.628 341.193 423.122 344.411C422.833 346.219 422.977 347.629 422.29 349.401C421.712 350.847 421.603 352.691 420.844 354.029C419.325 356.777 417.734 359.815 415.673 362.237C414.806 363.286 414.589 363.828 414.119 365.094C413.432 366.902 411.913 368.095 411.117 369.831C410.503 371.168 409.707 371.891 408.984 373.121C408.261 374.278 408.08 375.254 407.14 376.303C404.862 378.87 403.597 381.69 401.969 384.691C401.319 385.921 400.523 386.861 399.8 388.018C398.824 389.573 398.968 391.417 398.245 393.008C397.667 394.31 396.618 395.431 395.75 396.515C394.521 397.998 394.991 398.938 394.448 400.637C394.015 401.975 393.508 402.192 393.581 403.747C393.653 405.338 393.978 406.929 395.425 407.833C396.943 408.809 398.317 408.267 399.764 407.688C401.138 407.146 401.716 406.495 402.982 405.772C405.73 404.217 408.442 402.084 410.105 399.372C410.756 398.323 411.841 397.347 412.672 396.407C413.829 395.141 414.806 393.731 416.035 392.574C417.011 391.67 418.06 390.838 418.711 389.645C419.325 388.56 419.434 387.403 420.229 386.391C421.35 385.017 422.905 384.185 423.99 382.739C425.147 381.22 425.725 379.376 426.882 377.785C427.678 376.664 428.943 375.977 429.703 374.893C430.751 373.446 430.715 372.289 432.053 370.988C434.44 368.637 435.488 364.66 437.549 361.984C438.308 361.008 439.104 360.068 439.719 358.947C440.55 357.428 440.84 356.127 442.069 354.825C443.045 353.776 443.949 352.945 444.311 351.534C444.419 351.064 444.347 350.233 444.564 349.727C444.962 348.859 445.793 348.569 446.227 347.774C446.878 346.653 447.095 345.315 447.782 344.158C448.541 342.893 449.228 341.591 450.096 340.398C451 339.132 451.398 338.409 451.94 336.999C452.555 335.335 453.965 334.215 454.905 332.768C456.062 330.997 456.785 327.308 458.991 326.549C459.931 326.224 460.546 326.694 461.45 326.694C462.281 326.694 463.258 326.151 464.053 326.404C465.608 326.911 466.729 329.731 466.801 331.177C466.873 332.37 466.729 333.781 466.367 334.902C465.897 336.312 465.68 337.722 465.246 339.168C464.849 340.47 463.8 341.772 463.149 342.965C462.39 344.375 462.101 345.894 461.305 347.34C458.702 352.004 455.773 356.958 454.327 362.093C453.459 365.094 451.542 367.806 450.277 370.626C449.011 373.41 447.131 375.941 446.119 378.834C445.866 379.593 446.01 380.316 445.612 381.003C445.287 381.582 444.636 381.871 444.275 382.414C443.66 383.354 443.624 384.294 443.118 385.27C442.394 386.572 441.418 387.584 440.876 389.067C440.153 391.055 439.719 393.153 439.032 395.141C438.489 396.732 437.766 397.492 436.826 398.757C435.85 400.023 435.958 401.252 435.307 402.698C434.765 403.819 433.68 404.253 433.174 405.374C432.885 406.025 433.029 406.784 432.704 407.471C432.378 408.194 431.764 408.99 431.402 409.713C430.173 412.027 429.414 414.558 428.076 416.836C426.34 419.801 425.436 423.092 423.917 426.165C422.652 428.696 421.242 431.48 420.374 434.192C419.904 435.639 419.289 436.036 418.494 437.229C417.517 438.676 417.084 440.737 416.433 442.364C415.71 444.136 414.914 445.799 414.299 447.607C413.829 448.909 413.106 449.343 412.455 450.427C411.768 451.584 411.804 452.958 411.262 454.115C410.43 455.887 409.201 457.225 407.755 458.527C406.67 459.503 406.272 459.937 404.754 459.937C403.813 459.937 401.319 459.865 400.487 459.286C397.739 457.333 398.643 452.452 400.125 450.283C400.849 449.234 400.632 448.258 400.993 447.101C401.391 445.763 402.584 444.678 403.235 443.413C403.994 441.966 404.247 440.52 405.079 439.146C406.019 437.519 406.308 436.579 406.815 434.807C407.321 432.963 408.369 432.203 409.526 430.829C410.611 429.564 410.684 428.081 411.226 426.527C411.696 425.189 412.383 424.068 412.889 422.766C413.649 420.886 413.649 419.006 414.842 417.234C415.746 415.932 416.83 414.631 417.373 413.112C417.951 411.485 417.59 409.966 418.421 408.303C418.819 407.507 420.482 405.555 418.783 405.229C416.903 404.868 415.312 408.484 414.299 409.46C412.238 411.449 409.924 413.003 407.755 414.667C407.212 415.101 406.995 415.462 406.345 415.86C405.513 416.366 404.645 416.547 403.813 417.198C402.042 418.644 400.704 418.5 398.498 419.15C397.16 419.548 396.473 420.199 394.955 419.837C394.123 419.657 393.4 419.259 392.568 419.114C391.881 419.006 390.797 419.187 390.146 418.97C387.795 418.138 385.481 415.86 384.216 413.727C381.251 408.664 380.961 401.577 383.276 396.154C383.709 395.105 383.963 393.84 384.469 392.863C384.83 392.176 385.626 391.887 385.987 391.2C386.385 390.441 386.241 389.573 386.566 388.814C387.072 387.62 388.41 386.572 389.097 385.379C390.073 383.715 390.471 381.871 391.23 380.136C392.641 376.845 394.521 374.061 396.365 371.096C398.317 367.95 400.704 364.334 402.15 360.936C402.693 359.634 403.018 359.092 404.03 357.862C405.115 356.524 404.934 355.476 405.585 353.993C406.091 352.8 407.14 351.137 407.863 350.088C408.948 348.569 409.31 348.352 409.707 346.581C410.286 343.905 411.913 341.012 411.732 338.156C411.66 336.71 410.973 335.046 410.611 333.672C410.177 331.973 409.454 331.358 407.61 331.069C404.826 330.635 401.463 332.154 398.932 333.311C396.22 334.54 394.087 336.601 391.556 338.011C389.314 339.277 388.302 341.591 386.602 343.254C384.252 345.568 380.528 347.521 379.154 350.63C377.924 353.379 376.08 355.837 374.381 358.26C372.79 360.538 372.464 363.033 370.946 365.202C369.319 367.444 368.993 372.072 370.873 374.423C371.813 375.58 373.657 375.29 374.417 376.701C375.429 378.545 374.272 380.063 373.26 381.473C371.38 384.041 368.415 385.559 365.305 384.221C362.557 383.064 359.773 380.533 359.23 377.532C358.941 375.941 357.965 373.808 358.001 372.253C358.037 370.988 358.833 370.12 358.796 368.818C358.76 365.672 359.592 362.526 360.026 359.381C360.243 357.97 359.954 357.03 360.821 355.656C361.653 354.319 362.557 353.162 363.28 351.751C364.618 349.22 365.594 346.942 367.366 344.628C369.065 342.35 371.126 340.434 373.296 338.59C375.285 336.89 377.201 334.974 379.262 333.492C380.383 332.696 381.215 331.611 382.263 330.707C382.878 330.165 383.312 329.406 384.035 328.972C384.722 328.574 385.481 328.646 386.168 328.321C388.808 327.091 390.869 324.307 393.653 323.295C395.28 322.716 397.016 322.535 398.607 321.993C399.836 321.595 400.668 320.619 401.933 320.221C403.669 319.679 405.115 320.113 406.851 320.294C407.646 320.366 408.478 320.474 409.273 320.547C410.467 320.655 411.804 320.221 412.962 320.475C414.444 320.8 414.986 322.102 416.071 322.969C417.337 323.946 418.385 324.452 419.542 325.645C421.639 328.068 423.628 331.575 423.158 334.829Z" fill="#EDE7D9"/>
<path d="M462.028 425.659C463.402 425.912 465.499 424.827 466.873 424.538C468.718 424.176 470.779 424.538 472.55 424.032C474.141 423.562 474.828 422.983 476.636 422.983C478.444 422.947 479.674 421.971 481.409 421.862C482.747 421.79 483.832 421.537 485.133 421.32C486.941 421.031 488.749 421.537 490.593 421.211C493.848 420.669 496.704 420.127 500.031 420.199C501.875 420.235 503.393 419.259 505.165 418.933C507.009 418.608 508.636 419.15 510.408 419.295C511.384 419.367 511.891 419.006 512.758 418.752C514.132 418.319 513.952 418.572 515.253 418.608C517.061 418.644 518.941 418.065 520.785 417.993C522.593 417.921 524.401 417.885 526.209 417.776C527.113 417.74 528.27 417.885 529.174 417.74C530.078 417.632 530.512 417.198 531.488 417.198C533.152 417.234 534.851 417.379 536.587 417.379C537.418 417.379 538.286 417.379 539.082 417.342C540.239 417.306 541.106 416.728 542.227 416.655C545.59 416.402 549.134 416.908 552.496 417.053C553.906 417.125 555.1 416.655 556.401 416.366C558.535 415.932 560.343 416.691 562.476 416.908C565.441 417.162 568.297 416.185 571.299 416.764C572.239 416.945 572.853 417.415 573.866 417.379C574.517 417.379 575.131 416.908 575.782 416.872C576.686 416.836 577.048 417.162 577.879 417.379C578.928 417.668 579.398 417.451 580.483 417.451C583.592 417.415 586.666 417.378 589.703 417.849C590.354 417.957 590.752 418.499 591.439 418.572C592.27 418.68 593.138 418.355 593.97 418.319C596.067 418.246 597.658 419.512 599.647 419.765C601.454 420.018 602.72 419.331 604.492 419.91C605.757 420.344 606.661 420.271 608.035 420.524C609.735 420.813 611.434 421.609 612.953 422.368C614.508 423.128 616.135 423.67 617.653 424.429C620.184 425.695 622.101 429.274 623.873 431.335C625.897 433.686 625.03 437.88 623.041 440.158C621.161 442.328 616.894 442.183 614.869 440.158C613.495 438.784 614.074 437.157 612.555 435.855C611.326 434.807 609.807 433.722 608.433 433.035C607.384 432.529 606.408 431.769 605.251 431.335C603.732 430.793 602.033 431.046 600.478 430.866C598.96 430.721 597.658 429.672 596.175 429.636C595.344 429.6 594.621 430.251 593.789 430.251C592.813 430.251 592.198 429.636 591.258 429.455C589.414 429.13 587.136 429.311 585.256 429.13C583.412 428.949 581.784 428.877 579.904 428.551C576.65 427.973 573.649 427.864 570.431 427.937C568.659 427.973 567.104 428.154 565.26 428.009C564.284 427.937 564.031 428.009 563.054 428.081C562.006 428.154 561.5 427.901 560.487 427.756C558.932 427.575 557.956 428.371 556.582 428.515C555.425 428.624 555.027 427.9 554.015 427.72C552.786 427.503 551.918 428.262 550.724 428.334C549.712 428.407 548.953 427.937 548.013 427.864C547.217 427.828 546.494 428.081 545.698 428.081C544.758 428.117 543.854 427.72 542.914 427.828C542.263 427.901 541.866 428.407 541.215 428.479C539.479 428.66 537.888 427.828 536.08 428.334C535.213 428.588 534.67 429.021 533.73 429.021C532.573 429.058 531.633 428.624 530.404 428.768C529.427 428.913 528.523 429.383 527.511 429.238C526.643 429.13 525.992 428.479 525.124 428.407C524.474 428.335 523.931 428.841 523.317 428.913C522.521 428.985 521.762 428.841 520.966 428.841C517.423 428.841 514.277 430.504 510.806 430.287C508.6 430.142 506.503 430.251 504.333 430.793C501.405 431.552 498.403 431.263 495.475 431.842C493.631 432.203 492.04 432.456 490.159 432.601C488.351 432.746 486.833 432.818 485.097 433.252C483.325 433.686 481.662 433.65 479.854 434.156C479.095 434.373 477.974 434.698 477.179 434.807C476.13 434.951 475.262 434.409 474.25 434.445C473.563 434.481 472.984 434.988 472.333 435.096C471.104 435.313 470.055 435.241 468.826 435.638C466.946 436.253 465.427 436.578 463.402 436.759C461.197 436.976 460.148 437.519 458.123 438.35C456.315 439.11 454.688 438.784 452.844 439.037C451.976 439.146 450.711 439.471 449.915 439.869C448.975 440.339 448.469 441.351 447.529 441.785C445.974 442.509 444.311 441.785 442.756 441.424C441.129 441.026 439.104 439.724 438.308 438.133C437.26 435.964 439.104 434.337 440.623 433.071C443.009 431.046 447.131 429.455 450.168 428.624C451.94 428.117 453.857 427.539 455.701 427.177C457.87 427.069 459.931 425.659 462.028 425.659Z" fill="#EDE7D9"/>
<path d="M494.679 333.166C492.22 333.166 491.353 332.226 490.232 330.056C489.436 328.502 488.677 325.97 489.653 324.307C489.942 323.837 490.521 323.62 490.846 323.186C491.606 322.174 491.714 320.764 492.799 319.968C494.318 318.883 496.957 318.486 498.584 318.883C500.681 319.426 502.345 319.824 503.357 321.848C504.297 323.765 503.357 324.777 502.779 326.621C502.092 328.827 501.296 330.31 499.344 331.792C499.091 332.009 494.715 334.034 494.679 333.166Z" fill="#EDE7D9"/>
</svg>
