<svg width="1024" height="768" viewBox="0 0 1024 768" fill="none" xmlns="http://www.w3.org/2000/svg">
<rect width="1024" height="768" fill="#1A1F16"/>
<path d="M649 386.518C649 378.538 646.627 371.143 642.36 365.716C637.267 359.252 629.854 355.848 621.001 355.848C615.188 355.848 609.482 357.763 604.149 361.38C603.882 361.567 603.536 361.487 603.376 361.221C600.522 356.752 597.616 352.789 594.736 349.517C594.523 349.277 594.176 349.277 593.963 349.463L585.27 357.231C585.057 357.444 585.03 357.763 585.217 358.002C588.15 361.301 591.27 365.317 594.203 370.105C594.336 370.292 594.309 370.558 594.176 370.744C592.816 372.446 591.35 374.441 590.096 376.41C586.257 382.395 583.217 389.151 581.243 395.855C578.524 403.675 570.417 419.423 558.925 419.423C553.325 419.423 552.738 414.688 552.738 412.666C552.738 406.548 557.965 397.823 563.004 389.391C569.084 379.229 575.377 368.722 575.377 358.614C575.377 352.922 573.351 339.834 552.765 339.834C551.832 339.834 550.898 339.834 549.965 339.834C548.712 339.834 547.112 339.861 545.779 339.861C545.485 339.861 545.245 339.621 545.245 339.329C544.899 325.257 538.286 316 527.779 316C519.38 316 513.3 322.624 513.3 331.721C513.3 337.387 515.247 341.989 518.713 345.42C521.993 348.665 526.82 350.501 531.753 351.459C532.046 351.512 532.259 351.804 532.179 352.097C529.859 364.307 523.753 378.086 516.367 390.029C505.674 407.373 493.035 417.321 481.702 417.321C473.969 417.321 469.756 412.081 467.516 406.282C467.383 405.936 467.623 405.591 467.969 405.537C477.942 404.633 488.501 399.712 496.848 390.801C505.834 381.198 510.98 369.44 510.98 358.534C510.98 347.415 503.301 339.648 492.288 339.648C471.756 339.648 457.543 362.524 453.757 382.714C453.65 383.273 452.877 383.326 452.69 382.767L450.45 375.585C450.37 375.319 450.077 375.16 449.81 375.213C446.45 375.958 443.17 376.756 439.971 377.633C439.571 377.74 439.224 377.394 439.304 377.022C439.597 375.293 439.757 373.643 439.757 372.127C439.757 360.449 432.024 352.895 420.078 352.895C398.693 352.895 377.494 370.903 374.187 373.776C373.947 373.963 373.947 374.308 374.134 374.548L381.84 383.299C382.027 383.512 382.374 383.539 382.614 383.353C388.72 378.086 405.306 365.61 420.078 365.61C424.985 365.61 426.985 367.499 426.985 372.127C426.985 374.787 426.265 378.165 425.038 382.023C424.985 382.182 424.851 382.315 424.691 382.368C401.386 390.481 384.64 400.27 381.574 402.159C381.307 402.319 381.227 402.665 381.414 402.931L387.92 412.4C388.08 412.64 388.427 412.72 388.667 412.56C390.853 411.15 401.066 404.819 417.198 398.302C417.652 398.116 418.132 398.595 417.892 399.047C411.359 412.374 402.799 426.525 397.359 434.798C397.306 434.878 397.253 434.931 397.173 434.958C391.333 438.442 387.653 441.368 386.427 442.379C386.187 442.565 386.16 442.938 386.373 443.151L394.16 451.822C394.346 452.035 394.693 452.062 394.906 451.875C398.213 449.242 421.812 431.579 456.903 430.356C457.143 430.356 457.356 430.196 457.41 429.957L459.97 420.513C460.076 420.088 460.636 419.955 460.93 420.301C465.943 426.525 473.062 430.036 481.702 430.036C497.808 430.036 513.967 418.199 527.246 396.679C535.646 383.06 541.352 367.02 543.832 352.842C543.885 352.576 544.099 352.39 544.365 352.39C546.099 352.39 548.125 352.363 549.805 352.363C550.738 352.363 551.645 352.363 552.578 352.363C562.631 352.363 562.631 355.954 562.631 358.587C562.631 365.158 557.245 374.149 552.072 382.821C546.152 392.743 540.019 402.984 540.019 412.613C540.019 423.918 547.992 432.111 558.978 432.111C566.178 432.111 572.977 428.653 579.297 421.817C579.59 421.498 580.097 421.631 580.23 422.03C583.777 434.319 593.696 442.246 606.709 442.246C612.922 442.246 619.028 439.879 624.121 436.527C624.415 436.341 624.815 436.447 624.948 436.793C626.628 441.448 627.508 444.933 627.828 446.263C627.908 446.582 628.228 446.742 628.548 446.662L639.534 442.938C639.827 442.831 639.987 442.512 639.88 442.219C639.214 440.464 637.081 435.144 634.201 427.536C634.121 427.35 634.174 427.164 634.281 427.004C643.4 415.38 649 398.994 649 386.518ZM418.105 423.972C423.865 414.395 430.264 402.851 434.611 392.264C434.664 392.104 434.798 391.998 434.958 391.944C440.397 390.269 446.21 388.673 452.37 387.289C452.743 387.21 453.063 387.502 453.037 387.875C452.85 389.63 452.77 391.333 452.77 392.982C452.77 402.425 454.77 410.458 458.37 416.63C458.583 416.976 458.316 417.428 457.916 417.454C442.77 417.8 429.571 420.886 418.772 424.77C418.292 424.929 417.838 424.397 418.105 423.972ZM465.543 392.982C465.543 375.106 478.155 352.416 492.315 352.416C496.314 352.416 498.234 354.438 498.234 358.561C498.234 374.628 481.302 393.248 466.103 393.886C465.809 393.886 465.543 393.647 465.543 393.354C465.543 393.195 465.543 393.062 465.543 392.982ZM525.7 331.109C525.7 329.752 526.446 328.369 527.966 328.369C531.059 328.369 533.166 334.301 533.566 338.69C533.593 339.036 533.299 339.329 532.953 339.302C528.633 338.85 525.7 335.179 525.7 331.109ZM606.656 429.584C595.483 429.584 591.51 419.902 591.51 411.602C591.51 403.409 595.323 392.211 600.869 383.432C601.082 383.087 601.642 383.087 601.829 383.486C608.629 396.706 614.522 411.602 619.242 423.599C619.322 423.812 619.268 424.078 619.082 424.211C615.268 427.376 611.135 429.584 606.656 429.584ZM610.522 373.165C610.389 372.925 610.469 372.633 610.682 372.473C613.962 370.052 617.322 368.616 620.975 368.616C635.481 368.616 636.227 383.539 636.227 386.545C636.227 394.152 633.427 403.782 629.028 411.895C628.814 412.294 628.228 412.267 628.041 411.842C623.081 399.632 617.188 385.481 610.522 373.165Z" fill="#94ECBE"/>
</svg>
