<?xml version="1.0" encoding="utf-8"?>
<!-- Generator: Adobe Illustrator 21.1.0, SVG Export Plug-In . SVG Version: 6.00 Build 0)  -->
<svg version="1.1" id="Layer_1" xmlns="http://www.w3.org/2000/svg" xmlns:xlink="http://www.w3.org/1999/xlink" x="0px" y="0px"
	 viewBox="0 0 1920 650" style="enable-background:new 0 0 1920 650;" xml:space="preserve">
<style type="text/css">
	.st0{fill:#FFFCF8;}
	.st1{fill:#F9B110;}
	.st2{fill:#1A1A1A;}
	.st3{fill:none;stroke:#1A1A1A;stroke-width:12;stroke-miterlimit:10;}
	.st4{fill:#FFFAF1;}
	.st5{fill:#FFFAF0;}
	.st6{fill:#FFF9EF;}
	.st7{fill:#FFF9EE;}
	.st8{fill:#FFF9ED;}
	.st9{fill:#FFF8EC;}
	.st10{fill:#FFF8EB;}
	.st11{fill:#FFF8EA;}
	.st12{fill:#FFF7E9;}
	.st13{fill:#FFF7E8;}
	.st14{fill:#FFF7E7;}
	.st15{fill:#FFF6E6;}
	.st16{fill:#FFF6E5;}
	.st17{fill:#FFF6E4;}
	.st18{fill:#FFF5E3;}
	.st19{fill:#FFF5E2;}
	.st20{fill:#FFF5E1;}
	.st21{fill:#FFF4E0;}
	.st22{fill:#FFF4DF;}
	.st23{fill:#FFF4DE;}
	.st24{fill:#FEF4DE;}
	.st25{fill:#FEF3DD;}
	.st26{fill:#FEF3DC;}
	.st27{fill:#FEF3DB;}
	.st28{fill:#FEF2DA;}
	.st29{fill:#FEF2D9;}
	.st30{fill:#FEF2D8;}
	.st31{fill:#FEF2D7;}
	.st32{fill:#FEF1D6;}
	.st33{fill:#FEF1D5;}
	.st34{fill:#FEF1D4;}
	.st35{fill:#FEF0D3;}
	.st36{fill:#FEF0D2;}
	.st37{fill:#FEF0D1;}
	.st38{fill:#FEEFD0;}
	.st39{fill:#FEEFCF;}
	.st40{fill:#FEEFCE;}
	.st41{fill:#FEEECD;}
	.st42{fill:#FEEECC;}
	.st43{fill:#FEEECB;}
	.st44{fill:#FEEDCA;}
	.st45{fill:#FEEDC9;}
	.st46{fill:#FEEDC8;}
	.st47{fill:#FEECC7;}
	.st48{fill:#FEECC6;}
	.st49{fill:#FEECC5;}
	.st50{fill:#FEEBC4;}
	.st51{fill:#FEEBC3;}
	.st52{fill:#FEEBC2;}
	.st53{fill:#FEEAC1;}
	.st54{fill:#FEEAC0;}
	.st55{fill:#FEEABF;}
	.st56{fill:#FEEABE;}
	.st57{fill:#FEE9BD;}
	.st58{fill:#FEE9BC;}
	.st59{fill:#FEE9BB;}
	.st60{fill:#FEE8BA;}
	.st61{fill:#FEE8B9;}
	.st62{fill:#FDE8B8;}
	.st63{fill:#FDE7B7;}
	.st64{fill:#FDE7B6;}
	.st65{fill:#FDE7B5;}
	.st66{fill:#FDE6B4;}
	.st67{fill:#FDE6B3;}
	.st68{fill:#FDE6B2;}
	.st69{fill:#FDE5B1;}
	.st70{fill:#FDE5B0;}
	.st71{fill:#FDE5AF;}
	.st72{fill:#FDE4AE;}
	.st73{fill:#FDE4AD;}
	.st74{fill:#FDE4AC;}
	.st75{fill:#FDE3AB;}
	.st76{fill:#FDE3AA;}
	.st77{fill:#FDE3A9;}
	.st78{fill:#FDE2A8;}
	.st79{fill:#FDE2A7;}
	.st80{fill:#FDE2A6;}
	.st81{fill:#FDE1A5;}
	.st82{fill:#FDE1A4;}
	.st83{fill:#FDE1A3;}
	.st84{fill:#FDE0A2;}
	.st85{fill:#FDE0A1;}
	.st86{fill:#FDE0A0;}
	.st87{fill:#FDDF9F;}
	.st88{fill:#FDDF9E;}
	.st89{fill:#FDDF9D;}
	.st90{fill:#FDDE9C;}
	.st91{fill:#FDDE9B;}
	.st92{fill:#FDDE9A;}
	.st93{fill:#FDDD99;}
	.st94{fill:#FDDD98;}
	.st95{fill:#FDDD97;}
	.st96{fill:#FDDC96;}
	.st97{fill:#FDDC95;}
	.st98{fill:#FDDC94;}
	.st99{fill:#FCDB93;}
	.st100{fill:#FCDB92;}
	.st101{fill:#FCDB91;}
	.st102{fill:#FCDA90;}
	.st103{fill:#FCDA8F;}
	.st104{fill:#FCDA8E;}
	.st105{fill:#FCDA8D;}
	.st106{fill:#FCD98C;}
	.st107{fill:#FCD98B;}
	.st108{fill:#FCD98A;}
	.st109{fill:#FCD889;}
	.st110{fill:#FCD888;}
	.st111{fill:#FCD887;}
	.st112{fill:#FCD786;}
	.st113{fill:#FCD785;}
	.st114{fill:#FCD784;}
	.st115{fill:#FCD683;}
	.st116{fill:#FCD682;}
	.st117{fill:#FCD681;}
	.st118{fill:#FCD580;}
	.st119{fill:#FCD57F;}
	.st120{fill:#FCD57E;}
	.st121{fill:#FCD47D;}
	.st122{fill:#FCD47C;}
	.st123{fill:#FCD47B;}
	.st124{fill:#FCD37A;}
	.st125{fill:#FCD379;}
	.st126{fill:#FCD378;}
	.st127{fill:#FCD277;}
	.st128{fill:#FCD276;}
	.st129{fill:#FCD275;}
	.st130{fill:#FCD174;}
	.st131{fill:#FCD173;}
	.st132{fill:#FCD172;}
	.st133{fill:#FCD171;}
	.st134{fill:#FCD070;}
	.st135{fill:#FCD06F;}
	.st136{fill:#FCD06E;}
	.st137{fill:#FBCF6D;}
	.st138{fill:#FBCF6C;}
	.st139{fill:#FBCF6B;}
	.st140{fill:#FBCE6A;}
	.st141{fill:#FBCE69;}
	.st142{fill:#FBCE68;}
	.st143{fill:#FBCD67;}
	.st144{fill:#FBCD66;}
	.st145{fill:#FBCD65;}
	.st146{fill:#FBCC64;}
	.st147{fill:#FBCC63;}
	.st148{fill:#FBCC62;}
	.st149{fill:#FBCB61;}
	.st150{fill:#FBCB60;}
	.st151{fill:#FBCB5F;}
	.st152{fill:#FBCA5E;}
	.st153{fill:#FBCA5D;}
	.st154{fill:#FBCA5C;}
	.st155{fill:#FBC95B;}
	.st156{fill:#FBC95A;}
	.st157{fill:#FBC959;}
	.st158{fill:#FBC858;}
	.st159{fill:#FBC857;}
	.st160{fill:#FBC856;}
	.st161{fill:#FBC755;}
	.st162{fill:#FBC754;}
	.st163{fill:#FBC753;}
	.st164{fill:#FBC652;}
	.st165{fill:#FBC651;}
	.st166{fill:#FBC650;}
	.st167{fill:#FBC54F;}
	.st168{fill:#FBC54E;}
	.st169{fill:#FBC54D;}
	.st170{fill:#FBC44C;}
	.st171{fill:#FBC44B;}
	.st172{fill:#FBC44A;}
	.st173{fill:#FBC349;}
	.st174{fill:#FAC348;}
	.st175{fill:#FAC347;}
	.st176{fill:#FAC246;}
	.st177{fill:#FAC245;}
	.st178{fill:#FAC244;}
	.st179{fill:#FAC143;}
	.st180{fill:#FAC142;}
	.st181{fill:#FAC141;}
	.st182{fill:#FAC140;}
	.st183{fill:#FAC03F;}
	.st184{fill:#FAC03E;}
	.st185{fill:#FAC03D;}
	.st186{fill:#FABF3C;}
	.st187{fill:#FABF3B;}
	.st188{fill:#FABF3A;}
	.st189{fill:#FABE39;}
	.st190{fill:#FABE38;}
	.st191{fill:#FABE37;}
	.st192{fill:#FABD36;}
	.st193{fill:#FABD35;}
	.st194{fill:#FABD34;}
	.st195{fill:#FABC33;}
	.st196{fill:#FABC32;}
	.st197{fill:#FABC31;}
	.st198{fill:#FABB30;}
	.st199{fill:#FABB2F;}
	.st200{fill:#FABB2E;}
	.st201{fill:#FABA2D;}
	.st202{fill:#FABA2C;}
	.st203{fill:#FABA2B;}
	.st204{fill:#FAB92A;}
	.st205{fill:#FAB929;}
	.st206{fill:#FAB928;}
	.st207{fill:#FAB927;}
	.st208{fill:#FAB826;}
	.st209{fill:#FAB825;}
	.st210{fill:#FAB824;}
	.st211{fill:#FAB723;}
	.st212{fill:#F9B723;}
	.st213{fill:#F9B722;}
	.st214{fill:#F9B721;}
	.st215{fill:#F9B620;}
	.st216{fill:#F9B61F;}
	.st217{fill:#F9B61E;}
	.st218{fill:#F9B51D;}
	.st219{fill:#F9B51C;}
	.st220{fill:#F9B51B;}
	.st221{fill:#F9B41A;}
	.st222{fill:#F9B419;}
	.st223{fill:#F9B418;}
	.st224{fill:#F9B317;}
	.st225{fill:#F9B316;}
	.st226{fill:#F9B315;}
	.st227{fill:#F9B214;}
	.st228{fill:#F9B213;}
	.st229{fill:#F9B212;}
	.st230{fill:#F9B111;}
	.st231{fill:#1A1A1A;stroke:#1A1A1A;stroke-width:1.9795;stroke-miterlimit:10;}
	.st232{fill:#F9B110;stroke:#F9B110;stroke-width:2.5512;stroke-miterlimit:10;}
	.st233{fill:none;stroke:#F9B110;stroke-width:2.5512;stroke-miterlimit:10;}
	.st234{fill:#1A1A1A;stroke:#1A1A1A;stroke-width:2.5512;stroke-miterlimit:10;}
</style>
<rect x="-8.2" y="-19.8" class="st0" width="1936.3" height="689.5"/>
<g>
	<path class="st2" d="M605.6,546.6v-2.9c-9.2,0-16-2.7-20-8c-5.3-6.9-6.1-18.5-2.3-32.7l106.6-396h3.4c9.6,0,16.9,3.4,22.5,10.5
		c29.1,36.8,0.1,158.5-17.2,231.2l5.7,1.5l68.2-248.9h-80.9h-46.2h-81.8l-65.2,247.4l5.7,1.6c22.5-78.9,69.3-243.1,135.1-243.1h4.6
		l-103,382.7l0,0l-3.1,11.7c-7.9,29.2-19.9,42.3-38.9,42.3v5.9h45.8h9.1h52V546.6L605.6,546.6C605.6,546.6,605.6,546.6,605.6,546.6z
		"/>
	<path class="st2" d="M504.7,390.5c-0.6,1.5-56.8,153.2-123.9,153.2h-10.9l107-397.7c8.5-26.1,21.7-38.9,40.2-38.9v-5.9h-28.1h-46.2
		h-33v2.9h0c0,0,0,0,0,0v2.9c10.1,0,16.6,2.2,20.1,6.7c7.1,9.2,1.8,28.7-4.3,51.3l0,0l-93.7,348.3c-4.7,16.5-10.8,30.3-28,30.3v5.9
		H348h3.7h29.1h53.8h33.4l42.3-157.3L504.7,390.5z"/>
	<path class="st2" d="M899.7,425.3v5.9c0,0,0,0,0,0h0c3.8,0,6.7,1.7,8.8,5.3c2.1,3.6,3.3,8.8,3.3,15c0,22.3-15.3,54.6-43,54.6
		c-20.3,0-22.8-24.2-25.4-49.8c-2-19.9-4.1-40.2-15.3-49.2c51.7-7.9,86.3-56.7,106.8-98.2c25.4-51.5,41.8-119.8,41.8-174.1
		c0-8.3-2.6-15.2-7.8-20.3c-14.4-14.2-45.7-13.9-81.9-13.4c-4.2,0.1-8.5,0.1-12.8,0.1c-1.9,0-3.7,0-5.7,0h-11.9h-30.5h-28.9v5.9
		c8,0,13.3,1.9,16.3,5.8c6.5,8.5,2.2,27-3.2,47.4l-95,353c-4.9,16.6-11.2,30.5-28.6,30.5v5.9h38.8h9.1h44.9v-5.9
		c-7.6,0-12.8-1.9-15.7-5.7c-5.8-7.6-2.8-22.7,0.5-35l4.5-16.6l-0.1,0.1l19-70.4c5.4-5.1,14-7.8,25.8-7.8c0,0,0,0,0,0
		c4.5,0,7.8,1.3,10.2,4.1c8.5,9.7,5.1,36,1.8,61.4c-3.7,28.5-7.5,57.9,4.1,71.1c4.2,4.8,10.1,7.2,17.5,7.2
		c40.9,0,70.8-66,70.8-100.3C917.8,434.9,911.2,425.3,899.7,425.3z M870.8,106.9c1.2,0,2.3,0,3.5,0c0.8,0,1.7,0,2.5,0
		c22.2-0.1,41.3-0.3,50.5,8.8c4,4,5.9,9.7,5.9,17.4c0,69.3-60.9,269.2-119.8,269.2c-9.5,0-17.3,1.6-23.4,4.8L870.8,106.9z"/>
	<path class="st2" d="M268,539.1c-3.9-4.9-4.5-14.1-1.7-25.8l89.5-377h0l0.6-2.5c4.5-19,11.9-26.8,25.5-26.8v-2.9c0,0,0,0,0,0h0
		v-2.9h-17.8h-35h-11.7h-23.8h-56.4v5.9h36.6L143.6,453c0,0.1-0.1,0.1-0.1,0.2l-1.5,3.6c-15.6,38.7-35.1,86.9-79.5,86.9v2.9
		c0,0,0,0,0,0h0v2.9h93.8v-2.9h0c0,0,0,0,0,0v-2.9c-5,0-9.1-2.3-12.2-6.9c-9.3-13.7-8.1-44.8,2.3-74.5l11.4-30.2h81.1l-17.6,74.2
		l-0.6,2.4c-4.3,18.1-10.7,34.9-27.9,34.9v2.9c0,0,0,0,0,0h0v2.9H211h46.6h21.8v-5.9C274.1,543.7,270.4,542.2,268,539.1z
		 M293.6,107.1c8.2,0,13.5,1.6,16.2,5c2.6,3.3,3,8.8,1.1,16.7l-0.8,3.3h0l-69.9,294.3H160l120.1-319.2H293.6z"/>
	<path class="st2" d="M1253.3,546.6v-2.9c-12.1,0-21.3-3.6-26.5-10.4c-5.4-7-6.4-17.5-2.9-30.3l4.5-16.7l0,0l91.4-339.7
		c8.8-27.2,22.9-39.5,45.3-39.5v-2.9h0h0v-2.9h-33.1h-46.2h-42.1v5.9c13.5,0,21.8,2.7,26.3,8.5c6.1,8,5.7,23.2-1.3,49.5l0,0
		l-92,341.7c-7.9,25.5-20,36.9-38.7,36.9v5.9h47.3h9.1h59V546.6L1253.3,546.6C1253.3,546.6,1253.3,546.6,1253.3,546.6z"/>
	<path class="st2" d="M1121.5,546.6v-2.9c-6.7,0-11.4-1.8-14.2-5.5c-4.7-6.1-4.7-17.7,0-35.2l4.5-16.9l0,0l103.3-384h-6.4H1169
		h-33.2v5.9c11,0,18.5,0.9,21.8,5.2c4.8,6.2,2.3,21.6-3.9,45.7c-6.8,23.8-34.7,116.2-69.6,205.9c-57.3,146.9-91.1,179.4-109.6,180.3
		l119.2-443h-3.8h-42.4H1016v5.9c10.6,0,17.8,0.8,20.9,4.8c4.8,6.3,1.6,22.7-6.5,52.7L926.7,551h26.6h19.6h0.8
		c46,0,107.4-153.8,147.1-269.4l-72.1,268h20.3h25.9h26.7V546.6L1121.5,546.6C1121.5,546.6,1121.5,546.6,1121.5,546.6z"/>
	<path class="st2" d="M1759.1,546.6v-2.9c-7.3,0-12.6-2.1-15.9-6.3c-6.4-8.3-4.2-23.3-1.2-34.4l5.3-19.7l0,0l102.8-382.1H1804l0,0.1
		c-22.9,1.2-54.1,52.4-95.5,156.4c-9.4,23.6-18.2,47.3-26,68.9l60.6-225.3H1697l0,0.1c-22.9,1.2-53.7,52.4-94.2,156.4
		c-8,20.5-15.6,41.1-22.4,60.3l58.1-215.8h-8.8h-37.4h-21.5v2.9h0h0v2.9c6.2,0,10.3,1.3,12.4,4.1c3.5,4.6,2.4,13.7-0.5,25.7
		l-93.6,347.9l0,0l-1,3.6l-3.4,12.6c-6.2,22.9-13.1,41.9-33.6,41.9v5.9h43.5h0.5h44.9v-5.9c-6,0-10-1.4-12.2-4.3
		c-4.8-6.2-1.6-19.6,1.7-31.9l0.8-3l5.5-20.3l0,0l18.8-70c25.6-83.7,99.8-298.1,140.8-306.8l-119,442.2h46.2l36.5-135.5
		c26.4-83.7,102.3-298.1,143.4-306.8l-110.4,410.4c-4.4,14.8-10,26-24.4,26v2.9c0,0,0,0,0,0h0v2.9h39.3h0.5h51.8V546.6L1759.1,546.6
		C1759.1,546.6,1759.1,546.6,1759.1,546.6z"/>
	<path class="st2" d="M1429.8,303.8c-14.5-46.8-29.5-95.1-29.5-135.5c0-44.6,18.4-66.2,56.1-66.3c0,0,0,0,0.1,0
		c24.4,0,35.2,13.1,35.2,42.5c0,69.8-9.4,144.4-9.5,145.1l5.7,1.1l48.9-178.9l-2.5-0.9c-1.6-0.6-40.5-14.8-77.8-14.8c0,0,0,0-0.1,0
		c-59.5,0-101.1,41.8-101.1,101.7c0,33.3,12.9,75.7,26.6,120.6c14.6,48,29.8,97.7,29.8,139.3c0,27.1-5.5,90.2-56.9,90.2c0,0,0,0,0,0
		c-27.2,0-39.4-19.3-39.4-62.5c0-61.4,8.9-151,9-151.9l-5.7-1.1l-47.9,174.9l-0.3,1.2l0.6,1.1c0.3,0.4,26.9,44.1,83.8,44.1
		c31.2,0,57.7-12.6,76.6-36.3c17.4-21.8,26.9-51.6,26.9-84C1458.3,395.7,1444.5,351,1429.8,303.8z"/>
</g>
</svg>
