<svg id="Layer_1" data-name="Layer 1" xmlns="http://www.w3.org/2000/svg" viewBox="0 0 1920 1000"><defs><style>.cls-1{fill:#fffcf8;}.cls-2{fill:#f9b110;}</style></defs><title>balance</title><rect class="cls-1" x="-8.17" y="-7.02" width="1936.35" height="1014.04"/><path class="cls-2" d="M1411.54,448.57c0,60.21,31.36,116.81,92.87,116.81,79.25,0,115.73-99.22,115.73-99.22l1.27-37.12s-35.49,94.78-96.1,94.78c-39.73,0-54.32-44.57-54.32-81.31C1471,395,1494.93,318,1542.52,318c16.88,0,26.1,11.82,26.1,28.79,0,23.39-24.63,46.2-44.81,42.37-4.9-.93-6.16,1.85-5.33,5.24,3.41,13.86,16.39,24.69,34.74,24.69,30.14,0,52.86-31.43,52.86-61.3,0-38.06-30.4-62.66-68.75-62.66C1462.82,295.11,1411.54,371,1411.54,448.57Z"/><path class="cls-2" d="M1645.23,456.88c41.68,41.69,115.06-17.63,115.06-71.52,0-14.44-6.4-25.18-21.23-25.18-40.78,0-71.2,65.24-71.2,120.05,0,36.41,13.79,79.75,52.61,79.75,38,0,70.48-43.54,82.79-89.25,2.81-10.42,14.68-7,13.4,11.51-3.69,53.56-53.29,116.28-113.18,116.28-61.7,0-93.55-57-93.55-116.77,0-67.1,56.06-144.52,129.25-144.52,34.55,0,62.68,22.89,62.68,55.08,0,72.12-110.57,129.88-164.31,76.13Z"/><path class="cls-2" d="M503.73,710.32c277,0,565.85-90.71,830.81-90.71,245.26,0,377.25,125.65,377.25,135.93s-105.57-67.33-340.73-67.33c-263.73,0-531.76,62.61-749.11,62.61-263.71,0-349.43-89.44-349.43-98.9S363.2,710.32,503.73,710.32Z"/><path class="cls-2" d="M629.78,449.38c0,79.38-40.31,180.16-95.48,180.16-41.52,0-62.79-39.46-62.79-85.85,0-79.79,58.25-196.89,133.21-196.89,42.63,0,46.57,61.75,25.07,102.57l-4.09-20.14c5.44-31,2.18-62.38-16-62.38-43.18,0-76.84,114.69-76.84,164.33,0,32.21,7.36,47.45,22.22,47.45,32.93,0,63-98,70.67-149.4Z"/><path class="cls-2" d="M746.61,480.15c0,67.32,38.1,106.87,75.63,106.87C888.45,587,932,491.35,932,422.69l-7.52,3.48c-10.78,44.33-45.12,118.45-82.41,118.45-30.9,0-35.86-44.56-35.86-82.82,0-69.41,46.67-246.4,90.39-246.4,45,0-48.71,242.21-114.64,242.21l9.89,15.12c79.47,0,216.79-286.41,99.67-286.41C811.1,186.31,746.61,371.79,746.61,480.15Z"/><path class="cls-2" d="M1073.81,391c0,79.38-40.31,180.16-95.48,180.16-32.52,0-62.79-32-62.79-85.85,0-79.79,58.25-191.81,133.21-191.81,42.63,0,46.57,56.68,25.07,97.49l-4.09-20.14c5.44-31,2.18-57.3-16-57.3-43.18,0-76.84,109.62-76.84,159.26,0,32.21,7.36,47.45,22.22,47.45,32.93,0,63-98,70.67-149.4Z"/><path class="cls-2" d="M663.92,356c15.12,7.1,34.24-.62,44.14-5.75,3-1.56,5.41-.46,3.88,3.86-10.58,29.93-48.26,139.32-48.26,179.06,0,17.63,6.18,31.92,22.25,31.92,31,0,60.68-68.07,65.89-111.52L760.61,469c0,63.28-41.53,140.07-101.09,140.07-35.39,0-55.45-28-55.45-71.89,0-46.47,42.78-155.91,52.41-179.93C657.66,354.32,660.63,354.48,663.92,356Z"/><path class="cls-2" d="M1104.37,302.79c16.3,9.65,37.69-.12,47.42-5.41,2.56-1.39,3.78.36,2.91,2.85-9.49,27.12-48.94,142.4-48.94,184.76,0,14.8,6.24,28.12,20.12,28.12,31.87,0,62.28-102,69.57-130.66l-4,28.61c0,45.68-34.86,146-89.13,146-31.1,0-55.45-24.63-55.45-71.89,0-46.22,42.33-154.74,52.24-179.53C1100.54,302,1103.25,302.13,1104.37,302.79Z"/><path class="cls-2" d="M1384.72,335.54c0,28.94-45.57,111.46-45.57,152.48,0,18.81,8.89,23.6,16.55,23.6,36.53,0,61.1-103.92,61.1-103.92l9.35,21.33s-15.8,123.62-98.4,123.62c-34.92,0-53.5-23.5-53.5-59.37,0-43.09,51.13-130.23,51.13-159.46,0-9.37-3.36-15.84-11.95-15.84-27.93,0-83,106.5-95.87,166.07,0,0-4.18-5.33-4.18-19.16s46.91-180.81,122.73-180.81C1366.19,284.08,1384.72,304.23,1384.72,335.54Z"/><path class="cls-2" d="M1223.52,296.64c20.49,5.16,33.71,1.8,41.08-1.78,4.24-2.07,6.09-1,5.07,2.22-9.66,30.62-46.54,148.49-48.59,169.48-5.8,21.43-8.34,62.1-9.06,76-.16,3-3.35,3.47-8.41,2.19-10.13-2.55-28-5-44.15,3-6.32,3.17-6.47-1.25-5.79-3.18l61.53-243.43C1216.71,295.36,1217.25,295.07,1223.52,296.64Z"/><path class="cls-2" d="M250.09,518.69c128.18,0,240.15-92.38,240.15-203.76,0-91.11-68.8-149.35-168-149.35-112.05,0-219,73-219,182.9,0,39.27,18.19,74.84,58.19,74.84,16.76,0,26.53-6.91,31.19-11.53,2.92-2.9.54-4.89-2.1-6.7-12.09-8.26-19-30.38-19-49.62,0-90.33,71.21-164,155.52-164,70.75,0,99.54,49.69,99.54,113.15,0,87.63-81.25,190.83-178,190.83Z"/><path class="cls-2" d="M147.66,706.21c0-173.2,166.79-559.73,299-559.73,16.45,0,27,7,32.14,11.55,2.56,2.28.85,4-.62,4.12C337,171.05,215.07,600.72,215.07,718.35c0,44.75,3.78,90.94,47.73,90.94,67.26,0,105.71-110.71,105.71-181.16,0-63.87-38.69-109.56-110.14-109.56l33.79-22.95c86.11,0,144.87,62.69,144.87,145.54C437,736,361.64,842,263,842,189.55,842,147.66,777.53,147.66,706.21Z"/></svg>