<svg id="Layer_1" data-name="Layer 1" xmlns="http://www.w3.org/2000/svg" viewBox="0 0 1920 1371"><defs><style>.cls-1{fill:#fffcf8;}.cls-2{fill:#1a1a1a;}</style></defs><title>communicate</title><rect class="cls-1" x="-26.71" y="-17.84" width="1959.28" height="1417.93"/><path class="cls-2" d="M513.37,421.24c67.82,0,150.87-24,238.92-58.8a157.17,157.17,0,0,1,1.53,21.88c0,27.4-9.68,47.79-25.89,54.54-8.69,3.61-17.8,2.47-23.22-2.91a15,15,0,0,1-4.35-11,24.21,24.21,0,0,1,1.94-9.1l-1.13-.46a25.41,25.41,0,0,0-2,9.58,16.2,16.2,0,0,0,4.72,11.8,19.6,19.6,0,0,0,14,5.35A27.53,27.53,0,0,0,728.39,440C745.07,433,755,412.23,755,384.32a166,166,0,0,0-1.5-22.37c91.84-36.42,189.06-84.6,280.1-129.72,143.17-70.95,278.41-138,352.33-138,52.61,0,105.86,28.06,105.86,81.7,0,40.4-25.77,66.06-47.39,80.47-27.58,18.38-64.23,28.92-100.57,28.92-37.76,0-81.86-15-81.86-57.45v-.15c.08-34.51,26.72-45.53,38.18-48.68,21.21-5.82,44.27-.71,51.45,11.37h0l1.05-.62h0v0c-9.69-16.44-30.12-23.69-50.86-18-18.9,5.15-41,22.89-41,56v.16c0,18.62,8.79,34,25.42,44.4,14.67,9.2,35.15,14.27,57.66,14.27,36.58,0,73.48-10.61,101.25-29.12C1476,236.86,1493,207.92,1493,176,1493,121.53,1439.17,93,1386,93c-105.11,0-276.45,84-442.16,165.24-64.81,31.78-130.53,64-192.47,91.21q-1.16-5.34-2.68-10.55c-9-31.25-27.24-59.92-53.54-83.37-37.43-33.36-88.22-52.49-139.37-52.49-76,0-164.36,56-164.43,128.12,0,0,0,.07,0,.1C391.31,397.61,454.36,421.24,513.37,421.24ZM448.83,246.53c31.57-19,73.2-30.34,111.35-30.34,85.58,0,154.85,43.45,181.67,107.64A163.79,163.79,0,0,1,750,350.07C657.52,390.66,573.46,420,513.37,420c-58.42,0-120.84-23.3-120.84-88.71C392.53,298.48,412.53,268.38,448.83,246.53ZM1331.4,230.6c5.37,0,8.46,5,8.46,13.73,0,7.42-5.58,18.44-13.28,18.44-5.74,0-9-5.11-9-14C1317.53,241.61,1323.49,230.6,1331.4,230.6ZM305,711.49c0,33.92-14,71.63-37.33,100.87-25.28,31.63-57.21,49-89.91,49h-.18c-67.63-.1-108-57-108-152.28,0-58.56,22.21-130.51,57.95-187.77,41.27-66.12,93.61-102.53,147.36-102.53H275c47.67,0,79.7,31.5,79.7,78.33,0,53.94-43.45,101.26-93,101.26-32.94,0-56.85-22.89-56.85-54.44,0-30.8,24.56-63.77,61.13-63.77v1.22C233.37,481.44,216,519.5,216,547c0,31,17.47,50.2,45.6,50.22h0c48.36,0,80.84-54.88,80.84-106.15,0-43.78-25.88-71-67.55-71h-.11c-101.6.07-184,184-184,304.1,0,58.36,9,135.92,86.79,136h.17c31.48,0,60.88-18.14,82.79-51.09,19.54-29.38,31.21-68.06,31.21-103.47,0-48.37-17.17-72.89-51-72.89-51.62,0-74.84,70.75-74.84,121,0,40.46,10.65,61,31.65,61.08h.11V816h-.07c-29.5-.06-44.94-36.59-44.94-72.68,0-26.31,8.5-54.33,22.72-74.94,11.62-16.83,32.4-36.9,65.37-36.9h.1c20.18,0,36.83,8.12,48.14,23.4C299.46,669.08,305,688.65,305,711.49Zm1487.14-304A179.76,179.76,0,0,0,1729.81,419a202.91,202.91,0,0,1-4.2-42.55,240.69,240.69,0,0,1,2.33-31.71c24.86-1.75,49.88-12.23,69.66-29.35,22.06-19.1,34.72-44.19,34.72-68.84,0-16.9-11-28.88-26.87-29.68-.51,0-1,0-1.55,0h-.15c-27.1,0-52.23,19-70.76,53.46-11.29,21-19.48,47-23.2,72.34-5.57,26.68-19.88,80.49-44.78,80.49-9.22,0-11.07-7.07-11.07-18.49,0-23.48,22.09-119.82,38.29-188.6l5,.52c16.64,1.76,32.36,3.43,39.33-2.84,2.53-2.27,3.81-5.52,3.81-9.66v-.39l-5.54-3.85v1.43c0,3.8-1.09,6.66-3.33,8.74-6.25,5.79-20.83,4.67-36.26,3.49l-2.37-.18c2.27-9.63,4.42-18.69,6.36-26.87,4.43-18.67,7.92-33.41,9.31-39.88l1.11-5.16-2.26,4.78c0,.1-4.84,10.16-9.28,13.1-4,2.62-10.37,4-10.43,4l-.39.08-.08.38c-1.53,7-4.51,19.63-8.28,35.62l-3.09,13.11c-15.86-.13-30.41,2.5-36.65,15.09v0l.67.33h0l.67.33v0c5.66-11.43,19.4-13.8,34.76-13.4-9.33,39.64-21.07,90.29-28.44,128.44-6.65,26.68-27.56,99.13-58.39,99.13h0c-7.64,0-10.76-4.22-10.76-14.53,0-21.21,20-99.63,31.92-146.49,2.92-11.44,5.22-20.48,6.6-26.21l.39-1.63-1.35,1a20.72,20.72,0,0,1-6.83,2.79,46.65,46.65,0,0,1-9.43,1.15h-.48l-.11.47c-1.42,6.09-3.64,15-6.22,25.4-2.12,8.54-4.55,18.29-7,28.58a140,140,0,0,0,.79-14.23c0-11-1.65-21.42-6.66-27.91a16.65,16.65,0,0,0-13.87-6.58c-27.87,0-48.39,33.35-58.14,53.24a247.7,247.7,0,0,0-19.86,58.92c-3.82,12.05-37.67,113.37-94.08,113.37-25.14,0-34.06-28.16-34.06-52.28,0-48.38,24.78-138.61,72.15-138.64h0a36.64,36.64,0,0,1,7.82.83c15.4,3.58,18.9,18,18.9,30.32,0,25.21-16.77,63.84-37.43,63.84h0c-7.32,0-12.42-3.37-15.16-10-5.09-12.29-.1-32.73,7.4-40.24l1-1h-5.64l-.18.18c-7.19,7.19-11.35,27.11-6,40.12,3.3,8,9.7,12.2,18.51,12.21h0c22.91,0,46.19-35.87,46.19-61.65,0-18.62-12.72-33.07-30.33-35.45a37.53,37.53,0,0,0-5.14-.34h0c-54.36,0-87.73,74.87-87.73,128.53a87.06,87.06,0,0,0,1.2,14.35c-7.69,26.87-24.61,73.21-49.79,73.21h0c-8.13,0-11.59-4.9-11.59-16.37,0-21.74,19.64-98.18,31.38-143.85,3.87-15.07,6.93-27,8.26-32.87l-1.17-.35c0,.06-2.42,6.21-7.24,9.29-3.69,2.35-11.59,2.69-11.67,2.7l-.47,0-.1.46c-1.33,6.18-3.62,15.83-6.27,27-6.08,25.65-14.09,59.44-19.29,87.3-9.7,31.82-30,85-57.49,85-8,0-12.13-5.41-12.13-16.08,0-19,11.15-46.11,21.94-72.37,10.63-25.88,20.68-50.33,20.68-67.24,0-17.2-10.38-28.75-25.84-28.76h0c-28.2,0-46.21,41.86-54.95,69.15,1.93-10.93,3.12-19.37,3.12-23.47,0-13.42-6.39-27-20.66-27-25.58,0-38.45,57-46.14,91-1.4,6.17-2.6,11.49-3.7,15.77v0h0c-1.18,4.56-2.41,10.17-3.84,16.66-7.27,33.15-18.28,83.25-42.11,83.25-7,0-10.59-5.08-10.59-15.09,0-28.13,27.73-132.44,36.85-166.72l1.61-6.07-1.22.63a46.89,46.89,0,0,1-8.48,3.36,69,69,0,0,1-8.16,1.39l-.43,0-.1.42c-.61,2.47-1.43,5.77-2.42,9.72-5.1,20.42-14.16,56.67-20.9,88.94-9.15,33.4-31.45,102.3-59.69,102.3-.75,0-1.47,0-2.17-.1-8.38-.81-10-6.58-10-16.61,0-15.17,9.67-47.12,19-78,9.19-30.36,17.86-59,17.86-72.51,0-21.95-11.94-36.13-30.42-36.14h0c-7.83,0-17.09,4.3-18.81,12.28l1.19.26c1.59-7.35,10.27-11.31,17.62-11.31h0c11.15,0,16.34,6.74,16.34,21.19,0,13.56-8.35,43.39-16.42,72.25-8.47,30.26-17.23,61.56-17.23,76.57,0,19.51,7.52,31.68,20.27,33.21a22.59,22.59,0,0,0,2.77.16h0c25.38,0,45.48-51.4,56.66-88.43-3.32,17.37-5.57,32.43-5.57,41.49,0,17.53,8.39,28,22.43,28h0c24.86,0,36-50.63,43.29-84.13,1.43-6.54,2.67-12.19,3.85-16.76,1.11-4.29,2.31-9.63,3.71-15.8,7.61-33.68,20.34-90,45-90,6.48,0,9.5,4.59,9.5,14.44,0,18.48-38.43,170.8-38.82,172.34l-.4,1.57,1.33-.92a31.68,31.68,0,0,1,8.91-4.2,23,23,0,0,1,7.79-.16l.57.1.13-.56c.95-4.08,17.58-75.7,26.34-121.6,6.84-24.4,25.8-79.72,57.12-79.72h0c9.83,0,15,5.84,15,16.89,0,15.92-10.51,38.61-21.63,62.64-12.1,26.12-24.61,53.13-24.61,73.83,0,15.45,9.12,31.09,26.55,31.1h0c25.9,0,45.1-43.95,55.69-76.13-2.15,12.71-3.5,23.61-3.5,31.08,0,16.74,8.78,26.74,23.48,26.74,25.56,0,42.34-44.06,50.32-71.53,5.13,25.3,21.55,47.59,47.88,47.59,25.1,0,49.6-20,70.86-57.82A319.84,319.84,0,0,0,1486,384.45a152.94,152.94,0,0,0-2,23.54c0,25.85,11.43,52,33.27,52,23.87,0,41.8-42.84,52.36-77.28-2.68,14.2-4.4,26.18-4.4,33.57,0,16.33,9.37,27.3,23.31,27.31h0c27.07,0,46.09-51.63,55.4-84.14-2.53,14.53-4.07,26.11-4.07,32.87,0,21,8.72,32,25.21,32,22.61,0,36.41-40.67,43.3-69.15-.49,5.6-.77,11.12-.77,16.49a144.15,144.15,0,0,0,9.69,52.46l-.88.4c-36,15.66-71.66,41.55-102.55,75.42a357,357,0,0,0-43.41,58.49c-5.7-2.28-11.49-4.44-17.42-6.42-36.34-12.67-78-19.22-123.48-19.22a377.28,377.28,0,0,0-92.29,11.68c-42.85,10.55-84.72,27.87-120.54,50.5-68.46,43.24-106.17,99.62-106.17,158.73,0,39.77,17.76,72.21,51.35,93.82,29.16,18.76,70.16,29.11,115.5,29.15h.28c54.11,0,107.59-15.34,146.73-42.09,42.47-29,65.86-69.79,65.86-114.78,0-57.62-39.83-96.34-99.12-96.34a158.21,158.21,0,0,0-21.32,1.43,171.39,171.39,0,0,0-84.32,36c-30.63,24.79-47.51,56.89-47.51,90.36,0,24.08,11,40.68,29.44,44.41a38.44,38.44,0,0,0,23-2.48,27.54,27.54,0,0,0,11.51-8.58,24.35,24.35,0,0,0,3.59-5.91h0l-1.12-.49a26.82,26.82,0,0,1-2.49,4.39,30.26,30.26,0,0,1-13.68,10.07,23.83,23.83,0,0,1-12.08.58c-13.92-3-22.22-17.55-22.22-39,0-64.83,45.39-115.67,109.34-127.17a161.81,161.81,0,0,1,27.86-2.45c58.56,0,97.9,38.22,97.9,95.12,0,44.58-23.2,85-65.32,113.77-38.94,26.61-92.17,41.88-146,41.88h-.16c-93.24,0-148.9-44.88-148.9-120,0-60.9,34.2-117.73,96.31-160,33.07-22.52,71.86-39.5,112.7-49.85,30.76-7.56,62-11.62,91.91-11.62,48,0,93.75,8,133.9,23,2.13.84,4.23,1.71,6.32,2.59-26.59,45.29-41.17,94.2-41.17,140.72,0,60.65,28.93,94.24,56,105.46a63,63,0,0,0,24.07,4.94,51.88,51.88,0,0,0,37.15-15.07l-.86-.86c-14,14-36.59,18-56.2,9.85-28.53-11.82-44.89-45.46-44.89-92.3,0-49.88,12.95-101.3,36.56-148,72.87,34.65,115.47,97.12,115.47,177.84,0,133.76-107.85,246.25-252.68,276.63-6-26.14-23.5-49.71-50.76-67.78-17.21-11.42-37.66-20.19-59.58-25.81A223.16,223.16,0,0,0,1275.5,918c-50.81,0-101.72,14.91-145.92,41.85-25.17-11.18-51.11-23.2-77.87-35.6q-19.62-9.09-39.71-18.34a199.63,199.63,0,0,0,2.26-29.68c0-35-17.91-45.2-25.61-47.94-10.71-3.81-23.07-1.41-28.77,5.57l.94.77c5.39-6.61,17.19-8.84,27.42-5.2,7.46,2.66,24.8,12.53,24.8,46.79v.1a192.51,192.51,0,0,1-2.25,29c-78.27-35.92-161.7-72.23-251-97.8l7.38-6.29c37.08-31.61,73.28-62.46,107.23-87.64,4.27,13.06,10.28,24.52,18,33.92C904,761.58,919,771,937.32,775.75a116.42,116.42,0,0,0,26.89,3.53v.1c.65,0,1.29,0,1.94,0s1,0,1.53,0h0v-.08c48.49-1.63,90.28-36.64,90.28-76.44,0-30.31-22.85-49.14-59.62-49.14h-.09a.17.17,0,0,0-.09,0h0c-15.27,0-31.82,4.47-49.52,12.36-21.09,9.33-43.87,23.48-67.85,40.76-3.52-21.71-2.25-47.91,4-77.89,5.58-26.91,14.87-53,23.87-78.17,11.54-32.35,22.44-62.91,22.44-88.52,0-19.93-10.13-32.8-25.8-32.8-22.91,0-36.05,29-43.94,55.19a80.59,80.59,0,0,0,1.18-12c0-16.37-9.78-28.25-23.25-28.25h0c-21.87,0-37,31-46.49,59.43a119.74,119.74,0,0,0,1.94-16.67c0-12.77-6.23-26.51-19.9-26.52h0c-23.95,0-38.24,56.28-46.78,89.91-1.8,7.09-3.35,13.21-4.71,17.7-.95,3.14-2,6.9-3.2,11.09-8.95,31.54-25.6,90.25-50.42,90.25-7.1,0-10.56-4.89-10.56-14.94,0-15.27,9.4-38.44,19.36-63,10.9-26.84,22.17-54.6,22.17-74.72,0-15.4-7.91-31-23.05-32.2-.61,0-1.24-.08-1.9-.08h0c-20.64,0-33.79,25.33-42.29,50.58a49.49,49.49,0,0,0,.35-5.32c0-14.07-6.93-29.21-22.13-29.22h0c-23.92,0-39.29,35.61-48.49,66.09,1.79-9.6,2.88-17,2.88-20.74,0-13.8-5.22-29.91-19.93-29.91-22.17,0-32.46,43.69-39.27,72.6-1.19,5.06-2.22,9.42-3.18,13-8.24,30.45-19.4,71.68-46.74,75,7.49-19.62,11.56-41.08,11.56-59.41,0-20.34-8.46-42-24.13-42-19.66,0-31.82,25.79-31.82,49.68s10,51.36,38,53.06c-10.56,30.51-28.67,57.18-55.56,57.2h0c-28,0-32.23-38.11-32.23-60.83,0-27.25,7.19-59.45,18.76-84,9.88-21,27.28-46,54.1-46a31.59,31.59,0,0,1,18.1,5.19,27.4,27.4,0,0,1,6.37,6.36c4.81,6.73,6.28,15.37,3.83,22.55l.58.2h0l.58.2c2.6-7.61,1.12-16.67-3.88-23.65a27.35,27.35,0,0,0-6.79-6.67c-5.65-4-12.89-6.19-21.14-6.19-23.27,0-45.49,14.35-62.55,40.41C355.21,606.41,346,636.83,346,664.27c0,35,17.13,72.24,48.87,72.24H395c27.53-.07,48.94-26.71,61.37-58.5A29.41,29.41,0,0,0,467,674.87c21-10.81,30.54-46,37.81-72.87,1-3.57,2-8,3.19-13,6.31-26.8,16.87-71.66,38.08-71.66h0c8.09,0,9.79,7.43,9.79,13.65,0,22.87-40.07,163.53-40.47,164.95l-.19.68.7.09c.06,0,6.2.85,9.81,4.45,3.18,3.18,3.62,6,3.62,6.06l.44,3.06.76-3c1.06-4.19,19.65-77.7,29.48-124.87,8.26-31.92,24.32-80.51,51.59-80.51,9.79,0,11.25,10.21,11.25,16.3,0,11.88-8.93,42.37-18.39,74.66-9.85,33.63-20,68.4-20,82.62v.64l.64,0s4.42-.19,7.25,2.64c4.19,4.18,6.58,10.92,6.6,11l1.19,3.38v-3.58c0-18.17,9.46-54.64,18.62-89.9,5.67-21.83,11.09-42.74,13.58-57,8.26-27,21.58-56.71,43.38-56.71a21.8,21.8,0,0,1,3.63.3c7.74,1.38,11.11,7.65,11.11,20.21,0,17.37-10.25,40.52-21.11,65-11.13,25.13-22.64,51.12-22.64,71.19,0,14,7.91,28.17,23,28.17,25.74,0,42.56-59.29,51.59-91.14,1.19-4.19,2.25-7.94,3.2-11.08,1.36-4.52,2.92-10.65,4.72-17.76,8.45-33.28,22.6-89,45.6-89h0c6.62,0,9.32,4.34,9.32,15,0,21.67-40,162.53-40.39,164l-.2.71.74.06c.07,0,7,.63,10,3.57a14.72,14.72,0,0,1,3.83,7.13l.48,2.87.71-2.82c.28-1.13,23-91.55,31.93-139.53,9.13-30.11,24.71-67.15,48.07-67.15h0c8.11,0,12,5.41,12,16.53,0,12.31-9.61,45.26-18.91,77.13C822.87,572,813,605.93,813,619.07v.67l.67-.06a10.32,10.32,0,0,1,7.62,3.09c4.17,4.16,6.8,11,6.83,11.09l1.18,3.1v-3.32c0-20.35,9.36-56.16,18.41-90.79,3.78-14.47,7.46-28.55,10.21-40.69,6.94-28.16,20.12-71.48,47.41-71.48,12.43,0,15,10.84,15,19.93,0,18.55-11.29,49.28-23.24,81.82-10.18,27.7-20.7,56.35-25.37,80.3-7.32,37.5-6.38,71.77,2.16,99.17-36.41,26.88-75.45,60.51-115.53,95.28-73.85-21-151.68-34.71-233.85-34.71-53.09,0-110.84,15.09-154.48,40.37-49.67,28.77-77,68-77,110.59,0,29.88,12.49,54.47,36.13,71.11,21.17,14.9,51.21,23.11,84.59,23.11,46.48,0,100.91-21.42,166.41-65.47,56.65-38.11,114-87.71,169.61-135.93,74.75,25.17,149.46,58.43,222.93,91.14q17.42,7.76,34.68,15.4A233.81,233.81,0,0,1,990.73,969a253.84,253.84,0,0,1-35.52,52.77c-76.09-36.54-155.64-65.59-233-65.59-34.5,0-71.61,10.74-99.27,28.72-30.8,20-47.76,47-47.76,76.09,0,26.77,12.36,51.22,34.81,68.85,21.56,16.94,50.3,26.27,80.91,26.27,76.17,0,156.53-30.87,220.46-84.68A343,343,0,0,0,947,1036.81c13.64,7,27.41,14.25,41.3,21.53q17.21,9,34.51,18a239.08,239.08,0,0,0-23.59,103.2c0,49,23.05,98.39,74.56,98.39,37.42,0,70.25-27.65,70.25-59.17,0-18.7-17.94-31.27-34.69-31.27-10.62,0-19.76,5.46-24.44,14.59a24.42,24.42,0,0,0-2.77,11.11,20.24,20.24,0,0,0,3.72,11.91l1-.71a19,19,0,0,1-3.49-11.19,23.25,23.25,0,0,1,2.63-10.56c4.47-8.72,13.2-13.93,23.36-13.93,15.52,0,23.63,14.1,23.63,28,0,31.38-28.21,60-59.19,60-50.66,0-73.34-48.8-73.34-97.17,0-35.88,8.61-70.62,23.9-102.41,90.1,46.66,180.68,89.52,255.16,89.52,47.61,0,88.27-10.9,117.57-31.52,31.72-22.32,48.49-55.4,48.49-95.65a91.68,91.68,0,0,0-2-19.14c59.07-11.7,115.27-36.13,161.08-70.91,70.27-53.34,109-125,109-201.89,0-64.14-29.57-118.86-85.52-158.24A275.28,275.28,0,0,0,1581.14,563a346.79,346.79,0,0,1,38-58.83c28.72-35.83,62.47-62.63,97.93-78.57l.65-.28c13.93,34.36,42.07,60.45,83.53,60.54h.2c24.34,0,49-13,49-37.87v-.22C1850.41,421.3,1821.1,407.46,1792.14,407.46Zm11.65-189.39h.08c18.68.07,21.48,15.46,21.48,24.64,0,49.53-46.26,96.48-97.23,100.78,7.75-55.55,33.4-125.42,75.63-125.42Zm-2.41,266.54h-.1c-44.83-.07-63.69-31.47-71.16-64.24,21-7.63,42-11.68,62-11.68h.08c28.28,0,56.89,13.48,57,39.17-.07,24.12-24,36.74-47.74,36.75h-.08Zm-301.25-65c0-20.2,6.1-58.55,17.76-92.76,13.5-39.6,30.37-61.4,47.51-61.4a15.49,15.49,0,0,1,12.9,6.11c4.77,6.17,6.34,16.31,6.34,27a168.85,168.85,0,0,1-2.47,26.7c-3.34,14-6.67,28.44-9.48,41.85-9.53,35-29,91.74-55.5,91.74C1500.13,458.79,1500.13,435.18,1500.13,419.56ZM623.63,985.88C651.09,968,688,957.36,722.23,957.36c62.06,0,138.7,35.16,220.91,77.47C880.23,1099,784.17,1139,694.43,1139c-58.74,0-118-24.14-118-78.07C576.42,1032.33,593.19,1005.67,623.63,985.88Zm-253-172c43.46-25.17,101-40.2,153.87-40.2,73.81,0,148.83,16.94,223.81,42.09-106.21,90.28-224.32,186.05-331,186.05-46,0-123.05-10.18-123.05-78.4C294.24,881.33,321.37,842.43,370.65,813.89Zm587.73,209.37c20.67-26.08,36-54.11,45.36-82.74,1.89-5.67,3.5-11.39,4.89-17.15,36.29,16.05,72,31.53,107.14,45.45a286.35,286.35,0,0,0-33.21,26.71,275,275,0,0,0-51.53,65C1007.31,1047.85,983,1035.18,958.38,1023.26Zm425-73.92c26.45,18.38,41.94,43.18,45.32,72.27-4.22.71-8.46,1.39-12.74,2a392.35,392.35,0,0,1-51.15,3.41h-.12c-70.4,0-147.49-28.24-233.52-66.38,42.54-26,92.28-41.34,144.31-41.34a230.65,230.65,0,0,1,57,7.18C1351.6,931.54,1368.91,939.26,1383.4,949.33Zm-350.8,112.06c20.54-36.11,49.87-67.72,84.88-91.91,86.44,34.15,169.16,58.71,247.23,58.71a404.38,404.38,0,0,0,64.14-5.18,107.1,107.1,0,0,1,.59,11c0,83.51-54.6,131.43-149.8,131.47h-.14c-55,0-127.77-39.5-212.07-85.23Q1050.25,1070.89,1032.6,1061.39Zm24.19-358.53c0,39.58-42.13,74.34-90.63,75.26a118.42,118.42,0,0,1-28.7-3.59c-16.09-4.28-29-12.34-38.59-24.11-8.84-10.86-14.76-24.89-17.74-41.68,44.15-32,84.25-53.72,117.08-53.8h.17C1034.41,654.95,1056.79,673.31,1056.79,702.86ZM462,613.23c0,17.23-3.54,41.38-11.07,63.65-26.73-1.66-30.79-31.9-30.79-50.13,0-20.17,6.44-50.17,24.2-50.17C457.34,576.58,462,596.32,462,613.23Z"/></svg>