<svg id="Layer_1" data-name="Layer 1" xmlns="http://www.w3.org/2000/svg" viewBox="0 0 1920 1000"><defs><style>.cls-1{fill:#fffcf8;}.cls-2{fill:none;stroke:#1a1a1a;stroke-miterlimit:10;stroke-width:12px;}</style></defs><title>correlate</title><rect class="cls-1" x="-8.17" y="-7.02" width="1936.35" height="1014.04"/><path class="cls-2" d="M263.54,375.93C179.64,406.54,205.28,537,283.08,537c128.15,0,95.72-284.27-41-284.27-226.43,0-163.49,493,52.41,493,133.59,0,139-205.85,139-205.85"/><path class="cls-2" d="M476,468.3s-42.46-7.25-42.46,71.58c0,60.62,36.86,134.65,90.5,134.65,109.28,0,79.69-306.78-27.34-306.78-31.88,0-50.52,33-50.52,66.53,0,61.3,54.87,117.38,110,117.38,103.06,0,89.58-190.49,74.63-206.45"/><path class="cls-2" d="M608.64,331.62C643,366,722.26,314.85,722.26,417.49c0,25.55-.26,106.64-.26,129.11,0,37.85,8.56,89.36,43.25,89.36,72.88,0,49.46-279,38-295.17"/><path class="cls-2" d="M784,328c34.37,34.37,116.83-6,116.83,67.84,0,41.79-2.93,115.68-2.75,159.15.13,33.22,7.41,67.47,37.31,67.47,40.9,0,52.42-68.9,52.42-68.9"/><path class="cls-2" d="M981.82,527.53c58.18,0,144.37-63.74,144.37-133,0-31.74-16.13-55.4-47.15-55.4-63.18,0-100.74,79.9-100.74,144.08,0,69,24.11,140.28,85.59,140.28,70.08,0,113.75-98.27,125.82-160.82"/><path class="cls-2" d="M1569.78,587.21c54.32,54.31,173.66-30,173.66-105.47,0-28.06-18.09-47-45.08-47-124.59,0-152.69,286.09-20.41,286.09,110,0,181.44-178.29,120.49-178.29"/><path class="cls-2" d="M1253.34,206.86c-21.51,63.41-64.19,233.82-72.43,315.66-4.24,42.07.15,104.77,39.13,104.77,35.53,0,52.87-54.73,52.87-54.73"/><path class="cls-2" d="M1602.33,255.52c-48.5,102.41-141.09,399.93-71.14,479.92"/><path class="cls-2" d="M1444.13,444.4c-33.44,52.65-67.32,212.27-6.22,212.27,41.94,0,72.11-85.36,75.8-107.65"/><path class="cls-2" d="M1322.53,639.84c-93.58,0-47.34-277.28,55.82-277.28C1475.77,362.56,1406.22,639.84,1322.53,639.84Z"/><path class="cls-2" d="M1484.94,382.34s101-34,198.31-5.89"/><path class="cls-2" d="M600.52,791.93c198.44-100.8,485.94-107,692.17-8.83"/></svg>