<?xml version="1.0" encoding="iso-8859-1"?>
<!-- Generator: Adobe Illustrator 21.1.0, SVG Export Plug-In . SVG Version: 6.00 Build 0)  -->
<svg version="1.1" id="Layer_1" xmlns="http://www.w3.org/2000/svg" xmlns:xlink="http://www.w3.org/1999/xlink" x="0px" y="0px"
	 width="1920px" height="450px" viewBox="0 0 1920 450" enable-background="new 0 0 1920 450" xml:space="preserve">
<rect x="-8.173" y="-41.322" fill="#FFFCF8" width="1936.347" height="532.645"/>
<g>
	<path fill="#1A1A1A" d="M560.732,275.339c0.216-0.321,0.32-0.685,0.32-1.045c0-0.6-0.289-1.19-0.824-1.551
		c-0.858-0.577-2.018-0.354-2.597,0.504c-2.226,3.299-6.82,5.845-12.677,7.257h-21.843c-5.857-1.412-10.453-3.959-12.677-7.257
		c-0.579-0.858-1.741-1.082-2.597-0.504c-0.535,0.361-0.824,0.95-0.824,1.551c0,0.36,0.104,0.724,0.319,1.045
		c3.181,4.714,5.092,15.273,5.742,27.021v18.405c-0.65,11.748-2.561,22.307-5.742,27.021c-0.215,0.321-0.319,0.685-0.319,1.045
		c0,0.6,0.289,1.19,0.824,1.551c0.858,0.577,2.017,0.353,2.597-0.504c2.225-3.299,6.82-5.845,12.677-7.257h21.843
		c5.857,1.412,10.451,3.959,12.677,7.257c0.361,0.536,0.951,0.824,1.552,0.824c0.36,0,0.724-0.104,1.045-0.32
		c0.535-0.361,0.824-0.95,0.824-1.551c0-0.36-0.104-0.724-0.32-1.045c-3.181-4.714-5.092-15.274-5.742-27.023v-18.401
		C555.64,290.613,557.551,280.053,560.732,275.339z"/>
	<path fill="#1A1A1A" d="M252.938,127.028c0.202-0.297,0.308-0.516,0.351-0.611c0.387-0.88,0.044-1.91-0.792-2.383
		c-0.836-0.474-1.896-0.232-2.449,0.551c-0.027,0.039-0.118,0.172-0.257,0.413c-0.533,0.699-3.261,3.527-12.526,3.527
		c-14.338,0-23.516-6.555-33.233-13.495c-10.128-7.234-20.602-14.715-37.29-14.715c-12.566,0-25.411,3.854-37.834,7.582
		c-10.748,3.226-20.9,6.273-29.433,6.273c-11.847,0-17.694-4.022-23.787-10.968c-0.341-0.388-0.807-0.601-1.285-0.632
		c-0.478-0.031-0.967,0.12-1.354,0.46c-0.203,0.178-0.353,0.393-0.46,0.623c-0.035,0.078-0.039,0.161-0.063,0.242
		c-0.049,0.16-0.098,0.317-0.103,0.484c0,0.02-0.012,0.038-0.012,0.058c0,0.131,0.042,0.258,0.069,0.387
		c0.016,0.076,0.015,0.153,0.041,0.228c0.077,0.221,0.19,0.432,0.354,0.619c14.656,16.703,25.866,31.918,25.866,62.582v112.176
		c0,30.665-11.209,45.88-25.866,62.583c-0.164,0.187-0.277,0.397-0.354,0.618c-0.026,0.074-0.025,0.151-0.041,0.228
		c-0.027,0.129-0.069,0.256-0.069,0.386c0,0.02,0.012,0.038,0.012,0.058c0.005,0.166,0.053,0.323,0.102,0.483
		c0.025,0.081,0.028,0.165,0.064,0.242c0.107,0.231,0.256,0.445,0.46,0.623c0.186,0.164,0.398,0.278,0.619,0.355
		c0.069,0.024,0.141,0.022,0.211,0.038c0.134,0.03,0.265,0.071,0.402,0.071c0.02,0,0.039-0.012,0.06-0.013
		c0.163-0.005,0.316-0.053,0.472-0.1c0.085-0.025,0.172-0.029,0.252-0.066c0.23-0.106,0.444-0.255,0.622-0.458
		c6.093-6.946,11.94-10.968,23.787-10.968c8.533,0,18.685,3.047,29.433,6.272c12.423,3.728,25.268,7.582,37.834,7.582
		c17.006,0,27.732-7.518,38.106-14.787c9.357-6.556,18.192-12.749,31.071-12.749c10.751,0,14.11,3.277,14.227,3.393
		c0.016,0.019,0.031,0.036,0.044,0.05c0.048,0.054,0.1,0.104,0.153,0.151c0.001,0.001,0.002,0.002,0.003,0.003l0,0
		c0.696,0.612,1.752,0.623,2.465-0.001c0.766-0.672,0.854-1.835,0.195-2.613c-0.006-0.006-0.011-0.013-0.017-0.02
		c-0.164-0.209-5.713-7.643-5.713-39.778V167.08c0-0.073-0.034-0.135-0.042-0.206c0.008-0.071,0.042-0.133,0.042-0.206
		C247.275,138.791,251.981,128.774,252.938,127.028z M129.982,337.201c-11.019-3.306-21.427-6.429-30.508-6.429
		c-4.557,0-8.334,0.57-11.616,1.611c12.787-12.622,26.549-21.641,45.77-21.641c11.181,0,15.76,3.448,16.988,4.61
		c0.314,0.368,0.517,0.574,0.569,0.627c0.688,0.686,1.785,0.73,2.525,0.105c0.742-0.625,0.882-1.713,0.324-2.506
		c-0.035-0.049-0.214-0.296-0.579-0.668c-1.753-2.097-9.059-12.063-9.059-32.481V168.253c0-20.414,7.304-30.38,9.055-32.476
		c0.367-0.375,0.549-0.624,0.583-0.673c0.557-0.793,0.418-1.881-0.324-2.506c-0.742-0.624-1.839-0.58-2.525,0.105
		c-0.052,0.052-0.246,0.25-0.549,0.602c-1.223,1.169-5.796,4.636-17.009,4.636c-19.222,0-32.983-9.019-45.77-21.641
		c3.282,1.041,7.06,1.61,11.616,1.61c9.081,0,19.489-3.123,30.508-6.43c12.164-3.65,24.742-7.425,36.759-7.425
		c28.947,0,34.879,25.03,34.879,62.611c0,0.073,0.034,0.135,0.042,0.206c-0.008,0.071-0.042,0.133-0.042,0.206v114.935
		c0,37.573-5.928,62.599-34.857,62.611c-0.006,0-0.014,0-0.022,0C154.723,344.626,142.146,340.851,129.982,337.201z"/>
	<path fill="#1A1A1A" d="M478.99,321.2c-0.931-0.383-1.999,0.038-2.415,0.955c-0.096,0.208-0.657,1.41-1.769,3.174
		c-1.713,2.363-4.813,5.226-9.763,5.226c-17.303,0-19.172-30.083-19.172-43.017c0-29.409,6.091-46.937,6.152-47.111
		c0.342-0.966-0.159-2.024-1.122-2.377c-0.959-0.354-2.03,0.141-2.393,1.1c-0.206,0.548-5.296,13.408-26.358,13.408
		c-13.046,0-37.291-4.759-54.837-13.862c-0.969-0.572-1.924-1.147-2.862-1.726c3.303,0.874,6.955,1.387,11.012,1.387
		c43.272,0,78.475-34.715,78.475-77.386c0-24.553,5.984-40.169,6.045-40.323c0.303-0.78,0.048-1.664-0.62-2.169
		c-0.667-0.505-1.594-0.502-2.261,0.005c-0.049,0.036-4.952,3.672-14.52,3.672c-12.968,0-21.756-5.058-31.06-10.415
		c-10.268-5.91-20.885-12.021-37.8-12.021c-13.792,0-24.502,4.055-34.86,7.975c-10.554,3.996-20.523,7.77-33.754,7.77
		c-11.848,0-17.694-4.022-23.787-10.968c-0.341-0.388-0.807-0.601-1.285-0.632c-0.478-0.031-0.967,0.12-1.354,0.46
		c-0.203,0.178-0.353,0.393-0.46,0.623c-0.035,0.078-0.039,0.161-0.063,0.242c-0.049,0.16-0.098,0.317-0.103,0.484
		c0,0.02-0.012,0.038-0.012,0.058c0,0.131,0.042,0.258,0.069,0.387c0.016,0.076,0.015,0.153,0.041,0.228
		c0.077,0.221,0.19,0.432,0.354,0.619c14.656,16.703,25.866,31.918,25.866,62.582v114.455c0,0.022,0.012,0.04,0.013,0.062
		c-0.001,0.022-0.013,0.04-0.013,0.062c0,45.885-9.731,57.893-11.782,59.913c-0.361,0.289-0.57,0.477-0.626,0.529
		c-0.718,0.654-0.815,1.75-0.223,2.52c0.591,0.77,1.674,0.96,2.493,0.435c0.068-0.044,0.322-0.215,0.716-0.578
		c2.297-1.824,13.082-9.478,32.25-9.478c19.152,0,30.026,7.723,32.277,9.502c0.378,0.347,0.623,0.512,0.689,0.554
		c0.312,0.2,0.662,0.296,1.009,0.296c0.562,0,1.118-0.254,1.484-0.731c0.592-0.77,0.495-1.866-0.223-2.52
		c-0.057-0.053-0.269-0.243-0.638-0.54c-2.078-2.051-11.77-14.119-11.77-59.902c0-0.022-0.012-0.04-0.012-0.062
		s0.012-0.04,0.012-0.062v-53.363c3.607,3.849,8.326,7.278,13.703,10.27c2.481,1.503,5.036,2.961,7.573,4.409
		c13.992,7.983,27.208,15.524,27.208,28.802v31.164c0,28.252,13.655,44.455,37.462,44.455c23.628,0,36.336-14.15,41.384-21.591
		c1.799-2.286,2.602-4.378,2.673-4.57C480.381,322.635,479.921,321.584,478.99,321.2z M373.72,103.461c0.008,0,0.015,0,0.022,0
		s0.013,0,0.021,0c29.017,0.02,34.52,20.231,34.52,57.511c0,36.418-3.899,73.646-32.821,73.646c-11.899,0-20.011-4.629-25.435-10.01
		v-55.061c0-20.414,7.304-30.38,9.055-32.476c0.367-0.375,0.548-0.624,0.583-0.673c0.557-0.793,0.418-1.881-0.324-2.506
		c-0.742-0.624-1.838-0.58-2.525,0.105c-0.052,0.052-0.246,0.25-0.548,0.602c-1.223,1.169-5.796,4.636-17.009,4.636
		c-19.222,0-32.983-9.019-45.77-21.641c3.282,1.041,7.06,1.61,11.616,1.61c13.916,0,24.674-4.073,35.078-8.011
		C350.69,107.218,360.613,103.461,373.72,103.461z"/>
	<path fill="#1A1A1A" d="M1417.011,134.685c0-19.331,5.461-29.807,5.516-29.91c0.348-0.652,0.279-1.449-0.176-2.031
		c-0.455-0.582-1.211-0.845-1.925-0.666c-0.343,0.086-34.802,8.537-81.313,8.537c-46.51,0-80.969-8.451-81.312-8.537
		c-0.716-0.176-1.474,0.083-1.929,0.667c-0.454,0.584-0.521,1.382-0.171,2.033c0.055,0.103,5.515,10.477,5.515,29.908
		c0,54.342-15.548,82.651-15.705,82.93c-0.379,0.675-0.304,1.514,0.19,2.11c0.362,0.437,0.894,0.677,1.441,0.677
		c0.199,0,0.4-0.032,0.596-0.098c0.556-0.187,13.76-4.904,25.809-32.05c1.969-4.437,3.91-9.144,5.788-13.696
		c11.981-29.05,24.378-59.05,57.872-60.153c-0.37,17.459-5.681,30.945-10.837,43.991c-5.186,13.121-10.085,25.514-10.085,41.224
		v83.863c0,45.885-9.732,57.893-11.783,59.912c-0.361,0.29-0.569,0.478-0.626,0.53c-0.718,0.654-0.815,1.749-0.223,2.52
		c0.591,0.769,1.673,0.959,2.493,0.435c0.068-0.044,0.322-0.215,0.716-0.578c2.297-1.824,13.084-9.478,32.251-9.478
		c19.152,0,30.026,7.723,32.277,9.502c0.379,0.347,0.623,0.512,0.69,0.554c0.312,0.2,0.662,0.296,1.008,0.296
		c0.563,0,1.118-0.254,1.484-0.731c0.592-0.77,0.495-1.866-0.223-2.52c-0.057-0.053-0.27-0.243-0.639-0.54
		c-2.078-2.051-11.77-14.119-11.77-59.902v-83.863c0-15.709-4.899-28.102-10.085-41.224c-5.157-13.046-10.467-26.533-10.837-43.991
		c33.495,1.103,45.892,31.103,57.873,60.153c1.877,4.552,3.819,9.259,5.788,13.696c12.048,27.146,25.253,31.862,25.809,32.05
		c0.196,0.066,0.397,0.098,0.597,0.098c0.548,0,1.08-0.24,1.442-0.678c0.494-0.596,0.568-1.436,0.188-2.11
		C1432.558,217.336,1417.011,189.137,1417.011,134.685z"/>
	<path fill="#1A1A1A" d="M1615.675,304.869v-58.013c0-1.033-0.837-1.87-1.87-1.87s-1.87,0.837-1.87,1.87
		c0,76.852-87.748,85.149-125.475,85.149c-12.603,0-21.679,2.378-27.921,5.036c14.361-16.289,28.7-30.453,49.495-30.453
		c11.181,0,15.761,3.448,16.988,4.61c0.314,0.368,0.517,0.574,0.57,0.627c0.688,0.686,1.784,0.729,2.525,0.105
		c0.741-0.625,0.882-1.713,0.324-2.506c-0.034-0.049-0.214-0.296-0.579-0.668c-1.754-2.097-9.06-12.063-9.06-32.48v-50.91
		c45.5,1.505,46.11,56.929,46.112,59.321v0.001c0.001,1.032,0.838,1.868,1.87,1.868c1.005,0,1.824-0.792,1.868-1.786
		c0,0,0-0.002,0-0.006c0-0.007,0-0.015,0.001-0.023c0,0,0,0,0-0.001c0-0.009,0-0.018,0-0.027c0-0.001,0-0.002,0-0.003
		c0-0.008,0-0.016,0-0.024V159.889c0-0.008,0-0.016,0-0.024c0-0.001,0-0.001,0-0.002c0-0.015,0-0.031-0.001-0.046
		c-0.001-0.004,0-0.006,0-0.006c0-0.004,0-0.006,0-0.006c-0.044-0.994-0.864-1.786-1.868-1.786c-1.032,0-1.869,0.836-1.87,1.868
		v0.001c-0.002,2.484-0.609,60.031-46.112,61.593v-45.563c0.005-20.401,7.304-30.36,9.055-32.453
		c0.368-0.375,0.549-0.623,0.583-0.673c0.558-0.793,0.417-1.881-0.324-2.506c-0.742-0.624-1.837-0.58-2.525,0.105
		c-0.055,0.055-0.268,0.272-0.599,0.661c-1.262,1.195-5.822,4.577-16.958,4.577c-20.53,0-34.606-14.992-48.99-31.736
		c6.912,3.257,17.034,6.28,30.963,6.28c71.924,0,116.501,12.64,116.501,75.558c0,1.033,0.837,1.87,1.87,1.87s1.87-0.837,1.87-1.87
		v-53.845c0-24.406,6.178-31.602,6.224-31.654c0.378-0.402,0.559-0.949,0.496-1.498c-0.064-0.548-0.366-1.039-0.826-1.343
		c-0.378-0.25-9.462-6.119-27.358-6.119c-16.795,0-33.355,3.853-49.369,7.578c-16.023,3.728-32.592,7.583-49.408,7.583
		c-27.71,0-39.743-12.762-39.933-12.969c-0.084-0.093-0.193-0.142-0.29-0.215c-0.099-0.074-0.187-0.167-0.296-0.219
		c-0.112-0.053-0.234-0.063-0.353-0.093c-0.114-0.029-0.223-0.078-0.341-0.085c-0.111-0.006-0.219,0.029-0.329,0.042
		c-0.128,0.015-0.257,0.012-0.381,0.054c-0.108,0.037-0.2,0.116-0.302,0.174c-0.111,0.062-0.23,0.102-0.33,0.189
		c-0.003,0.003-0.004,0.007-0.007,0.01c-0.003,0.003-0.007,0.003-0.01,0.006c-0.045,0.04-0.061,0.097-0.101,0.14
		c-0.135,0.147-0.262,0.299-0.342,0.473c-0.039,0.086-0.045,0.178-0.07,0.268c-0.043,0.15-0.089,0.296-0.093,0.452
		c-0.001,0.02-0.012,0.039-0.012,0.06c0,0.123,0.042,0.243,0.066,0.364c0.017,0.085,0.017,0.17,0.046,0.253
		c0.06,0.169,0.161,0.322,0.271,0.472c0.033,0.045,0.044,0.099,0.081,0.142c0.008,0.009,0.016,0.019,0.024,0.028
		c17.388,19.831,25.842,42.717,25.842,69.961v100.336c0,26.617-7.977,47.58-25.866,67.969c-0.017,0.019-0.021,0.044-0.037,0.064
		c-0.138,0.171-0.247,0.355-0.316,0.552c-0.028,0.08-0.027,0.163-0.044,0.246c-0.024,0.123-0.066,0.243-0.066,0.367
		c0,0.019,0.011,0.038,0.012,0.057c0.005,0.176,0.053,0.342,0.107,0.511c0.022,0.068,0.024,0.139,0.054,0.205
		c0.106,0.236,0.255,0.456,0.463,0.638c0.187,0.164,0.398,0.278,0.619,0.355c0.03,0.01,0.062,0.007,0.092,0.016
		c0.171,0.05,0.345,0.093,0.521,0.093c0.02,0,0.039-0.012,0.06-0.013c0.147-0.004,0.284-0.051,0.426-0.09
		c0.099-0.027,0.202-0.031,0.296-0.074c0.226-0.103,0.435-0.25,0.612-0.446c0.099-0.11,10.214-10.98,36.38-10.98
		c17.136,0,32.824,2.94,49.434,6.052c16.937,3.173,34.451,6.455,53.92,6.455c21.693,0,31.441-7.124,31.845-7.427
		c0.821-0.615,0.985-1.788,0.376-2.615C1621.972,338.125,1615.675,329.293,1615.675,304.869z"/>
	<path fill="#1A1A1A" d="M1846.429,320.774c-0.932-0.385-2.001,0.041-2.415,0.96c-0.025,0.056-0.648,1.396-1.967,3.415
		c-1.758,2.309-4.819,4.982-9.563,4.982c-17.303,0-19.172-30.083-19.172-43.017c0-29.409,6.091-46.936,6.152-47.111
		c0.344-0.969-0.161-2.035-1.129-2.385c-0.968-0.347-2.036,0.151-2.39,1.117c-0.049,0.134-5.146,13.4-26.356,13.4
		c-13.043,0-37.281-4.757-54.826-13.856c-0.972-0.574-1.929-1.151-2.87-1.731c3.301,0.873,6.953,1.386,11.009,1.386
		c43.271,0,78.475-34.715,78.475-77.387c0-24.552,5.984-40.169,6.044-40.323c0.304-0.78,0.049-1.664-0.619-2.169
		c-0.668-0.505-1.594-0.502-2.261,0.005c-0.048,0.037-4.951,3.673-14.52,3.673c-12.968,0-21.756-5.059-31.06-10.415
		c-10.268-5.911-20.885-12.022-37.8-12.022c-13.792,0-24.503,4.055-34.86,7.975c-10.554,3.996-20.523,7.77-33.753,7.77
		c-11.848,0-17.694-4.022-23.789-10.968c-0.681-0.776-1.863-0.853-2.639-0.173c-0.203,0.178-0.353,0.393-0.459,0.623
		c-0.036,0.078-0.039,0.161-0.064,0.242c-0.049,0.16-0.097,0.317-0.102,0.484c0,0.02-0.012,0.038-0.012,0.058
		c0,0.131,0.041,0.258,0.069,0.387c0.016,0.076,0.015,0.153,0.041,0.228c0.077,0.221,0.191,0.432,0.355,0.619
		c14.656,16.703,25.866,31.918,25.866,62.582v114.455c0,0.022,0.012,0.04,0.012,0.062c0,0.022-0.012,0.04-0.012,0.062
		c0,45.885-9.732,57.893-11.783,59.912c-0.361,0.29-0.569,0.478-0.626,0.53c-0.718,0.654-0.815,1.749-0.223,2.52
		c0.591,0.769,1.673,0.959,2.493,0.435c0.068-0.044,0.322-0.215,0.716-0.578c2.297-1.824,13.084-9.478,32.251-9.478
		c19.152,0,30.026,7.722,32.277,9.502c0.379,0.347,0.623,0.512,0.69,0.555c0.312,0.2,0.662,0.296,1.009,0.296
		c0.563,0,1.118-0.254,1.484-0.731c0.592-0.77,0.495-1.866-0.223-2.52c-0.057-0.053-0.27-0.243-0.639-0.54
		c-2.078-2.051-11.77-14.119-11.77-59.902c0-0.021-0.011-0.039-0.012-0.061c0-0.022,0.012-0.041,0.012-0.063v-53.361
		c3.611,3.853,8.335,7.284,13.719,10.278c2.476,1.5,5.024,2.954,7.556,4.399c13.992,7.983,27.208,15.525,27.208,28.803v31.163
		c0,28.252,13.654,44.456,37.462,44.456c23.63,0,36.338-14.153,41.385-21.594c1.799-2.285,2.6-4.376,2.672-4.568
		C1847.823,322.21,1847.362,321.157,1846.429,320.774z M1741.184,103.037c0.007-0.001,0.012-0.003,0.021,0
		c29.017,0.02,34.519,20.231,34.519,57.511c0,36.418-3.899,73.647-32.82,73.647c-11.899,0-20.011-4.629-25.435-10.01v-55.062
		c0-20.414,7.304-30.38,9.055-32.476c0.368-0.375,0.549-0.624,0.583-0.673c0.558-0.793,0.417-1.881-0.324-2.506
		c-0.742-0.624-1.839-0.579-2.525,0.105c-0.052,0.052-0.247,0.25-0.549,0.602c-1.222,1.169-5.796,4.636-17.009,4.636
		c-19.222,0-32.984-9.019-45.771-21.641c3.282,1.041,7.06,1.611,11.617,1.611c13.915,0,24.673-4.073,35.077-8.011
		c10.505-3.977,20.428-7.734,33.537-7.734C1741.17,103.037,1741.176,103.037,1741.184,103.037z"/>
	<path fill="#1A1A1A" d="M1011.703,306.217v-58.014c0-1.033-0.838-1.87-1.87-1.87s-1.87,0.837-1.87,1.87
		c0,76.852-87.748,85.149-125.474,85.149c-12.604,0-21.68,2.378-27.921,5.037c14.361-16.289,28.7-30.454,49.494-30.454
		c11.181,0,15.761,3.448,16.988,4.61c0.314,0.368,0.517,0.574,0.57,0.627c0.688,0.686,1.783,0.73,2.525,0.105
		c0.74-0.625,0.882-1.713,0.323-2.507c-0.034-0.048-0.214-0.295-0.579-0.668c-1.754-2.096-9.059-12.062-9.059-32.479v-50.91
		c45.499,1.505,46.109,56.929,46.111,59.321v0.001c0.002,1.032,0.838,1.868,1.871,1.868c1.004,0,1.823-0.792,1.868-1.786
		c0,0,0-0.002,0-0.006c0.001-0.007,0.001-0.015,0.001-0.023c0,0,0,0,0-0.001c0-0.009,0-0.018,0-0.027c0-0.001,0-0.002,0-0.003
		c0-0.008,0-0.016,0-0.024V161.236c0-0.008,0-0.016,0-0.024c0-0.001,0-0.001,0-0.002c0-0.015,0-0.031,0-0.046
		c-0.002-0.004-0.001-0.006-0.001-0.006c0-0.004,0-0.006,0-0.006c-0.045-0.994-0.864-1.786-1.868-1.786
		c-1.033,0-1.869,0.836-1.871,1.868v0.001c-0.002,2.484-0.608,60.031-46.111,61.593v-45.563c0.005-20.401,7.305-30.36,9.055-32.453
		c0.368-0.375,0.549-0.623,0.583-0.673c0.558-0.793,0.417-1.881-0.323-2.506c-0.742-0.624-1.838-0.58-2.525,0.105
		c-0.052,0.052-0.247,0.249-0.549,0.602c-1.223,1.168-5.796,4.635-17.01,4.635c-20.53,0-34.606-14.992-48.99-31.735
		c6.912,3.257,17.034,6.28,30.963,6.28c71.924,0,116.501,12.64,116.501,75.558c0,1.033,0.838,1.87,1.87,1.87
		c1.032,0,1.87-0.837,1.87-1.87v-53.845c0-24.406,6.178-31.602,6.224-31.654c0.378-0.402,0.559-0.949,0.496-1.498
		c-0.064-0.548-0.366-1.039-0.826-1.343c-0.379-0.25-9.462-6.119-27.357-6.119c-16.796,0-33.355,3.853-49.37,7.578
		c-16.022,3.728-32.591,7.583-49.407,7.583c-27.711,0-39.744-12.762-39.933-12.969c-0.088-0.097-0.201-0.15-0.302-0.224
		c-0.095-0.069-0.178-0.159-0.282-0.209c-0.125-0.06-0.261-0.074-0.395-0.104c-0.101-0.023-0.195-0.068-0.298-0.074
		c-0.127-0.007-0.25,0.03-0.377,0.048c-0.112,0.016-0.225,0.011-0.333,0.047c-0.116,0.039-0.215,0.122-0.323,0.185
		c-0.104,0.06-0.216,0.096-0.31,0.178c-0.003,0.003-0.004,0.007-0.008,0.01c-0.003,0.003-0.007,0.003-0.01,0.006
		c-0.045,0.04-0.061,0.097-0.101,0.14c-0.136,0.147-0.262,0.299-0.342,0.473c-0.039,0.086-0.045,0.178-0.07,0.268
		c-0.044,0.15-0.09,0.296-0.094,0.452c-0.001,0.02-0.012,0.039-0.012,0.06c0,0.123,0.041,0.243,0.066,0.364
		c0.017,0.085,0.017,0.17,0.046,0.253c0.06,0.169,0.161,0.322,0.271,0.472c0.033,0.045,0.044,0.099,0.081,0.142
		c0.009,0.009,0.017,0.019,0.025,0.029c17.389,19.831,25.842,42.716,25.842,69.96v100.336c0,26.593-7.963,47.542-25.815,67.912
		c-0.014,0.015-0.027,0.031-0.041,0.046c-0.001,0.001-0.004,0.004-0.004,0.005c-0.001,0-0.001,0-0.001,0.001
		c-0.002,0.002-0.004,0.004-0.005,0.006c-0.018,0.02-0.022,0.046-0.039,0.066c-0.137,0.171-0.246,0.354-0.315,0.551
		c-0.027,0.077-0.026,0.157-0.043,0.237c-0.026,0.127-0.068,0.251-0.068,0.38c0,0.02,0.012,0.038,0.012,0.058
		c0.005,0.162,0.053,0.316,0.1,0.472c0.025,0.084,0.029,0.17,0.066,0.251c0.096,0.209,0.237,0.398,0.413,0.565
		c0.017,0.016,0.022,0.038,0.04,0.054c0,0.001,0.002,0.001,0.002,0.002c0.002,0.001,0.003,0.004,0.004,0.005
		c0.186,0.162,0.394,0.276,0.613,0.353c0.074,0.026,0.151,0.024,0.226,0.04c0.131,0.028,0.26,0.07,0.393,0.07
		c0.018,0,0.034-0.01,0.052-0.011c0.177-0.005,0.348-0.054,0.519-0.11c0.07-0.022,0.142-0.023,0.207-0.053
		c0.23-0.105,0.445-0.254,0.622-0.455c0.098-0.11,10.031-10.975,36.375-10.975c17.135,0,32.825,2.94,49.433,6.053
		c16.938,3.173,34.452,6.455,53.92,6.455c21.692,0,31.44-7.124,31.844-7.427c0.822-0.615,0.985-1.788,0.377-2.615
		C1017.999,339.471,1011.703,330.639,1011.703,306.217z"/>
	<path fill="#1A1A1A" d="M1219.13,114.309c-0.076,0.039-7.68,3.855-17.501,3.855c-12.99,0-20.148-3.914-27.726-8.059
		c-8.432-4.611-17.151-9.379-34.044-9.379c-10.979,0-23.349,3.597-35.312,7.076c-11.459,3.333-23.307,6.779-33.301,6.779
		c-11.765,0-16.795-4.73-23.127-11.946c-0.681-0.776-1.864-0.853-2.639-0.173c-0.203,0.178-0.352,0.393-0.459,0.623
		c-0.036,0.078-0.039,0.161-0.064,0.242c-0.049,0.16-0.097,0.317-0.102,0.484c-0.001,0.02-0.013,0.038-0.013,0.058
		c0,0.131,0.042,0.258,0.07,0.387c0.016,0.076,0.014,0.153,0.04,0.228c0.077,0.221,0.191,0.432,0.355,0.619
		c0.006,0.007,0.013,0.015,0.02,0.022c15.454,17.621,20.167,32.244,20.167,62.561v107.722c0,46.811,28.913,74.758,77.342,74.758
		c1.433,0,2.849-0.042,4.256-0.107c10.87-0.416,19.87-2.438,27.321-5.853c23.842-9.714,39.561-30.426,39.561-55.575
		c0-7.394-0.94-15.539-1.935-24.162c-1.034-8.964-2.104-18.232-2.104-26.953c0-1.033-0.837-1.87-1.87-1.87
		c-24.498,0-28.095,27.577-31.572,54.246c-3.625,27.794-7.372,56.534-33.656,56.534c-29.264,0-31.688-30.777-31.688-65.065V167.683
		c0-20.414,7.304-30.38,9.056-32.476c0.368-0.375,0.549-0.624,0.583-0.673c0.558-0.793,0.417-1.881-0.324-2.506
		c-0.741-0.624-1.838-0.58-2.525,0.105c-0.052,0.052-0.247,0.25-0.549,0.602c-1.222,1.169-5.796,4.636-17.009,4.636
		c-18.499,0-28.834-8.338-40.053-20.737c3.058,1.072,6.604,1.685,10.917,1.685c10.526,0,22.635-3.521,34.345-6.926
		c11.712-3.406,23.823-6.928,34.268-6.928c30.053,0,35.552,17.685,35.552,52.513c0,34.164-12.749,46.683-12.872,46.799
		c-0.505,0.473-0.709,1.185-0.529,1.853c0.18,0.667,0.714,1.182,1.388,1.336c0.38,0.087,4.513,1,10.321,1
		c7.533,0,17.885-1.538,26.51-8.409c10.253-8.169,15.451-21.815,15.451-40.561c0-26.643,5.982-42.185,6.042-42.339
		c0.284-0.723,0.09-1.547-0.485-2.068C1220.663,114.068,1219.823,113.957,1219.13,114.309z"/>
	<path fill="#1A1A1A" d="M810.95,313.403V206.405c0-1.033-0.837-1.87-1.869-1.87c-1.033,0-1.871,0.837-1.871,1.87
		c0,97.384-25.867,125.543-115.328,125.543c-9.267,0-16.056,1.261-20.987,2.916c14.5-15.34,28.719-26.118,48.915-26.118
		c11.182,0,15.761,3.448,16.988,4.61c0.315,0.368,0.517,0.574,0.57,0.627c0.688,0.685,1.784,0.73,2.525,0.105
		c0.741-0.625,0.882-1.713,0.323-2.506c-0.034-0.049-0.213-0.296-0.578-0.668c-1.74-2.081-8.936-11.92-9.049-32.013
		c0.04-0.153,0.094-0.301,0.094-0.467V166.046c0-45.885,9.732-57.894,11.783-59.913c0.362-0.29,0.569-0.478,0.626-0.53
		c0.718-0.654,0.815-1.75,0.222-2.52c-0.591-0.773-1.675-0.963-2.492-0.435c-0.069,0.044-0.322,0.215-0.716,0.578
		c-2.298,1.825-13.084,9.479-32.251,9.479c-19.15,0-30.024-7.722-32.276-9.503c-0.379-0.347-0.622-0.512-0.69-0.554
		c-0.818-0.526-1.901-0.333-2.492,0.435c-0.591,0.77-0.496,1.866,0.222,2.52c0.058,0.053,0.271,0.243,0.639,0.54
		c2.079,2.052,11.77,14.122,11.77,59.903v111.869c-0.05,0.168-0.105,0.335-0.105,0.519c0,27.979-8.964,44.302-24.481,62.32
		c-1.071,1.046-1.528,1.788-1.593,1.899c-0.051,0.088-0.079,0.181-0.114,0.273c-0.017,0.043-0.04,0.082-0.053,0.126
		c-0.056,0.18-0.09,0.363-0.09,0.546c0,0.026,0.009,0.051,0.01,0.077c0.002,0.044,0.012,0.085,0.017,0.128
		c0.02,0.18,0.066,0.354,0.137,0.521c0.018,0.041,0.029,0.082,0.05,0.122c0.098,0.191,0.229,0.363,0.391,0.513
		c0.014,0.013,0.019,0.031,0.033,0.043c0.029,0.025,0.065,0.033,0.095,0.056c0.065,0.05,0.121,0.108,0.193,0.151
		c0.045,0.027,0.096,0.027,0.142,0.049c0.128,0.061,0.255,0.103,0.39,0.134c0.097,0.022,0.19,0.045,0.288,0.051
		c0.042,0.003,0.083,0.022,0.125,0.022c0.071,0,0.136-0.036,0.205-0.043c0.143-0.016,0.278-0.039,0.413-0.087
		c0.103-0.036,0.194-0.085,0.29-0.14c0.128-0.072,0.242-0.156,0.351-0.259c0.046-0.042,0.105-0.06,0.147-0.108
		c0.004-0.005,0.009-0.01,0.013-0.015c0.49-0.559,0.972-1.099,1.46-1.65c2.729-2.487,10.459-7.478,28.54-7.478
		c16.096,0,31.632,3.505,46.656,6.895c15.164,3.422,30.843,6.959,47.224,6.959c24.17,0,33.804-7.132,34.203-7.436
		c0.469-0.357,0.736-0.918,0.732-1.506c-0.006-0.589-0.293-1.145-0.768-1.494C819.839,339.039,810.95,332.281,810.95,313.403z"/>
</g>
</svg>
