<svg id="Layer_1" data-name="Layer 1" xmlns="http://www.w3.org/2000/svg" viewBox="0 0 1920 1000"><defs><style>.cls-1{fill:#fffcf8;}.cls-2{fill:#1a1a1a;}</style></defs><title>faux</title><rect class="cls-1" x="-8.17" y="-7.02" width="1936.35" height="1014.04"/><path class="cls-2" d="M1493.52,536.61c70.13-115.8,143.4-240.17,198.74-235.55,0,0-7.77-53-61.88-53-57,0-109.95,98.36-164.21,197.88-12.38-53.29-20.06-109.55-23.87-161.42,14.65-32.47,23.46-56.91,23.46-66.61,0-23.93-43.38-47.16-76-47.16-12.06,0-14.67,8.61-14.67,22,0,32.93,1.33,75.94,4.76,123.81-61.32,101.82-146,234.16-172.07,234.16-39.41,0,72.13-211.54,72.13-266.33,0-35.73-70-53.89-70-53.89-.12.72-.27,1.51-.44,2.31-50.11,180.3-165.79,307.51-190.58,307.51-32.55,0,82.27-221.41,82.27-274.86,0-37.54-74.43-59.18-74.43-59.18-1.73,23.6-18,73.58-37.41,129.51-32.07,84.91-136.7,212.12-156.15,212.12-28.82,0,40.35-131.33,40.59-156.33.45-45.4-71-51.1-71-51.1-1,37.32-100.25,209.71-138.14,206-29.13-2.88-24.81-67.84-7.75-125.06,20.59-69,80.79-169.19,145.52-169.19,21.61,0,34.89,13.7,34.89,35.13,0,48.72,64,50.83,64,.74,0-60.61-50.67-94.27-108.76-94.27C688,193.81,598.42,290.47,563.13,399c-53-6.94-106.93-28.09-156.91-52,52.37-115.8,144.27-193.81,274.05-165.63C663.81,133.09,625.5,94,579.15,91.36,468.88,85.18,376,180.75,318.07,301.79c-19.16-10.11-37-19.35-52.93-26.66-51.85-23.76-51.25,57.15,15.53,93,2.75,1.48,5.6,2.89,8.49,4.28-22.77,66-35.37,134.93-35.37,196.37,0,129.76,41.61,338.92,159.32,338.92C491.93,907.71,517,776,517,693.72c0-123.38-29.2-207.55-64.48-264.25,32.88,9.51,66.88,16.65,98.9,16.83a292.86,292.86,0,0,0-4.34,49.34c0,31.61,6.14,88.18,24.7,109.94,13.31,15.6,46.79,41,67.63,41,27.35,0,68.35-49.31,106.92-106.92-6.64,24.7-9.8,43.73-5.72,51,10.18,18.26,43,48.76,63.84,48.76,31,0,79.25-56,121.52-114.31-6.8,25.42-9.76,44-6.27,51.06,10.89,22,48.58,54.61,67.85,54.61,35.88,0,85.37-53.56,129.55-113.55-8.69,34.9-12,61.7-5.17,71.53,10.19,14.62,50.36,51.52,73.15,51.52,48.93,0,137.35-130.11,201.91-246.68,5.55,49.13,13.38,100.23,24.19,148.79-42.53,68.23-86.91,118.27-135.56,107,0,0,11.59,79.33,57.73,79.33,28.3,0,63.57-41.68,101.84-99,31.55,92.91,78.54,161.31,147.58,161.31,48.82,0,109.52-92.57,109.52-133.42,0,0-20.18,18.68-55.06,18.68C1571.35,676.34,1524.83,617.33,1493.52,536.61ZM414.36,834.77c-44,6.23-59.69-172.51-59.69-231.56,0-65.28,9.38-132.13,27.93-193,32.16,63.52,61,162.06,61,311.34C443.59,749.29,437.59,831.49,414.36,834.77Z"/><path class="cls-2" d="M633.37,740.68c-53.46,53.46,11.18,158.2,11.18,158.2,115-147.21,486-139.15,544-78.66,13.64-9.17,26.88-32.22,26.88-50.3C1215.45,678.67,742.62,631.44,633.37,740.68Z"/></svg>