<svg id="Layer_1" data-name="Layer 1" xmlns="http://www.w3.org/2000/svg" viewBox="0 0 1920 1920"><defs><style>.cls-1{fill:#fffcf8;}.cls-2{fill:#1a1a1a;}</style></defs><title>jfs</title><rect class="cls-1" x="-20.92" y="-7.98" width="1959.28" height="1959.28"/><path class="cls-2" d="M336.3,1142c7.54-25.55,15-52.46,22.14-78.48,4-14.43,8-29,12.07-43.41l2.48-.34c9.72-1.34,18.9-2.6,27.15-4.07a72.25,72.25,0,0,0-2.06,17.62c0,10.33,2.36,17.8,7,22.21a13.42,13.42,0,0,0,9.28,3.92l-.07-1.25a12.39,12.39,0,0,1-8.38-3.6c-4.37-4.16-6.59-11.32-6.59-21.28a68.68,68.68,0,0,1,2.25-17.88c22.23-4.06,37.34-9.74,37.34-22.61a9.34,9.34,0,0,0-2.51-6.88,8.91,8.91,0,0,0-6.39-2.32c-8.57,0-23.68,9.47-29.53,30.75-8.36,1.5-17.73,2.79-27.67,4.16l-1.94.27c13.72-48.63,28.07-96,44-133.9a174.51,174.51,0,0,0,24.45,1.67h.13c28.91,0,54.47-5.48,77.19-16.72a189,189,0,0,0,35.62-22.11c28-21.86,53-52.7,76.09-94.1,115.8-7,230.09-14.55,294.28-26.64q16.71-3.15,32.36-7.34c-11.25,30-34.82,92.52-59.62,158.19C885,901.07,779,1133.4,715.84,1133.4c-20.71,0-29.54-12.06-29.54-40.33,0-46.11,14.38-115,35.78-171.4,24.74-65.21,54.2-102.61,80.83-102.61,18.4,0,22.26,20.07,22.26,36.9,0,33.93-25.05,96.23-66,96.23v1.25c20.72,0,42.62-11,60.06-30.18C836,904.85,846,881.64,846,861.15c0-26.55-18.48-43.7-47.07-43.7-32.95,0-68.1,28.42-96.43,78-19.61,34.3-33.52,74.24-39,110.31C636,1080.18,593.09,1183,565.83,1183h0c-9.78,0-11.09-9.82-11.09-19.41C554.72,1110,648,872.42,648.9,870l1.13-2.88-2.16,2.22c-.1.11-10.6,10.79-18.86,12.68s-20.2-.16-20.32-.18l-.5-.09-.19.47c-.48,1.2-31.17,77.71-53.23,149.08-25.77,73.06-70.49,187.18-98.42,187.18-9.47,0-11.46-9-11.46-16.54,0-55.47,92.88-292.23,93.81-294.61l.91-2.31-1.89,1.6c-.12.1-11.82,9.95-21,12.58-8.61,2.46-19,.05-19.09,0l-.53-.13-.19.51c-.73,1.93-73.22,193.8-73.22,253.59,0,30.87,11,46.52,32.69,46.52,26.11,0,65.1-92.83,91.43-164.91-8.9,31.33-15.15,59.78-15.15,77.9,0,24.8,10.38,51.5,33.17,51.51h0c27.56,0,69.2-98,96.79-172.15a206,206,0,0,0-1.66,25.38c0,64.48,18.47,97.17,54.89,97.17,28.14,0,67.25-43.46,116.24-129.18,24.71-43.24,45.8-86.85,56.9-110.63-37.61,99.58-75.83,200.65-76.54,202.51l-.7,1.85,1.63-1.11c.13-.09,13.2-8.93,22.9-12.29a93.11,93.11,0,0,1,22.39-4.27l.44,0,.12-.43c.32-1.1,28.79-98.83,55.67-196.19,13-41.44,48.77-138,98.75-138,14.62,0,21.16,14,21.16,27.89,0,29.17-10.74,66.28-27.37,94.54C995.87,889,982,903.71,966.88,912.71c-9.78-7.15-21.17-10.76-34.06-10.76-9.72,0-16.26,4.87-16.26,12.12s6.94,10.3,13.82,10.3a68.89,68.89,0,0,0,19.28-2.76q4.18-1.16,8.41-2.78c8.57,15.23,11.14,39.73,13.8,65.09.87,8.26,1.76,16.79,2.87,25,4.52,33.45,11.94,56.07,23.34,71.17,12.53,16.6,30.58,24.68,55.2,24.68,51.9,0,70.43-69.16,70.61-69.86l-1.21-.31c-.18.69-18.47,68.92-69.4,68.92-37.26,0-40.38-36.18-43.69-74.48-.79-9.11-1.6-18.54-2.91-27.38-4.2-28.46-10.82-50.17-20.22-66.37a74.06,74.06,0,0,0-17.79-21.23c16.48-8.42,33.19-21.81,48.74-39.35,25.49-28.77,42-62.88,42-86.89,0-24.82-18.8-42.16-45.71-42.16-33.67,0-60.55,42.88-77.17,78.85-6.08,13.17-11.27,26.38-15.48,38.13q1.84-6.72,3.65-13.38c8.06-29.67,15.35-58,21.78-83.05,4.69-18.26,8.87-34.53,12.41-47.58,36.54-10.15,68.2-24.46,92.87-42.1,31.22-22.33,48.42-48.52,48.42-73.73h-1.25c0,25.45-21.14,48.53-62.82,68.6-19.6,9.43-43.36,18.06-71.06,25.83.42-1.31.81-2.52,1.19-3.61a342.11,342.11,0,0,1,17.63-38.4c8.71-15.36,19.34-29.65,30.3-35.24l-.56-1.11c-11.54,5.82-21.92,19.61-30.92,35.94A262.25,262.25,0,0,0,965.81,691q-.38,1-.78,2.2-.9,2.28-1.77,4.52-32,8.89-70.89,16.21c-77.85,14.66-170.4,25.25-260.69,33.69l1-1.8c45.1-84.16,76.12-197.44,106.11-307,4.35-15.89,8.85-32.33,13.31-48.38,5.13-18.43,9.81-36,14.34-52.92,11.65-43.61,21.68-81.17,33-110.33q9.36-2,19-3.8h0q7.86-1.49,14.86-3.43c32.47-8.91,50.13-24.22,50.13-43.87,0-10.42-7.12-16.89-18.58-16.89a49.77,49.77,0,0,0-17.42,3c-22.3,7.71-44.51,30.21-66.27,67.18C733.59,239.07,672.4,253.8,619.71,278c-62.47,28.64-101.36,65.13-116.17,108.85a163.41,163.41,0,0,0-21.94-1.42c-61.72,0-118.71,32.21-160.45,90.71-38.1,53.38-59.95,123.13-59.95,191.37,0,40.46,8,78.83,22.84,111.87-6.81,1.13-13.47,2.45-19.94,4-56.34,13.2-104.27,41-139.9,81.38-41.31,46.82-63.14,107-63.14,173.92,0,75.91,37.76,154.1,102.47,172.35a101.34,101.34,0,0,0,29,4h.12c33.56,0,48.83-19.71,49-19.91l-1-.75c-.15.19-15.08,19.41-48,19.41h-.12a105.82,105.82,0,0,1-27.32-3.56C116.66,1196.43,93,1142.89,93,1047.62c0-100.93,29.25-223.32,161.5-260.49a307.63,307.63,0,0,1,30.13-6.61,210.91,210.91,0,0,0,24.2,40.56c23.39,30.53,53,50.8,87.14,59.94-23.17,41.34-43.23,92.75-60.55,143.23-39.31,7.12-79.72,19.63-103.76,51.25l1,.76c23.64-31.09,63.43-43.55,102.3-50.66-10.92,31.89-20.74,63.36-29.58,91.66q-2.74,8.78-5.36,17.15c-2.65,8.44-5.36,17.28-8.24,26.64-16.93,55.1-38,123.67-66.34,178-32.36,62-67.47,92.9-107.25,94.41-1,0-1.94.06-2.92.06h-.16v1.25h.16q2,0,3.91-.1c52.52-2.59,98.52-54.64,128.16-98.49C283.08,1283.23,315.52,1212.47,336.3,1142ZM430,984.89a7.7,7.7,0,0,1,5.52,2,8,8,0,0,1,2.13,6c0,11.9-14.41,17.34-35.72,21.28C407.69,994.65,421.47,984.89,430,984.89ZM833.09,218.7q-7,1.92-14.9,3.44h0l-.34.06c-5.55,1.05-11.51,2.18-17.84,3.41,13-33.1,27.71-55.11,48.46-62.47a51.55,51.55,0,0,1,16.37-2.73c10.69,0,17.34,6,17.34,15.65C882.16,194.85,864.49,210,833.09,218.7ZM439.23,885.34a173.58,173.58,0,0,1-23.85-1.64q1-2.33,2-4.62C441.73,823.19,467.43,796,495.94,796h0v-1.25h0c-38.18,0-71.06,35-99.34,85.11-30-8.32-54.27-26.06-72.3-53.11-9.34-14-16.83-30.36-22.39-48.66,76.82-9.53,185.25-16,290.22-22.24L612,754.65c-21.95,49.72-49.9,88.78-89.74,110.81-25.49,13.31-53.07,19.89-82.94,19.89h-.09ZM496.73,429c0,54.86,29.71,77.22,40.37,83.48a21.18,21.18,0,0,0,3.79,2l.44-1.17a34.76,34.76,0,0,1-3.7-1.95C530,506.46,513,490.87,513,448.57A163.74,163.74,0,0,1,522.67,392c68.2,19.84,79.57,90,79.57,134.48,0,42-11.4,87.21-30.51,120.88-16.2,28.54-45.6,62.57-93.69,62.57a107.83,107.83,0,0,1-19.8-1.81c-39.75-7.69-62.11-39.66-62.11-90.33,0-57.31,26.82-76.5,32.46-79.9.64-.37,1-.57,1-.59l-.55-1.12s-.4.2-1,.57C421.3,540.71,383,565.52,383,621.67c0,48.3,36.6,85.35,86.46,89.2q4.17.33,8.52.33H478c40,0,77.76-18.82,106.19-53,28-33.69,43.46-77.7,43.46-123.94,0-41.77-14.6-79.69-41.12-106.78a138.74,138.74,0,0,0-63.45-36.71c27.67-73.87,112.46-126.39,256.8-159.35q-1.85,3.2-3.7,6.54C753.32,279.28,731,336.5,709.77,408c-13.9,46.93-25.41,94.61-36.55,140.73-17.85,74-34.71,143.77-58.87,200.44-48.19,4.38-95.42,8.18-139.08,11.69-69.84,5.62-130.57,10.5-173.75,15.95-7.49-25.14-11.35-53.92-11.35-85.4,0-146.8,59.9-304.81,191.42-304.81A163,163,0,0,1,503.13,388,130.81,130.81,0,0,0,496.73,429ZM917.81,914.07c0-6.5,6-10.87,15-10.87,11.37,0,19.08,5.42,24.5,14.36a72.29,72.29,0,0,1-8.41,3,71,71,0,0,1-18.53,2.6C924.12,923.12,917.81,920.32,917.81,914.07Z"/><path class="cls-2" d="M1166,667.61a12.69,12.69,0,0,0,4.09.67,15.18,15.18,0,0,0,8.3-2.64,23.52,23.52,0,0,0,8.89-26.18,13.47,13.47,0,0,0-21-7.14,23.52,23.52,0,0,0-8.89,26.18A14.09,14.09,0,0,0,1166,667.61Z"/><path class="cls-2" d="M1313.37,1169.4c62.06,0,116.95-17.86,163.15-53.09,41.72-31.81,76.84-78.1,104.39-137.59.89-1.93,1.78-3.88,2.65-5.82,75.67-10.33,140.2-43,188.48-95.83,27.93-30.57,49.58-67.11,64.34-108.58,15-42.06,22.55-88.42,22.55-137.79,0-68.55-21.45-132-60.39-178.54-42.95-51.37-103.65-78.52-175.53-78.52-22.95,0-47.07,4-70.4,11.27-2.77-32.09-14.07-61.42-32.52-83.81-23.23-28.2-55.53-43.1-93.42-43.1-25.33,0-49.94,7.16-72.48,20.72-2.72-4.7-5.47-8.9-8.13-12.61-12.37-17.24-24.88-27-30.26-30.82a26.09,26.09,0,0,0-2.76-1.82l-.61,1.09s.64.38,1.73,1.11c3.73,2.6,13,10.15,22.17,26a140.75,140.75,0,0,1,10.17,22,188.57,188.57,0,0,0-42.12,40.07,221.23,221.23,0,0,0-18.3,27.54c-19.3,33.84-30,72.54-30,110.08h1.25s0-.09,0-.14h0a213.16,213.16,0,0,1,8.18-57.08c13.44-47.63,42.61-92.23,81.52-119,7.25,20.27,13.22,49,13.22,88.67,0,49.93-13.47,107.63-35.16,150.58-18.65,36.95-52,81-104.85,81.07H1220c-40.26,0-62.43-29.08-62.43-81.82,0-78,61.78-257.57,96.63-352.66a170,170,0,0,1,19.45-1.2c67.52,0,80.24,42.35,80.36,42.78l.36,1.29,7.41-10.85-.18-.34c-.19-.34-19.53-34.13-87.95-34.13a170.13,170.13,0,0,0-19,1.14c13.2-36,22.42-59.53,22.75-60.37h0l-1.16-.45,0,0A38.08,38.08,0,0,1,1253,129.27a37.52,37.52,0,0,1-17.77,1.24l-.52-.12-.2.5c-.26.65-7.17,18.21-17.21,45.74-38.37,9.59-81.21,26.27-123.12,42.59-51.71,20.14-100.56,39.15-137.17,43.45-67.59,7.94-97.51-23.52-97.8-23.84l-.92.85c.26.29,24.21,25.52,77.44,25.52a183.82,183.82,0,0,0,21.43-1.29c36.78-4.32,85.69-23.37,137.48-43.53,41.58-16.19,84.07-32.73,122.15-42.33-8.84,24.28-20,56.05-31.22,90.73-21.57,50.57-65.92,94-106,133-3.27-14.21-7.29-27.6-11.08-40.22-6.35-21.12-11.83-39.37-11.83-55.12,0-34.23,23.23-40.84,27.88-41.82,26.08-5.47,38.16,33.46,38.28,33.86l1.2-.33a84.59,84.59,0,0,1-2.24-17.91,58.62,58.62,0,0,1,2.23-14.92l.15-.48-.43-.25a43.92,43.92,0,0,0-20.17-5c-33.95,0-60.91,25.14-68.9,61.27-17.79,54.37-98.41,294.48-134.83,294.48h0c-9.78,0-11.09-9.82-11.09-19.41,0-53.56,93.24-291.17,94.18-293.56l1-2.63-2,2c-.1.1-10.63,10.07-18.89,12.07-9.44,2.3-20.2.46-20.31.44l-.5-.09-.19.47c-.48,1.19-30.67,76.48-52.7,147.36-27.31,76.67-71.91,188.9-99,188.9-9.47,0-11.46-9-11.46-16.54,0-55.47,92.88-292.23,93.81-294.61l.91-2.31-1.89,1.6c-.12.1-11.82,9.95-21,12.58-8.61,2.46-19,.05-19.09,0l-.53-.13-.19.51c-.73,1.93-73.22,193.8-73.22,253.59,0,30.87,11,46.52,32.69,46.52,25.42,0,64.52-92.26,92-166.88-9.19,32.11-15.71,61.37-15.71,79.86,0,24.8,10.38,51.5,33.17,51.51h0c36.1,0,111-219.3,133.3-287a107.46,107.46,0,0,0-.9,13.86c0,17.37,5.13,36.64,10.56,57,2.54,9.54,5.21,19.57,7.54,30.07C1015.17,466.31,987,501.14,987,537.79c0,22.14,12.4,38.21,29.48,38.21,45.91,0,69.92-59.81,69.92-118.9a243.72,243.72,0,0,0-6.48-53.93c37.77-36.72,79.45-77.4,102.46-124.35-23.55,74.12-46.18,159.16-46.18,212.28,0,53.28,22,115.49,83.8,115.54h.23c95.44-.17,158.76-137.27,158.76-228,0-44.48-11.67-76.85-24.07-98.7,21.46-13,45.59-20.69,71.47-20.74h.29c73.95,0,102.47,67.14,104.92,133.24a247.43,247.43,0,0,0-48.24,26.15C1440,449,1416.16,487.51,1416.16,527c0,23.55,13.69,38.77,34.88,38.77,66.71,0,102.25-96,102.25-165.3q0-7.25-.56-14.34c23.3-7.32,47.38-11.29,70.3-11.29h.1c128.39,0,205,100.53,205,268.8,0,74.2-15.15,138.31-43.27,189.85l-.39.71q-1.37,2.49-2.78,4.94l-.79,1.36q-1.32,2.27-2.67,4.5l-.87,1.43q-1.4,2.28-2.83,4.53l-.55.85c-42,65.15-107,107-189.72,119.45,45.17-101.51,61.84-221.57,66.69-321.48,19.44-54.09,32.43-102.94,32.43-125.37,0-13.07-4.33-19.69-12.87-19.69-16.81,0-19.13,36-19.13,74.91a675.4,675.4,0,0,1-4.71,78.26c-7.71,20.95-16.33,42.51-25.47,63.49-41.11,94.32-79.3,148.41-104.78,148.41h0c-23.33,0-25.14-32.15-25.14-42,0-38.91,14.24-107.29,33.85-162.6,14.06-39.65,42.74-106.17,76.74-106.17a28.53,28.53,0,0,1,10.49,1.93,31.27,31.27,0,0,1,3.48,1.67c9.19,5.28,14.91,16,14.91,29.52,0,26.13-18,41.12-49.44,41.12v1.25h0v12.08h0v1.25c27.93,0,50.65-24.94,50.69-55.62h0v-.08c0-13.25-4.85-35.48-37.34-35.48-33.85,0-66.58,28.29-92.15,79.67-11.9,23.92-21.46,51.62-27.6,78.81l-.06,0c-.65,2-66,202.66-108.83,202.66-7,0-10.35-5.24-10.35-16,0-28.92,23.19-86.35,43.65-137,18-44.59,35-86.71,35-105.43,0-23.63-15.53-39.5-38.64-39.5-25,0-53.6,38.27-85,113.76-7.22,17.36-13.77,34.79-19.37,50.6,12.39-43.82,22-83.44,22-100.61,0-21.06-8.94-32.65-25.17-32.65-31.19,0-66.9,93.85-101.44,184.61-32.23,84.69-65.55,172.27-92.15,172.27-9.51,0-11.51-7.59-11.51-14,0-60.59,93.43-296.92,94.38-299.31l.93-2.36-1.92,1.65c-.1.09-9.9,8.46-18.88,10.64a86.49,86.49,0,0,1-19.52,2.28h-.44l-.16.41c-.73,1.91-73.52,191.6-73.52,260.73,0,19,8,41.15,30.63,41.15,27.46,0,59.45-84.07,93.31-173.07,34.39-90.37,69.94-183.81,100.27-183.81,8.51,0,9.78,7.46,9.78,11.91,0,31.22-103.26,302.49-104.3,305.23L1193,971l1.52-.87c.14-.08,14.08-8.07,24.76-11a84.66,84.66,0,0,1,18-3.2h.43l.14-.41c.43-1.28,25.09-74.47,46.1-145.8,21.37-64.4,68.2-188.55,111.73-188.55,9.62,0,11.64,7.55,11.64,13.89,0,16.09-14.06,50.57-30.34,90.49-21,51.58-44.88,110-44.88,145.42,0,32,11.41,48.19,33.92,48.19,38.66,0,92.8-152.42,106.73-193.62A274.43,274.43,0,0,0,1467.3,777c0,22.73,4,45.28,10.86,61.88,8.76,21.07,22,32.2,38.28,32.2,36.92,0,86.37-104.31,105.92-149.16,8.45-19.37,16.44-39.26,23.69-58.69-17,136.71-69.83,257.27-94.07,311.37-4.54.26-9.1.43-13.73.52h-.13c-17.75.34-39.49-.44-62.5-1.28-43.65-1.58-93.12-3.37-138.44,1.27-52.64,5.39-89.1,18.5-111.47,40.08-17.39,16.77-26.21,39-26.21,66.19,0,27.71,11.47,50.55,33.18,66,11.38,8.13,25.25,14.08,41.05,17.73-9.3,28.48-19.25,60.42-28.51,93.11l-.1,0c-.66,2.07-66.7,206.68-107.8,206.68-8.16,0-13.22-7.33-13.22-19.14,0-27.37,20-79.1,39.39-129.12,17.34-44.79,33.71-87.1,33.71-107.27,0-31.3-18.59-53.34-48.74-59.69a77,77,0,0,0-18.87-1.88c-1.4,0-2.83,0-4.29.1,4-15,6.35-24,6.42-24.28l.1-.39-18.21-14.37.33,1.66c1.44,7.21.72,20.67-1.8,38.58-38,5.1-90.15,24.54-140.83,43.45-56.75,21.17-115.36,43-153.6,44.56,20.06-55.23,35.36-95.16,36.37-97.77l0-.12-1.17-.44-.05.14c-.75,1.92-9.95,24.4-29.55,29.23-12.1,3-19.52,1-19.59,1l-.55-.15-.2.54c-.31.83-9.63,26-22.59,63.41-19-5.51-30.36-15.42-37-24.19a59.77,59.77,0,0,1-11.73-28.51l-.07-1-11.46,6.32.13.47c0,.13,3.75,13.31,17.06,26.27,8.36,8.14,21.8,17.34,42.42,22.37-31,89.56-81.94,247.21-81.94,314.41,0,33.81,10.83,51.68,31.32,51.68,28.92,0,69.48-114.65,89.05-175.8-3.43,16.32-5.31,31.46-5.31,44.21,0,12.94,1.08,37.75,8.32,58.49,7.41,21.25,19.06,32,34.62,32,20.07,0,44.26-39.76,71.92-118.19,4.27-12.1,8.29-24.23,12-35.86-5.76,24.8-9.54,47.71-9.54,65.19,0,23.83,9.34,51.67,35.67,51.68H966c26.64-.07,62.63-67.24,107-199.63,22.95-68.51,42.29-137.63,52-173.7,1.57-.07,3.13-.12,4.63-.12a89.62,89.62,0,0,1,19,2c12.06,3.21,19.34,11.08,19.34,28.47,0,19.83-13.89,59.24-28.59,101-17.64,50.06-37.62,106.79-37.62,141.26,0,28.65,12.63,44.43,35.55,44.43,34.43,0,83.82-133.76,102-186.66-17.47,64.46-31.21,129.5-31.21,174.59,0,47.51,10.85,90.53,30.56,121.14,13.94,21.65,32.17,37,53.85,45.7q19.63,8.2,44.72,8.24h.32c48.71-.07,94.69-28.37,129.5-79.71a269.45,269.45,0,0,0,15.05-25.1,265.64,265.64,0,0,0,47.66,4.17,224.54,224.54,0,0,0,56.16-6.89c44.85-11.22,86-35.89,119.19-72.15a268.85,268.85,0,0,0,52.17-83.93,273.87,273.87,0,0,0,19-100.35c0-85.34-56.53-151.65-135-163.23a164.4,164.4,0,0,0-24.78-1.8c-46,0-89.91,21.68-123.78,61a211.56,211.56,0,0,0-41.87,75.91,84.34,84.34,0,0,0-38.09-8.72c-25.36,0-48.44,11.39-65,32.07-15.89,19.84-24.64,46.41-24.64,74.8,0,56.94,20.11,105.54,58.15,140.53,23.38,21.51,52.15,36.69,85,45.08a269.4,269.4,0,0,1-12.73,26.67c-20.1,36.63-56.53,80.28-115.92,80.36h-.32a118.17,118.17,0,0,1-46.07-8.91c-40-17.62-61.44-60.94-61.44-126.25,0-80.14,42.52-219,79-323.43C1310.26,1169.36,1311.8,1169.4,1313.37,1169.4ZM1670.53,506c7.71,0,11.62,6.21,11.62,18.44,0,21.79-12.35,68.7-31,121.12,1.06-23.27,1.48-45.4,1.48-65.89C1652.65,543.24,1654.77,506,1670.53,506ZM1551.4,975.9,1550,979c-39.5,88-102.08,189.08-236.52,189.15h-.13c-1.42,0-2.81,0-4.21-.07,26.93-77,50.46-134.9,51-136.26l-1.11-.55c-.13.21-12.9,21.32-31.39,25.18a40.28,40.28,0,0,1-15.4-.29l-.53-.13-.19.51c-.42,1.1-17.19,45.6-37.11,106.44-37.64-11-59.77-38.88-59.77-78.19,0-29.64,8.66-52.48,26.47-69.81,35.22-34.29,101.37-40.52,169.26-40.52,19.95,0,40,.54,59.55,1.06,24.24.65,47.13,1.26,68.21.85Q1544.82,976.24,1551.4,975.9ZM1417.41,527c0-39.11,23.67-77.25,66.66-107.39a246.16,246.16,0,0,1,47.57-25.85q.13,4.08.13,8.15c0,44.14-6.78,84.12-19.1,112.57-14.17,32.74-35.48,50-61.63,50C1426.25,564.56,1417.41,545.18,1417.41,527Zm-366.72-95c3.64,16.7,6.39,34.59,6.39,53.64,0,41.48-4.61,89.09-40.59,89.09-18.53,0-28.23-18.59-28.23-37C988.26,501.79,1015.94,467.37,1050.69,432ZM945.41,1383c-21,69.65-58.11,175.45-89.57,175.45-10.77,0-16.23-8.78-16.23-26.1,0-40.3,14.14-112.77,34.4-176.24,22.76-71.32,47.43-113.91,66-113.91,8.14,0,14.54,2.93,19,8.72,6.19,8,8.11,20.45,8.11,32.81,0,19.8-4.91,39.32-5,39.64l.6.16-.6-.15c-.1.4-1.87,7.38-5,18.71C953,1355.6,949,1369.41,945.41,1383Zm9.17,119.07c0-73.9,85.81-287.84,86.67-290l.91-2.26-1.88,1.54c-.13.1-12.65,10.31-22.93,13.83a25.81,25.81,0,0,1-18.35-.79l-.61-.31-.25.63c-.34.85-17,43.23-33.8,94.73a177.41,177.41,0,0,0,4.13-35.6c0-12.58-2-25.35-8.46-33.69-4.74-6.11-11.47-9.2-20-9.2-15.53,0-31.59,8.66-47.74,25.73-14,14.84-28,36.16-40.52,61.67a437.66,437.66,0,0,0-29.39,79.14c-16.4,52.84-62.51,192-93.18,192-10.26,0-12.42-11.35-12.42-20.88,0-54.14,59.8-228.12,100.48-340.24,38.44-1.37,97.41-23.37,154.5-44.66,50.48-18.83,102.41-38.2,140.21-43.34-5.21,36.17-17.58,89.93-34.38,147.18-28.87,98.39-61.42,175.8-87.08,207.08-9,11-17.29,16.6-24.56,16.61h0C956.5,1521.26,954.58,1513.58,954.58,1502.05Zm458.11-272.4a57,57,0,0,1,36.6,12.59,187.21,187.21,0,0,0-6.88,49.64c0,.07,0,.13,0,.2v.2a167.08,167.08,0,0,0,7.38,49.61,127.22,127.22,0,0,0,18.39,37.12,97.54,97.54,0,0,0,23.63,23.1c-1.9,41.33-10.72,82.36-25.16,117.68-87.21-22-142.34-90.66-142.34-184.5C1324.31,1275.06,1362.3,1229.65,1412.69,1229.65Zm228.19-126.47c32.4,4.92,57.86,20.07,75.87,45.23,20.73,29,31.25,70.41,31.25,123.21,0,145.69-84.08,248.86-206,255.33q-5.9.31-11.86.32h-.4a266.77,266.77,0,0,1-47.07-4.05,308.52,308.52,0,0,0,33.1-109.44,105.46,105.46,0,0,0,32.26,4.83h.14c32.61,0,63.46-14.86,86.85-41.84,21.78-25.12,34.27-57.45,34.27-88.69,0-41.73-17-63.24-31.2-73.94a71.77,71.77,0,0,0-29.64-13.11c-1-.18-1.52-.24-1.63-.24l-.12,1.24.47.06c2.28.34,12.71,2.33,23,11.67,10.72,9.72,23.5,29.63,23.5,69.26,0,66.74-36.26,134.3-105.58,134.34a105.7,105.7,0,0,1-32.21-4.78c.87-8.78,1.32-17.51,1.32-26.11,0-41.2-8.82-79.45-24.84-107.68-10.72-18.9-24.35-32.69-40.33-41,22-71.87,85.17-136.36,164.36-136.36A168.5,168.5,0,0,1,1640.88,1103.19Zm-166.49,174.3c11.65,26.83,17.8,64.09,17.8,107.75q0,7.78-.33,15.56c-33-22.83-48.21-66-48.21-108.91a183.55,183.55,0,0,1,6.82-48.67Q1464.68,1255.15,1474.39,1277.49Z"/><path class="cls-2" d="M1091.07,1518.09c-74.95,0-153.11,69.33-228.7,136.39-11.38,10.1-22.66,20.1-33.84,29.81-67.62-22.6-134.95-51.36-195.05-77l-12.13-5.18a299.29,299.29,0,0,0,7.36-64.78c0-59.68-13.22-105.73-24.88-146.36-4.52-15.73-8.92-31.08-12.4-46.54a125.31,125.31,0,0,0,21.22,2c25.59,0,51.2-9.18,70.24-25.2,20.13-16.92,31.22-39.74,31.22-64.24,0-30.75-21.37-54.78-51.3-59.74a67.68,67.68,0,0,0-11.52-.94h-.18a76.56,76.56,0,0,0-17.84,2c-49.36,11.55-71.69,71-71.69,130.05q0,2.87.07,5.74c-15.61-5.73-31.93-13.09-48.67-20.65-36.51-16.48-74.25-33.52-107.16-33.52-52.61,0-71.75,31.8-71.94,32.13l1.06.65c.14-.22,14.76-21.63,73.15-21.63,32.65,0,69.69,14.41,105.51,28.34,16.54,6.43,32.65,12.7,48.13,17.57,1.15,33.93,8.85,67,17,101.91,10.18,43.75,21.71,93.33,21.71,152.85,0,.49,0,1,0,1.48-23.56-10-46-19.3-66.93-27.36,10.59-22.76,16.36-47.16,16.36-70.64,0-41-13.21-77.73-37.2-103.54-24.92-26.81-59.75-41-100.72-41h-.2a155.57,155.57,0,0,0-25.86,2.12c-43.7,7.19-84.12,32.53-115.81,73.11-35.82,45.87-56.36,106.49-56.36,166.34,0,57.58,19.44,112.12,54.74,153.58,21,24.68,46.29,42.92,74.06,53.85,18.86,7.89,40,11.93,63,11.95h.49a179.2,179.2,0,0,0,86.86-22.7c20.51-11.23,39.71-26.48,57.07-45.46,19.24,20.36,51.56,38.87,105.51,38.87,73.77,0,138.92-39.82,197.95-88.68,61.57,19.07,122.69,32.09,178.13,32.09,41.47,0,79.91-11.58,108.23-32.6,30.21-22.43,46.19-53.09,46.19-88.68C1185.84,1553.58,1146.87,1518.09,1091.07,1518.09Zm-59.63,206.33c-55.07,0-115.78-12.89-177-31.79,25.87-21.49,50.58-44.69,74.31-67,60.75-57,113.21-106.31,162.3-106.31,55.07,0,93.53,35,93.53,85.05C1184.6,1683.19,1107.55,1724.42,1031.43,1724.42Zm-689.36,73.45c-61.47-26.57-97.6-94.33-97.6-189.74,0-68.54,13.59-130.87,38.26-175.5,26.25-47.5,63.35-74.25,110.43-79.72a164.11,164.11,0,0,1,18.54-1.05h.21c39.57,0,69.22,13.78,88.15,40.87,16.8,24,25.31,58.73,25.31,103.07a231.18,231.18,0,0,1-8.9,63.61c-37.52-13.73-69.26-22.51-92.5-22.51h-.08c-18.38,0-35.6,5.22-48.49,14.66-14.74,10.8-22.54,26.26-22.54,44.7,0,34.89,26.9,57.43,68.53,57.43h.18q3.46,0,6.83-.31c28.91-2.53,58.44-20.52,82-50.22a187.62,187.62,0,0,0,22.52-36.22c21.06,8.12,43.69,17.52,67.45,27.58-.64,56.11-20.22,107.2-51.88,145.57A108.74,108.74,0,0,1,537.28,1725c-17.11-27.71-17.92-55.81-17.93-56.09l-1.25,0c0,.28.81,28.67,18.08,56.67a110,110,0,0,0,11.51,15.46c-35.48,42.47-85.85,69.09-141.67,69.24h-.59A168.47,168.47,0,0,1,342.07,1797.87Zm324.27-598.73c21.94,5.33,32.66,23.56,32.66,55.28,0,52.54-36.32,90.68-86.37,90.68a107.68,107.68,0,0,1-21.6-2.39c-4.05-18.39-6.76-37-6.76-56.66,0-28.13,5.61-50.05,16.67-65.15A54.46,54.46,0,0,1,628.07,1201a75.17,75.17,0,0,1,23-3.5h.17A68.7,68.7,0,0,1,666.34,1199.14ZM421.39,1652.45c-33,0-54.31-21.8-54.31-55.53,0-35.7,22.33-58.77,56.88-58.77,23.09,0,54.73,8.77,92.15,22.46-14.4,48.73-45,87.82-88,91.55q-3.34.28-6.66.29Zm129.29,90q8.59-9.49,16.55-20.2c25.43-34.24,44.09-76,53.82-118.95l11.92,5.09c59.92,25.59,127,54.25,194.45,76.83-60.49,52.43-118,95.77-172.08,95.77C601.77,1781,569.72,1762.64,550.68,1742.46Z"/></svg>