<svg width="682" height="682" viewBox="0 0 682 682" fill="none" xmlns="http://www.w3.org/2000/svg">
<rect width="682" height="682" fill="#FFFCF8"/>
<path d="M408.183 48C283.844 48 96 149.436 96 232.271C96 270.811 132.366 353.111 172.341 353.111C216.461 353.111 262.453 301.055 273.55 285.264C274.619 283.792 273.015 281.784 271.277 282.454C253.896 289.68 189.989 308.281 138.783 288.877C162.581 230.933 254.164 169.108 339.997 138.195C345.746 146.893 350.158 160.945 350.158 183.293C350.158 298.646 265.662 535.508 168.598 535.508C156.966 535.508 148.543 531.226 144.131 528.148C142.794 527.211 140.922 528.416 141.19 530.021C144.799 550.897 161.913 634 205.765 634C392.674 634 586 428.184 586 235.884C586.134 140.47 509.258 48 408.183 48ZM315.798 526.274C359.918 433.537 386.791 303.196 386.791 227.453C386.791 172.185 369.812 146.09 352.03 134.047C382.914 123.876 412.595 117.988 437.462 117.988C507.653 117.988 553.11 159.74 553.11 223.974C553.11 330.629 432.248 483.184 315.798 526.274Z" fill="#1A1A1A"/>
</svg>
