<svg id="Layer_1" data-name="Layer 1" xmlns="http://www.w3.org/2000/svg" viewBox="0 0 1920 1920"><defs><style>.cls-1{fill:#fffcf8;}.cls-2{fill:#1a1a1a;}</style></defs><title>letter-c</title><rect class="cls-1" x="-20.92" y="-7.98" width="1959.28" height="1959.28"/><path class="cls-2" d="M1476.91,128.45c-28.11,0-65.24,25.63-106.38,67.56l.19-.13c14.79-9.59,29.85-18.72,45.48-26.78a342.39,342.39,0,0,1,34-15.14,1.11,1.11,0,0,1,.95,2,337.53,337.53,0,0,0-31,19.6c-14,10-27.32,21-40.23,32.34s-25.22,23.38-37.21,35.64c-9.91,10.2-19.77,20.78-28.94,31.39a8,8,0,0,1-11.59.51h0Q1287,295,1271.61,316.24c-58.32-87.4-145.7-153.77-234.7-155.4,0,0,70.23,23.76,55.07,23.76-46.78,0-100.1,13.32-137.68,28.73-29,11.89-63.06,30.84-89.37,48.18a752,752,0,0,0-75.49,57.14c-23.91,20.72-46.64,42.8-68.56,65.71-43.35,46.28-82.89,96.2-119,148.53S533.22,640,503.06,696c28.92-56.71,60.45-112.15,95.36-165.5S672,426.25,714.7,378.65c21.58-23.57,44-46.38,67.79-67.89a763.38,763.38,0,0,1,75.39-59.71,574.13,574.13,0,0,1,66.75-40,427.22,427.22,0,0,0-43.52,20.44c-48.68,26.46-93.09,61.3-134,99.68s-78.44,80.86-113.27,125.32A1577.26,1577.26,0,0,0,537.09,595.9,1796.78,1796.78,0,0,0,386.61,900.52C366.51,953.6,349.17,1007.78,335.8,1063s-22.63,111.57-23.59,168.51c-.3-56.94,7.81-113.71,19.91-169.35s28.38-110.46,47.4-164.21A1808.18,1808.18,0,0,1,524.15,588.09a1594.54,1594.54,0,0,1,94.68-143c34.32-45.86,71.5-89.77,112.57-130.19s86.1-77.37,136.87-106.46a425.69,425.69,0,0,1,80.52-35.75c2.84-.9,5.7-1.73,8.56-2.55C614.06,252.67,282.57,865.77,282.57,1259.7c0,178,127.69,415,301,415a185,185,0,0,0,39.78-4.66c38.25,54.06,100.3,121.49,171.86,121.49,22.51,0,68.9-20.29,65.56-19.6a237.56,237.56,0,0,1-58.61,5.3,182.12,182.12,0,0,1-29-3.75c-9.48-2.2-8.85-4.65.58-3.73a176.48,176.48,0,0,0,28.29-.07,226.3,226.3,0,0,0,54.73-12.32,335.76,335.76,0,0,0,51-23.12,378.56,378.56,0,0,0,40.74-26,6.87,6.87,0,0,1,9.82,1.66h0c173.46-143.19,380.75-441.79,445.5-625.22q-13,20.47-26.07,40.85-50.61,78.56-104.13,155.19c-35.8,51-72.73,101.21-111.83,149.72-19.6,24.21-39.73,48-60.77,71s-22.87,21.19-2.83-2.5,39.1-48.21,57.63-73.09c37-49.86,71.68-101.33,105.25-153.52s65.91-105.18,97.38-158.66q33.33-56.7,65.41-114.18.32-4.94.32-9.58c0-25.19.42-46.38,2.79-64.88l-87.23,119a.36.36,0,0,1-.6-.39l128.64-224.45c-4.1-5.29-10.27-8.84-13.79-10.57-14.9,26-30.16,51.78-45.66,77.44q-32,52.9-65.5,104.86-66.95,103.93-140.63,203.29c-24.76,32.94-50,65.49-76.29,97.25s-53.47,62.73-81.73,92.71c-28.47,29.78-58.07,58.52-89.42,85.24s-32.21,25.52-1.37-1.59,59.85-56.34,87.73-86.52c27.68-30.38,54.2-61.78,79.91-93.82s50.29-65,74.41-98.25q50-69.44,96.36-141.36C1165,1222,977.43,1444.17,783.75,1546.9a348.19,348.19,0,0,1-32.6,16,289.54,289.54,0,0,1-34.74,12.32,287.34,287.34,0,0,0,32.87-16.08c9.39-5.41,18.54-11.19,27.36-17.43-9.76-27.06-27.38-60.29-41.64-77.44-5.25,4.42-10.48,8.62-15.83,12.84q-10.9,8.55-22.22,16.52c-7.54,5.3-15.24,10.39-23.24,15s-10.86.42-4.65-6,12-13.18,17.6-20.11c1.14-1.41,2.24-2.85,3.36-4.27-39,32.62-92.25,65.72-133.49,65.72-58.18,0-75.74-77.54-75.74-136.76,0-268.95,269.63-816.7,542.66-969q-4.73,2.52-9.4,5.16a542,542,0,0,0-64,42.88,757.54,757.54,0,0,0-58.53,50.26A1091.59,1091.59,0,0,0,787.89,651.06a1474.45,1474.45,0,0,0-89.35,126.27c-27.9,43.42-53.53,88.31-77.42,134.08C597,957.1,575.33,1004,555.3,1051.65c-19.79,47.71-37.66,96.29-52.28,145.88s-26.27,100.14-32.2,151.73c2.21-51.92,11.66-103.42,24.25-153.91a1279.71,1279.71,0,0,1,48.07-148.59c37.76-97.13,85.43-190.36,141.24-278.45,28.2-43.85,58.26-86.58,91.12-127.16S843.72,561.93,882.61,527c38.74-35,81-66.61,127.55-90.77,23.34-11.83,47.7-21.79,72.95-28.61a269,269,0,0,1,77.31-9.45h0c17.93,0,34.67,3.25,49.17,9.54-111.44,174.29-209,380.72-209,463.34,0,32,18.45,58.14,40.17,77.91a144.76,144.76,0,0,1-9.65-26.2,125.92,125.92,0,0,1-3.75-42.71,122.05,122.05,0,0,0,10.87,40.18,143.15,143.15,0,0,0,22.39,34.05,190.54,190.54,0,0,0,29.75,27.37c2.45,1.84,5,3.61,7.48,5.33,7.29,3.58,11.92,5.44,11.92,5.44.09-2.69.31-5.36.59-8,7.63-61.59,97.45-193.74,204-318.73,21.48-22.81,43.58-45,66.5-66.28,23.59-21.94,48-43,73.33-62.58s51.66-37.84,79.28-52.89c13.8-7.47,84.74-57.48,84.74-57.48a135.13,135.13,0,0,0-27.29,3.71,200.5,200.5,0,0,0-25.07,8,319.7,319.7,0,0,0-45.48,22.77c-6.5,3.88,99.58-79.6,132.9-79.6C1689.52,381.27,1545.61,128.45,1476.91,128.45ZM481.38,1610.28c5.71,5.22,20.54,1.79,27.94,4l-2.21,8.57q2.82.65,5.53,1.41l5.44,1.43c1.79.5,3.56,1.06,5.39,1.42,7.19,1.85,14.52,2.67,21.71,4.17,14.49,2.84,29.26,4.8,45.49,8l.23,1.66c-14.88,7.51-27.43,6-44,4.27a89.74,89.74,0,0,1-24-6.85c-7.72-3.11-19.36-3.64-25.66-9.05A232.48,232.48,0,0,0,478,1614.55c-6.58-4.49-14.37-8-20.79-13.28a49.73,49.73,0,0,1-8.4-9,78.45,78.45,0,0,1-6.59-10.41c-3.8-7.28-6.73-15.14-7.17-23.75l1.55-.66c6.1,5.66,11.28,11.33,16.39,17,2.52,2.84,5.05,5.63,7.47,8.48a84.42,84.42,0,0,1,7,8.81C471.78,1597.92,475.58,1605.12,481.38,1610.28ZM1211.37,477c-3.11,6.15-6.34,12.2-9.74,18.14s-6.81,11.85-10.32,17.71S1184,524.4,1180.08,530c-8.08,11.05-17.32,21.5-24.62,33.11A222.68,222.68,0,0,0,1137.29,600l-3.84,9.57q-1.79,4.85-3.76,9.6c-2.56,6.36-5.47,12.54-8.18,18.81-5.34,12.58-10.8,25.07-16.53,37.44-2.91,6.16-6,12.23-9.11,18.33s-6.1,12.22-9.35,18.26c-6.6,12-12.71,24.32-20.46,36.07l-1.57-.59c1.12-6.91,2.61-13.71,4.25-20.47s3.39-13.49,5.56-20.07a380,380,0,0,1,14.36-39c5.33-12.77,12.11-24.87,18.63-37a358.37,358.37,0,0,1,21.89-35.27c3.92-5.72,7.75-11.47,11.35-17.34s7.1-11.79,10.22-17.93c6.45-12.15,11.07-25.41,17.38-37.74a163.88,163.88,0,0,1,10.56-17.82c3.77-5.78,7.88-11.36,12-16.9s8.56-10.89,13.3-16a149.06,149.06,0,0,1,14.91-14.77l1.35,1C1217.55,464.66,1214.49,470.86,1211.37,477Z"/></svg>