<svg id="Layer_1" data-name="Layer 1" xmlns="http://www.w3.org/2000/svg" viewBox="0 0 1920 1920"><defs><style>.cls-1{fill:#fffcf8;}.cls-2{fill:#1a1a1a;}</style></defs><title>letter-a</title><rect class="cls-1" x="-20.92" y="-7.98" width="1959.28" height="1959.28"/><path class="cls-2" d="M1697.51,770.69c-.5,2.29-51.44,229.4-163.8,229.4-63.74,0-70.63-72.86-70.63-104.18,0-50.42,12.44-99.35,25.6-151.15,14.12-55.55,28.72-113,28.72-176.39,0-123-58.64-224.06-169.57-292.18-96.64-59.35-231.05-94-378.48-94-146.61,0-323.8,61-462.43,159.31-72,51-131.71,112.87-172.68,175.09-45.56,69.19-69.64,140.8-69.64,212.84,0,98.8,62,204.29,195.23,226.69v0h.26a324.66,324.66,0,0,0,53.58,4.29c121.53,0,300.29-51.54,441.88-138.52,43.49-26.72,82.88-55.61,116.92-85.62C1168.58,652.46,1220,554.62,1220,471.24c0-69.37-22.62-127.22-65.43-167.3-43.38-40.62-106.75-62.09-183.25-62.09-131.84,0-293.77,56.7-422.59,148C482.74,436.61,427.84,490.94,390,547c-42,62.2-63.31,125.62-63.31,188.51,0,61.28,20.56,114,59.46,152.37,20.53,20.27,45.49,35.83,73.5,46.19l.12,14C332,925.78,272.48,824.41,272.48,729.42c0-135.94,85.51-272.69,239-381.49,137.36-97.37,312.81-157.86,457.87-157.86,183.74,0,290.92,94.78,305.55,264.5a385.3,385.3,0,0,1-2.66,66.69c-10.81,77.92-48.06,145.27-100.65,203.67-27.05,29.18-56.69,54.73-85.38,78.27-97.93,75.76-218.68,132.71-323.82,176.25q-25.19,10.43-50.5,20.77c-122.11,50-248.38,101.78-341.36,169.67-50.25,36.69-87.15,75.09-112.83,117.41-28.88,47.58-42.91,98.81-42.91,156.61,0,79.6,27.86,153.08,78.45,206.9,52.16,55.49,125.51,86,206.53,86,292.14,0,502.95-408.18,586.68-602.3l21.28-.09c-43.17,90.53-114.42,258.47-114.42,380.62,0,138.62,55.11,222.76,172.42,222.76,77.14,0,153.54-49.27,227.09-150.33,58.41-80.26,115.29-192.1,169-332.4,91.14-237.9,142.54-478.9,143.35-482.73v0ZM1257.26,651.8l-.13,0-.07.29v0c-23.22,101.67-58.14,194.22-98.34,260.64-45.35,74.92-95.88,114.52-146.13,114.52-35.15,0-56.13-22.85-56.13-61.13,0-47.82,49-87.4,111-137.51q11.5-9.3,23.41-19c34-26.29,65.36-54.86,92.43-85.9A465.84,465.84,0,0,0,1215.2,684c27.82-38.89,47-79.82,57.68-123.53A849.43,849.43,0,0,1,1257.26,651.8Z"/></svg>