<svg width="742" height="682" viewBox="0 0 742 682" fill="none" xmlns="http://www.w3.org/2000/svg">
<rect width="742" height="682" fill="#FFFCF8"/>
<path d="M548.562 642C505.157 642 463.802 630.217 422.136 606.031C386.244 585.193 354.079 557.72 323.031 531.115C292.48 504.882 265.407 477.533 233.241 459.052C218.587 472.944 201.635 486.091 187.228 494.959C161.21 510.96 134.758 519.022 108.553 519.022C68.1914 519.084 40 494.463 40 459.176C40 436.974 51.8602 418.059 73.4074 406.028C89.2417 397.16 109.857 392.26 131.405 392.26C164.998 392.26 194.183 400.633 221.629 412.602C222.312 411.858 222.933 411.113 223.616 410.369C238.085 394.121 253.795 374.09 267.642 354.74C251.559 352.88 234.98 350.399 219.704 345.624C194.556 337.748 171.953 326.275 152.455 311.577C109.733 279.267 86.1369 233.623 86.1369 183.017C86.1369 165.033 89.3659 147.42 95.7617 130.614C102.22 113.621 111.596 98.3031 123.581 85.2176C149.661 56.6901 186.359 41 226.845 41C251.746 41 274.783 47.5117 293.474 59.7289C310.798 71.0779 324.087 87.0781 331.911 105.993C343.15 133.094 341.722 162.614 328.992 186.614C322.659 198.583 306.514 201.002 296.951 191.39L296.889 191.328C290.679 185.126 289.189 175.575 293.287 167.761C300.491 154.18 301.174 137.125 294.591 121.373C284.159 96.3185 258.887 81.3106 226.845 81.3106C161.645 81.3106 126.437 133.714 126.437 183.017C126.437 268.6 209.769 318.647 291.487 320.197C305.955 298.368 321.976 272.631 335.947 250.429C367.492 200.32 397.297 153.001 427.724 116.97C465.106 72.6283 498.203 52.0389 531.92 52.0389C549.618 52.0389 565.576 58.3646 576.94 69.8996C587.931 81.1246 594.016 96.5046 594.016 113.311C594.016 144.939 584.391 176.754 565.452 207.762C548.562 235.421 524.158 262.026 494.912 284.724C441.571 326.151 376.495 351.454 316.139 355.857C298.007 382.4 277.826 409.563 258.39 431.951C290.617 451.734 320.547 475.796 349.36 500.479C410.089 552.511 467.465 601.689 548.562 601.689C616.246 601.689 661.7 564.17 661.7 508.293C661.7 452.912 608.919 407.826 544.091 407.826C494.415 407.826 467.527 429.966 458.958 450.68C454.736 460.912 454.549 471.145 458.213 479.827C461.38 487.269 459.455 495.952 453.742 501.657C443.559 511.828 426.358 508.355 420.832 495.083C413.194 476.789 413.256 455.517 421.639 435.238C429.773 415.579 444.863 398.834 465.23 386.927C487.212 374.028 513.726 367.516 544.091 367.516C586.875 367.516 626.74 382.214 656.298 408.819C670.642 421.718 681.881 436.85 689.767 453.657C697.902 471.021 702 489.378 702 508.231C702 546.805 686.166 581.472 657.415 605.783C643.568 617.504 627.113 626.558 608.608 632.698C590.104 638.899 569.923 642 548.562 642ZM132.895 431.951C111.348 431.951 80.3621 439.827 80.3621 459.176C80.3621 476.851 100.108 478.773 108.553 478.773C134.82 478.773 164.564 464.943 193.314 440.695C174.809 434.369 154.069 431.951 132.895 431.951ZM531.92 92.3495C511.305 92.3495 487.336 108.908 458.586 142.955C429.96 176.878 400.899 223.018 370.1 271.949C361.717 285.282 351.471 301.841 342.902 315.174C385.996 306.12 432.319 282.243 470.073 252.972C523.165 211.793 553.592 160.94 553.592 113.373C553.654 100.164 545.519 92.3495 531.92 92.3495Z" fill="#F9B110"/>
</svg>
