<svg id="Layer_1" data-name="Layer 1" xmlns="http://www.w3.org/2000/svg" viewBox="0 0 1920 1920"><defs><style>.cls-1{fill:#fffcf8;}.cls-2{fill:#f9b110;}.cls-3{fill:#1a1a1a;}</style></defs><title>loosenup</title><rect class="cls-1" x="-20.92" y="-7.98" width="1959.28" height="1959.28"/><path class="cls-2" d="M1169.54,718.78c24.15,36.65,58,56.83,95.24,56.83,47.65,0,93.86-42.86,137.34-127.39q3.22-6.25,6.24-12.49c1.8,20.82,13.71,41.63,33.34,57.85,20.23,16.71,46.56,26.68,70.43,26.68a11,11,0,0,0,1.36-.08,6.91,6.91,0,0,0,4.46-1.81c2.18-2.18,2.17-5.7,2.16-11v-1.19c0-62.6,54.13-252.81,114.76-330.75-37.52,76.85-62.21,191.52-62.21,256.83,0,80.32,31.86,174.11,121.63,174.11,40.73,0,83.54-32.17,117.45-88.27,30.67-50.74,49.73-113.93,49.73-164.9,0-42.51-60.88-89.82-102.14-89.82-11.2,0-22.65,1.87-22.65,15.72,0,8.47,6.78,17.47,19.33,17.47,15.3,0,23.06,13.36,23.06,39.71,0,37.59-11.55,91.19-28.74,133.38-12.24,30-38.22,80.41-74.74,80.41-38.36,0-41.35-63-41.35-82.28,0-46,10.34-104.08,28.37-159.49,18.93-58.17,43.15-104,68.19-129,2.76-2.76,5.28-7.88,1.64-16.67-10.17-24.55-63-62.55-86.94-62.55-44.33,0-96.1,115.15-116.3,164.66-32.64,80-57.89,168.53-61.79,214.89-4.94-1.82-9.54-7.5-9.54-24.07,0-54.46,32.4-184.33,64.28-216.21,1.63-1.63,1.72-4.26.25-7.8-5-12.07-29.34-36.66-45.76-36.66-8.67,0-17,11.7-24.48,28.89-4.09,8.06-9.61,20.33-16.72,36.17-37.68,83.9-116.08,258.48-192.76,258.48-30.93,0-45.33-26.84-45.33-84.46,0-47.45,16.54-124.1,41.15-190.73C1265.63,369.81,1296.09,326,1320,326c11.24,0,16.93,9.61,16.93,28.56,0,48.82-46.25,200.54-87,200.54-5.34,0-8.4-3.05-11.36-6-2.6-2.58-5.28-5.26-9.2-5.26-6.47,0-10.82,4.75-10.82,11.83,0,16.91,36.11,56.79,61,56.79,57.38,0,114.16-167.58,114.16-227.92,0-23.64-11.53-51.88-30.85-75.54-19.72-24.15-43.82-38.56-64.49-38.56-44.35,0-86.56,42.18-118.83,118.76-26.7,63.36-44,146.06-44,210.69C1135.6,642.7,1148,686,1169.54,718.78Z"/><path class="cls-2" d="M487.53,715.56c0,26.72,8.42,54.27,23.1,75.58,16.2,23.52,38.15,36.47,61.79,36.47,27.14,0,47.18-35.69,56.71-57a279.94,279.94,0,0,0,14.17-40.05c28.19-.34,52-11.34,69.43-23-2.9,17.55-4.6,33-4.6,43.85,0,19.86,13,44,34.75,64.49,21,19.86,46.08,32.19,65.34,32.19C878.62,848.12,931.69,711,958,582.18c19.06-9.41,35.73-18.55,48.18-25.68,5.38,23.28,20.3,47.23,33.8,68.87,13.64,21.87,26.53,42.52,26.53,57.59,0,29.53-32.25,52.43-60,52.43-2.4,0-3.64-.59-3.84-.85,0-.89,3.17-2.61,4.85-3.53,4.07-2.22,9.13-5,9.13-10.59,0-15.77-16.18-30.14-33.95-30.14-15.92,0-29.37,12.08-29.37,26.38,0,31.41,46.29,59,74.27,59,44.24,0,100.36-35.33,100.36-75,0-23.12-19.3-51.21-38-78.37-17-24.67-34.48-50.18-34.48-68.6,0-25.27,14.1-60.51,37.06-60.51,1,0,2.11.09,3.14.17s2.05.17,3,.17c6.65,0,7.65-4.66,7.65-7.44,0-12.65-29-37.7-47.68-37.7-13.32,0-24.2,7.86-32.66,19.4v-.2l-5.18,6.65c-11.36,14.57-29.8,30.95-52.35,46.54,3.48-25.77,5.32-48.76,5.32-66.87,0-42.45-16-86.32-44-120.35-29.58-36-67.92-55.85-108-55.85-97.23,0-176.13,147.77-176.13,244.21,0,44.25,32.13,81.08,86.18,99.13-14.77,29.82-52.43,66-81.44,72.68a127.13,127.13,0,0,0,.78-13.17c0-24.48-18.69-45.94-40-45.94-14.2,0-19,26.45-19,38.51,0,16.59,5.76,33,15.1,43.15-13.91,40.09-31.89,68-43.89,68-16.66,0-18.45-30.13-18.45-43.08,0-22.31,4.51-57.11,17.17-87.9,9.13-22.19,25.32-48.65,50.62-48.65,5.47,0,7.77,2.18,9.81,4.1,1.38,1.31,2.82,2.66,4.92,2.66,1.74,0,3.46-.94,5.56-3,1.65-1.65,3.13-4.82.78-10.49-6-14.57-33.7-36.89-56.39-36.89C526.19,560.89,487.53,654.72,487.53,715.56ZM880.05,615c-27.27,112.22-61.65,176.43-94.6,176.43-16.93,0-17.79-23.3-17.79-28,0-26.84,13.3-89.76,30.59-132C821.24,631.1,848.71,625.59,880.05,615Zm-64.72-28.36c-7.8-13.47-30.69-41.05-43.5-41.05a7.92,7.92,0,0,0-5.74,2.3c-6.77,6.77-13.88,19.47-21.16,37.77-19.52-6.88-29-21-29-43,0-38.87,16.44-92,41.89-135.26,28.44-48.4,62.87-76.16,94.46-76.16,36.58,0,55.12,34.12,55.12,101.42,0,29.55-6.12,79.4-16,130.43C864.88,574.41,839.32,582.33,815.33,586.65Z"/><path class="cls-2" d="M1689.82,883.54c-23.58,0-50.85,6.73-80.13,18.69-33.79-61.52-102.15-113.73-168.25-113.73-146.4,0-344.31,535.28-369.93,735.6-6-7-9.94-16.68-9.47-30,4.74-135.77,102.22-527.32,187.2-609.43,17.46-16.87-66.49-77.73-86-58.84-7.85,7.59-17,23.9-26.92,46.49-89.47,183.71-213,578.84-271.9,578.84-16,0-18.2-19-18.2-37.35,0-114.85,106.3-452.78,160.42-506.89,16.87-16.87-65.89-74.67-84.78-55.78-20.54,20.54-50.66,97.16-79.15,186.71-62.79,176.74-180.17,503.92-249.18,503.92-19.66,0-25.2-19.06-25.2-39.3,0-88.68,174.67-400.31,174.67-494.74,0-65.31-79.43-141.22-148.65-141.22-38.86,0-89.55,16.36-142.59,43.07-50.47-19.43-73.12-99.29-82.58-150.06C470.91,647.89,576,479.31,576,389.7c0-36.52-15-78-40.18-111-26.15-34.28-58.66-53.94-89.2-53.94-66.25,0-106,84.56-127.7,155.51C293.39,463.64,282,562.6,282,623.71a764,764,0,0,0,8.37,113.5c-55.14,44.47-110,68-158.65,68-21.12,0-27.56-6.47-27.56-27.69,0-2,.11-4,.21-6,.36-6.93.71-13.47-3.13-17.51-2.2-2.32-5.42-3.44-9.86-3.44-10.74,0-19.15,10.93-19.15,24.89,0,43.65,33.61,123.82,88.51,123.82,38.81,0,90.25-27.76,148.88-80.3,11.56,34.1,26.44,61,44.24,79.85,16.86,17.89,36.44,28.72,58.36,32.35C284.47,1006,156.6,1131.47,156.6,1226.77c0,79.93,82.76,164.26,155.23,164.26,94,0,209.72-123.31,209.72-212.24,0-41-64.73-84.06-97.33-84.06-17.86,0-19.81,11.8-13.38,21.88,3.59,5.64,10.15,7.78,19,7.78,13.54,0,17.22,7,17.22,19.77C447,1197.31,363,1320,280.43,1320c-26.13,0-41.51-13.4-41.51-40.79,0-130.28,249.4-346.86,383.32-346.86,25.36,0,35.25,16.21,35.25,39.62,0,89.07-173.64,405.67-173.64,489.26,0,67.92,81.54,146.43,153.14,146.43,41.24,0,88.52-92,130.38-202.12,16.47,57.47,79.69,114.24,135,114.24,32,0,70.46-86.54,105.22-191.22-10.89,54.06-17.87,98.24-18.73,122.63-1.26,36.06,17.41,72.7,43.82,96.23-118.79,17.92-234.48,62.61-234.48,112.48,0,29.2,42.82,85.9,68.3,85.9,4.32,0,6.32-4.09,6.32-12.78,0-101.1,339-151.43,392.23-98.2,7.8,7.8,21.71-11.4,21.71-29.28,0-45.89-62.05-65.17-141.91-66.35,34.94-225.48,188.38-675.64,337.93-675.64,38.1,0,58.46,31.61,61.39,72-153.71,92.07-328.38,286.26-332.9,415.83-2.09,59.81,80.34,139.59,137.8,139.59,136.05,0,275.58-363,282.06-506.3,33.75-13.15,66.47-20.56,96.23-20.56,26.64,0,47.91,13.14,46.93,41.08-1.94,55.68-55.15,160.42-107.39,160.42-19.57,0-17.21-25.69-29-25.69-8.17,0-14.11,6.78-14.11,19.48,0,32,42.59,91.76,78.65,91.76,55.67,0,131.95-135.58,134.35-204.27C1839.24,977.64,1758.64,883.54,1689.82,883.54ZM359.48,657.27c0-48,11.4-139.27,33.19-221,25.22-94.63,56.61-146.75,88.38-146.75,25.68,0,27.68,39.47,27.68,51.57,0,95.34-59.76,227-149.08,329C359.54,665.69,359.48,661.41,359.48,657.27Zm953.57,760.4c-18,0-26.94-14.7-26.23-34.79,4.09-117.1,117.89-259.25,243.52-344.18C1494.27,1188.78,1396.2,1417.67,1313.05,1417.67Z"/><path class="cls-3" d="M1162.69,711.93c24.15,36.65,58,56.83,95.24,56.83,47.65,0,93.86-42.86,137.34-127.39q3.22-6.25,6.24-12.49c1.8,20.82,13.71,41.63,33.34,57.85,20.23,16.71,46.56,26.68,70.43,26.68a11,11,0,0,0,1.36-.08,6.91,6.91,0,0,0,4.46-1.81c2.18-2.18,2.17-5.7,2.16-11v-1.19c0-62.6,54.13-252.81,114.76-330.75-37.52,76.85-62.21,191.52-62.21,256.83,0,80.32,31.86,174.11,121.63,174.11,40.73,0,83.54-32.17,117.45-88.27,30.67-50.74,49.73-113.93,49.73-164.9,0-42.51-60.88-89.82-102.14-89.82-11.2,0-22.65,1.87-22.65,15.72,0,8.47,6.78,17.47,19.33,17.47,15.3,0,23.06,13.36,23.06,39.71,0,37.59-11.55,91.19-28.74,133.38-12.24,30-38.22,80.41-74.74,80.41-38.36,0-41.35-63-41.35-82.28,0-46,10.34-104.08,28.37-159.49,18.93-58.17,43.15-104,68.19-129,2.76-2.76,5.28-7.88,1.64-16.67-10.17-24.55-63-62.55-86.94-62.55-44.33,0-96.1,115.15-116.3,164.66-32.64,80-57.89,168.53-61.79,214.89-4.94-1.82-9.54-7.5-9.54-24.07,0-54.46,32.4-184.33,64.28-216.21,1.63-1.63,1.72-4.26.25-7.8-5-12.07-29.34-36.66-45.76-36.66-8.67,0-17,11.7-24.48,28.89-4.09,8.06-9.61,20.33-16.72,36.17-37.68,83.9-116.08,258.48-192.76,258.48-30.93,0-45.33-26.84-45.33-84.46,0-47.45,16.54-124.1,41.15-190.73,27.11-73.39,57.57-117.2,81.47-117.2,11.24,0,16.93,9.61,16.93,28.56,0,48.82-46.25,200.54-87,200.54-5.34,0-8.4-3.05-11.36-6-2.6-2.58-5.28-5.26-9.2-5.26-6.47,0-10.82,4.75-10.82,11.83,0,16.91,36.11,56.79,61,56.79,57.38,0,114.16-167.58,114.16-227.92,0-23.64-11.53-51.88-30.85-75.54-19.72-24.15-43.82-38.56-64.49-38.56-44.35,0-86.56,42.18-118.83,118.76-26.7,63.36-44,146.06-44,210.69C1128.75,635.85,1141.12,679.19,1162.69,711.93Z"/><path class="cls-3" d="M480.68,708.71c0,26.72,8.42,54.27,23.1,75.58,16.2,23.52,38.15,36.47,61.79,36.47,27.14,0,47.18-35.69,56.71-57a279.94,279.94,0,0,0,14.17-40.05c28.19-.34,52-11.34,69.43-23-2.9,17.55-4.6,33-4.6,43.85,0,19.86,13,44,34.75,64.49,21,19.86,46.08,32.19,65.34,32.19,70.41,0,123.48-137.07,149.82-265.94,19.06-9.41,35.73-18.55,48.18-25.68,5.38,23.28,20.3,47.23,33.8,68.87,13.64,21.87,26.53,42.52,26.53,57.59,0,29.53-32.25,52.43-60,52.43-2.4,0-3.64-.59-3.84-.85,0-.89,3.17-2.61,4.85-3.53,4.07-2.22,9.13-5,9.13-10.59,0-15.77-16.18-30.14-33.95-30.14-15.92,0-29.37,12.08-29.37,26.38,0,31.41,46.29,59,74.27,59,44.24,0,100.36-35.33,100.36-75,0-23.12-19.3-51.21-38-78.37-17-24.67-34.48-50.18-34.48-68.6,0-25.27,14.1-60.51,37.06-60.51,1,0,2.11.09,3.14.17s2.05.17,3,.17c6.65,0,7.65-4.66,7.65-7.44,0-12.65-29-37.7-47.68-37.7-13.32,0-24.2,7.86-32.66,19.4v-.2L1014,467.3c-11.36,14.57-29.8,30.95-52.35,46.54C965.18,488.07,967,465.07,967,447c0-42.45-16-86.32-44-120.35-29.58-36-67.92-55.85-108-55.85-97.23,0-176.13,147.77-176.13,244.21,0,44.25,32.13,81.08,86.18,99.13-14.77,29.82-52.43,66-81.44,72.68a127.13,127.13,0,0,0,.78-13.17c0-24.48-18.69-45.94-40-45.94-14.2,0-19,26.45-19,38.51,0,16.59,5.76,33,15.1,43.15-13.91,40.09-31.89,68-43.89,68-16.66,0-18.45-30.13-18.45-43.08,0-22.31,4.51-57.11,17.17-87.9,9.13-22.19,25.32-48.65,50.62-48.65,5.47,0,7.77,2.18,9.81,4.1,1.38,1.31,2.82,2.66,4.92,2.66,1.74,0,3.46-.94,5.56-3,1.65-1.65,3.13-4.82.78-10.49-6-14.57-33.7-36.89-56.39-36.89C519.34,554,480.68,647.87,480.68,708.71ZM873.2,608.16c-27.27,112.22-61.65,176.43-94.6,176.43-16.93,0-17.79-23.3-17.79-28,0-26.84,13.3-89.76,30.59-132C814.39,624.25,841.85,618.73,873.2,608.16ZM808.48,579.8c-7.8-13.47-30.69-41.05-43.5-41.05a7.92,7.92,0,0,0-5.74,2.3c-6.77,6.77-13.88,19.47-21.16,37.77-19.52-6.88-29-21-29-43,0-38.87,16.44-92,41.89-135.26,28.44-48.4,62.87-76.16,94.46-76.16,36.58,0,55.12,34.12,55.12,101.42,0,29.55-6.12,79.4-16,130.43C858,567.56,832.47,575.48,808.48,579.8Z"/><path class="cls-3" d="M1683,876.69c-23.58,0-50.85,6.73-80.13,18.69-33.79-61.52-102.15-113.73-168.25-113.73-146.4,0-344.31,535.28-369.93,735.6-6-7-9.94-16.68-9.47-30,4.74-135.77,102.22-527.32,187.2-609.43,17.46-16.87-66.49-77.73-86-58.84-7.85,7.59-17,23.9-26.92,46.49-89.47,183.71-213,578.84-271.9,578.84-16,0-18.2-19-18.2-37.35,0-114.85,106.3-452.78,160.42-506.89,16.87-16.87-65.89-74.67-84.78-55.78-20.54,20.54-50.66,97.16-79.15,186.71C773,1207.73,655.64,1534.91,586.63,1534.91c-19.66,0-25.2-19.06-25.2-39.3,0-88.68,174.67-400.31,174.67-494.74,0-65.31-79.43-141.22-148.65-141.22-38.86,0-89.55,16.36-142.59,43.07-50.47-19.43-73.12-99.29-82.58-150.06C464.06,641,569.1,472.46,569.1,382.85c0-36.52-15-78-40.18-111-26.15-34.28-58.66-53.94-89.2-53.94-66.25,0-106,84.56-127.7,155.51-25.49,83.35-36.89,182.32-36.89,243.42a764,764,0,0,0,8.37,113.5c-55.14,44.47-110,68-158.65,68-21.12,0-27.56-6.47-27.56-27.69,0-2,.11-4,.21-6,.36-6.93.71-13.47-3.13-17.51-2.2-2.32-5.42-3.44-9.86-3.44-10.74,0-19.15,10.93-19.15,24.89,0,43.65,33.61,123.82,88.51,123.82,38.81,0,90.25-27.76,148.88-80.3,11.56,34.1,26.44,61,44.24,79.85,16.86,17.89,36.44,28.72,58.36,32.35-127.74,74.93-255.6,200.37-255.6,295.67,0,79.93,82.76,164.26,155.23,164.26,94,0,209.72-123.31,209.72-212.24,0-41-64.73-84.06-97.33-84.06-17.86,0-19.81,11.8-13.38,21.88,3.59,5.64,10.15,7.78,19,7.78,13.54,0,17.22,7,17.22,19.77,0,53.16-84.07,175.88-166.61,175.88-26.13,0-41.51-13.4-41.51-40.79,0-130.28,249.4-346.86,383.32-346.86,25.36,0,35.25,16.21,35.25,39.62,0,89.07-173.64,405.67-173.64,489.26,0,67.92,81.54,146.43,153.14,146.43,41.24,0,88.52-92,130.38-202.12C777,1456.19,840.2,1513,895.52,1513c32,0,70.46-86.54,105.22-191.22-10.89,54.06-17.87,98.24-18.73,122.63-1.26,36.06,17.41,72.7,43.82,96.23C907,1558.51,791.35,1603.2,791.35,1653.07c0,29.2,42.82,85.9,68.3,85.9,4.32,0,6.32-4.09,6.32-12.78,0-101.1,339-151.43,392.23-98.2,7.8,7.8,21.71-11.4,21.71-29.28,0-45.89-62.05-65.17-141.91-66.35,34.94-225.48,188.38-675.64,337.93-675.64,38.1,0,58.46,31.61,61.39,72-153.71,92.07-328.38,286.26-332.9,415.83-2.09,59.81,80.34,139.59,137.8,139.59,136.05,0,275.58-363,282.06-506.3,33.75-13.15,66.47-20.56,96.23-20.56,26.64,0,47.91,13.14,46.93,41.08-1.94,55.68-55.15,160.42-107.39,160.42-19.57,0-17.21-25.69-29-25.69-8.17,0-14.11,6.78-14.11,19.48,0,32,42.59,91.76,78.65,91.76,55.67,0,131.95-135.58,134.35-204.27C1832.39,970.79,1751.79,876.69,1683,876.69ZM352.63,650.42c0-48,11.4-139.27,33.19-221,25.22-94.63,56.61-146.75,88.38-146.75,25.68,0,27.68,39.47,27.68,51.57,0,95.34-59.76,227-149.08,329C352.69,658.84,352.63,654.56,352.63,650.42Zm953.57,760.4c-18,0-26.94-14.7-26.23-34.79,4.09-117.1,117.89-259.25,243.52-344.18C1487.41,1181.93,1389.35,1410.82,1306.2,1410.82Z"/><path class="cls-2" d="M1627.52,1423.72c-10.4,6.1-20.21,11.39-29.73,16.27q4.74-16.66,9.25-33.12c3.78-13.85-33.49-34.76-37.27-20.89,0,0-4.53,25.33-10.73,56.68-11-12-19.35-20.86-20.77-22.28-4.22-4.22-22.09,8.55-22.09,16.42,0,2.72,10.65,15.45,24.85,30.92-12.57,6.24-25.54,13-39.56,21.25-10.75,6.3-.28,39.16,13.41,31.14,10.51-6.16,21-11.85,31.51-17.31-2.62,11.51-5.23,22.25-7.68,31.25-4.69,17.21,21.57,38.29,26.27,21,4.35-15.95,8.95-32.13,13.61-48.37,16.64,16.51,30.76,29.39,33.3,29.39,6.76,0,14.14-7.42,14.14-14.61,0-3.1-15.5-21.51-33.48-41.81,19.84-9.81,39.67-19.83,59.51-31.45C1660.39,1443.37,1638.78,1417.12,1627.52,1423.72Z"/><path class="cls-2" d="M369.4,1440c-36.83,0-39.1,77.7,0,77.7C405.37,1517.72,415.75,1440,369.4,1440Z"/><path class="cls-2" d="M1822.28,800.33c-36.83,0-40.35,59.78-1.25,59.78C1857,860.12,1868.63,800.33,1822.28,800.33Z"/><path class="cls-2" d="M1483.87,319.36c10.57-17.94-15.84-41.3-29.45-18.19C1443.6,319.55,1472.38,338.86,1483.87,319.36Z"/><path class="cls-2" d="M1167.28,1681c-20.79-4.73-30.45,28.56-8.39,33.58C1179.19,1719.23,1193.44,1687,1167.28,1681Z"/><path class="cls-2" d="M1015.83,233.58c11.47,8.27,27.91,18.46,45,28.64-13.6,13.27-27.2,26.53-40.79,39.6-8,7.68,8,31.5,22.37,18.43,10.25-9.31,20.33-18.8,30.34-28.38,1.69,12.67,3.33,24.59,4.86,34.82,2.18,14.58,30.82,20.6,29.45,4.46-1.11-12.95-2.63-28.31-4.38-44.42,5.55,3.23,10.73,6.26,15.23,8.94,14.58,8.67,21.41-12.32,6.54-23-5.75-4.14-12-8.55-18.43-13.06,12.23-12,24.44-24,36.78-35.84,7.59-7.3-14.54-27-22.37-19.45q-12.35,11.88-24.71,23.92c-1.55-12-3.11-23.27-4.58-33.12-2.08-13.94-34.27-20.22-32.14-6,1.83,12.25,3.82,26.91,5.86,42.41-16-10.62-30.47-19.89-39.92-25.4C1011.6,198.36,1002,223.65,1015.83,233.58Z"/><path class="cls-2" d="M112.43,635.36c10.34-7.11,18.92-12.88,26.59-17.92L134,643c-2.64,13.43,16.41,29.88,19,16.72,2.35-12,4.72-24.35,7.1-36.85l18.26,22.73c8.82,11,17.44-12.48,8.45-23.67-6.45-8-12.61-15.58-18.66-22.93,10.41-6.39,21.4-13,36.05-21.93,9-5.51,2.63-34.45-6.65-28.77-9.45,5.78-18.14,11.37-26.47,16.82,1.26-6.56,2.52-13.07,3.77-19.44,2.35-12-16.89-24.69-19.19-13L147.54,574c-8.75-10.59-17.62-21.36-27.08-33.14-5.54-6.9-22.38,4.73-16.67,11.84l29.54,36.78c-11.45,7.07-23.4,13.94-37,20.68C82.19,617.23,99.13,644.5,112.43,635.36Z"/><path class="cls-1" d="M1038.71,533.3s7.93-11.73,4.29-14.29S1038.71,533.3,1038.71,533.3Z"/><path class="cls-1" d="M692.56,557.5c2.26,13.53,21.53,25.85,14.49,16.39C701.84,566.9,692.56,557.5,692.56,557.5Z"/><path class="cls-1" d="M1777.31,475.85s-13.67-9-18.5-6-1.12,4.82,7,5.13A98.43,98.43,0,0,1,1777.31,475.85Z"/><path class="cls-1" d="M1320.45,1458.61c-10.4.18-22.65-15.08-26.26-13.82-6.69,2.34,4.1,11,13.35,14.24C1316.6,1462.22,1330.85,1458.43,1320.45,1458.61Z"/><path class="cls-1" d="M1242.86,754.3c-5.11,1.67-30.69-7.67-26.85-10.63s8.44.67,15.61,4.48C1237.07,751,1242.86,754.3,1242.86,754.3Z"/><path class="cls-1" d="M133.52,871.56c-24-4.25-42.12-37.45-38.48-46.24C93.4,829.26,120.34,869.23,133.52,871.56Z"/><path class="cls-1" d="M368.65,1446.33c2.15-3.22-18.89,7.75-15,16C354.21,1463.66,366.93,1448.91,368.65,1446.33Z"/><path class="cls-1" d="M719.54,984.19c.56-11.37-2.8-17.81-6.89-15.05s3.19,13.07,3.46,23C716.41,1002.63,719.13,992.55,719.54,984.19Z"/><path class="cls-1" d="M598.6,1575.62c-11.85-10.62-30.26-19.5-25-10.18s20.67,14.19,31.26,15S601.82,1578.5,598.6,1575.62Z"/><path class="cls-1" d="M1455,794s-20.68-6.68-32.78-.87c-18.16,8.72-9.59,12.73,4.32,7.77C1434.8,798,1445.85,792.73,1455,794Z"/><path class="cls-1" d="M1629.8,1160.52c-.56-3.79-2-12.46.69-11.42s3.58,3.82,2.89,7.05-1.5,6.13-1.27,8.44S1630.14,1162.82,1629.8,1160.52Z"/><path class="cls-1" d="M537.06,577.79c2.2-2.35,7.15-7.82,8.14-5s-.29,5-2.92,6-5.08,1.69-6.5,3S535.72,579.22,537.06,577.79Z"/><path class="cls-1" d="M893.7,319.47c1-7.21,12.4,1.68,14.19,12,1,5.52-2.84-2.29-7.77-5.46C897,324,893.24,322.68,893.7,319.47Z"/><path class="cls-1" d="M1050.1,1518.33c-6.08-11.64-9.73-18.56-9.73-18.56s5.88,30,15.91,29.34C1058.35,1529,1054.9,1527.53,1050.1,1518.33Z"/><path class="cls-1" d="M1618.64,355.58c5.77-9.23,9.63-12.64,13.88-9.66,2.57,1.8-.09,4-1.44,5.63-2.95,3.6-7.45,1.66-12.44,7.65C1614.32,364.37,1616.48,359,1618.64,355.58Z"/><path class="cls-1" d="M272.32,1362.53c-8.43,0-35.15-16.87-27.46-15.87,4.53.59,26.16,13.84,39.77,13.84C289.42,1360.5,279.84,1362.53,272.32,1362.53Z"/><path class="cls-1" d="M1260.58,1615.57c3.08-2-1.61-10.39-15.47-13.14C1235.94,1600.62,1256.67,1608.88,1260.58,1615.57Z"/><path class="cls-1" d="M554.06,368.77c.55-11-1.94-22.29-8-30.26-.83-1.09-.54,5,1.75,19.07,1.64,10.11,4,12.32,3.53,15.54S553.82,373.41,554.06,368.77Z"/><path class="cls-1" d="M868.7,1487.35c-4.39-3.71-17.62-15.35-21.6-13.22s7.76,8.38,10.43,9.6C863.66,1486.54,870.93,1489.23,868.7,1487.35Z"/><path class="cls-1" d="M435.11,280.72c-12,12.12-21.5,26.33-29.21,41.4a385.91,385.91,0,0,0-20.13,46.6c-11.48,31.88-20.24,64.74-27.39,97.91S345.52,533.32,341.22,567c-2.11,16.85-3.92,33.75-5.22,50.7s-2.15,33.94-2.31,51c-2.29-34-.77-68.28,2.55-102.24a891.61,891.61,0,0,1,15.87-101.19c7.32-33.37,16.42-66.45,29-98.31a341.53,341.53,0,0,1,22.07-46.35c2.18-3.69,4.53-7.28,6.82-10.89,2.53-3.46,4.81-7.09,7.54-10.4A121.52,121.52,0,0,1,435.11,280.72Z"/><path class="cls-1" d="M711.52,1016.62c0,10.29-2.49,20.41-5.21,30.27s-5.93,19.65-9.24,29.37c-6.89,19.33-14.46,38.39-22.19,57.37-15.57,37.92-32.36,75.28-48.59,112.86-16.71,37.37-33,74.91-48.5,112.74-7.74,18.92-15.15,38-21.67,57.33s-12.76,38.94-14.18,59.41c-.2-10.27,1.54-20.47,3.5-30.54,2.22-10,4.74-20,7.68-29.83,6-19.65,12.87-39,20.08-58.18s15.14-38.11,23-57,16-37.71,24.22-56.49l49.94-112.2c8.27-18.71,16.31-37.52,23.78-56.54,3.73-9.51,7.42-19,10.55-28.76S710.83,1026.86,711.52,1016.62Z"/><path class="cls-1" d="M1289.76,313.71c-14.39,7.82-24.56,21-33.42,34.3s-16.32,27.83-23.11,42.47-12.8,29.66-18.25,44.88-10.58,30.55-15,46.1a715.6,715.6,0,0,0-20.91,94.62,441.26,441.26,0,0,0-4.55,48.23c-.64,16.14,0,32.38,3.2,48.33-4.57-15.64-5.92-32.07-6.34-48.36a378.3,378.3,0,0,1,2.73-48.85c3.71-32.44,10.78-64.4,19.71-95.76,9.19-31.29,20.42-62.05,34.89-91.35a288.27,288.27,0,0,1,25-42.1c2.47-3.26,4.89-6.56,7.63-9.61,1.36-1.53,2.6-3.16,4-4.61l4.31-4.38C1275.68,322,1282.19,316.81,1289.76,313.71Z"/><path class="cls-1" d="M552.09,388.51a178.2,178.2,0,0,1-2.59,20.41c-1.37,6.73-2.92,13.43-4.83,20a386.34,386.34,0,0,1-13.43,39,697.71,697.71,0,0,1-36,74.12c-13.23,24.09-28,47.32-43.26,70.13s-31.55,45-48.45,66.66c-17.1,21.51-34.93,42.44-53.63,62.58S311.77,781,290.9,799s-42.7,34.81-66.29,49a261.91,261.91,0,0,1-36.94,18.35,144.51,144.51,0,0,1-39.82,10.11A154.22,154.22,0,0,0,187,864.77,259.5,259.5,0,0,0,223,845.31c23-14.62,44.41-31.76,64.67-50,40.48-36.66,77.17-77.43,110.88-120.43A1144.46,1144.46,0,0,0,491,539.6a704.4,704.4,0,0,0,37.37-72.91,384,384,0,0,0,14.7-38.24C547.19,415.44,550.57,402.14,552.09,388.51Z"/><path class="cls-1" d="M1599,1006.58c-3,22-7.79,43.72-13.08,65.29-5.52,21.52-11.84,42.83-18.68,64s-14.55,42-22.66,62.7-16.92,41.12-26.28,61.3q-14.3,30.14-30.64,59.29a574.56,574.56,0,0,1-35.84,56.35c-13.13,18-27.38,35.26-43.55,50.65-4.17,3.71-8.34,7.42-12.65,11l-6.66,5.06-3.33,2.52-3.52,2.27-7,4.53c-2.42,1.37-4.92,2.62-7.38,3.92l-3.71,1.91c-1.25.6-2.58,1-3.86,1.57l-7.75,3c20.49-8.64,38.28-22.32,53.69-38s29.2-33.09,41.72-51.25c25.06-36.36,46.08-75.42,64.71-115.5,19.06-39.91,35.33-81.13,50.08-122.85q11.08-31.29,20.32-63.21Q1592.32,1039.21,1599,1006.58Z"/><path class="cls-1" d="M348.77,773.88c3.4,12.51,7.07,24.82,11.1,37a366.89,366.89,0,0,0,13.82,35.7c2.54,5.83,5.45,11.48,8.52,17a156.89,156.89,0,0,0,10.07,16.08,99.75,99.75,0,0,0,27.09,26.59c-12.16-4.66-22.76-13.36-31.05-23.52-8.49-10.11-15-21.66-20.47-33.53-2.63-6-5.07-12.05-7.21-18.22s-4-12.41-5.55-18.73A208.43,208.43,0,0,1,348.77,773.88Z"/><path class="cls-1" d="M588.33,591.17c-9.32,3-16.83,9.38-22.79,16.74A122.63,122.63,0,0,0,550.34,632a230.61,230.61,0,0,0-18,54.29c-3.72,18.74-5.84,37.94-4.5,57.07.63,9.52,2.09,19.06,5.59,27.86a30.73,30.73,0,0,0,7.81,11.61,21.4,21.4,0,0,0,13,5.22A21,21,0,0,1,540.32,784a32.7,32.7,0,0,1-9.27-11.63c-4.52-8.93-6.41-18.81-7.66-28.54a201.68,201.68,0,0,1,22.28-114.2c2.43-4.3,5-8.5,7.87-12.55a102.9,102.9,0,0,1,9.52-11.38,60.41,60.41,0,0,1,11.57-9.27A36.25,36.25,0,0,1,588.33,591.17Z"/><path class="cls-1" d="M636.71,686.55c-1.37-5.65-2.52-11.1-4-16.37a75.46,75.46,0,0,0-5.88-14.92,38.13,38.13,0,0,0-9.69-11.94,36.79,36.79,0,0,0-14.7-6.72,24.43,24.43,0,0,1,17.42,2.52,32,32,0,0,1,12.61,13.1,46.89,46.89,0,0,1,5.13,17A51.7,51.7,0,0,1,636.71,686.55Z"/><path class="cls-1" d="M776,627.23c-5,13.17-8.8,26.59-12.51,40s-6.94,27-9.67,40.66a319.21,319.21,0,0,0-6.08,41.13,107.28,107.28,0,0,0,.3,20.58,37.3,37.3,0,0,0,2.53,9.84,17.22,17.22,0,0,0,6.3,7.95,16.77,16.77,0,0,1-7.87-7.12,37.16,37.16,0,0,1-4-10.06,90.87,90.87,0,0,1-2.22-21.35c0-14.28,2.07-28.37,4.8-42.24a331.32,331.32,0,0,1,11.18-40.85C763.37,652.51,768.64,639.28,776,627.23Z"/><path class="cls-1" d="M1039.38,540.48c-1,13.6,3.57,26.34,9.31,38.16,3,5.91,6.19,11.72,9.75,17.35s7.14,11.27,10.93,16.79c7.43,11.14,15.3,22.1,22.39,33.68a154.39,154.39,0,0,1,9.7,18c2.69,6.23,5.06,13,4.52,19.86-.91-6.74-3.94-12.72-7.33-18.43s-7.2-11.2-11.07-16.66c-7.83-10.86-15.91-21.65-23.53-32.86s-14.74-22.92-19.91-35.68a87.93,87.93,0,0,1-5.71-19.81C1037.44,554.07,1037.46,547,1039.38,540.48Z"/><path class="cls-1" d="M762.88,549.39c1.91-.59,3.86.06,5.68.51a34.17,34.17,0,0,1,5.12,2.21,48.84,48.84,0,0,1,8.9,6.29,48,48,0,0,1,7.3,8.09,33.25,33.25,0,0,1,2.81,4.8,11.91,11.91,0,0,1,1.32,5.53c-2.42-2.77-5.21-4.66-7.86-6.92s-5.27-4.41-7.84-6.7-5.08-4.62-7.57-7L767,552.62A19.41,19.41,0,0,0,762.88,549.39Z"/><path class="cls-1" d="M966.25,690.62a21.93,21.93,0,0,1,13-1.76A27.91,27.91,0,0,1,991.79,694a25.25,25.25,0,0,1,8.45,10.77,18,18,0,0,1,.44,13.23,33.15,33.15,0,0,0-4.87-10.91A35.36,35.36,0,0,0,988,699.2a43.35,43.35,0,0,0-9.92-5.51A55.64,55.64,0,0,0,966.25,690.62Z"/><path class="cls-1" d="M724.36,591a132.63,132.63,0,0,0,35.38,5.82,217.41,217.41,0,0,0,35.72-1.71,309.44,309.44,0,0,0,35.19-6.6q17.41-4.24,34.42-10a479.35,479.35,0,0,0,66.16-27.78c10.65-5.48,21.12-11.32,31.21-17.8A181,181,0,0,0,991,511.06c-7.74,9.3-17.12,17.15-26.8,24.43a299.34,299.34,0,0,1-30.63,19.62,388.39,388.39,0,0,1-66.49,29.45c-23,7.6-46.83,13.43-71.13,15.48a191.08,191.08,0,0,1-36.48-.13C747.44,598.48,735.4,595.92,724.36,591Z"/><path class="cls-1" d="M622.43,722.16a94.66,94.66,0,0,1-5,26.3,141.89,141.89,0,0,1-10.75,24.63A114.27,114.27,0,0,1,591,795c-1.6,1.62-3.18,3.24-4.83,4.78-1.8,1.42-3.45,3-5.35,4.24a31.29,31.29,0,0,1-12.35,5.46c7.87-4.22,13.46-10.86,18.68-17.7A194,194,0,0,0,601.08,770c4.27-7.55,8.08-15.36,11.69-23.28S619.56,730.6,622.43,722.16Z"/><path class="cls-1" d="M1810.49,1036.33c-.44,19.06-4.73,38-10.85,56.1a302.24,302.24,0,0,1-23.68,52.26,262.88,262.88,0,0,1-33.55,46.6,165,165,0,0,1-21.11,19.57c-7.73,5.67-16,10.8-25.09,13.77a103,103,0,0,0,23.09-16.19,199.55,199.55,0,0,0,19.34-20.44,329.65,329.65,0,0,0,31.76-46.5,395.15,395.15,0,0,0,24.56-50.78c3.43-8.77,6.57-17.66,9.21-26.72A208.57,208.57,0,0,0,1810.49,1036.33Z"/><path class="cls-1" d="M495.31,1176.74c-1.86,23.76-10.87,46.68-22.89,67.28s-27.25,39.45-44.13,56.38a282.54,282.54,0,0,1-56.61,43.82,187.08,187.08,0,0,1-32.53,15.11c-11.33,3.76-23.27,6.32-35.16,5.8a107,107,0,0,0,34-8.74,213,213,0,0,0,31-16.45,303.36,303.36,0,0,0,28.51-20.58,341.13,341.13,0,0,0,70.56-77.93,221.08,221.08,0,0,0,16.61-31A153.4,153.4,0,0,0,495.31,1176.74Z"/><path class="cls-1" d="M1104.76,706.18c-2.67,8.2-7.82,15.54-13.78,21.83a96.64,96.64,0,0,1-44.45,26.2c-8.39,2.2-17.24,3.2-25.75,1.87a120.92,120.92,0,0,0,24.22-6.64,156,156,0,0,0,42.55-25.06A103.59,103.59,0,0,0,1104.76,706.18Z"/><path class="cls-1" d="M927.4,592.46c.46,11.6-1.57,23.14-3.61,34.53-2.25,11.38-5.05,22.64-8.29,33.78a514.08,514.08,0,0,1-23.87,65.33c-4.8,10.57-9.9,21-15.49,31.22a277,277,0,0,1-18.73,29.49c-6.91,9.39-14.6,18.33-23.67,25.81a79.88,79.88,0,0,1-7.12,5.18,36.13,36.13,0,0,1-3.81,2.21,40.84,40.84,0,0,1-20.91,5.53c2.86-.49,5.74-.62,8.41-1.74a41.12,41.12,0,0,0,7.83-3.32,37.37,37.37,0,0,0,3.61-2.25,34.16,34.16,0,0,0,3.49-2.43,76.94,76.94,0,0,0,6.44-5.56c8.28-7.78,15.24-16.89,21.64-26.32,12.71-19,23.09-39.52,32.46-60.44,4.78-10.43,9.06-21.09,13.23-31.79s8-21.52,11.73-32.41,7-21.89,10-33S926.41,604,927.4,592.46Z"/><path class="cls-1" d="M916.61,344c10.45,10.09,18.52,22.7,24.34,36.16a159.06,159.06,0,0,1,11.44,42.41,203.91,203.91,0,0,1,.76,43.8,218.23,218.23,0,0,1-8,42.81c1.48-14.43,2.7-28.76,3-43.07a280.88,280.88,0,0,0-2.12-42.7A198.09,198.09,0,0,0,936.31,382,156,156,0,0,0,916.61,344Z"/><path class="cls-1" d="M1369,364.65c3.17,9.84,2.72,20.43,2.13,30.65a242.69,242.69,0,0,1-4.61,30.52A406,406,0,0,1,1349,484.9a369.88,369.88,0,0,1-26.34,55.75,197.4,197.4,0,0,1-17.62,25.41c-1.66,2-3.46,3.85-5.17,5.77s-3.64,3.67-5.6,5.36a53.5,53.5,0,0,1-12.75,8.63c8.55-5.67,15.29-13.37,21-21.69a241.68,241.68,0,0,0,15.74-25.94c4.7-9,9.13-18.1,13.18-27.4s8-18.65,11.53-28.17a563.74,563.74,0,0,0,18.66-57.94c2.52-9.83,4.8-19.73,6.36-29.74S1370.77,374.75,1369,364.65Z"/><path class="cls-1" d="M841.18,309.51a87.1,87.1,0,0,0-34.68,9.88c-10.75,5.43-20.37,12.84-29.18,21a207.66,207.66,0,0,0-24,27,272.9,272.9,0,0,0-19.8,30.29,355.14,355.14,0,0,0-29,66.44c-7.3,23.09-12.58,47-13.92,71.41-1.17-24.48,2.5-49.16,9.12-72.84A306,306,0,0,1,728,394.48c12.3-21.36,27.22-41.54,46-57.81a122.11,122.11,0,0,1,31.17-20.11C816.57,311.76,828.92,308.88,841.18,309.51Z"/><path class="cls-1" d="M599.44,576.7a39.83,39.83,0,0,0-10.89-6.26,59.55,59.55,0,0,0-11.83-3.18,70.39,70.39,0,0,0-12.28-1,55.2,55.2,0,0,0-12.59,1.5,25.07,25.07,0,0,1,12.19-5.48,39.57,39.57,0,0,1,13.53-.08,36.72,36.72,0,0,1,12.76,4.67C594.22,569.22,597.72,572.56,599.44,576.7Z"/><path class="cls-1" d="M1088,474.28c-4-3.19-7.87-6.16-11.82-9a111.41,111.41,0,0,0-12.11-7.49c-8.31-4.28-17-7.27-27.07-4.83,3.74-3.62,9.36-5.28,14.73-5.09a35.28,35.28,0,0,1,15.31,4.23,49,49,0,0,1,12.39,9.4A39.82,39.82,0,0,1,1088,474.28Z"/><path class="cls-1" d="M1223.1,870.36a78.83,78.83,0,0,0-12.74-12.43A155.64,155.64,0,0,0,1196,847.79a147.79,147.79,0,0,0-15.28-8.55c-5.32-2.4-10.65-4.68-16.82-4.88a19.83,19.83,0,0,1,9.27-1.48,39.67,39.67,0,0,1,9.31,1.66,67.29,67.29,0,0,1,17,7.82,69.34,69.34,0,0,1,14.33,11.92C1217.94,858.89,1221.68,864.27,1223.1,870.36Z"/><path class="cls-1" d="M923.7,855.82c8.51-1.73,17.5.25,25.57,3.36a79.64,79.64,0,0,1,22.46,13.38,52.42,52.42,0,0,1,9.08,9.94,24.53,24.53,0,0,1,1.75,3.12,10.55,10.55,0,0,1,.76,2,9.88,9.88,0,0,1,.34,2.13,16.87,16.87,0,0,1-1.42,7.28,53.06,53.06,0,0,1-6.68,11.36,120.05,120.05,0,0,1-8.25,9.85c3.51-7.76,8-15.25,10.2-22.81a14.5,14.5,0,0,0,.56-5.18,4.59,4.59,0,0,0-.72-1.94,18.75,18.75,0,0,0-1.53-2.31,50.48,50.48,0,0,0-8.27-8.53,110,110,0,0,0-20.34-13.7C939.89,860,932.21,856.79,923.7,855.82Z"/><path class="cls-1" d="M1354.69,320.34c-4.08-7.05-9.83-12.56-15.66-17.87a129.62,129.62,0,0,0-18.86-14,91,91,0,0,0-21.11-9.68,61.79,61.79,0,0,0-23.42-2.45c7.51-3.36,16.3-3.92,24.55-2.43a68.27,68.27,0,0,1,23.33,9.09,85.34,85.34,0,0,1,19,16C1348,305.11,1353.05,312.18,1354.69,320.34Z"/><path class="cls-1" d="M1497,417.89a62.09,62.09,0,0,0-7.63-6.37q-3.86-2.86-7.79-5.44a71.81,71.81,0,0,0-8-4.57c-2.78-1.26-5.53-2.35-9.15-2.07a9.1,9.1,0,0,1,4.86-2.69,15.62,15.62,0,0,1,5.68-.1,26.54,26.54,0,0,1,10.15,4A32.18,32.18,0,0,1,1493,408C1495.06,410.82,1497,414.2,1497,417.89Z"/><path class="cls-1" d="M1707.1,361.67c-3-8-8.67-14.18-14.53-19.92a137.75,137.75,0,0,0-19.39-15.27,124.2,124.2,0,0,0-21.65-11.71,61.15,61.15,0,0,0-11.69-3.56,24.52,24.52,0,0,0-12.24.42c3.47-2.58,8.11-3.56,12.5-3.56a48.38,48.38,0,0,1,13,2,85.54,85.54,0,0,1,23.58,11.1,91.49,91.49,0,0,1,19.5,17.21,58.6,58.6,0,0,1,7.32,10.85A30.38,30.38,0,0,1,1707.1,361.67Z"/><path class="cls-1" d="M1388.68,619.12a328.24,328.24,0,0,1-49.53,86.08c-10.57,12.89-22.43,25-36.3,34.57a97.91,97.91,0,0,1-22.38,11.6,60.68,60.68,0,0,1-24.69,3.56c16.64-1.44,31.33-9.43,44.12-19.2A177.79,177.79,0,0,0,1318,719.41a237.64,237.64,0,0,0,16.22-18.27c5.23-6.27,10.13-12.82,14.89-19.49s9.38-13.44,13.91-20.3Q1376.4,640.69,1388.68,619.12Z"/><path class="cls-1" d="M1497.3,428.6A128.85,128.85,0,0,0,1490,441c-2.3,4.18-4.16,8.59-6.05,13-3.83,8.74-7.2,17.69-10.43,26.68q-9.56,27-17.27,54.66l-3.82,13.82L1449,563c-2.29,9.27-4.42,18.59-6.31,28l-1.44,7-1.22,7.05-1.26,7.06-.94,7.09a169.71,169.71,0,0,0-1.92,28.61c-2.9-19.11-1-38.68,1.84-57.71a475.08,475.08,0,0,1,12.38-56.53,507.68,507.68,0,0,1,18.79-54.73,289.11,289.11,0,0,1,12.27-26.25c2.35-4.23,4.66-8.47,7.41-12.47a60.11,60.11,0,0,1,4.11-6Z"/><path class="cls-1" d="M1690.4,781.25a74,74,0,0,0,32.66-10.69c9.95-5.78,18.71-13.41,26.79-21.57,16.07-16.52,29.29-35.72,40.63-55.85A395.65,395.65,0,0,0,1819.23,630a332.24,332.24,0,0,0,9.91-33.35,199.83,199.83,0,0,0,5.47-34.45c1,23.45-3.76,46.93-10.62,69.37a329.31,329.31,0,0,1-27.92,64.77c-11.67,20.45-25.44,40-42.72,56.26-8.63,8.09-18.13,15.44-28.79,20.75S1702.14,781.85,1690.4,781.25Z"/><path class="cls-1" d="M1696.58,381.27a249.83,249.83,0,0,0-23.69,38.47A448.57,448.57,0,0,0,1654.54,461c-5.41,14-10.4,28.24-14.76,42.65s-8.39,28.9-11.76,43.56-6.42,29.4-8.82,44.24-4.25,29.78-5.41,44.76a334.48,334.48,0,0,0-.51,45,167.32,167.32,0,0,0,8.1,44.3c-6.23-13.84-9.32-29-11.24-44a293.24,293.24,0,0,1-1.36-45.61c1.29-30.43,6.14-60.58,13-90.19a536.16,536.16,0,0,1,28.15-86.63C1661.87,431.24,1676.34,403.92,1696.58,381.27Z"/><path class="cls-1" d="M952.3,941.78c-6.38,8.37-11,17.88-15.58,27.28s-8.57,19.15-12.48,28.89c-7.94,19.42-15.18,39.13-22.05,59-13.74,39.67-26.59,79.66-38,120.06q-17.8,60.4-31.34,121.92c-4.48,20.49-8.45,41.1-11.18,61.88-1.42,10.38-2.53,20.81-2.92,31.27-.15,5.23-.13,10.47.24,15.69a58.34,58.34,0,0,0,2.9,15.4c-4.08-9.79-4.59-20.62-4.84-31.11-.09-10.56.54-21.11,1.49-31.61,2.11-21,5.56-41.81,9.47-62.51s8.75-41.22,13.74-61.68,10.51-40.78,16.28-61q8.92-30.3,18.73-60.32c6.6-20,13.29-40,20.82-59.63s15.23-39.27,23.8-58.52c4.37-9.59,8.91-19.1,13.84-28.42S945.37,949.73,952.3,941.78Z"/><path class="cls-1" d="M1209.66,885.83a108,108,0,0,0-12.05,15.38c-3.66,5.39-7,11-10.17,16.69-6.33,11.4-12,23.14-17.35,35-10.78,23.74-20.3,48.06-29.21,72.58q-26.7,73.58-47.9,149-21.87,75.19-38.46,151.77c-5.52,25.5-10.47,51.14-14.14,77-1.88,12.9-3.5,25.85-4.24,38.86a188.67,188.67,0,0,0-.29,19.53c.27,6.49.85,13.05,3,19.24-2.47-6.07-3.39-12.67-4-19.18a186.51,186.51,0,0,1-.45-19.66c.27-13.11,1.41-26.18,2.82-39.2,3.05-26,7.48-51.85,12.43-77.55s10.88-51.21,17.07-76.64,12.95-50.72,20.06-75.9q11-37.7,23.19-75c8.24-24.84,16.69-49.63,26.27-74s19.55-48.6,31-72.18c5.8-11.75,11.94-23.34,18.71-34.56S1200.18,894.88,1209.66,885.83Z"/><path class="cls-1" d="M1837.56,529.89c-4-4.94-7.71-9.77-11.65-14.38a158.69,158.69,0,0,0-12.46-13,155.21,155.21,0,0,0-13.83-11.52c-4.89-3.55-10-6.8-15.46-10a51.8,51.8,0,0,1,18.09,5.76,70.66,70.66,0,0,1,15.58,11.1,71.93,71.93,0,0,1,12.1,14.77A63.29,63.29,0,0,1,1837.56,529.89Z"/><path class="cls-1" d="M1610.66,370.23c-9.22,11-16.7,23.14-23.33,35.75s-12.79,25.45-18.55,38.48c-11.42,26.1-21.56,52.78-30.72,79.77s-17.46,54.29-24.59,81.89c-3.51,13.81-6.76,27.7-9.41,41.71a315.29,315.29,0,0,0-5.6,42.42c-.8-28.7,4-57.31,10.13-85.29a783,783,0,0,1,23.39-82.8,737.07,737.07,0,0,1,32.25-79.79c6.2-13,12.91-25.67,20.37-38S1600.36,380.23,1610.66,370.23Z"/><path class="cls-1" d="M613.21,905.37c-23.71.93-47,6.15-69.22,13.91a406.33,406.33,0,0,0-64.46,28.91,627,627,0,0,0-59.88,37.61,703,703,0,0,0-55.39,44,691.56,691.56,0,0,0-51.12,48.9,630.69,630.69,0,0,0-45.38,54.22c-14,18.93-26.78,38.88-37,60.1-10.51,21.06-17.87,43.92-19.17,67.63a135.57,135.57,0,0,1,4.51-35.26,80.78,80.78,0,0,1,2.44-8.59l2.7-8.52c2.22-5.52,4.22-11.15,6.66-16.58,9.8-21.74,22.22-42.2,35.9-61.67,27.57-38.89,60.61-73.61,96.29-105.07,36-31,74.88-59.13,117.17-81.12,21.14-10.93,43.06-20.49,65.81-27.55C565.79,909.48,589.45,904.85,613.21,905.37Z"/><path class="cls-1" d="M1714,934.38c-28.09,1-55.62,7.44-81.88,16.92s-51.6,21.57-75.79,35.53c-48.38,28-93.16,62.08-133.77,100.47s-77.5,80.89-107.79,127.85c-15.11,23.48-28.4,48.2-38.5,74.25s-17.11,53.43-18.13,81.52c-.44-28.14,5.84-56.09,15.18-82.62,9.6-26.53,22.53-51.75,37.27-75.77s31.67-46.68,49.7-68.33a745.45,745.45,0,0,1,57.88-61.56,759.62,759.62,0,0,1,64.87-54.13c22.64-16.76,46.14-32.44,70.88-46s50.41-25.4,77.19-34.2C1657.87,939.79,1685.83,934,1714,934.38Z"/><path class="cls-1" d="M1121.45,1521.15a504.74,504.74,0,0,1,6.26-54.16c2.89-18,6.39-35.81,10.16-53.61,7.69-35.56,16.89-70.78,26.92-105.75s21.26-69.61,33.48-103.89,25.44-68.22,39.87-101.65,30.4-66.23,48-98.15S1323.22,941,1346,912.43c11.53-14.17,23.79-27.84,37.49-40s28.65-23.14,45.41-30.87,35.32-12,53.71-9.93A64.15,64.15,0,0,1,1508.7,840a44.26,44.26,0,0,1,18,20.09,44.48,44.48,0,0,0-18.65-19,62.47,62.47,0,0,0-25.66-7.33c-17.94-1.31-35.85,3.42-51.94,11.13s-30.71,18.68-43.92,30.89-25.15,25.85-36.33,40c-22.36,28.39-41.46,59.3-58.88,91s-32.86,64.6-47.44,97.79c-29.14,66.43-53.29,135-74.57,204.38-10.58,34.72-20.18,69.74-28.56,105.06S1124.94,1485,1121.45,1521.15Z"/><path class="cls-1" d="M1231.58,1597.37c-16.43-5.47-33.71-7.28-50.87-8.06a485.12,485.12,0,0,0-51.59.62A704.47,704.47,0,0,0,1027,1604.11q-25.24,5.3-49.93,12.8a419.56,419.56,0,0,0-48.32,17.7c-15.64,7-30.87,15.06-44.58,25.32s-25.94,23-32.22,39.23a70,70,0,0,1,12-23,116.67,116.67,0,0,1,18.25-18.72c13.52-11.08,28.72-19.91,44.43-27.4,31.51-14.95,65.09-24.86,99-32.23A604.08,604.08,0,0,1,1128.88,1585a417.05,417.05,0,0,1,52,1.24,251.76,251.76,0,0,1,25.77,3.74c4.26.82,8.48,1.89,12.65,3A117.39,117.39,0,0,1,1231.58,1597.37Z"/><path class="cls-1" d="M742.71,1385.07c-4.25,18.71-10.72,36.88-18,54.61a572.31,572.31,0,0,1-24.6,52.06,432.65,432.65,0,0,1-30.35,49,230.41,230.41,0,0,1-18.3,22.37c-6.68,6.91-13.88,13.59-22.33,18.2a108.93,108.93,0,0,0,20-20.26c5.92-7.41,11.33-15.22,16.55-23.15,10.35-15.92,19.85-32.42,28.82-49.21s17.51-33.81,25.68-51c4-8.63,8-17.29,11.8-26S739.33,1394,742.71,1385.07Z"/><path class="cls-1" d="M988,1295.84a455.07,455.07,0,0,1-15.41,52.77q-9.07,26-20.35,51.11a437.69,437.69,0,0,1-25.47,48.87A211.53,211.53,0,0,1,911,1471.25c-5.92,7-12.33,14-20.43,18.46a69.59,69.59,0,0,0,9.81-9.44,124.22,124.22,0,0,0,8.1-10.91c5.11-7.48,9.65-15.34,14-23.29,8.66-16,16.52-32.38,24-49S961,1363.69,968,1346.83,981.7,1313,988,1295.84Z"/><path class="cls-1" d="M1844.69,820.3c1.62,3.72,1,8.12-.18,11.9a31.85,31.85,0,0,1-5.93,10.41,30.61,30.61,0,0,1-9.36,7.54c-3.59,1.81-7.82,2.88-11.75,2a42,42,0,0,0,9-6.21,74,74,0,0,0,7.25-7.48,81.45,81.45,0,0,0,6.27-8.38A36.64,36.64,0,0,0,1844.69,820.3Z"/><path class="cls-1" d="M807.83,1659.69c-2-4.23-1.87-9.33-.75-13.88a36.45,36.45,0,0,1,6-12.75,35.83,35.83,0,0,1,10.32-9.6c4-2.44,8.79-4,13.45-3.58a48.88,48.88,0,0,0-10.44,7.59,69.75,69.75,0,0,0-8.15,9.38,71.48,71.48,0,0,0-6.47,10.61A41.91,41.91,0,0,0,807.83,1659.69Z"/><path class="cls-1" d="M388.2,1458.47c3.13,3.57,4.29,8.58,4.59,13.23a44.15,44.15,0,0,1-1.44,13.94,48.61,48.61,0,0,1-5.36,12.89c-2.4,3.93-5.56,7.92-9.94,9.8,2.55-3.87,3.94-7.87,5.42-11.94s2.57-8.21,3.67-12.34a119.5,119.5,0,0,0,2.67-12.53A46.49,46.49,0,0,0,388.2,1458.47Z"/><path class="cls-1" d="M648.38,709.53a96.35,96.35,0,0,0,14.14-3.88q6.83-2.42,13.44-5.38c4.43-1.91,8.77-4,13.07-6.25a86.38,86.38,0,0,0,12.46-7.71c-2.37,4.52-6.28,8.09-10.32,11.1A69.88,69.88,0,0,1,678,705a66.84,66.84,0,0,1-14.49,4.54C658.56,710.42,653.32,710.77,648.38,709.53Z"/><path class="cls-1" d="M1638.36,1170c3.2,5.23,6.3,10.26,9.56,15.17s6.66,9.65,10.2,14.29,7.23,9.14,11.21,13.4a86.62,86.62,0,0,0,13.2,11.78c-6.1-1.05-11.71-4.3-16.57-8.08a72.54,72.54,0,0,1-12.93-13.2,82.33,82.33,0,0,1-9.47-15.78A58.44,58.44,0,0,1,1638.36,1170Z"/><path class="cls-1" d="M1619.4,1521.11a5.91,5.91,0,0,1-.38,4,7.4,7.4,0,0,1-2.09,2.72,7.26,7.26,0,0,1-3.14,1.48,5.24,5.24,0,0,1-4-.66,26.38,26.38,0,0,1,1.61-3.21,8.77,8.77,0,0,1,1.89-2.1,9,9,0,0,1,2.5-1.42A15,15,0,0,1,1619.4,1521.11Z"/><path class="cls-1" d="M1127.13,280.63a4.82,4.82,0,0,1,2.23,4,7.47,7.47,0,0,1-1.1,4.26,7.63,7.63,0,0,1-3.14,2.9,5,5,0,0,1-4.54.17c.76-1.49,1-2.5,1.44-3.49a18.6,18.6,0,0,1,1.31-2.59,20.73,20.73,0,0,1,1.62-2.25A22.06,22.06,0,0,0,1127.13,280.63Z"/><path class="cls-1" d="M1579.1,1389.6c1.06-.74,2.32-.54,3.43-.52a18.8,18.8,0,0,1,3.18.67,24.15,24.15,0,0,1,5.56,2.64,22.86,22.86,0,0,1,8.37,9.06,18.82,18.82,0,0,1-6.22-1.45,31.24,31.24,0,0,1-5.27-2.74,36,36,0,0,1-4.65-3.55c-.74-.64-1.42-1.36-2.13-2.05A11.67,11.67,0,0,0,1579.1,1389.6Z"/><path class="cls-1" d="M1647.5,1442.16A102.63,102.63,0,0,1,1635,1451c-4.3,2.69-8.74,5.07-13.22,7.4s-9.08,4.4-13.77,6.29a126.09,126.09,0,0,1-14.4,5.09,84.83,84.83,0,0,1,12.34-9.1c4.29-2.72,8.74-5.11,13.22-7.43s9.09-4.39,13.8-6.25A102.46,102.46,0,0,1,1647.5,1442.16Z"/><path class="cls-1" d="M1552.14,1490.72a67.59,67.59,0,0,1-9.76,7.46c-3.38,2.23-6.91,4.17-10.45,6.07s-7.21,3.54-10.93,5l-5.55,2.27a33.24,33.24,0,0,1-6,1.84c1.47-1.53,3-2.83,4.46-4.25a47.43,47.43,0,0,1,4.89-3.82,99.28,99.28,0,0,1,10.45-6.22,113.76,113.76,0,0,1,11.06-4.94A65.64,65.64,0,0,1,1552.14,1490.72Z"/><path class="cls-1" d="M1597.57,1407.45c-2.11,12.19-4.78,24.24-7.64,36.24s-6,23.92-9.19,35.83-6.71,23.73-10.42,35.51-7.56,23.52-12,35.11c2.11-12.19,4.77-24.23,7.63-36.23s6-23.93,9.2-35.83,6.72-23.74,10.43-35.51S1593.14,1419,1597.57,1407.45Z"/><path class="cls-1" d="M1120.08,234.56c-6.4,7.69-13.16,14.95-20.07,22.06s-14,14-21.13,20.86-14.5,13.47-22,19.94-15.12,12.85-23.17,18.8c6.35-7.65,13.11-14.91,20-22s14-14,21.18-20.89,14.54-13.49,22.06-20S1112.07,240.48,1120.08,234.56Z"/><path class="cls-1" d="M1095.66,286.3a111.07,111.07,0,0,1,2.92,12.18c.79,4.05,1.3,8.14,1.77,12.23s.66,8.22.63,12.37a61.5,61.5,0,0,1-1,12.56,99.06,99.06,0,0,1-5.33-24.36,108.45,108.45,0,0,1-.5-12.43A51,51,0,0,1,1095.66,286.3Z"/><path class="cls-1" d="M1021.45,213a47.09,47.09,0,0,1,15.66,6.55,51.66,51.66,0,0,1,6.75,5,25.06,25.06,0,0,1,5.62,6.69,56.91,56.91,0,0,1-8.1-2.88,59.07,59.07,0,0,1-7.36-4,56.62,56.62,0,0,1-6.75-5A31.13,31.13,0,0,1,1021.45,213Z"/><path class="cls-1" d="M1056.61,234.78a6.28,6.28,0,0,1,3.31-.51,5.11,5.11,0,0,1,4.09,3.08,4.46,4.46,0,0,1,.15,3.5,18.33,18.33,0,0,1-3.13-.07,5,5,0,0,1-2.14-.92,5.29,5.29,0,0,1-1.53-1.87A7.41,7.41,0,0,1,1056.61,234.78Z"/><path class="cls-1" d="M1133.1,211.62a11.07,11.07,0,0,1,4.76,5.37,5.8,5.8,0,0,1,.36,2.35,5,5,0,0,1-.3,1.46l-.38,1a13.87,13.87,0,0,1-1.94,3.14,19.84,19.84,0,0,1-5.11,4.47,16.32,16.32,0,0,1-6.52,2.37,24.74,24.74,0,0,1,3.34-5.89,55,55,0,0,1,3.94-4.66l1.86-2,.4-.44a.11.11,0,0,0,.13-.08,1.83,1.83,0,0,0,.24-.85A30.91,30.91,0,0,0,1133.1,211.62Z"/><path class="cls-1" d="M204,568.81c-8.13,5.57-16.17,11.26-24.42,16.6S163,596.06,154.69,601.27s-16.77,10.25-25.28,15.17-17.11,9.69-25.73,14.49c7.64-6.26,15.7-12,23.86-17.46s16.44-10.82,24.79-16,16.82-10.21,25.4-15S195,572.88,204,568.81Z"/><path class="cls-1" d="M184.15,627.1a8.37,8.37,0,0,1,2.15,4,10.89,10.89,0,0,1,.2,4.36,10,10,0,0,1-1.59,4.18,5.94,5.94,0,0,1-3.8,2.8c.16-1.67.11-2.86.2-4.11a29.21,29.21,0,0,1,.33-3.62,23.83,23.83,0,0,1,.83-3.65A18,18,0,0,1,184.15,627.1Z"/><path class="cls-1" d="M162.36,533.5a10.48,10.48,0,0,1,6.94,4.54,10.93,10.93,0,0,1,1.49,4.24,16.54,16.54,0,0,1-.12,4.31,59.86,59.86,0,0,1-1.79,7.64,40,40,0,0,1-2.94,7.35A78.92,78.92,0,0,1,167,546a13.92,13.92,0,0,0-.38-6.64C165.94,537.32,164.22,535.5,162.36,533.5Z"/></svg>