<svg width="1024" height="682" viewBox="0 0 1024 682" fill="none" xmlns="http://www.w3.org/2000/svg">
<rect width="1024" height="682" fill="#FFFCF8"/>
<path d="M503.823 203.873C503.823 218.299 514.115 228.415 528.804 228.415C546.485 228.415 560.383 204.841 569.882 181.531C569.619 183.818 569.443 185.929 569.443 187.776C569.443 205.105 579.382 215.484 596.095 215.484C615.886 215.484 631.368 184.082 638.845 165.258C648.344 141.508 654.062 116.439 655.733 100.078C671.302 100.782 685.024 102.365 685.024 117.319C685.024 134.383 677.02 149.953 669.191 164.906C661.187 180.3 652.918 196.221 652.918 214.253C652.918 238.442 662.33 257.266 679.395 269.229C658.548 298.432 634.358 322.71 597.502 322.71C575.16 322.71 560.646 309.867 560.646 289.988C560.646 278.377 566.628 264.743 583.429 264.743C596.711 264.743 601.461 275.21 601.461 284.182C601.461 293.243 596.095 297.377 595.919 297.553C595.479 297.905 595.303 298.52 595.479 299.048C595.655 299.576 596.183 299.928 596.799 299.928C597.063 299.928 621.428 298.344 621.428 272.659C621.428 263.511 617.47 255.155 610.257 249.174C603.484 243.544 594.424 240.377 584.836 240.377C561.174 240.377 543.934 257.53 543.934 281.104C543.934 307.58 565.484 325.349 597.59 325.349C639.548 325.349 668.84 303.886 692.501 276.442C704.288 281.456 718.538 284.095 734.899 284.095C760.144 284.095 785.917 275.386 805.796 260.257C826.995 243.984 838.694 222.345 838.694 199.387C838.694 176.781 823.301 162.179 799.463 162.179C749.852 162.179 722.936 203.433 696.899 243.368C691.71 251.285 686.52 259.289 681.066 267.03C670.423 259.201 662.682 247.239 662.682 228.942C662.682 211.526 673.765 194.022 684.497 177.045C695.316 160.068 706.399 142.476 706.399 124.796C706.399 98.3191 680.538 97.8793 657.668 97.5274C657.053 97.5274 656.525 97.5274 655.909 97.5274C656.085 95.3284 656.173 93.2173 656.173 91.4581C656.173 76.3286 648.168 67.2686 634.71 67.2686C625.034 67.2686 618.437 73.25 618.437 82.2221C618.437 93.0414 625.738 97.0876 635.326 98.7589C640.604 99.7265 646.585 99.9904 652.918 100.078H653.006C651.335 116.175 645.618 141.244 636.294 164.466C629.081 182.587 614.127 213.021 595.919 213.021C587.827 213.021 585.012 205.281 585.012 198.068C585.012 180.739 600.053 147.05 609.025 126.819C611.84 120.485 614.039 115.472 614.919 113.009C615.095 112.393 614.831 111.689 614.215 111.425C613.599 111.162 612.896 111.425 612.544 111.953C612.368 112.217 609.025 117.935 600.053 117.935C590.817 117.935 588.794 118.198 585.716 124.884C581.493 134.12 575.776 151.8 572.345 167.105C563.373 193.054 548.156 225.952 528.628 225.952C521.679 225.952 518.337 222.257 518.337 214.517C518.337 203.961 525.726 192.174 533.554 179.596C541.823 166.402 550.267 152.767 550.267 139.749C550.267 124.972 539.711 115.12 523.878 115.12C513.499 115.12 508.573 125.059 508.397 125.499C508.309 125.675 508.309 125.851 508.309 126.027C508.309 126.467 508.573 126.995 509.013 127.171C509.629 127.434 510.42 127.171 510.772 126.555C510.772 126.467 515.17 117.583 523.966 117.583C524.054 117.583 524.142 117.583 524.23 117.583C526.341 117.583 531.443 118.111 531.443 128.314C531.443 139.045 525.022 150.832 518.337 163.235C511.3 176.605 503.823 190.327 503.823 203.873ZM621.252 82.1341C621.252 74.5694 626.618 69.7315 634.886 69.7315C646.673 69.7315 653.798 77.824 653.798 91.3701C653.798 93.1293 653.71 95.1525 653.534 97.4395C653.446 97.4395 653.358 97.4395 653.27 97.4395C652.918 97.4395 652.567 97.4395 652.215 97.4395C645.969 97.1756 639.812 96.9997 634.71 95.9441C626.53 94.0969 621.252 90.4025 621.252 82.1341ZM836.231 199.299C836.231 221.466 824.884 242.401 804.301 258.146C784.949 273.011 759.704 281.456 734.987 281.456C726.806 281.456 709.83 280.576 694.348 274.243C706.399 259.905 717.043 244.16 727.246 229.03C750.556 194.461 770.699 164.642 799.551 164.642C821.893 164.73 836.231 178.276 836.231 199.299Z" fill="#1A1A1A"/>
<path d="M371.088 299.751C404.602 299.751 435.388 280.312 457.995 245.039C477.698 214.34 489.397 173.966 489.397 137.11C489.397 88.8188 465.823 40 413.31 40H413.222C388.241 40 365.723 54.9535 355.783 77.9995C355.695 78.1754 355.695 78.3514 355.695 78.5273C355.695 79.0551 355.959 79.4949 356.487 79.6708C357.102 79.9347 357.894 79.6708 358.158 78.9671C367.658 56.8007 389.296 42.5509 413.222 42.5509C413.926 42.5509 414.542 42.5509 415.245 42.5509C434.861 43.0787 448.407 50.9073 456.587 66.4765C463.36 79.4069 466.527 97.4391 466.527 123.388C466.527 157.341 457.027 200.442 442.337 233.252C429.319 262.368 406.361 297.025 371 297.025C327.371 297.025 320.862 250.141 320.862 222.169C320.862 175.197 342.765 83.1893 393.255 83.1893C393.255 83.1893 393.255 83.1893 393.343 83.1893C413.222 83.1893 422.546 94.4484 422.546 118.462C422.546 140.98 416.477 170.447 406.977 193.493C396.07 220.234 382.084 235.363 367.482 236.419C366.954 236.419 366.426 236.419 365.899 236.419C342.765 236.419 340.566 212.757 340.478 211.79C340.478 211.702 340.478 211.614 340.39 211.526C340.214 210.998 339.686 210.558 339.07 210.646C338.367 210.734 337.839 211.35 337.927 212.053C337.927 212.053 337.927 212.053 337.927 212.141C338.103 213.725 341.005 239.146 365.899 239.146C366.514 239.146 367.042 239.146 367.658 239.058C407.768 237.386 439.875 180.211 439.875 132.8C439.875 117.934 435.74 105.18 427.912 95.8558C419.643 85.9161 407.681 80.7263 393.343 80.7263C393.343 80.7263 393.343 80.7263 393.255 80.7263C365.899 80.7263 340.742 96.2076 322.182 124.355C306.085 148.809 296.497 180.739 296.497 209.766C296.497 234.572 303.446 257.09 316.024 273.275C329.658 290.515 348.658 299.751 371.088 299.751Z" fill="#1A1A1A"/>
<path d="M930.966 351.737C928.239 346.283 924.896 341.094 921.642 335.992C914.077 324.117 906.864 312.946 906.864 299.4C906.864 291.395 909.327 281.807 920.586 281.192C921.026 281.192 921.466 281.192 921.906 281.192C930.35 281.192 933.429 288.053 936.683 295.265C939.674 301.951 942.752 308.812 950.405 308.812C965.007 308.812 968.086 286.293 968.261 285.326C968.349 284.622 967.91 284.006 967.206 283.918C966.502 283.83 965.886 284.27 965.711 284.974C965.711 285.062 964.303 292.802 952.868 292.802C946.799 292.802 943.456 289.812 939.586 286.469C935.452 282.775 930.79 278.641 921.994 278.641C921.466 278.641 920.85 278.641 920.322 278.729C898.772 279.784 889.975 300.719 881.443 321.126C873.526 339.95 866.138 357.63 849.337 357.63C848.633 357.63 848.018 358.246 848.018 358.95C848.018 359.654 848.633 360.269 849.337 360.269C867.809 360.269 875.55 341.709 883.818 322.182C887.688 312.946 891.647 303.534 896.836 296.057C894.549 300.983 893.318 306.525 893.318 312.066C893.318 326.756 899.123 337.751 904.753 348.394C905.105 349.01 905.457 349.714 905.809 350.33C892.702 351.561 880.124 356.311 870.448 363.876C858.397 373.288 851.712 386.042 851.712 399.94C851.712 417.796 864.466 429.759 883.378 429.759C899.299 429.759 913.021 424.218 922.873 413.838C932.197 404.074 937.299 390.616 937.299 375.926C937.299 368.362 935.364 361.413 932.373 354.992C962.368 362.556 981.368 387.625 981.368 422.018C981.368 472.157 942.84 505.758 885.577 505.758C870.448 505.758 853.559 503.031 836.055 499.073C832.888 498.369 829.722 497.578 826.555 496.786C826.907 495.379 827.171 493.883 827.522 492.476C833.416 463.361 832.009 425.449 830.689 392.023C829.897 371.44 829.106 351.385 830.161 335.024C836.846 332.385 860.156 322.094 860.156 304.589C860.156 298.256 856.11 293.946 850.129 293.946C838.254 293.946 830.689 303.27 825.499 318.311C822.948 313.298 817.407 306.964 806.148 306.964C777.648 306.964 758.736 331.066 750.908 355.695C750.82 355.783 750.732 355.959 750.732 356.047C750.556 356.751 729.093 423.954 701.561 423.954C696.283 423.954 692.853 420.787 692.853 416.037C692.853 406.537 701.737 394.75 710.269 383.315C719.593 371.001 729.181 358.246 729.181 346.723C729.181 334.233 719.593 325.788 705.255 325.788C685.552 325.788 671.038 351.385 662.242 373.2C662.594 370.561 662.858 368.186 662.858 366.339C662.858 353.584 653.886 339.774 639.372 339.774C620.196 339.774 610.521 367.394 602.692 389.561C602.604 389.912 602.428 390.176 602.34 390.528C602.164 390.88 602.076 391.32 601.9 391.672V391.76V391.848V391.936C601.9 392.023 601.9 392.023 601.812 392.111C601.812 392.111 601.812 392.111 601.812 392.199C601.812 392.199 601.812 392.199 601.812 392.287C601.812 392.375 601.812 392.375 601.724 392.463C601.724 392.463 601.724 392.463 601.724 392.551C601.724 392.551 601.724 392.551 601.724 392.639C601.724 392.639 601.724 392.639 601.724 392.727V392.815C601.724 392.903 601.724 392.903 601.636 392.991C601.021 394.662 600.493 396.334 599.877 397.917C599.261 399.588 598.558 401.435 597.854 403.459C590.993 422.722 580.526 451.925 562.405 451.925C562.317 451.925 562.142 451.925 562.054 451.925C559.679 451.925 553.785 451.31 553.785 438.907C553.785 419.204 567.331 388.593 576.391 368.362C579.294 361.765 581.845 356.047 583.428 351.913C583.692 351.297 583.34 350.593 582.725 350.242C582.109 349.978 581.317 350.242 581.053 350.857C580.965 351.121 578.151 356.663 568.299 356.663C561.702 356.663 556.512 356.663 553.961 362.908C545.957 382.7 537.776 411.815 537.776 429.231C537.776 445.24 546.748 454.388 562.405 454.388C582.285 454.388 593.104 424.218 600.229 404.25C600.317 404.074 600.317 403.986 600.405 403.81C601.021 402.051 601.636 400.38 602.252 398.797C603.22 396.246 604.187 393.431 605.243 390.528C612.808 369.065 622.132 342.413 639.46 342.413C645.002 342.413 647.465 345.492 647.465 352.441C647.465 366.778 635.238 398.797 626.354 422.106C622.659 431.87 619.405 440.227 617.821 445.504C617.645 446.208 617.997 446.912 618.613 447.088C619.317 447.351 620.02 447 620.196 446.296C620.196 446.208 624.155 436.356 633.742 436.356C638.932 436.356 644.562 435.916 646.409 431.167C648.872 425.009 654.15 408.208 658.108 392.639C664.705 371.704 681.154 328.163 705.255 328.163C712.116 328.163 712.644 334.408 712.644 336.256C712.644 345.14 705.343 354.728 697.603 364.931C688.543 376.894 679.131 389.297 679.131 402.843C679.131 416.213 688.807 426.241 701.561 426.241C722.232 426.241 738.857 393.343 747.301 372.672C747.037 375.135 746.949 377.598 746.949 379.885C746.949 399.412 758.736 411.551 777.824 411.551C796.824 411.551 809.226 388.241 816.615 366.954C815.384 379.357 814.416 392.463 813.449 405.833C811.513 432.662 809.49 460.282 804.916 482.712C804.388 485.175 803.861 487.638 803.333 490.101C796.032 487.99 788.643 485.791 781.079 483.592C773.338 481.305 765.597 479.018 757.769 476.731C751.699 455.092 731.204 441.81 702.089 441.81C685.288 441.81 669.895 445.944 658.9 453.509C655.205 456.06 651.951 458.962 649.4 462.129C631.983 464.592 617.03 470.134 605.507 478.578C588.266 491.244 579.206 509.804 579.206 532.499C579.206 534.434 579.294 536.281 579.382 538.04C568.035 534.346 556.864 530.3 545.781 526.253C541.295 524.67 536.896 522.999 532.498 521.503C532.586 519.744 532.586 517.897 532.586 516.138C532.586 495.467 522.735 469.43 513.147 444.273C503.383 418.5 493.267 391.848 493.267 370.297C493.267 363.524 493.971 354.904 496.874 346.899C508.309 349.01 518.864 350.593 527.397 350.593C540.063 350.593 548.595 344.348 548.595 335.024C548.595 326.58 541.383 320.95 530.739 320.95C527.045 320.95 523.614 321.302 520.36 322.094C509.98 324.469 501.536 330.274 494.939 337.927C491.508 336.256 487.99 334.408 484.559 332.649C470.221 325.26 455.444 317.52 442.513 317.52C410.847 317.52 389.56 359.741 388.681 361.589C388.329 362.204 388.593 362.996 389.296 363.348C389.912 363.7 390.704 363.436 391.056 362.82C391.144 362.556 404.25 337.751 435.652 337.751C449.638 337.751 467.319 341.182 484.471 344.524C486.142 344.876 487.902 345.228 489.573 345.492C481.393 358.51 477.17 374.607 476.643 388.505C471.189 416.741 456.323 477.346 429.055 477.346C420.435 477.346 418.588 469.782 418.588 463.361C418.588 445.944 434.333 410.144 442.777 390.968C445.592 384.459 447.703 379.797 448.495 377.334C448.671 376.718 448.407 376.014 447.791 375.751C447.175 375.487 446.472 375.751 446.12 376.278C446.12 376.366 442.689 382.26 433.629 382.26C424.393 382.26 422.37 382.524 419.291 389.209C415.597 397.301 410.671 412.519 407.153 426.768C398.181 453.245 382.084 490.277 362.204 490.277C355.255 490.277 351.913 486.582 351.913 478.842C351.913 468.286 359.301 456.5 367.13 443.921C375.398 430.727 383.843 417.093 383.843 404.074C383.843 389.561 372.584 379.445 356.487 379.445C344.612 379.445 341.885 390.968 341.885 391.144C341.885 391.232 341.885 391.32 341.885 391.408C341.885 392.023 342.325 392.551 342.941 392.639C343.644 392.815 344.348 392.375 344.436 391.672C344.524 391.32 346.635 381.996 356.487 381.996C363.436 381.996 364.931 388.065 364.931 393.167C364.931 403.546 358.686 414.982 352.001 427.12C344.7 440.49 337.135 454.3 337.135 468.198C337.135 482.624 347.427 492.74 362.116 492.74C379.621 492.74 393.958 467.583 403.634 443.657C403.106 447.264 402.755 450.518 402.755 453.157C402.755 470.397 412.079 479.809 428.879 479.809C455.004 479.809 469.958 431.166 476.819 400.028C478.666 422.458 487.374 445.856 495.73 468.55C501.536 484.208 507.165 499.425 510.596 513.939C487.022 506.374 463.624 500.832 439.171 500.832C422.458 500.832 406.537 502.592 392.111 505.846C386.482 502.943 379.709 501.36 372.056 501.36C351.033 501.36 335.2 514.818 335.2 532.674C335.2 533.378 335.2 533.994 335.288 534.698C323.765 546.748 317.783 561.614 317.783 578.503C317.783 582.725 318.223 586.859 319.103 590.817C290.955 584.572 273.715 563.813 273.715 534.522C273.715 509.277 288.492 480.249 302.83 452.189C317.432 423.514 332.561 393.959 332.561 367.482C332.561 342.941 319.631 327.02 299.575 327.02C283.214 327.02 267.733 341.182 253.307 369.241C254.539 362.468 255.243 356.575 255.243 352.001C255.243 331.154 246.974 308.9 223.752 308.9C204.225 308.9 185.929 328.603 169.656 367.394C169.216 368.45 168.776 369.505 168.336 370.473C169.304 364.491 169.832 359.214 169.832 354.904C169.832 338.367 166.753 325.348 160.596 316.024C153.559 305.293 142.651 299.839 128.314 299.839C73.5134 299.839 39.9999 366.778 39.9999 414.806C39.9999 441.106 53.1942 467.759 78.4393 467.759C96.6474 467.759 107.906 448.319 107.906 430.287C107.906 405.13 89.4345 397.037 89.1706 396.949C88.5549 396.685 87.7632 396.949 87.4993 397.653C87.4114 397.829 87.4114 398.005 87.4114 398.181C87.4114 398.709 87.6753 399.148 88.203 399.324C88.9067 399.588 105.356 406.889 105.356 430.287C105.356 447.088 95.0641 465.12 78.4393 465.12C61.0228 465.12 58.6479 444.801 58.6479 422.898C58.6479 404.162 64.2774 373.464 76.856 346.987C86.5318 326.668 103.245 302.39 128.05 302.39C144.235 302.39 151.799 311.099 151.799 329.746C151.799 383.579 94.5363 527.837 83.8929 554.225C82.6614 556.688 82.1337 558.447 82.1337 558.535C81.9577 559.151 82.3096 559.855 82.9253 560.119C83.1012 560.207 83.1892 560.207 83.3651 560.207C83.8929 560.207 84.3327 559.943 84.5966 559.415C84.6846 559.239 85.3003 557.568 86.5318 554.665C89.1706 549.563 94.8002 541.91 105.268 541.91C112.832 541.91 117.055 539.184 119.342 532.762C119.869 531.355 120.485 529.596 121.189 527.485C130.601 500.744 155.23 431.079 165.258 385.338C176.957 352.441 196.924 311.362 223.576 311.362C233.34 311.362 237.122 317.344 237.122 332.737C237.122 361.061 209.414 436.884 189.183 492.3C179.244 519.392 170.711 542.79 167.809 554.049C167.633 554.753 168.072 555.457 168.776 555.633C168.864 555.633 168.952 555.633 169.128 555.633C169.744 555.633 170.183 555.281 170.359 554.665C170.359 554.577 170.359 554.577 170.447 554.489C170.975 552.642 175.373 537.952 190.942 537.952C191.822 537.952 192.614 537.952 193.317 538.04C197.188 538.128 200.53 538.304 202.114 533.554C205.016 524.67 209.151 512.531 213.988 498.545C226.919 460.898 243.456 412.87 251.108 379.797C263.687 352.353 280.048 329.571 299.575 329.571C311.45 329.571 315.76 340.83 315.76 351.297C315.76 374.871 300.631 402.843 286.029 429.935C270.9 457.995 255.243 487.022 255.243 512.443C255.243 536.105 263.687 557.304 278.992 572.345C289.988 583.165 304.149 590.377 319.983 593.544C323.501 606.211 331.418 617.03 343.644 625.386C358.686 635.678 379.005 641.395 400.907 641.395H400.995H401.083H401.171H401.259H401.347C406.977 641.395 412.43 641.131 417.796 640.604C448.935 637.525 475.763 626.002 496.17 606.65C517.809 586.155 530.211 558.799 532.498 526.957C539.271 529.86 546.132 532.85 553.081 535.841C562.317 539.887 571.729 543.934 581.141 547.804C590.201 588.442 634.974 609.641 679.219 609.641C757.153 609.641 809.05 570.41 826.203 498.985C829.37 499.777 832.448 500.48 835.527 501.272C853.295 505.406 870.184 508.045 885.841 508.045C944.688 508.045 984.27 473.3 984.27 421.667C984.007 385.25 963.336 358.95 930.966 351.737ZM854.263 399.676C854.263 372.32 880.739 354.728 907.04 352.529C911.966 362.116 916.452 372.408 916.452 385.954C916.452 401.259 912.142 426.856 883.378 426.856C865.698 426.944 854.263 416.213 854.263 399.676ZM583.868 549.035C612.896 560.734 643.066 570.146 675.436 570.146C725.751 570.146 759.616 538.304 759.616 490.893C759.616 487.022 759.264 483.416 758.472 479.897C765.421 481.92 772.37 483.944 779.319 485.967C787.06 488.254 794.889 490.541 802.629 492.74C783.981 572.785 746.598 607.09 678.955 607.178C678.955 607.178 678.955 607.178 678.867 607.178C636.469 607.178 593.456 587.299 583.868 549.035ZM322.533 594.16C324.381 594.424 326.14 594.688 327.987 594.952C331.154 595.303 334.408 595.479 337.839 595.479H337.927C337.927 595.479 337.927 595.479 338.015 595.479C347.163 595.479 355.519 594.336 362.908 592.313C372.32 589.85 381.028 585.979 388.329 580.878C402.931 570.674 411.023 556.248 411.023 540.239C411.023 525.813 405.306 514.466 395.366 507.869C408.912 505.054 423.69 503.471 439.171 503.471C464.24 503.471 487.902 509.804 511.651 518.689C513.147 525.989 514.026 533.114 514.026 540.063C514.026 583.165 491.068 615.271 452.717 629.96C437.148 635.678 419.643 638.844 400.819 638.844C400.819 638.844 400.819 638.844 400.732 638.844C379.357 638.844 359.565 633.303 344.964 623.363C333.529 615.623 326.052 605.683 322.533 594.16ZM342.413 551.674C351.297 560.382 364.931 560.295 365.547 560.207C366.163 560.207 366.602 559.767 366.778 559.239C366.954 558.711 366.69 558.095 366.162 557.832C365.899 557.656 359.038 553.521 359.038 542.174C359.038 529.86 366.25 521.943 377.422 521.943C390.616 521.943 397.477 533.642 397.477 545.165C397.477 567.947 383.843 584.044 360.709 590.114C353.408 591.873 345.755 592.84 337.927 592.84C337.927 592.84 337.927 592.84 337.839 592.84C337.839 592.84 337.839 592.84 337.751 592.84C332.561 592.84 327.547 592.401 322.709 591.609C322.357 591.521 322.094 591.521 321.742 591.433C320.774 587.299 320.246 582.989 320.246 578.503C320.246 563.109 325.436 549.475 335.552 538.128C336.519 543.582 338.718 548.068 342.413 551.674ZM581.845 532.499C581.845 496.258 606.298 471.717 647.201 465.12C642.803 471.629 640.428 479.194 640.428 487.462C640.428 507.781 653.71 521.503 673.413 521.503C683.793 521.503 691.797 518.249 697.075 511.915C707.191 499.777 703.936 480.865 703.76 479.985C703.672 479.37 703.056 478.93 702.441 478.93C701.825 478.93 701.297 479.458 701.209 480.161C701.121 480.865 699.714 496.962 681.154 496.962C668.839 496.962 662.154 487.11 662.154 477.874C662.154 472.597 663.386 467.671 665.585 463.361C667.168 463.273 668.839 463.273 670.423 463.273C696.107 463.273 725.839 470.485 755.746 479.018C756.625 482.712 757.065 486.582 757.065 490.805C757.065 536.985 708.246 553.433 662.594 553.433C634.358 553.433 607.794 547.1 582.109 538.92C581.933 536.809 581.845 534.698 581.845 532.499ZM777.736 409.088C768.06 409.088 766.037 399.06 766.037 390.704C766.037 379.885 769.819 359.478 777.12 341.445C781.958 329.395 792.162 309.251 806.324 309.251C818.374 309.251 822.948 317.256 824.444 321.566C821.805 330.45 819.782 341.006 818.286 352.617C811.865 375.575 799.023 409.088 777.736 409.088ZM830.337 331.858C831.481 317.52 834.12 306.349 839.661 300.631C842.476 297.728 845.906 296.321 850.129 296.321C854.703 296.321 857.605 299.488 857.605 304.413C857.605 319.015 837.726 328.691 830.337 331.858ZM670.423 460.722C669.279 460.722 668.224 460.722 667.08 460.81C673.589 450.694 686.256 444.449 702.089 444.449C729.709 444.449 748.797 456.236 754.954 476.027C725.487 467.671 696.283 460.722 670.423 460.722ZM499.777 340.39C503.207 334.233 508.309 329.043 515.874 326.14C520.36 324.557 525.286 323.589 530.651 323.589C538.304 323.589 545.957 327.196 545.957 335.112C545.957 342.853 538.48 348.043 527.309 348.043C518.776 348.043 509.364 344.788 499.777 340.39Z" fill="#1A1A1A"/>
</svg>
