<?xml version="1.0" encoding="utf-8"?>
<!-- Generator: Adobe Illustrator 21.1.0, SVG Export Plug-In . SVG Version: 6.00 Build 0)  -->
<svg version="1.1" id="Layer_1" xmlns="http://www.w3.org/2000/svg" xmlns:xlink="http://www.w3.org/1999/xlink" x="0px" y="0px"
	 viewBox="0 0 1920 700" style="enable-background:new 0 0 1920 700;" xml:space="preserve">
<style type="text/css">
	.st0{fill:#FFFCF8;}
	.st1{fill:#1A1A1A;}
</style>
<rect x="-8.2" y="-11" class="st0" width="1936.3" height="722"/>
<g>
	<path class="st1" d="M355.5,95.4C235,95.4,81.7,270.6,81.7,370.6c0,47.7,50.4,67.7,61.9,71.6c0.6,0.2,1.2-0.5,0.7-1.1
		c-2.8-3.7-8.4-13.2-8.4-30.3c0-92.4,137.5-268.8,244.7-268.8c29.6,0,45.5,20.6,45.5,51c0,78-88.6,282.1-156.2,282.1
		c-6.3,0-11.5-1.5-15.9-3.5c-0.3-0.2-0.5-0.6-0.3-0.9c40.2-91,105.5-215.5,105.5-243.2c0-17.6-32.7-29.7-47.5-38.7
		c-0.4-0.3-1,0-1,0.6c-2.2,47.7-133.4,311.3-133.4,347.6c0,14.6,24.4,50,39,50c7.2,0,14-5.8,18.8-11.2c0.4-0.4,0.1-1.1-0.5-1.1
		c-5.5-0.4-11.6-6.3-11.6-14c0-13.7,9.5-40.6,23.6-73.4c0.2-0.4,0.7-0.6,1.1-0.2c13.9,12.7,33.5,27.8,48.3,27.8
		c78.8,0,182.4-209.7,182.4-299.6C478.4,161.2,408.9,95.4,355.5,95.4z"/>
	<path class="st1" d="M1806.7,355.9c-0.4-0.4-1.1-0.1-1.1,0.5c-1.7,64.2-104.9,188.9-166.1,188.9c-9.9,0-18-2.6-24.2-5.8
		c-0.2-0.1-0.3-0.2-0.3-0.4c-2.9-8.1-5.1-18.4-5.1-31.7c0-15.5,2.9-35.2,8.3-56.6c0.2-0.6,1-0.7,1.3-0.2c7.9,15,19.5,28.3,35.8,28.3
		c43.7,0,114.9-123.1,114.9-169.4c0-20.7-13.8-29.9-25.2-34c-0.2-0.1-0.3-0.2-0.4-0.3c-1.4-3.2-15.1-33.4-40.3-33.4
		c-30.4,0-59.6,30.2-82.9,70.2l0,0c-0.1,0.1-0.1,0.2-0.2,0.3c-3.4,5.9-6.8,11.9-9.9,18.1c-28,51.8-75.8,140.8-121.2,167
		c0-0.9,0-1.9,0-2.9c0-41.4,88.3-188,88.3-221.7c0-23.4-34.8-32.7-40.6-34.1c-0.4-0.1-0.8,0.2-0.8,0.6c-0.9,13.5-24.5,32.1-49,40
		c-0.5,0.2-1-0.4-0.9-0.9c12.7-36.9,20.8-68,20.8-83.5c0-20.6-27.3-46.4-45.5-46.4c-31,0-58.8,56.1-58.8,90.2
		c0,33.1,15.5,55.9,45.1,63c0.4,0.1,0.6,0.5,0.5,0.9c-33.5,85-84.4,178.3-114.1,191.9c-0.2,0.1-0.5,0.1-0.7,0
		c-13.1-9.1,44.3-182.2,58.5-189.9c0.4-0.2,0.4-0.7,0.1-1c-5.1-5.1-33.1-32.5-41.5-24.1c-1.3,1.3-2.8,3.8-4.6,7.4v-0.4
		c-12.5,25.3-70,164.1-119.1,197.7c-0.5,0.3-1.2-0.1-1-0.7c7.5-37.7,64.6-158.6,64.6-172.3c0-15.3-32.6-28.4-38.3-30.6
		c-0.4-0.2-0.9,0.1-0.9,0.6c-0.3,3.4-1.9,9.8-4.6,18.3c-0.1,0.2-0.2,0.4-0.4,0.4c-35.9,14-97.2,52.2-149.2,95.9
		c-0.3,0.2-0.7,0.2-0.9-0.1c-12-13.2-20.9-25.5-20.9-35c0-35.5,71.1-100.8,115.7-114.3c0.5-0.1,0.9,0.3,0.9,0.7
		c-1.7,13-4.5,28.3-5.4,33.3c-0.1,0.6,0.6,1,1.1,0.7c6.2-4.7,29.9-22.8,29.9-36.5c0-15-24.9-40.3-39.7-40.3
		c-43.5,0-117.7,66.5-137.8,119.9c-0.1,0.2-0.2,0.3-0.4,0.4c-27.3,9.4-68.7,36.4-104,67c-0.2,0.2-0.6,0.2-0.9,0
		c-10.6-8.6-18.3-17.2-18.3-25.4c0-25,47.5-67.7,79.2-76.3c0.4-0.1,0.9,0.2,0.9,0.7c0,7.2,0.1,16.6,0.1,20.2c0,0.6,0.7,0.9,1.1,0.5
		c4-3.6,17.5-16.4,17.5-23.5c0-13.8-20.5-36.2-34.2-36.2c-37.6,0-98,64.3-100.4,100.7c0,0.1,0,0.2-0.1,0.3
		c-15.9,23.6-109.1,158.7-165.7,158.7c-8,0-14.1-1.6-18.6-3.7c-0.2-0.1-0.3-0.2-0.4-0.4c-2.9-9.5-5.2-21.4-5.2-36.2
		c0-14.4,2.5-32,7.3-51c0.2-0.6,1-0.7,1.3-0.2c7.2,14,19.5,29.8,38.2,29.8c45.3,0,116.6-129,116.6-174.1c0-20.2-13.4-31.6-25.4-37.7
		c-0.1-0.1-0.2-0.2-0.3-0.3c-4.3-9-17.7-31.3-41.5-31.3c-42.7,0-84.2,59.8-110.7,123.5l0,0c-0.8,2.1-68.2,123.5-116,156.3
		c-0.4,0.3-1,0-1.1-0.4c-0.3-1.5-0.5-3.3-0.5-5.3c0-38.1,74.6-166.1,79.4-174.2c0.1-0.2,0.1-0.5,0-0.8c-2.2-2.8-17.5-21.4-35.1-21.4
		c-5.6,0-28.1,9.2-46.6,15.7c-0.6,0.2-1.1-0.4-0.8-0.9c12.9-31.7,21.3-56.2,21.3-64.4c0-6.7-24.8-23.7-34-23.7
		c-15,0-49.8,82.5-49.8,96.7c0,10.4,10,23.4,21.3,23.4c0.4,0,0.8,0,1.3-0.1c-34.3,75.2-84.9,162.6-107.4,162.6
		c-9.9,0-7.6-9.2-6.5-12.5c0.2-0.5-0.3-1-0.8-0.9c-3.4,0.8-12.9,3.8-12.9,11.1c0,8.9,24,37.1,35.5,37.1c23.2,0,83.6-116.9,121.4-204
		c0.1-0.2,0.2-0.3,0.4-0.4c11.8-3.4,25-7.7,35.9-11.3c0.6-0.2,1.1,0.4,0.8,0.9c-18.2,37.2-62.9,131-62.9,156.3c0,0.5,0,1.1,0.1,1.6
		c1.7,19.7,33.8,48.4,52.3,48.4c21.3,0,55.8-64.4,79.7-114.9c0.3-0.7,1.4-0.3,1.3,0.4c-3.2,15.6-5.1,29.8-5.1,41.7
		c0,2,0.1,4.1,0.2,6.2c0.2,3.8,0.6,7.6,1.2,11.1c0,0.2,0.1,0.4,0.1,0.6c0.2,0.9,0.3,1.7,0.5,2.6c10.5,53.7,60.9,86.8,94.3,86.8
		c45.8,0,129.3-157.2,142.2-182.2c0.2-0.5,0.9-0.5,1.1-0.1c7.3,10.7,19.8,21.9,32.9,33.1c0.3,0.3,0.3,0.7,0,1
		c-29.9,28.3-52.3,57.8-52.3,77.9c0,0.6,0,1.2,0.1,1.8c1.3,18.7,23.1,44.6,41.8,50.2h0.1c0.5,0.2,1,0.3,1.5,0.4
		c0.4,0.1,0.8,0.2,1.2,0.3c0.3,0,0.5,0.1,0.7,0.1c0.4,0.1,0.8,0.1,1.3,0.2c0.7,0.1,1.4,0.1,2.1,0.1c29,0,82.6-58.8,82.6-87.8
		c0-13-21.8-27.4-43-42.1c-0.3-0.2-0.4-0.7-0.1-1c26.8-27.2,56.5-50.6,78.2-61.7c0.5-0.2,1,0.1,1,0.7c-0.1,1.3-0.2,2.7-0.2,4
		c0,19.5,20.6,41.7,42,63.5c0.3,0.3,0.3,0.7,0,1c-41.3,37.9-72.5,77.9-72.5,108.6c0,17.9,21.7,33.7,26.8,37c0.4,0.3,1,0,1-0.6
		c0.1-7.9,1.5-16,3.8-24.4c0.2-0.6,1-0.7,1.3-0.1c5.5,11.4,17.7,33.2,32,33.2c35.4,0,90.3-58.7,90.3-94.2c0-13.9-21-34.6-42.1-55.5
		c-0.3-0.3-0.3-0.7,0-1c40.4-40,86.9-74.8,120.2-94.4c0.5-0.3,1.2,0.2,1,0.8c-18.6,52.9-51.2,135.8-51.2,153.4c0,0.4,0,0.8,0.1,1.2
		c1.5,15.3,32.8,40.8,48.3,40.8c19.2,0,47.5-52.8,69.9-102.2c0.3-0.7,1.5-0.4,1.3,0.4c-6.1,26.4-10.2,49.1-10.2,59.6
		c0,23.3,32.4,47.8,55.9,47.8c27.7,0,87.6-121.9,124.1-219.7c0.1-0.2,0.3-0.4,0.6-0.4c13.7-0.9,27.4-4.1,39.7-8.1
		c0.6-0.2,1,0.4,0.8,0.9c-25.4,62.1-68.7,149.8-68.7,178.9c0,0.9,0,1.8,0.1,2.7c0.1,0.8,0.1,1.6,0.3,2.4c0,0.1,0,0.1,0,0.2
		c0.1,0.8,0.3,1.7,0.4,2.5c0,0.1,0,0.2,0.1,0.3c0.1,0.6,0.3,1.2,0.4,1.8c6.3,25.2,34,51.2,49.8,51.2c19.4,0,46.3-44.9,68.7-90.6
		c0.3-0.7,1.4-0.4,1.3,0.4c-2,11.5-3.1,22-3.1,30.8c0,2,0.1,4,0.2,6.1c0.6,12.3,3.1,22.9,6.8,31.9c15.2,39.6,52.7,64.4,85.6,67
		c0.4,0,0.7,0.1,1.1,0.1c1.5,0.1,2.9,0.1,4.5,0.1c63.3,0,172-105.1,172-160.5C1838.3,389.9,1812.5,361.8,1806.7,355.9z M813.8,244
		c0.4-0.1,0.9,0.2,0.9,0.7c-0.8,44.9-62.9,170.7-90.1,170.7c-9,0-14.5-14.7-17.1-24.2c0-0.1,0-0.3,0-0.4
		C728.8,327.3,769,258.7,813.8,244z M964,446.8c-12.6,20-38.1,53-70.8,56.5c-0.5,0.1-0.9-0.4-0.8-0.8c5.3-23.7,24.6-52.7,48.5-79.7
		c0.3-0.3,0.7-0.3,1-0.1c9.3,8.2,17.4,16.1,21.9,23.4C964.1,446.3,964.1,446.6,964,446.8z M1039.8,526
		c10.5-29.2,32.8-60.4,59.9-89.9c0.3-0.3,0.8-0.3,1,0c11.3,12.5,20.3,24.6,23,35.6c0,0.2,0,0.4-0.1,0.5
		c-12.1,19.1-39.4,52.5-83,54.7C1040,526.9,1039.6,526.4,1039.8,526z M1439.5,257.2c0-25.3,17.5-69.6,42.4-79.9
		c0.4-0.2,0.9,0.1,1,0.6c0.5,22.4-9.7,61-25.4,103.9c-0.1,0.3-0.5,0.5-0.8,0.4C1444.7,279.6,1439.5,271.2,1439.5,257.2z
		 M1728.3,278.2c0.5-0.2,1,0.2,0.9,0.7c-5.4,45.9-58.9,163.9-92.2,163.9c-5.6,0-9.5-6.1-12.4-13.9c-0.1-0.1-0.1-0.3,0-0.5
		C1644.5,364.1,1683.4,292.8,1728.3,278.2z"/>
</g>
</svg>
