<svg width="1018" height="394" viewBox="0 0 1018 394" fill="none" xmlns="http://www.w3.org/2000/svg">
<rect width="1018" height="394" fill="#FFFCF8"/>
<path d="M735.348 335.291C727.278 331.967 719.049 329.119 710.662 326.587C693.887 321.523 676.955 317.725 659.864 314.718C625.524 309.022 590.71 306.648 556.053 307.123C538.646 307.281 521.397 308.072 503.99 309.655C486.741 311.237 469.492 313.294 452.401 316.459C435.31 319.624 418.378 323.739 401.92 328.961C385.462 334.183 369.004 340.355 354.129 349.058C361.725 344.786 369.637 341.621 377.708 338.456C385.778 335.449 394.007 332.759 402.236 330.385C418.852 325.638 435.785 321.998 452.717 319.149C486.741 313.452 521.397 311.237 555.895 311.395C590.393 311.553 624.891 313.927 658.915 319.941C675.847 322.947 692.621 326.745 709.079 331.809C717.308 334.341 725.379 337.19 733.291 340.355C737.247 341.937 741.204 343.678 745.002 345.577C748.799 347.476 752.756 349.375 756.079 351.59L759.086 347.001C755.129 344.469 751.331 342.57 747.375 340.671C743.419 338.614 739.305 336.873 735.348 335.291Z" fill="#090605"/>
<path d="M271.049 285.917C270.891 286.392 257.914 328.486 233.069 328.486C219.302 328.486 215.504 310.921 211.073 290.507C205.851 266.611 200.154 239.867 176.575 234.17C178.79 234.012 181.006 233.696 183.221 233.379C209.49 229.423 235.443 216.763 256.49 197.457C282.126 173.878 296.843 143.494 296.843 114.218C296.843 93.9626 289.406 75.4476 275.796 62.1547C262.503 49.1784 244.147 41.5825 222.467 40.3165C219.935 40 217.561 40 215.029 40C175.309 40 130.366 57.7238 94.7605 87.4744C58.047 118.175 37 156.312 37 191.918C37 211.383 49.0269 224.675 67.3836 225.467C68.0166 225.467 68.6496 225.467 69.2826 225.467C100.616 225.467 133.69 190.81 133.69 157.895C133.69 136.848 118.656 131.784 114.542 130.993C114.067 130.834 113.592 130.834 113.592 130.834L113.434 132.417C113.434 132.417 114.383 132.575 115.649 132.892C119.764 134.474 128.784 139.696 128.784 158.053C128.784 190.177 98.242 224.042 69.2826 224.042C51.7171 223.884 41.7474 212.174 41.7474 191.918C41.7474 160.743 63.1109 123.238 99.0332 91.9054C135.114 60.414 178.474 41.5825 215.029 41.5825H215.187C280.227 41.7407 287.348 92.3801 287.348 114.06C287.348 176.252 229.43 232.904 165.814 232.904V233.696V234.487C166.13 234.487 166.605 234.487 166.922 234.487C190.975 234.487 193.824 256.483 196.989 279.904C200.312 304.591 203.793 329.91 232.911 329.91C258.864 329.91 271.84 288.133 272.315 286.234L271.049 285.917Z" fill="#090605"/>
<path d="M213.605 95.5454V94.7541V93.9629C184.329 94.1211 160.433 165.016 137.329 233.696C116.757 295.096 97.134 353.015 76.4035 353.015C65.3261 353.015 64.3766 345.419 64.3766 345.103L62.7942 345.261C62.7942 345.419 63.7436 354.597 76.4035 354.597C115.333 354.597 136.221 281.329 156.635 210.433C173.568 151.407 189.393 95.7036 213.605 95.5454Z" fill="#090605"/>
<path d="M708.605 99.9765C709.08 100.135 709.396 100.135 709.871 100.135C711.77 100.135 713.669 99.027 715.568 97.1281C717.783 94.7543 719.524 91.4311 720.632 87.6332C723.005 79.4043 721.423 71.9666 716.992 70.7006C714.777 70.0676 712.245 71.0171 710.029 73.5491C707.814 75.9228 706.073 79.246 704.965 83.044C702.591 91.2729 704.174 98.7105 708.605 99.9765Z" fill="#090605"/>
<path d="M954.206 179.259C953.098 179.101 951.832 179.101 950.724 178.942C924.455 178.942 907.048 214.706 907.048 238.285C907.048 261.706 919.233 267.561 919.708 267.72L920.499 266.295C920.341 266.295 911.637 260.598 911.637 238.127C911.637 214.073 926.513 180.367 950.724 180.367C951.041 180.367 951.516 180.367 951.832 180.367C972.246 181.316 975.253 206.478 975.253 221.511C975.253 264.871 944.869 330.544 899.136 330.544C891.856 330.544 885.685 328.962 880.304 326.43C866.695 319.15 860.048 302.534 860.048 276.107C860.048 238.285 883.786 163.909 899.452 114.694C902.775 104.566 905.466 95.7039 907.681 88.5827L907.839 87.9497L907.206 87.6332C899.61 83.9935 904.041 68.0105 904.041 67.8522L902.459 67.3775C901.035 71.8084 899.452 77.0306 897.553 82.8858C890.115 106.623 879.671 139.855 870.493 172.296C870.493 165.175 869.227 154.097 863.372 147.609C860.207 144.128 856.092 142.387 851.028 142.387C830.614 142.387 813.207 164.067 802.288 189.228H802.13C802.13 189.228 802.13 189.545 801.971 189.861C798.015 198.882 794.85 208.535 792.793 217.555C783.773 241.45 769.056 271.518 753.231 271.518C743.261 271.518 738.514 261.548 738.514 240.976C738.514 230.056 740.729 214.073 744.369 196.033C750.699 188.754 812.89 115.643 812.89 77.5054C812.89 70.7007 809.092 66.2698 803.395 66.2698C777.285 66.2698 751.332 125.138 738.039 175.936C732.5 195.717 710.662 265.979 685.659 265.979C677.114 265.979 672.841 259.491 672.841 245.881C672.841 224.201 691.672 169.131 700.851 142.704C701.642 140.33 702.433 138.114 703.066 136.215L703.224 135.741L702.908 135.424C698.319 130.835 696.736 124.98 696.736 124.822L696.103 122.448L695.154 124.663C691.514 134 685.659 150.458 680.12 168.498C676.639 179.417 649.104 262.814 621.885 262.814C613.814 262.814 610.175 257.117 610.175 244.457C610.175 227.841 620.936 190.336 642.299 133.05L642.457 132.576L642.141 132.259C637.235 127.354 635.811 122.131 635.811 121.973L635.178 119.758L634.228 121.973C631.222 129.411 626.632 142.071 621.885 156.629C608.909 193.659 583.114 262.023 556.845 262.023C546.717 262.023 545.926 251.103 545.926 247.78C545.926 230.848 555.737 211.7 565.39 193.026C575.044 174.195 584.222 156.471 584.222 140.805C584.222 130.36 577.259 118.966 566.023 118.966C556.054 118.966 546.559 129.727 537.697 151.091C536.748 153.148 535.798 155.838 534.69 158.528C528.202 175.303 517.441 203.471 503.199 203.471C498.293 203.471 494.337 200.622 491.33 196.191C497.502 177.835 501.142 159.794 501.142 146.502C501.142 137.007 498.926 120.865 490.381 120.865C481.994 120.865 479.62 139.855 479.62 149.825C479.62 163.909 481.994 184.639 489.431 196.191C477.405 231.006 456.358 266.295 434.361 266.295C416.954 266.295 415.055 240.976 415.055 230.215C415.055 218.821 417.429 202.363 421.226 183.848C432.937 168.973 492.596 91.5894 492.596 62.3136C492.596 55.6671 488.957 51.7109 483.101 51.7109C459.997 51.7109 439.425 94.5962 429.297 120.074C421.226 140.172 414.58 162.643 410.149 182.582C409.674 183.532 365.365 275.157 325.328 275.157C312.668 275.157 306.497 265.029 306.497 244.141C306.497 238.918 307.13 232.588 308.237 225.467C338.621 224.676 383.089 178.626 383.089 147.609C383.089 135.582 376.284 128.461 364.89 128.461C325.328 128.461 295.261 200.939 295.261 237.336C295.261 256.959 305.547 276.898 325.328 276.898C361.092 276.898 398.439 209.009 408.883 188.912C406.193 202.205 404.769 214.073 404.769 223.094C404.769 236.703 407.617 268.194 434.519 268.194C457.307 268.194 478.67 233.38 490.856 198.407C494.179 202.68 498.293 205.37 503.357 205.37C518.549 205.37 529.152 177.676 536.273 159.478C537.381 156.629 538.33 154.097 539.28 152.04C547.825 131.626 557.003 120.865 566.182 120.865C574.569 120.865 575.36 129.094 575.36 132.576C575.36 149.666 565.232 169.447 555.421 188.437C545.768 207.427 536.589 225.309 536.589 240.817C536.589 254.11 545.135 263.922 557.003 263.922C578.683 263.922 599.097 221.828 613.498 184.798C607.326 206.478 602.42 227.525 602.42 238.602C602.42 255.218 609.542 264.713 621.885 264.713C642.141 264.713 661.763 222.935 672.841 194.292C668.252 211.7 664.928 228.158 664.928 238.76C664.928 252.844 670.309 267.72 685.659 267.72C705.756 267.72 723.164 226.575 732.975 198.09C730.285 211.7 728.702 223.727 728.702 232.43C728.702 247.622 731.867 273.258 753.231 273.258C768.106 273.258 781.557 249.205 790.894 226.892C789.944 232.747 789.47 238.127 789.47 243.033C789.47 261.231 798.332 279.905 813.365 280.538C813.682 280.538 813.84 280.538 814.156 280.538C833.146 280.538 848.654 248.097 857.833 222.777C853.718 241.292 851.028 257.117 851.028 267.878C851.028 290.824 858.466 316.935 878.247 327.537C883.944 330.861 890.907 332.443 899.136 332.443C921.29 332.443 942.337 319.783 958.637 296.679C973.196 276.107 981.899 249.679 981.899 226.417C981.899 204.895 973.196 181.791 954.206 179.259ZM813.998 279.113C800.705 279.113 799.598 262.656 799.598 247.147C799.598 216.447 821.436 144.286 851.186 144.286C855.776 144.286 859.415 145.869 862.264 149.033C867.961 155.363 868.91 166.916 868.91 173.72C868.91 177.043 868.752 179.101 868.752 179.259C866.378 187.804 864.163 196.191 862.106 204.42C854.984 227.525 836.786 279.113 813.998 279.113ZM745.002 192.868C748.8 175.303 753.864 155.996 759.877 138.273C774.753 93.6467 790.577 68.0105 803.395 68.0105C809.251 68.0105 811.308 73.0744 811.308 77.6636C811.308 112.32 757.029 178.784 745.002 192.868ZM422.334 180.683C426.29 162.801 431.671 143.337 437.843 125.296C453.351 79.7208 469.967 53.6099 483.418 53.6099C488.324 53.6099 491.33 56.9331 491.33 62.6301C491.33 89.6905 437.368 161.06 422.334 180.683ZM377.708 147.135C377.708 174.67 338.146 223.094 308.712 224.043C315.042 186.222 335.931 130.202 365.048 130.202C373.91 130.202 377.708 135.424 377.708 147.135Z" fill="#090605"/>
</svg>
