<svg id="Layer_1" data-name="Layer 1" xmlns="http://www.w3.org/2000/svg" viewBox="0 0 1920 1000"><defs><style>.cls-1{fill:#fffcf8;}.cls-2{fill:#1a1a1a;}</style></defs><title>refine</title><rect class="cls-1" x="-8.17" y="-7.02" width="1936.35" height="1014.04"/><path class="cls-2" d="M1649.56,620.83c0,69.64-72,212.86-136.37,212.86-50.83,0-59.39-68.29-59.39-121.4a321.51,321.51,0,0,1,2.64-38.35c9.28,18.59,27.73,41.21,62.59,41.21,87.92,0,156.77-186.55,156.77-286.29,0-43.7-16.4-85.88-57.87-85.88-18.51,0-33,10.46-43,21.11-6.44-6.13-15.69-11.08-28.8-11.08-81.8,0-140.74,147-163.79,271.62-7.58,27.79-28.79,99.55-45.67,99.55-30.19,0,39.19-239,49.78-249.63-6.05-6.05-25-26.65-45.7-26.65-50.9,0-100.35,124-125.09,197.1,13.86-53.93,33.76-112.81,33.76-135.91,0-18-12.86-28.5-30.79-28.5a62.77,62.77,0,0,0-30.48,8.14c2.45,8.27-2.43,34.1-8.94,65.53-7.26,31.39-34.9,145.06-54.5,145.06-24.08,0,22.7-152.33,22.7-186.09,0-14.09-7.25-21.56-22.38-21.56-18.07,0-30.41,6.64-30.41,6.64-19.17,19.17-65.38,37.49-101.41,38.12,21.65-86.12,49-163.82,75-203.48,101.51-56.26,219-137,297-137,34.34,0,57.34,22.28,57.34,54.54,0,48.24-39.75,84.68-94.91,84.68-65.75,0-117-27.7-153-27.7-.57,0-1.14,0-1.71,0-43.15,1.91-77.56,75.68-77.56,119.42,0,25,13.93,42.71,38.89,42.71a43,43,0,0,0,28.31-11s-4.94-5.22-4.94-25c0-19.19,5.57-44.87,15.92-65.46.17-.4.3-.68.46-1l.58-1.19c.39-.78.79-1.54,1.21-2.29.82-1.5,1.7-2.94,2.6-4.36q1.67-2.6,3.52-5c5.37-7.41,11.56-13.39,18.53-17.06a48.86,48.86,0,0,1,17-6.33,51.47,51.47,0,0,1,18.78.48,49.51,49.51,0,0,0-17.77,3.23,43,43,0,0,0-11.09,6.43c42.31,25.88,91.22,69.34,150.52,69.34,72.06,0,122.17-57.49,122.17-127.08,0-48.27-25.33-70.49-41.15-79.65-7.63-47.58-49.73-72-100.56-72-106,0-314.93,124.62-410.68,124.62-56.17,0-69.08-30.23-69.08-30.23s-13.77,28.83-13.77,66.51c0,54.17,28.25,93.59,82.85,93.59,24.36,0,54.49-10.2,87.9-25.88-17.09,12-32.63,23.64-39.55,30.57-8.77,8.77-22.51,49.71-36.55,103.62a44.24,44.24,0,0,0-12.74-1.88c-14,0-23.07,37.44-5,63.44.13.18.26.36.41.54.33.42.66.84,1,1.26.7.85,1.47,1.67,2.25,2.49s1.6,1.6,2.42,2.41,1.69,1.54,2.56,2.29a65.85,65.85,0,0,0,11.46,7.88,32.73,32.73,0,0,0,3.14,1.61c1.07.49,2.14,1,3.23,1.47a65.85,65.85,0,0,0,6.76,2.31,66.62,66.62,0,0,0,14.35,2.42,68.4,68.4,0,0,1-14.89.83,69.8,69.8,0,0,1-7.57-.8c-1.25-.22-2.5-.51-3.75-.77a37.31,37.31,0,0,1-3.73-1,74.07,74.07,0,0,1-14.47-5.76c-1.16-.61-2.3-1.27-3.45-1.91l-2.18-1.35c-17.62,44.2-73.68,171.9-133.4,171.9-33.65,0-43.83-37.59-43.83-73a221.52,221.52,0,0,1,1.87-26.23c7.34,13.54,20.25,26.08,42.86,26.08,58.26,0,106.93-121.9,106.74-189.48-.09-31.84-11.77-60.39-39.66-60.39-14.66,0-26.22,8.36-34.28,17-4.95-5.39-13.05-10.62-25.91-10.62-80.75,0-119.78,173-120.58,256.45-.51,0-1,0-1.56,0-47,0-92.93-80.33-139.31-141.79,135.1-20.44,280.19-158.08,280.19-292.27,0-62.16-34-74.47-55.18-76.1.1-1.34.15-2.74.15-4.2,0-59.71-60.14-87.8-127-87.8-181,0-391.37,193.88-391.37,339.91,0,40.94,21.69,66.63,37.32,79.82,5.89,19.73,21.67,69.18,35.56,83.07,5.69,5.69,12-2.76,12-2.76s-7.32-6.64-7.32-38.34c0-159.08,168.76-383.16,328.13-383.16,51.82,0,83.31,29.83,83.31,78.5,0,106.2-88.52,220.29-193.57,261.2,26.47-94.9,53-179.45,53-212.23,0-22-14.23-30.84-35.44-30.84-28.8,0-51.76,14.76-51.76,14.76,10.36,23.73-8.57,111.86-31.79,207.6-7.77-3.92-15.56-6.1-23.4-6.1-13.52,0-22.47,35.27,2.07,56.28,1.59,1.22,3.23,2.42,4.95,3.53a88.64,88.64,0,0,0,12.33,6.79,93.51,93.51,0,0,0,13.5,4.94c2.32.73,4.7,1.2,7.09,1.75s4.82.82,7.27,1.25c-2.45.22-4.92.56-7.41.67s-5,.25-7.51.14a99.28,99.28,0,0,1-15.16-1.38,91.18,91.18,0,0,1-9.9-2.2c-22,88.84-42.87,173.19-42.87,208.42,0,92.49,80.09,68.23,80.09,68.23s-7.52-13.09-7.52-49.11c0-52.52,13.15-120.24,30.17-188.77C540.36,657.1,566.59,753,620.49,753c28.39,0,44.29-26.52,53.07-52.72,3.07,42.72,18.68,90,55,90a29,29,0,0,0,16.16-5c6,11,16.07,20,33.1,20,60.56,0,103.1-85.78,127.83-156.25C895.16,707.51,888,762.89,888,799.21c0,40.56,6.55,114.65,47.25,114.65a18.19,18.19,0,0,0,7.54-1.67c5.39,10.61,13.93,19.22,26.45,19.22,65.63,0,74.37-225.9,31.59-353.56,35.15-7.22,67.7-29.18,91.73-54.17-10.21,46.4-41.61,143.73-41.61,194.88,0,32.16,10.77,56.29,39.51,56.29,31,0,52.77-40.87,67.4-86.9.64,33.29,17.52,59.07,51.82,59.07-.14-.14-.27-.31-.41-.46l.77.46c0-33.64,65.84-215.66,116.47-253-17.13,35.69-76.19,164.52-76.19,243.84,0,35.58,12.95,72,47.26,72,36.63,0,60-47.65,74.25-94.84q-.21,6.37-.21,12.38c0,71.53,19.53,166.76,81.74,166.76a44.69,44.69,0,0,0,19.86-4.23c8.15,12.9,22,24.84,45.4,24.84,85.29,0,163-173.83,163-258.36C1681.57,624.38,1649.56,620.83,1649.56,620.83Zm-73.45-227.68c14.22,0,17.83,17.87,17.83,33,0,70.91-46,233.86-110.35,233.86-11.88,0-19.11-5.2-23.48-10.91C1478.57,540.92,1533.91,393.14,1576.11,393.14Zm-756.84,64.5c10.28,0,12.05,13.53,12.05,25.62,0,46.56-32.66,146.16-70.43,146.16-6.91,0-11.39-2.38-14.29-5.68C758.39,554.53,790.54,457.64,819.27,457.64Zm144,408.68C951.63,866.32,952,829,952,815.07c0-60.14,10.7-139.58,27.17-217.81C991.12,700.75,987.8,866.32,963.31,866.32Z"/></svg>