<svg id="Layer_1" data-name="Layer 1" xmlns="http://www.w3.org/2000/svg" viewBox="0 0 1920 1000"><defs><style>.cls-1{fill:#fffcf8;}.cls-2{fill:#1a1a1a;}</style></defs><title>rhythm</title><rect class="cls-1" x="-8.17" y="-7.02" width="1936.35" height="1014.04"/><path class="cls-2" d="M733.26,678.88c-85.35,0-318.6-2.63-318.6-90.91,0-72.21,253.24-185.71,270.27-241.83,16.51-54.39-49.25-151.25-107.66-151.25-185.84,0-461,184.67-461,285.81,0,12.19,8.48,59.89,20.14,59.89,12.19,0,47.17-48.76,47.17-65.19,0-7.26-5.2-17.46-11-26.58,72.11-70.8,184.65-131.21,288-160.57-95.36,108-243.35,319.24-243.35,369,0,27.13,58.21,73.25,71.52,73.25,2.57,0,4-1.38,4-3.87s-4.39-4.79-4.39-10.74c0-81.75,138.23-302.6,222.43-411.5h0C522.9,289.13,491.49,281,491.49,281s29.18-7,45.39-8.77a349.86,349.86,0,0,1,44.27-3c22.71,0,46,5.83,46,22.83,0,48.23-247.35,168-247.35,278.78,0,99.69,71.57,178.87,177.4,178.87,81.48,0,160.51-35,240.65-35,51.93,0,59.85,27.67,68.93,27.67,1.55,0,2.67-.93,2.67-3C869.49,721,827.2,678.88,733.26,678.88Z"/><path class="cls-2" d="M1804.18,576.65c0-16.72-18.94-45.43-31-45.43-3.14,0-5.78.89-5.78,3.55,0,3.69,5.39.44,5.39,6,0,35.43-71.61,114-89,152.92a70.9,70.9,0,0,1-3.07-20.09c0-74.11,108.08-196,108.08-225.75,0-21.18-51.57-60.33-60.79-60.33-2.38,0-4.42,1-4.42,3.64,0,3.13,4.42,5.12,4.42,9.19,0,25-85.46,106.12-132.48,167.21,29.09-55.84,79.43-116.55,79.43-124.53,0-23-37.31-41.8-51.65-50.09a2.09,2.09,0,0,0-3.06,1.25c-7.71,27.62-113.45,131.85-154.68,186.51,26.34-52.29,87.07-121.17,90.92-137.85,5.13-22.22-35.52-41.37-52.27-49a1.47,1.47,0,0,0-2.07,1.14,67.88,67.88,0,0,1-2.12,9.37c-15.84,46.12-113.39,133.57-157.06,185.23,24.81-54.28,98.3-133.15,98.3-148.23,0-21.3-38-39.47-52.4-47.27a1.78,1.78,0,0,0-2.52,1c-7.59,20.11-105.83,108.45-156.51,169.15,26.78-49.58,84.81-119.91,126.34-175.73,14.51-20-20.37-31.15-20.37-31.15s20.62,1.77,40.64,3c104.74,5.84,190.16,5.67,212.6-16.77,12.52-12.52,12.5-50.17-2.4-50.17-1.93,0-4.62.58-4.62,2.57,0,2.36,3.49.91,3.49,5.14,0,33.46-83.1,34.43-190.94,23.95,4-8.22,6.08-14.92,6.08-19.77,0-33.92-59.2-74.54-69.23-74.54-3.41,0-5,2.06-5,4.88,0,4.1,6.68,4.36,6.68,12.35,0,15.82-9.32,39.53-23.72,67.33q-9.82-1.26-19.72-2.57c3.14-7.28,4.91-13.26,4.91-17.59,0-29.67-58.67-79.14-72-79.14-3.05,0-6,1.22-6,4.33,0,5.8,7,2,7,10.41,0,19.76-6.56,44-17,70.49-104.92-14.92-204.33-29.87-256.69-29.87-46.79,0-117.83,91.31-88.84,120.3,1.21,1.21,4.12-.34,4.12-2.8,0-56.15,154.08-52.4,320.63-41.44C1137.38,444.91,1060,554.79,1060,588c0,24,43.12,73.77,67.62,73.77,6,0,10.59-8.13,10.59-10.49-9.06-9.06-15.58-21.26-15.58-36,0-49.4,76.15-155.85,127.07-234.2l-.07.07c13.66-21.33-22.86-31.37-22.86-31.37s25.34,2.06,40.72,3.28l23.37,1.66C1237.62,446,1156.1,556.44,1156.1,591.55c0,24.11,45.87,66.32,64.1,66.32,6,0,7.83-4.2,7.83-6.56-18-18,67.22-119.76,124.84-184.36-30.71,49.55-71.16,106.18-71.16,130.93,0,18.1,45.5,63.92,65.27,63.92,4.09,0,7.83-2.82,7.83-6.56-13-13,42.43-85.7,91-144.21-20.87,37.56-39.55,72.38-39.55,85.87,0,18.16,38.58,61,57.06,61,4.47,0,9.65-2.38,9.65-7-15.14-15.14,62.35-114.7,117.89-181.91-29.13,54.06-68.68,117.19-68.68,129.73,0,22.52,33.32,59.21,53.53,59.21,3.62,0,8.33-1.82,8.33-4.72-14-14,64.27-111.27,117.51-174-32.8,63.14-84.41,134.62-84.41,175.14,0,24,51.14,71,70.43,71,6,0,9.47-2.68,10.77-4a1,1,0,0,0,.1-1.27C1685,702,1804.18,615.11,1804.18,576.65Z"/><path class="cls-2" d="M1467.11,672.75c-102.57,0-237,28.51-334.51,28.51-75.72,0-121.58-27.54-146.93-48.37,40.46-81.24,114.61-177,114.61-201.44,0-30.43-47.77-52.22-63.41-59.1a2.16,2.16,0,0,0-3,2v9.53c0,31-107.91,131.95-150.11,183.6,23.82-53.61,90-129.23,93.08-145.77,4.94-26.46-42.46-41.79-59.74-48a1.76,1.76,0,0,0-2.34,1.5v0c0,.14,0,.29,0,.43-4.63,43-112.54,138.79-159.12,193.89,24.8-54.3,98.31-133,98.31-145.93,0-21.31-38.08-41.57-52.42-49.58a1.75,1.75,0,0,0-2.5.94c-7.54,20.06-105.71,108.35-156.43,169.07,44.4-82.16,174.27-221.81,174.27-257.45,0-27.62-58.89-72.95-68.92-72.95-2.73,0-4.24,2.39-4.24,4.93,0,3.16,5.32,3.8,5.32,10.33,0,69.63-181.39,293.68-181.39,338.37,0,24.11,47,70.57,65.27,70.57,6,0,7.83-4.2,7.83-6.56-18-18,67.22-119.76,124.84-184.36-30.71,49.55-71.16,106.18-71.16,130.93,0,18.1,45.5,63.92,65.27,63.92,4.09,0,7.83-2.82,7.83-6.56-13.65-13.65,48.55-92.78,98.68-151.91-21.67,40.56-42.38,79.33-42.38,93.92,0,21.29,45.7,62.58,62.34,62.58,4.87,0,7.83-3.27,7.83-6.56-14.27-14.27,61.34-108,110.72-165.91C964,566.73,895.5,666.48,895.5,708.28c0,24,46.14,79,69.75,79,8,0,10-6.56,10-6.56C963.7,771.88,960,751.28,960,733.64c0-11.49,2.91-24.82,7.86-39.29l0,0c8-22.5-11.07-44-11.07-44s11.75,10.87,21,19.19c.38.35.73.68,1.05,1,35.31,34.14,105.43,79.87,212,79.87,123.26,0,463.4-51.68,463.4,50.09,0,6,11.1,4,11.1-5.6C1665.38,755,1596.61,672.75,1467.11,672.75Z"/></svg>