<svg id="Layer_1" data-name="Layer 1" xmlns="http://www.w3.org/2000/svg" viewBox="0 0 1920 1000"><defs><style>.cls-1{fill:#fffcf8;}.cls-2{fill:#f9b110;}</style></defs><title>sunday</title><rect class="cls-1" x="-8.17" y="-7.02" width="1936.35" height="1014.04"/><path class="cls-2" d="M1754.88,332.67c-118.51,0-269,352.27-282.43,338.86-12.89-12.89,83.78-197.48,83.78-219.9,0-20.89-54.09-30.62-69.88-33a4.18,4.18,0,0,0-4.73,3.41c-2.57,14.06-15.58,52.2-30.11,95-33.79,81.08-88,174.23-95.66,166.57-8.71-8.71,58.69-150.55,58.69-163.33,0-16.42-45.7-26.18-60.28-28.88a5.24,5.24,0,0,0-5.86,3.31c-15.59,41.51-89.4,180-99.32,170.05-10.16-10.16,52.73-210.48,102.75-210.48,25.53,0,51,38.19,64.21,38.19,3.1,0,5-1.94,5-4.85,0-24.7-65.47-91.83-98.71-91.83-50.29,0-92.83,78.63-117.68,154.75-14.24,35.54-71.16,131.19-78.08,124.28C1112.11,660.31,1244,358,1305.36,332.19a3.26,3.26,0,0,0,1.88-4C1295.19,290,1242.11,173.65,1226.77,189c-16.4,16.4-60.79,134.72-100.15,251.4-20.84-23.18-50.28-50.81-72.21-50.81-26.76,0-54.36,49.63-75.82,107.14-30.75,66.7-89.32,171-95.46,164.83-11.39-11.39,87.58-222.39,87.58-230.21,0-16.1-60.52-38.22-70.91-38.22-21.38,0-82.39,112.34-122,194.93,29.6-78.57,66.45-159.8,66.45-167.91,0-17.62-53.9-27.38-70-29.9a4.66,4.66,0,0,0-5.26,3.54c-1.6,6.76-5.54,20.65-10.84,38.7-31.52,100.12-112.45,240.2-121.64,231C626,653,729.86,429.17,729.86,413.46c0-14.93-53.45-25.2-69.13-27.9a4.88,4.88,0,0,0-5.49,3.37C632.7,461.71,533.51,644.14,524.51,635.14c-10.26-10.26,82.89-195.9,82.89-219.25,0-19.09-56.54-28.55-70.52-30.6a2.88,2.88,0,0,0-3.28,2.51c-4.23,37.87-79.42,211.24-79.42,252.09,0,15.88,36.61,57.88,54.83,57.88,20.53,0,55-61.08,86.36-127.1-16.11,46.1-29.09,86.41-29.09,101.07,0,19.15,37.37,58.58,55.58,58.58,19,0,54.17-62.46,85.63-127.51-8.93,30.89-15.17,54-15.17,58.63,0,21.17,33,46.81,44.83,55.35a4,4,0,0,0,6.06-1.69c16-37.41,97.71-199.73,130.71-245.86-21.29,51.08-63.1,157.62-63.1,200.4,0,18.91,36,59.42,54.4,59.42,19.2,0,51.27-55.19,79.27-112.16-3.36,17.44-5.21,31.92-5.21,41.34,0,19.63,35.2,61.47,55.31,61.47,17.84,0,50.33-56,80.48-117.08-11.48,39.36-18.67,68.07-18.67,77,0,19.41,35.16,59.47,55.47,59.47,16.06,0,44.84-46.55,71.1-96.53a202.22,202.22,0,0,0-1.8,24.77c0,21.39,34.06,60.76,54.53,60.76,14.84,0,39.3-39.79,62.73-86.09-5.93,20.48-9.91,38.61-9.91,50.86,0,17.44,34.67,53.9,51.87,53.9,15.7,0,41.85-41.15,68.11-91.82-1.69,7.75-2.64,14-2.64,18.26,0,22.73,39.72,65.21,62.27,65.21,10.66,0,68.2-113.28,141-200.21-11.93,94.16-78.66,270.25-124.31,270.25-41.88,0-73.95-43.21-76.67-86.54a2.52,2.52,0,0,0-4.37-1.56c-47.93,52.63-41.4,132.92,26.52,132.92A93.4,93.4,0,0,0,1491.23,831C1575.36,883.29,1687,593.86,1687,508.13c0-11.35-13-17.47-29.27-20.76,31.79-28.25,65-47.12,97.45-47.12,28.31,0,47.1,12.22,57.63,22a4.27,4.27,0,0,0,6.93-1.66C1834.38,420,1809.44,332.67,1754.88,332.67ZM1008.15,651.86c-9.87-9.87,50.35-197,87.8-197,7.44,0,15.21,4.76,22.16,10.93l-.19.57C1093.62,515.35,1019.12,662.82,1008.15,651.86Z"/><path class="cls-2" d="M293,391.69a2.72,2.72,0,0,0-2.71,2.94c1,19,8.75,124.93,57,124.93,80.41,0,211.58-158.69,211.58-278.39,0-34.56-19.72-65.54-48.44-71.53-7-37.26-40.82-75.2-91.11-75.2C265.17,94.43,104.78,320,104.78,476.23c0,144.52,253.56,132.33,253.56,178.28,0,50.84-152,99.89-212.55,53.24a2.8,2.8,0,0,0-4.43,2.88c8.48,33.78,42.42,155.76,90.22,155.76,67.47,0,187.76-119.91,187.76-194.07,0-101.91-232.7-74-232.7-166.17,0-119,167-332.28,274.93-332.28C564.67,173.86,420.41,399,293,391.69Z"/></svg>