<svg id="Layer_1" data-name="Layer 1" xmlns="http://www.w3.org/2000/svg" viewBox="0 0 1920 1000"><defs><style>.cls-1{fill:#fffcf8;}.cls-2{fill:#f9b110;}</style></defs><title>surreal</title><rect class="cls-1" x="-8.17" y="-7.02" width="1936.35" height="1014.04"/><path class="cls-2" d="M408.87,362.39h44.65a6.76,6.76,0,0,1,6.4,5.59c7.6,62.3,28.39,207.42,71.74,207.42,28.87,0,23.06-53.43,16.06-79.76S581,499.05,581,499.05c10.4,9.34,30,133.37-50.63,133.37-92.66,0-118.74-175.48-126.88-265C403.29,363.92,405.87,362.39,408.87,362.39Z"/><path class="cls-2" d="M632,357.58c6.62,24.78,39,148,39,188.65,0,15.17-3.52,30.41-15.83,30.41-40.8,0-66.89-150.45-74.38-210.26a5.29,5.29,0,0,0-5-4H529c-2.43,0-4.71,1.43-4.44,3.62,11.5,93,37.51,266.42,129,266.42,47.42,0,70.93-34,70.93-88.36,0-46-34.39-167.11-40.4-187.91-.9-3.06-4.56-3.06-4.56-3.06l-43.81.1S631.39,353.52,632,357.58Z"/><path class="cls-2" d="M1644.93,532.79s-14.1,47.75-48.38,47.75c-50.88,0-68.38-154-75.5-214-.86-4.3-6.17-4.12-6.17-4.12h-42.23s-3.91-.23-3.71,4.41c11.2,101.59,25.6,267,123.59,267,68.43,0,89-73.09,89-73.09Z"/><path class="cls-2" d="M648.3,366.73l.2,47,150.07,0-40.33-18c9.4,96.57,28.26,237,119.69,237,48,0,74.82-35.88,74.82-93,0-48-32.37-162-38.5-183.21-.82-3-5.23-3.4-5.23-3.4l-45,.1c-.62,0-2.89.84-2.22,3.69,5.86,23.46,37.6,152.33,37.6,191,0,20.34-5.39,32.41-19.55,32.41-37.54,0-57.92-136.06-65.48-188.09-2.4-16.49-7.43-25.51-28.64-25.51Z"/><path class="cls-2" d="M1153.27,564.7l41.43,25.71S1298,537.47,1298,436.6c0-47.18-38.1-82.51-84-82.51-64.67,0-109.77,51.87-109.77,116.77,0,80.13,63.31,161.85,144.61,161.85,99.1,0,131-104.65,131-104.65l-17.18-67.61s-30.86,118.79-108.11,118.79c-59.33,0-91-56-91-117.45,0-30.14,18.49-64.48,47.05-64.48,19.61,0,28.94,21.86,28.94,46.05C1239.54,504.73,1188.41,550.34,1153.27,564.7Z"/><path class="cls-2" d="M1414.89,354.62c-52,0-76.29,51.41-76.29,102.42,0,83.65,46.92,176.15,117.37,176.15,48.73,0,68.15-42.48,68.15-97.81C1524.12,458.25,1476.59,354.62,1414.89,354.62Zm47.63,223.11c-39.47,0-63.51-76.83-63.51-123.85,0-27.36,7.24-53.51,30.69-53.51,39.6,0,56.4,79.86,59.51,118.2C1491.35,544.92,1482.89,577.73,1462.52,577.73Z"/><path class="cls-2" d="M876.51,366.76l5.39,47.6,147.28,0-40.32-18C998.24,493,1003,632.7,1102.55,632.7c59.65,0,100.67-55.31,100.67-55.31l-34-35.48c-3.48,12.15-35.18,35.73-61.41,35.73-45,0-55.31-132.69-62.86-184.72-2.4-16.49-7.23-26.16-28.44-26.16Z"/><path class="cls-2" d="M1638.46,551.53l38.68,33.71s61.09-74.8,61.09-214c0-76.7-32.81-139.94-94.19-139.94-48.48,0-76.5,47.52-76.5,100.43,0,120.42,78.26,301.81,181.5,301.81,48.8,0,84-33.11,84-81.19,0-33.05-19.52-67.59-49.46-85.33a3.84,3.84,0,0,0-5.43,1.08l-18.81,29.74s-2.74,3.81.22,5.77c14.13,11.17,26.4,28.64,26.4,46.73,0,21-12.44,33.76-31.8,33.76-69.34,0-130.95-177-130.95-260.76,0-22,7.91-46.17,25.76-46.17,25.33,0,40,49.21,40,96.83C1688.93,458.29,1667.93,534.61,1638.46,551.53Z"/><path class="cls-2" d="M258.05,381.46c1.28,1.06,18.23,17.71,26.68,24.1a9.67,9.67,0,0,0,9.44,1.29c14.73-6.12,55.84-28,55.84-81.63,0-52.07-57.47-88.89-118.73-88.89C153.92,236.32,87,277.94,87,350.77c0,135.83,272.51,163,272.51,290.13,0,36.15-25.11,70.46-59.14,70.46-32.63,0-61-32.14-61-64.76,0-95.74,144.78-121.94,216.54-193.7L432.45,409.7c-80.71,80.71-248,118.79-248,236.93,0,63.8,56.55,114.89,115.87,114.89,63.88,0,116-55,116-122,0-158.35-270.79-196.62-270.79-293.73,0-40.27,44.08-64.48,84.64-64.48,35.55,0,66.91,15.76,66.91,47.57,0,30-25.8,39.48-38.95,44.34C255.15,374.3,254.63,377.69,258.05,381.46Z"/><path class="cls-2" d="M914.24,356.5c-1-3.81-5.23-3.4-5.23-3.4l-45,.1"/></svg>