<?xml version="1.0" encoding="utf-8"?>
<!-- Generator: Adobe Illustrator 21.1.0, SVG Export Plug-In . SVG Version: 6.00 Build 0)  -->
<svg version="1.1" id="Layer_1" xmlns="http://www.w3.org/2000/svg" xmlns:xlink="http://www.w3.org/1999/xlink" x="0px" y="0px"
	 viewBox="0 0 1280 1280" style="enable-background:new 0 0 1280 1280;" xml:space="preserve">
<style type="text/css">
	.st0{fill:#FFFCF8;}
	.st1{fill:#F9B110;}
	.st2{fill:#1A1A1A;}
	.st3{fill:none;stroke:#1A1A1A;stroke-width:12;stroke-miterlimit:10;}
	.st4{fill:#FFFAF1;}
	.st5{fill:#FFFAF0;}
	.st6{fill:#FFF9EF;}
	.st7{fill:#FFF9EE;}
	.st8{fill:#FFF9ED;}
	.st9{fill:#FFF8EC;}
	.st10{fill:#FFF8EB;}
	.st11{fill:#FFF8EA;}
	.st12{fill:#FFF7E9;}
	.st13{fill:#FFF7E8;}
	.st14{fill:#FFF7E7;}
	.st15{fill:#FFF6E6;}
	.st16{fill:#FFF6E5;}
	.st17{fill:#FFF6E4;}
	.st18{fill:#FFF5E3;}
	.st19{fill:#FFF5E2;}
	.st20{fill:#FFF5E1;}
	.st21{fill:#FFF4E0;}
	.st22{fill:#FFF4DF;}
	.st23{fill:#FFF4DE;}
	.st24{fill:#FEF4DE;}
	.st25{fill:#FEF3DD;}
	.st26{fill:#FEF3DC;}
	.st27{fill:#FEF3DB;}
	.st28{fill:#FEF2DA;}
	.st29{fill:#FEF2D9;}
	.st30{fill:#FEF2D8;}
	.st31{fill:#FEF2D7;}
	.st32{fill:#FEF1D6;}
	.st33{fill:#FEF1D5;}
	.st34{fill:#FEF1D4;}
	.st35{fill:#FEF0D3;}
	.st36{fill:#FEF0D2;}
	.st37{fill:#FEF0D1;}
	.st38{fill:#FEEFD0;}
	.st39{fill:#FEEFCF;}
	.st40{fill:#FEEFCE;}
	.st41{fill:#FEEECD;}
	.st42{fill:#FEEECC;}
	.st43{fill:#FEEECB;}
	.st44{fill:#FEEDCA;}
	.st45{fill:#FEEDC9;}
	.st46{fill:#FEEDC8;}
	.st47{fill:#FEECC7;}
	.st48{fill:#FEECC6;}
	.st49{fill:#FEECC5;}
	.st50{fill:#FEEBC4;}
	.st51{fill:#FEEBC3;}
	.st52{fill:#FEEBC2;}
	.st53{fill:#FEEAC1;}
	.st54{fill:#FEEAC0;}
	.st55{fill:#FEEABF;}
	.st56{fill:#FEEABE;}
	.st57{fill:#FEE9BD;}
	.st58{fill:#FEE9BC;}
	.st59{fill:#FEE9BB;}
	.st60{fill:#FEE8BA;}
	.st61{fill:#FEE8B9;}
	.st62{fill:#FDE8B8;}
	.st63{fill:#FDE7B7;}
	.st64{fill:#FDE7B6;}
	.st65{fill:#FDE7B5;}
	.st66{fill:#FDE6B4;}
	.st67{fill:#FDE6B3;}
	.st68{fill:#FDE6B2;}
	.st69{fill:#FDE5B1;}
	.st70{fill:#FDE5B0;}
	.st71{fill:#FDE5AF;}
	.st72{fill:#FDE4AE;}
	.st73{fill:#FDE4AD;}
	.st74{fill:#FDE4AC;}
	.st75{fill:#FDE3AB;}
	.st76{fill:#FDE3AA;}
	.st77{fill:#FDE3A9;}
	.st78{fill:#FDE2A8;}
	.st79{fill:#FDE2A7;}
	.st80{fill:#FDE2A6;}
	.st81{fill:#FDE1A5;}
	.st82{fill:#FDE1A4;}
	.st83{fill:#FDE1A3;}
	.st84{fill:#FDE0A2;}
	.st85{fill:#FDE0A1;}
	.st86{fill:#FDE0A0;}
	.st87{fill:#FDDF9F;}
	.st88{fill:#FDDF9E;}
	.st89{fill:#FDDF9D;}
	.st90{fill:#FDDE9C;}
	.st91{fill:#FDDE9B;}
	.st92{fill:#FDDE9A;}
	.st93{fill:#FDDD99;}
	.st94{fill:#FDDD98;}
	.st95{fill:#FDDD97;}
	.st96{fill:#FDDC96;}
	.st97{fill:#FDDC95;}
	.st98{fill:#FDDC94;}
	.st99{fill:#FCDB93;}
	.st100{fill:#FCDB92;}
	.st101{fill:#FCDB91;}
	.st102{fill:#FCDA90;}
	.st103{fill:#FCDA8F;}
	.st104{fill:#FCDA8E;}
	.st105{fill:#FCDA8D;}
	.st106{fill:#FCD98C;}
	.st107{fill:#FCD98B;}
	.st108{fill:#FCD98A;}
	.st109{fill:#FCD889;}
	.st110{fill:#FCD888;}
	.st111{fill:#FCD887;}
	.st112{fill:#FCD786;}
	.st113{fill:#FCD785;}
	.st114{fill:#FCD784;}
	.st115{fill:#FCD683;}
	.st116{fill:#FCD682;}
	.st117{fill:#FCD681;}
	.st118{fill:#FCD580;}
	.st119{fill:#FCD57F;}
	.st120{fill:#FCD57E;}
	.st121{fill:#FCD47D;}
	.st122{fill:#FCD47C;}
	.st123{fill:#FCD47B;}
	.st124{fill:#FCD37A;}
	.st125{fill:#FCD379;}
	.st126{fill:#FCD378;}
	.st127{fill:#FCD277;}
	.st128{fill:#FCD276;}
	.st129{fill:#FCD275;}
	.st130{fill:#FCD174;}
	.st131{fill:#FCD173;}
	.st132{fill:#FCD172;}
	.st133{fill:#FCD171;}
	.st134{fill:#FCD070;}
	.st135{fill:#FCD06F;}
	.st136{fill:#FCD06E;}
	.st137{fill:#FBCF6D;}
	.st138{fill:#FBCF6C;}
	.st139{fill:#FBCF6B;}
	.st140{fill:#FBCE6A;}
	.st141{fill:#FBCE69;}
	.st142{fill:#FBCE68;}
	.st143{fill:#FBCD67;}
	.st144{fill:#FBCD66;}
	.st145{fill:#FBCD65;}
	.st146{fill:#FBCC64;}
	.st147{fill:#FBCC63;}
	.st148{fill:#FBCC62;}
	.st149{fill:#FBCB61;}
	.st150{fill:#FBCB60;}
	.st151{fill:#FBCB5F;}
	.st152{fill:#FBCA5E;}
	.st153{fill:#FBCA5D;}
	.st154{fill:#FBCA5C;}
	.st155{fill:#FBC95B;}
	.st156{fill:#FBC95A;}
	.st157{fill:#FBC959;}
	.st158{fill:#FBC858;}
	.st159{fill:#FBC857;}
	.st160{fill:#FBC856;}
	.st161{fill:#FBC755;}
	.st162{fill:#FBC754;}
	.st163{fill:#FBC753;}
	.st164{fill:#FBC652;}
	.st165{fill:#FBC651;}
	.st166{fill:#FBC650;}
	.st167{fill:#FBC54F;}
	.st168{fill:#FBC54E;}
	.st169{fill:#FBC54D;}
	.st170{fill:#FBC44C;}
	.st171{fill:#FBC44B;}
	.st172{fill:#FBC44A;}
	.st173{fill:#FBC349;}
	.st174{fill:#FAC348;}
	.st175{fill:#FAC347;}
	.st176{fill:#FAC246;}
	.st177{fill:#FAC245;}
	.st178{fill:#FAC244;}
	.st179{fill:#FAC143;}
	.st180{fill:#FAC142;}
	.st181{fill:#FAC141;}
	.st182{fill:#FAC140;}
	.st183{fill:#FAC03F;}
	.st184{fill:#FAC03E;}
	.st185{fill:#FAC03D;}
	.st186{fill:#FABF3C;}
	.st187{fill:#FABF3B;}
	.st188{fill:#FABF3A;}
	.st189{fill:#FABE39;}
	.st190{fill:#FABE38;}
	.st191{fill:#FABE37;}
	.st192{fill:#FABD36;}
	.st193{fill:#FABD35;}
	.st194{fill:#FABD34;}
	.st195{fill:#FABC33;}
	.st196{fill:#FABC32;}
	.st197{fill:#FABC31;}
	.st198{fill:#FABB30;}
	.st199{fill:#FABB2F;}
	.st200{fill:#FABB2E;}
	.st201{fill:#FABA2D;}
	.st202{fill:#FABA2C;}
	.st203{fill:#FABA2B;}
	.st204{fill:#FAB92A;}
	.st205{fill:#FAB929;}
	.st206{fill:#FAB928;}
	.st207{fill:#FAB927;}
	.st208{fill:#FAB826;}
	.st209{fill:#FAB825;}
	.st210{fill:#FAB824;}
	.st211{fill:#FAB723;}
	.st212{fill:#F9B723;}
	.st213{fill:#F9B722;}
	.st214{fill:#F9B721;}
	.st215{fill:#F9B620;}
	.st216{fill:#F9B61F;}
	.st217{fill:#F9B61E;}
	.st218{fill:#F9B51D;}
	.st219{fill:#F9B51C;}
	.st220{fill:#F9B51B;}
	.st221{fill:#F9B41A;}
	.st222{fill:#F9B419;}
	.st223{fill:#F9B418;}
	.st224{fill:#F9B317;}
	.st225{fill:#F9B316;}
	.st226{fill:#F9B315;}
	.st227{fill:#F9B214;}
	.st228{fill:#F9B213;}
	.st229{fill:#F9B212;}
	.st230{fill:#F9B111;}
	.st231{fill:#1A1A1A;stroke:#1A1A1A;stroke-width:1.9795;stroke-miterlimit:10;}
	.st232{fill:#F9B110;stroke:#F9B110;stroke-width:2.5512;stroke-miterlimit:10;}
	.st233{fill:none;stroke:#F9B110;stroke-width:2.5512;stroke-miterlimit:10;}
	.st234{fill:#1A1A1A;stroke:#1A1A1A;stroke-width:2.5512;stroke-miterlimit:10;}
</style>
<g>
	<path class="st232" d="M1007.8,397.6c0,0,23.1-61.3,83.2-61.3c43.6,0,73.2,29.5,73.2,69.1c0,37.1-27.4,61.3-62.8,61.3
		c-37.9,0-42.7-25-42.7-25s4.8,37.5,42.7,37.5c35.4,0,62.8-36.7,62.8-73.7c0-39.5-29.6-69.1-73.2-69.1
		C1030.8,336.2,1007.8,397.6,1007.8,397.6z"/>
	<path class="st232" d="M1007.8,397.6c0-65.6,72.2-115.8,72.2-161.8c0-21.8-16.6-39.6-41.6-39.6c-20.2,0-38.2,13.1-38.2,33.1
		c0,17.3,11.9,25.6,28.4,25.6c22.5,0,27.2-17.7,27.2-17.7s-6.2,22-28.7,22c-16.5,0-26.9-12.5-26.9-29.9c0-20,18.1-33.1,38.2-33.1
		c25.1,0,41.6,17.7,41.6,39.6C1079.9,281.8,1007.8,332,1007.8,397.6z"/>
	<path class="st232" d="M1199.7,323.2c0,0,0.9,11.3,12.2,11.3c10.3,0,17.6-11,17.6-22.2c0-26.6-25.5-55.6-55.2-55.6
		c-127.2,0-166.6,140.8-166.6,140.8s33.4-122.4,170.4-122.4c26,0,51.4,14.2,51.4,37.2c0,11.2-7.3,22.2-17.6,22.2
		C1200.6,334.5,1199.7,323.2,1199.7,323.2"/>
	<path class="st232" d="M1007.8,397.6c0,0,22.9-88.5,108.6-88.5c32.8,0,54.1,14.8,54.1,14.8l-8,5.6c0,0-13.2-20.5-46-20.5
		C1030.6,309,1007.8,397.6,1007.8,397.6z"/>
</g>
<g>
	<path class="st232" d="M277.4,398.4c0,0-17.7-47.1-63.9-47.1c-33.4,0-56.2,22.7-56.2,53c0,28.4,21,47,48.2,47
		c29.1,0,32.7-19.2,32.7-19.2s-3.7,28.8-32.7,28.8c-27.2,0-48.2-28.1-48.2-56.6c0-30.3,22.8-53,56.2-53
		C259.7,351.3,277.4,398.4,277.4,398.4z"/>
	<path class="st232" d="M277.4,398.4c0-49.3-55.4-88.9-55.4-125.3c0-16.8,12.7-30.4,32-30.4c15.5,0,29.4,10,29.4,25.4
		c0,13.3-9.1,19.6-21.8,19.6c-17.2,0-20.9-13.6-20.9-13.6s4.8,16.9,22,16.9c12.7,0,20.7-9.6,20.7-22.9c0-15.4-13.9-25.4-29.4-25.4
		c-19.2,0-32,13.6-32,30.4C222,309.5,277.4,349.2,277.4,398.4z"/>
	<path class="st232" d="M130.1,341.3c0,0-0.7,8.7-9.4,8.7c-7.9,0-13.5-8.5-13.5-17c0-20.4,19.6-42.6,42.3-42.6
		c97.6,0,127.9,108.1,127.9,108.1s-25.6-94-130.8-94c-20,0-39.4,10.9-39.4,28.5c0,8.6,5.6,17,13.5,17
		C129.4,350,130.1,341.3,130.1,341.3"/>
	<path class="st232" d="M277.4,398.4c0,0-17.6-67.9-83.3-67.9c-25.2,0-41.5,11.4-41.5,11.4l6.2,4.3c0,0,10.1-15.7,35.3-15.7
		C259.8,330.5,277.4,398.4,277.4,398.4z"/>
</g>
<path class="st232" d="M826,564.2c88.4,0,181.8-81.8,181.8-162.4c0-80.9-56.9-126.9-136.4-126.9c-100.2,0-134.6,69.2-134.6,69.2
	s34.4-99.2,134.6-99.2c79.5,0,136.4,76.1,136.4,157C1007.8,499.8,933.5,564.2,826,564.2z"/>
<path class="st232" d="M736.8,344c0,0-49.6-178.5-219.3-178.5c-141.1,0-241.7,129.5-241.7,260.6c0,42.6,20.5,77.8,57.8,77.8
	c22.9,0,32.8-13.4,32.8-13.4s-14.9,32.8-37.9,32.8c-37.3,0-52.7-54.7-52.7-97.3c0-131.2,100.6-224.3,241.7-224.3
	C695.1,201.8,736.8,344,736.8,344"/>
<path class="st232" d="M607.3,300.2c0,0,18,1.7,18,19.9c0,18.1-19.1,24.3-38.3,24.3c-23.8,0-41.3-11.6-41.3-34.4
	c0-35.5,36.5-57,73.8-57c88.9,0,117.4,91.1,117.4,91.1S708.3,253,619.4,253c-37.2,0-73.8,21.5-73.8,57c0,22.8,16.6,42.9,40.4,42.9
	c19.2,0,39.2-14.6,39.2-32.8c0-18.1-18.3-19.9-18.3-19.9"/>
<path class="st233" d="M553.9,282.8c-7,10.1-18.9,19-32.4,19c-11.6,0-19.8-5.8-19.8-17.6c0-8.5,6.5-14.8,14.5-14.8
	c11.6,0,10.8,10.9,10.8,10.9"/>
<g>
	<path class="st232" d="M272.2,882.4c0,0-23.1,61.3-83.2,61.3c-43.6,0-73.2-29.5-73.2-69.1c0-37.1,27.4-61.3,62.8-61.3
		c37.9,0,42.7,25,42.7,25s-4.8-37.5-42.7-37.5c-35.4,0-62.8,36.7-62.8,73.7c0,39.5,29.6,69.1,73.2,69.1
		C249.2,943.8,272.2,882.4,272.2,882.4z"/>
	<path class="st232" d="M272.2,882.4c0,65.6-72.2,115.8-72.2,161.8c0,21.8,16.6,39.6,41.6,39.6c20.2,0,38.2-13.1,38.2-33.1
		c0-17.3-11.9-25.6-28.4-25.6c-22.5,0-27.2,17.7-27.2,17.7s6.2-22,28.7-22c16.5,0,26.9,12.5,26.9,29.9c0,20-18.1,33.1-38.2,33.1
		c-25.1,0-41.6-17.7-41.6-39.6C200.1,998.2,272.2,948,272.2,882.4z"/>
	<path class="st232" d="M80.3,956.8c0,0-0.9-11.3-12.2-11.3c-10.3,0-17.6,11-17.6,22.2c0,26.6,25.5,55.6,55.2,55.6
		c127.2,0,166.6-140.8,166.6-140.8s-33.4,122.4-170.4,122.4c-26,0-51.4-14.2-51.4-37.2c0-11.2,7.3-22.2,17.6-22.2
		C79.4,945.5,80.3,956.8,80.3,956.8"/>
	<path class="st232" d="M272.2,882.4c0,0-22.9,88.5-108.6,88.5c-32.8,0-54.1-14.8-54.1-14.8l8-5.6c0,0,13.2,20.5,46,20.5
		C249.4,971,272.2,882.4,272.2,882.4z"/>
</g>
<g>
	<path class="st232" d="M1002.6,881.6c0,0,17.7,47.1,63.9,47.1c33.4,0,56.2-22.7,56.2-53c0-28.4-21-47-48.2-47
		c-29.1,0-32.7,19.2-32.7,19.2s3.7-28.8,32.7-28.8c27.2,0,48.2,28.1,48.2,56.6c0,30.3-22.8,53-56.2,53
		C1020.3,928.7,1002.6,881.6,1002.6,881.6z"/>
	<path class="st232" d="M1002.6,881.6c0,49.3,55.4,88.9,55.4,125.3c0,16.8-12.7,30.4-32,30.4c-15.5,0-29.4-10-29.4-25.4
		c0-13.3,9.1-19.6,21.8-19.6c17.2,0,20.9,13.6,20.9,13.6s-4.8-16.9-22-16.9c-12.7,0-20.7,9.6-20.7,22.9c0,15.4,13.9,25.4,29.4,25.4
		c19.2,0,32-13.6,32-30.4C1058,970.5,1002.6,930.8,1002.6,881.6z"/>
	<path class="st232" d="M1149.9,938.7c0,0,0.7-8.7,9.4-8.7c7.9,0,13.5,8.5,13.5,17c0,20.4-19.6,42.6-42.3,42.6
		c-97.6,0-127.9-108.1-127.9-108.1s25.6,94,130.8,94c20,0,39.4-10.9,39.4-28.5c0-8.6-5.6-17-13.5-17
		C1150.6,930,1149.9,938.7,1149.9,938.7"/>
	<path class="st232" d="M1002.6,881.6c0,0,17.6,67.9,83.3,67.9c25.2,0,41.5-11.4,41.5-11.4l-6.2-4.3c0,0-10.1,15.7-35.3,15.7
		C1020.2,949.5,1002.6,881.6,1002.6,881.6z"/>
</g>
<path class="st232" d="M454,715.8c-88.4,0-181.8,81.8-181.8,162.4c0,80.9,56.9,126.9,136.4,126.9c100.2,0,134.6-69.2,134.6-69.2
	s-34.4,99.2-134.6,99.2c-79.5,0-136.4-76.1-136.4-157C272.2,780.2,346.5,715.8,454,715.8z"/>
<path class="st232" d="M543.2,936c0,0,49.6,178.5,219.3,178.5c141.1,0,241.7-129.5,241.7-260.6c0-42.6-20.5-77.8-57.8-77.8
	c-22.9,0-32.8,13.4-32.8,13.4s14.9-32.8,37.9-32.8c37.3,0,52.7,54.7,52.7,97.3c0,131.2-100.6,224.3-241.7,224.3
	C584.9,1078.2,543.2,936,543.2,936"/>
<path class="st232" d="M672.7,979.8c0,0-18-1.7-18-19.9c0-18.1,19.1-24.3,38.3-24.3c23.8,0,41.3,11.6,41.3,34.4
	c0,35.5-36.5,57-73.8,57c-88.9,0-117.4-91.1-117.4-91.1s28.5,91.1,117.4,91.1c37.2,0,73.8-21.5,73.8-57c0-22.8-16.6-42.9-40.4-42.9
	c-19.2,0-39.2,14.6-39.2,32.8c0,18.1,18.3,19.9,18.3,19.9"/>
<path class="st233" d="M726.1,997.2c7-10.1,18.9-19,32.4-19c11.6,0,19.8,5.8,19.8,17.6c0,8.5-6.5,14.8-14.5,14.8
	c-11.6,0-10.8-10.9-10.8-10.9"/>
<path class="st232" d="M783.7,863.9c20,0,46.3-10.7,71.9-10.7c27.7,0,46.7,13.5,46.7,39.2c0,18.6-14.1,29.6-31.6,29.6
	c-24.5,0-29.5-19.1-29.5-19.1s5,26.6,29.5,26.6c17.5,0,31.6-18.5,31.6-37c0-25.7-19-39.2-46.7-39.2
	C830,853.2,803.6,863.9,783.7,863.9"/>
<path class="st232" d="M501.7,863.9c-20,0-46.3-10.7-71.9-10.7c-27.7,0-46.7,13.5-46.7,39.2c0,18.6,14.1,29.6,31.6,29.6
	c24.5,0,29.5-19.1,29.5-19.1s-5,26.6-29.5,26.6c-17.5,0-31.6-18.5-31.6-37c0-25.7,19-39.2,46.7-39.2
	C455.4,853.2,481.7,863.9,501.7,863.9"/>
<g>
	<g>
		<g>
			<path class="st1" d="M455.4,709.4c-20.3,0-37.5-6.2-49.7-17.9c-12.1-11.6-18.6-27.8-18.6-46.9c0-7.9,1.8-16.2,5.2-24.4
				c-0.1,1.7-0.2,3.4-0.2,5.2c0,31.1,23.6,53.7,56.2,53.7c55.7,0,93.1-56,93.1-108.3c0-5.8,0-14.4-1.9-23.1
				c10.3,12.7,15.7,30.4,15.7,51.4c0,27-10.6,54.6-29.1,75.9C506.9,697.1,481.8,709.4,455.4,709.4z"/>
			<path class="st0" d="M547.4,591.4c0.2,2.5,0.3,5,0.3,7.7c0,25.1-9.9,51-27.2,70.9c-17.8,20.5-40.9,31.8-65,31.8
				c-18.3,0-33.6-5.4-44.4-15.7c-6.3-6-10.8-13.5-13.5-22.1c11.4,14.2,29.4,22.8,50.8,22.8C501.3,686.7,539,640.5,547.4,591.4
				 M498.7,521C498.7,521,498.7,521,498.7,521C498.7,521,498.7,521,498.7,521c-30.6,0-50,21.1-50.1,21.3l1.9,1.7
				c0.2-0.2,18.8-20.5,48.2-20.5c0,0,0,0,0,0c0,0,0,0,0,0c29.2,0,35.1,18.9,35.1,47.3c0,48.6-34.3,100.6-85.4,100.6
				c-28.6,0-48.6-18.9-48.6-46c0-31.9,27.8-59.8,59.5-59.9c0,0,0,0,0,0c4.4,0,8.9,0.6,13.1,1.7c12.5,3.8,18.6,14,18.6,30.8
				c0,36.5-31.2,43.5-32.6,43.8l0.4,2.5c0.4,0,44.4-4.1,44.4-44.1c0-19.1-14-31.3-30.4-35.6c-4-1.2-8.5-1.8-13.5-1.8c0,0,0,0,0,0
				c-44.2,0-79.8,44.7-79.8,81.6c0,43.3,30.5,72.4,75.9,72.4c28.6,0,55.8-13.2,76.6-37.1c19.7-22.6,30.9-52.1,30.9-80.9
				C562.9,552.4,537.1,521,498.7,521L498.7,521C498.7,521,498.7,521,498.7,521C498.7,521,498.7,521,498.7,521
				C498.7,521,498.7,521,498.7,521L498.7,521z"/>
			<path class="st1" d="M546.6,572.3c2.4,8,3.6,17,3.6,26.7c0,25.8-10.1,52.2-27.8,72.5c-18.3,21.1-42.1,32.7-66.9,32.7
				c-36.1,0-60.2-20.7-62.9-53.4c9.4,20.2,30.1,33.3,55.9,33.3C506.6,684.2,545.9,626.6,546.6,572.3 M498.7,521
				C498.7,521,498.7,521,498.7,521C498.7,521,498.7,521,498.7,521c-30.6,0-50,21.1-50.1,21.3l1.9,1.7c0.2-0.2,18.8-20.5,48.2-20.5
				c0,0,0,0,0,0c0,0,0,0,0,0c29.2,0,35.1,18.9,35.1,47.3c0,48.6-34.3,100.6-85.4,100.6c-28.6,0-48.6-18.9-48.6-46
				c0-31.9,27.8-59.8,59.5-59.9c0,0,0,0,0,0c4.4,0,8.9,0.6,13.1,1.7c12.5,3.8,18.6,14,18.6,30.8c0,36.5-31.2,43.5-32.6,43.8l0.4,2.5
				c0.4,0,44.4-4.1,44.4-44.1c0-19.1-14-31.3-30.4-35.6c-4-1.2-8.5-1.8-13.5-1.8c0,0,0,0,0,0c-44.2,0-79.8,44.7-79.8,81.6
				c0,43.3,30.5,72.4,75.9,72.4c28.6,0,55.8-13.2,76.6-37.1c19.7-22.6,30.9-52.1,30.9-80.9C562.9,552.4,537.1,521,498.7,521
				L498.7,521C498.7,521,498.7,521,498.7,521C498.7,521,498.7,521,498.7,521C498.7,521,498.7,521,498.7,521L498.7,521z"/>
		</g>
		<g>
			<path class="st1" d="M829.9,709.4c-26.3,0-51.5-12.2-70.8-34.5c-18.5-21.3-29.1-48.9-29.1-75.9c0-20.9,5.4-38.7,15.7-51.4
				c-1.9,8.7-1.9,17.3-1.9,23.1c0,52.3,37.4,108.3,93.1,108.3c32.6,0,56.2-22.6,56.2-53.7c0-1.7-0.1-3.5-0.2-5.2
				c3.4,8.2,5.2,16.5,5.2,24.4c0,19.1-6.4,35.3-18.6,46.9C867.4,703.2,850.2,709.4,829.9,709.4z"/>
			<path class="st0" d="M738,591.4c8.4,49.2,46.1,95.4,99,95.4c21.4,0,39.5-8.6,50.8-22.8c-2.6,8.6-7.2,16.1-13.5,22.1
				c-10.8,10.3-26.2,15.7-44.4,15.7c-24.1,0-47.2-11.3-65-31.8c-17.3-19.9-27.2-45.7-27.2-70.9C737.7,596.4,737.8,593.9,738,591.4
				 M786.7,521C786.7,521,786.7,521,786.7,521C786.7,521,786.7,521,786.7,521C786.6,521,786.6,521,786.7,521L786.7,521
				c-38.5,0-64.3,31.4-64.3,78.1c0,28.8,11.3,58.3,30.9,80.9c20.8,23.9,48,37.1,76.6,37.1c45.4,0,75.9-29.1,75.9-72.4
				c0-37-35.6-81.6-79.8-81.6c0,0,0,0,0,0c-5.1,0-9.6,0.6-13.5,1.8c-16.3,4.3-30.4,16.5-30.4,35.6c0,40,44,44,44.4,44.1l0.4-2.5
				c-0.3-0.1-32.6-7.2-32.6-43.8c0-16.8,6.1-27,18.6-30.8c4.3-1.2,8.7-1.7,13.1-1.7c0,0,0,0,0,0c0,0,0,0,0,0
				c31.7,0,59.5,28,59.5,59.9c0,27.1-20,46-48.6,46c-51.1,0-85.4-52-85.4-100.6c0-28.4,6-47.3,35.1-47.3c0,0,0,0,0,0c0,0,0,0,0,0
				c0,0,0,0,0,0c29.4,0,48.1,20.3,48.3,20.5l1.9-1.7C836.7,542.1,817.3,521,786.7,521C786.7,521,786.7,521,786.7,521
				C786.7,521,786.7,521,786.7,521L786.7,521z"/>
			<path class="st1" d="M738.8,572.3c0.7,54.3,40,111.9,98.2,111.9c25.8,0,46.5-13.1,55.9-33.3c-2.7,32.6-26.8,53.4-62.9,53.4
				c-24.8,0-48.6-11.6-66.9-32.7c-17.7-20.3-27.8-46.8-27.8-72.5C735.2,589.3,736.4,580.3,738.8,572.3 M786.7,521
				C786.7,521,786.7,521,786.7,521C786.7,521,786.7,521,786.7,521C786.6,521,786.6,521,786.7,521L786.7,521
				c-38.5,0-64.3,31.4-64.3,78.1c0,28.8,11.3,58.3,30.9,80.9c20.8,23.9,48,37.1,76.6,37.1c45.4,0,75.9-29.1,75.9-72.4
				c0-37-35.6-81.6-79.8-81.6c0,0,0,0,0,0c-5.1,0-9.6,0.6-13.5,1.8c-16.3,4.3-30.4,16.5-30.4,35.6c0,40,44,44,44.4,44.1l0.4-2.5
				c-0.3-0.1-32.6-7.2-32.6-43.8c0-16.8,6.1-27,18.6-30.8c4.3-1.2,8.7-1.7,13.1-1.7c0,0,0,0,0,0c0,0,0,0,0,0
				c31.7,0,59.5,28,59.5,59.9c0,27.1-20,46-48.6,46c-51.1,0-85.4-52-85.4-100.6c0-28.4,6-47.3,35.1-47.3c0,0,0,0,0,0c0,0,0,0,0,0
				c0,0,0,0,0,0c29.4,0,48.1,20.3,48.3,20.5l1.9-1.7C836.7,542.1,817.3,521,786.7,521C786.7,521,786.7,521,786.7,521
				C786.7,521,786.7,521,786.7,521L786.7,521z"/>
		</g>
	</g>
</g>
<g>
	<path class="st1" d="M597.1,816.7V485.4l-7.7,0c-5.5,0-11,0.2-16.3,0.6c-34.4,2.2-82.3,12-120.4,45.5
		c-8.5-25.1-25.7-46.2-42.3-66.5c-11.8-14.5-23.9-29.3-32.2-45.2c10.1,3.9,22.2,4.5,34.1,4.5h461.2c11.8,0,24-0.6,34.1-4.5
		c-8.3,16-20.4,30.7-32.2,45.2c-16.7,20.4-33.8,41.4-42.3,66.5c-38.2-33.4-86-43.3-120.5-45.5c-5.3-0.3-10.8-0.5-16.3-0.6l-7.7,0
		v331.3l47.4,37.4c-4.9-0.8-9.6-1.7-14.3-2.7c-19.9-3.8-40.5-7.8-78.6-7.8c-38.2,0-58.7,4-78.6,7.8c-4.8,0.9-9.5,1.8-14.3,2.7
		L597.1,816.7z"/>
	<g>
		<path class="st0" d="M891.6,431.1c-6.6,9.7-14.4,19.2-22.4,29c-14.8,18.2-30.1,36.9-39.7,58.8c-38.2-29.4-83.5-38.4-116.7-40.5
			c-5.4-0.3-11.1-0.5-16.8-0.6l-15.4-0.1v15.4v319.9v7.4l5.8,4.6l20.1,15.9c-16.1-2.7-35.1-5-63.9-5s-47.8,2.2-63.9,5l20.1-15.9
			l5.8-4.6v-7.4V493.1v-15.4l-15.4,0.1c-5.7,0-11.3,0.2-16.8,0.6c-33.2,2.1-78.5,11.1-116.6,40.5c-9.6-21.9-24.9-40.6-39.7-58.8
			c-8-9.7-15.7-19.3-22.4-29c6.8,0.7,13.2,0.7,18.3,0.7h0.5h228.9h2.5h228.9h0.5C878.4,431.8,884.8,431.8,891.6,431.1 M873.3,332.2
			C873.3,332.2,873.3,332.2,873.3,332.2c-1.9,0-3.8,0.1-5.5,0.2c-23.5,1.8-46.6,14.7-46.6,37.1c0,7.8,2.6,14.1,7.7,18.6
			c7.8,6.9,19.5,8.1,26.5,8.1c0.2,0,0.5,0,0.7,0c0.3,0,0.6,0,0.8,0c2.6,0,4.3-0.3,4.5-0.3l-0.4-2.5c-0.1,0-2,0.2-5,0.2
			c-4.3-0.1-10.7-1.1-15.4-5.2c-4.6-4-7-10.1-7-18.3c0-19.7,10.5-31.8,29.8-34.8c3.3-0.5,6.6-0.7,9.9-0.7c0,0,0,0,0,0
			c24.8,0,49.9,15.4,49.9,44.9c0,0,0,0,0,0c0,0,0,0,0,0c0,0,0,0,0,0c0,0,0,0,0,0v0c0,0,0,0,0,0v0c0,31-17.6,36.8-49.9,36.8h-0.5H644
			h-2.5H412.6h-0.5c-32.3,0-49.9-5.9-49.9-36.8v0c0,0,0,0,0,0v0c0,0,0,0,0,0c0,0,0,0,0,0c0,0,0,0,0,0c0,0,0,0,0,0
			c0-29.5,25.1-44.9,49.9-44.9c3.3,0,6.7,0.2,10,0.7c19.3,3,29.8,15,29.8,34.8c0,8.2-2.4,14.3-7,18.3c-4.8,4.1-11.1,5.1-15.4,5.2
			c-3,0-4.9-0.2-5-0.2l-0.4,2.5c0.2,0,1.9,0.3,4.4,0.3c0.3,0,0.6,0,0.9,0c0.2,0,0.4,0,0.7,0c7,0,18.8-1.2,26.6-8.1
			c5.1-4.5,7.7-10.8,7.7-18.6c0-22.5-23.1-35.3-46.6-37.1c-1.8-0.1-3.6-0.2-5.5-0.2c0,0,0,0,0,0c0,0,0,0,0,0
			c-26.1,0-52.5,16.3-52.5,47.4c0,0,0,0,0,0v0c0,0,0,0,0,0v0c0,0.6,0,1.1,0,1.6c0.7,34.6,23.1,62,44.7,88.5
			c16.7,20.5,34,41.6,41.7,66.3l2.8,9.5l1.5-1.5c37.5-37.5,87.7-48.1,123.2-50.4c5.5-0.4,10.8-0.5,15.9-0.6v319.9l-45.6,36
			c-11.9,9.3-24.4,13.9-38.3,13.9c-26.1,0-45.8-20.1-45.8-46.9c0-21.5,15.3-35.9,38.1-35.9c21.5,0,29.2,15.2,29.2,29.4
			c0,7.8-2.1,13.8-6.3,18c-4.6,4.5-10.5,5.6-13,5.8c-0.7,0.1-1.1,0.1-1.2,0.1l0,2.6c0,0,0,0,0,0c0.3,0,1.5,0,3.3-0.3
			c7.9-1.1,27.2-6,27.2-27c0-17.4-17.2-31.1-39.3-31.1c-24,0-40.7,15.8-40.7,38.4c0,28.2,20.8,49.4,48.4,49.4
			c26.5,0,42.8-3.1,60-6.5c19.5-3.8,39.8-7.7,77.2-7.7s57.6,3.9,77.2,7.7c17.2,3.3,33.5,6.5,60,6.5c27.6,0,48.4-21.2,48.4-49.4
			c0-22.6-16.7-38.4-40.7-38.4c-22,0-39.3,13.7-39.3,31.1c0,21,19.3,25.9,27.2,27c1.8,0.3,3,0.3,3.3,0.3c0,0,0,0,0,0l0-2.6
			c-0.1,0-0.7,0-1.5-0.1c-2.6-0.3-8.3-1.4-12.8-5.8c-4.2-4.1-6.3-10.2-6.3-18c0-14.2,7.7-29.4,29.2-29.4c22.8,0,38.1,14.4,38.1,35.9
			c0,26.7-19.7,46.9-45.8,46.9c-13.9,0-26.5-4.5-38.3-13.9h0l-45.6-36V493.1c5.1,0,10.4,0.2,15.9,0.5c35.5,2.3,85.7,12.9,123.2,50.4
			l1.5,1.5l2.8-9.5c7.7-24.7,25-45.8,41.7-66.3c21.6-26.5,44-53.8,44.7-88.5c0-0.5,0-1.1,0-1.6v0c0,0,0,0,0,0v0c0,0,0,0,0,0
			C925.8,348.5,899.4,332.2,873.3,332.2C873.3,332.2,873.3,332.2,873.3,332.2C873.3,332.2,873.3,332.2,873.3,332.2
			C873.3,332.2,873.3,332.2,873.3,332.2L873.3,332.2z"/>
	</g>
	<path class="st1" d="M896.9,427.7c-7.3,11.5-16.4,22.6-25.7,34c-15.4,18.9-31.3,38.3-40.6,61.2c-38.2-30.6-84.3-39.9-117.9-42
		c-5.4-0.3-11-0.5-16.6-0.6l-12.8-0.1v12.8v319.9v6.2l4.9,3.8l28.2,22.2c-18.4-3.5-38.7-6.7-73.5-6.7s-55.1,3.3-73.5,6.7l28.2-22.2
		l4.9-3.8v-6.2V493.1v-12.8l-12.8,0.1c-5.6,0-11.2,0.2-16.6,0.6c-33.6,2.2-79.7,11.4-117.9,42c-9.3-22.9-25.2-42.4-40.6-61.2
		c-9.3-11.4-18.4-22.5-25.7-34c7.8,1.3,16,1.6,23.6,1.6h0.5h228.9h2.5h228.9h0.5C881,429.3,889.1,429,896.9,427.7 M873.3,332.2
		C873.3,332.2,873.3,332.2,873.3,332.2c-1.9,0-3.8,0.1-5.5,0.2c-23.5,1.8-46.6,14.7-46.6,37.1c0,7.8,2.6,14.1,7.7,18.6
		c7.8,6.9,19.5,8.1,26.5,8.1c0.2,0,0.5,0,0.7,0c0.3,0,0.6,0,0.8,0c2.6,0,4.3-0.3,4.5-0.3l-0.4-2.5c-0.1,0-2,0.2-5,0.2
		c-4.3-0.1-10.7-1.1-15.4-5.2c-4.6-4-7-10.1-7-18.3c0-19.7,10.5-31.8,29.8-34.8c3.3-0.5,6.6-0.7,9.9-0.7c0,0,0,0,0,0
		c24.8,0,49.9,15.4,49.9,44.9c0,0,0,0,0,0c0,0,0,0,0,0c0,0,0,0,0,0c0,0,0,0,0,0v0c0,0,0,0,0,0v0c0,31-17.6,36.8-49.9,36.8h-0.5H644
		h-2.5H412.6h-0.5c-32.3,0-49.9-5.9-49.9-36.8v0c0,0,0,0,0,0v0c0,0,0,0,0,0c0,0,0,0,0,0c0,0,0,0,0,0c0,0,0,0,0,0
		c0-29.5,25.1-44.9,49.9-44.9c3.3,0,6.7,0.2,10,0.7c19.3,3,29.8,15,29.8,34.8c0,8.2-2.4,14.3-7,18.3c-4.8,4.1-11.1,5.1-15.4,5.2
		c-3,0-4.9-0.2-5-0.2l-0.4,2.5c0.2,0,1.9,0.3,4.4,0.3c0.3,0,0.6,0,0.9,0c0.2,0,0.4,0,0.7,0c7,0,18.8-1.2,26.6-8.1
		c5.1-4.5,7.7-10.8,7.7-18.6c0-22.5-23.1-35.3-46.6-37.1c-1.8-0.1-3.6-0.2-5.5-0.2c0,0,0,0,0,0c0,0,0,0,0,0
		c-26.1,0-52.5,16.3-52.5,47.4c0,0,0,0,0,0v0c0,0,0,0,0,0v0c0,0.6,0,1.1,0,1.6c0.7,34.6,23.1,62,44.7,88.5
		c16.7,20.5,34,41.6,41.7,66.3l2.8,9.5l1.5-1.5c37.5-37.5,87.7-48.1,123.2-50.4c5.5-0.4,10.8-0.5,15.9-0.6v319.9l-45.6,36
		c-11.9,9.3-24.4,13.9-38.3,13.9c-26.1,0-45.8-20.1-45.8-46.9c0-21.5,15.3-35.9,38.1-35.9c21.5,0,29.2,15.2,29.2,29.4
		c0,7.8-2.1,13.8-6.3,18c-4.6,4.5-10.5,5.6-13,5.8c-0.7,0.1-1.1,0.1-1.2,0.1l0,2.6c0,0,0,0,0,0c0.3,0,1.5,0,3.3-0.3
		c7.9-1.1,27.2-6,27.2-27c0-17.4-17.2-31.1-39.3-31.1c-24,0-40.7,15.8-40.7,38.4c0,28.2,20.8,49.4,48.4,49.4c26.5,0,42.8-3.1,60-6.5
		c19.5-3.8,39.8-7.7,77.2-7.7s57.6,3.9,77.2,7.7c17.2,3.3,33.5,6.5,60,6.5c27.6,0,48.4-21.2,48.4-49.4c0-22.6-16.7-38.4-40.7-38.4
		c-22,0-39.3,13.7-39.3,31.1c0,21,19.3,25.9,27.2,27c1.8,0.3,3,0.3,3.3,0.3c0,0,0,0,0,0l0-2.6c-0.1,0-0.7,0-1.5-0.1
		c-2.6-0.3-8.3-1.4-12.8-5.8c-4.2-4.1-6.3-10.2-6.3-18c0-14.2,7.7-29.4,29.2-29.4c22.8,0,38.1,14.4,38.1,35.9
		c0,26.7-19.7,46.9-45.8,46.9c-13.9,0-26.5-4.5-38.3-13.9h0l-45.6-36V493.1c5.1,0,10.4,0.2,15.9,0.5c35.5,2.3,85.7,12.9,123.2,50.4
		l1.5,1.5l2.8-9.5c7.7-24.7,25-45.8,41.7-66.3c21.6-26.5,44-53.8,44.7-88.5c0-0.5,0-1.1,0-1.6v0c0,0,0,0,0,0v0c0,0,0,0,0,0
		C925.8,348.5,899.4,332.2,873.3,332.2C873.3,332.2,873.3,332.2,873.3,332.2C873.3,332.2,873.3,332.2,873.3,332.2
		C873.3,332.2,873.3,332.2,873.3,332.2L873.3,332.2z"/>
</g>
</svg>
