<svg id="Layer_1" data-name="Layer 1" xmlns="http://www.w3.org/2000/svg" viewBox="0 0 1920 1371"><defs><style>.cls-1{fill:#fffcf8;}.cls-2{fill:#1a1a1a;}</style></defs><title>thanks</title><rect class="cls-1" x="-26.71" y="-17.84" width="1959.28" height="1417.93"/><path class="cls-2" d="M1791.75,399.61a203.19,203.19,0,0,0-61.35-47.18l19.92-44.8.19-.43-.38-.26c-.1-.06-9.6-6.83-12.78-34.27l-.25-2.13-29.75,72c-27-9.83-56.91-14.89-89.28-14.9h-.1c-56.71,0-109.93,22.7-149.84,63.91s-61.73,95.72-61.73,153.82c0,41.66,11.84,80.41,33.61,111-5.34,9.2-10.71,18.59-16.12,28.06a51.76,51.76,0,0,0-17-2.69c-17.42,0-35.09,9.34-48.49,25.63-13.07,15.89-20.57,36.27-20.57,55.91,0,17.64,4.18,32.63,11.73,44.08-24.79,36.4-49.11,65.59-73.46,87.94,4.79-16.74,10.83-34,16.77-51.08,11.48-32.9,22.32-64,22.32-86.26,0-42.08-24.71-57-39-62.14,2,.19,4,.32,5.95.32h0c24,0,51.59-12,73.76-32,23-20.79,36.25-46.43,36.25-70.34,0-20.84-14.49-36-34.44-36-21,0-44.47,19.4-69.87,57.66-7.31,11-13.72,22.08-18.84,31.52,23.16-51.57,47.15-107.82,68.36-158.34a217.1,217.1,0,0,0,22.5-18.68c41.12-39.16,63.77-91.43,63.77-147.18a208.77,208.77,0,0,0-1.76-27.14c15.6-27.67,34.46-48.88,67.49-48.88h0c23.55,0,38,14.61,43.64,28.27,5.58,13.46,3.79,27.57-4.55,36l-.05.05.39.39h0l.39.39c11.39-11.39,14.85-25.34,9.5-38.27-6.91-16.69-26.76-27.91-49.38-27.91-29.79,0-51.63,14.57-69.78,36.3-7.13-35.14-23.56-66.43-48-90.55-33.42-33-80.32-51.2-132.06-51.2-40.26,0-78.27,12.55-109.28,35.7a157.22,157.22,0,0,0-33.15-50.31C1066.1,94,1023.6,77.38,974.27,77.38c-32.23,0-61.35,6-88.27,18.57-29.76,13.13-58.28,33.29-86,60.68-25.19,24.89-49.23,55.14-73.31,92.46a738.21,738.21,0,0,0-65.35-45.39C597,164.5,535.58,145.44,473.53,145.44c-65.37,0-125.5,24.74-169.31,69.66a231,231,0,0,0-50.17,78.05,218.82,218.82,0,0,0-14.38,58.49C141.25,384.73,74,476.9,74,591.44c0,58.25,17.54,111.44,49.38,149.77a171.16,171.16,0,0,0,74.66,52.5c-14.77,32.72-22.56,69.13-22.56,107.24v.18a250.22,250.22,0,0,0,3.34,40.93c6.72,40.61,23.43,77.64,48.66,107,35.9,41.7,84.91,63.74,141.73,63.74a187.91,187.91,0,0,0,126.47-48.21,310.58,310.58,0,0,0,26.19,71.37A314.25,314.25,0,0,0,565,1201c51.48,59.73,119.84,92.63,192.49,92.63,66,0,127-24.79,171.69-69.81A233.68,233.68,0,0,0,966,1175.44a217.89,217.89,0,0,0,15.79-32.37,245.5,245.5,0,0,0,15.87-71.81c73.67,51.51,155.11,86.41,251.17,86.41,60,0,114.17-12.1,161-36,40.69-20.74,76-50.39,104.95-88.12,28.75-37.48,46.94-77.14,58.42-111.26a167.45,167.45,0,0,0,22.37,1.43,178.48,178.48,0,0,0,66.07-12.47C1706,894.23,1746.93,860,1780.82,811c45.29-65.56,72.33-150.73,72.33-227.83C1853.15,508.49,1831.92,445,1791.75,399.61ZM1119,823.49h0c-9.2,0-13.31-5.27-13.31-17.08,0-25.17,25.56-66.21,50.28-105.91,25.28-40.59,51.42-82.56,51.42-109,0-20.68-11.57-33.54-30.18-33.56h0c-20.17,0-44.36,21.59-71.9,64.16-9.3,14.38-17.42,28.84-23.52,40.37,13.08-32.8,24.26-76.17,12.75-94.31-3.6-5.68-9.25-8.56-16.77-8.56-26.05,0-57.52,63.67-90.84,131.08-32.3,65.34-65.69,132.9-92,132.9h0c-8,0-11.15-4.25-11.15-15.13,0-38.5,106.36-242.79,107.43-244.85l.42-.81H967l-.16.3c-.34.66-13.21,25.33-29.26,58.54,4.49-12.3,9-27.83,9-40.44,0-6-1-11.26-3.52-15.27-3.14-5-8.38-7.53-15.59-7.53-28,0-64.11,30-96.64,80.12a382.37,382.37,0,0,0-29,53.75h0c-.52,1.08-43.66,89.95-79,120.83q-11-10.52-22.13-20.63-4.47-4.12-9-8.17c8-23.65,27-54.11,45.5-83.81,25.26-40.49,51.38-82.37,51.38-109,0-20.68-11.57-33.54-30.18-33.56h0c-20.16,0-45.1,21.28-74.11,63.26-11.79,17.06-21.87,34.23-28.62,46.34,26.52-59.17,57-127.09,84.37-187.94,45.31,14.32,90.19,23.83,135.65,23.83,50.28,0,95.61-9.74,134.26-28.54,58.44,33.52,122.18,55.83,195.35,55.83a226.91,226.91,0,0,0,105.21-25.44c-19.65,44.46-41.35,92.59-62.73,137.61C1235.24,667.89,1155.65,823.49,1119,823.49ZM912.63,675.06c-.63,1.48-63.58,148.48-101.36,148.48a27.5,27.5,0,0,1-5.7-.57c-8.46-1.9-12.31-8.61-12.31-21.06,0-28,20.94-87.09,50.91-143.67,25.3-47.75,60.49-98.77,83.35-98.77,6.8,0,11.73,2.36,14.65,7,2.36,3.77,3.32,8.82,3.32,14.52,0,20.29-12.1,48.91-16.24,58.09-5.46,11.55-11.09,23.72-16.57,36ZM453.31,553.38a171.65,171.65,0,0,0,75.6-44.82,175.19,175.19,0,0,0,47.77-91.84c12.79,5.12,25.52,10.32,38.19,15.5l13.65,5.57c-22.9,51.75-44.15,104.41-65,156-11.29,28-22.35,55.38-33.32,81.73a300.59,300.59,0,0,0-79-20.37,210,210,0,0,0,7.1-53.78v-.18A217.78,217.78,0,0,0,453.31,553.38ZM722,473.64c-37.58,80.26-81.33,174.15-113.87,244.08a444.64,444.64,0,0,0-61.62-35.13c23.2-49.22,46.29-102.3,69.72-156.15,11.43-26.27,23-52.94,34.81-79.52C674.93,456.51,698.54,465.63,722,473.64Zm144.37,23.91c-43.11,0-84.84-7.71-125.54-19.69C772,408.47,799.13,348.51,811.56,321.6q11.27,9.69,22.59,19.51c51,44.13,102.8,89,159.36,123.94C953.54,486.11,909.69,497.55,866.37,497.55ZM722.66,472.22c-24-7.82-47.62-17-71-26.73,15-33.86,30.29-67.57,45.86-100.13,14-29.26,27.75-57.19,41.85-83.2,20.06,15.42,39.87,31.86,59.73,48.78C791.69,325.3,760.34,391.77,722.66,472.22Zm-73.14,209C660.15,661,715.64,559,758.41,559h0C771,559,778,565.39,778,576.91c0,18.58-21.21,49.59-43.67,82.43-24.89,36.39-52.7,77.06-58.88,110.48-15.85-13.72-31.88-26.67-48.25-38.66Zm482.7-498.15a185.41,185.41,0,0,1,10.56,63c0,48.45-21.32,100.84-58.18,145.2-14.65-21.37-23.07-47.69-23.07-76.76C1061.53,259.3,1088.74,212.17,1132.22,183.12ZM239.51,370.23c28.35-8.82,59.57-13.53,93-13.53,83.59,0,164.48,28.16,243,59.57C563.4,481.6,515.35,534.22,453,552.17c-7.05-30.35-20-50.42-31.42-63-18.17-20-36.62-26.09-36.81-26.15l-.73-.23v5.65l.42.11c.18,0,18.39,4.93,36.35,23.67,11.28,11.77,24,30.8,31,60.3a170,170,0,0,1-46,6.31c-98.07,0-166.56-74-166.56-180.05C239.35,375.89,239.41,373.06,239.51,370.23ZM431.82,666.64q7.34,0,14.55.35c-24.49,73.69-89.21,136.77-181.07,136.77-23.34,0-44.4-3.53-63.27-9.88C242.21,716.39,326.77,666.64,431.82,666.64ZM702,823.49c-11.73,0-14.19-10.51-14.19-19.33,0-5.49,1.27-11.79,3.51-18.68q3.79,3.36,7.56,6.78,11.5,10.59,22.95,21.64c-7.07,6-13.82,9.59-19.81,9.59Zm681.46-484.12c-3.87,7.3-15.26,33.57-31,69.93-11.62,26.78-25.66,59.15-41,93.85a224.47,224.47,0,0,1-106.14,26.41c-71.74,0-135.12-22.09-193.68-55.54a233.4,233.4,0,0,0,61.21-43.6,228.69,228.69,0,0,0,21.7-25q1.95,2.14,4,4.2c24.62,24.74,58.34,38.36,95,38.36,77.88,0,134.41-53.62,134.41-127.49v-.16q0-4.31-.31-8.48c-1.76-24.08-10.9-45.76-26.17-61.76-17.85-18.7-42.47-28.58-71.21-28.58h-.56v5.57h.56c57.77,0,96.58,37.54,96.58,93.42,0,73.23-56.06,126.38-133.29,126.38-39.87,0-74.55-16-98.34-42.27,32-43,48.74-97.16,48.74-158.57A184.59,184.59,0,0,0,1133,182.63c29.31-19.36,65.91-30.57,106.52-30.57,93.07,0,161.9,52.32,179,131.3C1405.46,299.3,1394.33,318.9,1383.49,339.37ZM483.35,159c93.11,0,169.42,38.91,241.83,92.44-16.34,25.53-32.72,54.33-49.49,87C659.35,370.2,644,402.89,629.34,436c-15.26-6.63-30.41-13.42-45.48-20.18l-6.51-2.92a183,183,0,0,0,2.33-29.14c0-.24,0-.48,0-.71-.18-58.8-22.88-91.36-41.94-108.32-20.75-18.47-41.8-23-42-23l-.67-.14v5.61l.47.07c.21,0,21,3.36,41.48,20.54,18.85,15.78,41.3,46.78,41.55,105,0,.07,0,.15,0,.22v.12c0,.22,0,.44,0,.66a177.91,177.91,0,0,1-2.32,28.64c-85.87-38.47-167.4-73.91-254.41-73.91a257.5,257.5,0,0,0-80.93,12.77A232.9,232.9,0,0,1,255,293.59C288.23,210.6,371.81,159,483.35,159Zm513.94,892q0,8.15-.48,16.15C925.56,1019.42,862.9,955,801.31,891.74q-8.36-8.6-16.65-17.09a206.11,206.11,0,0,1,27.15-1.78c107.42,0,185.4,74.84,185.47,178Zm373.38-642.1c15.35-37,26.44-63.69,30-71,1.82-3.7,3.61-7.42,5.41-11.14,4.87-10.09,9.67-20,14.81-29.32a191.16,191.16,0,0,1,1.67,25.32c0,66.29-32.95,125.4-84.07,163.27C1350.35,457.85,1361.28,431.53,1370.67,408.9ZM1112.23,191.39a171.3,171.3,0,0,0-51.81,123.14c0,28.58,8.23,55.42,23.51,77.57a296.43,296.43,0,0,1-23.33,24.83,302.47,302.47,0,0,1-65.52,47.28c-59.63-36.72-114.47-84.49-168.42-131.5l-14.43-12.56c2.55-5.5,4.41-9.47,5.49-11.67l.67-1.37c21.71-44.15,44.15-89.79,92.51-89.79,20.56,0,37.26,10.68,44.67,28.56,5.81,14,4,28.71-4.7,37.38l.79.79c11.59-11.59,15.08-25.88,9.57-39.19-7.1-17.14-27.32-28.66-50.32-28.66-54.43,0-87.91,49.72-111,93.25-19.5-16.84-39.26-33.57-59.31-49.5,39.21-71.94,81.16-129,137.94-158.8,29.07-14.28,60.91-22.66,95.76-22.66,73.64,0,130.79,38,155.36,97.91A177.33,177.33,0,0,0,1112.23,191.39ZM238.37,370.6c-.08,2.7-.14,5.42-.14,8.15,0,106.67,69,181.17,167.67,181.17a174.11,174.11,0,0,0,46.27-6.21,211.57,211.57,0,0,1,5,46.69c0,.06,0,.12,0,.18v.06c0,.16,0,.31,0,.47v.27A206.76,206.76,0,0,1,450,655a290.9,290.9,0,0,0-31.64-1.71c-66,0-127.13,25-172.19,70.42a238.27,238.27,0,0,0-47.59,69C114.23,762.28,75.16,674.3,75.16,591.44,75.16,484.15,138.95,402,238.37,370.6ZM176.64,901c0-38.89,8.82-74.72,24.86-106.06a199.76,199.76,0,0,0,63.79,10c53.52,0,103-22.29,139.31-62.76a211.14,211.14,0,0,0,43.09-75,297.61,297.61,0,0,1,79.66,15.36c-59.18,141.31-116.18,250.75-194.17,254h-.12c-1,0-2,.06-3,.07h-.55c-52.07,0-52.67-42.76-52.67-44.58v-.56h-5.57V892c0,12.71,10.48,45.7,58.31,45.7h.4c1.55,0,3.1-.06,4.63-.14h0c77-4.49,143.53-110.86,209.11-249.07a389,389,0,0,1,63,32.31c-27,58-46,98.86-46.61,100.25l-.37.79h26.87l.15-.33c.57-1.29,16.31-36.47,39.34-87.9,16.66,11.56,33,24.28,49,37.87a69.59,69.59,0,0,0-1,11.29c0,20.24,7.33,41.87,27.88,41.88h0c6.3,0,13.32-3.71,20.65-9.9,16.84,16.22,33.62,33,50.48,50.15C693.25,882.61,631.45,953.78,631.32,1036v.27c0,38.92,12.37,73.89,34.83,98.47,23,25.16,54.63,38.46,91.51,38.46h.61c47.19-.2,73.94-23.34,88.09-42.76A119.39,119.39,0,0,0,866,1087.71l.13-.66H860.5l-.07.48a112,112,0,0,1-17.23,42.33c-13,19.27-38.47,42.25-85.54,42.25-73.73,0-125.23-55.85-125.23-135.82v-.13c.07-82.63,64.19-149.08,150.57-161.29L798.83,891c62.81,64.24,126.68,129.55,197.76,179.45a247.6,247.6,0,0,1-26,94.89c-38.1,72.08-114.47,115.82-213.1,115.82-83.08,0-155.1-36.88-203.71-97.18q-6.56-8.2-12.52-16.92a323.79,323.79,0,0,1-44.41-103.56q1.63-1.5,3.24-3A177.93,177.93,0,0,0,541.62,1000a167.72,167.72,0,0,0,12.87-65.14c0-26.89-12-38.92-24-38.92C509.41,896,487,928.3,487,988.23a334.43,334.43,0,0,0,8,73c-32.18,26.54-75.74,42.07-125.7,42.07-90.3,0-158.92-52.75-183.13-134.37a247,247,0,0,1-9.49-67.78Zm319.43,159.31a329,329,0,0,1-8-71.67v-.37c0-59.2,21.84-91.15,42.4-91.15,6.3,0,12,3.36,16,9.47,4.47,6.75,6.83,16.55,6.83,28.33a170,170,0,0,1-20.65,81.29A159.28,159.28,0,0,1,496.08,1060.27Zm-238.45,16.09-.27-.2ZM1585.08,879.9a390.29,390.29,0,0,0,8.08-51.8,244.13,244.13,0,0,0,1-34.15c-.45-12-1.83-22.68-4.18-31.44l-1.08.27a161.79,161.79,0,0,1,3.8,25.26,265.54,265.54,0,0,1-.46,38.46c-2.59,28.78-10.13,61-23.64,94-21.38-3.65-36.48-11.56-47.15-20.84h0c-.07-.06-2-1.78-4.87-4.8-9.75-11.25-5.61-20.23-1.25-29.68,2.54-5.49,5.16-11.18,5.16-17.51,0-9.07-4.65-14.93-11.85-14.93-8.61,0-13.35,8.14-13.89,16.66h-.07l0,.55h0c0,.07,0,.2,0,.35s0,.47,0,.7c0,12.87,6,24.75,12.19,33.65,10,15.35,28.21,31.19,61.27,36.89a370.06,370.06,0,0,1-51.54,87.72c-48.12,60.93-137,133.57-286.88,133.57-89.22,0-164.37-30-231.82-75q.5-8.35.5-16.88c0-50.56-18.72-98-52.72-133.71-34.83-36.54-82.37-56.67-133.87-56.67a178.16,178.16,0,0,0-37.06,3.9c-17.1-17.43-34-34.4-51.07-50.67C751.08,790,782.43,732.72,796,706.3c-9.83,25.42-15.42,49.45-15.42,68.43,0,14.13,2.65,45.9,26,49.57a28.71,28.71,0,0,0,4.62.35c26.49,0,63.75-67.68,85.28-111.92-13,32.07-22.66,60.93-22.66,76.32s2.17,35.57,20.94,35.61h0c27,0,60.57-67.88,93-133.52,31.7-64.14,64.48-130.46,89.84-130.46,8.42,0,13.24,5,13.24,13.63,0,34-110.32,244.54-111.43,246.66l-.43.82h27.62l.15-.32c.59-1.24,59.35-124.7,67.72-142.5l.59-1.28c14.33-28.87,62.13-118.67,102-118.67h0c12.59,0,19.52,6.36,19.52,17.88,0,18.58-21.12,49.87-43.49,83-28.07,41.58-59.89,88.71-59.89,124.16,0,26.51,8.87,40.54,25.66,40.55h0c29.76,0,85.22-96.56,113.69-150.11C1206.55,730.18,1166.62,820,1166.18,821l-.35.78h25.53l.14-.34c.26-.61,26-61.84,65.54-147.95l2.08-4.56c10.07-21.1,55.12-110,98.66-110,11.31,0,17.54,7.25,17.54,20.4,0,39.08-42.16,115.64-93.13,115.64a87.56,87.56,0,0,1-13.11-1.27c-1.61-.35-2.58-.46-2.65-.47l-.08.66-.09.44,1.45.27c6.49,1.35,33.34,8.7,33.34,37.88,0,20.56-9.9,48.15-20.37,77.36-11.87,33.1-25.29,70.53-25.79,103.15-34.46,26-69.23,38.52-105.64,38.52-49.68,0-79.73-18.73-96.19-34.44a105.91,105.91,0,0,1-22-29.7c-1.39-3-2.06-4.72-2.08-4.78l-1,.38c0,.06.66,1.85,2.1,4.82a144.55,144.55,0,0,0,23.25,34.72c16.38,18,45.07,39.54,88.69,39.54,39.33,0,76.3-14.19,112.93-43.35.6,28.2,8.4,84.38,60.79,84.41h0c25.43,0,47.73-22.78,47.73-48.75,0-21-12.17-35.1-30.29-35.1-22.06,0-30.13,18.73-32.72,27.64a30.68,30.68,0,0,0-1.08,4.62l1.1.15a44.6,44.6,0,0,1,2.23-8c3.33-8.19,11.4-19.7,30.47-19.7,18.47,0,29.1,11,29.18,30.2h0v0h0v0h0v0h0v0h0v0h0v0h0v0c0,24.93-22.22,47.63-46.62,47.63h0c-29.88,0-49.19-20.12-49.19-51.22,0-14.93,3.11-31.57,7.77-49,24.67-23.36,49.68-54.17,75.95-93.5C1360.61,823.35,1377,832,1397.49,832c30.58,0,58.81-15.72,79.51-44.25,15.87-21.88,26.11-49.76,29.17-78.5A152.89,152.89,0,0,0,1551.26,720l-20.83,50.37-.21.5,11.73,5.27,24.72-55.57a161.21,161.21,0,0,0,116-50.28c30.73-32.18,47.66-75.23,47.66-121.22,0-35.31-10.63-67.59-29.93-90.88a108.55,108.55,0,0,0-11.64-12L1729.27,355c67.75,37.43,105.86,113.41,105.86,218.37,0,84.94-22.81,171-62.57,236.14-21,34.46-53.12,73.34-98.63,95.38a184.4,184.4,0,0,1-78.25,17.79h-.1a166.38,166.38,0,0,1-22-1.4A425.86,425.86,0,0,0,1585.08,879.9ZM1618,328.71h1.2c32.39.13,61.65,5.48,87.42,15.62L1669.93,433c-15.7-8.56-33.74-13-53.5-13H1616c-35.5.1-64.43,12.78-86,37.69a130.23,130.23,0,0,0-25.14,45.36c-.14.43-.24.76-.31,1l-.26.74H1510l.13-.37c.1-.29.26-.82.47-1.59,7-24.56,31.29-81.67,105.87-81.67,19.65,0,37.55,4.61,53,13.06L1551.71,718.94a149.78,149.78,0,0,1-45.4-11c.55-5.53.86-11.09.86-16.65,0-2.63,0-5.39,0-8.27-.11-41.83-.29-111.83,22.82-135a30.11,30.11,0,0,1,2.29-2.08,27,27,0,0,1,16.19-5.8h0V539h0c-14.87,0-30.09,8.68-47.09,27-20,21.46-40.07,53.64-60.58,88.92-21-29.53-33.28-67.36-33.28-109.63C1407.51,425.88,1501.92,328.71,1618,328.71Zm-82.91,213.89a28.28,28.28,0,0,0-3.9,2.78c-14,10.75-25.71,34.77-33.38,69.42-3.91,17.66-6.92,36.79-10.12,57-1.28,8.09-2.56,16.21-3.9,24.26A155.49,155.49,0,0,1,1441.53,656C1473.49,601.15,1504.29,553.75,1535.06,542.59Zm153.13-95.25c25.65,22.61,41,58.42,41,101.75,0,94.79-71,169.19-162,170.38ZM1451.25,730.7c0,29.25-19.38,60.57-48.22,60.57-16.9,0-28.29-8.81-32-24.11a52.63,52.63,0,0,1-1.34-11.89v0c0-26.84,15.74-38.23,15.9-38.34l-.64-.91c-.16.12-16.37,11.8-16.37,39.25,0,24.08,13.86,40.26,34.49,40.26,29.08,0,49.34-34.15,49.34-64.8,0-23.08-10.15-39.47-27.41-46,5.3-9.25,10.56-18.43,15.79-27.41q4.73,6.54,10.07,12.55a151.41,151.41,0,0,0,32.7,27.72c-11.61,69.22-28.08,133.28-86,133.28-35.56,0-58.54-26.57-58.54-67.69,0-41.34,33-80.42,67.95-80.42C1434.25,682.78,1451.25,701.14,1451.25,730.7Z"/></svg>