<?xml version="1.0" encoding="utf-8"?>
<!-- Generator: Adobe Illustrator 21.1.0, SVG Export Plug-In . SVG Version: 6.00 Build 0)  -->
<svg version="1.1" id="Layer_1" xmlns="http://www.w3.org/2000/svg" xmlns:xlink="http://www.w3.org/1999/xlink" x="0px" y="0px"
	 viewBox="0 0 1475.6 1726.4" style="enable-background:new 0 0 1475.6 1726.4;" xml:space="preserve">
<style type="text/css">
	.st0{fill:#FFFCF8;}
	.st1{fill:#F9B110;}
	.st2{fill:none;stroke:#1A1A1A;stroke-width:4;stroke-linecap:round;stroke-linejoin:round;stroke-miterlimit:10;}
</style>
<title>jfs</title>
<rect x="-17.9" y="-8.5" class="st0" width="1508.9" height="1766.7"/>
<g>
	<g>
		<path class="st1" d="M1015,1098.9c49.5,0,80.7-56,97.2-98.3c11.3,43.8,42.6,71.1,83.4,71.1c97.1,0,171.7-104.5,171.7-205.5
			c0-40.5-15.7-74.6-48.8-74.6c-22.7,0-43.4,15.5-49.1,20.2c-0.8,0.7-0.9,1.9-0.1,2.7c4.9,4.9,20.7,24.2,20.7,68.4
			c0,52.4-26.4,106.9-60.8,106.9c-24.7,0-30-24-30-47.7c0-58.2,36.9-161,36.9-220.1c0-31.4-21.3-53.2-55.9-53.2
			c-17,0-31.8,5.4-37.7,7.9c-1.1,0.5-1.5,1.9-0.7,2.9c2.2,2.4,5.3,8,5.3,19.8c0,54.6-14.7,111.1-26.2,164.8l0,0
			c-5.9,22.7-24.5,138.6-64.1,138.6c-13.9,0-16.8-14-16.8-29.8c0-59.6,51.1-225.1,51.1-286.6c0-31.4-21.7-54.4-55.9-54.4
			c-20.2,0-35.4,5.4-41.3,7.9c-1.1,0.5-1.5,1.9-0.7,2.9c2.2,2.4,5.3,8,5.3,19.8c0,48.1-15.2,121.7-29,191.7l0,0
			c-3.8,19.5-32.1,127-66.8,127c-13.3,0-16.1-10.9-16.1-23.9c0-27.3,24.3-77.3,24.3-105.7c0-28.2-18.5-47.3-50-47.3
			c-18.9,0-34.8,8.8-40.5,12.4c-1,0.6-1.1,2.1-0.2,2.9c2.5,2.3,6.5,7.8,6.5,20.1c0,45.7-31.5,118.5-31.5,161.9
			c0,39.9,19.1,69.9,56.9,69.9c45.5,0,76.6-44.6,95.9-86.9c-0.6,7.4-0.9,14.4-0.9,20.8C947.5,1051.8,966.6,1098.9,1015,1098.9z"/>
		<path class="st1" d="M934.7,719.2c3-29.7-12.4-59-44.8-62.3c-35.4-3.6-57.1,21.1-60.5,54.9c-3.1,31,13.6,58.8,44.2,61.9
			C907.3,777.1,931.2,753.5,934.7,719.2z"/>
		<path class="st1" d="M1368,1120.3c-1.1-0.9-2.6-0.3-2.9,1c-2.7,12.5-18.4,61.6-97.8,61.6c-11.3,0-23.4-1-36-2.5
			c0.6-5.5,1-10.3,1-14.4c0-34.6-22.5-54.4-57.1-54.4c-17.4,0-37.1,5.7-44.5,8.1c-1.2,0.4-1.7,1.9-0.8,2.9c2.2,2.5,5.1,8.1,5.1,19.6
			c0,7.3-0.3,14.8-0.7,22.4c-16.5-2.5-32.1-4.3-45.7-4.3c-39.5,0-59,19.7-59,52.8c0,17.4,6.6,31.8,10.1,38.1
			c0.7,1.3,2.7,1.3,3.3-0.1c3.1-7.3,13.4-23.1,43.2-23.1c11.1,0,24.7,2.2,39.8,5.5c-11.6,70.4-30.2,144.3-30.2,198
			c0,75.7,33.4,129.1,106.3,129.1c82.4,0,146.6-87.9,146.6-165.6c0-39.5-17-71.3-58.2-71.3c-30.3,0-48.3,23.3-53.5,31.2
			c-0.7,1.1-0.1,2.6,1.3,2.8c8.3,1.2,32.1,7.9,32.1,44.5c0,31.7-18,76.5-51.6,76.5c-26.2,0-32.6-23.7-32.6-53.4
			c0-35.2,17.5-106.8,31-167.9c28.4,7.2,56.1,12.9,78.8,12.9c60.4,0,104.9-28.2,104.9-85.5C1400.5,1149.7,1375.9,1126.8,1368,1120.3
			z"/>
		<path class="st1" d="M624.4,1517.3c-96,0-170.4-49.8-258.9-63.6c0.8-12.6,2-27,3.8-42.4c107.5-15.6,188-96.4,188-204.1
			c0-53.7-36.8-99.8-96.3-99.8c-99,0-148.8,105.1-170.9,216.8c-31.2-15.5-48.5-45-48.5-84.4c0-92.7,63.9-113.4,81.1-117.2
			c1.6-0.4,1.9-2.4,0.6-3.3c-8.5-5.4-31.5-17.8-64.1-17.8c-76,0-122.2,70-122.2,137.7c0,87.5,58.9,150.4,141.3,169.2
			c-1.5,17.1-2.4,33.7-2.9,49.5c-32.3,11.6-52.6,36.1-52.6,68.7c0,14.2,3.6,23,5.8,27.1c0.7,1.3,2.4,1.2,3.2,0
			c4.5-7.6,20.9-28.1,66.7-28.1c107.5,0,195.5,132.1,304.4,132.1c68.9,0,110.1-51.8,110.1-111.5c0-36.6-6.9-54-9.9-59.8
			c-0.6-1.2-2.2-1.3-3-0.3C693.9,1493.2,670.3,1517.3,624.4,1517.3z M464.1,1184.2c16.3,0,22.6,13.7,22.6,29.4
			c0,55.6-46.2,104.9-105,118.8C397.1,1256.7,423.6,1184.2,464.1,1184.2z"/>
		<path class="st1" d="M315,650.5c38.9,0,59.6-23.6,64.5-30.2c0.6-0.8,0.4-2-0.5-2.6c-5-3.4-19.9-16.9-19.9-58.7
			c0-80.2,59.8-208.6,59.8-284.7c0-38.2-21.7-66.8-58.8-66.8c-27,0-43.1,15.3-48.1,21c-0.8,0.9-0.5,2.4,0.7,2.9
			c4.4,1.9,13.2,7.7,13.2,23.6c0,83.1-82.4,221.1-82.4,309.7C243.5,614.8,266.8,650.5,315,650.5z"/>
		<path class="st1" d="M275.9,295.1c0.2-1.8-2-2.7-3.2-1.4c-5.5,6.4-18,16.7-41,16.7c-34.3,0-53.3-26.7-53.3-62.1
			c0-54.8,39.8-90.1,101.8-90.1c111.2,0,220.4,107.4,346.7,107.4c75.1,0,136.4-53.3,136.4-121.9c0-50.7-33.8-72.5-33.8-72.5
			s-20.6,71.7-130.7,71.7c-98,0-233.7-59.3-340.3-59.3c-119.3,0-194.1,83.8-194.1,181.6c0,75,46.1,129.8,113.3,129.8
			C260.7,394.9,273.8,317.9,275.9,295.1z"/>
		<path class="st1" d="M713.2,305.3c-16.9,0-29.5,5.4-34.5,7.8c-1.1,0.5-1.3,1.9-0.6,2.8c2.2,2.6,5.6,9,5.6,23.5
			c0,21.8-9,66.7-16.3,106.9l0,0c-6.9,28.3-30.9,90.5-59.1,90.5c-12.5,0-17.2-11.5-17.2-24.9c0-35.3,35.6-123.7,35.6-153.6
			c0-24.2-14.8-39.1-41.5-39.1c-82.9,0-92.8-31-93.8-41.1c-0.1-1.4-1.7-2.1-2.8-1.4c-8.3,5.7-32.2,25.4-32.2,63.2
			c0,15.9,6.6,28.4,17.1,37.7c-12.7,50.5-45.6,129-70.6,129c-3.9,0-7.4-2.1-9.8-4c-1.3-1-3.2,0-3,1.6c1.7,14,9,52.4,36.8,52.4
			c35.8,0,70-102.6,80.2-162.5c8.7,2.1,17.9,3.2,27.2,3.2c4.1,0,8-0.3,11.5-0.8c-17,41.6-44.6,116.4-44.6,162.1
			c0,40.7,20.5,71.5,58.4,71.5c50.3,0,83.8-58.6,100.1-96c5.2,30.4,22.9,53.3,54.1,53.3c38.2,0,66-38.9,83.5-74.6
			c-1.2,9.4-1.9,17.5-1.9,23.5c0,43.1,17.1,78.3,58.1,78.3c51.3,0,85-63.3,101.3-103.9c5.7,38,26.5,71,67,71
			c46.8,0,73.8-47.1,88.6-89.7c0,2,0,3.9,0,5.8c0,54.9,12.5,120,61.8,120c37.3,0,55.3-43.5,58.9-53.6c0.4-1-0.2-2.1-1.3-2.4
			c-7.3-1.8-32.3-12.9-34.1-83.2v0.1c0-0.8,0-1.7-0.1-2.6c0-0.6,0-1.2,0-1.8c0.3-21.6,10.4-49,31.3-49c55.4,0-14,250.2,102.8,250.2
			c69.8,0,86.4-87.9,89.9-115.4c0.2-1.9-2.1-2.8-3.3-1.3c-4.7,6.1-13.9,14-30.1,14c-87.2,0-13.3-219.2-117.9-219.2
			c-38.8,0-59.6,27.6-70.2,50.1c1.7-24.6,4.4-51.7,8.3-78.3c83.3-0.7,151.2-43.1,151.2-120.7c0-45.8-38.8-83.9-88.1-83.9
			c-68.8,0-108.4,57.2-131,132.1c-19.4-4.6-39.7-10.4-60.3-16.6c2.5-17.1,4.1-32,4.1-43.2c0-31.4-21.7-54.4-55.9-54.4
			c-18.6,0-31.7,8.1-36.2,11.3c-0.9,0.6-1,1.8-0.3,2.7c1.8,2.2,4.7,7.8,4.7,20.1c0,11.3-0.8,23.8-2.1,37.1
			c-40.9-12.2-78.3-21.6-105.7-21.6c-95.1,0-88.6,88.9-86,108.6c0.2,1.5,2,2.1,3.1,1.1c7-7,29.3-24.6,76.7-24.6
			c32.6,0,66.6,5.2,101.2,12.3c-6.9,40.2-15.1,82.4-21,121l0,0c-3.1,22.7-27.8,110.5-58.2,110.5c-10.1,0-16.1-10.1-16.1-21.4
			c0-33.7,19.6-80.6,19.6-118.3c0-31.4-21.3-50.9-55.9-50.9c-20.3,0-31,8.2-34.4,11.4c-0.7,0.6-0.7,1.6-0.2,2.3
			c1.4,2.1,4,7.5,4,20.4c0,13.9-3.5,37.6-7.9,63.4c-2.5,14.7-19.8,73-46.5,73c-12.4,0-17.3-12.2-17.3-25
			c0-34.9,18.5-80.6,18.5-117.1C766.7,323.6,744.6,305.3,713.2,305.3z M1272.2,188.5c10.8,0,17.5,8.3,17.5,18.8
			c0,31.9-36.3,52.8-70.4,55.6C1230.8,220.1,1247.8,188.5,1272.2,188.5z M1124,316.9c-4.2,24.2-7.2,49.1-9.2,73.5
			c-2.9,26.6-20.8,97.9-53,97.9c-13.5,0-18.3-13-18.3-27.8c0-37,12.2-98.7,23-155.7C1085.7,309.2,1105,313.5,1124,316.9z"/>
		<path class="st1" d="M390.1,1075.5c57,0,95.8-41.4,121.7-90c0.7,64.5,29.1,122.8,94.7,122.8c115.7,0,174.7-179.2,174.7-297.6
			c0-80.2-27.6-170.4-103.8-170.4c-46.7,0-74.1,41.5-80.5,52.6c-0.7,1.2,0.2,2.7,1.6,2.7c72.7,1.9,93.8,73,93.8,140.2
			c0,57.7-26.8,179.5-76.3,179.5c-19.6,0-24.1-22-24.1-42.9c0-48.1,33.8-125.7,33.8-175.3c0-31.4-28-49.7-59.5-49.7
			c-19.6,0-31.7,7-36.1,10c-0.9,0.6-1.1,1.9-0.3,2.7c2.7,2.8,8.1,11.1,8.1,32.1c0,10.3-0.8,20.9-2,31.7
			c-7.5,51.2-50.4,156.8-94.2,156.8c-13.9,0-21.3-11.6-21.3-24.7c0-52.3,55.2-122.6,55.2-184.6c0-50.9-34.1-86.5-92.2-86.5
			c-106.1,0-205.3,113.3-205.3,206.8c0,40.4,23.6,70.5,65.8,70.5c38.9,0,58.5-29.7,63.9-39.5c0.7-1.3-0.3-2.8-1.7-2.7
			c-9.3,0.5-35.2-1.7-35.2-43.2c0-48.3,42.3-130.9,98.2-130.9c17,0,27.2,10.8,27.2,27.1c0,61.1-79.3,159.5-79.3,227.4
			C317,1045,343.9,1075.5,390.1,1075.5z"/>
		<path class="st1" d="M965.8,1172.9c0-74.7-73.6-56.1-90.3-50.9c-1.3,0.4-1.7,2.1-0.7,3c4.6,4.4,13.7,18.1,13.7,58.1
			c0,52.9-23.3,190.6-74.2,190.6c-13.2,0-20.6-11.7-20.6-28.2c0-40.4,37.2-108.1,37.2-152.6c0-30.6-18.5-47.2-46.6-47.2
			c-10.8,0-21.2,1.9-25.6,2.9c-1.1,0.2-1.7,1.3-1.3,2.4c1,2.8,2.6,8.5,2.6,15.4c0,9.7-2.8,23.7-7.1,39.8
			c-2.2-26.4-12.6-68.3-57.2-68.3c-85,0-127.9,136.4-127.9,213.4c0,51.5,15.7,103.8,65.8,103.8c41.2,0,66.4-38.8,81.1-76.3
			c6,41.9,29.2,74.2,75,74.2c67.5,0,121-71.7,150.7-151.3c17.8,34.6,34.5,85.1,34.5,153.1c0,41.9-11.5,107.6-56.7,107.6
			c-16.6,0-28.7-13-28.7-29.4c0-34.4,28.6-41,37.5-42.3c1.3-0.2,2-1.6,1.4-2.7c-4.1-7.2-18.7-28.1-52.9-28.1
			c-50.9,0-87.4,44.8-87.4,98.2c0,59.8,47.4,105.9,110.6,105.9c111.3,0,165.8-95.1,165.8-199.9c0-103.9-58.5-196.6-101.4-250.5
			C964.8,1199.3,965.8,1185.6,965.8,1172.9z M683.1,1361.3c-14.6,0-17.5-14.1-17.5-29c0-36.5,23-123.9,56.2-123.9
			c23,0,18.2,38.2,11,64.1c-1.1,3.5-2.2,7-3.2,10.4v0.1l0,0l0,0l0,0c-0.2,0.7-0.5,1.7-0.9,2.8c-1.4,4.7-2.8,9.3-4.1,13.8
			C717.2,1323.3,703,1361.3,683.1,1361.3z"/>
	</g>
	<g>
		<path class="st2" d="M1006.5,1090.4c49.5,0,80.7-56,97.2-98.3c11.3,43.8,42.6,71.1,83.4,71.1c97.1,0,171.7-104.5,171.7-205.5
			c0-40.5-15.7-74.6-48.8-74.6c-22.7,0-43.4,15.5-49.1,20.2c-0.8,0.7-0.9,1.9-0.1,2.7c4.9,4.9,20.7,24.2,20.7,68.4
			c0,52.4-26.4,106.9-60.8,106.9c-24.7,0-30-24-30-47.7c0-58.2,36.9-161,36.9-220.1c0-31.4-21.3-53.2-55.9-53.2
			c-17,0-31.8,5.4-37.7,7.9c-1.1,0.5-1.5,1.9-0.7,2.9c2.2,2.4,5.3,8,5.3,19.8c0,54.6-14.7,111.1-26.2,164.8l0,0
			c-5.9,22.7-24.5,138.6-64.1,138.6c-13.9,0-16.8-14-16.8-29.8c0-59.6,51.1-225.1,51.1-286.6c0-31.4-21.7-54.4-55.9-54.4
			c-20.2,0-35.4,5.4-41.3,7.9c-1.1,0.5-1.5,1.9-0.7,2.9c2.2,2.4,5.3,8,5.3,19.8c0,48.1-15.2,121.7-29,191.7l0,0
			c-3.8,19.5-32.1,127-66.8,127c-13.3,0-16.1-10.9-16.1-23.9c0-27.3,24.3-77.3,24.3-105.7c0-28.2-18.5-47.3-50-47.3
			c-18.9,0-34.8,8.8-40.5,12.4c-1,0.6-1.1,2.1-0.2,2.9c2.5,2.3,6.5,7.8,6.5,20.1c0,45.7-31.5,118.5-31.5,161.9
			c0,39.9,19.1,69.9,56.9,69.9c45.5,0,76.6-44.6,95.9-86.9c-0.6,7.4-0.9,14.4-0.9,20.8C939,1043.3,958.1,1090.4,1006.5,1090.4z"/>
		<path class="st2" d="M926.2,710.7c3-29.7-12.4-59-44.8-62.3c-35.4-3.6-57.1,21.1-60.5,54.9c-3.1,31,13.6,58.8,44.2,61.9
			C898.8,768.6,922.7,745,926.2,710.7z"/>
		<path class="st2" d="M1359.5,1111.8c-1.1-0.9-2.6-0.3-2.9,1c-2.7,12.5-18.4,61.6-97.8,61.6c-11.3,0-23.4-1-36-2.5
			c0.6-5.5,1-10.3,1-14.4c0-34.6-22.5-54.4-57.1-54.4c-17.4,0-37.1,5.7-44.5,8.1c-1.2,0.4-1.7,1.9-0.8,2.9c2.2,2.5,5.1,8.1,5.1,19.6
			c0,7.3-0.3,14.8-0.7,22.4c-16.5-2.5-32.1-4.3-45.7-4.3c-39.5,0-59,19.7-59,52.8c0,17.4,6.6,31.8,10.1,38.1
			c0.7,1.3,2.7,1.3,3.3-0.1c3.1-7.3,13.4-23.1,43.2-23.1c11.1,0,24.7,2.2,39.8,5.5c-11.6,70.4-30.2,144.3-30.2,198
			c0,75.7,33.4,129.1,106.3,129.1c82.4,0,146.6-87.9,146.6-165.6c0-39.5-17-71.3-58.2-71.3c-30.3,0-48.3,23.3-53.5,31.2
			c-0.7,1.1-0.1,2.6,1.3,2.8c8.3,1.2,32.1,7.9,32.1,44.5c0,31.7-18,76.5-51.6,76.5c-26.2,0-32.6-23.7-32.6-53.4
			c0-35.2,17.5-106.8,31-167.9c28.4,7.2,56.1,12.9,78.8,12.9c60.4,0,104.9-28.2,104.9-85.5C1392,1141.2,1367.4,1118.3,1359.5,1111.8
			z"/>
		<path class="st2" d="M615.9,1508.8c-96,0-170.4-49.8-258.9-63.6c0.8-12.6,2-27,3.8-42.4c107.5-15.6,188-96.4,188-204.1
			c0-53.7-36.8-99.8-96.3-99.8c-99,0-148.8,105.1-170.9,216.8c-31.2-15.5-48.5-45-48.5-84.4c0-92.7,63.9-113.4,81.1-117.2
			c1.6-0.4,1.9-2.4,0.6-3.3c-8.5-5.4-31.5-17.8-64.1-17.8c-76,0-122.2,70-122.2,137.7c0,87.5,58.9,150.4,141.3,169.2
			c-1.5,17.1-2.4,33.7-2.9,49.5c-32.3,11.6-52.6,36.1-52.6,68.7c0,14.2,3.6,23,5.8,27.1c0.7,1.3,2.4,1.2,3.2,0
			c4.5-7.6,20.9-28.1,66.7-28.1c107.5,0,195.5,132.1,304.4,132.1c68.9,0,110.1-51.8,110.1-111.5c0-36.6-6.9-54-9.9-59.8
			c-0.6-1.2-2.2-1.3-3-0.3C685.4,1484.7,661.8,1508.8,615.9,1508.8z M455.6,1175.7c16.3,0,22.6,13.7,22.6,29.4
			c0,55.6-46.2,104.9-105,118.8C388.6,1248.2,415.1,1175.7,455.6,1175.7z"/>
		<path class="st2" d="M306.5,642c38.9,0,59.6-23.6,64.5-30.2c0.6-0.8,0.4-2-0.5-2.6c-5-3.4-19.9-16.9-19.9-58.7
			c0-80.2,59.8-208.6,59.8-284.7c0-38.2-21.7-66.8-58.8-66.8c-27,0-43.1,15.3-48.1,21c-0.8,0.9-0.5,2.4,0.7,2.9
			c4.4,1.9,13.2,7.7,13.2,23.6c0,83.1-82.4,221.1-82.4,309.7C235,606.3,258.3,642,306.5,642z"/>
		<path class="st2" d="M267.4,286.6c0.2-1.8-2-2.7-3.2-1.4c-5.5,6.4-18,16.7-41,16.7c-34.3,0-53.3-26.7-53.3-62.1
			c0-54.8,39.8-90.1,101.8-90.1c111.2,0,220.4,107.4,346.7,107.4c75.1,0,136.4-53.3,136.4-121.9c0-50.7-33.8-72.5-33.8-72.5
			s-20.6,71.7-130.7,71.7c-98,0-233.7-59.3-340.3-59.3c-119.3,0-194.1,83.8-194.1,181.6c0,75,46.1,129.8,113.3,129.8
			C252.2,386.4,265.3,309.4,267.4,286.6z"/>
		<path class="st2" d="M952.6,398c-3.1,22.7-27.8,110.5-58.2,110.5c-10.1,0-16.1-10.1-16.1-21.4c0-33.7,19.6-80.6,19.6-118.3
			c0-31.4-21.3-50.9-55.9-50.9c-20.3,0-31,8.2-34.4,11.4c-0.7,0.6-0.7,1.6-0.2,2.3c1.4,2.1,4,7.5,4,20.4c0,13.9-3.5,37.6-7.9,63.4
			c-2.5,14.7-19.8,73-46.5,73c-12.4,0-17.3-12.2-17.3-25c0-34.9,18.5-80.6,18.5-117.1c0-31.4-22.1-49.7-53.5-49.7
			c-16.9,0-29.5,5.4-34.5,7.8c-1.1,0.5-1.3,1.9-0.6,2.8c2.2,2.6,5.6,9,5.6,23.5c0,21.8-9,66.7-16.3,106.9l0,0
			c-6.9,28.3-30.9,90.5-59.1,90.5c-12.5,0-17.2-11.5-17.2-24.9c0-35.3,35.6-123.7,35.6-153.6c0-24.2-14.8-39.1-41.5-39.1
			c-82.9,0-92.8-31-93.8-41.1c-0.1-1.4-1.7-2.1-2.8-1.4c-8.3,5.7-32.2,25.4-32.2,63.2c0,15.9,6.6,28.4,17.1,37.7
			c-12.7,50.5-45.6,129-70.6,129c-3.9,0-7.4-2.1-9.8-4c-1.3-1-3.2,0-3,1.6c1.7,14,9,52.4,36.8,52.4c35.8,0,70-102.6,80.2-162.5
			c8.7,2.1,17.9,3.2,27.2,3.2c4.1,0,8-0.3,11.5-0.8c-17,41.6-44.6,116.4-44.6,162.1c0,40.7,20.5,71.5,58.4,71.5
			c50.3,0,83.8-58.6,100.1-96c5.2,30.4,22.9,53.3,54.1,53.3c38.2,0,66-38.9,83.5-74.6c-1.2,9.4-1.9,17.5-1.9,23.5
			c0,43.1,17.1,78.3,58.1,78.3c51.3,0,85-63.3,101.3-103.9c5.7,38,26.5,71,67,71c46.8,0,73.8-47.1,88.6-89.7c0,2,0,3.9,0,5.8
			c0,54.9,12.5,120,61.8,120c37.3,0,55.3-43.5,58.9-53.6c0.4-1-0.2-2.1-1.3-2.4c-7.3-1.8-32.3-12.9-34.1-83.2v0.1
			c0-0.8,0-1.7-0.1-2.6c0-0.6,0-1.2,0-1.8c0.3-21.6,10.4-49,31.3-49c55.4,0-14,250.2,102.8,250.2c69.8,0,86.4-87.9,89.9-115.4
			c0.2-1.9-2.1-2.8-3.3-1.3c-4.7,6.1-13.9,14-30.1,14c-87.2,0-13.3-219.2-117.9-219.2c-38.8,0-59.6,27.6-70.2,50.1
			c1.7-24.6,4.4-51.7,8.3-78.3c83.3-0.7,151.2-43.1,151.2-120.7c0-45.8-38.8-83.9-88.1-83.9c-68.8,0-108.4,57.2-131,132.1
			c-19.4-4.6-39.7-10.4-60.3-16.6c2.5-17.1,4.1-32,4.1-43.2c0-31.4-21.7-54.4-55.9-54.4c-18.6,0-31.7,8.1-36.2,11.3
			c-0.9,0.6-1,1.8-0.3,2.7c1.8,2.2,4.7,7.8,4.7,20.1c0,11.3-0.8,23.8-2.1,37.1c-40.9-12.2-78.3-21.6-105.7-21.6
			c-95.1,0-88.6,88.9-86,108.6c0.2,1.5,2,2.1,3.1,1.1c7-7,29.3-24.6,76.7-24.6c32.6,0,66.6,5.2,101.2,12.3
			C966.7,317.2,958.5,359.4,952.6,398z M1263.6,180c10.8,0,17.5,8.3,17.5,18.8c0,31.9-36.3,52.8-70.4,55.6
			C1222.3,211.6,1239.3,180,1263.6,180z M1115.5,308.4c-4.2,24.2-7.2,49.1-9.2,73.5c-2.9,26.6-20.8,97.9-53,97.9
			c-13.5,0-18.3-13-18.3-27.8c0-37,12.2-98.7,23-155.7C1077.2,300.7,1096.5,305,1115.5,308.4z"/>
		<path class="st2" d="M381.6,1067c57,0,95.8-41.4,121.7-90c0.7,64.5,29.1,122.8,94.7,122.8c115.7,0,174.7-179.2,174.7-297.6
			c0-80.2-27.6-170.4-103.8-170.4c-46.7,0-74.1,41.5-80.5,52.6c-0.7,1.2,0.2,2.7,1.6,2.7c72.7,1.9,93.8,73,93.8,140.2
			c0,57.7-26.8,179.5-76.3,179.5c-19.6,0-24.1-22-24.1-42.9c0-48.1,33.8-125.7,33.8-175.3c0-31.4-28-49.7-59.5-49.7
			c-19.6,0-31.7,7-36.1,10c-0.9,0.6-1.1,1.9-0.3,2.7c2.7,2.8,8.1,11.1,8.1,32.1c0,10.3-0.8,20.9-2,31.7
			c-7.5,51.2-50.4,156.8-94.2,156.8c-13.9,0-21.3-11.6-21.3-24.7c0-52.3,55.2-122.6,55.2-184.6c0-50.9-34.1-86.5-92.2-86.5
			c-106.1,0-205.3,113.3-205.3,206.8c0,40.4,23.6,70.5,65.8,70.5c38.9,0,58.5-29.7,63.9-39.5c0.7-1.3-0.3-2.8-1.7-2.7
			c-9.3,0.5-35.2-1.7-35.2-43.2c0-48.3,42.3-130.9,98.2-130.9c17,0,27.2,10.8,27.2,27.1c0,61.1-79.3,159.5-79.3,227.4
			C308.5,1036.5,335.4,1067,381.6,1067z"/>
		<path class="st2" d="M957.3,1164.4c0-74.7-73.6-56.1-90.3-50.9c-1.3,0.4-1.7,2.1-0.7,3c4.6,4.4,13.7,18.1,13.7,58.1
			c0,52.9-23.3,190.6-74.2,190.6c-13.2,0-20.6-11.7-20.6-28.2c0-40.4,37.2-108.1,37.2-152.6c0-30.6-18.5-47.2-46.6-47.2
			c-10.8,0-21.2,1.9-25.6,2.9c-1.1,0.2-1.7,1.3-1.3,2.4c1,2.8,2.6,8.5,2.6,15.4c0,9.7-2.8,23.7-7.1,39.8
			c-2.2-26.4-12.6-68.3-57.2-68.3c-85,0-127.9,136.4-127.9,213.4c0,51.5,15.7,103.8,65.8,103.8c41.2,0,66.4-38.8,81.1-76.3
			c5.9,41.9,29.2,74.2,75,74.2c67.5,0,121-71.7,150.7-151.3c17.8,34.6,34.5,85.1,34.5,153.1c0,41.9-11.5,107.6-56.7,107.6
			c-16.6,0-28.7-13-28.7-29.4c0-34.4,28.6-41,37.5-42.3c1.3-0.2,2-1.6,1.4-2.7c-4.1-7.2-18.7-28.1-52.9-28.1
			c-50.9,0-87.4,44.8-87.4,98.2c0,59.8,47.4,105.9,110.6,105.9c111.3,0,165.8-95.1,165.8-199.9c0-103.9-58.5-196.6-101.4-250.5
			C956.3,1190.8,957.3,1177.1,957.3,1164.4z M674.6,1352.8c-14.6,0-17.5-14.1-17.5-29c0-36.5,23-123.9,56.2-123.9
			c23,0,18.2,38.2,11,64.1c-1.1,3.5-2.2,7-3.2,10.4v0.1l0,0l0,0l0,0c-0.2,0.7-0.5,1.7-0.9,2.8c-1.4,4.7-2.8,9.3-4.1,13.8
			C708.7,1314.8,694.5,1352.8,674.6,1352.8z"/>
	</g>
</g>
</svg>
